<?xml version="1.0" encoding="UTF-8" standalone="no"?>
<!DOCTYPE svg PUBLIC "-//W3C//DTD SVG 1.1//EN" "http://www.w3.org/Graphics/SVG/1.1/DTD/svg11.dtd">
<svg width="100%" height="100%" viewBox="0 0 100 100" version="1.1" xmlns="http://www.w3.org/2000/svg" xmlns:xlink="http://www.w3.org/1999/xlink" xml:space="preserve" xmlns:serif="http://www.serif.com/" style="fill-rule:evenodd;clip-rule:evenodd;stroke-linejoin:round;stroke-miterlimit:2;">
    <g transform="matrix(0.00180416,0,0,0.00171,-4.08621,-1.3365)">
        <path d="M33941.8,28131.8L39586.6,21449.4C39812.3,21182.2 40102.5,21020 40410.6,20970.7C40722.4,20920.8 41046.1,20988.1 41334.5,21180.5L57015.8,31645.5C57198.9,31767.8 57348,31924.7 57460,32111.5C57569.2,32293.6 57641.5,32500.9 57674,32728.7C57706.3,32955.1 57695.8,33175.2 57644,33383.5C57591.1,33595.8 57496.3,33793.4 57361,33970.9L51928.6,41093.8C51708.3,41382.6 51414.1,41562.3 51099,41622.6C50778.7,41683.8 50442,41620.9 50142.8,41423.5L50141.7,41422.8L50141.3,41423.5L47993.8,40006.4C47957.3,39982.2 47926,39953 47900.3,39920.3L42659.1,46792.5C42438.8,47081.3 42144.6,47261 41829.5,47321.3C41509.2,47382.6 41172.5,47319.7 40873.3,47122.3L40872.2,47121.5L40871.8,47122.3L38724.3,45705.1C38697.1,45687.1 38672.8,45666.3 38651.5,45643.3L33374.5,52562.4C33153.5,52852.2 32855.6,53035.8 32537.8,53096.6C32215.1,53158.3 31876.8,53093.6 31579.4,52885.9L28513.5,50745.1C28333.2,50619.1 28289.1,50370.7 28415.1,50190.4C28541.1,50010 28789.4,49966 28969.8,50092L32035.7,52232.8C32146.4,52310.1 32270.6,52334.6 32387.8,52312.2C32516.4,52287.6 32641.6,52207.2 32740.1,52078L34628.9,49601.6L34625.3,49599.3L30696.8,46977.5L29344.5,48693.7C29259.2,48802.1 29102.3,48820.8 28993.9,48735.6C28885.5,48650.4 28866.7,48493.5 28951.9,48385.1L30280.1,46699.5L26559.2,44216.2L25479.8,45586.1C25394.6,45694.5 25237.6,45713.3 25129.2,45628.1C25020.8,45542.9 25002,45385.9 25087.2,45277.5L26142.5,43938.2L22065.6,41217.4L20834,42780.4C20748.8,42888.8 20591.8,42907.6 20483.4,42822.4C20375,42737.2 20356.2,42580.2 20441.4,42471.8L21649,40939.4L17596.1,38234.7L15886.3,40264.2L26538.7,47447.4C26682.9,47486.8 26822.5,47552.4 26954,47644C27169.4,47793.9 27337.1,47995.3 27449.5,48231.7C27557.4,48458.8 27612,48717.7 27605.8,48992.7L27451.9,55851.4C27446.3,56099.6 27380.9,56330.3 27262.7,56531.4C27144.2,56732.9 26974.6,56902.3 26761,57027.6L26756.1,57030.3L26756.3,57030.7L23179.1,59074.2C22958.7,59200.1 22720,59262.4 22479.4,59261.2C22291,59260.2 22103.9,59220.1 21925.9,59141C21880.6,59139.9 21835.1,59126.5 21794.5,59099.6L7742.5,49747.4C7711.59,49754.8 7679.3,49758.7 7646.08,49758.4C7426.03,49756.7 7249.05,49576.9 7250.77,49356.8L7321.37,42042.6C7324.03,41765.8 7387.2,41508.1 7502.84,41285C7622.57,41054.1 7797.77,40859.6 8020.13,40717.7L11685.7,38377.2C11914.9,38230.9 12162.7,38160.6 12412.1,38166C12663.6,38171.5 12909.3,38251.8 13131.8,38406.8L15222.3,39816.5L21032.6,32919.6C21258.8,32651.1 21548.9,32488.4 21856.1,32439.2C22168,32389.3 22492,32456.7 22780.4,32649.2L24735.7,33954C24731.4,33857.8 24761.8,33759.7 24828.7,33680.2L30317.1,27149.7C30542.9,26881.1 30833,26718.4 31140.2,26669.2C31452.3,26619.3 31776.5,26686.7 32065,26879.2L33941.8,28131.8ZM8811.3,26238.5C8878.71,26118.2 9030.87,26075.4 9151.14,26142.8C9271.41,26210.2 9314.25,26362.3 9246.84,26482.6L7003.41,30461.9C6936,30582.1 6783.84,30625 6663.57,30557.5C6543.3,30490.1 6500.46,30338 6567.87,30217.7L8811.3,26238.5ZM7079.8,23028.9C7217.32,23027.8 7329.7,23138.4 7330.77,23276C7331.84,23413.5 7221.22,23525.9 7083.7,23526.9L2515.86,23573.7C2378.34,23574.8 2265.96,23464.1 2264.89,23326.6C2263.82,23189.1 2374.44,23076.7 2511.96,23075.6L7079.8,23028.9ZM8992.57,19923.2C9062.68,20041.9 9023.33,20194.9 8904.68,20265C8786.03,20335.1 8633,20295.8 8562.89,20177.1L6238.48,16244.6C6168.37,16126 6207.72,15972.9 6326.37,15902.8C6445.02,15832.7 6598.05,15872.1 6668.16,15990.7L8992.57,19923.2ZM12638.8,20027.1C12571.4,20147.4 12419.2,20190.2 12299,20122.8C12178.7,20055.4 12135.9,19903.2 12203.3,19783L14446.7,15803.7C14514.1,15683.5 14666.3,15640.6 14786.5,15708C14906.8,15775.4 14949.6,15927.6 14882.2,16047.9L12638.8,20027.1ZM14370.3,23236.7C14232.8,23237.8 14120.4,23127.2 14119.3,22989.6C14118.3,22852.1 14228.9,22739.7 14366.4,22738.7L18934.2,22691.9C19071.8,22690.8 19184.1,22801.5 19185.2,22939C19186.3,23076.5 19075.7,23188.9 18938.1,23189.9L14370.3,23236.7ZM12457.5,26342.4C12387.4,26223.7 12426.8,26070.7 12545.4,26000.6C12664.1,25930.5 12817.1,25969.8 12887.2,26088.5L15211.6,30021C15281.7,30139.6 15242.4,30292.6 15123.7,30362.8C15005.1,30432.9 14852.1,30393.5 14781.9,30274.9L12457.5,26342.4ZM8089.82,24292.1C8280.52,24182.5 8523.98,24248.3 8633.57,24439C8743.16,24629.7 8677.4,24873.2 8486.7,24982.8L5379.4,26776.8C5188.7,26886.4 4945.24,26820.6 4835.65,26629.9C4726.06,26439.2 4791.82,26195.7 4982.52,26086.1L8089.82,24292.1ZM8402.02,21429.5C8592.72,21539.1 8658.48,21782.5 8548.89,21973.2C8439.3,22163.9 8195.84,22229.7 8005.14,22120.1L4897.84,20326.1C4707.14,20216.5 4641.38,19973.1 4750.97,19782.4C4860.56,19591.7 5104.02,19525.9 5294.72,19635.5L8402.02,21429.5ZM11040.4,20270.1C11040.4,20491 10861.3,20670.1 10640.4,20670.1C10419.5,20670.1 10240.4,20491 10240.4,20270.1L10240.4,16682.1C10240.4,16461.2 10419.5,16282.1 10640.4,16282.1C10861.3,16282.1 11040.4,16461.2 11040.4,16682.1L11040.4,20270.1ZM13360.3,21973.4C13169.6,22083 12926.1,22017.3 12816.5,21826.6C12706.9,21635.9 12772.7,21392.4 12963.4,21282.8L16070.7,19488.8C16261.4,19379.2 16504.9,19445 16614.5,19635.7C16724,19826.4 16658.3,20069.9 16467.6,20179.4L13360.3,21973.4ZM13048.1,24836.1C12857.4,24726.5 12791.6,24483 12901.2,24292.3C13010.8,24101.6 13254.3,24035.9 13445,24145.5L16552.3,25939.5C16743,26049.1 16808.7,26292.5 16699.1,26483.2C16589.5,26673.9 16346.1,26739.7 16155.4,26630.1L13048.1,24836.1ZM10409.7,25995.4C10409.7,25774.5 10588.8,25595.4 10809.7,25595.4C11030.6,25595.4 11209.7,25774.5 11209.7,25995.4L11209.7,29583.4C11209.7,29804.4 11030.6,29983.4 10809.7,29983.4C10588.8,29983.4 10409.7,29804.4 10409.7,29583.4L10409.7,25995.4ZM34872.4,24308.5C34872.9,24446 34761.9,24558 34624.4,24558.5C34486.8,24559 34374.9,24448 34374.4,24310.5L34348.9,18966.1C34348.3,18828.6 34459.4,18716.7 34596.9,18716.1C34734.4,18715.6 34846.4,18826.6 34846.9,18964.2L34872.4,24308.5ZM25231.7,7191.47L28626.1,6953.83L29908.1,4834.6L26739.7,5065.29L25231.7,7191.47ZM29235.6,6911.15L32144,6707.53L33349.3,4584.05L30518.7,4790.15L29235.6,6911.15ZM32741,6665.73L35667.7,6460.83L36795,4333.19L33947.3,4540.52L32741,6665.73ZM36254,6419.78L39198.6,6213.63L40246.4,4081.89L37382.2,4290.43L36254,6419.78ZM39773.1,6173.4L43946.2,5881.23L44958.1,3738.84L40821.8,4040L39773.1,6173.4ZM43701.8,6398.71L39518.4,6691.6L38399.4,8968.09L41697.4,8721.62C41824,8712.16 42190.3,8511.75 42620.3,8085.67C42926.5,7782.25 43241.1,7372.78 43490,6847.14L43701.8,6398.71ZM38943.8,6731.82L35978.7,6939.42L34759.8,9240.09L37823.4,9011.13L38943.8,6731.82ZM35392.4,6980.47L32445.3,7186.8L31125.7,9511.68L34171.9,9284.02L35392.4,6980.47ZM31848.3,7228.6L28919.5,7433.65L27498.4,9782.75L30527,9556.42L31848.3,7228.6ZM28310,7476.32L24858.3,7717.98L23164.1,10106.7L26887.1,9828.44L28310,7476.32ZM27114.1,4537.43L30224.9,4310.94L31094.3,2873.7L28304.4,3128.84C28234.7,3135.2 28172.9,3153.93 28120.1,3184.33C28068.2,3214.2 28021.1,3258.49 27980,3316.53L27114.1,4537.43ZM30835.5,4266.48L33645.7,4061.87L34496.8,2562.54L31712.2,2817.19L30835.5,4266.48ZM34243.7,4018.34L37070.8,3812.5L37897.9,2251.5L35101.4,2507.24L34243.7,4018.34ZM37658,3769.75L40501.6,3562.71L41299.1,1940.46L38491.2,2197.25L37658,3769.75ZM41077,3520.82L45203,3220.42L45676.3,2218.43C45712,2142.77 45726.4,2064.27 45720,1988.21C45713.6,1912.41 45686.4,1837.93 45638.9,1770.03C45591.1,1701.75 45530.7,1650.61 45462.3,1618.87C45393,1586.67 45314.1,1573.29 45230.5,1580.92L41880,1887.34L41077,3520.82ZM44213.9,7183.42L44213.5,7184.18L44211.9,7187.54L42824,10125.9C42727.2,10331 42582.9,10499.4 42403.8,10622.5C42224.8,10745.5 42016.1,10819.8 41790.4,10836.7L35856.5,11280.1L36957.5,23122.9C36977.4,23342.1 36815.8,23535.9 36596.6,23555.7C36377.4,23575.5 36183.6,23413.9 36163.8,23194.8L35061.6,11339.5L34163.1,11406.7L33122.1,25641.7C33106.6,25861.8 32915.6,26027.5 32695.5,26012C32475.5,25996.5 32309.7,25805.5 32325.2,25585.5L33357.7,11466.9L23374.3,12213C23066.3,12236 22774.7,12146.1 22542.4,11974.9C22309.3,11803.1 22136.6,11550.6 22067.3,11249C22005.9,10981.8 21984.5,10776.5 22019.5,10567.4C22055.6,10352.1 22145.5,10163.8 22305.7,9937.95L27330,2854.03C27437,2703.2 27569.2,2582.44 27723.2,2493.71C27876.3,2405.53 28047.2,2352.01 28232.5,2335.08L45158.7,787.16C45386,766.38 45603.1,804 45796.7,893.87C45991.3,984.21 46160.8,1126.25 46292,1313.77C46423.5,1501.68 46498.8,1709.52 46516.9,1922.59C46534.9,2135.41 46495.8,2352.45 46398.2,2559.05L44213.9,7183.42ZM42330.9,9301.04C42084.4,9438.31 41878.2,9509.42 41756.8,9518.5L22817.4,10933.9C22824.5,10975.4 22833.9,11020.9 22845.4,11070.9C22870.5,11179.9 22931.8,11270.4 23014.2,11331.1C23097.4,11392.4 23202.7,11424.5 23314.9,11416.1L41731,10039.8C41817.6,10033.3 41893.3,10007.8 41953.8,9966.19C42014.5,9924.54 42065.3,9863.24 42102.2,9785.24L42330.9,9301.04ZM14220.3,53459.4L14260.2,47336.8C14260.4,47299.5 14268.8,47264.1 14283.6,47232.3L8107.89,43122.1L8047.76,49351.3L14220.3,53459.4ZM14756.9,47547.3L14716.2,53789.4L21098.2,58036.8C21090.8,57975.9 21087.3,57913.7 21087.8,57850.5C21101.8,55831.6 21119.5,53813.5 21138.7,51794.7L14756.9,47547.3ZM21146.1,51200.3C21159,50953.6 21220.7,50723.8 21325.1,50522.2C21391.3,50394.7 21474.3,50278.3 21572.8,50175.7L8410.44,41415.6C8327.72,41477 8260.78,41557 8212.22,41650.7C8152.38,41766.1 8119.66,41901.5 8118.25,42048.9L8113.64,42526.6L21146.1,51200.3ZM21995,49857.4L25430.5,47664L12675.6,39063L12675.5,39063C12582.5,38998.3 12487.4,38964.9 12396.5,38962.9C12303.5,38960.9 12207.1,38989.6 12113.8,39049.1L8868.55,41121.2L21995,49857.4ZM26312.2,48212.9C26299.6,48210.9 26287,48208.4 26274.5,48205.2C26255.8,48202.2 26237.2,48200.5 26218.8,48200.1C26125.8,48198.1 26029.4,48226.8 25936.1,48286.3L22270.5,50626.8C22170.2,50690.8 22090.3,50780.3 22034.5,50887.9C21974.7,51003.3 21942,51138.7 21940.5,51286.1L21903.8,55089.3L21884.6,57853.7C21883.9,57966.4 21910.3,58070.1 21960.6,58158.5C22010.7,58246.4 22085.8,58321.7 22182.8,58378.4C22279.7,58435.1 22381.9,58463.8 22482.5,58464.3C22583.3,58464.8 22686.6,58436.9 22785.3,58380.5L26362.6,56336.9L26362.7,56337.2C26454.8,56282.2 26526.5,56211 26575.2,56128.2C26624.9,56043.6 26652.5,55944.4 26655,55835.8L26809,48977.1C26812.3,48828.4 26783.9,48690.7 26727.6,48572.3C26675.7,48463.2 26597.9,48370 26497.8,48300.2C26436.2,48257.4 26373.8,48228.2 26312.2,48212.9ZM37751.2,47580.7C37759.1,47566.9 37768.3,47554 37778.6,47542.2L37779.1,47541.5L37782.8,47537.4L37782.9,47537.2L37786.4,47533.5L37787.4,47532.5L37790.1,47529.7L37791.8,47528L37794.5,47525.3L37796,47523.9L37798.8,47521.3L37800.7,47519.6L37802.3,47518.1L37805.9,47515L37806.1,47514.8C37836.2,47489.2 37872.5,47470.6 37912.4,47461.6L37914.1,47461.2L37918.2,47460.3L37918.6,47460.2L37923.7,47459.3L37923.9,47459.2C37942.4,47455.9 37961.5,47454.7 37980.8,47455.7L37986.5,47456.1C38019,47458.4 38049.7,47467 38077.5,47480.6L38077.9,47480.8L38082.4,47483.1L38085.1,47484.5L38087.8,47485.9L38091.5,47488L38092.6,47488.6C38106.4,47496.5 38119.3,47505.7 38131.1,47516L38131.8,47516.6L38136,47520.2L38136.1,47520.4L38139.8,47523.8L38140.8,47524.8L38143.6,47527.5L38145.3,47529.2L38148,47532L38149.4,47533.4L38152,47536.2L38153.7,47538.1L38155.2,47539.7L38158.3,47543.4L38158.5,47543.6C38184.1,47573.7 38202.7,47609.9 38211.7,47649.8L38212.1,47651.6L38213,47655.7L38213.1,47656L38214,47661.1L38214.1,47661.3C38216.8,47676.3 38218.1,47691.8 38217.9,47707.4L38217.9,49925.6C38217.9,50063.7 38106,50175.6 37967.9,50175.6C37829.9,50175.6 37717.9,50063.7 37717.9,49925.6L37717.9,48951.7C37592.8,49096.2 37455.1,49202.1 37307,49299L36000.7,50276.9C35890.7,50359.4 35734.6,50337.1 35652.1,50227.1C35569.5,50117.1 35591.8,49961 35701.9,49878.5L37009.3,48899.7C37016,48894.3 37023.1,48889.1 37030.5,48884.3C37184.9,48783.7 37322.7,48673.1 37435,48500.3C37552.8,48318.9 37650.1,48061.1 37721.2,47665.1C37725.2,47640.6 37732.7,47617.3 37743.2,47595.8L37743.4,47595.4L37745.7,47590.9L37747.1,47588.2L37748.5,47585.6L37750.6,47581.8L37751.2,47580.7ZM34872.9,41677.8L33135.1,43883.2L37015.2,46472.7L38172.5,44955.2C38241.1,44865.3 38288.8,44766.5 38314.9,44661.5C38342,44552.6 38347.1,44434.4 38329.3,44309.8C38311.8,44186.8 38275.4,44079.2 38221.6,43989.6C38170.7,43904.7 38102.4,43833 38018,43776.7L34872.9,41677.8ZM32825.7,44275.9L31006.2,46584.8L34902.7,49185.2C34912.5,49191.8 34921.6,49198.9 34930.2,49206.5L36712.4,46869.7L32825.7,44275.9ZM30589.5,46306.8L32409,43997.8L28688.1,41514.6L26868.6,43823.6L30589.5,46306.8ZM32718.4,43605.2L34456.3,41399.8L30735.4,38916.6L28997.5,41122L32718.4,43605.2ZM26452,43545.6L28271.4,41236.6L24194.5,38515.8L22375,40824.8L26452,43545.6ZM28580.8,40843.9L30318.7,38638.5L26224.1,35906C26215.8,35938.5 26200.7,35969.8 26178.6,35997.9L24503.9,38123.2L28580.8,40843.9ZM25786,35689.3C25799.7,35672 25815.1,35657 25832,35644.3L22336.7,33311.7C22222.4,33235.4 22097.9,33208.1 21981.1,33226.8C21859.2,33246.2 21740,33315.7 21642,33432.1L20142.2,35212.3L24087.3,37845.1L25786,35689.3ZM21958.4,40546.7L23777.9,38237.8L19819.1,35595.9L17919.2,37851.1L21958.4,40546.7ZM39049.9,44987.3C39089.8,44998.2 39128.6,45015.5 39165,45039.5L41312.4,46456.6L41311.9,46457.3C41429.7,46534.7 41559,46560 41679.5,46536.9C41805.7,46512.8 41927.8,46435.1 42024.7,46308.1L43913.4,43831.7L43909.9,43829.4L39981.3,41207.6L38902.8,42576.4C38817.6,42684.8 38660.6,42703.6 38552.2,42618.4C38443.8,42533.2 38425,42376.2 38510.2,42267.8L39564.7,40929.6L35843.8,38446.3L34722.3,39869.5C34637.1,39977.9 34480.2,39996.7 34371.8,39911.5C34263.3,39826.2 34244.6,39669.3 34329.8,39560.9L35427.1,38168.3L31350.2,35447.5L30118.6,37010.5C30033.4,37118.9 29876.4,37137.7 29768,37052.5C29659.6,36967.3 29640.8,36810.3 29726,36701.9L30933.5,35169.5L26886.8,32468.9L25438.1,34192.7C25391.6,34248 25333.2,34287.4 25269.9,34310.5L38461.7,43114.2C38644.9,43236.4 38793.9,43393.3 38906,43580.2C39015.2,43762.2 39087.4,43969.5 39119.9,44197.3C39152.2,44423.7 39141.8,44643.8 39089.9,44852.1C39078.5,44897.9 39065.2,44942.9 39049.9,44987.3ZM47035.7,41810.8C47043.7,41797 47052.9,41784.1 47063.1,41772.3L47063.7,41771.6L47067.4,41767.5L47067.5,41767.3L47070.9,41763.6L47072,41762.6L47074.6,41759.8L47076.4,41758.1L47079.1,41755.4L47080.5,41754L47083.4,41751.4L47085.2,41749.7L47086.8,41748.2L47090.5,41745.1L47090.7,41744.9C47120.8,41719.3 47157.1,41700.7 47197,41691.7L47198.7,41691.3L47202.8,41690.4L47203.2,41690.3L47208.2,41689.4L47208.4,41689.3C47226.9,41686 47246,41684.8 47265.4,41685.8L47271.1,41686.2C47303.5,41688.5 47334.3,41697.1 47362.1,41710.7L47362.5,41710.9L47367,41713.2L47369.7,41714.6L47372.3,41716L47376,41718.1L47377.2,41718.7C47390.9,41726.6 47403.8,41735.8 47415.7,41746.1L47416.4,41746.7L47420.5,41750.3L47420.6,41750.5L47424.3,41753.9L47425.4,41754.9L47428.2,41757.6L47429.9,41759.3L47432.6,41762.1L47433.9,41763.5L47436.6,41766.3L47438.3,41768.2L47439.7,41769.8L47442.9,41773.5L47443.1,41773.7C47468.7,41803.8 47487.2,41840 47496.3,41879.9L47496.7,41881.7L47497.6,41885.8L47497.6,41886.1L47498.6,41891.2L47498.6,41891.4C47501.3,41906.5 47502.6,41921.9 47502.5,41937.5L47502.5,44155.7C47502.5,44293.8 47390.6,44405.7 47252.5,44405.7C47114.4,44405.7 47002.5,44293.8 47002.5,44155.7L47002.5,43181.8C46877.3,43326.3 46739.6,43432.2 46591.6,43529.1L45285.2,44507C45175.2,44589.5 45019.1,44567.2 44936.6,44457.2C44854.1,44347.2 44876.4,44191.1 44986.4,44108.6L46293.9,43129.8C46300.6,43124.4 46307.7,43119.2 46315.1,43114.4C46469.4,43013.8 46607.3,42903.2 46719.6,42730.4C46837.4,42549 46934.6,42291.2 47005.7,41895.2C47009.7,41870.7 47017.2,41847.4 47027.8,41825.9L47027.9,41825.5L47030.2,41821L47031.6,41818.3L47033,41815.7L47035.1,41811.9L47035.7,41810.8ZM44157.5,35907.9L42419.6,38113.3L46299.8,40702.8L47457.1,39185.3C47525.7,39095.4 47573.3,38996.6 47599.5,38891.6C47626.6,38782.7 47631.6,38664.5 47613.9,38540C47596.3,38416.9 47559.9,38309.3 47506.2,38219.7C47455.3,38134.8 47387,38063.1 47302.5,38006.8L44157.5,35907.9ZM42110.2,38506L40290.8,40815L44187.2,43415.3C44197,43421.8 44206.2,43429 44214.7,43436.6L45996.9,41099.8L42110.2,38506ZM39874.1,40536.9L41693.6,38227.9L37972.6,35744.7L36153.2,38053.7L39874.1,40536.9ZM42003,37835.3L43740.8,35629.9L40019.9,33146.7L38282,35352.1L42003,37835.3ZM35736.5,37775.7L37556,35466.7L33479.1,32745.9L31659.6,35054.9L35736.5,37775.7ZM37865.4,35074L39603.3,32868.6L35508.7,30136.1C35500.3,30168.6 35485.2,30200 35463.2,30228L33788.5,32353.3L37865.4,35074ZM35070.6,29919.4C35084.2,29902.1 35099.7,29887 35116.5,29874.4L31621.2,27541.8C31506.8,27465.4 31382.2,27438 31265.2,27456.7C31143.6,27476.2 31024.4,27545.7 30926.5,27662.2L29429,29444L33371.8,32075.2L35070.6,29919.4ZM31243,34776.8L33062.4,32467.9L29106.4,29827.8L27209.4,32085L31243,34776.8ZM48309.1,39285.9C48352.6,39296.5 48395,39314.7 48434.4,39340.8L50581.9,40757.9L50581.4,40758.6C50699.2,40836 50828.5,40861.2 50949,40838.2C51075.2,40814 51197.3,40736.4 51294.2,40609.4L53182.9,38132.9L53179.4,38130.6L49250.8,35508.9L48172.2,36877.6C48087,36986 47930.1,37004.8 47821.7,36919.6C47713.3,36834.4 47694.5,36677.4 47779.7,36569L48834.2,35230.8L45113.2,32747.6L43991.8,34170.7C43906.6,34279.1 43749.6,34297.9 43641.2,34212.7C43532.8,34127.5 43514,33970.5 43599.2,33862.1L44696.6,32469.6L40619.7,29748.8L39388.1,31311.8C39302.9,31420.2 39145.9,31439 39037.5,31353.8C38929.1,31268.5 38910.3,31111.6 38995.5,31003.2L40203,29470.8L36143.9,26761.9L34610,28577.7L47746.3,37344.3C47929.4,37466.5 48078.5,37623.4 48190.6,37810.3C48299.7,37992.3 48372,38199.6 48404.5,38427.5C48436.8,38653.8 48426.3,38873.9 48374.5,39082.2C48357.2,39151.8 48335.4,39219.7 48309.1,39285.9ZM56305.2,36112.1C56313.2,36098.3 56322.3,36085.4 56332.6,36073.5L56333.2,36072.9L56336.9,36068.7L56337,36068.6L56340.4,36064.9L56341.4,36063.8L56344.1,36061.1L56345.8,36059.3L56348.6,36056.7L56350,36055.3L56352.9,36052.7L56354.7,36051L56356.3,36049.5L56360,36046.3L56360.2,36046.2C56390.3,36020.6 56426.6,36002 56466.4,35992.9L56468.2,35992.6L56472.3,35991.7L56472.7,35991.6L56477.7,35990.6L56477.9,35990.6C56496.4,35987.3 56515.5,35986.1 56534.8,35987.1L56540.6,35987.4C56573,35989.8 56603.8,35998.4 56631.6,36012L56632,36012.2L56636.5,36014.5L56639.2,36015.9L56641.8,36017.3L56645.5,36019.3L56646.6,36020C56660.4,36027.9 56673.3,36037.1 56685.2,36047.3L56685.9,36047.9L56690,36051.6L56690.1,36051.7L56693.8,36055.2L56694.9,36056.2L56697.7,36058.9L56699.4,36060.6L56702.1,36063.3L56703.4,36064.8L56706.1,36067.6L56707.8,36069.5L56709.2,36071.1L56712.4,36074.7L56712.6,36074.9C56738.2,36105.1 56756.7,36141.3 56765.8,36181.2L56766.2,36182.9L56767,36187L56767.1,36187.4L56768.1,36192.5L56768.1,36192.7C56770.8,36207.7 56772.1,36223.1 56772,36238.8L56772,38457C56772,38595.1 56660.1,38707 56522,38707C56383.9,38707 56272,38595.1 56272,38457L56272,37483.1C56146.8,37627.6 56009.1,37733.5 55861,37830.4L54554.7,38808.3C54444.7,38890.8 54288.6,38868.5 54206.1,38758.5C54123.6,38648.5 54145.9,38492.4 54255.9,38409.9L55563.3,37431.1C55570.1,37425.7 55577.1,37420.5 55584.6,37415.7C55738.9,37315.1 55876.8,37204.5 55989.1,37031.6C56106.9,36850.3 56204.1,36592.5 56275.2,36196.5C56279.2,36172 56286.7,36148.7 56297.2,36127.2L56297.4,36126.8L56299.7,36122.2L56301.1,36119.5L56302.5,36116.9L56304.6,36113.2L56305.2,36112.1ZM53427,30209.2L51689.1,32414.6L55569.2,35004L56726.6,33486.6C56795.1,33396.7 56842.8,33297.8 56869,33192.9C56896.1,33083.9 56901.1,32965.7 56883.3,32841.2C56865.8,32718.1 56829.4,32610.6 56775.7,32520.9C56724.8,32436.1 56656.4,32364.4 56572,32308L53427,30209.2ZM51379.7,32807.3L49560.2,35116.2L53456.7,37716.6C53466.5,37723.1 53475.7,37730.3 53484.2,37737.9L55266.4,35401.1L51379.7,32807.3ZM49143.6,34838.2L50963.1,32529.2L47242.1,30046L45422.7,32355L49143.6,34838.2ZM51272.5,32136.5L53010.3,29931.1L49289.4,27447.9L47551.5,29653.4L51272.5,32136.5ZM45006,32076.9L46825.5,29768L42748.6,27047.2L40929.1,29356.2L45006,32076.9ZM47134.9,29375.3L48872.8,27169.9L44778.2,24437.4C44769.8,24469.9 44754.7,24501.2 44732.7,24529.3L43058,26654.5L47134.9,29375.3ZM44340.1,24220.7C44353.7,24203.4 44369.2,24188.3 44386,24175.6L40890.7,21843C40776.5,21766.8 40652.2,21739.5 40535.6,21758.2C40414.5,21777.6 40295.2,21847.6 40196,21965L38694.5,23742.5L42641.3,26376.5L44340.1,24220.7ZM40512.4,29078.1L42331.9,26769.1L38370.8,24125.7L36467.6,26378.7L40512.4,29078.1Z" style="fill-rule:nonzero;"/>
    </g>
</svg>
