<?xml version="1.0" encoding="UTF-8"?>
<svg clip-rule="evenodd" fill-rule="evenodd" stroke-linecap="round" stroke-linejoin="round" stroke-miterlimit="10" viewBox="0 0 500 500" xml:space="preserve" xmlns="http://www.w3.org/2000/svg">
  <g>
    <path d="M7.833 45c-1.383.659-1.211-1.789-1.313-2.463.119-.11.22-.049.338-.183-.344-1.1-.699-1.986-.796-3.166.308.072.767-.112 1.079-.038-.063-.754-.079-1.399.509-1.859-.737-1.658-.02-1.997.813-3.087.723-.947 1.408-1.963 1.829-3.367.466-1.553.043-7.36 1.221-7.83.032.159.115.478.182.643 1.622-.251 2.271.911 1.493 2.157 1.094-.472 1.79-1.654 1.333-2.912 2.346.01 5.372 1.462 7.645 2.137 3.072.912 6.181 1.445 9.325 2.093 1.611.332 3.117 1.231 4.712 1.508 1.956.339 3.983.136 5.956.357 2.167.244 3.957.682 6.187.676 1.221-.003 3.523.731 4.354-.308.458.312.622.597.493 1.283 2.459.317 4.854 1.358 7.303 1.555-1.24 1.21-2.518 1.195-3.145 3.111.658-.287 1.225-.757 1.958-.782.001.195.052.421.05.616 1.863.434 2.892-1.269 4.116-1.457a5.168 5.168 0 0 1-.286 1.624c1.273.24 1.991-.42 2.978-.47 1.104-.056 2.302.667 3.324 1.028-.733.958-1.417.278-2.287.588-.677.241-1.266.694-1.837 1.19-.144-.193-.4-.334-.529-.499-.65.504-1.116 1.561-1.316 2.34.209-.239.596-.443.824-.777-.014 1.813-.829 3.954-.346 5.792.194.738.7 1.968 1.715 1.178.52-.404.353-2.415.426-2.982-1.128-.417-.562-3.382-.28-4.341.065.078.499.294.634.503.623-.84 1.438-1.789 2.842-1.158 1.933.87.488 2.167.526 3.445.061-.064.357-.297.512-.462.205.009.499.15.766.167-.044.892.274 1.598.191 2.483-.081.869-.72 1.465-.345 2.312 1.441-.329 6.663-1.345 5.528-3.937 1.665-1.185 3.904-.943 5.516-2.042a3.177 3.177 0 0 1-1.214-1.167c1.907-1.688 3.948-3.508 6.66-4.311-.176.443-.036.987-.12 1.456 1.543-.61 1.956-1.9 2.138-3.482.023-.202.117-1.939.159-1.996.629-.843 1.31-.123 2.154-.65.153.804.55 1.44.566 2.294.478-.103.945.035 1.424-.258-.377.319-.438.856-.603 1.251 1.418.264 1.145 1.612.507 2.362-.795.936-2.126.612-2.228 2.138-1.703.117-1.803 3.414-.947 4.167 2.236-.237-.039 1.104-.528 1.362-.912.481-1.927.981-2.834 1.671-1.25.952-1.075 1.444-1.325 2.653-.213 1.031-.599 2.824-1.978 1.692.233.974 1.096 1.182 1.265 2.354a4.236 4.236 0 0 1-.663 2.904c-.723-.63-.357-1.547-.675-2.404-.248-.667-.831-1.217-1.158-1.854-.947.831.935 3.208.89 4.125.135.042.344-.045.455.041-.097.241-.051.738-.125.996.142.074.324.105.458.183-.109.602-.35.882-.955.996-.017.211-.002.409.001.616a211.18 211.18 0 0 1 1.623-.282c-.27.838-.719 1.984-1.607 1.158-.395.614-.273 1.043.441 1.187-1.13.873-2.032 1.858-2.812 2.796-.565.68-2.184 3.002-3.312 2.858-.025.279.007.417.079.653-.194.01-.392-.066-.579.014-.021.807-.667.87-.833 1.466-.159.572-.007 1.708-.025 2.412-.031 1.158.366 1.729.657 2.597.171.51.85.635.192 1.467.154.059.301.021.46.057.335 1.095 1.323 1.865 1.382 3.118.157.04.291 0 .447.041.33 1.091.356 3.809-.639 4.362-1.236.688-2.941-1.627-2.853-2.687-1.731-.637-2.07-2.622-1.335-4.166-.167-.061-.446-.056-.619-.051-.022-.652-1.083-1.594-1.733-1.971-1.425-.826-1.243-.079-2.746.309-.715-.792-3.324-1.103-3.067-2.117-.608.257-1.272.822-1.954.948.002-.243-.078-.552-.054-.79-.285.231-.441.183-.667.616-.487.232-3.498.662-3.658.525.574.213 1.209.423 1.825.532-.229.425.066.594-.458.935.38.18.507.47.804.67-.404.109-1.048.083-1.458.009-.033-.16-.008-.297-.053-.454-.591.274-1.415.281-2.105.62-.229-.424-.559-.491-.729-.945-1.627-.416-3.999-.954-5.595-.054-.051-.274-.216-.384-.197-.758-.446.474-.718 1.007-.6 1.604-1.095.696-2.718.717-3.1 2.15-1.782-.166-1.72 3.527-.992 4.503-.888.062-3.757-.934-4.194-1.605-.381-.584-.064-1.556-.455-2.199-.572-.939-1.088-.943-2.159-1.201.407-1.487.042-2.439-1.133-3.34-.989-.758-2.686-1.255-3.074.511-.391-.02-.964-.234-1.28-.502.006-.921-.933-1.36-1.371-2.138-.407-.723-.359-1.354-.951-2.037-1.486-1.716-2.906-1.416-4.703-2.147-.531.494-3.467-.095-4.338-.312-1.56-.388-2.651-1.562-4.003-2.342-1.061-.612-1.929-1.471-2.993-1.958-1.393-.638-2.89-.088-4.321-.575 1.175-2.27-.294-3.244-1.987-4.338a2.708 2.708 0 0 0 .282-1.611c-.388.081-.946-.132-1.292-.075.044-.2.083-.383.135-.581-1.637-.703-2.165-4.765-1.842-6.163-.539-.203-.742-.723-.617-1.34.153-.046.291-.01.446-.049.082-.327.331-.911.329-1.129.036.305-.088.52-.131.827" fill="#fff" fill-rule="nonzero" stroke="#000" stroke-width=".1"/>
    <g>
      <circle cx="253.44" cy="276.59" r="5.442" fill="#ffc78d"/>
    </g>
    <path d="M404 223c1 0 3 0 4 1h3c16 2 34 1 50-3 15-4 28-11 35-25 0-1-1-2-1-3-1-1-1-1-1-2 0-2-1-3-1-5 0 0-2-4-1-3l-2-2s-1-1-1-2c-1 0-1 0-2-1h-1s-1 0-1-1h-5c-15 11-33 18-51 18-22-1-44-7-62-18h-5c1 0-1 1-2 1 0 0-1 1-2 1l-2 2v1l-1 2c-1 2-2 4-2 7 0 0-1 1-1 2v6l1 1c1 2 2 3 4 5 4 4 10 7 16 9 7 3 14 5 21 7 3 1 7 1 10 2ZM514 69c1 0 1-1 1-1v-4c0 2-2-5-1-2 0-1-1-1-1-2l-1-1c0-1-1-1-1-1-1-1-2-2-3-2 0 0-3-1-2-1 0 0-1 0-2-1-2 0-5-1-7-1 0 0-3-1-2-1h-3c-12-1-25 1-37-4-9-5-14-12-20-19v-1s-1 0-1-1l-4-4c-1 0-3-1-2-1-1 0-1 0-2-1h-6s-2 1-3 1-2 1-2 1c0 1-2 2-2 2-3 3-6 7-9 10-7 8-17 15-28 16-5 1-11 1-17 1s-7 0-12 1c-2 1-4 1-6 2h-1c-1 1-2 1-3 2l-1 1c-1 1-2 1-2 2h-1c0 1-1 3 0 1 0 1-1 2-1 3v4l1 3s1 3 0 1c1 1 1 2 1 3 1 0 1 1 1 1 1 0 1 1 2 1 4 2 7 3 10 5 9 3 17 7 25 10 7 4 14 7 20 12 8 7 15 15 24 20 8 5 16 7 24 0 7-6 13-12 21-17 14-9 29-17 44-24 2-1 3-3 4-4 0 0 2-3 2-2 0-1 1-1 1-2s2-4 1-3c1-1 1-2 1-3ZM344 229l6-12c-3-2-6-5-8-8-8 6-16 11-23 18s-15 15-21 24c-12 17-23 35-31 54 0 1 0 1-1 2 0 1 0 4 2 6 1 3 4 6 7 9 2 2 6 4 9 5 2 0 4 0 6-1 11-34 27-70 53-96 0-1 0-1 1-1Zm70 331c-28-10-46-22-46-47 0-22 16-40 43-45v-25h25v23c17 1 28 4 37 8l-8 29c-6-3-18-9-36-9-17 0-22 8-22 15 0 8 9 13 30 22 31 10 43 24 43 47s-16 42-45 47v26h-25v-24c-17-1-34-5-44-11l8-30c11 6 26 12 42 12 15 0 25-6 25-16s-8-16-27-22ZM178 751c33 28 75 46 117 58 45 12 90 17 137 16 1 0 2 0 3 1 26-1 53-3 78-8 45-8 87-22 126-46 18-11 34-23 50-39 16-18 29-37 41-59 24-45 37-96 36-148-2-51-16-101-40-147-23-44-54-82-93-114-36-30-78-54-124-63-9 18-26 29-45 33s-39 5-57 2c-6 0-12-1-17-3-3 8-7 15-9 24-2 10-4 21-5 32-2 22-1 43 3 65 0 3-1 7-4 8-14 16-49 7-54-13v-3c-1-24 0-48 6-71v-2c-11 19-19 40-25 60-1 3-3 5-6 5-19 9-46-14-43-34 0-1 0-3 1-4 9-21 20-41 34-60 6-8 14-17 21-24l15-12c-27 7-51 19-75 34-84 54-147 144-164 243-8 50-4 101 13 149 16 46 42 89 80 120Zm224-620c-7-5-12-11-19-16-5-5-12-8-19-11 6 7 11 14 14 22 4 13 5 27 3 40-1 1-1 2-1 2 15 8 32 12 49 13 13 0 27-4 38-12 0-1-1-2-1-3 0-2-1-4-1-6-1-14 1-28 7-41 0-1 1-3 2-4-4 2-7 4-10 7-8 6-14 14-23 18-7 3-14 3-21 1 2 9 4 19 3 28 0 9-14 9-14 0 1-13-3-25-7-38Zm-34 123c2-8 5-16 8-24-5-1-10-3-14-6-4 9-10 18-13 27-4 10-7 20-9 31-4 20-6 41-5 62v2c0 1 0 1 1 3 0 0 1 2 3 2 2 3 6 4 9 5s7 1 10 1c3-1 5-2 6-3-3-22-4-44-2-66 1-11 3-23 6-34Z" fill="#222" fill-rule="nonzero" stroke="#000" stroke-width=".1"/>
    <g>
      <path d="m270.88 266.5 141.07-112.84" fill="none" stroke="#000" stroke-miterlimit="1.5"/>
    </g>
  </g>
</svg>
