<?xml version="1.0" encoding="UTF-8" standalone="no"?>
<!DOCTYPE svg PUBLIC "-//W3C//DTD SVG 1.1//EN" "http://www.w3.org/Graphics/SVG/1.1/DTD/svg11.dtd">
<svg width="100%" height="100%" viewBox="0 0 500 334" version="1.1" xmlns="http://www.w3.org/2000/svg" xmlns:xlink="http://www.w3.org/1999/xlink" xml:space="preserve" xmlns:serif="http://www.serif.com/" style="fill-rule:evenodd;clip-rule:evenodd;stroke-linecap:round;stroke-linejoin:round;stroke-miterlimit:10;">
    <defs>
<!--        <clipPath id="clip-US">-->
            <path d="M7.833,45C6.45,45.659 6.622,43.211 6.52,42.537C6.639,42.427 6.74,42.488 6.858,42.354C6.514,41.254 6.159,40.368 6.062,39.188C6.37,39.26 6.829,39.076 7.141,39.15C7.078,38.396 7.062,37.751 7.65,37.291C6.913,35.633 7.63,35.294 8.463,34.204C9.186,33.257 9.871,32.241 10.292,30.837C10.758,29.284 10.335,23.477 11.513,23.007C11.545,23.166 11.628,23.485 11.695,23.65C13.317,23.399 13.966,24.561 13.188,25.807C14.282,25.335 14.978,24.153 14.521,22.895C16.867,22.905 19.893,24.357 22.166,25.032C25.238,25.944 28.347,26.477 31.491,27.125C33.102,27.457 34.608,28.356 36.203,28.633C38.159,28.972 40.186,28.769 42.159,28.99C44.326,29.234 46.116,29.672 48.346,29.666C49.567,29.663 51.869,30.397 52.7,29.358C53.158,29.67 53.322,29.955 53.193,30.641C55.652,30.958 58.047,31.999 60.496,32.196C59.256,33.406 57.978,33.391 57.351,35.307C58.009,35.02 58.576,34.55 59.309,34.525C59.31,34.72 59.361,34.946 59.359,35.141C61.222,35.575 62.251,33.872 63.475,33.684C63.469,34.231 63.364,34.819 63.189,35.308C64.462,35.548 65.18,34.888 66.167,34.838C67.271,34.782 68.469,35.505 69.491,35.866C68.758,36.824 68.074,36.144 67.204,36.454C66.527,36.695 65.938,37.148 65.367,37.644C65.223,37.451 64.967,37.31 64.838,37.145C64.188,37.649 63.722,38.706 63.522,39.485C63.731,39.246 64.118,39.042 64.346,38.708C64.332,40.521 63.517,42.662 64,44.5C64.194,45.238 64.7,46.468 65.715,45.678C66.235,45.274 66.068,43.263 66.141,42.696C65.013,42.279 65.579,39.314 65.861,38.355C65.926,38.433 66.36,38.649 66.495,38.858C67.118,38.018 67.933,37.069 69.337,37.7C71.27,38.57 69.825,39.867 69.863,41.145C69.924,41.081 70.22,40.848 70.375,40.683C70.58,40.692 70.874,40.833 71.141,40.85C71.097,41.742 71.415,42.448 71.332,43.333C71.251,44.202 70.612,44.798 70.987,45.645C72.428,45.316 77.65,44.3 76.515,41.708C78.18,40.523 80.419,40.765 82.031,39.666C81.533,39.396 81.136,39.017 80.817,38.499C82.724,36.811 84.765,34.991 87.477,34.188C87.301,34.631 87.441,35.175 87.357,35.644C88.9,35.034 89.313,33.744 89.495,32.162C89.518,31.96 89.612,30.223 89.654,30.166C90.283,29.323 90.964,30.043 91.808,29.516C91.961,30.32 92.358,30.956 92.374,31.81C92.852,31.707 93.319,31.845 93.798,31.552C93.421,31.871 93.36,32.408 93.195,32.803C94.613,33.067 94.34,34.415 93.702,35.165C92.907,36.101 91.576,35.777 91.474,37.303C89.771,37.42 89.671,40.717 90.527,41.47C92.763,41.233 90.488,42.574 89.999,42.832C89.087,43.313 88.072,43.813 87.165,44.503C85.915,45.455 86.09,45.947 85.84,47.156C85.627,48.187 85.241,49.98 83.862,48.848C84.095,49.822 84.958,50.03 85.127,51.202C85.274,52.218 85.014,53.277 84.464,54.106C83.741,53.476 84.107,52.559 83.789,51.702C83.541,51.035 82.958,50.485 82.631,49.848C81.684,50.679 83.566,53.056 83.521,53.973C83.656,54.015 83.865,53.928 83.976,54.014C83.879,54.255 83.925,54.752 83.851,55.01C83.993,55.084 84.175,55.115 84.309,55.193C84.2,55.795 83.959,56.075 83.354,56.189C83.337,56.4 83.352,56.598 83.355,56.805C83.871,56.713 84.46,56.611 84.978,56.523C84.708,57.361 84.259,58.507 83.371,57.681C82.976,58.295 83.098,58.724 83.812,58.868C82.682,59.741 81.78,60.726 81,61.664C80.435,62.344 78.816,64.666 77.688,64.522C77.663,64.801 77.695,64.939 77.767,65.175C77.573,65.185 77.375,65.109 77.188,65.189C77.167,65.996 76.521,66.059 76.355,66.655C76.196,67.227 76.348,68.363 76.33,69.067C76.299,70.225 76.696,70.796 76.987,71.664C77.158,72.174 77.837,72.299 77.179,73.131C77.333,73.19 77.48,73.152 77.639,73.188C77.974,74.283 78.962,75.053 79.021,76.306C79.178,76.346 79.312,76.306 79.468,76.347C79.798,77.438 79.824,80.156 78.829,80.709C77.593,81.397 75.888,79.082 75.976,78.022C74.245,77.385 73.906,75.4 74.641,73.856C74.474,73.795 74.195,73.8 74.022,73.805C74,73.153 72.939,72.211 72.289,71.834C70.864,71.008 71.046,71.755 69.543,72.143C68.828,71.351 66.219,71.04 66.476,70.026C65.868,70.283 65.204,70.848 64.522,70.974C64.524,70.731 64.444,70.422 64.468,70.184C64.183,70.415 64.027,70.367 63.801,70.8C63.314,71.032 60.303,71.462 60.143,71.325C60.717,71.538 61.352,71.748 61.968,71.857C61.739,72.282 62.034,72.451 61.51,72.792C61.89,72.972 62.017,73.262 62.314,73.462C61.91,73.571 61.266,73.545 60.856,73.471C60.823,73.311 60.848,73.174 60.803,73.017C60.212,73.291 59.388,73.298 58.698,73.637C58.469,73.213 58.139,73.146 57.969,72.692C56.342,72.276 53.97,71.738 52.374,72.638C52.323,72.364 52.158,72.254 52.177,71.88C51.731,72.354 51.459,72.887 51.577,73.484C50.482,74.18 48.859,74.201 48.477,75.634C46.695,75.468 46.757,79.161 47.485,80.137C46.597,80.199 43.728,79.203 43.291,78.532C42.91,77.948 43.227,76.976 42.836,76.333C42.264,75.394 41.748,75.39 40.677,75.132C41.084,73.645 40.719,72.693 39.544,71.792C38.555,71.034 36.858,70.537 36.47,72.303C36.079,72.283 35.506,72.069 35.19,71.801C35.196,70.88 34.257,70.441 33.819,69.663C33.412,68.94 33.46,68.309 32.868,67.626C31.382,65.91 29.962,66.21 28.165,65.479C27.634,65.973 24.698,65.384 23.827,65.167C22.267,64.779 21.176,63.605 19.824,62.825C18.763,62.213 17.895,61.354 16.831,60.867C15.438,60.229 13.941,60.779 12.51,60.292C13.685,58.022 12.216,57.048 10.523,55.954C10.775,55.492 10.88,54.892 10.805,54.343C10.417,54.424 9.859,54.211 9.513,54.268C9.557,54.068 9.596,53.885 9.648,53.687C8.011,52.984 7.483,48.922 7.806,47.524C7.267,47.321 7.064,46.801 7.189,46.184C7.342,46.138 7.48,46.174 7.635,46.135C7.717,45.808 7.966,45.224 7.964,45.006C8,45.311 7.876,45.526 7.833,45.833" style="fill:black;fill-rule:nonzero;stroke:white;stroke-width:0.5px;"/>
<!--        </clipPath>-->
    </defs>
    <g transform="matrix(5.55556,0,0,5.55556,0,0)">
        <g transform="matrix(1,0,0,1,-5.14201,-21.8648)">
            <path d="M7.833,45C6.45,45.659 6.622,43.211 6.52,42.537C6.639,42.427 6.74,42.488 6.858,42.354C6.514,41.254 6.159,40.368 6.062,39.188C6.37,39.26 6.829,39.076 7.141,39.15C7.078,38.396 7.062,37.751 7.65,37.291C6.913,35.633 7.63,35.294 8.463,34.204C9.186,33.257 9.871,32.241 10.292,30.837C10.758,29.284 10.335,23.477 11.513,23.007C11.545,23.166 11.628,23.485 11.695,23.65C13.317,23.399 13.966,24.561 13.188,25.807C14.282,25.335 14.978,24.153 14.521,22.895C16.867,22.905 19.893,24.357 22.166,25.032C25.238,25.944 28.347,26.477 31.491,27.125C33.102,27.457 34.608,28.356 36.203,28.633C38.159,28.972 40.186,28.769 42.159,28.99C44.326,29.234 46.116,29.672 48.346,29.666C49.567,29.663 51.869,30.397 52.7,29.358C53.158,29.67 53.322,29.955 53.193,30.641C55.652,30.958 58.047,31.999 60.496,32.196C59.256,33.406 57.978,33.391 57.351,35.307C58.009,35.02 58.576,34.55 59.309,34.525C59.31,34.72 59.361,34.946 59.359,35.141C61.222,35.575 62.251,33.872 63.475,33.684C63.469,34.231 63.364,34.819 63.189,35.308C64.462,35.548 65.18,34.888 66.167,34.838C67.271,34.782 68.469,35.505 69.491,35.866C68.758,36.824 68.074,36.144 67.204,36.454C66.527,36.695 65.938,37.148 65.367,37.644C65.223,37.451 64.967,37.31 64.838,37.145C64.188,37.649 63.722,38.706 63.522,39.485C63.731,39.246 64.118,39.042 64.346,38.708C64.332,40.521 63.517,42.662 64,44.5C64.194,45.238 64.7,46.468 65.715,45.678C66.235,45.274 66.068,43.263 66.141,42.696C65.013,42.279 65.579,39.314 65.861,38.355C65.926,38.433 66.36,38.649 66.495,38.858C67.118,38.018 67.933,37.069 69.337,37.7C71.27,38.57 69.825,39.867 69.863,41.145C69.924,41.081 70.22,40.848 70.375,40.683C70.58,40.692 70.874,40.833 71.141,40.85C71.097,41.742 71.415,42.448 71.332,43.333C71.251,44.202 70.612,44.798 70.987,45.645C72.428,45.316 77.65,44.3 76.515,41.708C78.18,40.523 80.419,40.765 82.031,39.666C81.533,39.396 81.136,39.017 80.817,38.499C82.724,36.811 84.765,34.991 87.477,34.188C87.301,34.631 87.441,35.175 87.357,35.644C88.9,35.034 89.313,33.744 89.495,32.162C89.518,31.96 89.612,30.223 89.654,30.166C90.283,29.323 90.964,30.043 91.808,29.516C91.961,30.32 92.358,30.956 92.374,31.81C92.852,31.707 93.319,31.845 93.798,31.552C93.421,31.871 93.36,32.408 93.195,32.803C94.613,33.067 94.34,34.415 93.702,35.165C92.907,36.101 91.576,35.777 91.474,37.303C89.771,37.42 89.671,40.717 90.527,41.47C92.763,41.233 90.488,42.574 89.999,42.832C89.087,43.313 88.072,43.813 87.165,44.503C85.915,45.455 86.09,45.947 85.84,47.156C85.627,48.187 85.241,49.98 83.862,48.848C84.095,49.822 84.958,50.03 85.127,51.202C85.274,52.218 85.014,53.277 84.464,54.106C83.741,53.476 84.107,52.559 83.789,51.702C83.541,51.035 82.958,50.485 82.631,49.848C81.684,50.679 83.566,53.056 83.521,53.973C83.656,54.015 83.865,53.928 83.976,54.014C83.879,54.255 83.925,54.752 83.851,55.01C83.993,55.084 84.175,55.115 84.309,55.193C84.2,55.795 83.959,56.075 83.354,56.189C83.337,56.4 83.352,56.598 83.355,56.805C83.871,56.713 84.46,56.611 84.978,56.523C84.708,57.361 84.259,58.507 83.371,57.681C82.976,58.295 83.098,58.724 83.812,58.868C82.682,59.741 81.78,60.726 81,61.664C80.435,62.344 78.816,64.666 77.688,64.522C77.663,64.801 77.695,64.939 77.767,65.175C77.573,65.185 77.375,65.109 77.188,65.189C77.167,65.996 76.521,66.059 76.355,66.655C76.196,67.227 76.348,68.363 76.33,69.067C76.299,70.225 76.696,70.796 76.987,71.664C77.158,72.174 77.837,72.299 77.179,73.131C77.333,73.19 77.48,73.152 77.639,73.188C77.974,74.283 78.962,75.053 79.021,76.306C79.178,76.346 79.312,76.306 79.468,76.347C79.798,77.438 79.824,80.156 78.829,80.709C77.593,81.397 75.888,79.082 75.976,78.022C74.245,77.385 73.906,75.4 74.641,73.856C74.474,73.795 74.195,73.8 74.022,73.805C74,73.153 72.939,72.211 72.289,71.834C70.864,71.008 71.046,71.755 69.543,72.143C68.828,71.351 66.219,71.04 66.476,70.026C65.868,70.283 65.204,70.848 64.522,70.974C64.524,70.731 64.444,70.422 64.468,70.184C64.183,70.415 64.027,70.367 63.801,70.8C63.314,71.032 60.303,71.462 60.143,71.325C60.717,71.538 61.352,71.748 61.968,71.857C61.739,72.282 62.034,72.451 61.51,72.792C61.89,72.972 62.017,73.262 62.314,73.462C61.91,73.571 61.266,73.545 60.856,73.471C60.823,73.311 60.848,73.174 60.803,73.017C60.212,73.291 59.388,73.298 58.698,73.637C58.469,73.213 58.139,73.146 57.969,72.692C56.342,72.276 53.97,71.738 52.374,72.638C52.323,72.364 52.158,72.254 52.177,71.88C51.731,72.354 51.459,72.887 51.577,73.484C50.482,74.18 48.859,74.201 48.477,75.634C46.695,75.468 46.757,79.161 47.485,80.137C46.597,80.199 43.728,79.203 43.291,78.532C42.91,77.948 43.227,76.976 42.836,76.333C42.264,75.394 41.748,75.39 40.677,75.132C41.084,73.645 40.719,72.693 39.544,71.792C38.555,71.034 36.858,70.537 36.47,72.303C36.079,72.283 35.506,72.069 35.19,71.801C35.196,70.88 34.257,70.441 33.819,69.663C33.412,68.94 33.46,68.309 32.868,67.626C31.382,65.91 29.962,66.21 28.165,65.479C27.634,65.973 24.698,65.384 23.827,65.167C22.267,64.779 21.176,63.605 19.824,62.825C18.763,62.213 17.895,61.354 16.831,60.867C15.438,60.229 13.941,60.779 12.51,60.292C13.685,58.022 12.216,57.048 10.523,55.954C10.775,55.492 10.88,54.892 10.805,54.343C10.417,54.424 9.859,54.211 9.513,54.268C9.557,54.068 9.596,53.885 9.648,53.687C8.011,52.984 7.483,48.922 7.806,47.524C7.267,47.321 7.064,46.801 7.189,46.184C7.342,46.138 7.48,46.174 7.635,46.135C7.717,45.808 7.966,45.224 7.964,45.006C8,45.311 7.876,45.526 7.833,45.833" style="fill:black;fill-rule:nonzero;stroke:white;stroke-width:0.5px;"/>
            <g transform="matrix(0.18,0,0,0.18,5.14201,21.8648)">
                    <circle cx="253.442" cy="276.588" r="3.442" style="fill:rgb(255,254,254);"/>
                </g>
        </g>
    </g>
</svg>