<?xml version="1.0" encoding="UTF-8" standalone="no"?>
<!DOCTYPE svg PUBLIC "-//W3C//DTD SVG 1.1//EN" "http://www.w3.org/Graphics/SVG/1.1/DTD/svg11.dtd">
<svg width="100%" height="100%" viewBox="0 0 1024 1024" version="1.1" xmlns="http://www.w3.org/2000/svg" xmlns:xlink="http://www.w3.org/1999/xlink" xml:space="preserve" xmlns:serif="http://www.serif.com/" style="fill-rule:evenodd;clip-rule:evenodd;stroke-linecap:round;stroke-linejoin:round;stroke-miterlimit:1.5;">
    <g id="roof_pitch">
        <path style="fill:none;stroke:black;stroke-width:4px;" class="path" d="M920.816,292.565C893.648,307.088 866.054,321.259 838.003,334.031C828.586,338.319 819.052,342.532 809.89,347.343C806.93,348.898 799.193,352.986 788.025,360.208C785.771,361.666 813.853,361.961 822.266,363.279C838.777,365.865 914.793,366.767 904.718,385.261C883.344,424.498 785.256,518.462 819.037,470.76C844.629,434.621 668.911,614.192 688.567,606.716C696.798,603.585 825.824,470.334 807.456,492.145C798.013,503.359 696.827,598.202 687.649,606.942C674.996,618.992 816.33,505.69 848.089,468.764C858.296,456.895 875.05,440.716 883.686,427.648C887.374,422.068 910.424,402.774 907.922,409.824C897.006,440.592 844.931,490.668 824.879,513.842C775.788,570.574 724.143,610.079 672.514,664.169C654.884,682.639 634.714,711.659 619.485,732.079C614.518,738.739 564.914,785.009 561.416,798.322C559.716,804.794 571.954,823.452 587.804,814.583C617.549,797.938 640.046,783.68 660.218,771.975C699.995,748.894 803.238,651.534 826.264,612.579C838.9,591.201 853.465,574.309 869.415,555.538C874.329,549.755 879.598,544.318 883.824,537.98C885.35,535.69 886.723,533.294 887.983,530.849C888.659,529.537 891.388,526.879 889.912,526.863C866.289,526.615 828.593,573.794 813.889,590.204C759.614,650.778 699.958,712.162 657.809,782.062C649.902,795.174 619.055,832.619 619.265,847.496C619.454,860.876 650.239,842.143 656.988,843.294C666.821,844.971 667.307,865.807 676.596,868.626C697.787,875.057 749.662,831.722 763.638,819.161C787.663,797.569 813.625,776.875 835.935,753.542C877.284,710.297 919.688,668.382 964.935,629.153"/>
        <path style="fill:none;stroke:black;stroke-width:4px;" class="path" d="M995.363,868.033C954.965,892.714 901.731,890.242 856.467,896.915C832.33,900.474 808.219,905.344 784.986,912.916C761.186,920.672 737.512,931.817 711.947,930.567C686.373,929.317 673.049,914.478 653.776,900.397C618.713,874.779 585.411,849.197 553.552,819.696C536.397,803.809 512.528,806.296 491.436,799.103C485.529,797.088 471.863,792.786 471.348,785.338C470.703,776.006 481.407,768.417 487.304,762.644C504.114,746.189 520.744,729.858 535.694,711.617C548.671,695.784 565.019,683.81 579.58,669.553C596.524,652.962 609.93,632.805 626.144,615.489C640.956,599.671 658.589,586.455 672.597,569.888C692.344,546.534 705.162,515.88 720.905,489.817C738.492,460.699 771.437,425.116 795.547,400.675C804.448,391.654 813.404,382.376 823.494,374.664C827.067,371.933 830.628,369.166 834.269,366.526C836.128,365.178 839.963,362.6 839.642,362.82C827.094,371.405 815.197,381.052 802.412,389.258C790.142,397.132 776.497,401.961 765.779,412.158C736.5,440.009 713.655,475.438 682.651,501.594C642.902,535.127 596.486,560.896 554.068,590.746C520.784,614.168 488.61,639.256 454.801,661.866C443.632,669.336 433.288,677.812 422.653,686.002C418.869,688.915 415.161,691.907 411.451,694.912C408.534,697.274 406.168,699.175 406.242,699.071C419.907,680.104 439.078,664.716 454.906,647.629C508.899,589.341 572.819,535.731 640.028,493.302C668.868,475.095 698.496,458.129 726.338,438.364C735.569,431.811 744.078,424.576 752.5,417.042C755.262,414.572 758.125,412.204 761.081,409.971C762.639,408.794 767.268,405.209 765.781,406.474C743.748,425.216 717.155,438.207 692.258,452.662C667.285,467.161 641.929,483.227 617.924,499.308C598.231,512.5 579.759,527.542 559.498,539.929C539.585,552.104 518.194,561.818 498.746,574.831C482.725,585.55 468.277,598.616 452.741,610.007C415.276,637.477 376.957,664.267 337.774,689.189C298.211,714.354 267.819,750.369 228.182,775.388C221.687,779.487 188.955,793.991 187.779,802.975C186.631,811.736 211.9,816.152 217.532,816.471C247.899,818.188 281.069,803.663 303.894,784.17C336.661,756.187 362.265,718.889 401.419,698.594"/>
        <path style="fill:none;stroke:black;stroke-width:4px;" class="path" d="M1005.99,678.491C989.401,703.982 973.749,730.047 954.896,753.959C931.633,783.463 904.256,809.662 881.052,839.378C866.344,858.214 855.306,879.907 841.513,899.444C821.627,927.611 794.175,961.776 754.72,952.001C725.128,944.67 711.582,911.191 690.788,891.845C656.517,859.959 611.465,831.796 569.686,811.178C563.029,807.892 550.147,823.987 544.632,826.944C528.217,835.747 506.955,828.015 489.461,828.654C485.274,828.807 469.329,831.439 465.989,827.042C451.876,808.464 478.422,777.709 488.358,763.104C529.649,702.405 587.248,655.974 633.942,599.963C648.716,582.241 663.557,564.689 679.763,548.235C685.383,542.528 691.079,536.91 696.652,531.153C702.079,525.546 704.32,523.003 703.863,523.056C681.688,525.64 641.931,577.054 626.872,593.923C567.066,660.919 502.593,723.509 447.427,794.501C432.647,813.522 412.941,833.34 389.478,840.75C382.658,842.904 369.151,849.136 364.152,840.946C354.32,824.839 376.234,803.943 386.884,795.695C425.782,765.569 467.132,737.058 503.648,704.109C528.069,682.072 546.936,655.948 568.128,631.007C582.53,614.058 598.637,599.022 612.174,581.31C621.418,569.216 628.252,555.454 637.932,543.658C659.848,516.947 687.558,493.162 711.161,467.722C735.093,441.928 755.041,414.497 783.162,392.677C796.366,382.431 809.275,373.925 824.672,367.284C825.81,366.793 828.168,364.688 828.134,365.927C827.871,375.65 816.343,388.213 810.441,395.794C808.497,398.291 806.518,400.767 804.539,403.238C803.527,404.5 800.2,407.996 801.477,407.003C812.2,398.663 821.53,388.634 831.812,379.789C843.984,369.319 894.088,359.355 882.849,388.764C870.601,420.816 843.131,440.323 819.431,462.941"/>
        <path style="fill:none;stroke:black;stroke-width:4px;" class="path" d="M628.856,841.375C654.152,790.659 725.673,725.976 765.91,684.644C812.447,636.842 850.915,578.177 899.739,533.431C924.12,511.087 945.2,485.588 968.828,462.527C975.165,456.342 982.642,450.162 990.768,446.486C990.946,446.405 992.059,446.021 992.278,446.279C997.687,452.663 990.045,464.713 986.623,470.088C972.406,492.421 954.128,513.179 935.949,532.301C916.516,552.741 894.785,570.799 874.873,590.743C840.21,625.463 806.96,661.453 773.127,696.965C752.063,719.075 729.678,739.904 709.373,762.727C689.061,785.557 665.361,805.241 645.088,828.117C641.11,832.606 626.181,845.822 633.48,852.311C643.869,861.547 661.959,847.135 673.882,849.486C687.082,852.088 684.888,870.354 700.676,869.444C722.242,868.2 743.835,844.293 757.938,830.212C797.924,790.286 839.225,750.867 876.424,708.326C895.555,686.447 911.905,661.176 929.107,637.702C934.933,629.752 940.875,621.87 946.627,613.869C948.475,611.299 950.277,608.671 951.709,605.841C952.492,604.293 955.322,600.585 953.641,601.01C938.339,604.886 913.557,641.122 902.514,654.053C854.994,709.694 820.223,774.954 776.45,833.325C763.179,851.021 750.032,869.706 741.588,890.24C739.33,895.731 732.362,906.874 737.622,912.604C745.34,921.013 761.155,919.532 771.011,917.924C796.696,913.733 821.494,900.806 847.726,899.352"/>
        <path style="fill:none;stroke:black;stroke-width:4px;" class="path" d="M380.161,624.38C380.504,623.783 360.114,622.834 363.945,628.951C375.461,647.336 351.192,653.699 351.694,641.98C351.979,635.33 355.191,631.439 365.842,632.593C370.853,633.136 359.623,615.103 356.733,614.232C350.229,612.272 341.175,622.422 342.361,626.718C343.907,632.323 347.445,650.321 357.939,650.673C360.915,650.773 366.931,645.435 371.16,641.096C371.524,640.722 372.019,652.321 372.383,651.934C373.065,651.211 370.486,641.849 371.16,641.096C377.497,634.018 384.586,624.718 385.832,624.591C388.045,624.364 390.285,623.831 392.483,623.108C395.709,622.046 398.847,620.574 401.685,619.056C414.701,612.091 426.455,603.062 439.255,595.716C461.605,582.889 484.587,571.269 507.203,558.935C518.31,552.878 529.001,546.136 540.092,540.05C549.935,534.649 561.369,531.572 570.336,524.688C573.441,522.304 576.319,519.575 578.445,516.284C579.512,514.633 580.019,511.398 581.793,510.366C584.706,508.671 583.161,520.684 580.727,515.762C578.354,510.96 585.215,505.486 582.798,500.001C579.213,491.867 566.882,492.098 562.831,500.007C561.641,502.331 563.793,505.478 564.423,507.696C566.662,515.577 566.921,523.382 557.448,526.11C555.209,526.755 553.086,526.75 550.813,526.315C542.717,524.766 541.945,518.108 536.867,512.971C527.895,503.897 517.229,495.816 506.753,488.544C500.704,484.346 493.899,483.33 486.812,482.272C476.34,480.707 465.567,480.381 455.271,483.176C440.66,487.143 427.286,497.991 415.435,506.859C396.521,521.01 384.713,538.598 380.997,561.965C379.761,569.74 381.21,577.684 380.936,585.498C380.843,588.138 380.216,590.756 379.55,593.302C379.399,593.878 376.38,592.358 376.37,591.825C376.317,589.023 375.864,597.386 379.748,598.15C382.101,598.612 375.072,601.87 374.871,601.41C374.21,599.899 356.334,598.021 358.01,597.015C363.051,593.989 395.077,595.672 363.508,599.738C357.732,600.482 376.718,601.724 376.338,591.254C375.867,578.276 378.589,564.349 379.146,560.988C382.493,540.781 390.943,519.644 405.808,504.92C411.678,499.106 418.93,495.076 425.919,490.777C434.579,485.452 444.114,481.075 454.162,479.183C465.978,476.958 478.685,479.754 490.067,482.722C498.131,484.824 505.601,486.719 512.054,492.228C517.268,496.679 522.154,501.301 526.477,506.622C528.146,508.676 529.753,512.862 532.47,513.77C534.773,514.541 537.427,513.716 539.606,512.95C545.36,510.93 561.749,503.249 555.981,496.547C554.59,494.931 551.881,492.063 550.026,490.213C549.651,489.839 537.644,503.03 537.254,502.652C536.838,502.25 550.457,490.617 550.026,490.213C545.958,486.395 536.963,479.76 532.057,476.681C531.033,476.038 524.557,492.499 523.617,492.019C522.916,491.662 532.752,477.046 532.057,476.681C526.817,473.925 518.469,468.897 512.716,465.941C511.935,465.54 505.948,482.85 505.173,482.465C504.308,482.035 513.514,466.226 512.661,465.823C511.474,465.262 507.936,464.116 506.783,463.621C502.508,461.787 489.646,456.782 485.037,456.315C483.06,456.114 488.231,478.032 490.679,484.255C497.09,500.555 502.05,517.168 509.184,533.212C511.352,538.088 512.451,543.58 512.793,548.896C512.871,550.115 512.675,553.965 510.42,553.551C507.402,552.996 505.406,549.979 504.048,547.489C500.762,541.463 499.105,534.516 497.493,527.895C494.268,514.649 488.504,502.56 484.643,489.575C482.691,483.01 482.961,475.52 480.3,469.2C477.53,462.624 474.894,456.226 472.117,449.599C469.407,443.133 465.619,435.281 465.36,428.201C465.297,426.484 465.365,422.193 467.474,421.195C472.945,418.607 476.047,424.371 476.647,427.274C476.834,428.178 469.233,422.613 468.544,424.257C467.505,426.736 477.691,428.875 478.421,433.19C478.809,435.486 467.066,425.082 467.621,427.787C467.955,429.413 476.419,435.199 479.551,437.962C480.453,438.758 467.623,430.254 468.05,431.686C468.209,432.222 476.379,455.253 477.596,455.92C477.938,456.109 470.246,434.863 470.638,435.064C473.089,436.317 477.405,438.585 479.655,440.446C481.988,442.377 486.763,455.48 484.476,457.759C482.143,460.083 478.3,459.806 475.262,459.878C473.915,459.91 469.809,459.722 468.455,459.653C467.336,459.596 470.614,474.164 469.501,474.116C468.814,474.086 469.139,459.691 468.455,459.653C462.61,459.332 452.92,459.344 446.988,461.522C446.641,461.65 451.719,475.783 451.385,475.93C450.889,476.147 447.451,461.259 446.988,461.522C443.582,463.46 440.15,465.454 441.592,469.864C444.69,479.337 450.475,488.101 454.26,497.345C458.554,507.835 461.823,518.717 465.952,529.247C468.226,535.046 475.218,546.375 471.916,552.698C468.182,559.85 460.837,547.298 459.234,543.89C453.985,532.729 451.741,519.839 448.327,508.014C446.935,503.193 446.997,496.442 441.025,496.97C429.907,497.954 419.094,505.561 411.56,513.306C395.99,529.312 382.542,550.426 381.897,573.29C381.763,578.038 382.065,582.749 382.042,587.498C382.03,589.873 381.468,592.729 382.47,594.978C383.472,597.226 387.307,598.676 389.217,597.789C396.501,594.407 399.354,593.316 404.658,590.613C406.77,589.537 538.867,517.542 538.667,515.053C538.221,509.528 403.109,593.235 403.681,588.055C405.319,573.226 405.842,558.302 410.828,546.143C415.696,534.271 429.05,517.811 433.594,515.104C449.103,505.862 472.683,510.449 489.146,512.913C494.464,513.709 499.908,513.675 505.188,514.725C510.79,515.838 516.249,522.655 521.958,521.761C527.805,520.846 523.443,511.799 521.149,509.68C516.59,505.466 510.515,503.417 505.25,500.294C500.937,497.736 497.096,494.65 492.287,492.961C475.549,487.083 454.09,485.34 437.251,492.113C424.805,497.119 411.726,509.083 403.924,519.536C397.933,527.563 393.673,537.327 390.934,546.926C388.355,555.959 385.943,582.944 385.587,592.333C385.256,601.046 404.312,589.758 380.612,603.255C377.746,604.888 373.904,606.643 370.754,607.59C366.602,608.838 360.804,611.982 356.457,609.398C351.701,606.57 351.751,599.683 351.769,594.902C351.779,592.41 352.193,583.724 352.294,581.254C352.36,579.629 371.616,584.741 371.713,583.122C371.836,581.069 352.133,583.302 352.294,581.254C352.556,577.906 353.103,568.123 353.512,563.346C353.638,561.87 373.549,569.178 373.664,567.887C373.753,566.884 353.436,564.156 353.512,563.346C353.855,559.673 354.919,553.842 355.701,550.258C355.837,549.64 374.337,554.831 374.484,554.215C374.659,553.484 355.51,550.986 355.701,550.258C357.17,544.679 360.154,536.552 362.561,530.911C362.868,530.19 377.769,540.597 378.089,539.88C378.459,539.048 362.175,531.737 362.561,530.911C364.814,526.093 368.478,518.992 371.455,513.899C371.649,513.566 385.651,523.452 385.845,523.125C386.039,522.797 371.261,514.219 371.455,513.899C372.572,512.043 374.168,509.751 375.211,508.199C377.196,505.247 379.992,501.251 382.105,498.245C382.486,497.702 395.169,509.744 395.563,509.211C396.003,508.616 381.646,498.822 382.105,498.245C384.507,495.223 388.849,489.963 392.078,487.849C393.693,486.792 396.079,485.539 397.786,484.899C398.107,484.779 406.978,497.8 407.301,497.69C408.141,497.404 396.935,485.132 397.786,484.899C403.389,483.367 411.967,482.058 417.138,478.809C419.063,477.599 422.778,473.028 424.561,471.636C425.336,471.032 429.741,484.413 430.501,483.796C431.437,483.036 423.635,472.393 424.561,471.636C431.738,465.775 442.038,459.5 452.271,460.337"/>
        <path style="fill:none;stroke:black;stroke-width:4px;" class="path" d="M349.882,1016.7C350.277,999.132 353.595,981.598 353.198,964.045C352.704,942.215 349.29,920.05 350.295,898.216C350.759,888.119 354.604,853.861 348.046,845.689C333.895,828.056 293.151,826.659 273.03,826C251.32,825.29 226.947,824.128 205.966,818.278C189.872,813.791 175.255,804.8 159.209,800.061C153.289,798.312 144.12,796.968 136.687,795.376C134.956,795.005 114.955,812.049 114.739,810.294C114.08,804.941 136.512,795.573 136.215,795.496C126.881,793.068 114.336,788.121 109.343,781.251C99.227,767.33 104.633,746.28 107.429,730.686C109.287,720.322 109.453,709.642 112.101,699.428C119.331,671.54 130.327,644.582 130.423,615.184C130.545,577.721 122.875,538.043 112.026,502.165C103.906,475.315 91.171,449.458 88.578,421.216C84.391,375.63 113.581,342.172 136.545,306.616C157.759,273.769 173.958,243.062 206.999,220.287C220.548,210.948 251.957,193.101 268.292,192.53C290.155,191.766 314.212,204.383 335.606,196.392C356.963,188.415 387.842,160.319 409.452,163.663C416.791,164.798 423.145,172.934 428.219,177.69C443.637,192.144 463.973,211.408 459.219,234.677C452.733,266.424 417.381,282.489 387.828,277.338C364.066,273.196 348.584,260.176 352.673,232.065C354.827,217.253 356.655,197.588 375.438,185.413C409.389,163.407 444.153,189.957 445.135,223.224C446.314,263.13 398.663,286.738 371.78,260.338C358.135,246.939 356.948,237.926 366.436,218.659C369.133,213.182 393.044,203.926 392.296,197.769C391.519,191.368 371.563,202.72 367.562,208.714C359.262,221.151 357.662,241.503 363.013,255.349C380.858,301.528 453.644,250.602 435.665,214.265C417.441,177.432 366.312,188.595 355.868,231.192C353.333,241.534 352.974,250.922 358.629,260.329C371.409,281.587 403.005,291.466 424.437,276.651C433.192,270.599 440.071,260.21 445.925,251.476C454.718,238.359 464.783,217.478 454.135,202.965C441.114,185.217 415.229,171.042 392.846,169.804C375.687,168.855 359.977,191.418 341.182,195.971C288.148,208.816 227.01,190.315 185.324,234.895C164.171,257.516 143.351,283.242 127.773,310.107C118.501,326.098 114.357,347.458 98.557,358.176C97.654,358.788 109.571,363.916 118.587,366.714C133.549,371.357 145.817,380.068 157.171,390.788C159.145,392.652 166.632,401.316 164.738,404.376C160.862,410.64 149.246,409.512 143.265,408.392C126.52,405.257 110.74,392.011 113.353,373.094C116.022,353.776 127.722,334.195 139.023,318.724C161.488,287.97 191.413,252.839 223.656,231.597C233.84,224.887 247.335,223.761 256.97,217.4C259.964,215.424 261.773,211.754 264.917,209.717C276.079,202.481 293.452,201.891 305.941,205.143C323.394,209.688 334.97,228.549 341.267,245.074C342.224,247.585 316.277,368.127 321.645,354.648C352.083,278.221 344.602,246.412 320.385,226.413C307.801,216.021 273.557,206.344 265.69,209.728C261.105,211.701 284.661,216.586 288.519,218.018C305.199,224.211 322.386,233.717 330.665,250.349C349.168,287.52 309.159,326.217 320.887,363.83C326.391,381.483 356.065,417.007 372.455,432.377C378.021,437.596 377.653,445.745 393.194,435.028C397.275,432.214 410.383,434.613 411.773,435.137C447.471,448.592 433.745,441.952 421.974,436.717C421.443,436.481 435.129,437.961 424.019,433.422C402.281,424.541 425.845,437.944 425.298,437.7C420.577,435.593 412.181,432.835 412.205,432.593C412.748,427.111 411.537,420.688 416.805,419.507C424.138,417.864 425.504,413.557 428.45,419.972C428.741,420.605 430.072,424.827 429.144,425.343C427.717,426.137 417.463,423.473 415.954,423.567C414.537,423.655 432.362,427.28 431.063,426.845C427.018,425.489 413.498,421.078 414.287,416.483C414.514,415.162 424.588,414.212 425.561,414.437C431.632,415.84 431.753,424.936 432.665,431.599C432.795,432.548 414.816,425.975 414.917,426.881C415.007,427.69 433.817,429.861 433.898,430.607C434.125,432.692 435.444,438.775 435.799,439.978C436.735,443.156 453.824,453.98 450.304,457.519C443.202,464.659 417.482,444.504 411.623,444.807C409.426,444.921 431.241,446.692 432.156,448.692C433.782,452.244 436.627,461.13 431.238,464.127C423.552,468.401 415.724,455.025 410.044,450.335C397.556,440.021 382.373,442.483 370.494,452.43C369.025,453.66 365.664,460.212 360.229,463.131C355.358,465.748 348.305,464.703 347.971,466.558C346.764,473.245 367.075,471.677 372.263,473.744C384.866,478.766 402.82,480.699 415.486,475.748C420.601,473.749 416.166,467.447 416.252,467.639C416.891,469.083 416.58,470.175 415.781,471.495C413.085,475.953 408.389,480.312 403.567,481.819C366.643,493.358 362.09,477.428 336.105,464.524C326.209,459.61 315.17,458.293 304.431,456.369C297.538,455.135 266.326,447.802 271.182,434.999C273.463,428.985 284.834,429.478 289.559,431.127C304.335,436.283 313.613,451.554 329.326,456.985C330.971,457.554 345.066,463.147 345.621,462.431C346.729,461.004 336.186,452.054 335.414,451.403C323.608,441.45 310.64,433.296 299.306,422.753C289.372,413.512 277.83,407.043 269.912,395.746C261.629,383.929 258.949,369.732 251.197,357.802C238.168,337.751 224.302,324.562 227.993,298.53C229.717,286.368 231.292,265.844 241.927,257.706C262.697,241.811 286.847,234.309 309.453,250.098C315.35,254.217 321.284,258.938 323.515,266.006C327.707,279.287 320.925,295.096 318.439,308.169C316.251,319.674 315.844,331.417 313.48,342.926C313.116,344.697 311.963,352.616 309.964,353.305C309.528,353.455 308.376,342.869 308.395,341.532C308.482,335.374 309.395,329.285 309.8,323.146C310.85,307.234 311.887,259.039 286.328,258.811C255.506,258.537 244.302,295.839 240.521,320.524C238.962,330.705 236.196,347.581 247.351,353.763C255.071,358.042 261.074,350.701 263.019,343.662C266.619,330.635 262.652,314.331 261.533,301.044C261.207,297.165 261.393,284.89 254.468,286.792C245.984,289.121 242.145,301.135 240.893,308.592C237.617,328.109 241.082,350.916 243.406,370.612C244.097,376.474 243.999,386.753 247.526,391.933C248.133,392.824 248.613,390.06 249.009,389.057C250.277,385.854 250.621,382.271 251.122,378.884C252.588,368.982 252.968,360.296 260.575,352.916C270.252,343.527 311.303,345.025 312.967,359.674C314.202,370.545 300.827,376 292.118,377.443C271.429,380.87 242.101,384.62 249.501,413.572C255.893,438.582 311.977,423.171 314.605,404.567C316.679,389.884 286.508,406.3 282.629,409.292C277.805,413.014 274.161,418.118 269.917,422.451C269.809,422.561 268.045,424.419 267.891,424.278C253.791,411.341 277.092,385.199 289.974,381.009C301.647,377.212 324.238,382.739 327.608,396.288C329.208,402.722 324.097,408.472 326.746,414.694C329.286,420.658 336.963,425.014 342.516,427.664C355.247,433.741 368.565,440.384 381.824,445.139C386.248,446.726 390.678,447.831 395.351,448.362C396.879,448.535 398.414,448.625 399.947,448.74C400.758,448.801 403.116,448.476 402.384,448.83C397.915,450.993 391.164,451.06 386.292,451.652C375.889,452.917 363.998,453.737 355.251,446.99C343.232,437.718 338.581,418.626 322.534,414.542C301.99,409.314 283.392,456.308 265.824,424.282C247.264,390.448 292.435,386.182 303.139,374.5C310.168,366.828 308.709,350.822 296.404,349.165C282.056,347.232 256.967,357.094 250.674,370.911C247.179,378.583 248.725,387.391 245.643,395.073C244.887,396.956 222.105,402.995 231.472,410.659C237.255,415.39 244.487,403.089 245.682,399.478C249.926,386.658 245.824,367.815 239.78,356.107C239.231,355.043 236.192,345.483 235.844,345.469C230.992,345.27 222.633,354.539 219.374,357.562C207.126,368.92 194.246,378.703 180.448,388.046C175.988,391.066 171.987,394.406 168.363,398.402C166.601,400.343 164.903,402.341 163.236,404.364C163.13,404.493 163,404.895 162.917,404.75C154.505,390.098 171.851,365.982 178.192,353.674C185.178,340.115 193.551,328.17 202.288,315.681C219.542,291.017 243.027,244.524 279.319,242.568C279.726,242.546 275.515,244.847 273.546,246.168C269.388,248.956 265.365,251.864 261.362,254.875C249.856,263.53 239.177,274.688 234.214,288.395C229.742,300.749 229.522,313.708 232.724,326.47C235.461,337.376 243.005,348.255 235.924,358.858C230.075,367.618 193.625,384.789 181.83,392.97C179.159,394.822 165.407,401.534 164.889,404.914C164.179,409.548 178.345,411.269 181.052,411.521C197.709,413.072 217.145,409.323 231.506,419.315C267.676,444.479 282.454,490.656 289.475,532.808C296.209,573.238 282.299,610.282 277.655,649.768C274.786,674.169 275.997,685.252 268.602,710.282C267.176,715.109 267.499,721.228 264.754,725.529C253.951,742.453 235.778,750.626 220.825,762.714C211.654,770.127 198.553,775.279 188.939,782.416C174.184,793.371 143.834,810.912 128.352,820.366C124.203,822.899 111.733,823.105 111.557,810.146C111.528,807.98 5.411,883.65 4.05,881.929C3.534,881.277 112.036,810.828 111.557,810.146C107.423,804.26 102.662,793.479 100.555,786.22C100.236,785.121 13.163,786.454 13,785.375C12.79,783.987 100.352,785.538 100.453,784.208C101.05,776.329 104.896,789.09 109.343,781.251C114.503,772.154 120.457,742.457 122.871,733.294C126.55,719.329 124.894,704.166 126.929,689.881C131.178,660.055 138.109,628.921 135.217,598.621C133.16,577.077 123.17,557.615 117.756,536.858C107.895,499.052 100.088,460.891 95.622,422.085C94.398,411.449 88.309,363.996 106.233,362.985C114.846,362.5 121.51,390.062 129.121,397.094C145.804,412.508 162.615,407.895 178.938,419.16C196.113,431.012 203.678,461.39 208.725,480.083C213.491,497.733 218.476,515.449 221.607,533.483C221.735,534.215 223.552,548.634 223.142,548.582C214.015,547.427 207.872,530.434 204.844,523.7C192.968,497.286 173.45,474.038 162.878,447.415C158.155,435.522 146.618,404.21 171.124,418.953C173.766,420.542 176.339,422.338 178.638,424.396C193.105,437.353 200.007,461.132 205.658,478.984C210.079,492.951 216.467,506.5 219.694,520.855C225.255,545.592 226.688,593.79 220.19,617.759C212.784,645.078 196.664,668.97 191.928,697.055C189.839,709.448 188.294,726.195 204.73,727.777C221.161,729.359 238.05,713.697 244.192,700.025C251.06,684.74 250.126,666.786 251.118,650.44C252.378,629.669 256.354,609.309 255.405,588.42C254.597,570.625 254.618,547.357 234.098,541.402C221.49,537.743 206.868,540.104 204.73,555.211C200.292,586.585 235.73,610.186 213.179,644.803C207.606,653.358 199.669,660.31 192.293,667.25C184.314,674.757 176.875,683.028 169.875,691.452C169.655,691.717 164.264,698.844 163.865,698.659C161.85,697.725 168.428,684.051 169.15,682.721C177.778,666.829 190.789,653.522 196.425,635.962C207.99,599.927 192.873,557.143 180.408,523.517C172.44,502.023 166.028,480.4 161.018,458.045C159.396,450.809 158.288,443.327 157.811,435.925C157.645,433.366 157.44,430.806 157.398,428.241C157.383,427.277 157.596,424.43 157.307,425.35C151.318,444.423 156.739,469.531 157.047,489.189C157.818,538.308 160.547,587.578 162.608,636.612C163.339,654 167.545,692.651 155.034,707.641C154.497,708.285 150.572,748.347 115.831,780.761C115.177,781.371 157.287,726.532 152.959,709.791C152.229,706.969 129.997,723.394 134.025,725.107C134.997,725.521 7.693,727.716 9.664,728.474C10.119,728.649 132.822,727.104 133.322,727.264C133.926,727.458 143.31,726.59 143.644,726.589C145.447,726.579 147.301,726.452 149.056,726.023C155.044,724.562 168.114,695.729 173.89,689.073C184.722,676.592 199.509,665.39 207.029,650.45C220.231,624.221 215.66,599.531 216.48,571.956C216.674,565.422 220.047,559.662 220.871,553.236C222.611,539.672 219.613,522.461 216.624,509.269C211.204,485.343 198.959,461.585 185.274,441.305C180.13,433.682 167.215,425.47 164.503,416.699C163.846,414.575 173.724,412.189 175.339,411.973C186.794,410.441 225.793,413.185 232.144,425.253C234.986,430.651 233.458,439.247 234.475,445.238C236.309,456.033 240.886,466.768 245.56,476.6C268.241,524.311 292.861,564.232 278.811,620.733C272.584,645.773 245.372,697.335 227.401,718.054C216.153,731.024 198.224,718.017 191.101,735.201C189.376,739.362 186.112,746.906 190.916,750.271C203.179,758.863 238.264,730.496 249.257,723.437C266.88,712.121 286.916,706.725 304.807,696.199C338.649,676.288 368.871,653.418 405.381,638.388C424.848,630.374 445.002,623.514 463.513,613.381C481.763,603.39 497.724,590.457 515.029,579.078C528.035,570.526 541.914,563.667 555.217,555.65C567.125,548.473 578.55,540.628 590.545,533.579C591.887,532.79 600.8,527.25 599.043,524.423C596.277,519.973 570.053,529.998 567.193,531.204C532.759,545.733 512.81,575.452 484.002,596.904C459.671,615.022 432.567,628.059 407.74,645.313C400.29,650.491 394.36,657.112 387.294,662.694C376.481,671.237 364.455,678.258 353.149,686.116C334.578,699.024 317.286,714.005 298.163,726.13C292.155,729.939 284.578,724.239 276.021,727.408C262.907,732.263 252.655,743.45 241.897,752.034C221.28,768.483 199.612,782.513 177.262,796.513C169.738,801.226 159.517,811.17 150.313,812.369C141.983,813.454 128.934,807.05 121.372,804.291C119.453,803.591 125.457,804.366 127.495,804.498C131.838,804.781 136.19,805.137 140.508,805.689C152.178,807.181 163.12,810.038 174.512,812.857C187.003,815.947 199.802,817.568 212.128,821.397C234.264,828.274 255.247,838.136 277.286,845.282C320.634,859.336 364.419,881.852 408.251,892.044C449.397,901.611 494.437,908.185 536.753,908.49C554.847,908.62 572.886,906.027 590.965,906.394"/>
    </g>
</svg>
