<?xml version="1.0" encoding="UTF-8" standalone="no"?><!DOCTYPE svg PUBLIC "-//W3C//DTD SVG 1.1//EN" "http://www.w3.org/Graphics/SVG/1.1/DTD/svg11.dtd"><svg width="100%" height="100%" viewBox="0 0 100 100" version="1.1" xmlns="http://www.w3.org/2000/svg" xmlns:xlink="http://www.w3.org/1999/xlink" xml:space="preserve" xmlns:serif="http://www.serif.com/" style="fill-rule:evenodd;clip-rule:evenodd;stroke-linejoin:round;stroke-miterlimit:2;"><g id="sunnovaSolarHome"><path id="path4565" d="M50.43,27.35c0.09,0 0.18,-0.01 0.27,-0.04c1.3,-0.41 2.64,-0.41 3.94,0c0.29,0.09 0.6,0.03 0.84,-0.17c0.23,-0.2 0.35,-0.5 0.32,-0.81l-0.07,-0.62c0,-0.02 -0.01,-0.04 -0.01,-0.06l-2.18,-12.7c-0.08,-0.44 -0.45,-0.76 -0.89,-0.76c-0.44,0 -0.81,0.32 -0.89,0.76l-2.16,12.7c0,0.02 -0.01,0.04 -0.01,0.06l-0.07,0.62c-0.03,0.31 0.09,0.61 0.32,0.81c0.18,0.14 0.38,0.21 0.59,0.21Z" style="fill-rule:nonzero;"/><path id="path4567" d="M28.74,37.06c0.01,0.02 0.03,0.04 0.05,0.06l0.38,0.48c0.17,0.22 0.43,0.34 0.7,0.34l0.09,0c0.3,-0.03 0.57,-0.21 0.71,-0.49c0.32,-0.62 0.72,-1.17 1.18,-1.65c0.46,-0.47 1,-0.88 1.61,-1.21c0.27,-0.14 0.45,-0.42 0.48,-0.73c0.03,-0.31 -0.1,-0.61 -0.33,-0.81l-0.48,-0.39c-0.02,-0.02 -0.04,-0.03 -0.06,-0.05l-9.28,-6.34c-0.36,-0.24 -0.83,-0.2 -1.14,0.12c-0.3,0.31 -0.35,0.8 -0.11,1.16l6.2,9.51Z" style="fill-rule:nonzero;"/><path id="path4569" d="M71.88,34.61c0.6,0.33 1.15,0.73 1.61,1.21c0.46,0.47 0.86,1.03 1.18,1.64c0.14,0.27 0.41,0.46 0.71,0.49l0.08,0c0.27,0 0.53,-0.13 0.7,-0.34l0.38,-0.49c0.01,-0.02 0.02,-0.03 0.04,-0.05l7.23,-10.56c0.25,-0.37 0.21,-0.87 -0.1,-1.18c-0.31,-0.32 -0.8,-0.36 -1.16,-0.1l-10.3,7.42c-0.02,0.01 -0.03,0.02 -0.05,0.04l-0.47,0.39c-0.24,0.19 -0.36,0.5 -0.33,0.81c0.03,0.31 0.21,0.58 0.48,0.72Z" style="fill-rule:nonzero;"/><path id="path4571" d="M80.52,46.78l5.71,-3.89c0.31,-0.21 0.42,-0.61 0.28,-0.96c-0.15,-0.35 -0.52,-0.53 -0.87,-0.44l-6.62,1.67c0.57,1.16 1.07,2.37 1.5,3.62Z" style="fill-rule:nonzero;"/><path id="path4573" d="M17.47,42.02l5.83,3.61c0.4,-1.24 0.88,-2.46 1.44,-3.65l-6.73,-1.38c-0.36,-0.07 -0.72,0.13 -0.86,0.48c-0.13,0.35 0,0.74 0.32,0.94Z" style="fill-rule:nonzero;"/><path id="path4575" d="M39.49,27.97c1.14,-0.59 2.33,-1.1 3.55,-1.54l-3.8,-5.84c-0.2,-0.31 -0.6,-0.43 -0.94,-0.28c-0.34,0.15 -0.52,0.53 -0.43,0.89l1.62,6.77Z" style="fill-rule:nonzero;"/><path id="path4577" d="M67.64,22.09c0.07,-0.37 -0.12,-0.74 -0.47,-0.88c-0.34,-0.14 -0.73,0 -0.92,0.32l-3.53,5.96c1.21,0.41 2.41,0.9 3.57,1.48l1.35,-6.88Z" style="fill-rule:nonzero;"/><path id="path4579" d="M52.8,27.97c-12.54,0 -23.17,8.46 -26.74,20.1l2.07,-0.3c3.58,-10.4 13.28,-17.88 24.67,-17.88c13.5,0 24.64,10.51 26.01,23.96l1.97,1.31c-0.75,-15.13 -13.01,-27.19 -27.98,-27.19Z" style="fill-rule:nonzero;"/><path id="path4581" d="M59.51,46.67l-41.7,5.6l-0.42,0.43l20.59,21.74l1.41,0.37l49.92,-9.32l0.03,-0.57l-28.77,-18.05l-1.06,-0.2Zm-20.25,26.91l-20.08,-20.74l40.6,-5.51l27.42,17.42l-47.94,8.83Z" style="fill-rule:nonzero;"/><path id="polygon4583" d="M41.9,59.35l0.37,-0.62l-8.49,-7.25l-1.31,-0.28l-11.38,1.55l-0.49,0.54l7.49,7.64l1.46,0.35l12.35,-1.93Z" style="fill-rule:nonzero;"/><path id="polygon4585" d="M42.39,60.12l-12.36,1.94l-0.48,0.66l9.34,9.53l1.69,0.44l13.5,-2.48l0.32,-0.77l-10.52,-8.99l-1.49,-0.33Z" style="fill-rule:nonzero;"/><path id="polygon4587" d="M44.47,58.75l11.39,-1.78l0.26,-0.57l-9.24,-6.75l-1.29,-0.26l-10.55,1.44l-0.39,0.49l8.37,7.11l1.45,0.32Z" style="fill-rule:nonzero;"/><path id="polygon4589" d="M56.7,57.96l-11.5,1.81l-0.35,0.61l10.45,8.87l1.68,0.41l12.48,-2.29l0.18,-0.72l-11.47,-8.37l-1.47,-0.32Z" style="fill-rule:nonzero;"/><path id="polygon4591" d="M48.36,49.01l-0.29,0.48l9.4,6.82l1.47,0.31l10.87,-1.7l0.16,-0.55l-10.17,-6.49l-1.31,-0.25l-10.13,1.38Z" style="fill-rule:nonzero;"/><path id="polygon4593" d="M59.33,57.88l11.72,8.5l1.71,0.39l11.88,-2.18l0.07,-0.69l-12.61,-8.04l-1.5,-0.31l-11.03,1.73l-0.24,0.6Z" style="fill-rule:nonzero;"/><path id="path4595" d="M95.34,66.34c0,0 -0.01,-0.01 0,0c0.01,-0.03 0.02,-0.05 0.02,-0.07c0.04,-0.22 -0.05,-0.45 -0.24,-0.57l-32.65,-21.3c-0.11,-0.07 -0.24,-0.1 -0.36,-0.08l-46.37,6.19c-2.38,0.31 -3.02,0.42 -3.02,0.42c0,0 -0.32,0.07 -0.42,0.19l-6.45,11.79c-0.07,0.1 -0.11,0.22 -0.11,0.34l-0,3.3c-0,0.23 0.14,0.44 0.36,0.52c0.21,0.08 0.46,0.01 0.6,-0.17l6.06,-10.13l23.16,25.19c0.1,0.11 0.25,0.18 0.4,0.18c0.05,-0 0.09,-0.01 0.14,-0.03c0.05,0.02 0.1,0.03 0.16,0.03c0.03,-0 0.07,-0 0.1,-0.01l58.21,-11.09c0.26,-0.05 0.45,-0.28 0.44,-0.55l-0.03,-4.15Zm-58.83,10.33l-22.52,-24.65l48.06,-6.59l31.33,20.44l-56.87,10.8Z" style="fill-rule:nonzero;"/><path id="path4597" d="M11.05,64.61l0.05,12.75l12.49,7.66l-0.62,-14.52l-11.92,-5.89Zm1.45,2.35l3.54,1.75l0.08,4.09l-3.6,-1.99l-0.02,-3.85Zm0.03,9.56l-0.02,-4.04l3.62,2l0.08,4.3l-3.68,-2.26Zm4.95,-7.1l4.09,2.02l0.19,4.48l-4.2,-2.32l-0.08,-4.18Zm0.2,10.26l-0.08,-4.39l4.24,2.34l0.2,4.72l-4.36,-2.67Z" style="fill-rule:nonzero;"/></g></svg>