<?xml version="1.0" encoding="UTF-8" standalone="no"?><!DOCTYPE svg PUBLIC "-//W3C//DTD SVG 1.1//EN" "http://www.w3.org/Graphics/SVG/1.1/DTD/svg11.dtd"><svg width="100%" height="100%" viewBox="0 0 100 100" version="1.1" xmlns="http://www.w3.org/2000/svg" xmlns:xlink="http://www.w3.org/1999/xlink" xml:space="preserve" xmlns:serif="http://www.serif.com/" style="fill-rule:evenodd;clip-rule:evenodd;stroke-linejoin:round;stroke-miterlimit:2;"><path id="sunnovaImprovement" d="M22.06,43.866c-0,0.351 0.263,0.613 0.614,0.613l5.082,0c0.35,0 0.612,-0.262 0.612,-0.613l0,-4.381c1.49,-0.35 2.979,-0.964 4.207,-1.752l3.066,3.067c0.263,0.262 0.614,0.262 0.876,0l3.593,-3.593c0.263,-0.263 0.263,-0.613 -0,-0.876l-3.067,-3.067c0.789,-1.314 1.402,-2.716 1.753,-4.205l4.38,-0c0.35,-0 0.614,-0.263 0.614,-0.614l-0,-5.082c-0,-0.35 -0.264,-0.613 -0.614,-0.613l-4.38,0c-0.351,-1.489 -0.964,-2.979 -1.753,-4.206l3.067,-3.066c0.263,-0.264 0.263,-0.614 -0,-0.876l-3.593,-3.593c-0.262,-0.263 -0.613,-0.263 -0.876,0l-3.066,3.067c-1.315,-0.789 -2.717,-1.403 -4.207,-1.752l0,-4.381c0,-0.351 -0.262,-0.614 -0.612,-0.614l-5.082,0c-0.351,0 -0.614,0.263 -0.614,0.614l-0,4.381c-1.49,0.349 -2.979,0.963 -4.205,1.752l-3.155,-3.242c-0.175,-0.175 -0.613,-0.175 -0.876,0l-3.593,3.592c-0.262,0.263 -0.262,0.614 0,0.877l3.068,3.066c-0.79,1.314 -1.402,2.716 -1.753,4.206l-4.381,-0c-0.351,-0 -0.614,0.263 -0.614,0.613l0,5.082c0,0.351 0.263,0.613 0.614,0.613l4.381,0c0.351,1.49 0.963,2.979 1.753,4.206l-3.068,3.067c-0.262,0.263 -0.262,0.613 0,0.876l3.593,3.592c0.263,0.263 0.614,0.263 0.876,0l3.067,-3.066c1.314,0.788 2.716,1.402 4.205,1.752l0,4.556l0.088,0Zm-3.855,-18.049c0.351,-9.288 13.756,-9.288 14.019,-0c-0.263,9.287 -13.668,9.287 -14.019,-0Zm67.817,16.56c-2.102,1.139 -6.834,3.592 -8.85,4.732l0,-41.883l8.85,-0l-0,37.151Zm-25.234,8.323l-0,-24.007l8.849,-0l0,24.445l-6.571,3.505c-0.088,-1.576 -0.964,-3.066 -2.278,-3.943Zm-7.097,-0.525l-8.85,1.052l0,-15.596l8.85,-0l-0,14.544Zm38.639,-2.191l-26.285,21.291c-2.103,1.666 -4.644,2.804 -7.272,3.242l-10.778,1.578c-2.102,0.35 -4.118,1.139 -5.87,2.453l-2.629,2.016c-2.629,-3.506 -8.323,-11.04 -11.039,-14.633l12.792,-9.638c0.613,-0.525 1.402,-0.789 2.19,-0.876c2.979,-0.35 11.04,-1.315 13.932,-1.665c4.381,-0.351 5.257,5.958 0.788,6.659l-11.04,1.315c-1.226,0.174 -1.051,2.102 0.263,1.927l11.04,-1.315c1.84,-0.262 3.505,-1.489 4.206,-3.153l14.019,-7.448c2.716,-1.402 9.551,-5.082 12.354,-6.572c3.155,-1.84 6.134,2.541 3.329,4.819Zm-53.185,33.296c0.351,0.525 0.264,1.226 -0.262,1.664l-9.113,8.148c-0.525,0.351 -1.138,0.264 -1.576,-0.174l-9.551,-22.431c-0.175,-0.351 -0.438,-0.701 -0.351,-1.051c0.088,-0.35 0.176,-0.613 0.438,-0.789l5.083,-3.768c0.525,-0.35 1.314,-0.263 1.665,0.264l0.876,1.138c3.153,4.118 9.638,12.793 12.791,16.999Z" style="fill-rule:nonzero;"/></svg>