<?xml version="1.0" encoding="UTF-8" standalone="no"?>
<!DOCTYPE svg PUBLIC "-//W3C//DTD SVG 1.1//EN" "http://www.w3.org/Graphics/SVG/1.1/DTD/svg11.dtd">
<svg width="100%" height="100%" preserveAspectRatio="none" viewBox="0 0 900 900" version="1.1" xmlns="http://www.w3.org/2000/svg" xmlns:xlink="http://www.w3.org/1999/xlink" xml:space="preserve" xmlns:serif="http://www.serif.com/" style="fill-rule:evenodd;clip-rule:evenodd;stroke-linejoin:round;stroke-miterlimit:2;">
    <g transform="matrix(1,0,0,1,88.5,122)">
        <g transform="matrix(1.06761,0,0,1.15172,5.45008,-109.317)">
            <path d="M0,0L666,0L677,4L683,8L689,13L696,24L698,30L698,688L695,698L692,698L684,688L683,688L681,695L674,703L662,709L658,710L511,710L509,709L498,675L498,673L662,672L667,669L666,665L660,663L660,658L645,657L644,60L640,56L638,55L30,55L24,59L23,61L22,657L10,658L8,663L3,666L4,671L6,672L177,673L175,680L171,693L168,701L166,707L163,710L7,710L1,708L-6,704L-10,699L-12,698L-16,690L-18,689L-20,693L-22,695L-23,699L-26,700L-30,691L-32,683L-32,35L-28,21L-25,15L-16,7L-4,1L0,0Z" style="fill:rgb(38,161,214);fill-rule:nonzero;"/>
        </g>
        <g transform="matrix(1.06761,0,0,1.15172,753.848,-92.0416)">
            <path d="M0,0L2,0L7,13L8,668L18,670L27,674L38,681L47,691L48,697L51,698L54,711L53,725L50,734L43,746L36,754L27,760L17,765L8,768L-110,768L-119,767L-141,768L-191,768L-195,767L-228,767L-232,768L-740,768L-747,766L-761,761L-772,753L-777,748L-786,734L-788,726L-789,714L-787,700L-784,694L-777,684L-772,680L-770,680L-770,678L-757,672L-753,670L-745,670L-745,672L-741,671L-736,686L-729,697L-722,705L-713,711L-702,715L-38,715L-27,712L-17,707L-5,696L1,686L5,673L5,15L0,0Z" style="fill:rgb(247,125,151);fill-rule:nonzero;"/>
        </g>
        <g transform="matrix(1.06761,0,0,1.15172,12.9233,-121.986)">
            <path d="M0,0L645,0L655,1C655,1 677.966,2.289 688.708,14.115C700.884,27.519 700,41 700,41L700,699L696,712L690,722L681,731L672,737L661,741L656,742L-8,742L-20,737L-29,731L-37,722L-44,710L-48,698L-51,698L-50,694L-49,666L-48,41C-48,41 -50.391,28.658 -35.579,13.109C-22.23,-0.904 0,0 0,0ZM-5.505,12.081L-16.477,17.406L-27.107,22.416L-33.334,29.022L-38,41L-39,46L-39,694L-35,708L-32,711L-30,710L-28,705L-25,702L-25,700L-22,703L-19,709L-14,713L-11,716L-5,720L0,721L156,721L154,727L154,731L161,731L174,696L178,686L178,684L484,684L487,697L492,711L498,729L499,731L506,731L504,721L651,721L662,717L670,711L675,705L676,699L681,704L686,710L689,707L691,699L691,41L687,31L679,21L670,15L659,11L-5.505,12.081Z" style="fill:rgb(28,39,79);fill-rule:nonzero;"/>
        </g>
        <g transform="matrix(1.06761,0,0,1.15172,364.168,535.646)">
            <path d="M0,0L289,1L288,10L284,15L230,15L231,97L262,98L264,103L157,103L150,85L145,74L140,59L201,59L201,38L132,38L131,37L131,32L148,32L148,16L72,16L72,33L125,33L125,38L72,38L72,59L134,59L141,78L146,89L150,103L-147,103L-144,92L-138,77L-134,68L-131,59L-71,59L-71,38L-123,38L-122,33L-71,33L-71,15L-146,15L-146,38L-199,38L-199,59L-137,59L-140,68L-148,87L-152,99L-154,103L-265,103L-264,98L-252,76L-242,59L-228,59L-228,15L-285,15L-289,10L-290,1L0,0Z" style="fill:rgb(24,32,85);fill-rule:nonzero;"/>
        </g>
        <g transform="matrix(1.06761,0,0,1.15172,366.304,384.77)">
            <path d="M-223.509,-1.543L219,0L224,8L224,14L226,14L226,12L264,12L274,24L274,25L232,25L234,32L236,33L234,28L277,28L290,45L290,46L270,47L245,47L245,51L247,51L250,58L251,62L297,62L297,169L233,169L230,165L230,174L236,184L244,200L249,209L255,220L258,225L258,228L260,229L229,229L228,228L228,146L282,145L285,141L287,132L0,132L0,131L286,131L285,127L-296.16,127.329L-223.509,-1.543Z" style="fill:rgb(244,245,238);fill-rule:nonzero;"/>
        </g>
        <g transform="matrix(1.06761,0,0,1.15172,533.919,267.295)">
            <path d="M0,0L8,0L20,23L29,39L37,55L44,68L44,70L140,70L140,155L91,155L90,157L90,153L88,153L88,149L132,147L120,131L78,131L79,135L76,134L75,127L116,126L107,115L69,114L69,116L67,116L67,111L103,111L93,98L93,96L59,96L60,100L-157,100L-157,1L0,0Z" style="fill:rgb(246,247,235);fill-rule:nonzero;"/>
        </g>
        <g transform="matrix(1.06761,0,0,1.15172,37.4785,-47.1246)">
            <path d="M0,0L608,0C608,0 611.54,-0.557 613.366,1.574C614.971,3.447 615,6 615,6L615,603L630,603L631,608L629,610L578,610L577,605L575,605L569,593L562,582L553,566L553,565L605,565L605,437L559,437L556,431L556,428L605,428L604,10L601,10L346,11L2,12L2,428L56,428L53,437L2,437L2,565L57,565L51,577L37,601L33,609L-22,609L-21,604L-20,603L-8,603L-8,7L-4,2L0,0Z" style="fill:rgb(32,40,82);fill-rule:nonzero;"/>
        </g>
        <g transform="matrix(1.06761,0,0,1.15172,319.329,268.447)">
            <path d="M0,0L42,0L42,99L-177,99L-176,95L-215,95L-217,99L-224,109L-183,110L-185,114L-185,112L-228,112L-230,117L-236,125L-192,126L-194,130L-240,130L-252,146L-207,147L-207,151L-258,152L-261,150L-261,145L-249,130L-261,129L-261,126L-246,126L-237,114L-261,113L-261,110L-232,109L-228,103L-223,96L-261,95L-261,92L-219,92L-217,88L-208,76L-261,76L-261,70L-225,69L-161,69L-147,43L-135,21L-125,2L-121,1L0,0Z" style="fill:rgb(247,249,236);fill-rule:nonzero;"/>
        </g>
        <g transform="matrix(1.06761,0,0,1.15172,208.297,552.922)">
            <path d="M0,0L75,0L75,18L24,18L23,23L75,23L75,44L15,44L13,53L8,65L-1,88L295,87L291,74L285,61L280,47L280,44L218,44L218,23L271,23L271,18L218,18L218,1L294,1L294,17L277,17L278,22L347,23L347,44L287,45L294,64L299,75L303,86L303,88L409,87L408,82L406,82L399,68L396,63L390,52L381,35L377,28L377,17L381,21L381,23L445,23L445,44L394,45L407,68L415,81L415,84L417,84L418,89L474,88L478,91L477,95L472,98L308,98L322,139L323,145L316,145L310,129L305,113L301,100L301,98L-5,98L-8,108L-17,132L-22,145L-29,145L-28,139L-22,123L-17,109L-13,98L-184,98L-188,95L-187,90L-185,88L-127,88L-125,83L-118,69L-108,52L-104,45L-157,44L-157,23L-91,23L-89,19L-83,8L-82,8L-82,44L-96,44L-98,49L-112,74L-119,88L-8,88L-7,84L0,64L9,44L-53,44L-53,23L0,23L0,0Z" style="fill:rgb(238,245,236);fill-rule:nonzero;"/>
        </g>
        <g transform="matrix(1.06761,0,0,1.15172,5.45008,-109.317)">
            <path d="M0,0L666,0L677,4L683,8L689,13L696,24L696,30L686,31L683,33L681,26L672,17L664,13L660,12L10,12C10,12 -5.206,11.064 -11.093,16.84C-16.333,21.981 -16,32 -16,32L-16,681L-18,691L-22,695L-23,699L-26,700L-30,691L-32,683L-32,35L-28,21L-25,15L-16,7L-4,1L0,0Z" style="fill:rgb(220,234,222);fill-rule:nonzero;"/>
        </g>
        <g transform="matrix(1.06761,0,0,1.15172,288.368,552.922)">
            <path d="M0,0L1,0L1,44L8,44L8,0L135,0L135,44L142,44L142,0L220,0L220,23L203,23L202,22L202,17L219,17L219,1L143,1L143,18L196,18L196,23L143,23L143,44L205,44L212,63L217,74L221,88L-76,88L-73,77L-67,62L-63,53L-60,44L0,44L0,23L-52,23L-51,18L0,18L0,0Z" style="fill:rgb(25,115,191);fill-rule:nonzero;"/>
        </g>
        <g transform="matrix(1.06761,0,0,1.15172,753.848,-92.0416)">
            <path d="M0,0L2,0L7,13L8,668L18,670L27,674L38,681L47,691L48,697L51,698L54,711L53,725L50,734L43,746L36,754L27,760L17,765L8,768L-110,768L-119,767L-141,768L-191,768L-195,767L-228,767L-232,768L-740,768L-747,766L-761,761L-772,753L-777,748L-786,734L-788,726L-789,714L-787,700L-784,694L-777,684L-772,680L-770,680L-770,678L-757,672L-753,670L-745,670L-745,672L-741,671L-736,686L-736,688L-748,689L-758,694L-765,701L-769,709L-769,722L-765,732L-758,740L-748,746L-738,750L-1,750L16,743L24,737L30,729L33,721L33,710L30,703L23,695L11,689L2,688L3,681L5,673L5,15L0,0Z" style="fill:rgb(253,215,177);fill-rule:nonzero;"/>
        </g>
        <g transform="matrix(1.06761,0,0,1.15172,743.172,715.315)">
            <path d="M0,0L1,2L6,3L15,8L22,15L25,20L25,29L21,34L19,35L-669,35L-672,33L-672,31L-676,29L-686,20L-690,16L-689,15L-28,14L-17,11L-7,6L0,0Z" style="fill:rgb(201,85,143);fill-rule:nonzero;"/>
        </g>
        <g transform="matrix(1.06761,0,0,1.15172,202.958,665.791)">
            <path d="M0,0L306,0L312,18L318,37L-13,37L-11,28L-1,2L0,0Z" style="fill:rgb(23,130,202);fill-rule:nonzero;"/>
        </g>
        <g transform="matrix(1.06761,0,0,1.15172,168.795,390.529)">
            <path d="M0,0L2,1L-1,10L-5,19L27,20L30,10L33,2L36,3L37,0L78,0L77,8L74,20L71,29L67,44L66,50L62,64L15,64L14,65L60,65L61,68L56,88L55,90L7,91L54,92L52,104L49,116L-4,116L-5,113L-7,113L-7,115L-47,115L-44,106L-38,92L0,91L-36,90L-37,87L-39,90L-78,90L-76,85L-65,65L-64,63L-29,63L-21,45L-54,45L-54,44L-20,43L-14,29L-13,31L-10,28L-7,23L25,23L25,21L-41,21L-41,20L-9,19L0,0Z" style="fill:rgb(221,250,251);fill-rule:nonzero;"/>
        </g>
        <g transform="matrix(1.06761,0,0,1.15172,733.564,-78.2209)">
            <path d="M2,661L0.886,5.618L4,3L11.932,0.875L13.842,-2.127L16,3L16,661L13,671L10,671L2,661Z" style="fill:rgb(93,194,225);fill-rule:nonzero;"/>
        </g>
        <g transform="matrix(1.06761,0,0,1.15172,478.403,390.529)">
            <path d="M0,0L41,0L42,4L45,3L50,15L52,20L84,21L78,9L80,5L87,20L117,21L117,23L89,23L97,42L129,43L131,45L98,45L106,61L106,64L141,63L143,68L154,89L154,90L117,90L110,74L109,77L114,88L114,90L76,90L75,88L72,87L72,90L22,90L16,66L66,65L66,62L64,62L64,65L16,65L11,47L7,29L1,8L0,0Z" style="fill:rgb(214,246,249);fill-rule:nonzero;"/>
        </g>
        <g transform="matrix(1.06761,0,0,1.15172,261.677,390.529)">
            <path d="M0,0L17,0L16,9L14,17L17,16L21,0L54,0L55,2L56,0L91,0L91,43L52,43L53,30L54,26L52,26L50,36L46,66L43,89L3,89L1,85L-1,85L-1,89L-22,89L-21,80L-15,56L-12,45L-10,38L-6,22L-1,1L0,0Z" style="fill:rgb(221,247,249);fill-rule:nonzero;"/>
        </g>
        <g transform="matrix(1.06761,0,0,1.15172,411.144,390.529)">
            <path d="M0,0L34,0L35,5L37,5L37,0L55,0L60,18L60,21L41,21L41,27L42,23L61,23L66,45L69,54L70,66L72,67L76,86L76,90L56,90L54,83L54,78L50,78L52,90L13,90L12,89L10,67L48,67L48,65L9,65L8,62L7,65L-37,65L-37,23L38,23L38,21L4,21L2,16L0,0Z" style="fill:rgb(215,236,240);fill-rule:nonzero;"/>
        </g>
        <g transform="matrix(1.06761,0,0,1.15172,296.909,552.922)">
            <path d="M0,0L127,0L127,44L67,44L67,82L61,82L60,81L60,44L0,44L0,0Z" style="fill:rgb(243,175,165);fill-rule:nonzero;"/>
        </g>
        <g transform="matrix(1.06761,0,0,1.15172,439.97,552.922)">
            <path d="M0,0L78,0L78,23L61,23L60,22L60,17L77,17L77,1L1,1L1,18L54,18L54,23L1,23L1,44L63,44L70,63L75,74L77,82L-67,82L-67,44L0,44L0,0Z" style="fill:rgb(28,115,190);fill-rule:nonzero;"/>
        </g>
        <g transform="matrix(1.06761,0,0,1.15172,303.315,292.633)">
            <path d="M0,0L27,0L27,2L29,1L52,1L52,15L50,16L53,18L53,34L25,34L25,36L52,36L54,42L54,53L53,54L52,74L19,74L18,71L17,75L-14,75L-14,77L-35,76L-37,73L-33,56L-24,20L-23,18L-7,18L-5,19L-5,17L9,16L-3,15L-3,10L-2,9L-1,1L0,0Z" style="fill:rgb(223,249,247);fill-rule:nonzero;"/>
        </g>
        <g transform="matrix(1.06761,0,0,1.15172,364.168,268.447)">
            <path d="M0,0L2,0L2,99L219,99L218,95L252,95L260,106L262,110L226,110L223,107L221,102L2,101L2,228L287,228L288,226L288,232L-290,232L-290,227L0,228L0,101L-221,101L-223,107L-225,110L-267,110L-263,103L-257,95L-218,95L-219,99L0,99L0,0Z" style="fill:rgb(243,203,169);fill-rule:nonzero;"/>
        </g>
        <g transform="matrix(1.06761,0,0,1.15172,208.297,552.922)">
            <path d="M0,0L75,0L75,18L24,18L23,23L75,23L75,44L15,44L13,53L8,65L-1,88L296,88L296,89L-2,89L-8,88L-7,84L0,64L9,44L-53,44L-53,23L0,23L0,0Z" style="fill:rgb(251,174,162);fill-rule:nonzero;"/>
        </g>
        <g transform="matrix(1.06761,0,0,1.15172,371.642,313.364)">
            <path d="M0,0L26,0L27,7L28,0L57,0L59,8L60,0L75,0L78,9L78,12L80,12L81,22L84,32L88,48L89,57L34,57L33,58L2,58L0,56L0,37L27,36L0,35L0,18L27,18L27,16L0,16L0,0Z" style="fill:rgb(213,244,247);fill-rule:nonzero;"/>
        </g>
        <g transform="matrix(1.06761,0,0,1.15172,491.215,292.633)">
            <path d="M0,0L26,0L26,1L1,1L4,11L7,20L12,32L12,34L40,34L33,19L36,18L43,32L43,34L67,34L68,32L69,37L45,37L51,51L51,53L77,53L80,56L89,72L89,74L58,74L57,75L32,77L22,77L21,76L-14,75L-17,66L-20,55L-22,49L-27,31L-29,23L-29,18L1,17L1,16L-31,15L-31,14L1,14L-3,3L-2,1L-1,2L0,0Z" style="fill:rgb(201,240,241);fill-rule:nonzero;"/>
        </g>
        <g transform="matrix(1.06761,0,0,1.15172,236.055,313.364)">
            <path d="M0,0L33,0L32,5L29,16L27,16L28,20L24,36L23,43L20,48L18,57L-23,57L-24,58L-58,59L-86,58L-87,54L-77,36L-76,35L-49,34L-42,18L-67,18L-66,16L-40,15L-34,2L-31,4L-37,16L-9,16L-6,6L-4,3L-4,5L-1,2L0,0Z" style="fill:rgb(225,249,248);fill-rule:nonzero;"/>
        </g>
        <g transform="matrix(1.06761,0,0,1.15172,441.038,554.074)">
            <path d="M0,0L76,0L76,16L59,16L60,21L129,22L129,43L69,44L76,63L81,74L85,85L85,87L78,87L74,77L69,64L62,46L62,43L0,43L0,22L53,22L53,17L0,17L0,0Z" style="fill:rgb(243,174,166);fill-rule:nonzero;"/>
        </g>
        <g transform="matrix(1.06761,0,0,1.15172,39.614,456.178)">
            <path d="M0,0L50,0L50,1L1,1L1,19L7,13L43,13L35,29L21,54L15,64L14,69L304,69L304,70L14,70L16,79L19,83L76,84L76,92L69,104L67,107L1,107L1,128L0,128L0,0Z" style="fill:rgb(155,147,173);fill-rule:nonzero;"/>
        </g>
        <g transform="matrix(1.06761,0,0,1.15172,753.848,-92.0416)">
            <path d="M0,0L2,0L7,13L8,668L18,670L27,674L38,681L47,691L48,697L51,698L54,711L53,725L50,734L43,746L36,754L27,760L17,765L8,768L-110,768L-119,767L-141,768L-191,768L-195,767L-228,767L-232,768L-740,768L-747,766L-761,761L-772,753L-777,748L-786,734L-788,726L-789,714L-787,700L-784,694L-777,684L-772,680L-770,680L-770,678L-757,672L-753,670L-745,670L-745,672L-741,671L-741,673L-756,673L-756,675L-770,682L-780,692L-784,700L-786,712L-786,722L-783,733L-779,740L-775,746L-767,753L-758,759L-748,763L-733,764L8,764L22,760L34,751L41,744L50,726L50,708L48,699L41,688L31,680L19,675L19,673L6,671L5,15L0,0Z" style="fill:rgb(149,165,180);fill-rule:nonzero;"/>
        </g>
        <g transform="matrix(1.06761,0,0,1.15172,188.013,708.404)">
            <path d="M0,0L332,0L335,10L-3,10L0,0Z" style="fill:rgb(32,83,157);fill-rule:nonzero;"/>
        </g>
        <g transform="matrix(1.06761,0,0,1.15172,538.19,552.922)">
            <path d="M0,0L39,0L39,82L-8,83L-13,70L-18,59L-23,44L38,44L38,23L0,23L0,0Z" style="fill:rgb(28,111,187);fill-rule:nonzero;"/>
        </g>
        <g transform="matrix(1.06761,0,0,1.15172,610.788,554.074)">
            <path d="M0,0L68,0L68,22L4,22L1,18L1,27L7,37L15,53L20,62L26,73L29,78L29,81L31,82L0,82L-1,81L-1,13L0,0Z" style="fill:rgb(191,150,176);fill-rule:nonzero;"/>
        </g>
        <g transform="matrix(1.06761,0,0,1.15172,365.236,512.611)">
            <path d="M0,0L1,0L1,16L286,16L287,14L287,20L-291,20L-291,15L-1,15L0,0Z" style="fill:rgb(243,176,177);fill-rule:nonzero;"/>
        </g>
        <g transform="matrix(1.06761,0,0,1.15172,151.713,603.598)">
            <path d="M0,0L62,0L59,9L51,28L47,40L46,38L0,38L0,0Z" style="fill:rgb(29,113,188);fill-rule:nonzero;"/>
        </g>
        <g transform="matrix(1.06761,0,0,1.15172,-13.767,684.218)">
            <path d="M0,0L3,1L6,6L6,9L10,11L12,15L17,17L20,19L25,20L181,21L182,18L183,20L179,31L15,31L4,25L-6,15L-8,11L-5,10L-4,5L0,0Z" style="fill:rgb(32,89,161);fill-rule:nonzero;"/>
        </g>
        <g transform="matrix(1.06761,0,0,1.15172,734.631,681.914)">
            <path d="M0,0L5,4L11,13L6,20L4,20L2,24L-8,31L-15,33L-170,33L-173,24L-173,18L-172,18L-172,23L-25,22L-14,18L-6,12L-2,7L0,0Z" style="fill:rgb(29,86,160);fill-rule:nonzero;"/>
        </g>
        <g transform="matrix(1.06761,0,0,1.15172,119.685,562.136)">
            <path d="M0,0L1,0L1,36L-13,36L-15,41L-29,66L-36,80L-44,80L-42,75L-35,61L-25,44L-21,37L-74,36L-74,15L-8,15L-6,11L0,0Z" style="fill:rgb(245,176,164);fill-rule:nonzero;"/>
        </g>
        <g transform="matrix(1.06761,0,0,1.15172,299.044,313.364)">
            <path d="M0,0L28,0L28,10L29,10L31,0L57,0L57,16L29,16L29,18L56,18L56,35L26,35L26,24L24,35L-7,35L-6,25L-4,18L24,17L-3,16L-1,4L0,0Z" style="fill:rgb(49,187,209);fill-rule:nonzero;"/>
        </g>
        <g transform="matrix(1.06761,0,0,1.15172,39.614,347.915)">
            <path d="M0,0L1,0L1,7L54,7L52,11L43,23L1,23L1,26L40,26L30,41L1,41L1,44L26,44L22,51L16,58L1,57L1,60L14,60L8,69L2,76L1,81L8,82L56,81L55,86L0,85L0,0Z" style="fill:rgb(216,140,144);fill-rule:nonzero;"/>
        </g>
        <g transform="matrix(1.06761,0,0,1.15172,296.909,552.922)">
            <path d="M0,0L127,0L127,23L66,23L66,1L1,1L1,17L61,17L61,23L0,23L0,0Z" style="fill:rgb(198,141,172);fill-rule:nonzero;"/>
        </g>
        <g transform="matrix(1.06761,0,0,1.15172,673.777,469.999)">
            <path d="M0,0L7,5L7,7L9,7L9,73L-59,73L-59,86L-60,86L-60,72L-6,71L-3,67L-1,58L-288,58L-288,57L-2,57L-4,49L-12,35L-20,19L-29,3L-29,1L0,0Z" style="fill:rgb(162,145,172);fill-rule:nonzero;"/>
        </g>
        <g transform="matrix(1.06761,0,0,1.15172,209.365,647.363)">
            <path d="M0,0L293,0L295,6L-2,6L0,0Z" style="fill:rgb(13,31,76);fill-rule:nonzero;"/>
        </g>
        <g transform="matrix(1.06761,0,0,1.15172,40.6817,603.598)">
            <path d="M0,0L54,0L48,12L34,36L32,40L-1,39L-1,2L0,0Z" style="fill:rgb(28,112,186);fill-rule:nonzero;"/>
        </g>
        <g transform="matrix(1.06761,0,0,1.15172,610.788,572.501)">
            <path d="M0,0L4,4L4,6L68,6L68,27L17,28L30,51L38,64L38,67L40,67L41,71L33,71L31,65L29,65L22,51L19,46L13,35L4,18L0,11L0,0Z" style="fill:rgb(247,176,165);fill-rule:nonzero;"/>
        </g>
        <g transform="matrix(1.06761,0,0,1.15172,505.094,579.412)">
            <path d="M0,0L69,0L69,21L9,22L16,41L21,52L25,63L25,65L18,65L14,55L9,42L2,24L2,21L7,21L0,2L0,0Z" style="fill:rgb(243,172,165);fill-rule:nonzero;"/>
        </g>
        <g transform="matrix(1.06761,0,0,1.15172,12.9233,-121.986)">
            <path d="M0,0L355,1L539,0L588,0L595,1L640,1L645,0L655,1L668,3L677,7L686,14L694,23L693,26L687,18L679,11L667,5L664,4L-9,4L-20,8L-30,14L-37,21L-43,31L-46,40L-47,36L-44,27L-35,15L-24,7L-15,3L0,0Z" style="fill:rgb(76,156,184);fill-rule:nonzero;"/>
        </g>
        <g transform="matrix(1.06761,0,0,1.15172,627.869,603.598)">
            <path d="M0,0L52,0L52,38L23,38L22,40L16,28L9,17L0,1L0,0Z" style="fill:rgb(28,112,187);fill-rule:nonzero;"/>
        </g>
        <g transform="matrix(1.06761,0,0,1.15172,367.372,579.412)">
            <path d="M0,0L61,0L61,21L1,21L1,59L-5,59L-6,58L-6,21L0,21L0,0Z" style="fill:rgb(243,175,165);fill-rule:nonzero;"/>
        </g>
        <g transform="matrix(1.06761,0,0,1.15172,208.297,552.922)">
            <path d="M0,0L75,0L75,18L25,18L27,9L30,1L25,1L22,11L17,23L16,24L-52,24L-52,43L9,43L9,44L-53,44L-53,23L0,23L0,0Z" style="fill:rgb(193,148,180);fill-rule:nonzero;"/>
        </g>
        <g transform="matrix(1.06761,0,0,1.15172,59.8984,552.922)">
            <path d="M0,0L57,0L57,8L51,19L50,17L-18,17L-18,1L0,0Z" style="fill:rgb(192,143,178);fill-rule:nonzero;"/>
        </g>
        <g transform="matrix(1.06761,0,0,1.15172,303.315,292.633)">
            <path d="M0,0L27,0L27,2L29,1L52,1L52,15L50,16L51,18L27,18L26,30L23,29L24,18L-4,18L-5,25L-7,34L-8,31L-10,31L-11,34L-27,34L-24,20L-23,18L-7,18L-5,19L-5,17L9,16L-3,15L-3,10L-2,9L-1,1L0,0Z" style="fill:rgb(222,250,241);fill-rule:nonzero;"/>
        </g>
        <g transform="matrix(1.06761,0,0,1.15172,502.959,496.487)">
            <path d="M0,0L50,0L54,9L58,20L58,23L5,23L1,5L0,0Z" style="fill:rgb(8,58,133);fill-rule:nonzero;"/>
        </g>
        <g transform="matrix(1.06761,0,0,1.15172,231.785,579.412)">
            <path d="M0,0L53,0L53,21L-6,21L-5,14L-2,6L0,0Z" style="fill:rgb(243,172,164);fill-rule:nonzero;"/>
        </g>
        <g transform="matrix(1.06761,0,0,1.15172,173.066,496.487)">
            <path d="M0,0L50,0L48,12L45,23L-7,23L-6,17L0,0Z" style="fill:rgb(12,61,135);fill-rule:nonzero;"/>
        </g>
        <g transform="matrix(1.06761,0,0,1.15172,496.553,467.695)">
            <path d="M0,0L48,0L55,20L55,23L5,23L0,3L0,0Z" style="fill:rgb(3,95,170);fill-rule:nonzero;"/>
        </g>
        <g transform="matrix(1.06761,0,0,1.15172,182.674,467.695)">
            <path d="M0,0L48,0L43,21L42,23L-7,23L-6,16L0,0Z" style="fill:rgb(4,94,175);fill-rule:nonzero;"/>
        </g>
        <g transform="matrix(1.06761,0,0,1.15172,309.72,496.487)">
            <path d="M0,0L46,0L46,23L-2,23L-2,14L0,0Z" style="fill:rgb(9,55,137);fill-rule:nonzero;"/>
        </g>
        <g transform="matrix(1.06761,0,0,1.15172,372.71,496.487)">
            <path d="M0,0L46,0L48,16L48,23L0,23L0,0Z" style="fill:rgb(10,56,131);fill-rule:nonzero;"/>
        </g>
        <g transform="matrix(1.06761,0,0,1.15172,372.71,467.695)">
            <path d="M0,0L43,0L46,19L46,23L0,23L0,0Z" style="fill:rgb(4,97,177);fill-rule:nonzero;"/>
        </g>
        <g transform="matrix(1.06761,0,0,1.15172,312.923,467.695)">
            <path d="M0,0L43,0L43,23L-3,23L-1,5L0,0Z" style="fill:rgb(6,94,176);fill-rule:nonzero;"/>
        </g>
        <g transform="matrix(1.06761,0,0,1.15172,425.023,496.487)">
            <path d="M0,0L40,0L44,18L44,24L3,24L2,23L0,7L0,0Z" style="fill:rgb(6,57,138);fill-rule:nonzero;"/>
        </g>
        <g transform="matrix(1.06761,0,0,1.15172,297.976,554.074)">
            <rect x="0" y="0" width="60" height="16" style="fill:rgb(208,150,176);"/>
        </g>
        <g transform="matrix(1.06761,0,0,1.15172,263.813,496.487)">
            <path d="M0,0L40,0L38,20L37,23L-4,23L-4,16L0,0Z" style="fill:rgb(9,56,135);fill-rule:nonzero;"/>
        </g>
        <g transform="matrix(1.06761,0,0,1.15172,105.806,603.598)">
            <path d="M0,0L14,0L14,38L-20,38L-19,34L-9,15L0,0Z" style="fill:rgb(30,115,188);fill-rule:nonzero;"/>
        </g>
        <g transform="matrix(1.06761,0,0,1.15172,128.226,496.487)">
            <path d="M0,0L39,0L32,21L31,23L-9,23L-6,14L0,0Z" style="fill:rgb(12,63,135);fill-rule:nonzero;"/>
        </g>
        <g transform="matrix(1.06761,0,0,1.15172,605.45,496.487)">
            <path d="M0,0L36,0L48,21L48,24L10,24L5,14L0,2L0,0Z" style="fill:rgb(15,66,136);fill-rule:nonzero;"/>
        </g>
        <g transform="matrix(1.06761,0,0,1.15172,560.61,496.487)">
            <path d="M0,0L38,0L45,15L47,20L47,23L7,23L0,2L0,0Z" style="fill:rgb(10,60,134);fill-rule:nonzero;"/>
        </g>
        <g transform="matrix(1.06761,0,0,1.15172,208.297,390.529)">
            <path d="M0,0L41,0L40,8L37,20L36,21L-7,21L-4,9L0,0Z" style="fill:rgb(15,143,199);fill-rule:nonzero;"/>
        </g>
        <g transform="matrix(1.06761,0,0,1.15172,421.82,467.695)">
            <path d="M0,0L38,0L42,20L42,23L3,23L2,22L0,0Z" style="fill:rgb(2,97,173);fill-rule:nonzero;"/>
        </g>
        <g transform="matrix(1.06761,0,0,1.15172,84.4538,496.487)">
            <path d="M0,0L37,0L36,5L28,23L-11,23L-10,18L-1,1L0,0Z" style="fill:rgb(17,60,133);fill-rule:nonzero;"/>
        </g>
        <g transform="matrix(1.06761,0,0,1.15172,199.756,417.019)">
            <path d="M0,0L43,0L41,11L38,20L-7,20L-4,9L0,0Z" style="fill:rgb(2,134,204);fill-rule:nonzero;"/>
        </g>
        <g transform="matrix(1.06761,0,0,1.15172,478.403,390.529)">
            <path d="M0,0L41,0L46,14L48,18L48,21L5,21L0,3L0,0Z" style="fill:rgb(9,145,206);fill-rule:nonzero;"/>
        </g>
        <g transform="matrix(1.06761,0,0,1.15172,491.215,442.357)">
            <path d="M0,0L45,0L51,16L51,19L4,19L2,13L0,5L0,0Z" style="fill:rgb(7,115,182);fill-rule:nonzero;"/>
        </g>
        <g transform="matrix(1.06761,0,0,1.15172,484.81,417.019)">
            <path d="M0,0L43,0L47,10L50,20L5,20L0,4L0,0Z" style="fill:rgb(3,130,200);fill-rule:nonzero;"/>
        </g>
        <g transform="matrix(1.06761,0,0,1.15172,191.215,442.357)">
            <path d="M0,0L45,0L44,7L41,19L-6,19L-4,9L0,0Z" style="fill:rgb(12,115,177);fill-rule:nonzero;"/>
        </g>
        <g transform="matrix(1.06761,0,0,1.15172,269.151,467.695)">
            <path d="M0,0L38,0L37,15L36,22L-4,22L-4,15L0,0Z" style="fill:rgb(6,96,179);fill-rule:nonzero;"/>
        </g>
        <g transform="matrix(1.06761,0,0,1.15172,139.97,467.695)">
            <path d="M0,0L37,0L29,23L-9,23L-8,18L0,0Z" style="fill:rgb(4,102,175);fill-rule:nonzero;"/>
        </g>
        <g transform="matrix(1.06761,0,0,1.15172,151.713,552.922)">
            <rect x="0" y="0" width="39" height="22" style="fill:rgb(191,146,176);"/>
        </g>
        <g transform="matrix(1.06761,0,0,1.15172,551.001,467.695)">
            <path d="M0,0L37,0L46,21L46,23L8,23L0,2L0,0Z" style="fill:rgb(13,99,164);fill-rule:nonzero;"/>
        </g>
        <g transform="matrix(1.06761,0,0,1.15172,63.1016,417.019)">
            <path d="M0,0L46,0L39,14L36,18L-13,18L-7,9L0,0Z" style="fill:rgb(245,126,157);fill-rule:nonzero;"/>
        </g>
        <g transform="matrix(1.06761,0,0,1.15172,249.934,274.205)">
            <path d="M0,0L28,0L26,11L24,21L21,30L-11,30L-10,24L-6,16L24,16L24,14L-5,14L-4,8L0,0Z" style="fill:rgb(77,218,226);fill-rule:nonzero;"/>
        </g>
        <g transform="matrix(1.06761,0,0,1.15172,98.333,467.695)">
            <path d="M0,0L36,0L28,19L27,23L-12,23L-10,18L0,0Z" style="fill:rgb(12,102,168);fill-rule:nonzero;"/>
        </g>
        <g transform="matrix(1.06761,0,0,1.15172,441.038,554.074)">
            <path d="M0,0L47,0L51,12L52,17L0,17L0,0Z" style="fill:rgb(196,147,181);fill-rule:nonzero;"/>
        </g>
        <g transform="matrix(1.06761,0,0,1.15172,593.706,467.695)">
            <path d="M0,0L34,0L46,22L46,23L9,23L0,2L0,0Z" style="fill:rgb(15,100,165);fill-rule:nonzero;"/>
        </g>
        <g transform="matrix(1.06761,0,0,1.15172,609.721,603.598)">
            <path d="M0,0L11,0L18,14L21,19L27,30L30,35L30,38L32,39L1,39L0,38L0,0Z" style="fill:rgb(32,107,184);fill-rule:nonzero;"/>
        </g>
        <g transform="matrix(1.06761,0,0,1.15172,616.126,417.019)">
            <path d="M0,0L43,0L56,17L56,18L9,18L3,8L0,0Z" style="fill:rgb(246,129,156);fill-rule:nonzero;"/>
        </g>
        <g transform="matrix(1.06761,0,0,1.15172,371.642,442.357)">
            <path d="M0,0L41,0L43,11L43,19L0,19L0,0Z" style="fill:rgb(4,113,181);fill-rule:nonzero;"/>
        </g>
        <g transform="matrix(1.06761,0,0,1.15172,371.642,417.019)">
            <path d="M0,0L38,0L40,12L40,20L1,20L0,19L0,0Z" style="fill:rgb(3,132,206);fill-rule:nonzero;"/>
        </g>
        <g transform="matrix(1.06761,0,0,1.15172,625.734,355.978)">
            <path d="M0,0L54,0L54,16L11,16L7,11L5,10L1,3L0,0Z" style="fill:rgb(252,214,143);fill-rule:nonzero;"/>
        </g>
        <g transform="matrix(1.06761,0,0,1.15172,316.127,442.357)">
            <path d="M0,0L40,0L40,19L-2,19L-1,5L0,0Z" style="fill:rgb(15,112,177);fill-rule:nonzero;"/>
        </g>
        <g transform="matrix(1.06761,0,0,1.15172,40.6817,355.978)">
            <path d="M0,0L53,0L51,4L42,16L0,16L0,0Z" style="fill:rgb(253,216,136);fill-rule:nonzero;"/>
        </g>
        <g transform="matrix(1.06761,0,0,1.15172,319.329,417.019)">
            <path d="M0,0L37,0L37,20L-2,20L-1,7L0,0Z" style="fill:rgb(5,133,203);fill-rule:nonzero;"/>
        </g>
        <g transform="matrix(1.06761,0,0,1.15172,321.464,390.529)">
            <path d="M0,0L35,0L35,21L-1,21L-1,8L0,0Z" style="fill:rgb(1,144,212);fill-rule:nonzero;"/>
        </g>
        <g transform="matrix(1.06761,0,0,1.15172,371.642,390.529)">
            <path d="M0,0L34,0L36,8L37,21L0,21L0,0Z" style="fill:rgb(16,140,201);fill-rule:nonzero;"/>
        </g>
        <g transform="matrix(1.06761,0,0,1.15172,469.863,355.978)">
            <path d="M0,0L38,0L44,16L44,19L5,19L0,2L0,0Z" style="fill:rgb(13,139,195);fill-rule:nonzero;"/>
        </g>
        <g transform="matrix(1.06761,0,0,1.15172,411.144,390.529)">
            <path d="M0,0L34,0L37,14L38,21L4,21L2,16L0,0Z" style="fill:rgb(4,141,205);fill-rule:nonzero;"/>
        </g>
        <g transform="matrix(1.06761,0,0,1.15172,278.76,417.019)">
            <path d="M0,0L35,0L33,20L-4,20L-1,2L0,0Z" style="fill:rgb(9,134,201);fill-rule:nonzero;"/>
        </g>
        <g transform="matrix(1.06761,0,0,1.15172,273.421,442.357)">
            <path d="M0,0L37,0L36,11L35,19L-3,19L-2,8L0,0Z" style="fill:rgb(16,112,177);fill-rule:nonzero;"/>
        </g>
        <g transform="matrix(1.06761,0,0,1.15172,221.108,355.978)">
            <path d="M0,0L36,0L35,8L32,19L-6,19L-5,12L0,0Z" style="fill:rgb(2,144,205);fill-rule:nonzero;"/>
        </g>
        <g transform="matrix(1.06761,0,0,1.15172,415.414,417.019)">
            <path d="M0,0L35,0L37,9L38,11L38,20L2,20L0,6L0,0Z" style="fill:rgb(18,133,195);fill-rule:nonzero;"/>
        </g>
        <g transform="matrix(1.06761,0,0,1.15172,284.097,390.529)">
            <path d="M0,0L33,0L31,21L-5,21L-1,3L0,0Z" style="fill:rgb(18,145,200);fill-rule:nonzero;"/>
        </g>
        <g transform="matrix(1.06761,0,0,1.15172,12.9233,-121.986)">
            <path d="M0,0L184,0L213,1L227,2L227,3L-9,4L-20,8L-30,14L-37,21L-43,31L-46,40L-47,36L-44,27L-35,15L-24,7L-15,3L0,0Z" style="fill:rgb(74,171,194);fill-rule:nonzero;"/>
        </g>
        <g transform="matrix(1.06761,0,0,1.15172,418.618,442.357)">
            <path d="M0,0L36,0L38,7L40,19L2,19L0,7L0,0Z" style="fill:rgb(5,113,180);fill-rule:nonzero;"/>
        </g>
        <g transform="matrix(1.06761,0,0,1.15172,208.297,552.922)">
            <path d="M0,0L75,0L75,1L25,1L22,11L17,23L16,24L-52,24L-52,43L9,43L9,44L-53,44L-53,23L0,23L0,0Z" style="fill:rgb(189,142,173);fill-rule:nonzero;"/>
        </g>
        <g transform="matrix(1.06761,0,0,1.15172,161.322,417.019)">
            <path d="M0,0L33,0L30,9L26,20L-9,20L-7,14L0,0Z" style="fill:rgb(6,137,204);fill-rule:nonzero;"/>
        </g>
        <g transform="matrix(1.06761,0,0,1.15172,150.646,442.357)">
            <path d="M0,0L35,0L32,9L28,19L-8,19L-5,10L0,0Z" style="fill:rgb(16,118,177);fill-rule:nonzero;"/>
        </g>
        <g transform="matrix(1.06761,0,0,1.15172,542.461,442.357)">
            <path d="M0,0L35,0L42,15L42,19L6,19L0,2L0,0Z" style="fill:rgb(14,115,174);fill-rule:nonzero;"/>
        </g>
        <g transform="matrix(1.06761,0,0,1.15172,533.919,417.019)">
            <path d="M0,0L33,0L40,14L41,20L7,20L0,2L0,0Z" style="fill:rgb(8,131,205);fill-rule:nonzero;"/>
        </g>
        <g transform="matrix(1.06761,0,0,1.15172,525.378,390.529)">
            <path d="M0,0L30,0L38,15L40,21L8,21L4,13L0,3L0,0Z" style="fill:rgb(18,146,201);fill-rule:nonzero;"/>
        </g>
        <g transform="matrix(1.06761,0,0,1.15172,288.368,552.922)">
            <path d="M0,0L1,0L1,44L68,44L69,82L-74,82L-72,75L-71,79L-72,81L-55,80L-53,81L-52,79L-51,80L66,81L66,45L-59,45L-59,44L0,44L0,23L-52,23L-51,18L0,18L0,0Z" style="fill:rgb(53,92,150);fill-rule:nonzero;"/>
        </g>
        <g transform="matrix(1.06761,0,0,1.15172,111.145,442.357)">
            <path d="M0,0L33,0L32,5L25,19L-10,19L-8,14L0,0Z" style="fill:rgb(15,119,180);fill-rule:nonzero;"/>
        </g>
        <g transform="matrix(1.06761,0,0,1.15172,122.887,417.019)">
            <path d="M0,0L32,0L30,6L24,20L-9,20L-8,15L0,0Z" style="fill:rgb(17,135,197);fill-rule:nonzero;"/>
        </g>
        <g transform="matrix(1.06761,0,0,1.15172,538.19,554.074)">
            <rect x="0" y="0" width="38" height="17" style="fill:rgb(199,146,178);"/>
        </g>
        <g transform="matrix(1.06761,0,0,1.15172,561.678,390.529)">
            <path d="M0,0L30,0L39,18L39,21L9,21L1,5L0,0Z" style="fill:rgb(6,147,204);fill-rule:nonzero;"/>
        </g>
        <g transform="matrix(1.06761,0,0,1.15172,171.998,390.529)">
            <path d="M0,0L31,0L28,10L24,20L-9,20L-5,10L0,0Z" style="fill:rgb(14,143,200);fill-rule:nonzero;"/>
        </g>
        <g transform="matrix(1.06761,0,0,1.15172,583.03,442.357)">
            <path d="M0,0L33,0L42,17L42,19L8,19L1,3L0,0Z" style="fill:rgb(18,117,175);fill-rule:nonzero;"/>
        </g>
        <g transform="matrix(1.06761,0,0,1.15172,135.699,390.529)">
            <path d="M0,0L31,0L29,6L22,20L-10,20L-1,1L0,0Z" style="fill:rgb(15,146,201);fill-rule:nonzero;"/>
        </g>
        <g transform="matrix(1.06761,0,0,1.15172,573.421,417.019)">
            <path d="M0,0L30,0L40,18L40,20L8,20L3,10L0,3L0,0Z" style="fill:rgb(16,131,193);fill-rule:nonzero;"/>
        </g>
        <g transform="matrix(1.06761,0,0,1.15172,75.9131,397.439)">
            <path d="M0,0L43,0L41,6L36,14L-9,14L-2,3L0,0Z" style="fill:rgb(251,158,153);fill-rule:nonzero;"/>
        </g>
        <g transform="matrix(1.06761,0,0,1.15172,89.7912,377.86)">
            <path d="M0,0L39,0L39,5L36,5L35,11L32,15L-10,15L-6,8L0,0Z" style="fill:rgb(251,185,148);fill-rule:nonzero;"/>
        </g>
        <g transform="matrix(1.06761,0,0,1.15172,228.581,334.095)">
            <path d="M0,0L35,0L31,16L30,17L-6,17L-3,6L0,0Z" style="fill:rgb(10,156,209);fill-rule:nonzero;"/>
        </g>
        <g transform="matrix(1.06761,0,0,1.15172,371.642,355.978)">
            <path d="M0,0L31,0L33,19L0,19L0,0Z" style="fill:rgb(15,146,198);fill-rule:nonzero;"/>
        </g>
        <g transform="matrix(1.06761,0,0,1.15172,153.849,423.929)">
            <path d="M0,0L1,2L3,2L-1,14L-8,28L-11,35L25,35L25,37L27,38L26,43L23,53L21,57L21,62L19,63L11,86L63,86L63,87L10,87L8,82L15,61L23,39L-13,38L-15,44L-21,58L-25,59L-22,50L-17,39L-52,38L-50,34L-15,34L-7,16L-40,16L-40,15L-6,14L0,0Z" style="fill:rgb(201,231,242);fill-rule:nonzero;"/>
        </g>
        <g transform="matrix(1.06761,0,0,1.15172,217.905,603.598)">
            <path d="M0,0L6,0L4,9L-1,21L-10,44L287,44L287,45L-11,45L-17,44L-16,40L-9,20L0,0Z" style="fill:rgb(204,158,174);fill-rule:nonzero;"/>
        </g>
        <g transform="matrix(1.06761,0,0,1.15172,407.94,355.978)">
            <path d="M0,0L30,0L34,16L34,19L2,19L1,18L0,0Z" style="fill:rgb(4,146,203);fill-rule:nonzero;"/>
        </g>
        <g transform="matrix(1.06761,0,0,1.15172,326.803,355.978)">
            <path d="M0,0L30,0L30,19L-2,19L-2,10L0,0Z" style="fill:rgb(19,145,200);fill-rule:nonzero;"/>
        </g>
        <g transform="matrix(1.06761,0,0,1.15172,439.97,552.922)">
            <path d="M0,0L78,0L78,23L61,23L60,22L60,17L77,17L77,1L1,1L1,18L54,18L54,23L1,23L1,44L62,44L59,46L-14,45L-14,44L0,44L0,0Z" style="fill:rgb(62,109,163);fill-rule:nonzero;"/>
        </g>
        <g transform="matrix(1.06761,0,0,1.15172,291.571,355.978)">
            <path d="M0,0L30,0L29,8L27,19L-4,19L-3,10L-1,1L0,0Z" style="fill:rgb(3,150,207);fill-rule:nonzero;"/>
        </g>
        <g transform="matrix(1.06761,0,0,1.15172,105.806,355.978)">
            <path d="M0,0L34,0L33,4L29,11L27,16L-11,16L-11,14L-9,14L-7,9L0,0Z" style="fill:rgb(252,206,137);fill-rule:nonzero;"/>
        </g>
        <g transform="matrix(1.06761,0,0,1.15172,465.592,335.247)">
            <path d="M0,0L35,0L41,16L3,16L0,4L0,0Z" style="fill:rgb(20,146,197);fill-rule:nonzero;"/>
        </g>
        <g transform="matrix(1.06761,0,0,1.15172,40.6817,457.33)">
            <path d="M0,0L49,0L47,5L43,12L6,13L2,18L0,18L0,0Z" style="fill:rgb(251,227,197);fill-rule:nonzero;"/>
        </g>
        <g transform="matrix(1.06761,0,0,1.15172,185.877,355.978)">
            <path d="M0,0L29,0L27,9L23,19L-8,19L-2,4L0,0Z" style="fill:rgb(3,147,202);fill-rule:nonzero;"/>
        </g>
        <g transform="matrix(1.06761,0,0,1.15172,635.342,456.178)">
            <path d="M0,0L45,0L45,19L43,19L43,17L39,15L36,13L6,14L0,0Z" style="fill:rgb(245,223,191);fill-rule:nonzero;"/>
        </g>
        <g transform="matrix(1.06761,0,0,1.15172,513.635,355.978)">
            <path d="M0,0L29,0L37,19L6,19L0,2L0,0Z" style="fill:rgb(6,142,199);fill-rule:nonzero;"/>
        </g>
        <g transform="matrix(1.06761,0,0,1.15172,39.614,504.55)">
            <path d="M0,0L1,0L1,39L17,39L19,43L1,43L1,59L69,59L68,63L67,65L1,65L1,86L0,86L0,0Z" style="fill:rgb(77,131,190);fill-rule:nonzero;"/>
        </g>
        <g transform="matrix(1.06761,0,0,1.15172,640.681,377.86)">
            <path d="M0,0L40,0L40,16L12,16L0,1L0,0Z" style="fill:rgb(251,189,150);fill-rule:nonzero;"/>
        </g>
        <g transform="matrix(1.06761,0,0,1.15172,460.254,313.364)">
            <path d="M0,0L32,0L36,8L38,16L4,16L2,13L0,5L0,0Z" style="fill:rgb(29,169,211);fill-rule:nonzero;"/>
        </g>
        <g transform="matrix(1.06761,0,0,1.15172,236.055,313.364)">
            <path d="M0,0L33,0L32,5L29,16L-6,16L-4,10L0,0Z" style="fill:rgb(50,175,204);fill-rule:nonzero;"/>
        </g>
        <g transform="matrix(1.06761,0,0,1.15172,153.849,355.978)">
            <path d="M0,0L27,0L25,6L19,19L-10,19L-8,13L0,0Z" style="fill:rgb(2,149,202);fill-rule:nonzero;"/>
        </g>
        <g transform="matrix(1.06761,0,0,1.15172,586.233,355.978)">
            <path d="M0,0L29,0L41,15L41,17L8,17L2,6L0,0Z" style="fill:rgb(252,206,145);fill-rule:nonzero;"/>
        </g>
        <g transform="matrix(1.06761,0,0,1.15172,596.909,377.86)">
            <path d="M0,0L34,0L42,11L44,15L8,15L5,12L0,2L0,0Z" style="fill:rgb(251,185,149);fill-rule:nonzero;"/>
        </g>
        <g transform="matrix(1.06761,0,0,1.15172,607.585,398.591)">
            <path d="M0,0L38,0L48,12L48,13L6,13L0,3L0,0Z" style="fill:rgb(247,153,153);fill-rule:nonzero;"/>
        </g>
        <g transform="matrix(1.06761,0,0,1.15172,547.798,355.978)">
            <path d="M0,0L26,0L36,17L36,19L8,19L2,7L0,0Z" style="fill:rgb(17,137,190);fill-rule:nonzero;"/>
        </g>
        <g transform="matrix(1.06761,0,0,1.15172,11.8557,664.639)">
            <path d="M0,0L176,0L179,1L176,11L167,35L162,48L155,48L156,42L162,26L167,12L171,1L0,1L0,0Z" style="fill:rgb(204,212,202);fill-rule:nonzero;"/>
        </g>
        <g transform="matrix(1.06761,0,0,1.15172,673.777,469.999)">
            <path d="M0,0L7,5L7,7L9,7L9,17L-21,17L-29,3L-29,1L0,0Z" style="fill:rgb(145,151,180);fill-rule:nonzero;"/>
        </g>
        <g transform="matrix(1.06761,0,0,1.15172,40.6817,377.86)">
            <path d="M0,0L39,0L29,15L0,15L0,0Z" style="fill:rgb(251,191,144);fill-rule:nonzero;"/>
        </g>
        <g transform="matrix(1.06761,0,0,1.15172,470.93,496.487)">
            <path d="M0,0L22,0L26,17L26,23L4,23L1,4L0,0Z" style="fill:rgb(15,65,132);fill-rule:nonzero;"/>
        </g>
        <g transform="matrix(1.06761,0,0,1.15172,237.122,496.487)">
            <path d="M0,0L21,0L20,9L17,23L-5,23L-3,11L0,0Z" style="fill:rgb(19,58,126);fill-rule:nonzero;"/>
        </g>
        <g transform="matrix(1.06761,0,0,1.15172,195.485,334.095)">
            <path d="M0,0L27,0L25,9L22,17L-7,17L-6,12L0,0Z" style="fill:rgb(28,161,201);fill-rule:nonzero;"/>
        </g>
        <g transform="matrix(1.06761,0,0,1.15172,209.365,647.363)">
            <path d="M0,0L96,0L94,4L90,5L-2,5L0,0Z" style="fill:rgb(17,41,95);fill-rule:nonzero;"/>
        </g>
        <g transform="matrix(1.06761,0,0,1.15172,465.592,467.695)">
            <path d="M0,0L21,0L25,19L25,23L5,23L1,7L0,0Z" style="fill:rgb(4,87,160);fill-rule:nonzero;"/>
        </g>
        <g transform="matrix(1.06761,0,0,1.15172,405.806,335.247)">
            <path d="M0,0L29,0L31,16L1,16L0,0Z" style="fill:rgb(25,154,198);fill-rule:nonzero;"/>
        </g>
        <g transform="matrix(1.06761,0,0,1.15172,371.642,335.247)">
            <path d="M0,0L28,0L29,1L30,16L0,16L0,0Z" style="fill:rgb(18,157,209);fill-rule:nonzero;"/>
        </g>
        <g transform="matrix(1.06761,0,0,1.15172,242.461,467.695)">
            <path d="M0,0L21,0L20,9L17,22L-4,22L-3,13L0,0Z" style="fill:rgb(19,86,159);fill-rule:nonzero;"/>
        </g>
        <g transform="matrix(1.06761,0,0,1.15172,328.937,335.247)">
            <path d="M0,0L28,0L28,16L-2,16L0,0Z" style="fill:rgb(29,159,197);fill-rule:nonzero;"/>
        </g>
        <g transform="matrix(1.06761,0,0,1.15172,506.162,335.247)">
            <path d="M0,0L28,0L35,16L6,16L2,8L0,3L0,0Z" style="fill:rgb(32,150,195);fill-rule:nonzero;"/>
        </g>
        <g transform="matrix(1.06761,0,0,1.15172,539.258,337.55)">
            <path d="M0,0L2,2L6,12L6,14L32,14L34,16L8,16L15,32L15,34L12,34L5,18L5,16L-24,16L-18,32L-18,35L12,35L12,36L-13,38L-23,38L-24,37L-59,36L-59,35L-21,35L-27,18L-27,16L-64,16L-66,14L-28,14L-27,12L-25,13L3,13L-1,5L0,0Z" style="fill:rgb(218,247,251);fill-rule:nonzero;"/>
        </g>
        <g transform="matrix(1.06761,0,0,1.15172,164.525,334.095)">
            <path d="M0,0L25,0L22,9L18,17L-9,17L-7,11L-2,2L0,0Z" style="fill:rgb(27,161,196);fill-rule:nonzero;"/>
        </g>
        <g transform="matrix(1.06761,0,0,1.15172,302.247,532.19)">
            <path d="M0,0L58,0L58,3L-185,3L-185,2L-84,1L-61,1L0,0Z" style="fill:rgb(247,191,196);fill-rule:nonzero;"/>
        </g>
        <g transform="matrix(1.06761,0,0,1.15172,294.773,335.247)">
            <path d="M0,0L29,0L28,9L27,15L-2,15L-2,6L0,0Z" style="fill:rgb(22,159,199);fill-rule:nonzero;"/>
        </g>
        <g transform="matrix(1.06761,0,0,1.15172,497.621,313.364)">
            <path d="M0,0L27,0L34,14L34,16L6,16L0,2L0,0Z" style="fill:rgb(41,175,207);fill-rule:nonzero;"/>
        </g>
        <g transform="matrix(1.06761,0,0,1.15172,204.026,313.364)">
            <path d="M0,0L27,0L25,6L21,16L-7,16L-5,10L0,0Z" style="fill:rgb(52,179,205);fill-rule:nonzero;"/>
        </g>
        <g transform="matrix(1.06761,0,0,1.15172,230.717,316.819)">
            <path d="M0,0L1,2L3,2L2,7L-1,13L32,13L32,15L-2,16L-8,32L29,31L28,40L26,41L27,34L-9,34L-12,43L-15,53L23,53L23,54L-16,54L-19,53L-13,33L-9,24L-6,15L-33,15L-32,13L-4,13L-1,3L0,0Z" style="fill:rgb(210,247,247);fill-rule:nonzero;"/>
        </g>
        <g transform="matrix(1.06761,0,0,1.15172,539.258,335.247)">
            <path d="M0,0L25,0L32,13L33,16L6,16L0,2L0,0Z" style="fill:rgb(34,152,194);fill-rule:nonzero;"/>
        </g>
        <g transform="matrix(1.06761,0,0,1.15172,242.461,293.785)">
            <path d="M0,0L31,0L30,6L28,13L-4,13L-3,7L0,0Z" style="fill:rgb(63,202,213);fill-rule:nonzero;"/>
        </g>
        <g transform="matrix(1.06761,0,0,1.15172,174.133,313.364)">
            <path d="M0,0L25,0L23,6L18,16L-8,16L0,0Z" style="fill:rgb(57,180,202);fill-rule:nonzero;"/>
        </g>
        <g transform="matrix(1.06761,0,0,1.15172,455.983,293.785)">
            <path d="M0,0L30,0L34,9L34,13L2,13L0,4L0,0Z" style="fill:rgb(61,199,215);fill-rule:nonzero;"/>
        </g>
        <g transform="matrix(1.06761,0,0,1.15172,450.646,390.529)">
            <path d="M0,0L18,0L23,18L23,21L5,21L2,12L0,0Z" style="fill:rgb(22,138,194);fill-rule:nonzero;"/>
        </g>
        <g transform="matrix(1.06761,0,0,1.15172,399.4,293.785)">
            <path d="M0,0L27,0L29,9L29,14L1,14L0,0Z" style="fill:rgb(79,203,218);fill-rule:nonzero;"/>
        </g>
        <g transform="matrix(1.06761,0,0,1.15172,302.247,293.785)">
            <path d="M0,0L27,0L27,8L26,14L-2,14L-2,9L-1,8L0,0Z" style="fill:rgb(70,205,215);fill-rule:nonzero;"/>
        </g>
        <g transform="matrix(1.06761,0,0,1.15172,529.649,313.364)">
            <path d="M0,0L24,0L31,13L31,16L7,16L0,2L0,0Z" style="fill:rgb(51,173,206);fill-rule:nonzero;"/>
        </g>
        <g transform="matrix(1.06761,0,0,1.15172,315.059,420.475)">
            <path d="M0,0L4,0L3,19L1,19L0,34L-1,38L41,38L37,41L-2,41L-3,54L-5,64L-46,64L-46,66L-48,66L-49,70L-50,67L-52,68L-52,64L-73,64L-72,62L-51,63L-51,59L-48,58L-47,63L-7,63L-6,46L-4,30L0,0Z" style="fill:rgb(194,224,229);fill-rule:nonzero;"/>
        </g>
        <g transform="matrix(1.06761,0,0,1.15172,451.714,274.205)">
            <path d="M0,0L28,0L33,13L2,13L0,7L0,0Z" style="fill:rgb(73,219,228);fill-rule:nonzero;"/>
        </g>
        <g transform="matrix(1.06761,0,0,1.15172,261.677,390.529)">
            <path d="M0,0L17,0L16,9L14,20L13,21L-5,21L-3,8L0,0Z" style="fill:rgb(19,136,190);fill-rule:nonzero;"/>
        </g>
        <g transform="matrix(1.06761,0,0,1.15172,588.368,-121.986)">
            <path d="M0,0L106,0L116,1L129,3L138,7L147,14L148,18L140,11L128,5L125,4L-36,3L-35,1L-8,1L0,0Z" style="fill:rgb(59,167,193);fill-rule:nonzero;"/>
        </g>
        <g transform="matrix(1.06761,0,0,1.15172,626.802,602.446)">
            <path d="M0,0L53,0L53,1L2,2L15,25L23,38L23,41L25,41L26,45L18,45L16,39L14,39L7,25L4,20L-2,9L-5,3L-5,1L0,0Z" style="fill:rgb(225,137,163);fill-rule:nonzero;"/>
        </g>
        <g transform="matrix(1.06761,0,0,1.15172,402.603,314.515)">
            <path d="M0,0L27,0L30,10L30,14L2,14L0,0Z" style="fill:rgb(31,178,213);fill-rule:nonzero;"/>
        </g>
        <g transform="matrix(1.06761,0,0,1.15172,248.866,442.357)">
            <path d="M0,0L20,0L18,11L16,19L-4,19L-3,11L0,0Z" style="fill:rgb(15,113,175);fill-rule:nonzero;"/>
        </g>
        <g transform="matrix(1.06761,0,0,1.15172,255.272,417.019)">
            <path d="M0,0L19,0L15,20L-4,20L-3,10L-1,1L0,0Z" style="fill:rgb(24,136,194);fill-rule:nonzero;"/>
        </g>
        <g transform="matrix(1.06761,0,0,1.15172,461.322,442.357)">
            <path d="M0,0L19,0L22,9L23,19L3,19L0,5L0,0Z" style="fill:rgb(27,104,158);fill-rule:nonzero;"/>
        </g>
        <g transform="matrix(1.06761,0,0,1.15172,457.051,417.019)">
            <path d="M0,0L18,0L22,17L22,20L3,20L2,19L0,7L0,0Z" style="fill:rgb(5,130,200);fill-rule:nonzero;"/>
        </g>
        <g transform="matrix(1.06761,0,0,1.15172,397.264,274.205)">
            <path d="M0,0L25,0L29,14L1,14L0,9L0,0Z" style="fill:rgb(82,220,228);fill-rule:nonzero;"/>
        </g>
        <g transform="matrix(1.06761,0,0,1.15172,306.517,274.205)">
            <path d="M0,0L25,0L25,14L-3,14L0,0Z" style="fill:rgb(86,222,226);fill-rule:nonzero;"/>
        </g>
        <g transform="matrix(1.06761,0,0,1.15172,367.372,572.501)">
            <rect x="0" y="0" width="61" height="6" style="fill:rgb(61,124,183);"/>
        </g>
        <g transform="matrix(1.06761,0,0,1.15172,296.909,572.501)">
            <rect x="0" y="0" width="61" height="6" style="fill:rgb(62,133,196);"/>
        </g>
        <g transform="matrix(1.06761,0,0,1.15172,365.236,512.611)">
            <path d="M0,0L1,0L1,16L77,16L77,17L2,17L2,20L-1,20L-1,17L-255,18L-255,16L-1,15L0,0Z" style="fill:rgb(227,166,163);fill-rule:nonzero;"/>
        </g>
        <g transform="matrix(1.06761,0,0,1.15172,332.14,314.515)">
            <path d="M0,0L25,0L25,14L-1,14L-1,4L0,0Z" style="fill:rgb(41,181,207);fill-rule:nonzero;"/>
        </g>
        <g transform="matrix(1.06761,0,0,1.15172,492.282,293.785)">
            <path d="M0,0L25,0L29,9L30,14L4,14L0,4L0,0Z" style="fill:rgb(63,203,224);fill-rule:nonzero;"/>
        </g>
        <g transform="matrix(1.06761,0,0,1.15172,495.486,554.074)">
            <path d="M0,0L25,0L25,16L8,16L7,19L2,6L0,0Z" style="fill:rgb(199,151,183);fill-rule:nonzero;"/>
        </g>
        <g transform="matrix(1.06761,0,0,1.15172,760.254,676.156)">
            <path d="M0,0L12,3L21,7L32,14L41,24L42,30L45,31L48,44L47,58L44,67L37,79L30,87L21,93L11,98L0,101L-1,98L16,93L28,84L35,77L44,59L44,41L42,32L35,21L25,13L13,8L13,6L0,4L0,0Z" style="fill:rgb(191,184,185);fill-rule:nonzero;"/>
        </g>
        <g transform="matrix(1.06761,0,0,1.15172,372.71,314.515)">
            <path d="M0,0L24,0L24,10L26,10L26,14L0,14L0,0Z" style="fill:rgb(36,178,215);fill-rule:nonzero;"/>
        </g>
        <g transform="matrix(1.06761,0,0,1.15172,245.664,273.054)">
            <path d="M0,0L1,2L-3,12L-4,15L-30,15L-28,10L-25,4L-23,4L-23,1L0,0Z" style="fill:rgb(64,225,224);fill-rule:nonzero;"/>
        </g>
        <g transform="matrix(1.06761,0,0,1.15172,588.368,460.784)">
            <path d="M0,0L3,0L3,3L38,2L39,6L5,6L6,13L4,13L2,9L2,6L-35,6L-28,24L-28,26L-32,26L-38,8L-38,6L-87,7L-87,5L-37,4L-36,3L-1,3L0,0Z" style="fill:rgb(199,228,239);fill-rule:nonzero;"/>
        </g>
        <g transform="matrix(1.06761,0,0,1.15172,-20.1726,445.812)">
            <path d="M0,0L1,0L1,188L0,210L6,208L2,213L1,217L-2,218L-3,216L-1,216L-1,8L0,0Z" style="fill:rgb(164,201,197);fill-rule:nonzero;"/>
        </g>
        <g transform="matrix(1.06761,0,0,1.15172,364.168,535.646)">
            <path d="M0,0L235,1L235,2L94,3L1,3L-42,2L-42,1L0,0Z" style="fill:rgb(43,25,59);fill-rule:nonzero;"/>
        </g>
        <g transform="matrix(1.06761,0,0,1.15172,529.649,665.791)">
            <path d="M0,0L7,0L21,41L22,47L15,47L9,31L4,15L0,2L0,0Z" style="fill:rgb(233,216,197);fill-rule:nonzero;"/>
        </g>
        <g transform="matrix(1.06761,0,0,1.15172,269.151,355.978)">
            <path d="M0,0L17,0L14,19L-5,19L-1,1L0,0Z" style="fill:rgb(20,150,200);fill-rule:nonzero;"/>
        </g>
        <g transform="matrix(1.06761,0,0,1.15172,371.642,293.785)">
            <path d="M0,0L23,0L24,14L0,14L0,0Z" style="fill:rgb(78,206,216);fill-rule:nonzero;"/>
        </g>
        <g transform="matrix(1.06761,0,0,1.15172,334.276,293.785)">
            <path d="M0,0L23,0L23,14L-1,14L0,0Z" style="fill:rgb(75,203,215);fill-rule:nonzero;"/>
        </g>
        <g transform="matrix(1.06761,0,0,1.15172,98.333,602.446)">
            <path d="M0,0L7,1L5,6L-9,31L-16,45L-24,45L-22,40L-15,26L-5,9L0,0Z" style="fill:rgb(227,141,161);fill-rule:nonzero;"/>
        </g>
        <g transform="matrix(1.06761,0,0,1.15172,212.568,293.785)">
            <path d="M0,0L24,0L24,5L20,13L-5,13L-4,8L0,0Z" style="fill:rgb(63,202,214);fill-rule:nonzero;"/>
        </g>
        <g transform="matrix(1.06761,0,0,1.15172,612.922,573.653)">
            <path d="M0,0L66,0L66,5L2,5L0,0Z" style="fill:rgb(57,123,186);fill-rule:nonzero;"/>
        </g>
        <g transform="matrix(1.06761,0,0,1.15172,444.24,357.13)">
            <path d="M0,0L17,0L21,16L21,18L4,18L1,11L0,0Z" style="fill:rgb(16,141,192);fill-rule:nonzero;"/>
        </g>
        <g transform="matrix(1.06761,0,0,1.15172,194.418,274.205)">
            <path d="M0,0L21,0L20,5L16,14L-8,14L-6,9L0,0Z" style="fill:rgb(92,222,218);fill-rule:nonzero;"/>
        </g>
        <g transform="matrix(1.06761,0,0,1.15172,522.175,293.785)">
            <path d="M0,0L22,0L28,12L28,14L5,14L0,2L0,0Z" style="fill:rgb(74,197,212);fill-rule:nonzero;"/>
        </g>
        <g transform="matrix(1.06761,0,0,1.15172,512.567,274.205)">
            <path d="M0,0L23,0L29,12L29,14L7,14L0,0Z" style="fill:rgb(107,216,215);fill-rule:nonzero;"/>
        </g>
        <g transform="matrix(1.06761,0,0,1.15172,484.81,274.205)">
            <path d="M0,0L23,0L29,11L29,13L5,13L0,3L0,0Z" style="fill:rgb(95,216,221);fill-rule:nonzero;"/>
        </g>
        <g transform="matrix(1.06761,0,0,1.15172,183.742,293.785)">
            <path d="M0,0L23,0L20,10L18,13L-6,13L-4,7L0,0Z" style="fill:rgb(68,203,215);fill-rule:nonzero;"/>
        </g>
        <g transform="matrix(1.06761,0,0,1.15172,371.642,313.364)">
            <path d="M0,0L26,0L27,7L28,0L57,0L56,4L56,1L29,1L31,7L31,15L59,15L60,13L60,16L31,16L31,18L60,18L60,19L32,19L33,32L31,32L30,35L28,20L0,19L0,18L27,18L27,16L0,16L0,0ZM1,1L1,15L27,15L27,11L25,11L25,1L1,1Z" style="fill:rgb(153,207,212);fill-rule:nonzero;"/>
        </g>
        <g transform="matrix(1.06761,0,0,1.15172,371.642,274.205)">
            <path d="M0,0L21,0L22,5L22,14L0,14L0,0Z" style="fill:rgb(101,222,221);fill-rule:nonzero;"/>
        </g>
        <g transform="matrix(1.06761,0,0,1.15172,413.279,417.019)">
            <path d="M0,0L2,0L4,12L4,20L38,20L38,22L5,22L7,39L5,42L-39,42L-39,41L4,41L2,27L2,22L-38,22L-38,20L1,20L-1,1L0,0Z" style="fill:rgb(206,241,248);fill-rule:nonzero;"/>
        </g>
        <g transform="matrix(1.06761,0,0,1.15172,507.229,603.598)">
            <path d="M0,0L6,0L10,8L14,20L19,31L23,42L23,44L16,44L12,34L7,21L0,3L0,0Z" style="fill:rgb(229,143,164);fill-rule:nonzero;"/>
        </g>
        <g transform="matrix(1.06761,0,0,1.15172,168.795,390.529)">
            <path d="M0,0L2,1L-1,10L-5,19L27,20L30,10L33,2L36,3L33,14L30,21L72,21L72,23L29,24L25,33L23,33L25,21L-41,21L-41,20L-9,19L0,0Z" style="fill:rgb(196,232,237);fill-rule:nonzero;"/>
        </g>
        <g transform="matrix(1.06761,0,0,1.15172,336.411,274.205)">
            <path d="M0,0L21,0L21,14L-1,14L0,0Z" style="fill:rgb(102,217,216);fill-rule:nonzero;"/>
        </g>
        <g transform="matrix(1.06761,0,0,1.15172,-50.0659,679.61)">
            <path d="M0,0L8,0L8,2L12,1L12,3L-3,3L-3,5L-17,12L-27,22L-31,30L-33,42L-33,52L-30,63L-26,70L-22,76L-14,83L-5,89L8,94L8,96L-3,93L-9,90L-19,83L-24,78L-33,64L-35,56L-36,44L-34,30L-31,24L-24,14L-19,10L-17,10L-17,8L-4,2L0,0Z" style="fill:rgb(197,179,176);fill-rule:nonzero;"/>
        </g>
        <g transform="matrix(1.06761,0,0,1.15172,538.19,552.922)">
            <path d="M0,0L39,0L39,43L38,43L38,23L0,23L0,18L38,18L38,1L0,1L0,0Z" style="fill:rgb(78,111,164);fill-rule:nonzero;"/>
        </g>
        <g transform="matrix(1.06761,0,0,1.15172,431.428,292.633)">
            <path d="M0,0L15,0L15,1L1,1L2,6L2,15L12,15L11,17L5,18L4,28L2,26L1,18L-28,18L-28,26L-30,25L-30,18L-38,18L-38,17L-33,16L-33,1L-30,1L-29,5L-29,15L-1,15L-3,5L-2,1L-1,3L0,0Z" style="fill:rgb(231,250,243);fill-rule:nonzero;"/>
        </g>
        <g transform="matrix(1.06761,0,0,1.15172,40.6817,398.591)">
            <path d="M0,0L25,0L21,7L15,14L0,13L0,0Z" style="fill:rgb(250,165,146);fill-rule:nonzero;"/>
        </g>
        <g transform="matrix(1.06761,0,0,1.15172,561.678,390.529)">
            <path d="M0,0L30,0L39,18L39,21L9,21L1,5L0,0ZM5,2L3,4L8,17L9,18L28,18L29,17L30,5L28,2L5,2Z" style="fill:rgb(46,144,181);fill-rule:nonzero;"/>
        </g>
        <g transform="matrix(1.06761,0,0,1.15172,360.966,603.598)">
            <path d="M0,0L7,0L7,38L1,38L0,37L0,0Z" style="fill:rgb(211,126,159);fill-rule:nonzero;"/>
        </g>
        <g transform="matrix(1.06761,0,0,1.15172,656.696,398.591)">
            <path d="M0,0L25,0L25,13L9,13L2,4L0,0Z" style="fill:rgb(248,162,147);fill-rule:nonzero;"/>
        </g>
        <g transform="matrix(1.06761,0,0,1.15172,439.97,335.247)">
            <path d="M0,0L16,0L20,13L20,16L3,16L2,15L0,0Z" style="fill:rgb(23,157,199);fill-rule:nonzero;"/>
        </g>
        <g transform="matrix(1.06761,0,0,1.15172,273.421,335.247)">
            <path d="M0,0L16,0L14,16L-3,16L-2,8L0,0Z" style="fill:rgb(28,157,199);fill-rule:nonzero;"/>
        </g>
        <g transform="matrix(1.06761,0,0,1.15172,278.76,313.364)">
            <path d="M0,0L16,0L14,11L12,16L-4,16L-1,2L0,0Z" style="fill:rgb(53,180,204);fill-rule:nonzero;"/>
        </g>
        <g transform="matrix(1.06761,0,0,1.15172,312.923,467.695)">
            <path d="M0,0L43,0L43,23L-3,23L-1,5L0,0ZM1,2L-1,21L37,21L41,20L41,2L1,2Z" style="fill:rgb(49,102,137);fill-rule:nonzero;"/>
        </g>
        <g transform="matrix(1.06761,0,0,1.15172,183.742,292.633)">
            <path d="M0,0L24,0L25,7L22,14L47,13L50,6L51,1L28,1L28,0L52,0L54,2L53,8L51,14L83,14L83,15L27,15L26,18L19,18L18,21L16,21L15,16L-7,15L-6,13L18,14L21,5L23,1L0,1L0,0Z" style="fill:rgb(216,243,237);fill-rule:nonzero;"/>
        </g>
        <g transform="matrix(1.06761,0,0,1.15172,435.699,313.364)">
            <path d="M0,0L15,0L19,12L19,16L2,16L0,5L0,0Z" style="fill:rgb(49,172,204);fill-rule:nonzero;"/>
        </g>
        <g transform="matrix(1.06761,0,0,1.15172,13.9911,648.515)">
            <path d="M0,0L1,2L0,5L-5,8L-4,13L-2,14L169,15L167,22L163,35L161,36L162,30L165,20L167,16L156,17L-4,16L-7,13L-7,7L-3,3L-1,3L0,0Z" style="fill:rgb(36,119,168);fill-rule:nonzero;"/>
        </g>
        <g transform="matrix(1.06761,0,0,1.15172,332.14,313.364)">
            <path d="M0,0L26,0L26,16L-2,16L-2,18L25,18L25,19L-3,19L-3,27L-5,24L-7,35L-38,35L-37,31L-37,34L-8,34L-7,23L-6,19L-35,19L-35,18L-7,17L-34,16L-33,13L-33,15L-5,15L-3,10L-1,12L-1,15L25,15L25,1L0,1L0,0Z" style="fill:rgb(147,206,212);fill-rule:nonzero;"/>
        </g>
        <g transform="matrix(1.06761,0,0,1.15172,234.988,554.074)">
            <path d="M0,0L5,0L4,7L0,17L-5,30L-9,43L-16,43L-8,19L-4,10L0,0Z" style="fill:rgb(252,245,226);fill-rule:nonzero;"/>
        </g>
        <g transform="matrix(1.06761,0,0,1.15172,491.215,442.357)">
            <path d="M0,0L45,0L48,10L46,10L44,5L44,2L2,2L6,16L48,17L48,11L50,13L51,19L4,19L2,13L0,5L0,0Z" style="fill:rgb(36,113,158);fill-rule:nonzero;"/>
        </g>
        <g transform="matrix(1.06761,0,0,1.15172,208.297,573.653)">
            <path d="M0,0L18,0L16,6L-52,6L-52,25L9,25L9,26L-53,26L-53,5L0,5L0,0Z" style="fill:rgb(113,124,167);fill-rule:nonzero;"/>
        </g>
        <g transform="matrix(1.06761,0,0,1.15172,362.033,554.074)">
            <path d="M0,0L5,0L5,43L-1,43L-1,22L0,0Z" style="fill:rgb(252,243,234);fill-rule:nonzero;"/>
        </g>
        <g transform="matrix(1.06761,0,0,1.15172,491.215,554.074)">
            <path d="M0,0L4,0L7,6L12,19L20,40L20,43L14,43L7,23L0,4L0,0Z" style="fill:rgb(252,243,226);fill-rule:nonzero;"/>
        </g>
        <g transform="matrix(1.06761,0,0,1.15172,484.81,417.019)">
            <path d="M0,0L43,0L47,10L50,20L5,20L0,4L0,0ZM2,2L4,12L6,18L47,18L44,5L42,2L2,2Z" style="fill:rgb(48,125,159);fill-rule:nonzero;"/>
        </g>
        <g transform="matrix(1.06761,0,0,1.15172,711.144,651.97)">
            <path d="M0,0L5,1L8,4L8,10L3,13L-159,14L-158,21L-156,27L-157,31L-160,23L-163,12L1,11L6,8L5,4L-1,2L0,0Z" style="fill:rgb(30,116,164);fill-rule:nonzero;"/>
        </g>
        <g transform="matrix(1.06761,0,0,1.15172,199.756,417.019)">
            <path d="M0,0L43,0L41,11L38,20L-7,20L-4,9L-2,4L-1,4L-1,10L-4,17L37,18L41,2L2,3L-1,3L0,0Z" style="fill:rgb(43,127,164);fill-rule:nonzero;"/>
        </g>
        <g transform="matrix(1.06761,0,0,1.15172,269.151,467.695)">
            <path d="M0,0L38,0L37,15L36,22L-4,22L-4,15L0,0ZM1,2L-1,15L-2,20L34,20L36,9L36,2L1,2Z" style="fill:rgb(24,93,141);fill-rule:nonzero;"/>
        </g>
        <g transform="matrix(1.06761,0,0,1.15172,39.614,504.55)">
            <path d="M0,0L1,0L1,39L17,39L19,43L1,43L1,64L67,64L67,65L1,65L1,86L0,86L0,0Z" style="fill:rgb(96,114,156);fill-rule:nonzero;"/>
        </g>
        <g transform="matrix(1.06761,0,0,1.15172,496.553,467.695)">
            <path d="M0,0L47,0L47,1L2,1L7,19L9,20L50,20L51,16L49,7L52,11L55,20L55,23L5,23L0,3L0,0Z" style="fill:rgb(40,94,139);fill-rule:nonzero;"/>
        </g>
        <g transform="matrix(1.06761,0,0,1.15172,309.72,496.487)">
            <path d="M0,0L46,0L46,23L-2,23L-2,14L0,0ZM1,2L-1,22L42,22L44,15L44,2L1,2Z" style="fill:rgb(40,63,104);fill-rule:nonzero;"/>
        </g>
        <g transform="matrix(1.06761,0,0,1.15172,371.642,417.019)">
            <path d="M0,0L38,0L40,12L40,20L1,20L0,19L0,0ZM2,2L2,18L38,18L38,9L36,2L2,2Z" style="fill:rgb(50,128,169);fill-rule:nonzero;"/>
        </g>
        <g transform="matrix(1.06761,0,0,1.15172,425.023,496.487)">
            <path d="M0,0L40,0L44,18L44,24L3,24L3,23L43,23L42,22L4,22L4,21L41,21L39,7L39,2L2,2L2,8L0,7L0,0Z" style="fill:rgb(58,88,130);fill-rule:nonzero;"/>
        </g>
        <g transform="matrix(1.06761,0,0,1.15172,279.828,-121.986)">
            <path d="M0,0L101,1L104,3L-23,3L-31,2L-31,1L-11,1L0,0Z" style="fill:rgb(89,147,179);fill-rule:nonzero;"/>
        </g>
        <g transform="matrix(1.06761,0,0,1.15172,358.831,357.13)">
            <path d="M0,0L2,1L2,18L-1,21L-66,21L-66,19L-35,19L-34,12L-33,12L-33,18L0,18L0,0Z" style="fill:rgb(239,248,242);fill-rule:nonzero;"/>
        </g>
        <g transform="matrix(1.06761,0,0,1.15172,371.642,442.357)">
            <path d="M0,0L41,0L43,11L43,19L0,19L0,0ZM2,2L2,18L39,18L39,2L2,2Z" style="fill:rgb(50,121,164);fill-rule:nonzero;"/>
        </g>
        <g transform="matrix(1.06761,0,0,1.15172,321.464,390.529)">
            <path d="M0,0L35,0L35,21L-1,21L-1,8L0,0ZM2,2L1,5L1,19L33,19L33,2L2,2Z" style="fill:rgb(58,142,182);fill-rule:nonzero;"/>
        </g>
        <g transform="matrix(1.06761,0,0,1.15172,319.329,417.019)">
            <path d="M0,0L37,0L37,20L-2,20L-1,7L0,0ZM1,2L0,9L0,18L35,18L35,2L1,2Z" style="fill:rgb(44,127,164);fill-rule:nonzero;"/>
        </g>
        <g transform="matrix(1.06761,0,0,1.15172,233.92,573.653)">
            <rect x="0" y="0" width="51" height="4" style="fill:rgb(53,120,191);"/>
        </g>
        <g transform="matrix(1.06761,0,0,1.15172,183.742,467.695)">
            <path d="M0,0L47,0L42,21L41,23L-8,23L-8,21L39,21L41,9L43,1L0,1L0,0Z" style="fill:rgb(37,91,134);fill-rule:nonzero;"/>
        </g>
        <g transform="matrix(1.06761,0,0,1.15172,269.151,461.936)">
            <path d="M0,0L1,2L39,2L38,6L0,5L-2,16L-4,23L-7,23L-6,14L-4,5L-24,5L-24,4L0,3L0,0Z" style="fill:rgb(214,238,244);fill-rule:nonzero;"/>
        </g>
        <g transform="matrix(1.06761,0,0,1.15172,628.937,441.205)">
            <path d="M0,0L51,0L51,4L2,4L1,6L0,0Z" style="fill:rgb(216,161,179);fill-rule:nonzero;"/>
        </g>
        <g transform="matrix(1.06761,0,0,1.15172,288.368,274.205)">
            <path d="M0,0L13,0L13,9L11,14L-3,14L-2,5L0,0Z" style="fill:rgb(108,217,213);fill-rule:nonzero;"/>
        </g>
        <g transform="matrix(1.06761,0,0,1.15172,363.101,347.915)">
            <path d="M0,0L1,0L1,30L-103,30L-101,28L-5,28L-3,26L-3,5L0,0Z" style="fill:rgb(253,241,216);fill-rule:nonzero;"/>
        </g>
        <g transform="matrix(1.06761,0,0,1.15172,441.038,552.922)">
            <path d="M0,0L77,0L77,23L60,23L59,22L59,17L76,17L76,1L0,1L0,0Z" style="fill:rgb(105,118,167);fill-rule:nonzero;"/>
        </g>
        <g transform="matrix(1.06761,0,0,1.15172,221.108,355.978)">
            <path d="M0,0L36,0L35,8L32,19L-6,19L-5,12L0,0ZM2,2L-1,5L-4,17L31,17L34,6L34,2L2,2Z" style="fill:rgb(33,132,167);fill-rule:nonzero;"/>
        </g>
        <g transform="matrix(1.06761,0,0,1.15172,119.685,573.653)">
            <path d="M0,0L1,0L1,26L-13,26L-9,16L0,0Z" style="fill:rgb(237,174,160);fill-rule:nonzero;"/>
        </g>
        <g transform="matrix(1.06761,0,0,1.15172,432.496,293.785)">
            <path d="M0,0L14,0L17,10L17,13L2,13L1,12L0,0Z" style="fill:rgb(66,198,207);fill-rule:nonzero;"/>
        </g>
        <g transform="matrix(1.06761,0,0,1.15172,594.774,473.453)">
            <path d="M0,0L3,4L8,16L8,18L10,18L15,31L15,33L13,33L12,35L6,21L-33,21L-33,18L5,18L-1,5L0,0Z" style="fill:rgb(231,243,245);fill-rule:nonzero;"/>
        </g>
        <g transform="matrix(1.06761,0,0,1.15172,119.685,562.136)">
            <path d="M0,0L1,0L1,10L-8,26L-13,36L-19,36L-17,30L-7,12L-2,4L0,0Z" style="fill:rgb(251,240,228);fill-rule:nonzero;"/>
        </g>
        <g transform="matrix(1.06761,0,0,1.15172,265.948,494.185)">
            <path d="M0,0L85,0L85,2L41,2L41,8L38,8L38,2L0,2L0,0Z" style="fill:rgb(241,250,252);fill-rule:nonzero;"/>
        </g>
        <g transform="matrix(1.06761,0,0,1.15172,161.322,417.019)">
            <path d="M0,0L33,0L30,9L26,20L-9,20L-9,18L25,18L26,13L30,2L1,2L-1,6L-6,17L-7,14L0,0Z" style="fill:rgb(42,128,167);fill-rule:nonzero;"/>
        </g>
        <g transform="matrix(1.06761,0,0,1.15172,284.097,293.785)">
            <path d="M0,0L14,0L13,8L11,13L-3,13L-1,2L0,0Z" style="fill:rgb(69,201,204);fill-rule:nonzero;"/>
        </g>
        <g transform="matrix(1.06761,0,0,1.15172,428.226,274.205)">
            <path d="M0,0L14,0L16,7L16,13L2,13L0,7L0,0Z" style="fill:rgb(88,211,215);fill-rule:nonzero;"/>
        </g>
        <g transform="matrix(1.06761,0,0,1.15172,418.618,442.357)">
            <path d="M0,0L36,0L38,7L40,19L2,19L0,7L0,0ZM1,2L3,17L4,18L36,18L34,2L1,2Z" style="fill:rgb(45,114,150);fill-rule:nonzero;"/>
        </g>
        <g transform="matrix(1.06761,0,0,1.15172,432.496,319.123)">
            <path d="M0,0L2,3L4,0L5,3L5,11L22,11L23,7L23,14L7,14L8,20L7,24L7,30L5,26L3,14L-26,13L-26,11L3,11L0,4L0,0Z" style="fill:rgb(207,242,243);fill-rule:nonzero;"/>
        </g>
        <g transform="matrix(1.06761,0,0,1.15172,421.82,467.695)">
            <path d="M0,0L38,0L42,20L42,23L3,23L2,22L0,0ZM2,1L3,17L4,21L40,21L38,7L37,1L2,1Z" style="fill:rgb(44,96,135);fill-rule:nonzero;"/>
        </g>
        <g transform="matrix(1.06761,0,0,1.15172,278.76,417.019)">
            <path d="M0,0L35,0L34,9L33,9L33,2L1,2L-1,18L33,17L33,20L-4,20L-1,2L0,0Z" style="fill:rgb(47,127,164);fill-rule:nonzero;"/>
        </g>
        <g transform="matrix(1.06761,0,0,1.15172,236.055,307.606)">
            <path d="M0,0L1,2L34,2L32,5L0,5L-2,10L-4,10L-3,5L-23,5L-22,2L-1,1L0,0Z" style="fill:rgb(236,253,245);fill-rule:nonzero;"/>
        </g>
        <g transform="matrix(1.06761,0,0,1.15172,528.582,313.364)">
            <path d="M0,0L4,5L8,14L8,16L32,16L33,14L34,19L10,19L10,23L8,23L7,19L-22,20L-22,18L5,18L1,8L-2,1L0,0Z" style="fill:rgb(189,231,236);fill-rule:nonzero;"/>
        </g>
        <g transform="matrix(1.06761,0,0,1.15172,411.144,390.529)">
            <path d="M0,0L34,0L37,14L38,21L4,21L2,16L0,0ZM6,1L3,4L3,14L4,19L35,19L35,12L34,10L33,1L6,1Z" style="fill:rgb(54,136,173);fill-rule:nonzero;"/>
        </g>
        <g transform="matrix(1.06761,0,0,1.15172,228.581,334.095)">
            <path d="M0,0L35,0L31,16L30,17L-6,17L-3,6L0,0ZM2,2L0,3L-3,10L-3,15L30,16L32,8L32,2L2,2Z" style="fill:rgb(69,164,189);fill-rule:nonzero;"/>
        </g>
        <g transform="matrix(1.06761,0,0,1.15172,151.713,552.922)">
            <path d="M0,0L1,0L1,18L39,18L39,22L0,22L0,0Z" style="fill:rgb(70,123,185);fill-rule:nonzero;"/>
        </g>
        <g transform="matrix(1.06761,0,0,1.15172,153.849,355.978)">
            <path d="M0,0L27,0L25,6L19,19L-10,19L-8,13L0,0ZM0,2L-5,12L-6,17L18,17L18,14L20,14L23,7L24,2L0,2Z" style="fill:rgb(37,132,163);fill-rule:nonzero;"/>
        </g>
        <g transform="matrix(1.06761,0,0,1.15172,39.614,436.598)">
            <path d="M0,0L1,4L8,5L56,4L55,9L0,8L0,0Z" style="fill:rgb(219,149,170);fill-rule:nonzero;"/>
        </g>
        <g transform="matrix(1.06761,0,0,1.15172,287.3,355.978)">
            <path d="M0,0L1,3L3,3L2,10L0,19L31,19L32,8L33,4L35,4L36,1L37,4L35,19L33,16L32,20L1,20L1,22L-20,21L-20,20L-4,19L-1,2L0,0Z" style="fill:rgb(215,241,243);fill-rule:nonzero;"/>
        </g>
        <g transform="matrix(1.06761,0,0,1.15172,478.403,390.529)">
            <path d="M0,0L41,0L42,4L40,4L40,1L2,1L5,12L5,18L46,19L44,15L45,12L48,18L48,21L5,21L0,3L0,0Z" style="fill:rgb(50,136,171);fill-rule:nonzero;"/>
        </g>
        <g transform="matrix(1.06761,0,0,1.15172,411.144,403.198)">
            <path d="M0,0L2,3L4,9L38,10L38,12L1,13L-36,12L-36,10L1,10L0,0Z" style="fill:rgb(228,248,250);fill-rule:nonzero;"/>
        </g>
        <g transform="matrix(1.06761,0,0,1.15172,185.877,355.978)">
            <path d="M0,0L29,0L27,9L23,19L-8,19L-4,8L-3,12L-5,17L22,16L26,2L2,3L0,6L-2,6L0,0Z" style="fill:rgb(38,136,171);fill-rule:nonzero;"/>
        </g>
        <g transform="matrix(1.06761,0,0,1.15172,291.571,355.978)">
            <path d="M0,0L30,0L29,8L28,15L27,15L27,6L28,2L1,2L-1,11L-2,17L27,17L27,19L-4,19L-3,10L-1,1L0,0Z" style="fill:rgb(51,143,174);fill-rule:nonzero;"/>
        </g>
        <g transform="matrix(1.06761,0,0,1.15172,372.71,467.695)">
            <path d="M0,0L43,0L42,2L1,1L1,21L44,21L45,17L46,23L0,23L0,0Z" style="fill:rgb(41,91,138);fill-rule:nonzero;"/>
        </g>
        <g transform="matrix(1.06761,0,0,1.15172,533.919,417.019)">
            <path d="M0,0L33,0L33,2L3,2L8,15L8,18L39,18L40,16L41,20L7,20L0,2L0,0Z" style="fill:rgb(51,129,167);fill-rule:nonzero;"/>
        </g>
        <g transform="matrix(1.06761,0,0,1.15172,123.955,413.563)">
            <path d="M0,0L35,0L67,1L67,3L35,4L31,11L29,11L30,5L31,3L-1,3L0,0Z" style="fill:rgb(221,252,252);fill-rule:nonzero;"/>
        </g>
        <g transform="matrix(1.06761,0,0,1.15172,302.247,532.19)">
            <path d="M0,0L58,0L58,3L28,3L9,2L-21,2L-21,1L0,0Z" style="fill:rgb(251,181,190);fill-rule:nonzero;"/>
        </g>
        <g transform="matrix(1.06761,0,0,1.15172,465.592,467.695)">
            <path d="M0,0L21,0L25,19L25,23L5,23L1,7L0,0ZM2,1L4,13L6,20L22,20L21,11L19,1L2,1Z" style="fill:rgb(41,92,134);fill-rule:nonzero;"/>
        </g>
        <g transform="matrix(1.06761,0,0,1.15172,407.94,355.978)">
            <path d="M0,0L30,0L29,4L29,2L2,2L3,17L32,17L32,12L34,16L34,19L2,19L1,18L0,0Z" style="fill:rgb(43,138,171);fill-rule:nonzero;"/>
        </g>
        <g transform="matrix(1.06761,0,0,1.15172,548.866,465.391)">
            <path d="M0,0L36,0L36,1L2,1L9,20L9,22L5,22L-1,4L-1,2L-50,3L-50,1L0,0Z" style="fill:rgb(212,236,242);fill-rule:nonzero;"/>
        </g>
        <g transform="matrix(1.06761,0,0,1.15172,496.553,309.909)">
            <path d="M0,0L52,0L52,3L28,4L1,3L0,0Z" style="fill:rgb(240,254,251);fill-rule:nonzero;"/>
        </g>
        <g transform="matrix(1.06761,0,0,1.15172,700.468,-121.986)">
            <path d="M0,0L11,1L24,3L33,7L42,14L49,26L43,18L35,11L23,5L20,4L-39,3L-39,1L0,0Z" style="fill:rgb(82,155,187);fill-rule:nonzero;"/>
        </g>
        <g transform="matrix(1.06761,0,0,1.15172,513.635,358.282)">
            <path d="M0,0L2,3L6,14L6,17L36,17L36,18L11,20L1,20L0,19L-35,18L-35,17L3,17L-2,4L-2,2L0,2L0,0Z" style="fill:rgb(208,243,248);fill-rule:nonzero;"/>
        </g>
        <g transform="matrix(1.06761,0,0,1.15172,249.934,274.205)">
            <path d="M0,0L28,0L27,3L27,1L1,1L-2,12L24,12L25,6L26,6L25,18L-6,17L-6,16L24,16L24,14L-5,14L-4,8L0,0Z" style="fill:rgb(152,216,210);fill-rule:nonzero;"/>
        </g>
        <g transform="matrix(1.06761,0,0,1.15172,263.813,496.487)">
            <path d="M0,0L40,0L38,14L37,14L37,2L1,2L1,12L-2,21L9,21L9,22L-4,23L-4,16L0,0Z" style="fill:rgb(34,65,114);fill-rule:nonzero;"/>
        </g>
        <g transform="matrix(1.06761,0,0,1.15172,139.97,467.695)">
            <path d="M0,0L37,0L35,2L1,1L-1,10L-6,19L-5,20L29,21L29,23L-9,23L-8,18L0,0Z" style="fill:rgb(46,106,147);fill-rule:nonzero;"/>
        </g>
        <g transform="matrix(1.06761,0,0,1.15172,497.621,313.364)">
            <path d="M0,0L27,0L28,4L26,3L3,2L7,13L25,14L25,12L30,12L31,8L34,14L34,16L6,16L0,2L0,0Z" style="fill:rgb(86,176,193);fill-rule:nonzero;"/>
        </g>
        <g transform="matrix(1.06761,0,0,1.15172,364.168,535.646)">
            <path d="M0,0L94,2L94,3L1,3L-42,2L-42,1L0,0Z" style="fill:rgb(34,28,64);fill-rule:nonzero;"/>
        </g>
        <g transform="matrix(1.06761,0,0,1.15172,54.5598,529.888)">
            <path d="M0,0L36,1L37,3L42,4L42,5L0,5L0,0Z" style="fill:rgb(236,176,179);fill-rule:nonzero;"/>
        </g>
        <g transform="matrix(1.06761,0,0,1.15172,509.365,351.37)">
            <path d="M0,0L3,1L31,2L31,4L4,4L4,8L2,8L1,4L-36,4L-38,2L0,2L0,0Z" style="fill:rgb(227,252,253);fill-rule:nonzero;"/>
        </g>
        <g transform="matrix(1.06761,0,0,1.15172,513.635,355.978)">
            <path d="M0,0L29,0L37,19L7,19L7,17L34,17L28,3L2,2L3,8L1,5L0,0Z" style="fill:rgb(44,136,166);fill-rule:nonzero;"/>
        </g>
        <g transform="matrix(1.06761,0,0,1.15172,37.4785,-47.1246)">
            <path d="M0,0L130,0L130,1L1,2L-6,7L-6,4L0,0Z" style="fill:rgb(6,43,89);fill-rule:nonzero;"/>
        </g>
        <g transform="matrix(1.06761,0,0,1.15172,173.066,490.729)">
            <path d="M0,0L1,3L3,4L1,5L-7,28L45,28L45,29L-8,29L-10,24L-3,3L0,0Z" style="fill:rgb(197,207,218);fill-rule:nonzero;"/>
        </g>
        <g transform="matrix(1.06761,0,0,1.15172,245.664,273.054)">
            <path d="M0,0L1,2L-3,12L-4,15L-30,15L-28,10L-25,4L-23,4L-23,1L0,0ZM-22,3L-27,13L-6,13L-3,6L-3,3L-22,3Z" style="fill:rgb(130,216,208);fill-rule:nonzero;"/>
        </g>
        <g transform="matrix(1.06761,0,0,1.15172,-88.5,730.286)">
            <path d="M0,0L2,0L5,17L8,23L14,32L22,39L31,45L44,50L44,52L33,49L27,46L17,39L12,34L3,20L1,12L0,0Z" style="fill:rgb(215,187,182);fill-rule:nonzero;"/>
        </g>
        <g transform="matrix(1.06761,0,0,1.15172,502.959,496.487)">
            <path d="M0,0L50,0L54,9L54,15L52,11L49,3L3,2L4,13L2,10L0,0Z" style="fill:rgb(30,69,119);fill-rule:nonzero;"/>
        </g>
        <g transform="matrix(1.06761,0,0,1.15172,65.2371,412.412)">
            <path d="M0,0L46,1L44,5L-2,4L0,0Z" style="fill:rgb(254,219,214);fill-rule:nonzero;"/>
        </g>
        <g transform="matrix(1.06761,0,0,1.15172,610.788,572.501)">
            <path d="M0,0L4,4L11,18L15,25L15,27L9,27L1,12L0,11L0,0Z" style="fill:rgb(252,242,239);fill-rule:nonzero;"/>
        </g>
        <g transform="matrix(1.06761,0,0,1.15172,612.922,573.653)">
            <path d="M0,0L66,0L66,1L3,1L4,3L66,4L66,5L2,5L0,0Z" style="fill:rgb(83,115,161);fill-rule:nonzero;"/>
        </g>
        <g transform="matrix(1.06761,0,0,1.15172,397.264,274.205)">
            <path d="M0,0L25,0L29,14L1,14L0,9L0,0ZM2,2L2,12L26,12L26,7L24,2L2,2Z" style="fill:rgb(142,215,208);fill-rule:nonzero;"/>
        </g>
        <g transform="matrix(1.06761,0,0,1.15172,460.254,313.364)">
            <path d="M0,0L32,0L35,6L35,8L33,8L31,3L3,2L5,14L38,14L38,16L4,16L2,13L0,5L0,0Z" style="fill:rgb(93,177,188);fill-rule:nonzero;"/>
        </g>
        <g transform="matrix(1.06761,0,0,1.15172,492.282,293.785)">
            <path d="M0,0L25,0L26,4L23,2L2,1L5,10L27,11L26,6L29,9L30,14L4,14L0,4L0,0Z" style="fill:rgb(113,202,202);fill-rule:nonzero;"/>
        </g>
        <g transform="matrix(1.06761,0,0,1.15172,626.802,602.446)">
            <path d="M0,0L53,0L53,1L2,2L5,7L4,13L0,13L-5,3L-5,1L0,0Z" style="fill:rgb(192,147,180);fill-rule:nonzero;"/>
        </g>
        <g transform="matrix(1.06761,0,0,1.15172,153.849,423.929)">
            <path d="M0,0L1,2L3,2L-1,14L-9,29L-11,29L-10,23L-7,16L-40,16L-40,15L-6,14L0,0Z" style="fill:rgb(203,238,245);fill-rule:nonzero;"/>
        </g>
        <g transform="matrix(1.06761,0,0,1.15172,334.276,284.571)">
            <path d="M0,0L1,0L1,5L24,5L24,7L1,8L-2,9L-2,7L-29,8L-32,9L-31,5L-1,5L0,0Z" style="fill:rgb(246,254,243);fill-rule:nonzero;"/>
        </g>
        <g transform="matrix(1.06761,0,0,1.15172,555.272,490.729)">
            <path d="M0,0L4,1L5,11L3,11L1,6L-48,5L-47,3L0,3L0,0Z" style="fill:rgb(242,252,252);fill-rule:nonzero;"/>
        </g>
        <g transform="matrix(1.06761,0,0,1.15172,296.909,572.501)">
            <path d="M0,0L1,4L58,3L60,1L60,6L0,6L0,0Z" style="fill:rgb(59,98,156);fill-rule:nonzero;"/>
        </g>
        <g transform="matrix(1.06761,0,0,1.15172,637.478,374.405)">
            <path d="M0,0L43,0L43,3L2,4L2,1L0,0Z" style="fill:rgb(254,242,215);fill-rule:nonzero;"/>
        </g>
        <g transform="matrix(1.06761,0,0,1.15172,451.714,274.205)">
            <path d="M0,0L28,0L33,13L2,13L0,7L0,0ZM3,2L3,11L4,12L31,12L27,2L3,2Z" style="fill:rgb(119,211,205);fill-rule:nonzero;"/>
        </g>
        <g transform="matrix(1.06761,0,0,1.15172,306.517,274.205)">
            <path d="M0,0L25,0L25,14L-3,14L-2,9L-1,12L23,12L24,2L0,2L0,0Z" style="fill:rgb(137,218,210);fill-rule:nonzero;"/>
        </g>
        <g transform="matrix(1.06761,0,0,1.15172,276.624,410.108)">
            <path d="M0,0L3,0L2,4L36,4L36,6L-1,7L-20,6L-19,4L-1,3L0,0Z" style="fill:rgb(233,254,252);fill-rule:nonzero;"/>
        </g>
        <g transform="matrix(1.06761,0,0,1.15172,40.6817,374.405)">
            <path d="M0,0L42,0L39,4L0,3L0,0Z" style="fill:rgb(254,239,212);fill-rule:nonzero;"/>
        </g>
        <g transform="matrix(1.06761,0,0,1.15172,371.642,335.247)">
            <path d="M0,0L28,0L27,2L2,1L2,14L28,14L28,8L30,12L30,16L0,16L0,0Z" style="fill:rgb(50,149,185);fill-rule:nonzero;"/>
        </g>
        <g transform="matrix(1.06761,0,0,1.15172,213.636,292.633)">
            <path d="M0,0L24,0L26,2L25,8L23,14L55,14L55,15L-7,15L-6,13L19,13L22,6L23,1L0,1L0,0Z" style="fill:rgb(181,233,229);fill-rule:nonzero;"/>
        </g>
        <g transform="matrix(1.06761,0,0,1.15172,457.051,417.019)">
            <path d="M0,0L18,0L22,17L22,20L3,20L2,19L0,7L0,0ZM2,2L2,10L4,18L20,18L18,4L17,2L2,2Z" style="fill:rgb(59,128,162);fill-rule:nonzero;"/>
        </g>
    </g>
</svg>
