<?xml version="1.0" encoding="UTF-8" standalone="no"?><!DOCTYPE svg PUBLIC "-//W3C//DTD SVG 1.1//EN" "http://www.w3.org/Graphics/SVG/1.1/DTD/svg11.dtd"><svg width="100%" height="100%" viewBox="0 0 100 100" version="1.1" xmlns="http://www.w3.org/2000/svg" xmlns:xlink="http://www.w3.org/1999/xlink" xml:space="preserve" xmlns:serif="http://www.serif.com/" style="fill-rule:evenodd;clip-rule:evenodd;stroke-linejoin:round;stroke-miterlimit:2;"><g><path d="M56.039,68.704c-0,0.392 0.323,0.715 0.715,0.715c-0,-0 7.243,-0 7.243,-0c0.392,-0 0.715,-0.323 0.715,-0.715c-0,-0.039 -0.004,-0.079 -0.01,-0.118l-2.144,-12.865c-0.058,-0.343 -0.357,-0.597 -0.705,-0.597c-0.393,-0 -0.715,0.323 -0.715,0.715c-0,0.039 0.003,0.078 0.009,0.117l2.006,12.033l-6.399,0c-0.392,0 -0.715,0.323 -0.715,0.715Z" style="fill-rule:nonzero;"/><path d="M82.606,15.976c-6.312,-10.064 -19.382,-13.743 -30.017,-8.45l-11.817,5.884c-3.186,-1.383 -6.697,-1.847 -10.133,-1.342c-6.744,1.049 -12.427,5.648 -14.858,12.025c-1.251,3.365 -1.505,7.02 -0.733,10.525c0.772,3.505 4.441,18.685 5.393,25.01c0.782,5.203 4.693,9.418 9.963,9.767l0,25.039c0,0.392 0.323,0.715 0.715,0.715c0.392,-0 0.715,-0.323 0.715,-0.715l-0,-25.73c-0,-0.392 -0.323,-0.715 -0.715,-0.715c-5.097,-0 -9.29,-4.195 -9.29,-9.291c-0,-3.203 1.656,-6.188 4.373,-7.883c0.018,-0.011 0.036,-0.023 0.054,-0.035c1.462,-0.898 3.146,-1.373 4.862,-1.373c3.324,-0 6.404,1.782 8.06,4.664c0.127,0.221 0.364,0.358 0.619,0.358c0.182,0 0.356,-0.069 0.489,-0.193c0.827,-0.764 1.467,-1.71 1.867,-2.764c0.485,-1.242 1.361,-2.292 2.495,-2.993c1.223,-0.768 2.64,-1.171 4.084,-1.161l2.918,-0c3.436,-0 6.498,-1.872 7.758,-4.698l1.256,-0.222c0.693,-0.122 1.376,-0.292 2.046,-0.509c2.534,0.733 5.126,1.248 7.748,1.537l-0,5.293c-2.195,0.138 -4.314,0.854 -6.143,2.075c-0.2,0.132 -0.321,0.357 -0.321,0.597c-0,0.392 0.322,0.714 0.714,0.714c0.143,0 0.282,-0.042 0.4,-0.122c1.594,-1.065 3.438,-1.696 5.35,-1.833l-0,2.172c-1.674,0.187 -3.26,0.846 -4.574,1.898l-1.321,1.062c-0.169,0.135 -0.267,0.34 -0.267,0.557c0,0.216 0.098,0.421 0.267,0.557l1.321,1.061c1.314,1.053 2.9,1.712 4.574,1.899l-0,10.763c-0,0.005 -0,0.011 -0,0.016c-0,10.591 -8.715,19.305 -19.305,19.305c-3.951,0 -7.808,-1.213 -11.048,-3.474c-0.12,-0.084 -0.263,-0.128 -0.409,-0.128c-0.392,-0 -0.715,0.322 -0.715,0.714c0,0.234 0.115,0.453 0.306,0.587c2.872,2.01 6.212,3.252 9.7,3.607l0,3.688c0,0.392 0.323,0.715 0.715,0.715c0.392,-0 0.715,-0.323 0.715,-0.715l-0,-3.587c0.243,0.008 0.486,0.013 0.729,0.013c11.373,-0.012 20.729,-9.367 20.741,-20.741l0,-10.72c1.849,-0.095 3.623,-0.766 5.073,-1.916l1.362,-1.085c0.17,-0.136 0.269,-0.342 0.269,-0.559c0,-0.218 -0.099,-0.424 -0.269,-0.559l-1.362,-1.085c-1.45,-1.151 -3.224,-1.821 -5.073,-1.917l0,-2.138c1.972,0.11 3.879,0.746 5.522,1.843c0.119,0.082 0.26,0.125 0.404,0.125c0.392,0 0.714,-0.322 0.714,-0.714c0,-0.242 -0.122,-0.469 -0.326,-0.6c-1.877,-1.254 -4.059,-1.974 -6.314,-2.085l0,-5.15c1.198,0.095 2.399,0.142 3.604,0.143l9.948,0c0.392,0 0.714,-0.322 0.714,-0.714l0,-14.679c0.002,-4.363 -1.227,-8.638 -3.547,-12.333Zm-13.13,18.225c-1.488,3.511 -4.875,6.048 -9.061,6.789l-1.642,0.289c-0.248,0.044 -0.456,0.216 -0.545,0.452c-0.937,2.486 -3.58,4.156 -6.578,4.156l-2.918,0c-1.716,-0.009 -3.4,0.472 -4.852,1.387c-1.395,0.865 -2.471,2.162 -3.064,3.693c-0.217,0.574 -0.525,1.109 -0.912,1.586c-3.046,-4.354 -8.892,-5.821 -13.633,-3.42c-3.23,-2.859 -5.271,-6.641 -5.748,-10.65c-0.614,-5.15 1.041,-10.232 4.66,-14.308c4.317,-4.859 10.805,-7.646 17.802,-7.646l12.517,-0c8.231,-0 14.927,5.869 14.927,13.084c-0.005,1.578 -0.329,3.139 -0.953,4.589l0,-0.001Zm-0.245,23.443c-0.892,-0.277 -1.723,-0.719 -2.451,-1.302l-0.628,-0.503l0.628,-0.504c0.728,-0.584 1.559,-1.026 2.451,-1.303c-0.858,1.047 -0.858,2.567 -0,3.614l-0,-0.002Zm4.431,-3.607c0.874,0.273 1.69,0.705 2.408,1.275l0.659,0.527l-0.66,0.525c-0.717,0.57 -1.533,1.002 -2.407,1.276c0.852,-1.045 0.852,-2.558 -0,-3.602l0,-0.001Z" style="fill-rule:nonzero;"/><path d="M48.987,73.707c0.004,3.527 2.906,6.429 6.433,6.433l4.288,-0c3.528,-0.004 6.429,-2.906 6.433,-6.433c-0,-0.392 -0.323,-0.715 -0.715,-0.715l-15.724,0c-0.392,0 -0.715,0.323 -0.715,0.715Z" style="fill-rule:nonzero;"/><path d="M59.024,55.28l-1.362,-1.085c-3.232,-2.573 -7.855,-2.563 -11.076,0.025l-1.32,1.062c-0.169,0.135 -0.267,0.34 -0.267,0.557c-0,0.216 0.098,0.421 0.267,0.557l1.32,1.061c3.221,2.588 7.844,2.599 11.076,0.025l1.362,-1.084c0.17,-0.136 0.269,-0.342 0.269,-0.559c0,-0.218 -0.099,-0.424 -0.269,-0.559Zm-9.091,2.366c-0.891,-0.277 -1.723,-0.719 -2.451,-1.303l-0.628,-0.504l0.628,-0.504c0.728,-0.584 1.56,-1.026 2.451,-1.303c-0.858,1.047 -0.858,2.567 -0,3.614Zm6.839,-1.282c-0.718,0.57 -1.534,1.002 -2.408,1.276c0.852,-1.045 0.852,-2.558 -0,-3.602c0.874,0.273 1.69,0.706 2.408,1.275l0.659,0.526l-0.659,0.525Z" style="fill-rule:nonzero;"/><path d="M58.904,50.794c-4.196,-2.798 -9.691,-2.798 -13.887,-0c-0.197,0.133 -0.315,0.355 -0.315,0.592c0,0.392 0.323,0.715 0.715,0.715c0.14,0 0.277,-0.041 0.393,-0.118c3.717,-2.478 8.584,-2.478 12.301,0c0.119,0.082 0.26,0.125 0.405,0.125c0.392,0 0.714,-0.322 0.714,-0.714c0,-0.242 -0.123,-0.469 -0.326,-0.6Z" style="fill-rule:nonzero;"/><path d="M48.273,17.958c-4.311,0.005 -7.858,3.551 -7.862,7.862c-0.002,2.005 0.592,3.967 1.706,5.634c0.797,1.195 1.383,2.519 1.731,3.913l0.136,0.547l0,2.18c-0.003,1.379 0.506,2.711 1.43,3.734l-0,0.431c-0,1.568 1.29,2.859 2.859,2.859c1.568,-0 2.859,-1.291 2.859,-2.859l-0,-0.431c0.923,-1.024 1.433,-2.356 1.429,-3.735l0,-2.18l0.137,-0.546c0.348,-1.394 0.933,-2.718 1.731,-3.913c1.114,-1.668 1.708,-3.629 1.706,-5.634c-0.005,-4.311 -3.551,-7.857 -7.862,-7.862Zm-0,25.73c-0.784,-0.001 -1.429,-0.645 -1.43,-1.429l2.859,-0c-0.001,0.784 -0.645,1.428 -1.429,1.429Zm2.144,-4.288l-4.289,-0c-0.392,-0 -0.714,-0.323 -0.714,-0.715c-0,-0.392 0.322,-0.715 0.714,-0.715l4.289,0c0.392,0 0.715,0.323 0.715,0.715c-0,0.392 -0.323,0.715 -0.715,0.715Zm-2.859,-4.288l-0,-2.859l1.429,-0l0,2.859l-1.429,-0Zm5.682,-4.451c-0.889,1.332 -1.542,2.806 -1.93,4.36l-0.022,0.091l-0.871,-0l-0,-3.503l0.953,-4.763c0.018,-0.092 0.027,-0.186 0.027,-0.28c0,-0.784 -0.645,-1.429 -1.429,-1.429c-0.379,-0 -0.743,0.151 -1.011,0.418l-0.684,0.685l-0.684,-0.685c-0.268,-0.267 -0.632,-0.418 -1.011,-0.418c-0.784,-0 -1.429,0.645 -1.429,1.429c-0,0.094 0.009,0.188 0.027,0.28l0.952,4.763l0,3.503l-0.871,-0l-0.023,-0.091c-0.387,-1.554 -1.04,-3.029 -1.928,-4.36c-0.957,-1.433 -1.467,-3.118 -1.466,-4.841c0,-3.529 2.904,-6.433 6.433,-6.433c3.528,0 6.432,2.904 6.432,6.433c0.002,1.723 -0.508,3.408 -1.465,4.841Z" style="fill-rule:nonzero;"/><path d="M38.981,25.82c0,-0.392 -0.322,-0.715 -0.715,-0.715l-2.858,0c-0.393,0 -0.715,0.323 -0.715,0.715c-0,0.392 0.322,0.715 0.715,0.715l2.858,-0c0.393,-0 0.715,-0.323 0.715,-0.715Z" style="fill-rule:nonzero;"/><path d="M39.378,20.937l-2.145,-1.429c-0.118,-0.08 -0.257,-0.123 -0.399,-0.123c-0.392,0 -0.715,0.323 -0.715,0.715c0,0.24 0.121,0.465 0.321,0.597l2.145,1.429c0.116,0.077 0.253,0.118 0.393,0.118c0.392,0 0.715,-0.322 0.715,-0.714c-0,-0.238 -0.119,-0.46 -0.315,-0.593Z" style="fill-rule:nonzero;"/><path d="M38.585,29.514l-2.145,1.429c-0.2,0.132 -0.321,0.357 -0.321,0.597c0,0.392 0.323,0.715 0.715,0.715c0.142,-0 0.281,-0.043 0.399,-0.122l2.145,-1.43c0.196,-0.133 0.315,-0.355 0.315,-0.592c-0,-0.393 -0.323,-0.715 -0.715,-0.715c-0.14,-0 -0.277,0.041 -0.393,0.118Z" style="fill-rule:nonzero;"/><path d="M61.138,25.105l-2.859,0c-0.392,0 -0.715,0.323 -0.715,0.715c0,0.392 0.323,0.715 0.715,0.715l2.859,-0c0.392,-0 0.715,-0.323 0.715,-0.715c-0,-0.392 -0.323,-0.715 -0.715,-0.715Z" style="fill-rule:nonzero;"/><path d="M57.564,22.246c0.141,0 0.279,-0.041 0.396,-0.12l2.144,-1.429c0.197,-0.133 0.315,-0.355 0.315,-0.593c0,-0.392 -0.322,-0.714 -0.715,-0.714c-0.139,-0 -0.276,0.041 -0.393,0.118l-2.144,1.429c-0.199,0.132 -0.318,0.356 -0.318,0.595c-0,0.392 0.322,0.714 0.714,0.714c0.001,0 0.001,0 0.001,0Z" style="fill-rule:nonzero;"/><path d="M60.105,30.943l-2.144,-1.429c-0.118,-0.08 -0.258,-0.122 -0.4,-0.122c-0.392,-0 -0.715,0.322 -0.715,0.714c0,0.24 0.121,0.465 0.322,0.597l2.144,1.43c0.117,0.076 0.253,0.118 0.393,0.118c0.392,-0 0.715,-0.323 0.715,-0.715c-0,-0.238 -0.118,-0.46 -0.315,-0.593Z" style="fill-rule:nonzero;"/></g></svg>