<?xml version="1.0" encoding="UTF-8" standalone="no"?>
<svg
   version="1.1"
   x="0px"
   y="0px"
   viewBox="0 0 100 125"
   enable-background="new 0 0 100 100"
   xml:space="preserve"
   id="svg656"
   sodipodi:docname="sunnovaUS.svg"
   inkscape:version="1.1.1 (c3084ef, 2021-09-22)"
   xmlns:inkscape="http://www.inkscape.org/namespaces/inkscape"
   xmlns:sodipodi="http://sodipodi.sourceforge.net/DTD/sodipodi-0.dtd"
   xmlns="http://www.w3.org/2000/svg"
   xmlns:svg="http://www.w3.org/2000/svg"><defs
     id="defs660" /><sodipodi:namedview
     id="namedview658"
     pagecolor="#ffffff"
     bordercolor="#666666"
     borderopacity="1.0"
     inkscape:pageshadow="2"
     inkscape:pageopacity="0.0"
     inkscape:pagecheckerboard="0"
     showgrid="false"
     inkscape:zoom="5.008"
     inkscape:cx="50.019968"
     inkscape:cy="62.40016"
     inkscape:window-width="1296"
     inkscape:window-height="969"
     inkscape:window-x="995"
     inkscape:window-y="286"
     inkscape:window-maximized="0"
     inkscape:current-layer="svg656" /><g
     id="g650"><g
       id="g648"><g
         id="g38"><circle
           cx="1.388"
           cy="24.878"
           r="1.388"
           id="circle2" /><circle
           cx="4.74"
           cy="24.878"
           r="1.388"
           id="circle4" /><circle
           cx="8.093"
           cy="24.878"
           r="1.388"
           id="circle6" /><circle
           cx="11.445"
           cy="24.878"
           r="1.388"
           id="circle8" /><circle
           cx="14.798"
           cy="24.878"
           r="1.388"
           id="circle10" /><circle
           cx="18.15"
           cy="24.878"
           r="1.388"
           id="circle12" /><circle
           cx="21.503"
           cy="24.878"
           r="1.387"
           id="circle14" /><circle
           cx="24.855"
           cy="24.878"
           r="1.388"
           id="circle16" /><circle
           cx="28.208"
           cy="24.878"
           r="1.387"
           id="circle18" /><circle
           cx="31.56"
           cy="24.878"
           r="1.388"
           id="circle20" /><circle
           cx="34.913"
           cy="24.878"
           r="1.388"
           id="circle22" /><circle
           cx="38.265"
           cy="24.878"
           r="1.388"
           id="circle24" /><circle
           cx="41.618"
           cy="24.878"
           r="1.388"
           id="circle26" /><circle
           cx="44.97"
           cy="24.878"
           r="1.388"
           id="circle28" /><circle
           cx="48.323"
           cy="24.878"
           r="1.388"
           id="circle30" /><circle
           cx="51.675"
           cy="24.878"
           r="1.388"
           id="circle32" /><circle
           cx="55.027"
           cy="24.878"
           r="1.388"
           id="circle34" /><circle
           cx="58.38"
           cy="24.878"
           r="1.388"
           id="circle36" /></g><g
         id="g76"><circle
           cx="4.74"
           cy="28.226"
           r="1.388"
           id="circle40" /><circle
           cx="8.093"
           cy="28.226"
           r="1.388"
           id="circle42" /><circle
           cx="11.445"
           cy="28.226"
           r="1.388"
           id="circle44" /><circle
           cx="14.798"
           cy="28.226"
           r="1.388"
           id="circle46" /><circle
           cx="18.15"
           cy="28.226"
           r="1.388"
           id="circle48" /><circle
           cx="21.503"
           cy="28.226"
           r="1.387"
           id="circle50" /><circle
           cx="24.855"
           cy="28.226"
           r="1.388"
           id="circle52" /><circle
           cx="28.208"
           cy="28.226"
           r="1.387"
           id="circle54" /><circle
           cx="31.56"
           cy="28.226"
           r="1.388"
           id="circle56" /><circle
           cx="34.913"
           cy="28.226"
           r="1.388"
           id="circle58" /><circle
           cx="38.265"
           cy="28.226"
           r="1.388"
           id="circle60" /><circle
           cx="41.618"
           cy="28.226"
           r="1.388"
           id="circle62" /><circle
           cx="44.97"
           cy="28.226"
           r="1.388"
           id="circle64" /><circle
           cx="48.323"
           cy="28.226"
           r="1.388"
           id="circle66" /><circle
           cx="51.675"
           cy="28.226"
           r="1.388"
           id="circle68" /><circle
           cx="55.027"
           cy="28.226"
           r="1.388"
           id="circle70" /><circle
           cx="58.38"
           cy="28.226"
           r="1.388"
           id="circle72" /><circle
           cx="61.732"
           cy="28.226"
           r="1.388"
           id="circle74" /></g><g
         id="g114"><circle
           cx="4.74"
           cy="31.576"
           r="1.388"
           id="circle78" /><circle
           cx="8.093"
           cy="31.576"
           r="1.388"
           id="circle80" /><circle
           cx="11.445"
           cy="31.576"
           r="1.388"
           id="circle82" /><circle
           cx="14.798"
           cy="31.576"
           r="1.388"
           id="circle84" /><circle
           cx="18.15"
           cy="31.576"
           r="1.388"
           id="circle86" /><circle
           cx="21.503"
           cy="31.576"
           r="1.387"
           id="circle88" /><circle
           cx="24.855"
           cy="31.576"
           r="1.388"
           id="circle90" /><circle
           cx="28.208"
           cy="31.576"
           r="1.387"
           id="circle92" /><circle
           cx="31.56"
           cy="31.576"
           r="1.388"
           id="circle94" /><circle
           cx="34.913"
           cy="31.576"
           r="1.388"
           id="circle96" /><circle
           cx="38.265"
           cy="31.576"
           r="1.388"
           id="circle98" /><circle
           cx="41.618"
           cy="31.576"
           r="1.388"
           id="circle100" /><circle
           cx="44.97"
           cy="31.576"
           r="1.388"
           id="circle102" /><circle
           cx="48.323"
           cy="31.576"
           r="1.388"
           id="circle104" /><circle
           cx="51.675"
           cy="31.576"
           r="1.388"
           id="circle106" /><circle
           cx="55.027"
           cy="31.576"
           r="1.388"
           id="circle108" /><circle
           cx="58.38"
           cy="31.576"
           r="1.388"
           id="circle110" /><circle
           cx="61.732"
           cy="31.576"
           r="1.388"
           id="circle112" /></g><g
         id="g152"><circle
           cx="4.74"
           cy="34.927"
           r="1.388"
           id="circle116" /><circle
           cx="8.093"
           cy="34.927"
           r="1.388"
           id="circle118" /><circle
           cx="11.445"
           cy="34.927"
           r="1.388"
           id="circle120" /><circle
           cx="14.798"
           cy="34.927"
           r="1.388"
           id="circle122" /><circle
           cx="18.15"
           cy="34.927"
           r="1.388"
           id="circle124" /><circle
           cx="21.503"
           cy="34.927"
           r="1.387"
           id="circle126" /><circle
           cx="24.855"
           cy="34.927"
           r="1.388"
           id="circle128" /><circle
           cx="28.208"
           cy="34.927"
           r="1.387"
           id="circle130" /><circle
           cx="31.56"
           cy="34.927"
           r="1.388"
           id="circle132" /><circle
           cx="34.913"
           cy="34.927"
           r="1.388"
           id="circle134" /><circle
           cx="38.265"
           cy="34.927"
           r="1.388"
           id="circle136" /><circle
           cx="41.618"
           cy="34.927"
           r="1.388"
           id="circle138" /><circle
           cx="44.97"
           cy="34.927"
           r="1.388"
           id="circle140" /><circle
           cx="48.323"
           cy="34.927"
           r="1.388"
           id="circle142" /><circle
           cx="51.675"
           cy="34.927"
           r="1.388"
           id="circle144" /><circle
           cx="55.027"
           cy="34.927"
           r="1.388"
           id="circle146" /><circle
           cx="58.38"
           cy="34.927"
           r="1.388"
           id="circle148" /><circle
           cx="61.732"
           cy="34.927"
           r="1.388"
           id="circle150" /></g><g
         id="g190"><circle
           cx="4.74"
           cy="38.276"
           r="1.388"
           id="circle154" /><circle
           cx="8.093"
           cy="38.276"
           r="1.388"
           id="circle156" /><circle
           cx="11.445"
           cy="38.276"
           r="1.388"
           id="circle158" /><circle
           cx="14.798"
           cy="38.276"
           r="1.388"
           id="circle160" /><circle
           cx="18.15"
           cy="38.276"
           r="1.388"
           id="circle162" /><circle
           cx="21.503"
           cy="38.276"
           r="1.387"
           id="circle164" /><circle
           cx="24.855"
           cy="38.276"
           r="1.388"
           id="circle166" /><circle
           cx="28.208"
           cy="38.276"
           r="1.387"
           id="circle168" /><circle
           cx="31.56"
           cy="38.276"
           r="1.388"
           id="circle170" /><circle
           cx="34.913"
           cy="38.276"
           r="1.388"
           id="circle172" /><circle
           cx="38.265"
           cy="38.276"
           r="1.388"
           id="circle174" /><circle
           cx="41.618"
           cy="38.276"
           r="1.388"
           id="circle176" /><circle
           cx="44.97"
           cy="38.276"
           r="1.388"
           id="circle178" /><circle
           cx="48.323"
           cy="38.276"
           r="1.388"
           id="circle180" /><circle
           cx="51.675"
           cy="38.276"
           r="1.388"
           id="circle182" /><circle
           cx="55.027"
           cy="38.276"
           r="1.388"
           id="circle184" /><circle
           cx="58.38"
           cy="38.276"
           r="1.388"
           id="circle186" /><circle
           cx="61.732"
           cy="38.276"
           r="1.388"
           id="circle188" /></g><g
         id="g228"><circle
           cx="4.74"
           cy="41.625"
           r="1.388"
           id="circle192" /><circle
           cx="8.093"
           cy="41.625"
           r="1.388"
           id="circle194" /><circle
           cx="11.445"
           cy="41.625"
           r="1.388"
           id="circle196" /><circle
           cx="14.798"
           cy="41.625"
           r="1.388"
           id="circle198" /><circle
           cx="18.15"
           cy="41.625"
           r="1.388"
           id="circle200" /><circle
           cx="21.503"
           cy="41.625"
           r="1.387"
           id="circle202" /><circle
           cx="24.855"
           cy="41.625"
           r="1.388"
           id="circle204" /><circle
           cx="28.208"
           cy="41.625"
           r="1.387"
           id="circle206" /><circle
           cx="31.56"
           cy="41.625"
           r="1.388"
           id="circle208" /><circle
           cx="34.913"
           cy="41.625"
           r="1.388"
           id="circle210" /><circle
           cx="38.265"
           cy="41.625"
           r="1.388"
           id="circle212" /><circle
           cx="41.618"
           cy="41.625"
           r="1.388"
           id="circle214" /><circle
           cx="44.97"
           cy="41.625"
           r="1.388"
           id="circle216" /><circle
           cx="48.323"
           cy="41.625"
           r="1.388"
           id="circle218" /><circle
           cx="51.675"
           cy="41.625"
           r="1.388"
           id="circle220" /><circle
           cx="55.027"
           cy="41.625"
           r="1.388"
           id="circle222" /><circle
           cx="58.38"
           cy="41.625"
           r="1.388"
           id="circle224" /><circle
           cx="61.732"
           cy="41.625"
           r="1.388"
           id="circle226" /></g><g
         id="g266"><circle
           cx="4.74"
           cy="44.975"
           r="1.388"
           id="circle230" /><circle
           cx="8.093"
           cy="44.975"
           r="1.388"
           id="circle232" /><circle
           cx="11.445"
           cy="44.975"
           r="1.388"
           id="circle234" /><circle
           cx="14.798"
           cy="44.975"
           r="1.388"
           id="circle236" /><circle
           cx="18.15"
           cy="44.975"
           r="1.388"
           id="circle238" /><circle
           cx="21.503"
           cy="44.975"
           r="1.387"
           id="circle240" /><circle
           cx="24.855"
           cy="44.975"
           r="1.388"
           id="circle242" /><circle
           cx="28.208"
           cy="44.975"
           r="1.387"
           id="circle244" /><circle
           cx="31.56"
           cy="44.975"
           r="1.388"
           id="circle246" /><circle
           cx="34.913"
           cy="44.975"
           r="1.388"
           id="circle248" /><circle
           cx="38.265"
           cy="44.975"
           r="1.388"
           id="circle250" /><circle
           cx="41.618"
           cy="44.975"
           r="1.388"
           id="circle252" /><circle
           cx="44.97"
           cy="44.975"
           r="1.388"
           id="circle254" /><circle
           cx="48.323"
           cy="44.975"
           r="1.388"
           id="circle256" /><circle
           cx="51.675"
           cy="44.975"
           r="1.388"
           id="circle258" /><circle
           cx="55.027"
           cy="44.975"
           r="1.388"
           id="circle260" /><circle
           cx="58.38"
           cy="44.975"
           r="1.388"
           id="circle262" /><circle
           cx="61.732"
           cy="44.975"
           r="1.388"
           id="circle264" /></g><g
         id="g304"><circle
           cx="4.74"
           cy="48.325"
           r="1.388"
           id="circle268" /><circle
           cx="8.093"
           cy="48.325"
           r="1.388"
           id="circle270" /><circle
           cx="11.445"
           cy="48.325"
           r="1.388"
           id="circle272" /><circle
           cx="14.798"
           cy="48.325"
           r="1.388"
           id="circle274" /><circle
           cx="18.15"
           cy="48.325"
           r="1.388"
           id="circle276" /><circle
           cx="21.503"
           cy="48.325"
           r="1.387"
           id="circle278" /><circle
           cx="24.855"
           cy="48.325"
           r="1.388"
           id="circle280" /><circle
           cx="28.208"
           cy="48.325"
           r="1.387"
           id="circle282" /><circle
           cx="31.56"
           cy="48.325"
           r="1.388"
           id="circle284" /><circle
           cx="34.913"
           cy="48.325"
           r="1.388"
           id="circle286" /><circle
           cx="38.265"
           cy="48.325"
           r="1.388"
           id="circle288" /><circle
           cx="41.618"
           cy="48.325"
           r="1.388"
           id="circle290" /><circle
           cx="44.97"
           cy="48.325"
           r="1.388"
           id="circle292" /><circle
           cx="48.323"
           cy="48.325"
           r="1.388"
           id="circle294" /><circle
           cx="51.675"
           cy="48.325"
           r="1.388"
           id="circle296" /><circle
           cx="55.027"
           cy="48.325"
           r="1.388"
           id="circle298" /><circle
           cx="58.38"
           cy="48.325"
           r="1.388"
           id="circle300" /><circle
           cx="61.732"
           cy="48.325"
           r="1.388"
           id="circle302" /></g><g
         id="g314"><circle
           cx="65.087"
           cy="28.226"
           r="1.388"
           id="circle306" /><circle
           cx="68.438"
           cy="28.226"
           r="1.388"
           id="circle308" /><circle
           cx="95.258"
           cy="28.226"
           r="1.388"
           id="circle310" /><circle
           cx="98.611"
           cy="28.226"
           r="1.388"
           id="circle312" /></g><g
         id="g324"><circle
           cx="65.087"
           cy="31.576"
           r="1.388"
           id="circle316" /><circle
           cx="71.792"
           cy="31.576"
           r="1.388"
           id="circle318" /><circle
           cx="95.258"
           cy="31.576"
           r="1.388"
           id="circle320" /><circle
           cx="98.611"
           cy="31.576"
           r="1.388"
           id="circle322" /></g><g
         id="g340"><circle
           cx="68.438"
           cy="34.927"
           r="1.388"
           id="circle326" /><circle
           cx="71.792"
           cy="34.927"
           r="1.388"
           id="circle328" /><circle
           cx="85.201"
           cy="34.927"
           r="1.388"
           id="circle330" /><circle
           cx="88.555"
           cy="34.927"
           r="1.388"
           id="circle332" /><circle
           cx="91.907"
           cy="34.927"
           r="1.388"
           id="circle334" /><circle
           cx="95.258"
           cy="34.927"
           r="1.388"
           id="circle336" /><circle
           cx="98.611"
           cy="34.927"
           r="1.388"
           id="circle338" /></g><g
         id="g356"><circle
           cx="68.438"
           cy="38.276"
           r="1.388"
           id="circle342" /><circle
           cx="71.792"
           cy="38.276"
           r="1.388"
           id="circle344" /><circle
           cx="78.497"
           cy="38.276"
           r="1.388"
           id="circle346" /><circle
           cx="81.85"
           cy="38.276"
           r="1.388"
           id="circle348" /><circle
           cx="85.201"
           cy="38.276"
           r="1.388"
           id="circle350" /><circle
           cx="88.555"
           cy="38.276"
           r="1.388"
           id="circle352" /><circle
           cx="91.907"
           cy="38.276"
           r="1.388"
           id="circle354" /></g><g
         id="g376"><circle
           cx="65.087"
           cy="41.625"
           r="1.388"
           id="circle358" /><circle
           cx="68.438"
           cy="41.625"
           r="1.388"
           id="circle360" /><circle
           cx="71.792"
           cy="41.625"
           r="1.388"
           id="circle362" /><circle
           cx="75.145"
           cy="41.625"
           r="1.388"
           id="circle364" /><circle
           cx="78.497"
           cy="41.625"
           r="1.388"
           id="circle366" /><circle
           cx="81.85"
           cy="41.625"
           r="1.388"
           id="circle368" /><circle
           cx="85.201"
           cy="41.625"
           r="1.388"
           id="circle370" /><circle
           cx="88.555"
           cy="41.625"
           r="1.388"
           id="circle372" /><circle
           cx="91.907"
           cy="41.625"
           r="1.388"
           id="circle374" /></g><g
         id="g392"><circle
           cx="65.087"
           cy="44.975"
           r="1.388"
           id="circle378" /><circle
           cx="68.438"
           cy="44.975"
           r="1.388"
           id="circle380" /><circle
           cx="71.792"
           cy="44.975"
           r="1.388"
           id="circle382" /><circle
           cx="75.145"
           cy="44.975"
           r="1.388"
           id="circle384" /><circle
           cx="78.497"
           cy="44.975"
           r="1.388"
           id="circle386" /><circle
           cx="81.85"
           cy="44.975"
           r="1.388"
           id="circle388" /><circle
           cx="85.201"
           cy="44.975"
           r="1.388"
           id="circle390" /></g><g
         id="g408"><circle
           cx="65.087"
           cy="48.325"
           r="1.388"
           id="circle394" /><circle
           cx="68.438"
           cy="48.325"
           r="1.388"
           id="circle396" /><circle
           cx="71.792"
           cy="48.325"
           r="1.388"
           id="circle398" /><circle
           cx="75.145"
           cy="48.325"
           r="1.388"
           id="circle400" /><circle
           cx="78.497"
           cy="48.325"
           r="1.388"
           id="circle402" /><circle
           cx="81.85"
           cy="48.325"
           r="1.388"
           id="circle404" /><circle
           cx="85.201"
           cy="48.325"
           r="1.388"
           id="circle406" /></g><g
         id="g444"><circle
           cx="8.093"
           cy="51.675"
           r="1.388"
           id="circle410" /><circle
           cx="11.445"
           cy="51.675"
           r="1.388"
           id="circle412" /><circle
           cx="14.798"
           cy="51.675"
           r="1.388"
           id="circle414" /><circle
           cx="18.15"
           cy="51.675"
           r="1.388"
           id="circle416" /><circle
           cx="21.503"
           cy="51.675"
           r="1.387"
           id="circle418" /><circle
           cx="24.855"
           cy="51.675"
           r="1.388"
           id="circle420" /><circle
           cx="28.208"
           cy="51.675"
           r="1.387"
           id="circle422" /><circle
           cx="31.56"
           cy="51.675"
           r="1.388"
           id="circle424" /><circle
           cx="34.913"
           cy="51.675"
           r="1.388"
           id="circle426" /><circle
           cx="38.265"
           cy="51.675"
           r="1.388"
           id="circle428" /><circle
           cx="41.618"
           cy="51.675"
           r="1.388"
           id="circle430" /><circle
           cx="44.97"
           cy="51.675"
           r="1.388"
           id="circle432" /><circle
           cx="48.323"
           cy="51.675"
           r="1.388"
           id="circle434" /><circle
           cx="51.675"
           cy="51.675"
           r="1.388"
           id="circle436" /><circle
           cx="55.027"
           cy="51.675"
           r="1.388"
           id="circle438" /><circle
           cx="58.38"
           cy="51.675"
           r="1.388"
           id="circle440" /><circle
           cx="61.732"
           cy="51.675"
           r="1.388"
           id="circle442" /></g><g
         id="g480"><path
           d="M9.481,55.025c0,0.764-0.622,1.386-1.388,1.386c-0.766,0-1.388-0.622-1.388-1.386c0-0.77,0.622-1.389,1.388-1.389     C8.859,53.639,9.481,54.257,9.481,55.025z"
           id="path446" /><path
           d="M12.833,55.025c0,0.764-0.622,1.386-1.388,1.386c-0.767,0-1.388-0.622-1.388-1.386c0-0.77,0.622-1.389,1.388-1.389     C12.211,53.639,12.833,54.257,12.833,55.025z"
           id="path448" /><path
           d="M16.186,55.025c0,0.764-0.622,1.386-1.388,1.386c-0.767,0-1.388-0.622-1.388-1.386c0-0.77,0.622-1.389,1.388-1.389     C15.564,53.639,16.186,54.257,16.186,55.025z"
           id="path450" /><path
           d="M19.538,55.025c0,0.764-0.622,1.386-1.388,1.386s-1.388-0.622-1.388-1.386c0-0.77,0.622-1.389,1.388-1.389     C18.917,53.639,19.538,54.257,19.538,55.025z"
           id="path452" /><path
           d="M22.891,55.025c0,0.764-0.621,1.386-1.387,1.386s-1.388-0.622-1.388-1.386c0-0.77,0.622-1.389,1.388-1.389     C22.27,53.639,22.891,54.257,22.891,55.025z"
           id="path454" /><path
           d="M26.243,55.025c0,0.764-0.621,1.386-1.388,1.386s-1.388-0.622-1.388-1.386c0-0.77,0.622-1.389,1.388-1.389     C25.622,53.639,26.243,54.257,26.243,55.025z"
           id="path456" /><path
           d="M29.595,55.025c0,0.764-0.621,1.386-1.387,1.386c-0.767,0-1.388-0.622-1.388-1.386c0-0.77,0.622-1.389,1.388-1.389     C28.975,53.639,29.595,54.257,29.595,55.025z"
           id="path458" /><path
           d="M32.948,55.025c0,0.764-0.621,1.386-1.388,1.386c-0.765,0-1.388-0.622-1.388-1.386c0-0.77,0.623-1.389,1.388-1.389     C32.327,53.639,32.948,54.257,32.948,55.025z"
           id="path460" /><path
           d="M36.301,55.025c0,0.764-0.622,1.386-1.388,1.386c-0.768,0-1.388-0.622-1.388-1.386c0-0.77,0.621-1.389,1.388-1.389     C35.679,53.639,36.301,54.257,36.301,55.025z"
           id="path462" /><path
           d="M39.653,55.025c0,0.764-0.623,1.386-1.388,1.386c-0.767,0-1.389-0.622-1.389-1.386c0-0.77,0.623-1.389,1.389-1.389     C39.031,53.639,39.653,54.257,39.653,55.025z"
           id="path464" /><path
           d="M43.006,55.025c0,0.764-0.622,1.386-1.388,1.386c-0.766,0-1.388-0.622-1.388-1.386c0-0.77,0.622-1.389,1.388-1.389     C42.384,53.639,43.006,54.257,43.006,55.025z"
           id="path466" /><path
           d="M46.358,55.025c0,0.764-0.622,1.386-1.388,1.386c-0.766,0-1.388-0.622-1.388-1.386c0-0.77,0.622-1.389,1.388-1.389     C45.737,53.639,46.358,54.257,46.358,55.025z"
           id="path468" /><path
           d="M49.711,55.025c0,0.764-0.622,1.386-1.388,1.386c-0.767,0-1.388-0.622-1.388-1.386c0-0.77,0.622-1.389,1.388-1.389     C49.089,53.639,49.711,54.257,49.711,55.025z"
           id="path470" /><path
           d="M53.063,55.025c0,0.764-0.621,1.386-1.389,1.386c-0.766,0-1.388-0.622-1.388-1.386c0-0.77,0.622-1.389,1.388-1.389     C52.441,53.639,53.063,54.257,53.063,55.025z"
           id="path472" /><path
           d="M56.416,55.025c0,0.764-0.621,1.386-1.389,1.386s-1.389-0.622-1.389-1.386c0-0.77,0.621-1.389,1.389-1.389     C55.795,53.639,56.416,54.257,56.416,55.025z"
           id="path474" /><path
           d="M59.768,55.025c0,0.764-0.621,1.386-1.387,1.386c-0.768,0-1.389-0.622-1.389-1.386c0-0.77,0.621-1.389,1.389-1.389     C59.146,53.639,59.768,54.257,59.768,55.025z"
           id="path476" /><path
           d="M63.121,55.025c0,0.764-0.621,1.386-1.389,1.386s-1.387-0.622-1.387-1.386c0-0.77,0.619-1.389,1.387-1.389     C62.5,53.639,63.121,54.257,63.121,55.025z"
           id="path478" /></g><g
         id="g512"><circle
           cx="14.798"
           cy="58.373"
           r="1.388"
           id="circle482" /><circle
           cx="18.15"
           cy="58.373"
           r="1.388"
           id="circle484" /><circle
           cx="21.503"
           cy="58.373"
           r="1.387"
           id="circle486" /><circle
           cx="24.855"
           cy="58.373"
           r="1.388"
           id="circle488" /><circle
           cx="28.208"
           cy="58.373"
           r="1.387"
           id="circle490" /><circle
           cx="31.56"
           cy="58.373"
           r="1.388"
           id="circle492" /><circle
           cx="34.913"
           cy="58.373"
           r="1.388"
           id="circle494" /><circle
           cx="38.265"
           cy="58.373"
           r="1.388"
           id="circle496" /><circle
           cx="41.618"
           cy="58.373"
           r="1.388"
           id="circle498" /><circle
           cx="44.97"
           cy="58.373"
           r="1.388"
           id="circle500" /><circle
           cx="48.323"
           cy="58.373"
           r="1.388"
           id="circle502" /><circle
           cx="51.675"
           cy="58.373"
           r="1.388"
           id="circle504" /><circle
           cx="55.027"
           cy="58.373"
           r="1.388"
           id="circle506" /><circle
           cx="58.38"
           cy="58.373"
           r="1.388"
           id="circle508" /><circle
           cx="61.732"
           cy="58.373"
           r="1.388"
           id="circle510" /></g><g
         id="g540"><circle
           cx="21.503"
           cy="61.724"
           r="1.387"
           id="circle514" /><circle
           cx="24.855"
           cy="61.724"
           r="1.388"
           id="circle516" /><circle
           cx="28.208"
           cy="61.724"
           r="1.387"
           id="circle518" /><circle
           cx="31.56"
           cy="61.724"
           r="1.388"
           id="circle520" /><circle
           cx="34.913"
           cy="61.724"
           r="1.388"
           id="circle522" /><circle
           cx="38.265"
           cy="61.724"
           r="1.388"
           id="circle524" /><circle
           cx="41.618"
           cy="61.724"
           r="1.388"
           id="circle526" /><circle
           cx="44.97"
           cy="61.724"
           r="1.388"
           id="circle528" /><circle
           cx="48.323"
           cy="61.724"
           r="1.388"
           id="circle530" /><circle
           cx="51.675"
           cy="61.724"
           r="1.388"
           id="circle532" /><circle
           cx="55.027"
           cy="61.724"
           r="1.388"
           id="circle534" /><circle
           cx="58.38"
           cy="61.724"
           r="1.388"
           id="circle536" /><circle
           cx="61.732"
           cy="61.724"
           r="1.388"
           id="circle538" /></g><g
         id="g558"><circle
           cx="38.265"
           cy="65.074"
           r="1.388"
           id="circle542" /><circle
           cx="41.618"
           cy="65.074"
           r="1.388"
           id="circle544" /><circle
           cx="44.97"
           cy="65.074"
           r="1.388"
           id="circle546" /><circle
           cx="48.323"
           cy="65.074"
           r="1.388"
           id="circle548" /><circle
           cx="51.675"
           cy="65.074"
           r="1.388"
           id="circle550" /><circle
           cx="55.027"
           cy="65.074"
           r="1.388"
           id="circle552" /><circle
           cx="58.38"
           cy="65.074"
           r="1.388"
           id="circle554" /><circle
           cx="61.732"
           cy="65.074"
           r="1.388"
           id="circle556" /></g><g
         id="g566"><path
           d="M46.358,68.424c0,0.766-0.622,1.387-1.388,1.387c-0.766,0-1.388-0.621-1.388-1.387c0-0.769,0.622-1.39,1.388-1.39     C45.737,67.034,46.358,67.655,46.358,68.424z"
           id="path560" /><path
           d="M49.711,68.424c0,0.766-0.622,1.387-1.388,1.387c-0.767,0-1.388-0.621-1.388-1.387c0-0.769,0.622-1.39,1.388-1.39     C49.089,67.034,49.711,67.655,49.711,68.424z"
           id="path562" /><path
           d="M53.063,68.424c0,0.766-0.621,1.387-1.389,1.387c-0.766,0-1.388-0.621-1.388-1.387c0-0.769,0.622-1.39,1.388-1.39     C52.441,67.034,53.063,67.655,53.063,68.424z"
           id="path564" /></g><g
         id="g572"><circle
           cx="44.97"
           cy="71.772"
           r="1.388"
           id="circle568" /><circle
           cx="48.323"
           cy="71.772"
           r="1.388"
           id="circle570" /></g><g
         id="g588"><circle
           cx="65.087"
           cy="51.675"
           r="1.388"
           id="circle574" /><circle
           cx="68.438"
           cy="51.675"
           r="1.388"
           id="circle576" /><circle
           cx="71.792"
           cy="51.675"
           r="1.388"
           id="circle578" /><circle
           cx="75.145"
           cy="51.675"
           r="1.388"
           id="circle580" /><circle
           cx="78.497"
           cy="51.675"
           r="1.388"
           id="circle582" /><circle
           cx="81.85"
           cy="51.675"
           r="1.388"
           id="circle584" /><circle
           cx="85.201"
           cy="51.675"
           r="1.388"
           id="circle586" /></g><g
         id="g602"><path
           d="M66.475,55.025c0,0.764-0.621,1.386-1.388,1.386s-1.388-0.622-1.388-1.386c0-0.77,0.621-1.389,1.388-1.389     S66.475,54.257,66.475,55.025z"
           id="path590" /><path
           d="M69.826,55.025c0,0.764-0.622,1.386-1.389,1.386s-1.389-0.622-1.389-1.386c0-0.77,0.622-1.389,1.389-1.389     C69.204,53.639,69.826,54.257,69.826,55.025z"
           id="path592" /><path
           d="M73.18,55.025c0,0.764-0.621,1.386-1.388,1.386s-1.39-0.622-1.39-1.386c0-0.77,0.623-1.389,1.39-1.389     C72.559,53.639,73.18,54.257,73.18,55.025z"
           id="path594" /><path
           d="M76.532,55.025c0,0.764-0.622,1.386-1.388,1.386c-0.769,0-1.39-0.622-1.39-1.386c0-0.77,0.621-1.389,1.39-1.389     C75.91,53.639,76.532,54.257,76.532,55.025z"
           id="path596" /><path
           d="M79.885,55.025c0,0.764-0.621,1.386-1.389,1.386c-0.766,0-1.389-0.622-1.389-1.386c0-0.77,0.623-1.389,1.389-1.389     C79.264,53.639,79.885,54.257,79.885,55.025z"
           id="path598" /><path
           d="M83.236,55.025c0,0.764-0.621,1.386-1.389,1.386c-0.766,0-1.388-0.622-1.388-1.386c0-0.77,0.622-1.389,1.388-1.389     C82.615,53.639,83.236,54.257,83.236,55.025z"
           id="path600" /></g><g
         id="g614"><circle
           cx="65.087"
           cy="58.373"
           r="1.388"
           id="circle604" /><circle
           cx="68.438"
           cy="58.373"
           r="1.388"
           id="circle606" /><circle
           cx="71.792"
           cy="58.373"
           r="1.388"
           id="circle608" /><circle
           cx="75.145"
           cy="58.373"
           r="1.388"
           id="circle610" /><circle
           cx="78.497"
           cy="58.373"
           r="1.388"
           id="circle612" /></g><g
         id="g624"><circle
           cx="65.087"
           cy="61.724"
           r="1.388"
           id="circle616" /><circle
           cx="68.438"
           cy="61.724"
           r="1.388"
           id="circle618" /><circle
           cx="71.792"
           cy="61.724"
           r="1.388"
           id="circle620" /><circle
           cx="75.145"
           cy="61.724"
           r="1.388"
           id="circle622" /></g><g
         id="g632"><circle
           cx="68.438"
           cy="65.074"
           r="1.388"
           id="circle626" /><circle
           cx="71.792"
           cy="65.074"
           r="1.388"
           id="circle628" /><circle
           cx="75.145"
           cy="65.074"
           r="1.388"
           id="circle630" /></g><g
         id="g638"><path
           d="M73.18,68.424c0,0.766-0.621,1.387-1.388,1.387s-1.39-0.621-1.39-1.387c0-0.769,0.623-1.39,1.39-1.39     S73.18,67.655,73.18,68.424z"
           id="path634" /><path
           d="M76.532,68.424c0,0.766-0.622,1.387-1.388,1.387c-0.769,0-1.39-0.621-1.39-1.387c0-0.769,0.621-1.39,1.39-1.39     C75.91,67.034,76.532,67.655,76.532,68.424z"
           id="path636" /></g><g
         id="g642"><circle
           cx="75.145"
           cy="71.772"
           r="1.388"
           id="circle640" /></g><g
         id="g646"><circle
           cx="75.145"
           cy="75.122"
           r="1.388"
           id="circle644" /></g></g></g></svg>
