<?xml version="1.0" encoding="UTF-8" standalone="no"?><!DOCTYPE svg PUBLIC "-//W3C//DTD SVG 1.1//EN" "http://www.w3.org/Graphics/SVG/1.1/DTD/svg11.dtd"><svg width="100%" height="100%" viewBox="0 0 100 100" version="1.1" xmlns="http://www.w3.org/2000/svg" xmlns:xlink="http://www.w3.org/1999/xlink" xml:space="preserve" xmlns:serif="http://www.serif.com/" style="fill-rule:evenodd;clip-rule:evenodd;stroke-linejoin:round;stroke-miterlimit:2;"><g id="g4553"><path id="path4541" d="M79.116,83.785c-1.659,-1.504 -2.598,-3.664 -2.598,-5.901l0,-31.179c-0.012,-8.358 -8.242,-14.748 -15.852,-18.888c0.706,-0.63 1.169,-1.543 1.169,-2.572c0,-1.8 -1.388,-3.253 -3.137,-3.42c3.343,-4.127 3.819,-9.27 3.844,-9.514c0.027,-0.27 -0.064,-0.54 -0.257,-0.733c-0.193,-0.18 -0.45,-0.296 -0.719,-0.296c-0.155,0 -3.524,0.026 -7.368,1.222c-1.594,-2.636 -3.472,-4.359 -3.549,-4.436c-0.373,-0.334 -0.939,-0.334 -1.298,0c-0.091,0.077 -1.955,1.8 -3.549,4.436c-3.857,-1.196 -7.226,-1.222 -7.38,-1.222c-0.27,0 -0.527,0.116 -0.707,0.309c-0.181,0.192 -0.27,0.463 -0.257,0.733c0.025,0.244 0.489,5.387 3.844,9.515c-1.762,0.153 -3.137,1.619 -3.137,3.419c-0,1.029 0.463,1.929 1.169,2.571c-7.61,4.141 -15.84,10.544 -15.852,18.888l-0,31.167c-0,2.237 -0.952,4.384 -2.598,5.901c-1.118,1.016 -1.478,2.585 -0.938,3.999c0.539,1.414 1.877,2.314 3.381,2.314l53.346,0c1.504,0 2.842,-0.913 3.381,-2.314c0.54,-1.414 0.18,-2.97 -0.938,-3.999Zm-33.198,-69.211c0.437,0.154 0.938,-0.039 1.157,-0.45c0.99,-1.775 2.185,-3.202 2.918,-3.986c0.733,0.784 1.942,2.198 2.919,3.986c0.232,0.411 0.72,0.604 1.157,0.45c2.533,-0.888 4.989,-1.196 6.365,-1.299c-0.36,1.877 -1.415,5.773 -4.346,8.537l-12.201,0c-2.919,-2.764 -3.987,-6.66 -4.347,-8.537c1.389,0.103 3.832,0.411 6.378,1.299Zm-4.307,9.167l16.778,0c0.836,0 1.518,0.682 1.518,1.517c0,0.836 -0.682,1.518 -1.518,1.518l-16.778,-0c-0.836,-0 -1.518,-0.682 -1.518,-1.518c-0,-0.835 0.682,-1.517 1.518,-1.517Zm36.643,63.349c-0.206,0.527 -0.733,1.08 -1.581,1.08l-53.346,-0c-0.861,-0 -1.375,-0.566 -1.581,-1.08c-0.206,-0.528 -0.193,-1.286 0.437,-1.878c2.057,-1.877 3.227,-4.539 3.227,-7.328l0,-31.167c0.013,-7.959 8.859,-14.169 16.38,-18.013l16.407,-0c7.521,3.844 16.38,10.054 16.38,18.013l-0,31.167c-0,2.777 1.183,5.451 3.227,7.328c0.643,0.579 0.656,1.35 0.45,1.878Z" style="fill-rule:nonzero;"/><path id="path4543" d="M38.461,35.84c0.437,-0.296 0.565,-0.9 0.27,-1.338c-0.297,-0.436 -0.9,-0.565 -1.337,-0.269c-5.864,3.908 -9.104,8.049 -9.387,11.944c-0.038,0.528 0.361,0.99 0.887,1.029l0.078,-0c0.502,-0 0.925,-0.386 0.964,-0.9c0.219,-3.227 3.253,-6.956 8.525,-10.466Z" style="fill-rule:nonzero;"/><path id="path4545" d="M43.051,70.658l-3.858,-0c-1.71,-0 -3.227,-0.887 -4.076,-2.366c-0.848,-1.479 -0.848,-3.24 0.013,-4.706l4.937,-8.472l0.683,2.532c0.115,0.438 0.501,0.72 0.925,0.72c0.077,-0 0.167,-0.013 0.244,-0.038c0.515,-0.142 0.823,-0.669 0.682,-1.183l-1.273,-4.745c-0.064,-0.244 -0.232,-0.463 -0.45,-0.591c-0.219,-0.129 -0.489,-0.167 -0.733,-0.103l-4.732,1.273c-0.514,0.141 -0.822,0.669 -0.681,1.183c0.141,0.514 0.668,0.822 1.182,0.681l2.431,-0.656l-4.912,8.409c-1.208,2.07 -1.222,4.564 -0.025,6.648c1.195,2.083 3.342,3.33 5.747,3.33l3.844,-0c0.527,-0 0.965,-0.438 0.965,-0.965c-0,-0.527 -0.386,-0.951 -0.913,-0.951Z" style="fill-rule:nonzero;"/><path id="path4547" d="M64.587,59.304c-0.27,-0.462 -0.862,-0.617 -1.325,-0.347c-0.462,0.271 -0.617,0.862 -0.346,1.325l1.928,3.317c0.861,1.466 0.861,3.227 0.012,4.706c-0.848,1.478 -2.378,2.366 -4.075,2.366l-9.836,0l1.826,-1.826c0.373,-0.373 0.373,-0.99 -0,-1.363c-0.373,-0.372 -0.99,-0.372 -1.363,0l-3.471,3.471c-0.181,0.18 -0.283,0.425 -0.283,0.682c-0,0.257 0.102,0.501 0.283,0.681l3.458,3.459c0.193,0.192 0.437,0.283 0.682,0.283c0.244,0 0.488,-0.091 0.681,-0.283c0.372,-0.373 0.372,-0.99 -0,-1.363l-1.826,-1.826l9.849,0c2.405,0 4.552,-1.247 5.747,-3.329c1.195,-2.083 1.183,-4.565 -0.025,-6.648l-1.916,-3.305Z" style="fill-rule:nonzero;"/><path id="path4549" d="M49.993,42.744c1.698,0 3.215,0.875 4.064,2.328l4.924,8.434l-2.533,-0.681c-0.515,-0.129 -1.041,0.167 -1.183,0.681c-0.141,0.514 0.167,1.042 0.682,1.183l4.744,1.273c0.077,0.025 0.167,0.039 0.244,0.039c0.167,-0 0.334,-0.039 0.489,-0.129c0.218,-0.129 0.386,-0.335 0.45,-0.591l1.273,-4.733c0.141,-0.514 -0.167,-1.04 -0.681,-1.182c-0.515,-0.129 -1.042,0.167 -1.183,0.681l-0.656,2.443l-4.899,-8.396c-1.196,-2.056 -3.343,-3.291 -5.721,-3.291c-2.379,-0 -4.526,1.235 -5.722,3.291l-1.89,3.24c-0.27,0.463 -0.116,1.055 0.347,1.325c0.462,0.269 1.054,0.116 1.325,-0.348l1.889,-3.239c0.836,-1.453 2.353,-2.328 4.037,-2.328Z" style="fill-rule:nonzero;"/><path id="path4551" d="M48.078,65.232c-0.026,0.45 0.257,0.861 0.681,0.99c0.09,0.026 0.181,0.038 0.283,0.038c0.334,0 0.668,-0.18 0.836,-0.488l4.808,-8.447c0.155,-0.271 0.168,-0.591 0.039,-0.874c-0.129,-0.284 -0.373,-0.489 -0.681,-0.553l-2.52,-0.528l0.372,-5.657c0.026,-0.45 -0.256,-0.861 -0.681,-0.99c-0.424,-0.129 -0.887,0.052 -1.119,0.45l-4.808,8.447c-0.154,0.27 -0.167,0.592 -0.039,0.875c0.129,0.283 0.373,0.489 0.682,0.553l2.52,0.526l-0.373,5.658Zm-0.45,-7.804l2.082,-3.652l-0.153,2.302c-0.026,0.475 0.295,0.912 0.758,1.003l2.045,0.423l-2.084,3.652l0.155,-2.302c0.026,-0.475 -0.296,-0.912 -0.759,-1.002l-2.044,-0.424Z" style="fill-rule:nonzero;"/></g></svg>