<?xml version="1.0" encoding="UTF-8" standalone="no"?>
<!DOCTYPE svg PUBLIC "-//W3C//DTD SVG 1.1//EN" "http://www.w3.org/Graphics/SVG/1.1/DTD/svg11.dtd">
<svg width="100%" height="100%" viewBox="0 0 100 100" version="1.1" xmlns="http://www.w3.org/2000/svg" xmlns:xlink="http://www.w3.org/1999/xlink" xml:space="preserve" xmlns:serif="http://www.serif.com/" style="fill-rule:evenodd;clip-rule:evenodd;stroke-linejoin:round;stroke-miterlimit:2;">
    <g id="g198" transform="matrix(1.03145,0,0,1.03145,-1.57406,-1.57246)">
        <g id="switch202">
            <g id="g200">
                <g id="g1981" serif:id="g198">
                    <path id="path170" d="M28.313,43.125C28.812,43.125 29.25,42.688 29.25,42.188C29.25,39.375 29.812,36.688 30.875,34.125C31.938,31.688 33.438,29.438 35.313,27.563C37.188,25.688 39.438,24.188 41.875,23.125C44.438,22.063 47.125,21.5 49.938,21.5C52.75,21.5 55.438,22.063 58,23.125C60.438,24.188 62.688,25.688 64.563,27.563C66.438,29.438 67.938,31.688 69,34.125C70.063,36.688 70.625,39.375 70.625,42.188C70.625,42.688 71.063,43.125 71.563,43.125C72.063,43.125 72.5,42.688 72.5,42.188C72.5,39.125 71.875,36.188 70.75,33.375C69.625,30.688 68,28.25 65.938,26.188C63.875,24.125 61.438,22.5 58.75,21.375C55.938,20.188 53,19.625 49.938,19.625C46.875,19.625 43.938,20.25 41.125,21.375C38.438,22.5 36,24.125 33.938,26.188C31.875,28.25 30.25,30.688 29.125,33.375C27.938,36.188 27.375,39.125 27.375,42.188C27.375,42.688 27.813,43.125 28.313,43.125Z" style="fill-rule:nonzero;"/>
                    <path id="path172" d="M50,16.75C50.5,16.75 50.938,16.313 50.938,15.813L50.938,12.375C50.938,11.875 50.5,11.438 50,11.438C49.5,11.438 49.063,11.875 49.063,12.375L49.063,15.813C49.063,16.313 49.5,16.75 50,16.75Z" style="fill-rule:nonzero;"/>
                    <path id="path174" d="M38.875,18.25C39,18.625 39.375,18.813 39.75,18.813C39.875,18.813 40,18.813 40.125,18.75C40.625,18.562 40.813,18 40.625,17.5L39.313,14.313C39.125,13.812 38.563,13.625 38.063,13.812C37.563,14 37.375,14.562 37.563,15.062L38.875,18.25Z" style="fill-rule:nonzero;"/>
                    <path id="path176" d="M30.688,24.188C30.875,24.375 31.125,24.438 31.375,24.438C31.625,24.438 31.875,24.375 32.063,24.188C32.438,23.813 32.438,23.25 32.063,22.875L29.625,20.438C29.25,20.063 28.688,20.063 28.313,20.438C27.938,20.813 27.938,21.375 28.313,21.75L30.688,24.188Z" style="fill-rule:nonzero;"/>
                    <path id="path178" d="M22.125,31.438L25.313,32.75C25.438,32.813 25.563,32.813 25.688,32.813C26.063,32.813 26.375,32.625 26.563,32.25C26.75,31.75 26.563,31.25 26.063,31L22.875,29.688C22.375,29.5 21.875,29.688 21.625,30.188C21.438,30.687 21.688,31.25 22.125,31.438Z" style="fill-rule:nonzero;"/>
                    <path id="path180" d="M20.188,43.125L23.625,43.125C24.125,43.125 24.563,42.688 24.563,42.188C24.563,41.688 24.125,41.25 23.625,41.25L20.188,41.25C19.687,41.25 19.25,41.688 19.25,42.188C19.25,42.688 19.625,43.125 20.188,43.125Z" style="fill-rule:nonzero;"/>
                    <path id="path182" d="M59.938,18.75C60.063,18.813 60.188,18.813 60.313,18.813C60.688,18.813 61,18.625 61.188,18.25L62.5,15.063C62.688,14.563 62.5,14.063 62,13.813C61.5,13.625 61,13.813 60.75,14.313L59.438,17.5C59.187,18 59.438,18.5 59.937,18.75Z" style="fill-rule:nonzero;"/>
                    <path id="path184" d="M68.688,24.438C68.938,24.438 69.188,24.375 69.375,24.188L71.813,21.75C72.188,21.375 72.188,20.813 71.813,20.438C71.438,20.063 70.875,20.063 70.5,20.438L68.063,22.875C67.688,23.25 67.688,23.813 68.063,24.188C68.188,24.375 68.438,24.438 68.688,24.438Z" style="fill-rule:nonzero;"/>
                    <path id="path186" d="M74.313,32.875C74.438,32.875 74.563,32.875 74.688,32.813L77.875,31.5C78.375,31.313 78.563,30.75 78.375,30.25C78.188,29.75 77.625,29.563 77.125,29.75L73.938,31.063C73.438,31.25 73.25,31.813 73.438,32.313C73.625,32.625 73.938,32.875 74.313,32.875Z" style="fill-rule:nonzero;"/>
                    <path id="path188" d="M75.5,42.188C75.5,42.688 75.938,43.125 76.438,43.125L79.875,43.125C80.375,43.125 80.813,42.688 80.813,42.188C80.813,41.688 80.375,41.25 79.875,41.25L76.438,41.25C75.875,41.25 75.5,41.688 75.5,42.188Z" style="fill-rule:nonzero;"/>
                    <path id="path190" d="M17.813,56.438C17.938,56.812 18.313,57.125 18.688,57.125L26.312,57.125L26.312,63.875C26.312,64.375 26.75,64.813 27.25,64.813C27.75,64.813 28.187,64.375 28.187,63.875L28.187,57.125L35.813,57.125C36.125,57.125 36.438,56.938 36.563,56.688C36.75,56.438 36.75,56.125 36.625,55.813L32.938,46.813C32.813,46.5 32.5,46.25 32.125,46.25L16.188,46.25C15.875,46.25 15.625,46.375 15.438,46.625C15.25,46.875 15.188,47.188 15.313,47.437L17.813,56.438ZM31.5,48.125L34.438,55.25L19.438,55.25L17.438,48.125L31.5,48.125Z" style="fill-rule:nonzero;"/>
                    <path id="path192" d="M65.75,46.813L62.063,55.813C62.063,55.875 62,55.938 62,55.938L62,56.375C62,56.438 62,56.438 62.063,56.5C62.063,56.5 62.063,56.563 62.125,56.563C62.125,56.563 62.125,56.625 62.187,56.625L62.437,56.875C62.5,56.937 62.562,56.937 62.625,56.937L62.687,56.937C62.75,56.937 62.75,56.937 62.812,57L70.625,57L70.625,63.75C70.625,64.25 71.063,64.688 71.563,64.688C72.063,64.688 72.5,64.25 72.5,63.75L72.5,57.125L80.25,57.125C80.313,57.125 80.313,57.125 80.375,57.063C80.375,57.063 80.438,57.063 80.438,57C80.5,57 80.5,56.938 80.562,56.938C80.562,56.938 80.625,56.938 80.625,56.875L80.812,56.688C80.875,56.625 80.875,56.563 80.875,56.5L84.688,47.5C84.813,47.188 84.75,46.875 84.625,46.625C84.438,46.375 84.188,46.187 83.813,46.187L66.625,46.187C66.25,46.25 65.938,46.5 65.75,46.812ZM82.375,48.125L79.375,55.25L64.313,55.25L67.25,48.125L82.375,48.125Z" style="fill-rule:nonzero;"/>
                    <path id="path194" d="M49.375,64.813C49.875,64.813 50.313,64.375 50.313,63.875L50.313,57.125L57.938,57.125C58.438,57.125 58.875,56.688 58.875,56.188L58.875,47.188C58.875,46.688 58.438,46.25 57.938,46.25L40.813,46.25C40.313,46.25 39.875,46.688 39.875,47.188L39.875,56.188C39.875,56.688 40.313,57.125 40.813,57.125L48.438,57.125L48.438,63.875C48.438,64.375 48.875,64.813 49.375,64.813ZM41.75,48.125L56.938,48.125L56.938,55.25L41.75,55.25L41.75,48.125Z" style="fill-rule:nonzero;"/>
                    <path id="path196" d="M83.813,67.938L16.188,67.938C15.687,67.938 15.25,68.375 15.25,68.875C15.25,69.375 15.687,69.813 16.188,69.813L48.438,69.813L48.438,74.75C46,75.063 44.063,77.188 44.063,79.688L44.063,83.75C44.063,84.25 44.5,84.688 45,84.688L45.313,84.688L45.313,87.625C45.313,88.125 45.75,88.563 46.25,88.563C46.75,88.563 47.188,88.125 47.188,87.625L47.188,84.688L50.938,84.688L50.938,87.625C50.938,88.125 51.375,88.563 51.875,88.563C52.375,88.563 52.813,88.125 52.813,87.625L52.813,84.688L53.125,84.688C53.625,84.688 54.063,84.25 54.063,83.75L54.063,79.688C54.063,77.375 52.438,75.438 50.313,74.875L50.313,69.813L83.813,69.813C84.313,69.813 84.75,69.375 84.75,68.875C84.75,68.375 84.313,67.938 83.813,67.938ZM52.188,79.75L52.188,82.875L45.938,82.875L45.938,79.75C45.938,78 47.313,76.625 49.063,76.625C50.813,76.625 52.188,78 52.188,79.75Z" style="fill-rule:nonzero;"/>
                </g>
            </g>
        </g>
    </g>
</svg>
