<?xml version="1.0" encoding="UTF-8" standalone="no"?><!DOCTYPE svg PUBLIC "-//W3C//DTD SVG 1.1//EN" "http://www.w3.org/Graphics/SVG/1.1/DTD/svg11.dtd"><svg width="100%" height="100%" viewBox="0 0 100 100" version="1.1" xmlns="http://www.w3.org/2000/svg" xmlns:xlink="http://www.w3.org/1999/xlink" xml:space="preserve" xmlns:serif="http://www.serif.com/" style="fill-rule:evenodd;clip-rule:evenodd;stroke-linejoin:round;stroke-miterlimit:2;"><circle id="circle3739" cx="48.3" cy="12.2" r="1.4"/><circle id="circle3741" cx="48.3" cy="15.6" r="1.4"/><path id="path3743" d="M44.8,6.7c-0.8,0 -1.4,-0.6 -1.4,-1.4c-0,-0.8 0.6,-1.4 1.4,-1.4c0.8,0 1.4,0.6 1.4,1.4c0,0.8 -0.6,1.4 -1.4,1.4Z" style="fill-rule:nonzero;"/><circle id="circle3745" cx="44.8" cy="8.8" r="1.4"/><circle id="circle3747" cx="44.8" cy="12.2" r="1.4"/><circle id="circle3749" cx="44.8" cy="15.6" r="1.4"/><path id="path3751" d="M41.4,6.7c-0.8,0 -1.4,-0.6 -1.4,-1.4c0,-0.8 0.6,-1.4 1.4,-1.4c0.8,0 1.4,0.6 1.4,1.4c0,0.8 -0.6,1.4 -1.4,1.4Z" style="fill-rule:nonzero;"/><circle id="circle3753" cx="41.4" cy="8.8" r="1.4"/><circle id="circle3755" cx="41.4" cy="12.2" r="1.4"/><circle id="circle3757" cx="41.4" cy="15.6" r="1.4"/><path id="path3759" d="M37.9,6.7c-0.8,0 -1.4,-0.6 -1.4,-1.4c0,-0.8 0.6,-1.4 1.4,-1.4c0.8,0 1.4,0.6 1.4,1.4c0.1,0.8 -0.6,1.4 -1.4,1.4Z" style="fill-rule:nonzero;"/><path id="path3761" d="M37.9,13.6c-0.8,0 -1.4,-0.6 -1.4,-1.4c0,-0.8 0.6,-1.4 1.4,-1.4c0.8,0 1.4,0.6 1.4,1.4c0.1,0.8 -0.6,1.4 -1.4,1.4Z" style="fill-rule:nonzero;"/><path id="path3763" d="M37.9,17.1c-0.8,0 -1.4,-0.6 -1.4,-1.4c0,-0.8 0.6,-1.4 1.4,-1.4c0.8,0 1.4,0.6 1.4,1.4c0.1,0.7 -0.6,1.4 -1.4,1.4Z" style="fill-rule:nonzero;"/><circle id="circle3765" cx="48.3" cy="19.1" r="1.4"/><circle id="circle3767" cx="48.3" cy="22.5" r="1.4"/><circle id="circle3769" cx="48.3" cy="26" r="1.4"/><circle id="circle3771" cx="44.8" cy="19.1" r="1.4"/><circle id="circle3773" cx="44.8" cy="22.5" r="1.4"/><circle id="circle3775" cx="44.8" cy="26" r="1.4"/><circle id="circle3777" cx="41.4" cy="19.1" r="1.4"/><circle id="circle3779" cx="41.4" cy="22.5" r="1.4"/><circle id="circle3781" cx="41.4" cy="26" r="1.4"/><path id="path3783" d="M37.9,20.5c-0.8,0 -1.4,-0.6 -1.4,-1.4c0,-0.8 0.6,-1.4 1.4,-1.4c0.8,0 1.4,0.6 1.4,1.4c0.1,0.8 -0.6,1.4 -1.4,1.4Z" style="fill-rule:nonzero;"/><path id="path3785" d="M37.9,23.9c-0.8,-0 -1.4,-0.6 -1.4,-1.4c0,-0.8 0.6,-1.4 1.4,-1.4c0.8,-0 1.4,0.6 1.4,1.4c0.1,0.8 -0.6,1.4 -1.4,1.4Z" style="fill-rule:nonzero;"/><path id="path3787" d="M37.9,27.4c-0.8,-0 -1.4,-0.6 -1.4,-1.4c0,-0.8 0.6,-1.4 1.4,-1.4c0.8,-0 1.4,0.6 1.4,1.4c0.1,0.8 -0.6,1.4 -1.4,1.4Z" style="fill-rule:nonzero;"/><path id="path3789" d="M34.5,23.9c-0.8,-0 -1.4,-0.6 -1.4,-1.4c0,-0.8 0.6,-1.4 1.4,-1.4c0.8,-0 1.4,0.6 1.4,1.4c0,0.8 -0.6,1.4 -1.4,1.4Z" style="fill-rule:nonzero;"/><path id="path3791" d="M34.5,27.4c-0.8,-0 -1.4,-0.6 -1.4,-1.4c0,-0.8 0.6,-1.4 1.4,-1.4c0.8,-0 1.4,0.6 1.4,1.4c0,0.8 -0.6,1.4 -1.4,1.4Z" style="fill-rule:nonzero;"/><circle id="circle3793" cx="31.1" cy="19.1" r="1.4"/><circle id="circle3795" cx="31.1" cy="22.5" r="1.4"/><circle id="circle3797" cx="31.1" cy="26" r="1.4"/><circle id="circle3799" cx="27.6" cy="19.1" r="1.4"/><circle id="circle3801" cx="27.6" cy="22.5" r="1.4"/><circle id="circle3803" cx="27.6" cy="26" r="1.4"/><circle id="circle3805" cx="72.3" cy="15.6" r="1.4"/><circle id="circle3807" cx="68.8" cy="12.2" r="1.4"/><circle id="circle3809" cx="68.8" cy="15.6" r="1.4"/><circle id="circle3811" cx="75.7" cy="19.1" r="1.4"/><circle id="circle3813" cx="75.7" cy="22.5" r="1.4"/><circle id="circle3815" cx="75.7" cy="26" r="1.4"/><circle id="circle3817" cx="72.3" cy="19.1" r="1.4"/><circle id="circle3819" cx="72.3" cy="22.5" r="1.4"/><circle id="circle3821" cx="72.3" cy="26" r="1.4"/><circle id="circle3823" cx="68.8" cy="19.1" r="1.4"/><circle id="circle3825" cx="68.8" cy="22.5" r="1.4"/><circle id="circle3827" cx="68.8" cy="26" r="1.4"/><circle id="circle3829" cx="65.4" cy="8.8" r="1.4"/><circle id="circle3831" cx="65.4" cy="12.2" r="1.4"/><circle id="circle3833" cx="65.4" cy="15.6" r="1.4"/><circle id="circle3835" cx="61.9" cy="15.6" r="1.4"/><path id="path3837" d="M58.5,17.1c-0.8,0 -1.4,-0.6 -1.4,-1.4c0,-0.8 0.6,-1.4 1.4,-1.4c0.8,0 1.4,0.6 1.4,1.4c0,0.7 -0.6,1.4 -1.4,1.4Z" style="fill-rule:nonzero;"/><circle id="circle3839" cx="55.1" cy="15.6" r="1.4"/><path id="path3841" d="M51.6,13.6c-0.8,0 -1.4,-0.6 -1.4,-1.4c0,-0.8 0.6,-1.4 1.4,-1.4c0.8,0 1.4,0.6 1.4,1.4c0,0.8 -0.6,1.4 -1.4,1.4Z" style="fill-rule:nonzero;"/><path id="path3843" d="M51.6,17.1c-0.8,0 -1.4,-0.6 -1.4,-1.4c0,-0.8 0.6,-1.4 1.4,-1.4c0.8,0 1.4,0.6 1.4,1.4c0,0.7 -0.6,1.4 -1.4,1.4Z" style="fill-rule:nonzero;"/><circle id="circle3845" cx="65.4" cy="19.1" r="1.4"/><circle id="circle3847" cx="65.4" cy="22.5" r="1.4"/><circle id="circle3849" cx="65.4" cy="26" r="1.4"/><circle id="circle3851" cx="61.9" cy="19.1" r="1.4"/><circle id="circle3853" cx="61.9" cy="22.5" r="1.4"/><circle id="circle3855" cx="61.9" cy="26" r="1.4"/><path id="path3857" d="M58.5,20.5c-0.8,0 -1.4,-0.6 -1.4,-1.4c0,-0.8 0.6,-1.4 1.4,-1.4c0.8,0 1.4,0.6 1.4,1.4c0,0.8 -0.6,1.4 -1.4,1.4Z" style="fill-rule:nonzero;"/><path id="path3859" d="M58.5,23.9c-0.8,-0 -1.4,-0.6 -1.4,-1.4c0,-0.8 0.6,-1.4 1.4,-1.4c0.8,-0 1.4,0.6 1.4,1.4c0,0.8 -0.6,1.4 -1.4,1.4Z" style="fill-rule:nonzero;"/><path id="path3861" d="M58.5,27.4c-0.8,-0 -1.4,-0.6 -1.4,-1.4c0,-0.8 0.6,-1.4 1.4,-1.4c0.8,-0 1.4,0.6 1.4,1.4c0,0.8 -0.6,1.4 -1.4,1.4Z" style="fill-rule:nonzero;"/><circle id="circle3863" cx="55.1" cy="19.1" r="1.4"/><circle id="circle3865" cx="55.1" cy="22.5" r="1.4"/><circle id="circle3867" cx="55.1" cy="26" r="1.4"/><path id="path3869" d="M51.6,20.5c-0.8,0 -1.4,-0.6 -1.4,-1.4c0,-0.8 0.6,-1.4 1.4,-1.4c0.8,0 1.4,0.6 1.4,1.4c0,0.8 -0.6,1.4 -1.4,1.4Z" style="fill-rule:nonzero;"/><path id="path3871" d="M51.6,23.9c-0.8,-0 -1.4,-0.6 -1.4,-1.4c0,-0.8 0.6,-1.4 1.4,-1.4c0.8,-0 1.4,0.6 1.4,1.4c0,0.8 -0.6,1.4 -1.4,1.4Z" style="fill-rule:nonzero;"/><path id="path3873" d="M51.6,27.4c-0.8,-0 -1.4,-0.6 -1.4,-1.4c0,-0.8 0.6,-1.4 1.4,-1.4c0.8,-0 1.4,0.6 1.4,1.4c0,0.8 -0.6,1.4 -1.4,1.4Z" style="fill-rule:nonzero;"/><path id="path3875" d="M48.3,30.8c-0.8,0 -1.4,-0.6 -1.4,-1.4c-0,-0.8 0.6,-1.4 1.4,-1.4c0.8,0 1.4,0.6 1.4,1.4c0.1,0.8 -0.6,1.4 -1.4,1.4Z" style="fill-rule:nonzero;"/><circle id="circle3877" cx="48.3" cy="32.8" r="1.4"/><circle id="circle3879" cx="48.3" cy="36.3" r="1.4"/><circle id="circle3881" cx="48.3" cy="39.7" r="1.4"/><path id="path3883" d="M44.9,30.8c-0.8,0 -1.4,-0.6 -1.4,-1.4c0,-0.8 0.6,-1.4 1.4,-1.4c0.8,0 1.4,0.6 1.4,1.4c0,0.8 -0.6,1.4 -1.4,1.4Z" style="fill-rule:nonzero;"/><circle id="circle3885" cx="44.9" cy="32.8" r="1.4"/><circle id="circle3887" cx="44.9" cy="36.3" r="1.4"/><circle id="circle3889" cx="44.9" cy="39.7" r="1.4"/><path id="path3891" d="M41.5,30.8c-0.8,0 -1.4,-0.6 -1.4,-1.4c0,-0.8 0.6,-1.4 1.4,-1.4c0.8,0 1.4,0.6 1.4,1.4c0,0.8 -0.7,1.4 -1.4,1.4Z" style="fill-rule:nonzero;"/><circle id="circle3893" cx="41.5" cy="32.8" r="1.4"/><circle id="circle3895" cx="41.5" cy="36.3" r="1.4"/><circle id="circle3897" cx="41.5" cy="39.7" r="1.4"/><path id="path3899" d="M38,30.8c-0.8,0 -1.4,-0.6 -1.4,-1.4c0,-0.8 0.6,-1.4 1.4,-1.4c0.8,0 1.4,0.6 1.4,1.4c0,0.8 -0.6,1.4 -1.4,1.4Z" style="fill-rule:nonzero;"/><path id="path3901" d="M38,34.3c-0.8,-0 -1.4,-0.6 -1.4,-1.4c0,-0.8 0.6,-1.4 1.4,-1.4c0.8,-0 1.4,0.6 1.4,1.4c0,0.7 -0.6,1.4 -1.4,1.4Z" style="fill-rule:nonzero;"/><path id="path3903" d="M38,37.7c-0.8,0 -1.4,-0.6 -1.4,-1.4c0,-0.8 0.6,-1.4 1.4,-1.4c0.8,0 1.4,0.6 1.4,1.4c0,0.8 -0.6,1.4 -1.4,1.4Z" style="fill-rule:nonzero;"/><path id="path3905" d="M38,41.2c-0.8,0 -1.4,-0.6 -1.4,-1.4c0,-0.8 0.6,-1.4 1.4,-1.4c0.8,0 1.4,0.6 1.4,1.4c0,0.7 -0.6,1.4 -1.4,1.4Z" style="fill-rule:nonzero;"/><path id="path3907" d="M34.6,30.8c-0.8,0 -1.4,-0.6 -1.4,-1.4c0,-0.8 0.6,-1.4 1.4,-1.4c0.8,0 1.4,0.6 1.4,1.4c0,0.8 -0.6,1.4 -1.4,1.4Z" style="fill-rule:nonzero;"/><path id="path3909" d="M34.6,34.3c-0.8,-0 -1.4,-0.6 -1.4,-1.4c0,-0.8 0.6,-1.4 1.4,-1.4c0.8,-0 1.4,0.6 1.4,1.4c0,0.7 -0.6,1.4 -1.4,1.4Z" style="fill-rule:nonzero;"/><path id="path3911" d="M34.6,37.7c-0.8,0 -1.4,-0.6 -1.4,-1.4c0,-0.8 0.6,-1.4 1.4,-1.4c0.8,0 1.4,0.6 1.4,1.4c0,0.8 -0.6,1.4 -1.4,1.4Z" style="fill-rule:nonzero;"/><path id="path3913" d="M34.6,41.2c-0.8,0 -1.4,-0.6 -1.4,-1.4c0,-0.8 0.6,-1.4 1.4,-1.4c0.8,0 1.4,0.6 1.4,1.4c0,0.7 -0.6,1.4 -1.4,1.4Z" style="fill-rule:nonzero;"/><path id="path3915" d="M31.1,30.8c-0.8,0 -1.4,-0.6 -1.4,-1.4c0,-0.8 0.6,-1.4 1.4,-1.4c0.8,0 1.4,0.6 1.4,1.4c0.1,0.8 -0.6,1.4 -1.4,1.4Z" style="fill-rule:nonzero;"/><circle id="circle3917" cx="31.1" cy="32.8" r="1.4"/><circle id="circle3919" cx="31.1" cy="36.3" r="1.4"/><circle id="circle3921" cx="31.1" cy="39.7" r="1.4"/><path id="path3923" d="M27.7,30.8c-0.8,0 -1.4,-0.6 -1.4,-1.4c0,-0.8 0.6,-1.4 1.4,-1.4c0.8,0 1.4,0.6 1.4,1.4c0,0.8 -0.6,1.4 -1.4,1.4Z" style="fill-rule:nonzero;"/><circle id="circle3925" cx="27.7" cy="32.8" r="1.4"/><circle id="circle3927" cx="27.7" cy="36.3" r="1.4"/><circle id="circle3929" cx="27.7" cy="39.7" r="1.4"/><circle id="circle3931" cx="24.3" cy="32.8" r="1.4"/><circle id="circle3933" cx="24.3" cy="36.3" r="1.4"/><circle id="circle3935" cx="24.3" cy="39.7" r="1.4"/><circle id="circle3937" cx="48.3" cy="43.2" r="1.4"/><circle id="circle3939" cx="48.3" cy="46.6" r="1.4"/><circle id="circle3941" cx="48.3" cy="50.1" r="1.4"/><circle id="circle3943" cx="44.9" cy="43.2" r="1.4"/><circle id="circle3945" cx="44.9" cy="46.6" r="1.4"/><circle id="circle3947" cx="44.9" cy="50.1" r="1.4"/><circle id="circle3949" cx="41.5" cy="43.2" r="1.4"/><circle id="circle3951" cx="41.5" cy="46.6" r="1.4"/><circle id="circle3953" cx="41.5" cy="50.1" r="1.4"/><path id="path3955" d="M38,44.6c-0.8,0 -1.4,-0.6 -1.4,-1.4c0,-0.8 0.6,-1.4 1.4,-1.4c0.8,0 1.4,0.6 1.4,1.4c0,0.8 -0.6,1.4 -1.4,1.4Z" style="fill-rule:nonzero;"/><path id="path3957" d="M38,48c-0.8,0 -1.4,-0.6 -1.4,-1.4c0,-0.8 0.6,-1.4 1.4,-1.4c0.8,0 1.4,0.6 1.4,1.4c0,0.8 -0.6,1.4 -1.4,1.4Z" style="fill-rule:nonzero;"/><path id="path3959" d="M38,51.5c-0.8,0 -1.4,-0.6 -1.4,-1.4c0,-0.8 0.6,-1.4 1.4,-1.4c0.8,0 1.4,0.6 1.4,1.4c0,0.7 -0.6,1.4 -1.4,1.4Z" style="fill-rule:nonzero;"/><path id="path3961" d="M34.6,44.6c-0.8,0 -1.4,-0.6 -1.4,-1.4c0,-0.8 0.6,-1.4 1.4,-1.4c0.8,0 1.4,0.6 1.4,1.4c0,0.8 -0.6,1.4 -1.4,1.4Z" style="fill-rule:nonzero;"/><path id="path3963" d="M34.6,48c-0.8,0 -1.4,-0.6 -1.4,-1.4c0,-0.8 0.6,-1.4 1.4,-1.4c0.8,0 1.4,0.6 1.4,1.4c0,0.8 -0.6,1.4 -1.4,1.4Z" style="fill-rule:nonzero;"/><path id="path3965" d="M34.6,51.5c-0.8,0 -1.4,-0.6 -1.4,-1.4c0,-0.8 0.6,-1.4 1.4,-1.4c0.8,0 1.4,0.6 1.4,1.4c0,0.7 -0.6,1.4 -1.4,1.4Z" style="fill-rule:nonzero;"/><circle id="circle3967" cx="31.1" cy="43.2" r="1.4"/><circle id="circle3969" cx="31.1" cy="46.6" r="1.4"/><circle id="circle3971" cx="31.1" cy="50.1" r="1.4"/><circle id="circle3973" cx="27.7" cy="43.2" r="1.4"/><circle id="circle3975" cx="27.7" cy="46.6" r="1.4"/><circle id="circle3977" cx="27.7" cy="50.1" r="1.4"/><circle id="circle3979" cx="24.3" cy="43.2" r="1.4"/><circle id="circle3981" cx="24.3" cy="46.6" r="1.4"/><circle id="circle3983" cx="24.3" cy="50.1" r="1.4"/><circle id="circle3985" cx="20.8" cy="39.7" r="1.4"/><circle id="circle3987" cx="17.4" cy="39.7" r="1.4"/><circle id="circle3989" cx="20.8" cy="43.2" r="1.4"/><circle id="circle3991" cx="20.8" cy="46.6" r="1.4"/><circle id="circle3993" cx="20.8" cy="50.1" r="1.4"/><circle id="circle3995" cx="17.4" cy="50.1" r="1.4"/><path id="path3997" d="M79.2,34.3c-0.8,-0 -1.4,-0.6 -1.4,-1.4c0,-0.8 0.6,-1.4 1.4,-1.4c0.8,-0 1.4,0.6 1.4,1.4c0.1,0.7 -0.6,1.4 -1.4,1.4Z" style="fill-rule:nonzero;"/><path id="path3999" d="M79.2,37.7c-0.8,0 -1.4,-0.6 -1.4,-1.4c0,-0.8 0.6,-1.4 1.4,-1.4c0.8,0 1.4,0.6 1.4,1.4c0.1,0.8 -0.6,1.4 -1.4,1.4Z" style="fill-rule:nonzero;"/><path id="path4001" d="M79.2,41.2c-0.8,0 -1.4,-0.6 -1.4,-1.4c0,-0.8 0.6,-1.4 1.4,-1.4c0.8,0 1.4,0.6 1.4,1.4c0.1,0.7 -0.6,1.4 -1.4,1.4Z" style="fill-rule:nonzero;"/><path id="path4003" d="M75.8,30.8c-0.8,0 -1.4,-0.6 -1.4,-1.4c0,-0.8 0.6,-1.4 1.4,-1.4c0.8,0 1.4,0.6 1.4,1.4c0,0.8 -0.6,1.4 -1.4,1.4Z" style="fill-rule:nonzero;"/><circle id="circle4005" cx="75.8" cy="32.8" r="1.4"/><circle id="circle4007" cx="75.8" cy="36.3" r="1.4"/><circle id="circle4009" cx="75.8" cy="39.7" r="1.4"/><path id="path4011" d="M72.3,30.8c-0.8,0 -1.4,-0.6 -1.4,-1.4c0,-0.8 0.6,-1.4 1.4,-1.4c0.8,0 1.4,0.6 1.4,1.4c0.1,0.8 -0.6,1.4 -1.4,1.4Z" style="fill-rule:nonzero;"/><circle id="circle4013" cx="72.3" cy="32.8" r="1.4"/><circle id="circle4015" cx="72.3" cy="36.3" r="1.4"/><circle id="circle4017" cx="72.3" cy="39.7" r="1.4"/><path id="path4019" d="M68.9,30.8c-0.8,0 -1.4,-0.6 -1.4,-1.4c0,-0.8 0.6,-1.4 1.4,-1.4c0.8,0 1.4,0.6 1.4,1.4c-0,0.8 -0.6,1.4 -1.4,1.4Z" style="fill-rule:nonzero;"/><circle id="circle4021" cx="68.9" cy="32.8" r="1.4"/><circle id="circle4023" cx="68.9" cy="36.3" r="1.4"/><circle id="circle4025" cx="68.9" cy="39.7" r="1.4"/><path id="path4027" d="M82.7,48c-0.8,0 -1.4,-0.6 -1.4,-1.4c0,-0.8 0.6,-1.4 1.4,-1.4c0.8,0 1.4,0.6 1.4,1.4c-0,0.8 -0.6,1.4 -1.4,1.4Z" style="fill-rule:nonzero;"/><path id="path4029" d="M82.7,51.5c-0.8,0 -1.4,-0.6 -1.4,-1.4c0,-0.8 0.6,-1.4 1.4,-1.4c0.8,0 1.4,0.6 1.4,1.4c-0,0.7 -0.6,1.4 -1.4,1.4Z" style="fill-rule:nonzero;"/><path id="path4031" d="M79.2,44.6c-0.8,0 -1.4,-0.6 -1.4,-1.4c0,-0.8 0.6,-1.4 1.4,-1.4c0.8,0 1.4,0.6 1.4,1.4c0.1,0.8 -0.6,1.4 -1.4,1.4Z" style="fill-rule:nonzero;"/><path id="path4033" d="M79.2,48c-0.8,0 -1.4,-0.6 -1.4,-1.4c0,-0.8 0.6,-1.4 1.4,-1.4c0.8,0 1.4,0.6 1.4,1.4c0.1,0.8 -0.6,1.4 -1.4,1.4Z" style="fill-rule:nonzero;"/><path id="path4035" d="M79.2,51.5c-0.8,0 -1.4,-0.6 -1.4,-1.4c0,-0.8 0.6,-1.4 1.4,-1.4c0.8,0 1.4,0.6 1.4,1.4c0.1,0.7 -0.6,1.4 -1.4,1.4Z" style="fill-rule:nonzero;"/><circle id="circle4037" cx="75.8" cy="43.2" r="1.4"/><circle id="circle4039" cx="75.8" cy="46.6" r="1.4"/><circle id="circle4041" cx="75.8" cy="50.1" r="1.4"/><circle id="circle4043" cx="72.3" cy="43.2" r="1.4"/><circle id="circle4045" cx="72.3" cy="46.6" r="1.4"/><circle id="circle4047" cx="72.3" cy="50.1" r="1.4"/><circle id="circle4049" cx="68.9" cy="43.2" r="1.4"/><circle id="circle4051" cx="68.9" cy="46.6" r="1.4"/><circle id="circle4053" cx="68.9" cy="50.1" r="1.4"/><path id="path4055" d="M65.5,30.8c-0.8,0 -1.4,-0.6 -1.4,-1.4c0,-0.8 0.6,-1.4 1.4,-1.4c0.8,0 1.4,0.6 1.4,1.4c0,0.8 -0.6,1.4 -1.4,1.4Z" style="fill-rule:nonzero;"/><circle id="circle4057" cx="65.5" cy="32.8" r="1.4"/><circle id="circle4059" cx="65.5" cy="36.3" r="1.4"/><circle id="circle4061" cx="65.5" cy="39.7" r="1.4"/><path id="path4063" d="M62,30.8c-0.8,0 -1.4,-0.6 -1.4,-1.4c0,-0.8 0.6,-1.4 1.4,-1.4c0.8,0 1.4,0.6 1.4,1.4c0.1,0.8 -0.6,1.4 -1.4,1.4Z" style="fill-rule:nonzero;"/><circle id="circle4065" cx="62" cy="32.8" r="1.4"/><circle id="circle4067" cx="62" cy="36.3" r="1.4"/><circle id="circle4069" cx="62" cy="39.7" r="1.4"/><path id="path4071" d="M58.6,30.8c-0.8,0 -1.4,-0.6 -1.4,-1.4c0,-0.8 0.6,-1.4 1.4,-1.4c0.8,0 1.4,0.6 1.4,1.4c0,0.8 -0.6,1.4 -1.4,1.4Z" style="fill-rule:nonzero;"/><path id="path4073" d="M58.6,34.3c-0.8,-0 -1.4,-0.6 -1.4,-1.4c0,-0.8 0.6,-1.4 1.4,-1.4c0.8,-0 1.4,0.6 1.4,1.4c0,0.7 -0.6,1.4 -1.4,1.4Z" style="fill-rule:nonzero;"/><path id="path4075" d="M58.6,37.7c-0.8,0 -1.4,-0.6 -1.4,-1.4c0,-0.8 0.6,-1.4 1.4,-1.4c0.8,0 1.4,0.6 1.4,1.4c0,0.8 -0.6,1.4 -1.4,1.4Z" style="fill-rule:nonzero;"/><path id="path4077" d="M58.6,41.2c-0.8,0 -1.4,-0.6 -1.4,-1.4c0,-0.8 0.6,-1.4 1.4,-1.4c0.8,0 1.4,0.6 1.4,1.4c0,0.7 -0.6,1.4 -1.4,1.4Z" style="fill-rule:nonzero;"/><path id="path4079" d="M55.1,30.8c-0.8,0 -1.4,-0.6 -1.4,-1.4c0,-0.8 0.6,-1.4 1.4,-1.4c0.8,0 1.4,0.6 1.4,1.4c0.1,0.8 -0.6,1.4 -1.4,1.4Z" style="fill-rule:nonzero;"/><circle id="circle4081" cx="55.1" cy="32.8" r="1.4"/><circle id="circle4083" cx="55.1" cy="36.3" r="1.4"/><circle id="circle4085" cx="55.1" cy="39.7" r="1.4"/><path id="path4087" d="M51.7,30.8c-0.8,0 -1.4,-0.6 -1.4,-1.4c0,-0.8 0.6,-1.4 1.4,-1.4c0.8,0 1.4,0.6 1.4,1.4c0,0.8 -0.6,1.4 -1.4,1.4Z" style="fill-rule:nonzero;"/><path id="path4089" d="M51.7,34.3c-0.8,-0 -1.4,-0.6 -1.4,-1.4c0,-0.8 0.6,-1.4 1.4,-1.4c0.8,-0 1.4,0.6 1.4,1.4c0,0.7 -0.6,1.4 -1.4,1.4Z" style="fill-rule:nonzero;"/><path id="path4091" d="M51.7,37.7c-0.8,0 -1.4,-0.6 -1.4,-1.4c0,-0.8 0.6,-1.4 1.4,-1.4c0.8,0 1.4,0.6 1.4,1.4c0,0.8 -0.6,1.4 -1.4,1.4Z" style="fill-rule:nonzero;"/><path id="path4093" d="M51.7,41.2c-0.8,0 -1.4,-0.6 -1.4,-1.4c0,-0.8 0.6,-1.4 1.4,-1.4c0.8,0 1.4,0.6 1.4,1.4c0,0.7 -0.6,1.4 -1.4,1.4Z" style="fill-rule:nonzero;"/><circle id="circle4095" cx="65.5" cy="43.2" r="1.4"/><circle id="circle4097" cx="65.5" cy="46.6" r="1.4"/><circle id="circle4099" cx="65.5" cy="50.1" r="1.4"/><circle id="circle4101" cx="62" cy="43.2" r="1.4"/><circle id="circle4103" cx="62" cy="46.6" r="1.4"/><circle id="circle4105" cx="62" cy="50.1" r="1.4"/><path id="path4107" d="M58.6,44.6c-0.8,0 -1.4,-0.6 -1.4,-1.4c0,-0.8 0.6,-1.4 1.4,-1.4c0.8,0 1.4,0.6 1.4,1.4c0,0.8 -0.6,1.4 -1.4,1.4Z" style="fill-rule:nonzero;"/><path id="path4109" d="M58.6,48c-0.8,0 -1.4,-0.6 -1.4,-1.4c0,-0.8 0.6,-1.4 1.4,-1.4c0.8,0 1.4,0.6 1.4,1.4c0,0.8 -0.6,1.4 -1.4,1.4Z" style="fill-rule:nonzero;"/><path id="path4111" d="M58.6,51.5c-0.8,0 -1.4,-0.6 -1.4,-1.4c0,-0.8 0.6,-1.4 1.4,-1.4c0.8,0 1.4,0.6 1.4,1.4c0,0.7 -0.6,1.4 -1.4,1.4Z" style="fill-rule:nonzero;"/><circle id="circle4113" cx="55.1" cy="43.2" r="1.4"/><circle id="circle4115" cx="55.1" cy="46.6" r="1.4"/><circle id="circle4117" cx="55.1" cy="50.1" r="1.4"/><path id="path4119" d="M51.7,44.6c-0.8,0 -1.4,-0.6 -1.4,-1.4c0,-0.8 0.6,-1.4 1.4,-1.4c0.8,0 1.4,0.6 1.4,1.4c0,0.8 -0.6,1.4 -1.4,1.4Z" style="fill-rule:nonzero;"/><path id="path4121" d="M51.7,48c-0.8,0 -1.4,-0.6 -1.4,-1.4c0,-0.8 0.6,-1.4 1.4,-1.4c0.8,0 1.4,0.6 1.4,1.4c0,0.8 -0.6,1.4 -1.4,1.4Z" style="fill-rule:nonzero;"/><path id="path4123" d="M51.7,51.5c-0.8,0 -1.4,-0.6 -1.4,-1.4c0,-0.8 0.6,-1.4 1.4,-1.4c0.8,0 1.4,0.6 1.4,1.4c0,0.7 -0.6,1.4 -1.4,1.4Z" style="fill-rule:nonzero;"/><path id="path4125" d="M48.3,54.8c-0.8,-0 -1.4,-0.6 -1.4,-1.4c-0,-0.8 0.6,-1.4 1.4,-1.4c0.8,-0 1.4,0.6 1.4,1.4c0,0.8 -0.6,1.4 -1.4,1.4Z" style="fill-rule:nonzero;"/><circle id="circle4127" cx="48.3" cy="56.8" r="1.4"/><circle id="circle4129" cx="48.3" cy="60.3" r="1.4"/><circle id="circle4131" cx="48.3" cy="63.7" r="1.4"/><path id="path4133" d="M44.9,54.8c-0.8,-0 -1.4,-0.6 -1.4,-1.4c0,-0.8 0.6,-1.4 1.4,-1.4c0.8,-0 1.4,0.6 1.4,1.4c0,0.8 -0.7,1.4 -1.4,1.4Z" style="fill-rule:nonzero;"/><circle id="circle4135" cx="44.9" cy="56.8" r="1.4"/><circle id="circle4137" cx="44.9" cy="60.3" r="1.4"/><circle id="circle4139" cx="44.9" cy="63.7" r="1.4"/><path id="path4141" d="M41.4,54.8c-0.8,-0 -1.4,-0.6 -1.4,-1.4c0,-0.8 0.6,-1.4 1.4,-1.4c0.8,-0 1.4,0.6 1.4,1.4c0,0.8 -0.6,1.4 -1.4,1.4Z" style="fill-rule:nonzero;"/><circle id="circle4143" cx="41.4" cy="56.8" r="1.4"/><circle id="circle4145" cx="41.4" cy="60.3" r="1.4"/><circle id="circle4147" cx="41.4" cy="63.7" r="1.4"/><path id="path4149" d="M38,54.8c-0.8,-0 -1.4,-0.6 -1.4,-1.4c0,-0.8 0.6,-1.4 1.4,-1.4c0.8,-0 1.4,0.6 1.4,1.4c0,0.8 -0.6,1.4 -1.4,1.4Z" style="fill-rule:nonzero;"/><path id="path4151" d="M38,58.3c-0.8,-0 -1.4,-0.6 -1.4,-1.4c0,-0.8 0.6,-1.4 1.4,-1.4c0.8,-0 1.4,0.6 1.4,1.4c0,0.7 -0.6,1.4 -1.4,1.4Z" style="fill-rule:nonzero;"/><path id="path4153" d="M38,61.7c-0.8,0 -1.4,-0.6 -1.4,-1.4c0,-0.8 0.6,-1.4 1.4,-1.4c0.8,0 1.4,0.6 1.4,1.4c0,0.8 -0.6,1.4 -1.4,1.4Z" style="fill-rule:nonzero;"/><path id="path4155" d="M38,65.1c-0.8,0 -1.4,-0.6 -1.4,-1.4c0,-0.8 0.6,-1.4 1.4,-1.4c0.8,0 1.4,0.6 1.4,1.4c0,0.8 -0.6,1.4 -1.4,1.4Z" style="fill-rule:nonzero;"/><path id="path4157" d="M34.5,54.8c-0.8,-0 -1.4,-0.6 -1.4,-1.4c0,-0.8 0.6,-1.4 1.4,-1.4c0.8,-0 1.4,0.6 1.4,1.4c0.1,0.8 -0.6,1.4 -1.4,1.4Z" style="fill-rule:nonzero;"/><path id="path4159" d="M34.5,58.3c-0.8,-0 -1.4,-0.6 -1.4,-1.4c0,-0.8 0.6,-1.4 1.4,-1.4c0.8,-0 1.4,0.6 1.4,1.4c0.1,0.7 -0.6,1.4 -1.4,1.4Z" style="fill-rule:nonzero;"/><path id="path4161" d="M34.5,61.7c-0.8,0 -1.4,-0.6 -1.4,-1.4c0,-0.8 0.6,-1.4 1.4,-1.4c0.8,0 1.4,0.6 1.4,1.4c0.1,0.8 -0.6,1.4 -1.4,1.4Z" style="fill-rule:nonzero;"/><path id="path4163" d="M34.5,65.1c-0.8,0 -1.4,-0.6 -1.4,-1.4c0,-0.8 0.6,-1.4 1.4,-1.4c0.8,0 1.4,0.6 1.4,1.4c0.1,0.8 -0.6,1.4 -1.4,1.4Z" style="fill-rule:nonzero;"/><path id="path4165" d="M31.1,54.8c-0.8,-0 -1.4,-0.6 -1.4,-1.4c0,-0.8 0.6,-1.4 1.4,-1.4c0.8,-0 1.4,0.6 1.4,1.4c0,0.8 -0.6,1.4 -1.4,1.4Z" style="fill-rule:nonzero;"/><circle id="circle4167" cx="31.1" cy="56.8" r="1.4"/><circle id="circle4169" cx="31.1" cy="60.3" r="1.4"/><circle id="circle4171" cx="31.1" cy="63.7" r="1.4"/><path id="path4173" d="M27.7,54.8c-0.8,-0 -1.4,-0.6 -1.4,-1.4c0,-0.8 0.6,-1.4 1.4,-1.4c0.8,-0 1.4,0.6 1.4,1.4c0,0.8 -0.7,1.4 -1.4,1.4Z" style="fill-rule:nonzero;"/><circle id="circle4175" cx="27.7" cy="56.8" r="1.4"/><circle id="circle4177" cx="27.7" cy="60.3" r="1.4"/><circle id="circle4179" cx="27.7" cy="63.7" r="1.4"/><path id="path4181" d="M24.2,54.8c-0.8,-0 -1.4,-0.6 -1.4,-1.4c0,-0.8 0.6,-1.4 1.4,-1.4c0.8,-0 1.4,0.6 1.4,1.4c0,0.8 -0.6,1.4 -1.4,1.4Z" style="fill-rule:nonzero;"/><circle id="circle4183" cx="24.2" cy="56.8" r="1.4"/><circle id="circle4185" cx="24.2" cy="60.3" r="1.4"/><circle id="circle4187" cx="24.2" cy="63.7" r="1.4"/><circle id="circle4189" cx="48.3" cy="67.2" r="1.4"/><circle id="circle4191" cx="48.3" cy="70.6" r="1.4"/><circle id="circle4193" cx="48.3" cy="74" r="1.4"/><circle id="circle4195" cx="44.9" cy="67.2" r="1.4"/><circle id="circle4197" cx="44.9" cy="70.6" r="1.4"/><circle id="circle4199" cx="44.9" cy="74" r="1.4"/><circle id="circle4201" cx="41.4" cy="67.2" r="1.4"/><circle id="circle4203" cx="41.4" cy="70.6" r="1.4"/><circle id="circle4205" cx="41.4" cy="74" r="1.4"/><path id="path4207" d="M38,68.6c-0.8,-0 -1.4,-0.6 -1.4,-1.4c0,-0.8 0.6,-1.4 1.4,-1.4c0.8,-0 1.4,0.6 1.4,1.4c0,0.7 -0.6,1.4 -1.4,1.4Z" style="fill-rule:nonzero;"/><path id="path4209" d="M38,72c-0.8,0 -1.4,-0.6 -1.4,-1.4c0,-0.8 0.6,-1.4 1.4,-1.4c0.8,0 1.4,0.6 1.4,1.4c0,0.8 -0.6,1.4 -1.4,1.4Z" style="fill-rule:nonzero;"/><path id="path4211" d="M38,75.5c-0.8,0 -1.4,-0.6 -1.4,-1.4c0,-0.8 0.6,-1.4 1.4,-1.4c0.8,0 1.4,0.6 1.4,1.4c0,0.7 -0.6,1.4 -1.4,1.4Z" style="fill-rule:nonzero;"/><path id="path4213" d="M34.5,68.6c-0.8,-0 -1.4,-0.6 -1.4,-1.4c0,-0.8 0.6,-1.4 1.4,-1.4c0.8,-0 1.4,0.6 1.4,1.4c0.1,0.7 -0.6,1.4 -1.4,1.4Z" style="fill-rule:nonzero;"/><path id="path4215" d="M34.5,72c-0.8,0 -1.4,-0.6 -1.4,-1.4c0,-0.8 0.6,-1.4 1.4,-1.4c0.8,0 1.4,0.6 1.4,1.4c0.1,0.8 -0.6,1.4 -1.4,1.4Z" style="fill-rule:nonzero;"/><path id="path4217" d="M34.5,75.5c-0.8,0 -1.4,-0.6 -1.4,-1.4c0,-0.8 0.6,-1.4 1.4,-1.4c0.8,0 1.4,0.6 1.4,1.4c0.1,0.7 -0.6,1.4 -1.4,1.4Z" style="fill-rule:nonzero;"/><circle id="circle4219" cx="31.1" cy="67.2" r="1.4"/><circle id="circle4221" cx="31.1" cy="70.6" r="1.4"/><circle id="circle4223" cx="31.1" cy="74" r="1.4"/><circle id="circle4225" cx="27.7" cy="67.2" r="1.4"/><circle id="circle4227" cx="27.7" cy="70.6" r="1.4"/><circle id="circle4229" cx="24.2" cy="67.2" r="1.4"/><circle id="circle4231" cx="24.2" cy="70.6" r="1.4"/><path id="path4233" d="M20.8,54.8c-0.8,-0 -1.4,-0.6 -1.4,-1.4c0,-0.8 0.6,-1.4 1.4,-1.4c0.8,-0 1.4,0.6 1.4,1.4c0,0.8 -0.6,1.4 -1.4,1.4Z" style="fill-rule:nonzero;"/><circle id="circle4235" cx="20.8" cy="56.8" r="1.4"/><circle id="circle4237" cx="20.8" cy="60.3" r="1.4"/><circle id="circle4239" cx="20.8" cy="63.7" r="1.4"/><path id="path4241" d="M17.3,54.8c-0.8,-0 -1.4,-0.6 -1.4,-1.4c0,-0.8 0.6,-1.4 1.4,-1.4c0.8,-0 1.4,0.6 1.4,1.4c0.1,0.8 -0.6,1.4 -1.4,1.4Z" style="fill-rule:nonzero;"/><circle id="circle4243" cx="17.3" cy="60.3" r="1.4"/><circle id="circle4245" cx="20.8" cy="67.2" r="1.4"/><path id="path4247" d="M75.7,54.8c-0.8,-0 -1.4,-0.6 -1.4,-1.4c0,-0.8 0.6,-1.4 1.4,-1.4c0.8,-0 1.4,0.6 1.4,1.4c0.1,0.8 -0.6,1.4 -1.4,1.4Z" style="fill-rule:nonzero;"/><path id="path4249" d="M72.3,54.8c-0.8,-0 -1.4,-0.6 -1.4,-1.4c0,-0.8 0.6,-1.4 1.4,-1.4c0.8,-0 1.4,0.6 1.4,1.4c0,0.8 -0.6,1.4 -1.4,1.4Z" style="fill-rule:nonzero;"/><path id="path4251" d="M68.9,54.8c-0.8,-0 -1.4,-0.6 -1.4,-1.4c0,-0.8 0.6,-1.4 1.4,-1.4c0.8,-0 1.4,0.6 1.4,1.4c-0,0.8 -0.7,1.4 -1.4,1.4Z" style="fill-rule:nonzero;"/><circle id="circle4253" cx="72.3" cy="74" r="1.4"/><circle id="circle4255" cx="68.9" cy="70.6" r="1.4"/><circle id="circle4257" cx="68.9" cy="74" r="1.4"/><path id="path4259" d="M65.4,54.8c-0.8,-0 -1.4,-0.6 -1.4,-1.4c0,-0.8 0.6,-1.4 1.4,-1.4c0.8,-0 1.4,0.6 1.4,1.4c-0,0.8 -0.6,1.4 -1.4,1.4Z" style="fill-rule:nonzero;"/><circle id="circle4261" cx="65.4" cy="56.8" r="1.4"/><circle id="circle4263" cx="65.4" cy="63.7" r="1.4"/><path id="path4265" d="M62,54.8c-0.8,-0 -1.4,-0.6 -1.4,-1.4c0,-0.8 0.6,-1.4 1.4,-1.4c0.8,-0 1.4,0.6 1.4,1.4c0,0.8 -0.6,1.4 -1.4,1.4Z" style="fill-rule:nonzero;"/><circle id="circle4267" cx="62" cy="56.8" r="1.4"/><circle id="circle4269" cx="62" cy="60.3" r="1.4"/><circle id="circle4271" cx="62" cy="63.7" r="1.4"/><path id="path4273" d="M58.5,54.8c-0.8,-0 -1.4,-0.6 -1.4,-1.4c0,-0.8 0.6,-1.4 1.4,-1.4c0.8,-0 1.4,0.6 1.4,1.4c0.1,0.8 -0.6,1.4 -1.4,1.4Z" style="fill-rule:nonzero;"/><path id="path4275" d="M58.5,58.3c-0.8,-0 -1.4,-0.6 -1.4,-1.4c0,-0.8 0.6,-1.4 1.4,-1.4c0.8,-0 1.4,0.6 1.4,1.4c0.1,0.7 -0.6,1.4 -1.4,1.4Z" style="fill-rule:nonzero;"/><path id="path4277" d="M58.5,61.7c-0.8,0 -1.4,-0.6 -1.4,-1.4c0,-0.8 0.6,-1.4 1.4,-1.4c0.8,0 1.4,0.6 1.4,1.4c0.1,0.8 -0.6,1.4 -1.4,1.4Z" style="fill-rule:nonzero;"/><path id="path4279" d="M58.5,65.1c-0.8,0 -1.4,-0.6 -1.4,-1.4c0,-0.8 0.6,-1.4 1.4,-1.4c0.8,0 1.4,0.6 1.4,1.4c0.1,0.8 -0.6,1.4 -1.4,1.4Z" style="fill-rule:nonzero;"/><path id="path4281" d="M55.1,54.8c-0.8,-0 -1.4,-0.6 -1.4,-1.4c0,-0.8 0.6,-1.4 1.4,-1.4c0.8,-0 1.4,0.6 1.4,1.4c0,0.8 -0.6,1.4 -1.4,1.4Z" style="fill-rule:nonzero;"/><circle id="circle4283" cx="55.1" cy="56.8" r="1.4"/><circle id="circle4285" cx="55.1" cy="60.3" r="1.4"/><circle id="circle4287" cx="55.1" cy="63.7" r="1.4"/><path id="path4289" d="M51.7,54.8c-0.8,-0 -1.4,-0.6 -1.4,-1.4c0,-0.8 0.6,-1.4 1.4,-1.4c0.8,-0 1.4,0.6 1.4,1.4c0,0.8 -0.6,1.4 -1.4,1.4Z" style="fill-rule:nonzero;"/><path id="path4291" d="M51.7,58.3c-0.8,-0 -1.4,-0.6 -1.4,-1.4c0,-0.8 0.6,-1.4 1.4,-1.4c0.8,-0 1.4,0.6 1.4,1.4c0,0.7 -0.6,1.4 -1.4,1.4Z" style="fill-rule:nonzero;"/><path id="path4293" d="M51.7,61.7c-0.8,0 -1.4,-0.6 -1.4,-1.4c0,-0.8 0.6,-1.4 1.4,-1.4c0.8,0 1.4,0.6 1.4,1.4c0,0.8 -0.6,1.4 -1.4,1.4Z" style="fill-rule:nonzero;"/><path id="path4295" d="M51.7,65.1c-0.8,0 -1.4,-0.6 -1.4,-1.4c0,-0.8 0.6,-1.4 1.4,-1.4c0.8,0 1.4,0.6 1.4,1.4c0,0.8 -0.6,1.4 -1.4,1.4Z" style="fill-rule:nonzero;"/><circle id="circle4297" cx="65.4" cy="67.2" r="1.4"/><circle id="circle4299" cx="65.4" cy="70.6" r="1.4"/><circle id="circle4301" cx="65.4" cy="74" r="1.4"/><circle id="circle4303" cx="62" cy="67.2" r="1.4"/><circle id="circle4305" cx="62" cy="70.6" r="1.4"/><circle id="circle4307" cx="62" cy="74" r="1.4"/><path id="path4309" d="M58.5,68.6c-0.8,-0 -1.4,-0.6 -1.4,-1.4c0,-0.8 0.6,-1.4 1.4,-1.4c0.8,-0 1.4,0.6 1.4,1.4c0.1,0.7 -0.6,1.4 -1.4,1.4Z" style="fill-rule:nonzero;"/><path id="path4311" d="M58.5,72c-0.8,0 -1.4,-0.6 -1.4,-1.4c0,-0.8 0.6,-1.4 1.4,-1.4c0.8,0 1.4,0.6 1.4,1.4c0.1,0.8 -0.6,1.4 -1.4,1.4Z" style="fill-rule:nonzero;"/><path id="path4313" d="M58.5,75.5c-0.8,0 -1.4,-0.6 -1.4,-1.4c0,-0.8 0.6,-1.4 1.4,-1.4c0.8,0 1.4,0.6 1.4,1.4c0.1,0.7 -0.6,1.4 -1.4,1.4Z" style="fill-rule:nonzero;"/><circle id="circle4315" cx="55.1" cy="67.2" r="1.4"/><circle id="circle4317" cx="55.1" cy="70.6" r="1.4"/><circle id="circle4319" cx="55.1" cy="74" r="1.4"/><path id="path4321" d="M51.7,68.6c-0.8,-0 -1.4,-0.6 -1.4,-1.4c0,-0.8 0.6,-1.4 1.4,-1.4c0.8,-0 1.4,0.6 1.4,1.4c0,0.7 -0.6,1.4 -1.4,1.4Z" style="fill-rule:nonzero;"/><path id="path4323" d="M51.7,72c-0.8,0 -1.4,-0.6 -1.4,-1.4c0,-0.8 0.6,-1.4 1.4,-1.4c0.8,0 1.4,0.6 1.4,1.4c0,0.8 -0.6,1.4 -1.4,1.4Z" style="fill-rule:nonzero;"/><path id="path4325" d="M51.7,75.5c-0.8,0 -1.4,-0.6 -1.4,-1.4c0,-0.8 0.6,-1.4 1.4,-1.4c0.8,0 1.4,0.6 1.4,1.4c0,0.7 -0.6,1.4 -1.4,1.4Z" style="fill-rule:nonzero;"/><path id="path4327" d="M48.4,78.9c-0.8,0 -1.4,-0.6 -1.4,-1.4c0,-0.8 0.6,-1.4 1.4,-1.4c0.8,0 1.4,0.6 1.4,1.4c0,0.8 -0.6,1.4 -1.4,1.4Z" style="fill-rule:nonzero;"/><circle id="circle4329" cx="48.4" cy="80.9" r="1.4"/><circle id="circle4331" cx="48.4" cy="84.4" r="1.4"/><circle id="circle4333" cx="48.4" cy="87.8" r="1.4"/><path id="path4335" d="M44.9,78.9c-0.8,0 -1.4,-0.6 -1.4,-1.4c0,-0.8 0.6,-1.4 1.4,-1.4c0.8,0 1.4,0.6 1.4,1.4c0.1,0.8 -0.6,1.4 -1.4,1.4Z" style="fill-rule:nonzero;"/><circle id="circle4337" cx="44.9" cy="80.9" r="1.4"/><circle id="circle4339" cx="44.9" cy="84.4" r="1.4"/><circle id="circle4341" cx="44.9" cy="87.8" r="1.4"/><path id="path4343" d="M41.5,78.9c-0.8,0 -1.4,-0.6 -1.4,-1.4c0,-0.8 0.6,-1.4 1.4,-1.4c0.8,0 1.4,0.6 1.4,1.4c0,0.8 -0.6,1.4 -1.4,1.4Z" style="fill-rule:nonzero;"/><circle id="circle4345" cx="41.5" cy="80.9" r="1.4"/><circle id="circle4347" cx="41.5" cy="84.4" r="1.4"/><circle id="circle4349" cx="41.5" cy="87.8" r="1.4"/><path id="path4351" d="M38.1,78.9c-0.8,0 -1.4,-0.6 -1.4,-1.4c0,-0.8 0.6,-1.4 1.4,-1.4c0.8,0 1.4,0.6 1.4,1.4c0,0.8 -0.7,1.4 -1.4,1.4Z" style="fill-rule:nonzero;"/><path id="path4353" d="M38.1,82.3c-0.8,0 -1.4,-0.6 -1.4,-1.4c0,-0.8 0.6,-1.4 1.4,-1.4c0.8,0 1.4,0.6 1.4,1.4c0,0.8 -0.7,1.4 -1.4,1.4Z" style="fill-rule:nonzero;"/><path id="path4355" d="M38.1,85.8c-0.8,0 -1.4,-0.6 -1.4,-1.4c0,-0.8 0.6,-1.4 1.4,-1.4c0.8,0 1.4,0.6 1.4,1.4c0,0.7 -0.7,1.4 -1.4,1.4Z" style="fill-rule:nonzero;"/><path id="path4357" d="M38.1,89.2c-0.8,0 -1.4,-0.6 -1.4,-1.4c0,-0.8 0.6,-1.4 1.4,-1.4c0.8,0 1.4,0.6 1.4,1.4c0,0.8 -0.7,1.4 -1.4,1.4Z" style="fill-rule:nonzero;"/><path id="path4359" d="M34.6,78.9c-0.8,0 -1.4,-0.6 -1.4,-1.4c0,-0.8 0.6,-1.4 1.4,-1.4c0.8,0 1.4,0.6 1.4,1.4c0,0.8 -0.6,1.4 -1.4,1.4Z" style="fill-rule:nonzero;"/><path id="path4361" d="M34.6,82.3c-0.8,0 -1.4,-0.6 -1.4,-1.4c0,-0.8 0.6,-1.4 1.4,-1.4c0.8,0 1.4,0.6 1.4,1.4c0,0.8 -0.6,1.4 -1.4,1.4Z" style="fill-rule:nonzero;"/><path id="path4363" d="M34.6,85.8c-0.8,0 -1.4,-0.6 -1.4,-1.4c0,-0.8 0.6,-1.4 1.4,-1.4c0.8,0 1.4,0.6 1.4,1.4c0,0.7 -0.6,1.4 -1.4,1.4Z" style="fill-rule:nonzero;"/><path id="path4365" d="M34.6,89.2c-0.8,0 -1.4,-0.6 -1.4,-1.4c0,-0.8 0.6,-1.4 1.4,-1.4c0.8,0 1.4,0.6 1.4,1.4c0,0.8 -0.6,1.4 -1.4,1.4Z" style="fill-rule:nonzero;"/><path id="path4367" d="M31.2,78.9c-0.8,0 -1.4,-0.6 -1.4,-1.4c0,-0.8 0.6,-1.4 1.4,-1.4c0.8,0 1.4,0.6 1.4,1.4c0,0.8 -0.6,1.4 -1.4,1.4Z" style="fill-rule:nonzero;"/><circle id="circle4369" cx="31.2" cy="80.9" r="1.4"/><circle id="circle4371" cx="31.2" cy="84.4" r="1.4"/><circle id="circle4373" cx="31.2" cy="87.8" r="1.4"/><circle id="circle4375" cx="27.7" cy="80.9" r="1.4"/><circle id="circle4377" cx="27.7" cy="84.4" r="1.4"/><circle id="circle4379" cx="27.7" cy="87.8" r="1.4"/><circle id="circle4381" cx="48.4" cy="91.2" r="1.4"/><circle id="circle4383" cx="48.4" cy="94.7" r="1.4"/><circle id="circle4385" cx="44.9" cy="91.2" r="1.4"/><circle id="circle4387" cx="31.2" cy="91.2" r="1.4"/><circle id="circle4389" cx="27.7" cy="91.2" r="1.4"/><path id="path4391" d="M75.8,78.9c-0.8,0 -1.4,-0.6 -1.4,-1.4c0,-0.8 0.6,-1.4 1.4,-1.4c0.8,0 1.4,0.6 1.4,1.4c0,0.8 -0.6,1.4 -1.4,1.4Z" style="fill-rule:nonzero;"/><path id="path4393" d="M72.4,78.9c-0.8,0 -1.4,-0.6 -1.4,-1.4c0,-0.8 0.6,-1.4 1.4,-1.4c0.8,0 1.4,0.6 1.4,1.4c-0,0.8 -0.6,1.4 -1.4,1.4Z" style="fill-rule:nonzero;"/><path id="path4395" d="M68.9,78.9c-0.8,0 -1.4,-0.6 -1.4,-1.4c0,-0.8 0.6,-1.4 1.4,-1.4c0.8,0 1.4,0.6 1.4,1.4c0,0.8 -0.6,1.4 -1.4,1.4Z" style="fill-rule:nonzero;"/><circle id="circle4397" cx="68.9" cy="80.9" r="1.4"/><circle id="circle4399" cx="68.9" cy="84.4" r="1.4"/><circle id="circle4401" cx="68.9" cy="87.8" r="1.4"/><circle id="circle4403" cx="68.9" cy="91.2" r="1.4"/><path id="path4405" d="M65.5,78.9c-0.8,0 -1.4,-0.6 -1.4,-1.4c0,-0.8 0.6,-1.4 1.4,-1.4c0.8,0 1.4,0.6 1.4,1.4c0,0.8 -0.6,1.4 -1.4,1.4Z" style="fill-rule:nonzero;"/><circle id="circle4407" cx="65.5" cy="80.9" r="1.4"/><circle id="circle4409" cx="65.5" cy="84.4" r="1.4"/><circle id="circle4411" cx="65.5" cy="87.8" r="1.4"/><path id="path4413" d="M62.1,78.9c-0.8,0 -1.4,-0.6 -1.4,-1.4c0,-0.8 0.6,-1.4 1.4,-1.4c0.8,0 1.4,0.6 1.4,1.4c0,0.8 -0.6,1.4 -1.4,1.4Z" style="fill-rule:nonzero;"/><circle id="circle4415" cx="62.1" cy="80.9" r="1.4"/><circle id="circle4417" cx="62.1" cy="84.4" r="1.4"/><circle id="circle4419" cx="62.1" cy="87.8" r="1.4"/><path id="path4421" d="M58.6,78.9c-0.8,0 -1.4,-0.6 -1.4,-1.4c0,-0.8 0.6,-1.4 1.4,-1.4c0.8,0 1.4,0.6 1.4,1.4c0.1,0.8 -0.6,1.4 -1.4,1.4Z" style="fill-rule:nonzero;"/><path id="path4423" d="M58.6,82.3c-0.8,0 -1.4,-0.6 -1.4,-1.4c0,-0.8 0.6,-1.4 1.4,-1.4c0.8,0 1.4,0.6 1.4,1.4c0.1,0.8 -0.6,1.4 -1.4,1.4Z" style="fill-rule:nonzero;"/><path id="path4425" d="M58.6,85.8c-0.8,0 -1.4,-0.6 -1.4,-1.4c0,-0.8 0.6,-1.4 1.4,-1.4c0.8,0 1.4,0.6 1.4,1.4c0.1,0.7 -0.6,1.4 -1.4,1.4Z" style="fill-rule:nonzero;"/><path id="path4427" d="M58.6,89.2c-0.8,0 -1.4,-0.6 -1.4,-1.4c0,-0.8 0.6,-1.4 1.4,-1.4c0.8,0 1.4,0.6 1.4,1.4c0.1,0.8 -0.6,1.4 -1.4,1.4Z" style="fill-rule:nonzero;"/><path id="path4429" d="M55.2,78.9c-0.8,0 -1.4,-0.6 -1.4,-1.4c0,-0.8 0.6,-1.4 1.4,-1.4c0.8,0 1.4,0.6 1.4,1.4c0,0.8 -0.6,1.4 -1.4,1.4Z" style="fill-rule:nonzero;"/><circle id="circle4431" cx="55.2" cy="80.9" r="1.4"/><circle id="circle4433" cx="55.2" cy="84.4" r="1.4"/><circle id="circle4435" cx="55.2" cy="87.8" r="1.4"/><path id="path4437" d="M51.7,78.9c-0.8,0 -1.4,-0.6 -1.4,-1.4c0,-0.8 0.6,-1.4 1.4,-1.4c0.8,0 1.4,0.6 1.4,1.4c0,0.8 -0.6,1.4 -1.4,1.4Z" style="fill-rule:nonzero;"/><path id="path4439" d="M51.7,82.3c-0.8,0 -1.4,-0.6 -1.4,-1.4c0,-0.8 0.6,-1.4 1.4,-1.4c0.8,0 1.4,0.6 1.4,1.4c0.1,0.8 -0.6,1.4 -1.4,1.4Z" style="fill-rule:nonzero;"/><path id="path4441" d="M51.7,85.8c-0.8,0 -1.4,-0.6 -1.4,-1.4c0,-0.8 0.6,-1.4 1.4,-1.4c0.8,0 1.4,0.6 1.4,1.4c0.1,0.7 -0.6,1.4 -1.4,1.4Z" style="fill-rule:nonzero;"/><path id="path4443" d="M51.7,89.2c-0.8,0 -1.4,-0.6 -1.4,-1.4c0,-0.8 0.6,-1.4 1.4,-1.4c0.8,0 1.4,0.6 1.4,1.4c0.1,0.8 -0.6,1.4 -1.4,1.4Z" style="fill-rule:nonzero;"/><path id="path4445" d="M58.6,92.7c-0.8,0 -1.4,-0.6 -1.4,-1.4c0,-0.8 0.6,-1.4 1.4,-1.4c0.8,0 1.4,0.6 1.4,1.4c0.1,0.7 -0.6,1.4 -1.4,1.4Z" style="fill-rule:nonzero;"/><circle id="circle4447" cx="55.2" cy="91.2" r="1.4"/><path id="path4449" d="M51.7,92.7c-0.8,0 -1.4,-0.6 -1.4,-1.4c0,-0.8 0.6,-1.4 1.4,-1.4c0.8,0 1.4,0.6 1.4,1.4c0.1,0.7 -0.6,1.4 -1.4,1.4Z" style="fill-rule:nonzero;"/></svg>