<?xml version="1.0" encoding="UTF-8" standalone="no"?>
<!DOCTYPE svg PUBLIC "-//W3C//DTD SVG 1.1//EN" "http://www.w3.org/Graphics/SVG/1.1/DTD/svg11.dtd">
<svg width="100%" height="100%" viewBox="0 0 1024 1024" version="1.1" xmlns="http://www.w3.org/2000/svg" xmlns:xlink="http://www.w3.org/1999/xlink" xml:space="preserve" xmlns:serif="http://www.serif.com/" style="fill-rule:evenodd;clip-rule:evenodd;stroke-linecap:round;stroke-linejoin:round;stroke-miterlimit:1.5;">
    <g id="roof">
        <path id="innerHandLines" class="path" d="M461.001,834.076C460.148,833.903 467.342,822.999 467.681,822.517C472.655,815.438 477.756,808.456 482.94,801.528C498.753,780.394 514.586,759.238 531.091,738.638C600.557,651.938 677.267,572.733 753.838,492.45C770.822,474.643 788.806,457.475 804.699,438.662C808.851,433.747 818.566,424.007 812.63,417.237C804.812,408.321 786.243,411.721 776.323,413.138C743.386,417.845 710.725,427.064 678.797,436.198C642.863,446.478 607.36,458.105 570.969,466.758C547.051,472.445 521.394,475.007 498.175,483.217C488.699,486.568 481.202,494.011 472.795,499.325C459.472,507.746 445.53,514.887 431.208,521.447C399.054,536.174 363.281,543.292 330.131,555.736C300.592,566.824 269.629,570.444 239.047,577.444C193.062,587.969 148.098,599.837 101.589,608.331C83.12,611.704 63.451,614.416 46.928,623.963C43.864,625.734 32.06,631.429 33.965,636.675C35.969,642.195 49.689,638.35 53.245,637.451C73.546,632.317 93.284,626.14 114.166,623.709C137.608,620.981 160.835,620.433 183.662,613.666C213.219,604.903 238.386,587.835 266.827,576.797C300.089,563.887 337.005,557.402 372.333,553.276C405.815,549.364 439.417,547.341 472.391,539.82C506.644,532.008 539.299,519.165 573.446,511.31C602.505,504.625 632.445,503.522 661.553,496.058C683.151,490.519 706.924,486.985 727.655,478.741C730.466,477.623 746.941,471.492 743.681,466.069C739.278,458.744 694.247,467.612 686.831,469.025C658.341,474.452 619.026,477.137 595.071,495.221C574.944,510.415 570.231,537.36 545.001,547.176C521.198,556.437 496.461,553.341 472.341,559.483C430.974,570.017 392.575,587.926 350.114,595.855C293.869,606.358 237.006,605.494 181.113,619.763C138.63,630.607 96.612,643.618 54.913,657.14C49.863,658.777 18.861,670.926 16.606,663.671C14.204,655.941 30.617,650.551 35.171,648.682C46.594,643.995 57.909,643.637 69.548,640.27C81.679,636.761 93.029,630.729 104.665,625.896C126.305,616.907 149.461,612.897 171.092,604.119C189.354,596.707 205.173,585.204 224.314,580.148C290.196,562.747 359.297,557.07 425.431,540.617C444.345,535.912 463.361,529.7 480.41,520.102C495.306,511.716 509.533,499.742 525.988,494.504C548.532,487.328 575.023,494.972 596.417,483.743C609.907,476.663 616.04,463.582 626.942,453.918C638.189,443.948 679.272,433.17 693.544,438.486C707.068,443.524 651.588,470.217 663.17,471.255C673.606,472.19 686.271,465.656 695.97,462.715C719.711,455.517 743.8,448.296 766.815,438.993C779.297,433.948 789.584,425.193 801.624,419.461C802.342,419.119 804.596,417.885 805.315,418.881C807.094,421.347 799.257,429.039 797.902,430.562C787.882,441.827 776.248,451.692 765.564,462.313C748.262,479.512 732.368,499.688 710.462,511.262C688.033,523.111 659.122,525.776 634.836,532.694C627.222,534.862 587.19,547.008 581.853,539.48C579.2,535.738 603.086,529.686 607.453,528.526C633.336,521.651 659.463,514.968 685.801,510.207C691.085,509.252 709.359,503.794 709.241,513.873C708.615,567.296 611.33,561.34 578.153,573.672C565.611,578.334 531.52,599.687 545.238,616.732C553.295,626.742 569.536,623.367 580.063,620.532C608.571,612.853 637.672,596.578 662.403,580.497C667.954,576.887 691.238,560.872 689.848,553.579C688.622,547.147 648.392,557.089 642.689,558.343C619.178,563.513 593.067,565.953 570.784,575.421C549.513,584.459 530.93,608.117 504.141,598.848C494.611,595.551 514.912,586.803 516.952,585.903C536.647,577.22 557.555,571.23 576.586,561.092C579.429,559.578 597.067,549.78 591.401,544.287C584.841,537.927 562.96,545.084 555.334,546.244C523.374,551.107 473.332,568.064 457.202,599.762C446.775,620.253 502.428,595.373 486.312,613.891C484.389,616.101 482.404,618.247 480.208,620.188C458.942,638.983 425.238,649.01 398.489,656.77C395.221,657.718 369.848,663.544 369.826,666.533C369.818,667.593 372.106,667.789 372.767,667.909C385.306,670.182 398.884,666.613 411.057,664.027C441.483,657.563 473.444,650.822 501.875,637.837C506.81,635.582 535.795,616.564 538.329,616.904C538.707,616.955 532.514,623.124 532.027,623.529C527.348,627.425 522.406,631.083 517.386,634.524C499.366,646.875 480.387,657.606 462.929,670.824C460.613,672.577 446.626,682.363 450.375,686.688C456.081,693.273 479.966,688.741 484.912,682.892C489.131,677.902 486.634,668.762 486.209,662.905C486.165,662.307 486.107,661.444 486.837,661.245C492.035,659.828 505.105,669.831 510.417,671.368C526.727,676.086 544.417,676.011 560.557,670.701C573.362,666.489 583.882,659.408 595.092,652.16C596.385,651.324 604.054,645.511 605.456,648.418C609.23,656.246 581.925,682.455 576.417,687.015C548.123,710.44 512.709,718.918 477.328,725.725C464.464,728.199 446.579,733.239 433.478,730.038C416.256,725.83 468.353,689.58 469.77,689.821C472.872,690.35 465.822,700.541 465.317,701.257C457.485,712.381 448.389,722.232 437.965,730.979C413.889,751.181 384.096,763.773 356.72,778.762C352.465,781.092 332.534,794.197 327.662,789.625C321.824,784.146 335.514,768.665 338.515,765.377C355.376,746.903 379.226,735.509 403.608,731.057C446.992,723.134 391.379,766.47 404.957,770.272C427.001,776.446 459.674,767.801 481.224,762.227C485.562,761.105 504.236,752.848 507.312,759.648C511.475,768.851 491.251,786.737 485.556,791.891C462.704,812.572 408.423,836.107 377.798,824.441C356.83,816.454 377.103,793.281 386.393,784.852C388.765,782.7 406.549,765.988 399.51,768.326C387.094,772.45 381.363,786.385 367.39,790.154C344.655,796.285 319.081,788.189 298.105,800.935C275.442,814.707 277.341,836.082 242.226,851.599C232.592,855.856 186.593,872.702 180.385,859.934C175.514,849.916 197.736,833.084 203.668,827.726C213.892,818.493 222.527,807.089 237.012,804.726C244.155,803.561 252.066,806.401 259.008,807.817C279.425,811.981 298.248,808.674 315.545,796.793C322.954,791.705 353.903,768.662 348.268,758.233C341.999,746.632 302.437,757.486 292.548,761.327C271.274,769.59 264.467,788.384 248.587,802.484C235.147,814.418 193.513,819.553 177.04,814.471C168.783,811.923 177.85,805.837 181.348,803.224C186.24,799.571 213.77,783.261 212.415,777.067C211.223,771.615 196.922,774.826 193.982,775.493C183.589,777.849 147.391,787.993 139.945,779.321C132.338,770.46 155.66,754.18 160.834,749.872C161.504,749.314 171.785,740.358 169.875,739.518C166.094,737.855 156.093,744.754 152.916,746.237C138.19,753.109 123.417,760.784 109.145,768.559C105.846,770.356 96.958,774.138 96.462,778.7C95.447,788.028 141.095,768.014 126.132,786.171C110.66,804.947 89.39,808.87 70.453,822.527C67.603,824.582 53.466,834.06 57.012,839.1C59.479,842.606 68.704,840.063 71.909,839.442C85.338,836.842 105.166,832.237 116.178,823.717C127.784,814.738 99.175,811.75 101.459,813.772C118.66,829.002 162.596,815.878 184.057,816.31C190.333,816.437 209.431,815.681 212.876,822.632C216.613,830.173 185.707,841.814 181.128,843.177C171.075,846.168 160.703,849.076 150.123,849.034C136.894,848.982 123.455,842.621 110.708,848.753C94.071,856.756 85.184,868.044 65.25,870.428C62.273,870.784 51.217,873.102 49.025,869.756C48.637,869.163 49.324,868.541 49.748,868.224C55.213,864.134 64.013,863.752 70.405,862.199C85.217,858.6 100.652,853.47 113.114,844.472C116.628,841.935 124.414,835.765 121.17,830.45C117.619,824.631 104.413,826.928 99.109,827.616C76.772,830.513 55.021,839.09 33.311,844.836C26.437,846.655 10.259,852.276 6.04,843.113C1.514,833.281 7.39,819.14 11.362,810.158C23.3,783.158 42.548,763.631 69.008,750.719C72.729,748.903 101.715,735.624 104.518,738.065C106.802,740.055 91.314,749.933 90.321,750.575C75.278,760.313 59.371,769.115 45.098,779.985C43.309,781.348 32.373,789.58 35.515,792.899C38.858,796.43 62.822,786.665 66.6,784.92C101.3,768.887 111.444,759.723 150.172,750.761C156.245,749.355 174.191,746.97 175.244,738.576C176.607,727.717 137.878,736.222 137.204,733.02C136.599,730.14 146.322,724.897 148.094,723.66C157.212,717.3 176.321,708.609 182.265,698.927C184.277,695.65 168.921,699.635 168.966,695.788C169.018,691.394 185.622,679.434 188.889,683.217C191.762,686.545 182.96,693.433 187.207,696.487C191.515,699.583 201.533,696.444 206.079,695.703C222.139,693.085 238.326,691.612 254.374,689.022C257.557,688.508 274.727,684.146 277.114,687.767C281.334,694.167 239.907,708.771 244.66,717.569C248.478,724.634 266.144,722.331 272.405,721.745C293.919,719.734 337.032,700.119 344.433,678.013C349.885,661.726 303.621,673.5 298.065,675.27C297.026,675.602 284.59,679.226 285.12,680.953C285.186,681.168 285.589,681.205 285.759,681.221C294.078,682.026 304.66,677.226 312.421,674.831C335.959,667.569 351.825,656.195 369.612,639.193C373.477,635.498 385.671,627.249 384.034,620.589C382.084,612.654 350.695,622.906 346.189,624.427C310.773,636.378 314.43,643.782 288.388,661.255C274.07,670.863 256.893,676.652 240.532,681.661C235.442,683.22 192.65,695.785 193.465,683.93C193.997,676.202 205.374,670.028 210.955,666.353C231.626,652.743 254.264,647.161 278.533,643.946C285.371,643.04 300.445,643.722 305.394,637.815C311.986,629.944 277.967,638.01 280.188,633.655C283.628,626.911 294.769,622.112 300.701,617.92C323.171,602.043 342.035,593.122 369.552,587.686C376.631,586.288 394.774,580.031 401.689,584.556C403.082,585.468 400.937,587.253 400.303,587.904C397.775,590.502 364.867,612.34 378.148,616.554C391.482,620.785 439.633,608.373 457.878,604.908C465.123,603.533 472.675,602.567 479.812,600.758C482.637,600.042 485.593,599.166 488.236,597.918C488.368,597.856 490.579,596.625 490.593,597.062C490.97,608.919 477.326,616.56 466.709,624.688C446.665,640.032 423.278,649.295 398.712,654.801C385.838,657.686 372.837,658.36 360.594,663.667C353.458,666.761 320.065,690.563 322.166,699.143C323.566,704.858 349.497,701.441 353.991,700.952C380.944,698.025 398.694,692.848 419.974,674.696C424.27,671.031 435.677,663.661 436.705,657.512C436.731,657.356 423.312,666.115 421.968,667.161C413.593,673.676 400.958,681.663 394.97,690.506C394.694,690.914 394.085,691.704 394.388,692.235C395.607,694.377 405.867,691.268 407.582,690.941C411.788,690.14 448.186,685.59 450.16,687.443C451.435,688.639 446.672,687.235 444.927,687.153C441.236,686.979 437.555,687.03 433.867,687.259C421.887,688.005 409.545,690.046 401.761,700.033C365.981,745.938 354.204,757.263 293.839,763.227C285.745,764.027 254.058,766.868 248.454,761.308C243.687,756.579 264.997,749.127 266.646,748.531C287.258,741.081 309.327,737.104 328.937,727.013C331.755,725.562 346.855,718.216 342.385,712.786C334.186,702.828 307.53,713.119 298.325,715.466C286.58,718.461 271.772,721.258 262.432,729.554C252.575,738.308 247.994,752.158 236.484,759.163C223.74,766.92 207.399,767.024 193.018,768.27C186.456,768.838 152.614,774.992 149.357,769.244C145.361,762.189 163.72,749.001 167.68,746.207C195.183,726.803 234.962,732.997 251.368,720.965C256.515,717.189 276.239,694.344 271.541,688.316C265.116,680.07 230.533,686.461 221.676,688.102C197.278,692.621 163.637,689.322 141.961,702.551C124.647,713.118 117.036,734.301 99.96,744.592C85.476,753.32 55.541,742.488 37.703,746.056C32.748,747.047 16.958,750.518 18.52,758.371C21.078,771.227 47.798,763.729 54.659,760.882C80.622,750.114 107.648,732.898 127.909,713.5C132.136,709.454 146.858,698.728 146.563,692.023C146.394,688.177 126.371,695.991 124.71,696.606C116.902,699.502 29.415,732.886 76.006,702.026C79.713,699.571 83.486,697.213 87.296,694.921C107.896,682.525 124.74,672.827 148.548,668.358C151.618,667.782 167.504,663.919 169.478,667.757C171.3,671.301 155.325,683.699 152.847,686.089C152.73,686.201 150.958,687.764 151.019,687.877C151.117,688.058 160.407,678.175 160.903,677.587C167.005,670.355 173.613,664.602 182.356,660.816C203.052,651.854 233.84,655.436 257.017,648.697C264.683,646.468 282.338,641.917 278.606,638.957C274.763,635.909 263.983,638.997 259.821,639.634C248.757,641.329 209.442,655.006 202.372,653.306C200.687,652.901 200.937,651.426 201.616,650.204C207.979,638.764 222.885,633.691 228.989,622.381C229.082,622.207 229.228,621.89 229.292,621.697C229.517,621.024 229.434,620.333 228.768,619.97C223.727,617.218 211.135,622.503 206.348,624.008C187.028,630.083 165.764,637.115 149.65,649.839C145.925,652.781 136.255,660.862 137.547,666.491C138.728,671.641 151.022,669.577 154.32,669.329C169.042,668.219 185.132,664.341 197.724,656.354C200.443,654.629 209.106,649.002 207.317,644.705C204.608,638.201 166.02,647.727 159.662,648.646C118.783,654.552 79.543,663.302 39.567,674.019C28.995,676.853 0.525,680.795 2.499,697.898C3.673,708.07 21.315,701.401 26.795,700.138C47.132,695.451 66.747,686.673 86.654,680.394C89.94,679.357 104.298,672.984 107.374,677.087C109.982,680.566 95.034,689.508 93.086,690.864C75.522,703.086 57.996,714.92 38.715,724.28C28.112,729.427 13.954,742.879 2.225,744.184C1.291,744.288 0.504,744.11 0.266,743.113C-1.922,733.929 6.831,721.454 9.417,713.004C10.006,711.081 9.783,696.24 10.149,696.022C17.895,691.41 34.731,694.679 43.62,692.76C59.238,689.388 73.431,681.236 89.108,677.62C102.566,674.516 116.93,675.785 130.115,671.861C147.509,666.684 152.001,646.48 167.901,638.495C182.532,631.148 199.632,625.177 215.633,621.768C223.616,620.068 232.187,620.678 240.018,618.372C246.671,616.413 252.286,611.77 258.653,609.078C281.185,599.553 304.405,598.939 324.719,583.211C329.977,579.14 340.446,572.032 340.083,564.269C339.585,553.587 300.431,568.718 295.205,570.101C258.708,579.76 220.992,583.185 184.646,594.06C178.316,595.955 146.579,609.515 141.77,607.934C140.717,607.587 142.713,605.573 143.01,605.262C149.592,598.375 157.263,591.127 165.407,586.14C186.666,573.124 214.29,576.085 237.101,566.433C239.713,565.328 260.147,555.753 255.151,550.316C250.46,545.212 222.983,555.715 217.599,557.914C199.917,565.135 187.103,578.782 170.227,586.262C149.06,595.644 124.243,598.243 102.154,605.214C94.607,607.596 55.756,620.196 52.722,607.552C49.278,593.204 94.223,576.332 98.009,583.337C100.519,587.984 69.414,602.263 65.39,598.977C62.579,596.681 79.614,589.06 80.778,588.593C99.377,581.119 119.139,575.718 138.739,571.612C166.862,565.719 195.306,560.554 222.932,552.57C233.417,549.54 251.389,540.481 262.529,544.2C267.597,545.893 254.692,555.361 262.07,557.857C278.319,563.352 302.75,551.82 312.772,538.997C323.215,525.634 285.192,533.733 281.833,534.962C281.534,535.071 277.125,536.965 277.889,537.8C280.225,540.357 291.595,538.307 294.493,538.055C311.199,536.601 327.388,530.984 343.102,525.428C345.683,524.515 361.281,516.96 362.914,521.939C365.377,529.447 328.395,543.228 323.087,545.426C322.189,545.798 308.81,550.416 309.499,551.227C312.995,555.341 329.925,550.904 334.09,550.291C357.144,546.902 376.558,537.849 396.427,526.022C400.806,523.415 414.582,517.408 414.229,510.883C413.977,506.216 403.451,508.059 400.957,508.249C387.055,509.31 373.699,512.275 360.316,516.042C355.854,517.298 351.395,518.558 346.95,519.873C344.567,520.579 337.698,520.699 339.808,522.012C343.195,524.117 355.845,519.041 359.075,518.16C377.072,513.254 395.33,509.367 413.358,504.572C484.364,485.687 554.58,463.593 625.67,445.021C676.09,431.849 728.947,425.162 780.745,420.077C795.133,418.665 822.775,409.356 817.154,389.066C813.846,377.123 788.369,385.367 780.966,386.905C742.584,394.879 704.718,405.028 666.22,412.513C636.63,418.267 606.894,423.266 578.105,432.43C541.317,444.141 506.28,459.836 469.023,470.303C377.002,496.157 283.386,515.18 191.374,541.084C150.492,552.594 108.982,561.718 67.856,572.293C51.785,576.425 35.765,580.902 19.546,584.434C18.394,584.685 4.644,588.09 4.655,585.41C4.672,581.017 20.184,575.798 23.073,574.469C44.091,564.804 66.71,558.332 88.985,552.306C141.46,538.111 194.204,523.799 247.603,513.487C287.857,505.714 328.861,501.853 368.849,492.783C420.769,481.007 469.951,459.639 521.919,447.873C579.475,434.842 638.434,431.887 695.91,418.807C728.951,411.288 761.407,401.403 794.46,393.874C806.159,391.209 824.288,384.008 836.525,386.871C843.622,388.532 843.601,402.394 846.04,408.061C855.793,430.715 863.576,454.906 871.937,478.14C886.659,519.046 908.981,554.312 929.559,592.396C943.549,618.288 955.233,645.517 969.78,671.074C980.751,690.35 990.467,710.233 1001.18,729.644C1005.25,737.009 1014.39,748.06 1014.64,756.812C1014.92,766.801 998.459,764.763 993.037,762.454C978.077,756.086 963.237,736.42 955.175,723.127C940.218,698.466 932.746,670.303 919.027,645.144C908.906,626.582 893.823,611.674 882.95,593.574C866.671,566.473 856.024,536.708 845.734,506.976C839.262,488.277 833.923,469.182 827.979,450.311C825.894,443.691 823.941,437.011 822.183,430.297C822.039,429.75 819.48,420.405 820.025,420.44C822.015,420.565 825.727,431.606 826.354,433.035C832.456,446.95 838.849,460.973 844.165,475.206C856.723,508.826 873.183,539.171 893.107,569.063C910.423,595.042 929.741,616.999 938.875,647.539C948.123,678.457 967.836,707.27 983.307,735.493C984.923,738.441 998.025,762.137 993.073,763.925C988.028,765.747 980.118,753.35 978.036,750.489C965.734,733.593 954.133,716.242 941.657,699.448C910.56,657.59 871.98,625.692 853.359,575.386C842.288,545.478 835.641,475.162 805.911,458.137C803.981,457.033 801.896,456.303 799.722,455.859C772.926,450.385 797.352,485.15 800.133,491.322C801.146,493.57 804.822,502.087 800.925,503.57C793.807,506.279 783.226,481.941 788.221,480.61C794.851,478.844 802.801,494.862 805.027,498.943C817.785,522.344 820.392,547.223 826.983,572.591C835.256,604.437 861.694,624.782 877.263,652.624C889.754,674.961 897.076,699.4 908.713,722.07C920.598,745.222 936.948,765.662 949.821,788.216C958.369,803.193 963.218,819.588 971.067,834.851" style="fill:none;stroke:rgb(0,0,7);stroke-width:8px;"/>
    </g>
    <g id="men">
        <path class="path" d="M653.797,417.664C653.664,417.206 673.407,416.252 674.715,416.139C681.45,415.558 728.624,405.926 728.96,397.014C729.176,391.296 688.219,393.69 683.141,385.124C682.156,383.461 693.157,375.541 694.261,374.194C700.419,366.684 707.985,342.235 719.292,359.651C734.499,383.072 694.27,393.541 678.615,397.497C673.953,398.675 660.201,402.512 661.75,409.743C663.186,416.45 674.611,414.694 679.245,414.176C691.775,412.775 717.703,409.955 723.902,396.526C733.792,375.1 688.609,394.74 680.002,383.201C672.209,372.753 700.657,367.839 693.774,357.952C690.824,353.714 681.319,354.487 678.416,358.379C676.54,360.893 682.584,370.128 682.133,367.024C680.936,358.794 638.28,314.648 646.566,296.878C648.038,293.722 657.678,313.181 658.483,314.706C666.389,329.684 678.501,337.724 692.293,346.43C693.982,347.496 703.486,355.316 705.517,353.189C708.162,350.419 700.089,338.47 698.8,336.114C693.702,326.794 674.45,289.886 664.067,288.452C662.053,288.173 663.797,291.035 664.165,291.641C668.497,298.775 680.698,304.889 682.942,312.51C683.133,313.157 682.961,313.844 682.42,314.267C673.68,321.101 648.507,300.708 653.462,288.37C657.66,277.918 703.141,274.437 714.829,271.801C717.852,271.119 731.991,266.243 734.592,269.246C738.581,273.852 728.192,292.34 727.164,296.513C726.195,300.45 732.887,304.217 730.163,308.237C725.286,315.434 688.6,292.844 680.976,290.659C678.879,290.058 664.003,286.624 664.396,291.653C664.937,298.581 678.405,302.273 683.081,305.362C708.787,322.346 732.511,325.919 753.8,301.492C756.512,298.38 777.386,273.81 770.44,271.421C762.828,268.803 747.6,286.162 743.448,290.964C729.111,307.544 718.482,378.472 742.352,387.859C747.851,390.021 759.175,384.369 763.652,378.319C771.487,367.73 779.254,363.8 782.143,355.484C784.807,347.815 776.704,335.421 786.583,333.778C787.556,333.617 791.023,332.395 793.097,339.726C795.614,348.62 796.685,366.711 796.501,371.116C796.37,374.242 798.517,361.706 786.476,364.667C781.494,365.892 780.48,370.097 781.479,374.007C781.957,375.877 799.26,378.43 800.285,381.339C800.576,382.164 796.408,384.32 790.079,385.708C784.322,386.97 793.278,380.67 771.095,387.066C769.495,387.528 787.214,377.405 794.715,380.815C796.037,381.416 778.287,388.923 776.846,389.276C763.719,392.492 749.868,395.041 749.342,393.462C748.072,389.645 777.102,383.606 783.193,377.544C783.953,376.787 779.669,366.06 777.111,369.609C756.114,398.742 788.938,367.606 778.29,375.36C769.829,381.52 757.943,389.853 758.408,389.536C760.032,388.429 772.89,381.391 774.856,380.514C785.666,375.694 800.047,374.2 800.463,374.342C803.203,375.282 798.068,350.951 800.166,339.976C801.714,331.874 810.654,336.865 811.808,334.649C815.551,327.461 818.677,287.994 826.543,287.867C830.941,287.796 826.663,294.145 825.403,295.126C824.069,296.163 818.413,296.557 818.032,297.067C817.455,297.841 819.96,297.368 820.843,297.757C822.753,298.596 826.918,299.984 827.451,302.286C828.325,306.058 821.129,304.778 820.866,310.337C820.394,320.328 822.629,330.263 821.872,340.449C821.855,340.673 821.461,344.894 821.262,344.828C821.132,344.785 821.087,344.202 821.065,344.102C819.26,335.867 818.812,327.422 816.659,319.243C815.049,313.127 780.99,276.985 776.368,276.782C771.795,276.582 777.415,287.05 778.072,288.18C780.685,292.674 805.439,319.558 811.013,313.143C815.971,307.437 810.957,294.711 809.969,288.356C808.935,281.697 809.219,275.348 811.812,269.098C812.503,267.434 813.261,265.654 813.241,263.822C813.101,250.655 805.601,268.911 804.91,269.702C800.015,275.309 764.865,265.62 763.7,260.241C763.587,259.719 764.011,259.455 764.441,259.276C775.262,254.765 792.882,270.432 801.614,263.477C806.962,259.218 798.399,218.696 793.78,213.561C793.095,212.798 792.047,212.429 791.765,213.705C789.83,222.472 796.651,236.046 799.545,243.907C807.527,265.591 816.416,287.731 812.039,311.152C811.249,315.376 809.777,329.341 804.114,330.598C798.932,331.748 791.379,328.658 786.655,326.811C770.451,320.478 772.022,317.119 773.548,300.015C773.961,295.379 773.33,281.947 778.878,279.803C780.411,279.211 815.53,293.626 814.448,297.28C811.696,306.57 790.285,283.209 776.047,295.888C769.118,302.059 760.088,325.16 756.617,323.688C745.51,318.976 776.357,283.625 766.022,274.078C756.265,265.064 737.213,301.26 730.587,295.271C725.556,290.723 741.907,259.795 751.506,260.871C760.306,261.858 751.007,277.813 744.133,274.436C740.195,272.502 741.409,266.917 739.723,263.626C737.577,259.438 730.966,258.34 729.576,253.72C728.529,250.242 748.215,234.668 751.399,229.313C754.017,224.91 761.346,205.741 767.057,204.91C769.228,204.594 764.807,208.679 763.605,210.514C761.646,213.506 759.808,216.506 758.278,219.743C753.413,230.042 737.047,239.101 735.172,249.565C733.006,261.656 760.028,255.508 758.22,265.191C756.905,272.232 740.371,287.224 736.49,297.158C731.368,310.269 735.558,327.344 733.715,341.308C732.809,348.169 728.551,365.754 734.273,371.485C739.088,376.309 751.89,350.126 752.296,344.942C752.365,344.067 754.342,337.6 762.139,334.528C764.004,333.792 770.713,356.809 768.626,364.563C767.121,370.159 761.138,366.856 760.288,364.96C753.719,350.313 770.464,335.905 775.244,334.914C788.447,332.179 811.403,337.847 810.687,337.582C750.985,315.507 761.713,330.962 758.754,331.091C741.025,331.863 738.262,325.508 740.085,319.824C742.49,312.322 757.061,326.96 761.153,323.646C765.705,319.957 761.071,307.376 760.673,302.575C760.546,301.051 762.151,288.051 761.951,287.929C759.346,286.331 743.756,290.874 744.875,294.325C746.012,297.831 756.325,303.502 758.885,299.094C763.035,291.946 745.397,286.358 740.554,289.234C732.948,293.75 738.733,306.476 732.076,310.693C726.599,314.162 717.411,310.972 711.326,311.023C695.134,311.158 659.656,320.025 651.648,298.701C648.555,290.466 660.622,283.985 666.21,281.082C678.705,274.589 715.07,268.251 722.392,258.437C735.581,240.758 717.931,214.824 720.512,195.974C721.991,185.176 735.243,180.995 743.513,187.057C759.95,199.105 751.526,234.274 736.374,243.831C728.026,249.096 715.379,235.679 708.776,231.761C708.159,231.395 705.686,229.574 705.051,230.77C702.975,234.677 728.755,247.606 725.126,251.988C720.344,257.76 690.749,258.188 681.94,260.169C680.004,260.605 675.012,262.158 674.237,259.116C673.049,254.45 696.894,238.613 700.798,233.23C713.288,216.014 721.747,185.445 745.309,180.527C777.058,173.899 792.269,211.565 800.081,235.169C801.991,240.94 808.569,253.966 806.362,260.098C805.045,263.757 776.991,257.1 770.682,258.379C761.316,260.277 763.37,273.574 753.104,276.575C742.697,279.617 730.592,272.193 720.213,271.063C707.455,269.675 694.843,274.232 682.244,273.498C672.124,272.909 670.845,250.438 665.908,252.503C661.146,254.495 669.833,268.017 671.886,269.926C672.977,270.941 671.109,254.053 674.319,250.479C678.218,246.136 684.861,244.397 689.345,240.605C698.264,233.062 710.522,217.438 715.923,206.812C721.451,195.934 722.8,175.381 737.791,172.812C741.751,172.133 739.204,176.857 735.555,175.288C727.193,171.691 720.763,156.104 719.499,155.714C706.61,151.741 673.667,171.89 669.23,188.997C667.17,196.941 687.121,189.702 682.588,184.891C676.501,178.43 686.53,172.412 688.838,171.067C691.871,169.299 698.907,160.973 697.957,163.709C693.409,176.8 714.913,176.671 714.522,173.789C714.227,171.623 709.474,163.488 703.713,162.259C698.537,161.154 689.719,170.327 683.347,172.179C680.209,173.091 695.216,161.111 702.628,157.33C714.119,151.47 719.875,151.724 718.705,150.442C697.583,127.29 665.803,147.632 673.106,170.267C675.468,177.588 683.422,180.978 686.948,187.564C688.681,190.802 690.197,199.451 693.374,201.603C695.976,203.366 695.541,195.061 697.816,196.142C700.485,197.41 703.273,209.914 710.92,204.179C719.452,197.78 707.85,177.369 709.759,176.238C710.146,176.008 709.22,159.562 709.755,159.256C722.778,151.82 725.944,175.364 729.542,172.843C737.411,167.329 724.876,171.712 712.007,161.744C708.059,158.685 711.594,175.03 712.38,178.366C714.332,186.651 718.462,193.535 718.527,194.364C719.609,208.073 682.762,249.018 669.717,253.837C662.009,256.684 653.24,251.914 646.149,254.771C640.124,257.199 637.349,279.546 627.333,272.952C619.649,267.894 622.254,252.375 632.209,252.292C648.412,252.157 630.895,272.055 642.435,279.255C645.418,281.116 649.108,282.386 652.618,282.647C657.297,282.995 662.262,281.011 666.286,278.771C669.171,277.165 671.375,274.825 673.655,272.494C675.889,270.211 659.766,279.641 657.164,282.363C640.59,299.705 661.712,353.612 679.088,366.071C687.2,371.887 683.111,347.59 679.06,356.672C673.385,369.393 683.303,377.39 683.027,388.584C682.866,395.104 671.521,398.223 667.449,402.13C661.426,407.909 662.42,416.181 652.516,418.065C635.339,421.331 628.295,395.345 626.846,383.555C622.975,352.041 641.29,323.139 634.11,290.602C632.591,283.715 628.413,263.579 619.175,262.093C607.661,260.24 605.478,291.954 604.732,298.147C600.975,329.36 608.416,401.258 595.996,423.919C587.668,439.115 569.804,443.488 553.866,445.72C525.338,449.716 498.671,449.535 470.84,459.045C451.157,465.772 407.949,487.184 386.462,475.576C384.414,474.469 385.97,472.824 387.166,471.847C391.162,468.583 420.82,458.212 416.195,451.048C411.676,444.047 388.634,452.581 392.405,457.998C394.539,461.063 440.833,454.165 439.793,464.477C439.035,471.991 392.132,470.915 384.935,466.966C374.426,461.2 379.489,446.733 380.655,437.388C383.361,415.696 391.158,385.778 383.544,364.77C381.097,358.018 368.972,333.828 358.578,337.217C355.291,338.289 363.23,347.622 364.004,348.565C372.705,359.178 384.692,368.86 391.227,381.018C399.134,395.728 397.189,410.998 403.871,426.342C404.326,427.387 407.118,434.166 412.647,436.773C418.926,439.734 420.045,452.856 419.824,450.52C419.616,448.321 422.239,447.749 421.843,445.221C421.394,442.357 417.938,437.537 417.983,435.157C418.253,421.041 423.276,394.229 423.043,373.218C422.944,364.217 404.369,353.582 406.232,343.635C406.971,339.692 411.803,343.049 416.322,348.46C421.737,354.946 426.701,364.383 423.622,367.736C420.329,371.321 417.866,365.341 414.587,359.558C410.928,353.105 406.483,346.469 403.456,344.84C397.758,341.772 371.283,354.618 373.688,336.415C375.523,322.522 398.856,340.518 405.363,338.602C408.634,337.639 402.113,325.017 402.581,321.916C403.548,315.504 408.271,291.315 417.866,294.313C423.514,296.078 425.304,308.081 424.587,309.639C424.156,310.573 422.8,301.854 420.896,301.408C400.287,296.59 403.016,316.834 409.088,330.864C410.584,334.323 412.867,340.52 416.528,342.217C428.163,347.611 435.345,313.562 421.583,311.544C407.146,309.426 404.752,335.503 416.764,340.227C426.37,344.004 426.874,319.185 417.916,317.979C414.601,317.533 414.217,326.981 416.376,328.592C419.481,330.908 419.978,321.711 418.322,322.319C415.915,323.203 416.587,331.308 414.845,333.562C410.788,338.812 401.954,339.5 395.884,339.741C392.309,339.882 388.642,339.612 385.08,339.31C382.455,339.088 379.845,338.826 377.241,338.426C350.296,334.288 407.072,329.538 395.26,320.269C382.031,309.889 370.383,333.723 364.382,331.74C363.054,331.301 362.855,329.696 362.645,328.526C361.929,324.558 359.013,289.924 350.992,296.004C344.735,300.748 354.725,323.146 355.656,328.925C360.569,359.449 352.568,391.523 353.423,422.336C353.703,432.416 356.398,450.358 348.945,458.634C344.755,463.287 322.587,470.858 321.95,459.598C321.709,455.321 326.573,452.137 329.752,450.318C345.308,441.417 355.246,463.235 337.306,464.183C333.114,464.404 329.044,463.857 325.283,461.905C311.972,454.996 342.553,439.445 343.722,431.298C345.391,419.66 318.743,433.381 319.49,422.868C320.465,409.135 350.019,411.196 355.297,395.031C361.317,376.592 364.744,351.419 359.661,332.472C357.757,325.375 347.139,305.256 353.112,298.304C357.328,293.397 368.176,299.632 372.594,301.293C386.929,306.684 410.288,316.02 419.67,296.035C424.152,286.489 417.157,269.47 416.141,259.506C414.553,243.936 403.979,223.276 399.672,204.465C395.272,185.245 372.69,177.814 351.31,175.331C301.404,169.534 301.588,186.437 283.871,231.421C280.085,241.034 271.72,284.884 285.501,291.22C287.972,292.357 290.843,289.915 292.809,288.693C309.901,278.075 313.898,251.263 315.359,231.611C316.161,220.822 314.331,210.662 310.027,200.778C309.782,200.216 308.302,197.889 308.863,197.264C311.783,194.012 322.803,207.458 322.578,214.156C322.234,224.363 316.649,233.683 316.394,243.758C316.377,244.427 316.239,247.313 317.552,247.079C330.759,244.72 327.088,204.119 325.69,195.445C325.402,193.655 322.587,178.895 325.874,178.624C331.458,178.165 337.235,189.087 338.887,192.896C347.003,211.605 335.752,231.484 328.614,248.65C327.395,251.58 320.067,264.251 322.359,267.543C323.189,268.735 327.115,260.75 327.325,260.312C329.15,256.489 334.989,239.013 341.009,241.138C347.248,243.34 356.213,275.334 363.329,268.985C374.003,259.461 347.775,211.847 341.43,201.884C337.396,195.55 331.514,188.467 329.257,181.198C329.074,180.607 328.432,178.803 329.497,178.601C332.89,177.956 342.763,185.261 346.729,186.172C352.924,187.596 368.263,181.571 369.596,182.228C373.084,183.947 370.22,194.393 369.842,197.053C367.65,212.468 365.176,227.73 364.49,243.305C364.236,249.051 359.118,287.155 366.228,286.707C401.203,284.5 380.027,232.67 377.656,213.019C377.112,208.517 374.437,182.447 379.499,183.853C385.142,185.421 386.33,204.363 386.9,208.619C390.243,233.607 388.065,257.6 396.258,281.915C399.056,290.218 404.931,303.701 416.406,299.312C426.526,295.442 411.627,258.058 411.606,249.172C411.562,230.513 387.43,238.712 395.155,243.208C401.321,246.797 417.035,241.473 411.671,234.439C406.03,227.044 397.667,241.755 393.526,231.854C386.735,215.617 395.737,198.121 382.502,183.028C371.397,170.364 360.122,178.101 346.78,179.759C343.572,180.157 333.424,180.665 332.822,175.738C331.742,166.911 364.478,179.374 365.85,173.312C366.889,168.727 349.587,158.325 346.842,154.868C344.437,151.837 346.457,126.935 344.431,128.582C317.106,150.789 343.726,152.804 346.138,144.125C347.051,140.84 344.295,137.539 341.133,136.415C339.949,135.994 338.707,135.879 337.581,136.184C334.929,136.902 333.081,138.95 331.155,140.768C330.997,140.918 328.514,143.215 328.394,142.394C328.122,140.522 335.087,134.406 335.343,132.848C335.963,129.077 345.28,122.909 355.502,122.48C374.255,121.692 379.663,125.569 381.61,126.921C382.284,127.389 373.98,135.693 374.235,135.259C374.374,135.022 382.725,126.567 382.288,126.206C380.456,124.695 374.672,122.417 374.145,122.024C370.919,119.617 372.315,117.584 369.055,115.223C365.55,112.686 362.382,107.735 357.917,106.998C343.56,104.628 328.765,121.358 328.266,139.701C327.986,149.955 365.206,109.472 373.466,128.213C374.079,129.602 375.068,147.734 374.779,150.525C373.798,159.992 369.821,164.584 360.656,163.366C357.881,162.997 355.281,162.837 349.918,153.748C345.818,146.799 341.376,143.888 338.824,144.102C334.858,144.436 337.652,163.942 333.623,168.036C314.304,187.67 301.411,176.412 290.436,209.623C288.482,215.534 284.814,223.557 285.918,229.922C288.218,243.173 312.179,233.873 313.533,246.428C314.898,259.08 289.611,257.777 292.514,248.994C299.637,227.44 316.587,258.272 321.072,261.839C326.45,266.116 333.986,268.058 340.253,270.626C343.646,272.016 358.091,276.048 357.396,281.517C356.398,289.362 320.407,278.143 314.922,273.43C313.167,271.922 315.184,262.97 317.604,262.618C318.794,262.445 316.531,264.772 316.053,265.875C315.073,268.141 314.172,270.438 313.203,272.708C310.315,279.476 307.083,289.957 313.22,296.02C320.205,302.92 322.448,289.945 318.746,285.011C318.449,284.616 317.027,282.295 316.344,283.21C313.735,286.708 337.114,308.597 342.899,294.002C345.337,287.851 326.086,289.507 326.593,290.196C327.517,291.452 332.466,290.833 333.759,290.858C348.416,291.141 359.82,286.632 364.512,271.844C370.358,253.419 371.31,232.343 373.602,213.231C374.4,206.583 375.045,193.177 381.8,189.216C390.004,184.405 392.191,190.151 395.149,195.237C405.075,212.302 411.172,242.718 414.606,261.537C415.931,268.799 420.987,278.194 419.205,285.601C418.51,288.492 410.981,288.589 409.057,290.814C389.01,314.006 391.601,277.091 389.238,277.227C383.366,277.567 384.916,304.839 392.359,308.428C400.009,312.116 393.433,286.555 388.123,285.684C384.157,285.033 387.765,300.354 391.503,298.851C394.599,297.606 389.006,282.056 387.258,282.721C386.688,282.937 387.081,284.602 387.139,284.969C388.284,292.218 391.488,299.213 394.069,306.028C395.099,308.749 396.016,311.499 396.925,314.261C397.027,314.571 398.337,318.219 398.633,317.822C402.858,312.159 373.445,282.465 366.123,285.361C355.617,289.515 379.261,305.039 382.695,306.562C382.994,306.694 385.531,307.923 385.771,307.418C386.098,306.73 382.878,305.101 382.536,304.915C378.994,302.984 360.714,291.167 357.436,295.948C354.95,299.574 371.49,332.941 359.581,335.229C353.005,336.493 346.978,307.769 345.603,302.291C345.486,301.824 344.587,297.967 343.824,298.157C342.74,298.427 343.947,302.829 344.044,303.444C345.594,313.266 349.739,329.057 340.571,336.588C324.034,350.171 338.662,311.687 335.181,309.676C331.458,307.525 308.681,299.237 304.133,299.058C301.489,298.953 283.952,301.671 285.888,296.163C287.271,292.229 291.698,289.898 295.495,288.989C312.948,284.808 321.349,303.784 323.83,317.756C324.173,319.69 327.6,329.691 326.171,331.178C325.761,331.605 324.262,329.755 324.031,329.522C323.555,329.039 320.04,313.271 311.935,303.037C311.008,301.867 323.193,321.39 321.565,321.952C314.505,324.391 312.214,313.931 311.12,314.511C309.212,315.522 314.701,329.174 311.668,331.079C306.853,334.103 308.481,332.972 302.051,323.642C299.206,319.515 293.746,337.014 290.827,323.789C290.776,323.56 290.571,323.38 290.443,323.151C289.416,321.31 285.466,290.828 285.501,291.22C285.953,296.25 290.286,325.666 290.04,328.712C287.996,354.019 283.777,370.657 311.815,379.152C316.54,380.584 324.464,384.328 329.614,382.214C332.738,380.932 329.567,377.731 331.049,376.033C332.945,373.861 338.611,375.873 341.291,373.537C346.511,368.987 351.241,346.348 345.217,341.392C344.725,340.986 343.678,353.377 341.194,353.451C337.622,353.557 337.962,347.026 338.173,344.716C338.317,343.136 337.908,338.699 338.814,340.001C342.481,345.267 336.405,357.326 329.386,351.233C325.025,347.448 331.308,340.54 328.935,336.576C328.032,335.066 318.474,339.354 317.162,339.787C316.842,339.893 313.183,340.811 313.264,340.595C313.92,338.824 325.242,333.388 325.446,333.903C327.927,340.147 329.648,360.523 326.707,366.712C326.394,367.372 324.462,369.416 325.656,370.103C338.35,377.396 339.645,341.578 338.159,353.584C337.928,355.45 337.647,357.323 337.041,359.112C336.29,361.332 335.188,363.516 333.944,365.499C328.236,374.604 301.991,367.247 297.049,360.147C294.307,356.207 291.275,345.254 299.099,344.588C332.14,341.779 317.17,366.127 316.943,384.835C316.727,402.626 319.447,420.433 319.817,438.253C320.099,451.788 316.161,471.047 320.595,484.094C320.93,485.081 325.932,477.269 327.708,476.607C333.584,474.416 343.865,476.062 347.654,481.759C348.615,483.205 340.016,482.333 339.391,482.286C334.139,481.896 325.799,482.817 323.407,488.409C319.269,498.088 336.205,499.852 341.785,498.274C356.224,494.191 354.149,468.875 349.779,457.598C343.666,441.825 325.777,465.418 321.261,447.229C314.81,421.25 336.826,362.871 319.311,343.947C313.25,337.398 293.741,347.116 294.22,331.731C294.484,323.252 309.148,334.096 300.177,338.002C296.918,339.422 290.779,334.946 294.22,331.731C294.477,331.49 289.332,334.725 284.509,337.84C280.829,340.216 213.431,427.155 189.061,485.219C164.998,542.551 12.17,559.648 14.794,568.567" style="fill:none;stroke:black;stroke-width:4px;"/>
    </g>
</svg>
