<?xml version="1.0" encoding="UTF-8" standalone="no"?>
<!DOCTYPE svg PUBLIC "-//W3C//DTD SVG 1.1//EN" "http://www.w3.org/Graphics/SVG/1.1/DTD/svg11.dtd">
<svg width="100%" height="100%" viewBox="0 0 3300 3300" version="1.1" xmlns="http://www.w3.org/2000/svg" xmlns:xlink="http://www.w3.org/1999/xlink" xml:space="preserve" xmlns:serif="http://www.serif.com/" style="fill-rule:evenodd;clip-rule:evenodd;stroke-linejoin:round;stroke-miterlimit:2;">
    <g id="sunnova.afdesign" transform="matrix(7.6124,0,0,7.6124,592.498,1876.92)">
        <g transform="matrix(1,0,0,1,-48,-11)">
            <path d="M0.091,10.875L2.297,10.526C2.421,11.416 2.766,12.098 3.332,12.573C3.898,13.048 4.689,13.285 5.706,13.284C6.73,13.284 7.491,13.074 7.987,12.654C8.483,12.234 8.73,11.741 8.729,11.174C8.729,10.667 8.51,10.268 8.073,9.977C7.766,9.776 7.006,9.521 5.793,9.213C4.156,8.798 3.022,8.438 2.39,8.135C1.759,7.831 1.28,7.412 0.953,6.877C0.627,6.343 0.457,5.727 0.464,5.1C0.459,4.528 0.597,3.964 0.866,3.46C1.13,2.962 1.505,2.532 1.963,2.205C2.311,1.946 2.784,1.728 3.382,1.552C4.008,1.37 4.658,1.279 5.31,1.283C6.343,1.283 7.25,1.433 8.031,1.733C8.812,2.032 9.388,2.437 9.759,2.948C10.131,3.46 10.387,4.144 10.527,5L8.346,5.3C8.247,4.618 7.96,4.086 7.485,3.703C7.011,3.321 6.339,3.129 5.47,3.129C4.446,3.129 3.715,3.3 3.276,3.641C2.838,3.982 2.619,4.382 2.62,4.839C2.618,5.124 2.714,5.402 2.892,5.624C3.074,5.865 3.359,6.064 3.746,6.222C3.968,6.306 4.625,6.498 5.715,6.796C7.293,7.221 8.394,7.568 9.018,7.838C9.61,8.08 10.121,8.489 10.49,9.015C10.847,9.532 11.026,10.173 11.026,10.937C11.024,11.691 10.797,12.427 10.375,13.05C9.942,13.711 9.316,14.222 8.497,14.584C7.679,14.946 6.753,15.127 5.721,15.127C4.011,15.127 2.707,14.769 1.811,14.054C0.914,13.339 0.341,12.279 0.091,10.875Z" style="fill-rule:nonzero;"/>
            <path d="M22.393,1.583L22.393,8.68C22.393,9.811 22.271,10.674 22.027,11.269C21.78,11.866 21.341,12.362 20.78,12.678C20.21,13.018 19.558,13.196 18.895,13.194C18.227,13.194 17.666,13.026 17.211,12.689C16.757,12.353 16.459,11.89 16.318,11.302C16.227,10.895 16.182,10.104 16.183,8.932L16.183,1.583L13.951,1.583L13.951,9.789C13.951,10.747 13.997,11.444 14.089,11.885C14.221,12.543 14.45,13.098 14.777,13.551C15.056,13.921 15.411,14.228 15.817,14.449C17.705,13.987 19.726,13.529 21.855,13.125C22.086,13.079 23.948,12.722 24.623,12.602L24.623,1.583L22.393,1.583Z" style="fill-rule:nonzero;"/>
            <path d="M38.366,4.5C38.251,3.905 38.015,3.341 37.672,2.843C37.341,2.379 36.843,2.002 36.179,1.713C35.487,1.422 34.742,1.275 33.991,1.283C32.164,1.283 30.768,2.011 29.803,3.467L29.803,1.583L27.794,1.583L27.794,12.084C28.529,11.971 29.273,11.86 30.025,11.754L30.025,7.594C30.025,5.898 30.37,4.747 31.06,4.138C31.75,3.53 32.57,3.228 33.521,3.23C34.116,3.23 34.634,3.364 35.075,3.634C35.497,3.881 35.822,4.265 35.999,4.722C36.174,5.177 36.262,5.861 36.262,6.775L36.262,11.025C37,10.954 37.744,10.892 38.493,10.839L38.493,6.685C38.493,5.645 38.452,4.917 38.369,4.5" style="fill-rule:nonzero;"/>
            <path d="M52.156,4.5C52.042,3.905 51.807,3.34 51.463,2.843C51.132,2.379 50.634,2.002 49.969,1.713C49.276,1.421 48.53,1.275 47.779,1.283C45.953,1.283 44.557,2.011 43.59,3.466L43.59,1.583L41.584,1.583L41.584,10.631C42.324,10.588 43.069,10.552 43.815,10.524L43.815,7.594C43.815,5.898 44.16,4.747 44.85,4.139C45.54,3.53 46.36,3.228 47.311,3.23C47.906,3.23 48.424,3.365 48.866,3.634C49.288,3.881 49.613,4.265 49.789,4.722C49.964,5.177 50.052,5.861 50.052,6.775L50.052,10.407C50.797,10.414 51.541,10.425 52.283,10.432L52.283,6.685C52.283,5.645 52.242,4.917 52.159,4.5" style="fill-rule:nonzero;"/>
            <path d="M80.372,1.583L77.447,9.664C77.091,10.646 76.814,11.486 76.617,12.185C76.36,11.26 76.079,10.37 75.773,9.515L72.952,1.583L70.595,1.583L74.882,12.922C75.976,13.161 77.043,13.394 78.084,13.62C78.101,13.625 78.119,13.628 78.135,13.633L82.665,1.583L80.372,1.583Z" style="fill-rule:nonzero;"/>
            <path d="M93.039,8.181C92.229,8.513 91.014,8.796 89.395,9.029C88.476,9.161 87.827,9.311 87.449,9.478C87.09,9.626 86.783,9.879 86.569,10.205C86.314,10.605 86.211,11.084 86.278,11.555C86.345,12.025 86.578,12.456 86.934,12.768C87.385,13.167 88.045,13.367 88.911,13.367C89.771,13.367 90.535,13.178 91.204,12.799C91.846,12.45 92.362,11.907 92.68,11.246C92.918,10.74 93.038,9.991 93.039,9.001L93.039,8.181ZM93.225,13.195C92.398,13.902 91.603,14.401 90.839,14.692C90.052,14.986 89.218,15.134 88.378,15.128C86.932,15.128 85.82,14.773 85.044,14.062C84.268,13.351 83.88,12.442 83.879,11.336C83.872,10.716 84.024,10.104 84.319,9.559C84.595,9.042 84.99,8.6 85.471,8.268C85.963,7.936 86.505,7.688 87.077,7.533C87.514,7.416 88.176,7.304 89.06,7.196C90.861,6.98 92.187,6.722 93.039,6.422C93.047,6.115 93.051,5.919 93.051,5.836C93.051,4.921 92.84,4.277 92.419,3.903C91.85,3.396 91.003,3.142 89.878,3.142C88.828,3.142 88.053,3.327 87.554,3.697C87.056,4.067 86.686,4.721 86.445,5.662L84.263,5.362C84.461,4.423 84.788,3.664 85.242,3.085C85.697,2.507 86.353,2.062 87.211,1.751C88.071,1.439 89.066,1.283 90.198,1.283C91.322,1.283 92.235,1.416 92.938,1.68C93.64,1.944 94.157,2.279 94.487,2.684C94.817,3.088 95.048,3.597 95.181,4.212C95.257,4.596 95.294,5.287 95.294,6.285L95.294,9.279C95.294,11.366 95.342,12.687 95.436,13.242C95.533,13.801 95.724,14.339 96,14.833L93.67,14.833C93.425,14.32 93.274,13.766 93.224,13.199" style="fill-rule:nonzero;"/>
            <path d="M92.095,19.393C90.848,18.897 89.307,18.377 87.55,17.736C87.353,17.67 87.145,17.604 86.945,17.538C86.233,17.304 85.493,17.076 84.713,16.825C83.712,16.512 82.657,16.183 81.539,15.904C80.423,15.616 79.265,15.297 78.057,14.999C76.843,14.735 75.587,14.462 74.296,14.18C73,13.92 71.659,13.698 70.292,13.445C68.925,13.192 67.514,13.043 66.087,12.831C63.223,12.471 60.253,12.166 57.226,11.998C55.713,11.912 54.186,11.874 52.654,11.809C51.12,11.799 49.58,11.761 48.04,11.776C44.961,11.838 41.883,11.947 38.865,12.187C35.841,12.385 32.883,12.765 30.024,13.126C27.169,13.529 24.42,13.985 21.832,14.505C19.237,14.998 16.808,15.571 14.574,16.127C13.274,16.453 12.052,16.788 10.899,17.118C8.09,17.919 5.726,18.703 3.93,19.32C2.662,19.751 1.685,20.149 1.017,20.41L0,20.824L1.05,20.507C1.737,20.305 2.756,20.036 4.043,19.686C5.33,19.337 6.908,18.949 8.72,18.532C10.531,18.115 12.587,17.693 14.827,17.244C17.072,16.812 19.508,16.376 22.094,15.972C24.677,15.553 27.419,15.223 30.247,14.874C33.083,14.568 36.018,14.303 39.004,14.118C41.987,13.903 45.026,13.818 48.061,13.781C49.58,13.76 51.099,13.781 52.612,13.781C54.121,13.834 55.631,13.86 57.124,13.933L59.355,14.065C60.094,14.105 60.832,14.131 61.561,14.201C63.019,14.333 64.467,14.414 65.881,14.585C67.294,14.755 68.689,14.89 70.047,15.08C71.405,15.269 72.737,15.445 74.024,15.653L77.774,16.314C78.982,16.542 80.143,16.796 81.262,17.024C82.385,17.236 83.441,17.52 84.455,17.758C85.468,17.996 86.436,18.208 87.332,18.452C89.117,18.958 90.691,19.362 91.964,19.762C93.233,20.178 94.242,20.474 94.926,20.687L95.976,21.011L94.966,20.587C94.304,20.313 93.339,19.891 92.095,19.393Z" style="fill-rule:nonzero;"/>
            <path d="M69.837,8.768C69.837,9.84 69.611,10.899 69.174,11.877C68.648,11.796 68.112,11.725 67.577,11.653C68.052,10.767 68.301,9.775 68.299,8.768C68.299,7.962 68.141,7.164 67.834,6.42C67.528,5.676 67.079,4.999 66.513,4.429C65.947,3.859 65.274,3.407 64.535,3.099C63.795,2.791 63.002,2.632 62.201,2.632C61.4,2.632 60.607,2.791 59.868,3.099C59.128,3.407 58.456,3.859 57.89,4.429C57.323,4.999 56.874,5.676 56.568,6.42C56.261,7.164 56.104,7.962 56.104,8.768C56.104,9.381 56.197,9.991 56.38,10.576C55.845,10.549 55.31,10.527 54.774,10.51C54.639,9.939 54.571,9.355 54.57,8.768C54.57,6.731 55.374,4.778 56.805,3.338C58.237,1.898 60.178,1.089 62.202,1.089C64.226,1.089 66.167,1.898 67.598,3.338C69.029,4.778 69.833,6.731 69.833,8.768" style="fill-rule:nonzero;"/>
        </g>
    </g>
    <g id="noun-corruption-1324372.svg" transform="matrix(5.13797,-2.13749,2.12607,5.11052,1134.73,1065.95)">
        <g transform="matrix(1,0,0,1,-50,-62.5)">
            <g transform="matrix(-0.884065,-1.10467e-16,-1.08267e-16,0.90203,96.6193,13.03)">
                <path d="M52.79,37.272C53.224,37.439 53.507,37.556 53.64,37.623L58.941,40.173C60.208,40.739 60.958,41.489 61.191,42.423C61.39,43.123 61.64,43.59 61.941,43.822C62.307,44.09 62.84,44.105 63.541,43.873C63.741,43.84 63.908,43.855 64.041,43.923C64.208,44.057 64.308,44.206 64.341,44.373C64.408,45.039 64.175,45.406 63.641,45.473C62.508,45.573 61.341,45.623 60.141,45.623C58.175,45.557 56.374,45.706 54.742,46.072C52.308,46.539 49.242,46.739 45.542,46.673C44.075,46.639 43.025,46.84 42.392,47.273C41.792,47.673 41.326,48.457 40.993,49.624C40.392,51.856 41.142,53.507 43.243,54.573C45.343,55.54 48.076,55.94 51.443,55.773C52.476,55.606 53.243,55.49 53.743,55.423C54.677,55.289 55.427,55.373 55.993,55.673C56.559,56.006 56.976,56.623 57.243,57.523C57.41,58.59 57.609,59.34 57.843,59.773C58.61,61.506 59.527,62.624 60.593,63.124C61.66,63.624 63.126,63.624 64.993,63.124C67.892,62.39 70.043,61.356 71.443,60.023C71.743,60.356 71.842,60.657 71.743,60.923C71.642,61.023 71.46,61.19 71.193,61.423C68.859,63.956 65.759,65.273 61.892,65.373C59.792,65.439 58.309,64.572 57.443,62.772C57.41,62.672 57.109,62.206 56.543,61.373C55.776,62.173 55.126,63.373 54.593,64.973C53.96,66.84 53.46,68.09 53.093,68.723C54.56,69.356 55.56,69.773 56.093,69.973C56.66,70.139 57.093,70.273 57.393,70.373C57.927,70.506 58.36,70.522 58.694,70.423C60.593,69.756 62.677,69.523 64.944,69.723C66.544,69.889 68.577,70.289 71.044,70.923C71.944,71.156 72.678,71.139 73.244,70.873C73.81,70.639 74.344,70.139 74.844,69.373C76.344,67.105 78.428,63.406 81.094,58.272C81.327,57.672 81.494,57.255 81.594,57.022C81.794,56.623 82.028,56.539 82.294,56.772C82.627,57.039 82.777,57.222 82.744,57.322C82.444,58.388 82.161,59.156 81.893,59.623L76.043,70.072C75.977,70.173 75.76,70.706 75.393,71.673C75.194,72.307 74.86,72.656 74.393,72.723C72.96,73.023 71.46,72.94 69.893,72.473C67.96,71.807 66.393,71.407 65.194,71.273C63.494,71.073 61.877,71.223 60.343,71.723C58.876,72.223 57.31,71.973 55.643,70.973C54.577,70.307 53.76,70.023 53.194,70.123C52.627,70.189 51.927,70.706 51.093,71.673C50.326,72.606 49.71,73.09 49.243,73.123C48.743,73.189 47.943,72.889 46.843,72.223C45.543,71.423 43.96,70.74 42.093,70.173C41.593,69.973 39.927,69.506 37.093,68.773C35.293,68.273 33.126,67.506 30.593,66.473C29.159,65.907 27.01,65.039 24.143,63.873L10.793,58.522C9.693,58.123 8.793,57.722 8.093,57.322C6.727,56.656 5.81,55.822 5.343,54.822C4.944,53.855 4.893,52.605 5.194,51.072C5.56,49.306 6.177,47.256 7.044,44.923C7.577,43.557 8.377,41.523 9.444,38.822C10.143,36.989 11.643,33.373 13.944,27.972C14.544,26.538 14.81,25.322 14.744,24.322C14.711,24.09 14.777,23.888 14.944,23.722C15.11,23.522 15.31,23.439 15.544,23.472C15.844,23.472 16.077,23.589 16.244,23.822C16.41,24.056 16.461,24.322 16.393,24.623C15.86,26.522 15.393,27.906 14.994,28.772C13.56,31.839 11.41,37.222 8.544,44.922C8.377,45.255 8.277,45.505 8.244,45.672C8.178,46.005 8.244,46.321 8.444,46.622C8.977,46.388 9.494,46.005 9.994,45.472C10.56,44.839 11.011,44.388 11.344,44.122C11.945,44.422 12.011,44.788 11.544,45.222C10.011,46.722 9.061,47.572 8.694,47.772C7.26,48.873 6.577,50.656 6.643,53.123C7.61,52.723 8.81,51.855 10.244,50.522C11.643,49.222 12.777,48.388 13.643,48.022C13.11,49.022 12.093,50.123 10.593,51.322C8.927,52.656 7.843,53.689 7.343,54.423C7.51,54.822 7.793,55.156 8.194,55.423C8.66,55.656 9.01,55.84 9.244,55.973C9.678,56.24 10.094,56.34 10.494,56.273C10.794,56.207 11.143,55.973 11.544,55.573C11.777,55.341 13.41,53.907 16.444,51.273C16.477,52.073 16.244,52.74 15.744,53.273C15.477,53.573 15.027,53.957 14.393,54.423C14.293,54.557 13.827,54.906 12.994,55.473C12.36,55.873 11.961,56.307 11.794,56.773C13.36,57.84 14.561,58.374 15.394,58.374C16.228,58.374 17.377,57.841 18.844,56.773C19.611,56.24 20.077,55.84 20.244,55.573C20.61,54.807 21.027,54.674 21.494,55.174C21.727,55.441 21.577,55.808 21.044,56.274L17.394,58.875C17.894,59.375 18.594,59.791 19.495,60.125C20.661,60.559 21.361,60.824 21.595,60.925C21.995,61.125 22.495,60.991 23.095,60.525L26.495,58.025C26.528,58.758 26.144,59.409 25.345,59.975C24.446,60.641 23.946,61.159 23.845,61.525C25.245,62.792 26.696,63.141 28.196,62.575C28.662,62.376 30.012,61.475 32.246,59.876C32.046,60.775 31.496,61.509 30.596,62.075C29.629,62.709 29.079,63.176 28.947,63.475C29.013,63.775 29.163,64.008 29.396,64.175C29.663,64.275 29.863,64.342 29.997,64.375C31.363,64.975 32.313,65.241 32.847,65.175C33.38,65.074 34.164,64.475 35.198,63.375C35.698,62.875 36.031,62.574 36.198,62.475C36.397,62.342 36.814,62.192 37.448,62.025C37.281,62.525 36.981,62.992 36.548,63.425L35.348,64.425C35.215,64.592 35.015,64.791 34.748,65.025C34.515,65.258 34.415,65.475 34.448,65.675C34.514,66.041 34.731,66.275 35.097,66.375C35.497,66.475 35.797,66.574 35.997,66.675C36.896,67.108 37.797,67.192 38.697,66.925C39.43,66.758 40.247,66.309 41.146,65.574C41.213,65.508 41.447,65.241 41.846,64.774C42.146,64.441 42.447,64.241 42.746,64.174C42.68,64.74 42.546,65.157 42.346,65.424C42.146,65.691 41.463,66.341 40.296,67.374C40.463,67.64 40.563,67.773 40.596,67.773C41.563,68.34 42.53,68.49 43.496,68.223C44.296,68.023 45.145,67.49 46.046,66.623C46.612,66.057 47.063,65.605 47.396,65.272C47.997,64.706 48.646,64.322 49.346,64.123C49.013,65.022 48.296,65.889 47.197,66.723C45.964,67.657 45.197,68.373 44.896,68.873C45.763,69.506 46.33,69.822 46.596,69.822C46.863,69.855 47.396,69.59 48.197,69.022C48.563,68.656 48.863,68.388 49.096,68.222C49.496,67.922 49.93,67.855 50.396,68.022C50.363,68.489 50.096,68.888 49.596,69.222C48.963,69.589 48.613,69.855 48.546,70.022C48.313,70.322 48.246,70.556 48.346,70.722C48.48,70.989 48.796,71.122 49.296,71.122C49.663,71.122 49.963,70.955 50.196,70.622C50.895,69.622 51.429,68.821 51.796,68.222C52.396,67.322 52.763,66.472 52.896,65.672C53.197,64.372 53.963,62.638 55.197,60.472C55.697,59.638 55.83,58.955 55.596,58.422C55.329,57.888 54.746,57.589 53.846,57.522C52.013,57.355 50.096,57.339 48.096,57.472C46.296,57.572 44.28,57.072 42.046,55.972C40.946,55.472 40.163,54.722 39.696,53.722C39.163,52.689 39.012,51.589 39.246,50.422C39.413,49.255 39.913,48.005 40.746,46.672C41.279,45.839 42.046,45.439 43.046,45.472L44.396,45.472C46.363,45.605 48.813,45.505 51.747,45.172C54.947,44.772 57.363,44.488 58.997,44.321C59.53,44.321 59.83,44.188 59.896,43.922C60.063,43.488 59.914,43.122 59.447,42.821C55.747,40.488 53.33,39.071 52.197,38.571L40.59,33.373C36.524,31.506 30.557,28.473 22.691,24.272C21.624,23.772 20.958,23.489 20.691,23.422C19.924,23.189 19.208,23.205 18.541,23.472C17.675,23.806 17.141,23.656 16.941,23.022C16.807,22.388 17.157,21.822 17.991,21.322C18.724,20.956 19.508,20.906 20.341,21.173C20.808,21.307 21.491,21.639 22.391,22.173C26.458,24.606 32.725,27.822 41.192,31.822C42.992,32.722 44.341,33.388 45.242,33.822C46.842,34.59 48.225,35.173 49.391,35.572C49.891,35.84 50.275,35.972 50.541,35.972C50.941,36.038 51.308,35.839 51.641,35.372C51.874,35.071 52.541,34.821 53.641,34.622C54.942,34.354 56.858,34.071 59.391,33.771C61.958,33.471 63.891,33.188 65.192,32.921C68.358,32.287 71.042,33.387 73.242,36.221C74.209,37.354 74.875,38.321 75.242,39.121L82.492,53.421C82.926,54.221 82.959,54.971 82.592,55.671C82.159,55.771 81.842,55.688 81.642,55.421C81.576,55.32 81.443,55.037 81.243,54.57C80.609,52.537 79.693,50.687 78.493,49.02C77.66,47.853 76.859,46.237 76.093,44.17C75.694,42.87 74.593,40.903 72.793,38.27C70.927,35.237 68.227,34.02 64.693,34.621C63.392,34.853 61.626,35.055 59.392,35.221C56.892,35.454 55.142,35.655 54.142,35.821C53.743,35.887 53.142,36.071 52.342,36.372C52.34,36.807 52.49,37.105 52.79,37.272ZM94.29,66.673C93.49,68.206 92.373,70.072 90.94,72.273C88.839,75.374 87.639,77.173 87.339,77.673C86.673,78.873 85.556,79.256 83.989,78.822C82.022,78.189 80.789,77.772 80.289,77.572C78.923,77.006 77.789,76.34 76.889,75.572C76.356,75.105 76.056,74.689 75.99,74.322C75.889,73.923 76.04,73.439 76.44,72.873C79.839,67.373 82.506,62.557 84.44,58.423C84.873,57.623 85.339,57.34 85.839,57.572C86.506,57.84 87.589,58.173 89.089,58.572C90.489,58.939 91.556,59.306 92.289,59.673C94.223,60.639 95.122,62.039 94.989,63.873C94.99,64.772 94.757,65.706 94.29,66.673ZM93.54,63.873C93.674,62.939 93.457,62.289 92.89,61.923C91.357,61.023 90.373,60.473 89.941,60.273C88.807,59.773 87.741,59.49 86.741,59.423C85.974,59.423 85.425,59.773 85.091,60.473L80.541,68.823C80.408,68.957 80.208,69.174 79.941,69.473C79.774,69.807 79.791,70.106 79.991,70.373C80.524,70.105 81.408,69.489 82.64,68.522C83.741,67.623 84.691,67.005 85.491,66.672C85.357,67.138 85.158,67.538 84.89,67.872C84.857,67.905 84.574,68.122 84.04,68.521C82.24,69.887 81.273,70.604 81.14,70.671C80.04,71.537 79.191,72.438 78.59,73.371C78.49,73.504 78.34,73.704 78.14,73.971C78.04,74.204 78.09,74.438 78.29,74.671C78.724,75.07 79.224,75.055 79.79,74.621L86.34,69.82C85.907,71.054 84.99,72.154 83.59,73.121C81.924,74.254 80.857,75.171 80.39,75.871C82.424,75.838 83.957,75.07 84.991,73.57C85.425,73.136 85.807,73.088 86.14,73.421C86.474,73.721 86.408,74.07 85.941,74.471C85.874,74.537 85.424,74.838 84.59,75.371C84.09,75.704 83.757,76.088 83.59,76.52C84.691,76.92 85.39,77.07 85.691,76.97C85.991,76.904 86.408,76.453 86.941,75.62C88.84,72.953 90.674,70.054 92.441,66.92C93.007,65.956 93.373,64.939 93.54,63.873ZM29.29,30.572C29.757,30.772 29.906,31.039 29.74,31.373C29.639,31.572 29.507,31.706 29.34,31.772C29.14,31.806 28.974,31.772 28.84,31.672C28.14,31.138 27.107,30.605 25.74,30.071C24.207,29.471 23.156,29.005 22.59,28.672L22.84,28.071L29.29,30.572ZM31.99,32.522C36.59,35.022 40.09,36.789 42.49,37.822C42.856,37.888 42.957,38.09 42.79,38.423C42.557,38.923 42.273,39.039 41.94,38.773L38.44,36.823C37.873,36.557 35.606,35.307 31.639,33.073L31.99,32.522Z"/>
            </g>
            <g transform="matrix(0.828917,-0.355745,0.355745,0.828917,28.0508,26.2632)">
                <path d="M29.69,48.473C30.089,47.807 30.29,47.24 30.29,46.773C30.29,46.207 29.99,45.673 29.39,45.173C28.557,44.572 28.557,43.856 29.39,43.023C29.924,42.457 30.324,42.04 30.59,41.773C31.09,41.273 31.59,40.973 32.09,40.874C32.691,40.74 33.207,40.39 33.64,39.823C34.774,38.389 35.324,38.591 35.29,40.424L35.34,40.624C35.441,40.823 35.823,41.091 36.49,41.424C36.99,41.691 37.09,42.04 36.79,42.474C36.557,42.808 36.224,42.824 35.79,42.524C35.257,42.091 34.907,41.875 34.74,41.875C34.34,41.875 34.056,42.074 33.889,42.475C33.622,43.108 33.273,43.742 32.839,44.375C32.306,45.241 32.456,46.024 33.289,46.725C33.656,46.925 33.939,47.159 34.139,47.425C35.106,48.358 35.456,49.541 35.19,50.975C34.924,52.409 34.19,53.425 32.99,54.025C32.49,54.258 31.889,54.258 31.19,54.025C30.856,53.925 30.29,53.709 29.49,53.376L28.94,54.226C28.806,54.459 28.673,54.81 28.54,55.276C28.307,55.642 28.023,55.759 27.69,55.627C27.29,55.493 27.139,55.227 27.24,54.826C27.306,54.627 27.457,54.293 27.69,53.826C28.056,52.826 27.906,51.993 27.24,51.326C26.674,50.693 26.573,50.127 26.94,49.627C27.24,49.493 27.54,49.543 27.839,49.776C28.239,50.076 28.506,50.243 28.639,50.276C28.872,50.109 29.073,49.826 29.24,49.426C29.406,49.022 29.557,48.706 29.69,48.473ZM31.74,42.973C31.373,42.973 31.123,43.273 30.99,43.873C30.99,44.34 31.139,44.489 31.44,44.322C31.54,44.256 31.723,43.989 31.99,43.522C32.157,43.156 32.073,42.973 31.74,42.973ZM30.64,49.173C30.373,50.006 30.191,50.606 30.09,50.973C29.924,51.34 30.057,51.706 30.49,52.073C30.856,52.44 31.273,52.624 31.74,52.624C32.24,52.657 32.723,52.424 33.19,51.924C33.623,51.457 33.856,50.907 33.889,50.274C33.889,49.774 33.622,49.191 33.089,48.524C32.589,47.89 32.173,47.64 31.839,47.774C31.307,48.039 30.907,48.506 30.64,49.173Z"/>
            </g>
        </g>
    </g>
    <g id="noun-scale-1324381.svg" transform="matrix(8.60032,0,0,8.60032,2724.7,1423.13)">
        <g transform="matrix(1,0,0,1,-50,-62.5)">
            <path d="M53.469,20.946C53.502,20.413 53.202,19.796 52.569,19.096C51.902,18.429 51.319,18.096 50.819,18.096C50.319,18.096 49.802,18.329 49.269,18.796C48.703,19.329 48.419,19.779 48.419,20.146C48.385,20.713 48.669,21.229 49.269,21.696C49.869,22.196 50.519,22.463 51.219,22.496C51.852,22.529 52.385,22.379 52.819,22.046C53.252,21.747 53.469,21.38 53.469,20.946ZM55.169,21.646C55.169,22.246 54.868,22.713 54.269,23.046C53.135,23.713 52.236,23.98 51.569,23.846C50.003,23.679 48.92,23.429 48.319,23.096C47.319,22.396 46.786,21.513 46.719,20.446C46.618,19.38 47.052,18.513 48.019,17.846C48.819,17.213 49.402,16.812 49.769,16.646C50.536,16.346 51.219,16.396 51.819,16.796C54.052,18.13 55.169,19.747 55.169,21.646ZM50.669,33.296L50.618,34.446C50.318,41.113 50.169,45.079 50.169,46.346C50.035,47.179 49.952,47.812 49.919,48.246C49.919,49.079 50.135,49.829 50.568,50.496C50.735,46.562 50.952,43.629 51.218,41.696C51.351,40.829 51.601,38.096 51.968,33.496C52.068,32.829 51.884,32.513 51.418,32.546C51.019,32.546 50.769,32.796 50.669,33.296ZM53.669,32.847C53.335,33.147 53.135,33.797 53.068,34.797C52.735,38.964 52.535,41.43 52.468,42.197C52.001,46.231 51.768,52.264 51.768,60.297C52.001,60.53 52.151,60.647 52.218,60.647C53.551,60.647 54.367,60.814 54.668,61.147C55.001,61.414 55.185,62.214 55.218,63.547L55.218,70.047C55.218,71.38 55.268,72.247 55.367,72.647C55.934,74.414 56.418,75.48 56.817,75.847C57.284,76.214 58.35,76.364 60.017,76.297C63.35,76.297 66.067,76.664 68.167,77.397C69.399,77.83 70.233,78.547 70.667,79.547C71.1,80.547 71.017,81.614 70.417,82.747C70.149,83.28 69.7,83.547 69.066,83.547L66.816,83.547C64.95,83.247 62.382,83.03 59.116,82.897C55.45,82.697 52.917,82.53 51.516,82.397C49.249,82.164 46.116,82.064 42.116,82.097C37.717,82.13 34.599,82.08 32.766,81.947C31.533,81.881 30.799,81.747 30.566,81.547C30.299,81.38 30.116,80.864 30.016,79.997C29.95,79.164 30.132,78.397 30.566,77.697C31,76.93 31.599,76.447 32.366,76.247C33.2,76.014 34.983,75.797 37.717,75.597C40.083,75.464 42,74.714 43.467,73.347C45,71.913 45.866,70.014 46.067,67.647C46.168,66.18 46.217,64.647 46.217,63.047C46.283,61.447 47,60.68 48.366,60.747C48.533,60.747 48.616,60.697 48.616,60.597C48.616,60.53 48.533,60.313 48.366,59.947C48.167,59.614 48.149,59.064 48.316,58.297C48.183,55.364 48.283,51.364 48.616,46.297C48.95,40.497 49.116,36.464 49.116,34.197C49.183,33.53 49.083,33.064 48.816,32.797C48.583,32.497 48.132,32.347 47.466,32.347L26.966,32.247C24.699,32.247 22.933,32.547 21.666,33.147C22.365,36.547 23.999,41.98 26.565,49.447C26.699,49.881 26.898,50.18 27.166,50.347C27.365,50.447 27.716,50.514 28.216,50.547C29.983,50.647 31.499,50.614 32.766,50.447C33.399,50.381 33.783,50.514 33.916,50.847C34.016,51.28 33.849,51.58 33.416,51.747C32.716,52.014 32.365,52.714 32.365,53.847C32.232,55.413 31.432,56.98 29.966,58.547C27.166,61.414 23.716,63.03 19.615,63.397C14.416,63.864 10.348,62.48 7.416,59.247C6.649,58.414 6.065,57.297 5.666,55.897C5.466,55.197 5.249,53.93 5.016,52.097C5.016,51.697 5.082,51.447 5.216,51.347C6.316,50.38 7.299,49.014 8.166,47.247C9.065,45.214 9.799,43.714 10.365,42.747C11.098,41.447 11.966,39.813 12.966,37.847C14.032,35.647 14.849,33.997 15.416,32.897C15.683,32.264 15.832,31.764 15.865,31.397C15.932,30.897 15.765,30.364 15.365,29.797C14.799,28.997 14.598,28.297 14.765,27.697C14.865,27.164 15.348,26.58 16.215,25.947C17.015,25.381 17.682,24.964 18.215,24.697C19.348,24.164 20.114,24.381 20.515,25.347C20.648,25.614 21.032,26.014 21.665,26.547C22.165,27.014 22.481,27.464 22.614,27.897C22.681,28.13 22.881,28.297 23.215,28.397L24.114,28.397C30.881,28.597 36.531,27.68 41.064,25.647C43.998,24.347 46.931,23.814 49.864,24.047C52.897,24.247 55.764,25.231 58.465,26.997C60.065,28.03 61.965,28.764 64.165,29.197C65.198,29.397 67.215,29.631 70.215,29.897C70.948,29.997 72.031,29.997 73.465,29.897C74.965,29.864 76.048,29.864 76.715,29.897C79.348,30.164 81.381,29.264 82.815,27.197C83.482,26.197 84.199,25.68 84.965,25.647C85.698,25.614 86.665,26.014 87.864,26.847C87.531,27.147 87.165,27.28 86.764,27.247C86.531,27.247 86.198,27.214 85.764,27.147C85.031,27.18 84.38,27.464 83.814,27.997C83.248,28.563 83.014,29.164 83.114,29.797C83.215,30.564 83.597,31.147 84.264,31.547C84.964,31.981 85.731,32.114 86.564,31.947C87.264,31.78 87.698,31.43 87.864,30.897C87.898,30.764 87.915,30.214 87.915,29.247L87.915,28.747C87.948,28.547 88.064,28.43 88.265,28.397C88.699,28.264 89.081,28.48 89.415,29.047C89.682,29.714 89.698,30.414 89.465,31.147C89.232,31.947 88.781,32.547 88.114,32.947C87.614,33.28 87.298,33.514 87.165,33.647C86.965,33.947 86.898,34.347 86.965,34.847C87.665,40.38 88.781,45.28 90.315,49.547C90.649,50.614 90.965,51.247 91.265,51.447C91.565,51.647 92.315,51.731 93.515,51.697C94.182,51.697 94.598,51.78 94.765,51.947C95.032,52.18 95.048,52.631 94.815,53.297C94.682,53.664 94.598,54.38 94.565,55.447C94.532,56.381 94.381,57.131 94.115,57.697C92.815,60.43 90.549,62.497 87.315,63.897C82.848,65.797 78.715,65.864 74.916,64.097C73.148,63.33 71.666,62.097 70.466,60.397C69.632,59.097 68.782,57.347 67.916,55.147C67.815,54.78 67.916,54.38 68.216,53.947C68.649,53.481 68.899,53.131 68.966,52.897C68.999,51.997 69.566,51.73 70.666,52.097C71.266,52.264 71.666,52.114 71.865,51.647C72.732,49.447 74.249,46.514 76.416,42.847C78.782,38.947 80.382,36.047 81.216,34.147C81.249,34.114 81.266,33.897 81.266,33.497C80.866,33.297 80.349,33.214 79.716,33.247C78.916,33.38 78.416,33.414 78.216,33.347L61.166,32.397C59.365,32.364 57.549,32.364 55.716,32.397C54.719,32.396 54.035,32.546 53.669,32.847ZM80.568,30.946C79.368,31.146 77.884,31.263 76.118,31.296L71.719,31.296C65.952,31.363 61.319,30.363 57.819,28.296C52.086,24.896 46.219,24.663 40.219,27.596C35.486,29.896 30.135,30.596 24.169,29.696C23.669,29.563 23.202,29.563 22.769,29.696C22.502,29.763 22.335,29.963 22.269,30.296C22.169,30.496 22.203,30.663 22.369,30.796C22.503,30.963 22.67,31.046 22.869,31.046C24.069,30.946 24.986,30.896 25.619,30.896C34.486,31.129 41.136,31.246 45.569,31.246C56.203,31.279 61.736,31.312 62.17,31.346C68.47,31.412 73.986,31.696 78.72,32.196C79.42,32.23 79.886,32.23 80.119,32.196C80.686,32.096 81.17,31.813 81.569,31.346C81.202,31.213 80.868,31.08 80.568,30.946ZM83.019,33.597C82.319,35.264 80.703,38.247 78.169,42.547C75.936,46.314 74.385,49.447 73.519,51.947C74.519,52.214 75.719,52.264 77.119,52.097C79.119,51.864 80.22,51.747 80.42,51.747C81.687,51.813 82.47,51.73 82.77,51.497C82.937,51.264 83.07,50.514 83.17,49.247C83.369,45.813 83.603,40.664 83.869,33.797C83.868,33.497 83.585,33.43 83.019,33.597ZM85.368,34.196C84.969,36.763 84.702,39.713 84.568,43.046C84.502,46.946 84.702,49.763 85.169,51.496C86.002,51.629 86.635,51.713 87.068,51.746C87.902,51.779 88.618,51.713 89.218,51.546C88.485,49.313 87.768,46.463 87.068,42.996C86.702,41.063 86.135,38.13 85.368,34.196ZM91.919,53.296C90.452,53.063 87.818,52.896 84.019,52.796C80.719,52.763 77.135,53.163 73.269,53.996C72.369,54.196 71.819,54.296 71.619,54.296C71.019,54.296 70.47,54.096 69.97,53.696C69.937,55.496 70.453,56.896 71.52,57.896C71.954,57.696 72.52,57.229 73.22,56.496C73.853,55.829 74.437,55.413 74.97,55.246L74.97,55.846L73.72,57.396C72.92,58.263 72.536,58.846 72.57,59.146C72.604,59.446 73.103,60.079 74.07,61.046L78.12,57.046C78.421,57.513 78.421,57.946 78.12,58.346L75.57,60.946C75.037,61.48 74.87,61.896 75.07,62.196C75.504,62.73 76.02,62.779 76.62,62.346C77.02,62.113 77.537,61.679 78.171,61.046L81.87,57.296C82.07,57.563 82.12,57.813 82.02,58.046C81.886,58.313 81.77,58.513 81.67,58.646C80.803,59.946 79.786,61.063 78.619,61.996C78.053,62.329 77.92,62.713 78.22,63.146C78.619,63.679 79.136,63.729 79.77,63.296L86.57,57.296C86.803,56.996 86.97,56.796 87.07,56.696C87.37,56.496 87.687,56.496 88.02,56.696C87.487,57.73 86.47,58.88 84.97,60.146C83.103,61.679 81.869,62.813 81.27,63.546C82.636,63.546 84.02,62.913 85.42,61.646C87.02,60.213 88.153,59.396 88.819,59.196C88.92,59.463 88.885,59.763 88.719,60.096C88.519,60.396 88.419,60.629 88.419,60.796C88.985,60.963 89.436,60.879 89.769,60.546C91.502,58.713 92.653,56.913 93.219,55.146C93.385,54.513 93.368,54.046 93.169,53.746C92.969,53.513 92.552,53.363 91.919,53.296ZM87.719,61.847C87.919,61.813 88.069,61.714 88.169,61.547C88.235,61.481 88.318,61.264 88.419,60.897C88.252,60.897 88.002,60.947 87.669,61.047C87.202,61.28 87.068,61.514 87.269,61.747C87.402,61.913 87.552,61.946 87.719,61.847ZM51.769,62.046C51.469,62.113 51.069,62.246 50.569,62.446L50.269,62.396C49.502,62.063 48.953,62.096 48.619,62.496C48.42,62.796 48.236,63.312 48.069,64.046C48.003,64.346 47.969,65.013 47.969,66.046C47.969,68.179 47.702,69.863 47.169,71.096C46.502,72.763 45.302,74.013 43.568,74.846C44.835,75.312 46.551,75.596 48.718,75.696C50.851,75.796 52.584,75.679 53.918,75.346C52.951,72.346 52.784,69.079 53.418,65.546C53.751,64.213 53.567,63.129 52.867,62.296C52.602,61.963 52.235,61.88 51.769,62.046ZM66.068,78.046C65.301,78.013 62.468,77.746 57.568,77.246C54.134,76.913 51.301,76.763 49.068,76.796C47.735,76.796 46.985,76.779 46.818,76.746C45.518,76.379 43.818,76.312 41.718,76.546C38.884,76.813 37.201,76.946 36.668,76.946C36.168,76.913 35.567,76.996 34.867,77.196C34.468,77.329 33.867,77.513 33.067,77.746C31.934,78.113 31.633,78.763 32.168,79.696C32.734,80.663 33.451,80.829 34.317,80.196C34.751,79.896 35.168,79.496 35.567,78.996C36.133,78.229 36.767,77.946 37.467,78.146C37.567,78.513 37.417,78.896 37.017,79.296C36.583,79.696 36.383,80.063 36.417,80.396C37.35,80.829 38.2,80.879 38.967,80.546C39.6,80.213 40.217,79.596 40.817,78.696C41.05,78.429 41.3,78.363 41.567,78.496C41.734,78.729 41.684,79.096 41.418,79.596C41.117,80.029 41.101,80.379 41.367,80.646C43.334,81.046 44.834,80.596 45.867,79.296C46.067,78.963 46.418,78.663 46.918,78.396C47.218,78.196 47.435,78.229 47.567,78.496C47.534,78.696 47.284,79.013 46.817,79.446C46.418,79.779 46.3,80.146 46.467,80.546C47.734,80.813 48.717,80.929 49.417,80.896C50.483,80.763 51.434,80.279 52.267,79.446C51.967,80.079 51.867,80.529 51.967,80.796C52.1,81.063 52.484,81.246 53.116,81.346C54.75,81.613 56.483,81.062 58.316,79.696C58.183,80.296 58.116,80.696 58.116,80.896C58.116,81.296 58.467,81.513 59.167,81.546C60.3,81.579 61.184,81.496 61.816,81.296C62.716,81.063 63.466,80.546 64.066,79.746C64.066,80.979 64.149,81.663 64.316,81.796C64.483,81.963 65.066,81.863 66.066,81.496C66.399,81.329 66.649,81.213 66.816,81.146C67.116,81.013 67.382,81.029 67.616,81.196C68.217,81.596 68.667,81.429 68.967,80.696C69.234,80.063 69.133,79.546 68.667,79.146C67.901,78.48 67.035,78.113 66.068,78.046ZM20.669,27.997C20.735,26.864 20.052,26.33 18.618,26.397C18.118,26.397 17.652,26.597 17.219,26.997C16.752,27.397 16.552,27.813 16.618,28.247C16.618,28.714 16.785,29.13 17.118,29.497C17.485,29.864 17.902,30.047 18.368,30.047C18.901,30.047 19.401,29.83 19.868,29.397C20.335,28.964 20.602,28.497 20.669,27.997ZM18.219,33.546C18.219,39.879 18.236,43.663 18.269,44.896C18.335,47.696 18.752,49.363 19.519,49.896C20.286,50.496 22.169,50.596 25.169,50.196C24.401,48.096 23.602,45.596 22.769,42.696C22.302,41.029 21.635,38.579 20.769,35.346C20.602,34.746 20.203,33.579 19.569,31.846C19.503,31.446 19.302,31.296 18.969,31.396C18.669,31.496 18.469,31.663 18.368,31.896C18.269,32.43 18.219,32.98 18.219,33.546ZM16.519,33.597C15.585,35.464 14.169,38.23 12.269,41.897C10.669,45.064 9.403,47.88 8.469,50.347C9.335,50.647 10.403,50.764 11.669,50.697C13.502,50.564 14.535,50.497 14.769,50.497C15.869,50.563 16.536,50.447 16.769,50.147C17.069,49.88 17.169,49.18 17.069,48.047C16.869,45.347 16.836,41.28 16.969,35.847C16.969,35.614 16.986,35.264 17.019,34.797C17.019,34.363 16.852,33.963 16.519,33.597ZM30.169,51.796C30.002,51.796 29.735,51.813 29.368,51.846C20.368,51.613 13.635,51.779 9.169,52.346C8.135,52.479 7.552,52.629 7.419,52.796C7.285,53.063 7.368,53.763 7.669,54.896C8.035,54.929 8.469,54.713 8.969,54.246C9.469,53.779 9.936,53.579 10.368,53.646C10.335,54.179 10.018,54.663 9.419,55.096C8.785,55.596 8.419,55.979 8.318,56.246C8.218,56.846 8.368,57.413 8.768,57.946C8.968,58.179 9.402,58.596 10.068,59.196C11.169,58.029 12.002,57.179 12.568,56.646C13.502,55.646 14.502,55.063 15.568,54.896C15.301,55.329 14.718,55.946 13.818,56.746C13.018,57.446 12.502,58.096 12.268,58.696C12.168,58.896 11.968,59.146 11.668,59.446C11.468,59.746 11.551,60.029 11.918,60.296C12.617,60.896 13.268,60.863 13.867,60.196L18.468,55.846C18.701,55.613 18.884,55.429 19.018,55.296C19.285,55.163 19.568,55.213 19.868,55.446C19.568,56.179 18.752,57.13 17.419,58.296C16.085,59.396 15.219,60.429 14.818,61.396C16.685,61.429 18.485,60.629 20.218,58.996C22.751,56.629 24.235,55.329 24.668,55.096C24.201,56.263 23.301,57.463 21.968,58.696C20.268,60.196 19.235,61.213 18.867,61.746C20.001,61.579 20.784,61.363 21.218,61.096C21.551,60.896 22.367,60.196 23.668,58.996C24.201,58.396 24.584,57.963 24.817,57.696C25.284,57.196 25.617,57.063 25.817,57.296C26.217,57.763 26.184,58.213 25.717,58.646C25.417,58.879 24.967,59.229 24.366,59.696C24.233,59.963 24.3,60.13 24.566,60.196C28.366,58.696 30.483,56.013 30.917,52.146C30.785,51.913 30.535,51.796 30.169,51.796Z"/>
        </g>
    </g>
    <g id="noun-vote-1324377.svg" transform="matrix(5.97079,0,0,6.69847,2593.23,2191.52)">
        <g transform="matrix(1,0,0,1,-50,-62.5)">
            <g transform="matrix(1.05672,0,0,1.05672,-2.72198,-2.49605)">
                <path d="M82.699,12.302C82.466,12.735 82.515,13.085 82.848,13.352C83.515,14.119 84.015,14.669 84.348,15.002C84.949,15.635 85.532,16.035 86.098,16.202C86.565,16.169 86.848,16.102 86.949,16.002C88.749,14.269 90.015,12.702 90.749,11.302C90.849,11.102 90.782,10.685 90.549,10.052C89.149,6.919 87.332,6.602 85.099,9.102C84.132,10.202 83.533,10.952 83.299,11.352C82.999,11.785 82.799,12.102 82.699,12.302ZM83.249,8.751C84.415,7.351 85.148,6.518 85.449,6.251C86.216,5.518 86.799,5.101 87.199,5.001C87.699,4.901 88.315,5.101 89.049,5.601C90.516,6.834 91.615,7.751 92.349,8.351C93.149,9.118 93.266,10.118 92.7,11.351C92.2,12.484 91.283,13.784 89.95,15.251C88.182,17.218 87.149,18.401 86.849,18.801L86.299,19.101C85.733,19.034 85.266,18.784 84.899,18.351C83.599,16.651 82.083,15.234 80.349,14.101C79.915,13.768 79.716,13.268 79.749,12.601C79.849,11.868 80.165,11.368 80.699,11.101C81.565,10.635 82.415,9.852 83.249,8.751ZM77.249,15.151C78.282,14.918 79.132,15.051 79.799,15.551C82.932,17.918 85.032,19.968 86.099,21.701C87.2,23.468 88.249,24.668 89.249,25.301C90.549,26.168 90.648,27.284 89.549,28.651C88.115,30.451 85.849,32.984 82.749,36.251C80.615,38.484 79.282,40.068 78.749,41.001C78.382,41.668 77.898,41.768 77.299,41.301C77.066,41.168 76.949,40.951 76.949,40.651C76.949,40.518 76.999,40.268 77.098,39.901C77.199,39.468 77.414,39.068 77.748,38.701C78.281,38.401 78.647,38.151 78.848,37.951C80.215,36.884 81.681,35.434 83.248,33.601C84.981,31.468 86.298,29.868 87.198,28.801C87.664,28.301 87.881,27.851 87.847,27.451C87.847,27.017 87.614,26.551 87.147,26.051C86.781,25.617 86.43,25.401 86.097,25.401C85.83,25.401 85.464,25.601 84.997,26.001C83.563,27.368 81.88,29.218 79.947,31.551L75.146,37.301C73.48,39.201 70.929,42.051 67.497,45.851C64.53,49.218 62.08,52.134 60.146,54.601C58.813,56.234 57.113,57.851 55.046,59.451C54.113,60.218 52.246,61.534 49.446,63.401C47.346,64.868 45.479,66.651 43.846,68.751C40.579,72.818 36.746,77.968 32.346,84.201C31.479,85.401 30.796,86.068 30.296,86.201C29.763,86.267 28.83,85.934 27.496,85.201C26.763,84.868 25.679,84.301 24.246,83.501C23.013,82.768 21.963,82.068 21.096,81.401C20.229,80.701 19.463,80.651 18.796,81.251L14.296,84.951C12.629,86.418 11.246,87.801 10.146,89.101C8.946,90.534 9.246,91.551 11.046,92.151C11.48,92.318 12.013,92.284 12.646,92.051C13.313,91.818 13.813,91.668 14.146,91.601C15.113,92.468 16.396,92.901 17.996,92.901C19.863,92.701 21.246,92.651 22.146,92.751C22.379,92.784 22.563,92.651 22.696,92.351C22.896,91.918 23.063,91.668 23.196,91.601C24.196,90.601 24.979,89.818 25.546,89.251C26.48,88.351 27.413,87.768 28.346,87.501L23.546,92.351C24.946,92.718 26.046,92.868 26.846,92.801C27.779,92.668 28.596,92.201 29.296,91.401C29.83,90.801 30.196,90.401 30.396,90.201C30.896,89.834 31.396,89.651 31.896,89.651C31.896,90.085 31.679,90.484 31.246,90.851C30.746,91.284 30.496,91.718 30.496,92.151C31.296,92.451 32.196,92.518 33.196,92.351C33.429,92.284 34.313,92.051 35.846,91.651L35.796,91.601C37.696,92.834 39.563,92.734 41.396,91.301C42.696,90.201 44.146,88.901 45.746,87.401C45.813,88.234 45.429,89.034 44.596,89.801C43.563,90.901 42.979,91.568 42.846,91.801C43.846,91.968 44.613,91.867 45.146,91.501C45.679,91.201 47.096,89.935 49.396,87.701C49.563,88.368 49.33,89.017 48.696,89.651C47.963,90.384 47.579,90.918 47.546,91.251C49.679,91.185 51.129,90.884 51.896,90.351C52.696,89.818 53.363,88.584 53.896,86.651C54.496,84.751 54.796,82.935 54.796,81.201C54.83,79.901 54.963,77.068 55.196,72.701C55.429,69.134 55.529,66.284 55.496,64.151L55.546,63.201C55.58,62.568 55.629,62.184 55.696,62.051C55.829,61.684 56.113,61.517 56.546,61.551C57.013,61.617 57.296,61.834 57.396,62.201C57.429,62.334 57.446,62.718 57.446,63.351C56.846,74.551 56.196,82.568 55.496,87.401C54.996,90.734 53.346,92.651 50.546,93.151C49.58,93.351 48.146,93.634 46.246,94.001C44.546,94.268 43.063,94.368 41.796,94.301C36.963,94.267 31.313,94.484 24.846,94.951C22.912,95.084 20.679,95.034 18.146,94.801C16.646,94.701 14.413,94.517 11.446,94.251C8.746,94.084 7.279,92.451 7.046,89.351C6.913,87.918 6.913,86.068 7.046,83.801C7.18,81.001 7.246,79.151 7.246,78.251C7.213,74.185 7.312,68.068 7.546,59.901C7.546,59.001 7.696,57.618 7.996,55.751C8.129,54.251 8.68,53.084 9.646,52.251C10.479,51.618 11.646,51.134 13.146,50.801C14.646,50.501 16.496,50.334 18.696,50.301C21.162,50.367 23.029,50.384 24.296,50.351L41.296,50.351C44.596,50.351 47.263,49.218 49.296,46.951C56.429,38.918 61.73,32.818 65.196,28.651L73.746,18.351C74.513,17.384 74.963,16.768 75.096,16.501C75.499,15.768 76.216,15.318 77.249,15.151ZM80.849,19.001C79.716,17.834 78.582,16.984 77.45,16.451C73.25,21.618 69.916,25.601 67.45,28.401C67.05,28.901 64.716,31.634 60.45,36.601C57.65,39.868 55.266,42.551 53.3,44.651C52.567,45.451 51.5,46.618 50.1,48.151C48.9,49.518 48.05,50.818 47.55,52.051C47.783,52.084 48.15,52.034 48.65,51.901C49.15,51.835 49.55,51.951 49.85,52.251C50.017,52.384 50.683,52.935 51.85,53.901C52.683,54.534 53.25,55.201 53.55,55.901C54.117,57.068 54.867,57.185 55.8,56.251C58.234,53.918 60,52.101 61.1,50.801L83.4,25.101C84.334,24.101 84.433,23.151 83.701,22.251C82.299,20.552 81.349,19.468 80.849,19.001ZM51.398,56.251C50.531,55.151 49.798,54.484 49.198,54.251C48.498,53.984 47.931,53.301 47.498,52.201C46.798,53.568 46.381,55.251 46.248,57.251C46.115,59.351 46.348,61.201 46.948,62.801L50.698,60.251C51.798,59.518 52.381,58.901 52.448,58.401C52.515,57.901 52.165,57.185 51.398,56.251ZM44.249,56.751C44.316,54.951 44.432,53.401 44.599,52.101L23.399,52.101C20.266,52.101 17.449,52.201 14.949,52.401C13.282,52.534 12.049,52.984 11.249,53.751C10.416,54.551 9.815,55.768 9.449,57.401C9.315,58.034 9.299,58.901 9.399,60.001C9.466,61.234 9.482,62.101 9.449,62.601C9.182,64.268 9.182,65.218 9.449,65.451C9.682,65.684 10.665,65.618 12.399,65.251C10.999,66.518 10.066,67.618 9.599,68.551C8.966,69.784 8.915,71.151 9.449,72.651C10.216,72.318 11.149,71.651 12.249,70.651C13.449,69.651 14.366,68.984 14.999,68.651C15.099,69.251 14.999,69.668 14.699,69.901L11.499,72.701C10.032,73.901 9.199,75.001 8.999,76.001C8.766,77.001 9.016,78.418 9.749,80.251C11.382,78.951 12.832,77.484 14.099,75.851C14.466,75.351 14.749,74.984 14.949,74.751C15.282,74.351 15.632,74.168 15.999,74.201C16.866,74.301 17.549,74.001 18.049,73.301C18.516,72.468 18.916,71.867 19.249,71.501C19.316,71.401 19.432,71.001 19.599,70.301C19.732,69.801 20.016,69.534 20.449,69.501C21.282,69.468 22.216,69.718 23.249,70.251C25.549,71.518 27.249,72.501 28.349,73.201C29.482,73.968 30.532,74.267 31.499,74.101C32.299,73.901 33.232,73.318 34.299,72.351C35.199,71.551 36.649,70.101 38.649,68.001C40.482,66.068 41.966,64.634 43.099,63.701C43.866,63.034 44.249,62.251 44.249,61.351L44.249,56.751ZM40.499,68.651L32.699,76.051C31.432,77.351 30.232,77.401 29.099,76.201C28.232,75.301 26.682,74.301 24.449,73.201C22.915,72.201 21.749,71.834 20.949,72.101C20.116,72.368 19.316,73.318 18.549,74.951L18.399,75.251C18.032,76.218 18.199,76.901 18.899,77.301C20.999,78.834 22.566,79.951 23.599,80.651C25.532,81.918 27.266,82.835 28.799,83.401C30.299,83.901 31.399,83.484 32.099,82.151C32.199,82.018 32.999,80.734 34.499,78.301C38.999,71.801 41.482,68.201 41.949,67.501L40.499,68.651ZM14.798,76.552C14.332,77.052 13.715,77.785 12.948,78.752C12.215,79.552 11.548,80.152 10.948,80.552C9.681,81.518 8.981,82.719 8.848,84.152C8.748,84.852 8.865,86.302 9.198,88.502C11.298,86.402 12.848,84.885 13.848,83.952C15.581,82.352 17.164,81.018 18.598,79.952L17.848,79.002L14.798,76.552ZM14.398,91.052C15.165,90.118 16.598,88.935 18.698,87.502C20.698,86.135 22.115,84.902 22.948,83.802C22.648,85.035 21.631,86.419 19.898,87.952C18.231,89.385 16.315,90.569 14.148,91.502C14.249,91.235 14.332,91.085 14.398,91.052ZM39.548,87.901C39.048,88.935 38.565,89.685 38.098,90.151C37.498,90.818 36.765,91.301 35.898,91.601C37.132,89.635 38.349,88.401 39.548,87.901ZM31.949,89.602C32.182,88.702 32.882,88.152 34.049,87.952C33.849,88.185 33.583,88.569 33.249,89.102C32.882,89.535 32.449,89.702 31.949,89.602Z"/>
            </g>
        </g>
    </g>
    <g id="noun-president-1324375.svg" transform="matrix(8.60032,0,0,8.60032,575.298,1423.13)">
        <g transform="matrix(1,0,0,1,-50,-62.5)">
            <path d="M63.429,11.3C64.929,12.933 65.828,15.234 66.129,18.2C66.362,19.467 66.512,20.417 66.578,21.05C66.745,22.217 66.795,23.2 66.728,24C66.628,25 67.061,25.5 68.028,25.5C69.028,25.566 69.578,26.183 69.678,27.35L70.378,31.85C70.611,33.517 70.128,34.617 68.928,35.15C67.827,35.75 67.344,36.767 67.478,38.2C67.745,41.3 67.094,44.134 65.528,46.7C64.195,48.8 62.162,50.884 59.428,52.95C58.761,53.35 58.112,53.617 57.478,53.75C51.711,55.117 46.378,54.85 41.478,52.95C36.912,51.15 34.362,47.783 33.828,42.85C33.762,41.416 33.745,40.316 33.778,39.55C33.811,38.35 33.712,37.417 33.478,36.75C33.178,35.85 32.578,35.117 31.678,34.55C31.112,34.117 30.778,32.984 30.678,31.15C30.612,29.283 30.862,28.15 31.428,27.75C32.461,26.983 33.128,25.95 33.428,24.65C33.594,24.017 33.695,22.85 33.728,21.15C33.862,18.017 35.145,14.833 37.578,11.6C38.379,10.6 39.212,9.7 40.078,8.9C42.112,7 44.379,5.817 46.879,5.35C48.312,5.217 49.429,5.1 50.229,5C54.196,5 57.762,6.3 60.929,8.9C61.795,9.6 62.629,10.4 63.429,11.3ZM53.778,7.25C51.379,6.55 48.995,6.483 46.629,7.05C45.229,7.383 43.912,8 42.679,8.9C41.312,9.867 40.045,11.133 38.879,12.7C36.612,15.734 35.445,19.017 35.379,22.55C35.379,22.75 35.479,22.9 35.679,23C35.946,23.066 36.146,23.117 36.279,23.15L36.329,22.9C36.496,22.567 36.646,22.333 36.779,22.2C36.979,21.967 37.213,21.85 37.479,21.85C37.679,21.85 37.779,21.95 37.779,22.15C37.646,22.917 37.179,23.3 36.38,23.3C36.013,23.967 35.763,24.467 35.63,24.8C35.43,25.433 35.579,25.984 36.079,26.45C36.713,25.95 37.196,25.583 37.529,25.35C38.13,24.883 38.746,24.683 39.38,24.75C37.779,26.117 35.68,28.383 33.079,31.55C32.913,31.05 33.079,30.4 33.579,29.6C34.113,28.767 34.346,28.1 34.279,27.6C33.446,28.033 32.963,28.633 32.829,29.4C32.696,29.9 32.763,30.617 33.029,31.55C32.663,32.55 32.829,33.333 33.529,33.9C34.562,34.4 35.312,34.817 35.779,35.15C36.88,33.817 37.746,32.883 38.38,32.35C38.846,31.783 39.196,31.367 39.43,31.1C39.864,30.633 40.38,30.483 40.98,30.65C39.614,32.217 38.38,33.55 37.28,34.65C35.647,36.35 35.197,38.55 35.93,41.25C36.496,41.017 37.046,40.55 37.579,39.85C38.279,39.05 38.729,38.566 38.93,38.4C39.563,37.767 40.03,37.283 40.329,36.95C40.93,36.384 41.546,36.067 42.18,36L42.28,36.5L38.03,40.8C36.73,42.133 36.03,43.083 35.93,43.65C35.864,44.217 36.313,45.367 37.28,47.1C38.047,46.8 38.763,46.267 39.43,45.5C40.197,44.566 40.796,43.867 41.23,43.4C42.563,41.967 43.397,41.133 43.73,40.9C44.13,40.633 44.68,40.45 45.38,40.35C44.746,41.217 43.696,42.383 42.23,43.85C40.796,45.283 39.763,46.433 39.13,47.3C38.73,47.8 38.529,48.183 38.529,48.45C38.496,48.783 38.713,49.134 39.179,49.5C40.012,50.167 40.779,50.066 41.479,49.2C42.879,47.5 44.779,45.55 47.179,43.35C47.545,43.017 47.762,42.85 47.828,42.85C48.129,42.717 48.412,42.816 48.679,43.15C48.345,43.55 47.113,44.717 44.979,46.65C43.446,48.017 42.379,49.3 41.779,50.5C42.046,50.9 42.413,51.183 42.88,51.35C43.38,51.483 43.763,51.617 44.029,51.75C44.729,52.117 45.363,52.217 45.929,52.05C46.429,51.883 46.946,51.433 47.479,50.7C48.212,49.767 49.312,48.65 50.779,47.35C52.613,45.75 53.796,44.65 54.329,44.05C53.963,45.25 52.93,46.617 51.229,48.15C49.496,49.783 48.396,51.167 47.929,52.3C49.196,52.5 50.113,52.633 50.679,52.7C51.646,52.7 52.396,52.384 52.929,51.75C53.495,51.05 54.462,50.133 55.828,49C57.129,47.8 58.045,46.867 58.578,46.2C58.745,45.867 58.929,45.634 59.129,45.5C59.328,45.3 59.646,45.316 60.078,45.55C59.612,46.417 58.629,47.517 57.129,48.85C55.729,50.15 54.795,51.25 54.328,52.15C55.395,52.25 56.078,52.25 56.379,52.15C56.646,52.083 57.045,51.767 57.578,51.2C58.512,50.234 59.228,49.517 59.728,49.05C60.594,48.217 61.378,47.6 62.078,47.2C63.112,46.667 63.962,45.75 64.629,44.45C65.896,41.55 66.129,39 65.328,36.8C64.862,35.4 65.278,34.567 66.578,34.3C67.778,34.067 68.412,33.467 68.478,32.5C68.544,30.933 68.544,29.967 68.478,29.6C68.378,28.5 67.945,27.683 67.178,27.15C66.178,26.583 65.561,25.833 65.327,24.9C65.161,24.367 65.06,23.417 65.027,22.05C65.027,17.55 63.711,13.917 61.077,11.15C60.277,10.317 59.277,9.567 58.077,8.9C56.845,8.267 55.412,7.717 53.778,7.25ZM56.679,13.7C58.412,13.367 59.495,13.9 59.929,15.3C60.262,16.267 60.712,17.917 61.279,20.25C61.38,20.75 61.213,21.066 60.779,21.2C60.113,21.333 59.729,21.1 59.63,20.5C59.496,20.066 59.43,19.583 59.43,19.05C59.329,17.817 59.13,16.867 58.829,16.2C58.429,15.233 57.712,14.4 56.679,13.7ZM61.028,26.6C61.195,27.133 61.045,27.533 60.578,27.8C60.311,27.967 60.078,27.833 59.879,27.4C59.146,26.233 59.262,25.283 60.229,24.55C60.629,25.017 60.812,25.283 60.779,25.35C60.712,25.45 60.795,25.867 61.028,26.6ZM77.828,48.3C77.962,47.633 78.429,47.4 79.228,47.6C81.328,48.066 82.745,49.166 83.478,50.9C84.178,52.667 83.928,54.4 82.728,56.1C82.362,56.533 82.211,56.933 82.278,57.3C82.311,57.6 82.478,57.984 82.778,58.45C83.645,59.717 84.212,60.667 84.478,61.3C86.011,64.7 86.478,67.65 85.878,70.15C85.777,70.55 85.628,71.667 85.428,73.5C85.928,73.633 86.728,73.7 87.827,73.7C88.928,73.7 89.761,73.783 90.327,73.95C90.161,75.583 90.31,77.267 90.777,79C90.944,79.7 91.027,80.2 91.027,80.5C91.161,82.633 90.878,84.083 90.177,84.85C89.477,85.617 88.093,86 86.027,86L80.227,86C79.593,86 79.127,86.15 78.827,86.45C78.594,86.65 78.378,87.05 78.178,87.65C77.544,89.183 77.211,90.35 77.178,91.15C77.011,92.85 75.978,93.867 74.077,94.2C72.878,94.4 72.178,94.5 71.977,94.5C66.343,94.833 59.644,95 51.877,95C47.443,95 40.76,94.983 31.826,94.95C31.627,94.95 31.26,94.917 30.726,94.85C30.326,94.717 29.993,94.666 29.726,94.7C28.092,94.967 26.809,94.55 25.876,93.45C25.342,92.884 24.726,91.683 24.025,89.85C23.792,89.35 23.475,88.617 23.075,87.65C22.676,86.75 22.442,85.967 22.376,85.3C22.275,84.8 21.976,84.45 21.476,84.25C21.176,84.15 20.643,84.083 19.876,84.05L13.275,83.4C12.775,83.367 11.725,83.05 10.126,82.45C9.459,82.183 9.092,81.717 9.025,81.05C8.925,78.517 8.909,77.017 8.975,76.55C9.242,74.35 10.242,72.8 11.975,71.9C13.442,71.2 15.508,70.9 18.175,71C20.642,71.1 22.341,71.066 23.275,70.9C23.841,70.8 24.242,70.65 24.475,70.45C24.708,70.183 24.859,69.783 24.925,69.25C24.958,66.483 25.775,63.967 27.375,61.7C28.608,59.933 30.491,58.083 33.024,56.15C33.791,55.617 34.507,55.45 35.174,55.65C35.84,55.817 36.358,56.333 36.724,57.2C37.358,58.833 38.641,61.1 40.574,64C42.175,66.4 43.458,68.967 44.425,71.7L46.475,65.65C46.642,65.117 46.591,64.517 46.325,63.85C46.058,62.916 45.926,62.316 45.926,62.05C45.926,61.484 45.776,60.583 45.476,59.35C45.376,58.383 45.493,57.733 45.826,57.4C46.16,57.1 46.843,56.983 47.877,57.05C49.41,57.283 50.543,57.417 51.276,57.45C52.61,57.517 53.776,57.384 54.776,57.05C55.41,56.817 55.943,56.984 56.377,57.55C56.71,58.15 56.776,59.167 56.576,60.6C56.41,62.1 56.043,62.95 55.476,63.15C54.643,63.583 54.176,64.117 54.076,64.75C54.043,65.183 54.193,65.816 54.526,66.65C55.393,68.817 55.91,70.45 56.076,71.55C56.576,71.283 56.943,70.9 57.177,70.4C57.31,70.233 57.527,69.767 57.826,69C59.726,64.767 61.677,60.867 63.677,57.3C64.177,56.367 64.627,55.817 65.027,55.65C65.394,55.45 66.044,55.483 66.977,55.75C70.01,56.483 72.127,58.1 73.327,60.6C75.194,64.433 76.294,67.467 76.628,69.7C76.794,70.467 76.861,71.05 76.827,71.45C76.727,72.55 76.777,73.183 76.977,73.35C77.144,73.583 77.744,73.7 78.777,73.7C79.777,73.767 80.56,73.8 81.128,73.8C81.994,73.867 82.711,73.75 83.277,73.45C83.81,73.117 84.077,72.517 84.077,71.65C84.044,70.317 84.044,69.6 84.077,69.5C84.511,67.767 84.411,65.967 83.777,64.1C83.411,62.933 82.611,61.333 81.378,59.3C80.878,58.4 80.077,58.1 78.978,58.4C78.211,58.6 77.395,58.55 76.528,58.25C76.094,58.083 75.379,57.75 74.379,57.25C73.278,56.65 72.562,55.95 72.229,55.15C71.929,54.35 71.946,53.267 72.279,51.9C72.713,50.4 73.246,49.367 73.88,48.8C74.613,48.267 75.68,48.017 77.079,48.05C75.38,49.15 74.38,50.517 74.079,52.15C73.812,53.483 74.113,54.617 74.979,55.55C75.812,56.484 76.913,56.883 78.279,56.75C79.079,56.65 79.863,56.333 80.63,55.8C81.43,55.2 81.897,54.633 82.029,54.1C82.496,52.367 81.863,50.883 80.13,49.65L77.828,48.3ZM75.179,71.35C74.113,67.117 72.863,63.7 71.429,61.1C70.863,60.2 69.946,59.283 68.679,58.35C67.545,57.583 66.662,57.267 66.029,57.4C65.396,57.567 64.729,58.233 64.029,59.4C61.429,64.233 59.279,68.833 57.579,73.2C64.913,73.433 70.079,73.583 73.079,73.65C74.046,73.683 74.68,73.533 74.979,73.2C75.278,72.833 75.345,72.217 75.179,71.35ZM53.328,59.15C52.728,59.25 51.712,59.25 50.278,59.15C48.978,59.017 47.928,59.067 47.129,59.3C47.195,60.7 47.278,61.517 47.379,61.75C47.445,62.05 47.679,62.2 48.078,62.2C50.612,62.3 52.495,62.25 53.728,62.05C54.128,62.017 54.461,61.767 54.728,61.3C54.928,60.9 55.011,60.433 54.978,59.9C54.912,59.2 54.362,58.95 53.328,59.15ZM51.828,63.75C51.561,63.55 50.895,63.633 49.828,64C48.828,64.267 48.162,64.933 47.828,66C47.195,67.9 46.745,69.35 46.478,70.35C46.211,71.217 46.145,71.767 46.278,72C46.412,72.167 46.928,72.333 47.828,72.5C48.395,72.566 49.445,72.617 50.978,72.65C52.278,72.717 53.311,72.833 54.078,73C54.512,72.267 54.545,71.35 54.179,70.25L52.679,65.65C52.379,64.55 52.095,63.917 51.828,63.75ZM62.229,85.7C61.196,85.533 60.363,85.533 59.729,85.7C59.196,85.867 58.663,86.367 58.129,87.2C57.896,87.667 57.495,88.384 56.929,89.35C56.629,89.783 56.146,90.4 55.479,91.2C54.946,91.967 54.629,92.75 54.529,93.55C55.663,93.75 56.546,93.817 57.179,93.75C58.078,93.617 58.845,93.167 59.479,92.4C60.379,91.3 61.396,90.517 62.529,90.05C62.729,89.65 63.196,89.083 63.929,88.35C64.662,87.683 65.045,87.033 65.078,86.4L64.828,86.15C64.229,86.083 63.362,85.933 62.229,85.7ZM55.129,85.25C54.129,85.217 53.495,85.433 53.229,85.9C52.829,86.433 51.746,87.667 49.979,89.6C48.579,91.166 47.512,92.65 46.779,94.05C47.512,93.817 48.413,93.717 49.479,93.75C50.579,93.75 51.363,93.667 51.829,93.5C52.163,93.467 52.413,93.45 52.579,93.45C52.88,93.384 53.062,93.25 53.13,93.05C53.363,92.583 54.196,91.383 55.63,89.45C56.73,87.95 57.38,86.567 57.579,85.3L55.129,85.25ZM69.578,87.65C70.012,87.183 70.262,86.717 70.328,86.25C68.429,85.45 66.929,85.9 65.828,87.6C65.328,88.433 64.912,89 64.578,89.3C63.978,89.9 63.311,90.2 62.578,90.2C62.578,90.734 62.228,91.3 61.528,91.9C60.728,92.533 60.328,93.133 60.328,93.7C61.595,93.8 62.311,93.833 62.478,93.8C63.245,93.767 63.794,93.5 64.128,93C64.527,92.4 65.244,91.683 66.277,90.85C67.343,89.95 68.06,89.267 68.427,88.8C68.929,88.333 69.312,87.95 69.578,87.65ZM65.879,93.3C66.778,93.4 67.445,93.45 67.879,93.45C68.679,93.484 69.262,93.283 69.629,92.85C71.129,91.517 72.245,90.483 72.979,89.75C74.345,88.483 75.363,87.25 76.029,86.05C74.429,85.95 73.413,85.95 72.979,86.05C72.579,86.217 71.863,86.8 70.829,87.8L66.93,91.5C66.763,91.7 66.496,91.933 66.13,92.2C65.828,92.5 65.745,92.867 65.879,93.3ZM52.828,83.95C54.295,83.95 57.778,84.1 63.278,84.4C67.612,84.667 71.112,84.7 73.778,84.5C75.412,84.333 77.478,84.267 79.978,84.3L86.278,84.3C87.278,84.267 87.962,84.067 88.328,83.7C88.695,83.4 88.995,82.7 89.228,81.6C89.395,80.933 89.362,80.133 89.128,79.2C88.961,78.7 88.728,77.95 88.428,76.95C88.362,76.717 88.378,76.367 88.478,75.9C88.478,75.5 88.245,75.267 87.778,75.2C86.844,75.067 86.362,75 86.328,75C86.129,75 85.962,75.05 85.828,75.15C84.462,75.05 83.112,75 81.778,75C81.678,75 81.612,75.033 81.578,75.1L78.129,75.1C77.528,75.033 77.028,75.117 76.629,75.35C75.662,75.316 74.712,75.3 73.778,75.3C73.412,75.167 72.962,75.067 72.428,75C71.161,74.933 68.895,74.883 65.628,74.85C62.761,74.783 60.478,74.7 58.777,74.6C46.911,73.7 39.26,73.083 35.827,72.75C33.994,72.583 31.261,72.467 27.628,72.4C27.294,72.367 26.978,72.45 26.678,72.65C25.778,72.383 24.811,72.283 23.778,72.35L23.629,72.35C22.695,72.45 21.328,72.5 19.528,72.5C17.629,72.433 16.212,72.45 15.278,72.55C13.879,72.683 12.745,73.3 11.879,74.4C11.012,75.5 10.679,76.767 10.879,78.2C11.045,79.667 11.429,80.667 12.028,81.2C12.629,81.667 13.795,82 15.528,82.2C17.928,82.5 20.844,82.734 24.278,82.9C28.212,83.1 31.145,83.25 33.078,83.35C39.212,83.683 45.795,83.883 52.828,83.95ZM71.729,92.85C72.996,92.883 73.946,92.533 74.579,91.8C74.979,91.267 75.296,90.367 75.529,89.1C75.363,89.333 74.663,89.867 73.429,90.7C72.495,91.333 71.929,92.05 71.729,92.85ZM42.778,71.4C42.212,69.7 40.912,67.283 38.879,64.15C36.879,61.083 35.562,58.6 34.929,56.7C30.196,60.1 27.446,64 26.679,68.4C26.479,69.6 26.495,70.35 26.729,70.65C26.996,70.983 27.729,71.167 28.929,71.2L40.729,71.85C41.129,71.983 41.462,72.05 41.729,72.05C42.162,72.05 42.512,71.833 42.778,71.4ZM23.979,85.3C24.246,85.7 24.446,85.984 24.579,86.15C24.846,86.65 25.146,86.917 25.479,86.95C25.812,86.884 26.113,86.65 26.379,86.25C26.612,85.783 26.812,85.45 26.979,85.25C27.279,84.783 27.179,84.45 26.679,84.25C25.412,83.883 24.545,83.917 24.078,84.35C23.778,84.65 23.745,84.967 23.979,85.3ZM26.129,90.25C26.629,91.05 27.012,91.667 27.278,92.1C27.678,92.933 28.195,92.883 28.828,91.95L33.078,84.85L31.629,84.6C29.595,84.233 27.795,85.35 26.229,87.95C25.828,88.717 25.795,89.483 26.129,90.25ZM46.778,86.15L41.278,93C43.844,94.267 45.811,93.75 47.178,91.45C47.244,91.317 47.811,90.734 48.878,89.7C50.244,88.333 51.194,86.967 51.728,85.6C49.862,85.1 47.478,84.85 44.578,84.85C40.912,84.816 38.629,84.75 37.728,84.65C35.261,84.317 33.628,85.167 32.828,87.2C32.629,87.767 32.078,88.7 31.179,90C30.412,91.2 29.929,92.2 29.729,93C31.262,93.3 32.229,93.383 32.629,93.25C33.062,93.117 33.695,92.566 34.528,91.6L38.028,87.35C38.328,86.916 38.495,86.7 38.528,86.7C38.795,86.5 39.162,86.45 39.629,86.55C39.195,87.417 38.362,88.517 37.129,89.85C35.929,91.25 35.112,92.35 34.679,93.15C38.146,93.883 40.712,92.933 42.379,90.3C43.512,88.8 44.345,87.667 44.879,86.9C45.212,86.433 45.445,86.183 45.578,86.15C45.879,85.917 46.278,85.917 46.778,86.15Z"/>
        </g>
    </g>
    <g id="noun-candidate-1324376.svg" transform="matrix(8.60032,0,0,8.60032,1864.67,787.155)">
        <g transform="matrix(1,0,0,1,-50,-62.5)">
            <path d="M61.55,37.379C58.117,41.246 54.217,43.396 49.85,43.829C47.75,43.962 45.368,43.129 42.701,41.329C39.701,39.362 38.218,37.212 38.251,34.879C38.251,33.445 38.501,32.212 39.001,31.179C41.801,25.512 45.935,22.812 51.401,23.079C54.001,22.979 55.984,23.829 57.35,25.629C57.684,26.095 58.484,26.546 59.75,26.979C61.55,28.013 62.65,29.612 63.05,31.779C63.45,33.945 62.95,35.812 61.55,37.379ZM56.85,27.029C55.517,25.496 53.717,24.762 51.451,24.829C49.317,24.896 47.434,25.446 45.801,26.479C44.101,27.579 42.784,29.079 41.851,30.979C42.251,30.979 42.818,30.679 43.551,30.079C44.284,29.479 44.968,29.162 45.601,29.129C45.235,29.862 44.685,30.512 43.952,31.079C43.518,31.379 42.885,31.829 42.052,32.429C41.019,33.162 40.486,33.746 40.452,34.179C40.385,34.646 40.752,35.396 41.552,36.429C42.153,36.262 43.035,35.679 44.202,34.679C45.302,33.712 46.335,33.129 47.302,32.929C46.669,33.762 45.769,34.646 44.602,35.579C43.335,36.546 42.502,37.246 42.102,37.679C42.903,38.546 43.436,39.029 43.703,39.129C43.97,39.162 44.536,38.912 45.403,38.379C46.17,37.746 46.753,37.329 47.153,37.129C47.552,36.762 47.885,36.529 48.153,36.429C48.552,36.162 49.003,36.162 49.503,36.429C49.303,36.662 48.536,37.246 47.203,38.179C46.269,38.879 45.586,39.529 45.153,40.129C45.852,40.662 46.469,40.962 47.003,41.029C47.569,41.062 48.187,40.796 48.853,40.229C50.187,38.996 51.621,38.196 53.154,37.829C52.754,38.396 52.053,39.029 51.053,39.729C50.12,40.362 49.52,40.929 49.253,41.429C49.42,41.696 49.77,41.829 50.303,41.829C51.836,41.696 53.386,41.179 54.953,40.279C55.686,39.845 57.019,38.879 58.953,37.379C60.352,36.279 61.019,34.712 60.953,32.679C60.886,30.646 60.086,29.229 58.553,28.429C58.184,28.262 57.617,27.795 56.85,27.029ZM58.25,44.329C58.383,44.396 58.434,44.946 58.4,45.979C58.367,46.479 58.533,46.929 58.9,47.329C59.099,47.496 59.433,47.763 59.9,48.129C62.132,50.162 63.683,52.479 64.549,55.079C65.249,57.013 65.449,58.896 65.15,60.729C64.95,62.029 64.983,62.796 65.25,63.029C65.483,63.229 66.383,63.179 67.95,62.879C67.016,61.179 66.733,59.429 67.099,57.629C67.4,56.262 68.166,54.695 69.4,52.929C69.966,52.096 70.283,51.529 70.349,51.229C70.549,50.529 70.283,49.913 69.549,49.379C69.282,49.179 69.332,48.862 69.699,48.429C70.098,48.096 70.432,48.012 70.699,48.179L71.999,49.129C75.166,51.929 78.832,52.379 82.999,50.479C83.632,50.179 84.116,50.079 84.449,50.179C84.848,50.312 85.216,50.696 85.549,51.329C86.016,52.263 86.733,53.646 87.699,55.479C88.499,57.079 88.966,58.546 89.098,59.879L89.248,60.379C88.715,62.945 89.731,64.229 92.298,64.229C93.065,64.163 93.581,64.462 93.848,65.129C94.482,66.796 94.866,68.179 94.998,69.279C95.098,70.812 94.781,72.246 94.048,73.579C92.682,75.946 90.748,77.062 88.248,76.929C85.781,76.796 82.031,76.596 76.998,76.329C76.231,76.329 72.865,76.162 66.898,75.829C62.865,75.629 59.498,75.629 56.797,75.829C55.797,75.896 54.78,75.896 53.747,75.829C50.313,75.529 45.914,75.396 40.547,75.429C32.814,75.496 28.431,75.512 27.398,75.479C25.398,75.446 22.38,75.413 18.347,75.379C14.781,75.312 11.764,75.146 9.297,74.879C8.064,74.779 7.164,74.445 6.597,73.879C5.964,73.312 5.531,72.412 5.297,71.179C4.931,69.446 4.88,67.162 5.148,64.329C5.248,63.162 5.448,62.446 5.748,62.179C5.948,61.946 6.665,61.729 7.898,61.529C8.498,61.462 8.865,61.329 8.998,61.129C9.165,60.896 9.098,60.462 8.798,59.829C8.165,58.362 8.081,56.846 8.548,55.279C8.881,54.146 9.581,52.779 10.649,51.179C10.749,51.046 11.315,50.462 12.348,49.429C13.015,48.762 13.366,48.046 13.399,47.279C13.432,47.079 13.548,46.962 13.749,46.929C13.949,46.829 14.149,46.846 14.349,46.979C14.783,47.212 15.082,47.396 15.249,47.529C16.683,48.762 18.399,49.279 20.399,49.079C22.366,48.946 24.215,48.212 25.949,46.879L26.699,46.079C27.098,45.646 27.499,45.596 27.899,45.929C28.298,46.329 28.366,46.662 28.098,46.929C27.598,47.462 27.449,47.979 27.649,48.479C27.749,48.712 28.098,49.112 28.699,49.679C30.732,51.612 31.699,54.079 31.598,57.079L31.598,61.879C32.798,61.679 33.298,61.146 33.098,60.279C32.465,57.012 33.616,53.912 36.548,50.979C37.281,50.212 38.298,49.296 39.598,48.229C41.366,46.829 42.432,45.946 42.798,45.579C43.465,45.013 44.098,44.962 44.698,45.429C46.431,46.762 48.264,47.379 50.198,47.279C51.764,47.146 53.597,46.512 55.698,45.379L56.698,44.829C57.566,44.396 58.083,44.229 58.25,44.329ZM54.05,47.929C50.883,49.496 47.817,49.446 44.85,47.779C44.151,47.312 43.484,47.329 42.85,47.829C41.25,49.062 40.234,49.862 39.8,50.229C38.667,51.229 37.7,52.279 36.901,53.379C37.668,53.079 38.767,52.496 40.201,51.629C41.501,50.829 42.567,50.329 43.401,50.129C43.3,50.562 43.118,50.912 42.85,51.179C42.75,51.246 42.484,51.396 42.05,51.629C39.417,53.296 37.85,54.246 37.35,54.479C35.684,55.246 34.934,56.696 35.1,58.829C35.901,58.462 37.167,57.646 38.901,56.379C40.467,55.246 41.784,54.479 42.85,54.079C42.784,54.679 42.451,55.179 41.85,55.579L36.201,59.529C35.767,59.796 35.501,60.012 35.401,60.179C35.201,60.479 35.168,60.829 35.3,61.229C35.434,61.696 35.7,62.013 36.1,62.179C36.234,62.212 36.633,62.246 37.3,62.279C37.734,62.279 38.283,62.012 38.95,61.479L44.25,57.579C44.583,57.279 44.867,57.062 45.1,56.929C45.434,56.729 45.833,56.729 46.3,56.929C45.734,57.596 44.767,58.446 43.401,59.479C41.934,60.513 40.85,61.396 40.151,62.129C42.751,62.195 44.234,62.246 44.6,62.279C45.967,62.412 47.167,61.912 48.201,60.779C48.567,60.412 49.868,59.362 52.1,57.629L52.5,58.029C52.2,58.696 51.55,59.396 50.55,60.129C49.45,60.929 48.717,61.546 48.35,61.979C49.817,62.179 50.75,62.229 51.151,62.129C51.55,62.029 52.201,61.546 53.1,60.679C53.901,59.879 54.734,59.629 55.6,59.929C55.5,60.129 55.151,60.479 54.55,60.979C54.117,61.346 53.917,61.779 53.95,62.279C54.983,62.512 56.333,62.646 58,62.679C60.233,62.679 61.6,62.696 62.1,62.729C62.567,62.763 62.868,62.429 63,61.729C63.7,57.196 62.017,52.846 57.95,48.679C56.783,47.512 55.483,47.262 54.05,47.929ZM67.65,38.529C67.882,36.595 68.75,34.929 70.25,33.529C71.75,32.129 73.55,31.262 75.65,30.929C78.083,30.529 80.233,31.029 82.099,32.429L83.099,33.379C83.367,33.712 83.367,34.046 83.099,34.379C82.933,34.512 82.683,34.529 82.349,34.429L80.4,33.429C78.833,32.596 77.016,32.462 74.95,33.029C72.783,33.595 71.266,34.746 70.4,36.479C70.233,36.846 70.233,37.246 70.4,37.679C70.799,37.612 71.382,37.196 72.15,36.429C72.849,35.762 73.549,35.446 74.25,35.479C74.15,36.212 73.783,36.812 73.15,37.279C72.816,37.579 72.266,37.946 71.5,38.379C70.8,38.912 70.383,39.312 70.25,39.579C69.883,40.079 69.883,40.646 70.25,41.279C70.75,41.446 71.4,41.179 72.2,40.479C72.967,39.846 73.667,39.612 74.3,39.779C73.967,40.246 73.517,40.696 72.95,41.129C72.65,41.396 72.167,41.746 71.5,42.179C71.167,42.446 71.017,42.729 71.05,43.029C71.083,43.129 71.2,43.396 71.401,43.829C71.8,44.596 72.317,44.729 72.951,44.229C74.618,43.229 75.784,42.329 76.451,41.529C76.751,41.129 77.051,41.129 77.35,41.529C77.583,41.762 77.55,42.062 77.25,42.429C77.017,42.662 76.367,43.112 75.3,43.779C74.5,44.312 73.917,44.829 73.55,45.329C74.484,45.996 75.117,46.329 75.45,46.329C75.717,46.329 76.3,46.013 77.2,45.379C77.8,44.912 78.3,44.546 78.7,44.279C79.3,43.845 79.9,43.512 80.5,43.279C80.4,43.946 79.95,44.546 79.15,45.079C78.283,45.612 77.799,46.129 77.7,46.629C79.933,46.862 81.617,46.246 82.75,44.779C83.583,43.845 84.2,43.129 84.6,42.629C85.234,41.729 85.55,40.829 85.55,39.929C85.55,39.229 85.3,38.329 84.8,37.229C84.234,36.062 83.934,35.163 83.901,34.529C85.467,35.262 86.55,36.312 87.151,37.679C87.784,39.046 87.784,40.446 87.151,41.879C85.451,45.845 82.501,48.129 78.3,48.729C76.6,48.996 74.767,48.612 72.8,47.579C70.867,46.579 69.5,45.279 68.7,43.679C67.8,41.979 67.45,40.262 67.65,38.529ZM26.6,32.279C26.267,31.979 25.967,31.579 25.701,31.079C25.434,30.513 25.218,30.079 25.051,29.779C25.451,29.612 25.768,29.512 26.001,29.479C26.334,29.446 26.668,29.579 27.001,29.879C29.334,31.912 30.034,34.529 29.101,37.729C27.834,42.263 24.619,45.013 19.452,45.979C17.419,46.379 15.535,46.029 13.802,44.929C12.169,43.796 10.952,42.162 10.153,40.029C9.62,38.662 9.469,37.296 9.703,35.929C9.936,34.729 10.453,33.429 11.253,32.029C12.286,30.229 13.636,28.879 15.303,27.979C17.07,27.079 18.97,26.779 21.003,27.079C23.036,27.379 24.319,28.229 24.853,29.629C24.187,29.762 23.487,29.629 22.753,29.229C20.319,28.029 17.67,28.413 14.803,30.379C13.737,31.079 13.386,31.929 13.753,32.929C14.187,32.029 14.937,31.496 16.003,31.329C15.303,32.429 14.62,32.996 13.953,33.029C13.819,33.362 13.453,33.762 12.852,34.229C11.852,34.996 11.502,36.129 11.802,37.629C12.369,37.396 13.002,37.012 13.702,36.479C14.568,35.779 15.119,35.379 15.351,35.279L16.801,33.979C17.402,33.379 18.084,33.096 18.851,33.129C18.285,34.029 17.468,34.879 16.402,35.679C15.801,36.112 14.919,36.746 13.752,37.579C12.719,38.412 12.186,38.979 12.152,39.279C12.119,39.579 12.485,40.296 13.252,41.429C13.818,41.096 14.919,40.212 16.552,38.779C17.919,37.612 19.153,36.879 20.252,36.579C19.752,37.212 18.869,37.996 17.602,38.929C16.37,39.896 15.502,40.679 15.002,41.279C14.869,41.446 14.585,41.679 14.152,41.979C13.919,42.312 13.985,42.663 14.351,43.029C15.285,43.862 16.084,44.012 16.751,43.479L20.301,40.479C20.634,40.146 20.902,39.879 21.101,39.679C21.501,39.379 21.968,39.262 22.501,39.329L17.601,44.379L18.851,44.279C23.185,43.779 26.035,40.996 27.402,35.929C27.833,34.462 27.566,33.246 26.6,32.279ZM14.9,49.629C14.667,49.529 14.483,49.562 14.349,49.729C13.983,50.096 13.416,50.646 12.65,51.379C12.083,52.046 11.799,52.779 11.799,53.579C12.233,53.412 12.866,52.962 13.699,52.229C14.466,51.562 15.216,51.129 15.949,50.929C15.616,51.629 14.515,52.762 12.649,54.329C11.249,55.596 10.532,56.929 10.499,58.329C11.399,57.829 12.466,57.096 13.699,56.129C15.265,54.896 16.315,54.095 16.848,53.729C16.548,54.729 15.899,55.646 14.899,56.479C14.232,57.112 13.149,57.962 11.649,59.029C11.482,59.129 11.249,59.312 10.949,59.579C10.716,59.846 10.699,60.162 10.899,60.529C11.199,61.095 11.715,61.412 12.449,61.479C13.049,61.546 13.699,61.279 14.399,60.679L19.048,56.729C18.982,57.696 18.465,58.579 17.498,59.379C16.165,60.512 15.398,61.229 15.198,61.529C16.198,61.696 16.981,61.729 17.548,61.629C18.315,61.529 19.015,61.246 19.649,60.779C21.315,59.512 22.782,58.729 24.048,58.429C23.781,58.929 23.265,59.446 22.498,59.979C21.765,60.446 21.314,60.913 21.148,61.379C22.214,61.712 23.314,61.362 24.448,60.329C24.615,60.129 24.814,60.062 25.048,60.129C25.281,60.162 25.365,60.329 25.298,60.629C25.198,61.095 25.232,61.396 25.399,61.529C25.532,61.662 25.798,61.746 26.199,61.779C26.966,61.746 27.565,61.729 27.999,61.729C28.699,61.763 29.315,61.846 29.849,61.979C29.916,61.479 29.867,60.796 29.7,59.929C29.599,59.062 29.583,58.429 29.65,58.029C29.849,56.662 29.667,55.312 29.099,53.979C28.7,53.079 27.999,51.913 26.999,50.479C26.366,49.546 25.532,49.329 24.499,49.829C21.433,51.396 18.449,51.446 15.549,49.979C15.383,49.912 15.167,49.795 14.9,49.629ZM32.7,69.979C33.099,69.579 33.583,69.379 34.15,69.379C34.016,70.146 33.516,70.929 32.65,71.729C31.617,72.629 30.983,73.362 30.75,73.929C31.316,73.796 32,73.796 32.8,73.929C33.8,74.129 34.434,74.229 34.7,74.229C35.599,74.229 36.183,74.163 36.45,74.029C37.016,73.829 37.433,73.362 37.7,72.629C38.233,71.162 39.483,70.296 41.45,70.029C41.15,70.595 40.55,71.212 39.65,71.879C38.882,72.479 38.417,73.046 38.25,73.579C39.783,74.179 41.316,74.062 42.85,73.229C44.583,71.962 45.901,71.013 46.8,70.379C46.901,71.112 46.617,71.729 45.95,72.229C45.183,72.763 44.783,73.179 44.75,73.479C46.316,74.146 47.816,74.046 49.25,73.179C49.75,72.912 51,71.829 53,69.929C52.934,70.796 52.583,71.529 51.95,72.129C51.183,72.896 50.75,73.379 50.65,73.579C52.117,74.513 53.533,74.562 54.9,73.729C56.433,72.529 57.583,71.612 58.349,70.979C58.549,71.646 58.367,72.263 57.799,72.829C57.132,73.396 56.816,73.879 56.849,74.279C58.483,74.345 59.45,74.362 59.749,74.329C60.749,74.162 61.549,73.629 62.149,72.729C62.348,72.429 62.666,72.112 63.098,71.779C63.699,71.446 64.131,71.162 64.399,70.929C64.532,71.562 64.315,72.129 63.749,72.629C63.116,73.195 62.799,73.629 62.799,73.929C65.4,74.529 67.282,73.996 68.449,72.329C68.582,72.129 68.765,72.029 68.999,72.029C69.199,72.029 69.382,72.146 69.549,72.379C69.549,72.579 69.382,72.862 69.049,73.229C68.749,73.562 68.666,73.896 68.799,74.229C70.166,74.496 71.282,74.513 72.15,74.279C72.783,74.112 73.2,74.029 73.4,74.029C73.833,74.029 74.216,74.212 74.549,74.579C74.782,74.746 75.216,74.779 75.849,74.679C76.549,74.612 77.416,74.596 78.45,74.629C79.95,74.695 80.816,74.729 81.05,74.729L84.901,74.829C86.467,74.929 87.734,74.896 88.701,74.729C91.501,74.362 92.85,72.746 92.751,69.879C92.718,68.345 92.468,67.329 92.001,66.829C91.501,66.329 90.451,66.013 88.851,65.879C72.584,64.746 62.902,64.095 59.801,63.929C55.735,63.796 50.751,63.679 44.851,63.579C41.584,63.513 36.619,63.446 29.952,63.379L14.052,63.129C11.552,63.062 9.835,63.112 8.903,63.279C7.7,63.445 7,64.162 6.8,65.429C6.667,66.596 6.75,67.596 7.05,68.429C7.617,68.162 8.367,67.546 9.3,66.579C10.2,65.679 11.017,65.062 11.75,64.729C11.25,65.962 10.316,67.196 8.95,68.429C7.95,69.296 7.45,69.912 7.45,70.279C7.417,70.646 7.833,71.429 8.7,72.629C9.967,71.229 10.933,70.162 11.599,69.429C12.799,68.229 14.15,67.512 15.65,67.279C15.516,67.479 14.45,68.396 12.45,70.029C11.217,71.062 10.367,72.079 9.9,73.079C11.367,73.513 12.516,73.712 13.349,73.679C14.582,73.579 15.683,73.029 16.65,72.029C18.283,70.396 20.049,69.129 21.95,68.229C21.417,69.229 20.566,70.196 19.4,71.129C18,72.162 17.132,72.879 16.799,73.279L16.999,73.579C18.699,73.779 20.065,73.746 21.099,73.479C22.466,73.112 23.599,72.312 24.499,71.079C24.966,70.412 25.399,70.013 25.799,69.879C26.099,69.746 26.683,69.679 27.549,69.679C27.282,70.112 26.616,70.712 25.549,71.479C24.616,72.112 24.016,72.779 23.749,73.479C27.349,74.346 30.065,73.546 31.899,71.079C32.4,70.412 32.667,70.045 32.7,69.979ZM82.8,52.479C81.5,53.179 80.05,53.479 78.45,53.379C77.383,53.312 75.917,53.046 74.05,52.579C73.017,52.346 72.367,52.279 72.1,52.379C71.767,52.479 71.383,52.912 70.951,53.679C70.317,54.679 69.984,55.612 69.951,56.479C70.451,56.446 71.118,56.112 71.951,55.479C72.751,54.846 73.501,54.513 74.201,54.479C73.701,55.212 73.017,55.896 72.151,56.529C71.651,56.896 70.951,57.396 70.05,58.029C69.017,58.829 68.833,59.845 69.5,61.079C69.934,60.879 70.816,60.312 72.15,59.379C73.15,58.612 74.066,58.212 74.9,58.179C74,59.012 72.599,60.146 70.7,61.579C70.2,61.946 70.033,62.329 70.2,62.729C70.3,63.096 70.683,63.312 71.349,63.379C72.016,63.445 72.582,63.246 73.049,62.779C73.516,62.312 74.366,61.629 75.599,60.729C76.766,59.929 77.599,59.229 78.099,58.629C78.4,58.329 78.783,58.412 79.249,58.879C78.815,59.546 77.949,60.312 76.649,61.179C75.348,62.112 74.449,62.946 73.949,63.679C74.182,63.679 75.049,63.696 76.549,63.729C77.549,63.729 78.366,63.629 78.999,63.429L78.949,63.379C79.916,63.712 80.699,63.845 81.299,63.779C82.099,63.712 82.782,63.296 83.349,62.529L83.9,61.729C84.167,61.496 84.45,61.513 84.75,61.779C84.983,62.012 84.967,62.279 84.7,62.579C84.333,62.946 84.15,63.196 84.15,63.329L84.299,63.779L85.949,63.879C86.815,63.979 87.182,63.612 87.049,62.779C86.716,58.546 85.766,55.262 84.199,52.929C83.767,52.396 83.3,52.246 82.8,52.479ZM82.5,60.329C82.667,60.562 82.6,60.796 82.3,61.029L79,63.329C79.167,62.696 79.55,62.029 80.15,61.329C80.783,60.529 81.349,60.079 81.849,59.979C82.117,59.912 82.333,60.029 82.5,60.329Z"/>
        </g>
    </g>
    <g id="noun-money-bag-1324371.svg" transform="matrix(6.31592,0,0,6.70825,1750.45,2631.1)">
        <g transform="matrix(1,0,0,1,-50,-62.5)">
            <g transform="matrix(1,0,0,1,-2.89645,24.0807)">
                <path d="M56.456,42.347C55.589,42.115 54.873,41.698 54.306,41.097C56.039,40.663 57.839,40.648 59.706,41.047C61.506,41.413 63.189,42.163 64.756,43.297C68.756,46.297 70.273,50.597 69.306,56.197C68.406,61.831 65.206,66.013 59.706,68.747C54.673,71.313 49.439,71.514 44.006,69.347C42.373,68.714 41.056,67.581 40.056,65.948C38.622,63.648 37.606,61.631 37.006,59.898C36.239,57.63 36.023,55.38 36.356,53.148C36.889,49.814 38.423,46.88 40.956,44.347C43.423,41.913 46.173,40.481 49.206,40.047L52.856,39.597C52.956,39.564 53.156,39.747 53.456,40.148C52.989,40.582 52.389,40.847 51.656,40.948C51.222,41.048 50.589,41.148 49.756,41.248C44.989,42.115 41.556,44.598 39.456,48.698C37.389,52.832 37.439,57.014 39.606,61.248C40.439,63.082 41.206,64.432 41.906,65.298C42.972,66.664 44.423,67.615 46.256,68.149C47.356,68.449 49.023,68.631 51.256,68.699C57.29,68.799 61.989,66.449 65.356,61.649C68.156,57.583 68.756,53.465 67.156,49.298C65.823,45.598 63.056,43.414 58.856,42.748C57.322,42.48 56.522,42.347 56.456,42.347ZM51.206,48.947C50.806,48.846 50.173,49.114 49.306,49.747L48.856,50.197C47.923,50.897 47.773,51.697 48.406,52.596C49.173,53.73 50.056,54.162 51.056,53.897C51.489,53.831 51.723,53.546 51.756,53.046L51.756,50.846C51.723,50.647 51.723,50.296 51.756,49.796C51.755,49.364 51.572,49.081 51.206,48.947ZM52.105,44.347C52.539,44.247 52.789,44.365 52.855,44.698C53.088,45.498 53.572,46.014 54.305,46.248C55.272,46.314 55.972,46.414 56.405,46.548C57.272,46.781 57.572,47.215 57.305,47.848C57.072,48.248 56.605,48.315 55.905,48.048L55.105,47.748C54.272,47.582 53.722,47.615 53.455,47.848C53.188,48.082 53.055,48.631 53.055,49.498L53.205,51.948C53.072,52.648 53.155,53.164 53.455,53.498C53.722,53.832 54.222,54.098 54.955,54.298C56.222,54.698 57.088,55.198 57.555,55.798C57.988,56.332 58.155,57.131 58.055,58.198C57.988,59.365 57.322,60.347 56.055,61.148C55.522,61.448 54.655,61.764 53.455,62.097C52.488,62.564 52.072,63.398 52.205,64.597C52.205,64.797 52.055,64.898 51.755,64.898C51.155,64.797 50.855,64.564 50.855,64.198C50.855,62.731 50.289,61.715 49.155,61.148C48.888,61.047 48.805,60.781 48.905,60.347C48.938,60.014 49.238,59.931 49.805,60.097C50.638,60.365 51.155,60.214 51.355,59.648C51.488,59.347 51.605,58.832 51.705,58.097C52.005,56.564 51.588,55.781 50.455,55.747C49.155,55.681 47.922,54.98 46.755,53.647C46.155,52.947 45.855,52.313 45.855,51.747C45.855,51.181 46.155,50.53 46.755,49.797L48.905,48.047C49.738,47.614 50.322,47.247 50.655,46.947C51.255,46.48 51.538,45.831 51.505,44.997C51.472,44.663 51.672,44.447 52.105,44.347ZM53.005,57.947C53.005,58.78 52.939,59.346 52.805,59.647C52.705,59.846 52.722,60.03 52.855,60.197C52.988,60.397 53.172,60.497 53.405,60.497C54.572,60.63 55.471,60.081 56.105,58.847C56.372,58.347 56.422,57.847 56.255,57.347C56.022,56.88 55.638,56.564 55.105,56.398C54.338,56.13 53.738,56.097 53.305,56.297C53.105,56.697 53.005,57.247 53.005,57.947Z"/>
            </g>
            <g transform="matrix(-1,0,0,1,102.896,23.9969)">
                <path d="M71.855,7.947C71.188,7.147 70.172,6.846 68.805,7.047C67.938,7.148 66.672,7.831 65.005,9.097C64.838,9.231 64.172,9.797 63.005,10.797C62.238,11.497 61.572,12.047 61.005,12.447C59.972,13.081 59.172,13.38 58.605,13.346C58.039,13.246 57.305,12.763 56.405,11.897C55.605,11.129 54.455,9.913 52.955,8.247C51.522,7.014 50.105,6.547 48.705,6.847C47.305,7.181 46.238,8.231 45.505,9.997L44.855,12.097C44.522,12.997 44.155,13.547 43.755,13.747C43.322,13.847 42.705,13.647 41.905,13.147C41.272,12.713 40.738,12.23 40.305,11.697C39.838,10.997 39.188,10.497 38.355,10.197C36.455,9.464 35.138,9.596 34.405,10.596C34.005,11.063 33.905,11.68 34.105,12.447C34.305,13.214 34.789,13.947 35.555,14.647C38.088,16.813 39.922,18.463 41.055,19.596C41.955,20.496 43.055,20.947 44.355,20.947L53.405,20.947C55.305,20.913 56.755,20.93 57.755,20.997C60.189,21.23 62.072,21.147 63.405,20.747C65.338,20.214 66.855,19.014 67.955,17.147L68.155,16.997C69.588,15.697 70.871,13.697 72.005,10.997C72.505,9.73 72.456,8.714 71.855,7.947ZM73.306,12.347C71.739,15.115 70.273,16.997 68.906,17.997C68.406,18.397 67.673,19.264 66.706,20.597C65.773,21.865 66.073,22.547 67.606,22.648C69.406,22.781 71.373,23.082 73.506,23.547C74.606,23.847 75.706,24.364 76.806,25.097C78.006,25.964 78.639,26.747 78.706,27.448C78.739,28.148 78.206,28.965 77.106,29.898C77.073,29.964 76.639,30.148 75.806,30.448C76.206,31.014 77.506,32.514 79.706,34.948C83.173,38.715 85.706,43.948 87.306,50.648C88.406,56.347 89.389,60.582 90.256,63.347C90.889,65.413 91.173,67.88 91.106,70.747C91.106,71.014 91.256,73.23 91.556,77.397C91.756,80.063 91.639,82.296 91.206,84.096C90.906,85.296 90.039,86.78 88.606,88.546C88.239,88.98 87.756,89.296 87.156,89.496C86.489,89.662 85.839,89.662 85.206,89.496C84.639,89.363 83.789,89.213 82.656,89.046C81.689,88.713 80.972,88.096 80.506,87.196C82.106,87.496 83.256,87.696 83.956,87.796C86.289,87.963 87.939,86.98 88.906,84.846C89.506,83.546 89.806,82.662 89.806,82.197L89.806,76.497C89.839,74.197 89.773,72.28 89.606,70.747C89.206,66.847 88.106,61.147 86.306,53.647C84.573,44.213 80.256,36.796 73.356,31.397C71.256,29.796 69.073,28.647 66.806,27.947C63.273,26.947 60.256,26.581 57.756,26.846C56.089,27.013 54.123,27.08 51.856,27.046C50.489,27.046 48.506,27.013 45.906,26.946C44.573,26.946 43.289,27.279 42.056,27.946C39.456,29.379 36.639,31.312 33.606,33.746C28.339,37.879 24.623,43.013 22.456,49.146C21.589,51.613 21.089,53.229 20.956,53.996C21.223,54.096 21.639,53.963 22.206,53.596C22.673,53.23 23.073,53.23 23.406,53.596C23.339,53.897 23.122,54.213 22.756,54.546C22.29,55.046 22.04,55.313 22.006,55.346C20.04,57.614 19.206,59.996 19.506,62.496C19.673,63.629 19.673,64.946 19.506,66.446C19.239,68.179 19.089,69.479 19.056,70.345C18.723,75.312 19.056,79.745 20.056,83.646C20.489,85.378 21.006,86.412 21.606,86.746C22.206,87.046 23.373,86.963 25.106,86.496C25.406,86.396 25.839,86.479 26.406,86.746C29.406,88.08 31.722,87.729 33.356,85.696C34.056,84.83 35.189,83.613 36.756,82.046C37.389,81.379 37.856,80.93 38.156,80.696C38.789,80.262 39.472,80.046 40.206,80.046L33.106,87.246L34.106,87.846C36.706,88.947 38.189,89.43 38.556,89.296C38.723,89.23 39.923,88.162 42.156,86.096C42.756,85.397 43.256,84.879 43.656,84.546C44.323,83.946 45.073,83.529 45.906,83.296C45.306,84.33 44.273,85.546 42.806,86.946C41.273,88.379 40.223,89.529 39.656,90.396C40.389,90.83 41.306,91.196 42.406,91.496C42.606,91.529 43.539,91.729 45.206,92.096C45.606,92.23 46.123,91.963 46.756,91.296L51.856,86.147C52.823,85.147 53.723,84.413 54.556,83.947C54.389,84.98 53.923,85.897 53.156,86.697C52.722,87.13 52.073,87.714 51.206,88.447C50.973,88.647 50.273,89.297 49.106,90.397C48.239,91.23 47.573,91.98 47.106,92.647C48.073,93.18 49.206,93.43 50.506,93.397C51.073,93.397 52.206,93.247 53.906,92.947C54.006,92.947 54.089,92.813 54.156,92.547C54.289,92.247 54.406,92.047 54.506,91.947C57.506,88.48 60.273,86.263 62.806,85.297L54.906,92.597C57.839,92.163 60.523,91.214 62.956,89.747C63.456,89.38 64.123,88.747 64.956,87.847C65.923,86.814 66.623,86.13 67.056,85.797C67.656,85.264 68.122,84.864 68.456,84.597C69.089,84.13 69.739,83.847 70.406,83.747C70.106,84.547 69.456,85.313 68.456,86.047C67.356,86.913 66.639,87.564 66.306,87.997C68.006,88.13 69.789,87.497 71.656,86.097C74.222,84.231 75.823,83.163 76.456,82.898C76.523,83.464 76.356,83.898 75.956,84.198C75.789,84.398 75.489,84.615 75.056,84.847C74.889,85.047 74.606,85.264 74.206,85.497C73.839,85.764 73.623,86.097 73.556,86.497C74.823,87.097 76.039,86.98 77.206,86.147C78.439,85.046 79.423,84.296 80.156,83.897C79.789,85.163 79.173,86.197 78.306,86.997C77.473,87.831 76.606,88.197 75.706,88.097C72.706,87.931 69.306,88.747 65.506,90.547C63.406,91.447 60.19,92.63 55.856,94.097C51.756,95.497 47.556,95.297 43.256,93.497C42.223,93.063 40.706,92.397 38.706,91.497C36.939,90.764 35.373,90.23 34.006,89.897C30.606,89.063 27.423,88.747 24.456,88.947C22.156,89.114 20.539,88.831 19.606,88.096C18.639,87.364 18.006,85.912 17.706,83.746C17.006,78.146 16.889,73.396 17.356,69.496C17.456,68.896 17.656,66.629 17.956,62.696C18.189,59.963 18.473,57.713 18.806,55.946C20.739,46.012 25.289,38.33 32.456,32.896C36.523,29.962 38.889,28.295 39.556,27.896C40.356,27.429 40.889,26.979 41.156,26.545C41.556,25.945 41.606,25.229 41.306,24.396C41.039,23.795 41.239,22.878 41.906,21.646C39.039,20.345 36.089,18.029 33.056,14.696C32.089,13.662 31.823,12.345 32.256,10.746C32.723,9.146 33.673,8.246 35.106,8.046C37.773,7.813 39.656,8.446 40.756,9.946C41.123,10.479 41.389,10.845 41.556,11.046C41.889,11.446 42.339,11.662 42.906,11.696C43.606,9.762 44.306,8.296 45.006,7.296C45.739,6.263 46.54,5.563 47.406,5.196C48.273,4.896 49.339,4.912 50.606,5.246C52.606,5.812 54.406,7.162 56.006,9.296C57.173,10.696 58.073,11.43 58.706,11.496C59.373,11.562 60.389,10.996 61.756,9.796L65.606,6.647C66.739,5.713 67.873,5.247 69.006,5.247C71.206,5.247 72.739,5.964 73.606,7.397C74.473,8.83 74.372,10.48 73.306,12.347ZM63.206,24.997C63.673,24.764 64.056,24.347 64.356,23.747C63.856,23.747 63.273,23.48 62.606,22.947C61.973,22.447 61.439,22.197 61.006,22.197C59.306,22.197 56.773,22.147 53.406,22.047C50.406,22.014 47.839,22.081 45.706,22.247C45.073,22.313 44.489,22.514 43.956,22.847C43.523,23.047 43.306,23.413 43.306,23.948C43.306,24.448 43.539,24.832 44.006,25.097C44.206,25.198 44.706,25.281 45.506,25.347C48.839,25.581 54.323,25.514 61.956,25.148C62.589,25.114 63.005,25.063 63.206,24.997ZM66.706,26.097L71.506,27.648L71.656,26.998C71.122,26.865 70.389,26.564 69.456,26.098C68.489,25.797 67.572,25.797 66.706,26.097ZM76.206,28.297C75.473,25.731 73.506,24.581 70.306,24.847C71.039,25.014 71.989,25.581 73.156,26.547C74.322,27.447 75.339,28.03 76.206,28.297ZM79.505,42.197C81.138,45.063 82.105,47.013 82.405,48.047C82.538,48.447 82.621,48.747 82.655,48.947C82.655,49.28 82.471,49.53 82.105,49.697C81.672,49.831 81.372,49.763 81.205,49.497C81.205,49.464 81.105,49.181 80.905,48.647C80.638,48.046 80.305,47.063 79.905,45.697C78.672,42.73 77.138,40.596 75.305,39.297C74.472,38.663 73.955,38.247 73.755,38.047C73.222,37.514 72.888,36.913 72.755,36.247C73.855,36.747 75.155,37.663 76.655,38.997C78.122,40.297 79.072,41.364 79.505,42.197ZM82.306,54.297C82.173,53.731 82.372,53.431 82.906,53.398C83.339,53.297 83.606,53.38 83.706,53.648C84.506,55.814 84.906,57.248 84.906,57.948C84.906,58.414 84.622,58.648 84.056,58.648C83.723,58.448 83.506,58.264 83.406,58.097L82.306,54.297ZM24.464,12.977C27.431,13.277 29.297,14.694 30.064,17.227C31.164,20.694 30.697,23.426 28.664,25.426C26.73,27.326 24.964,28.36 23.364,28.527C21.731,28.76 19.964,28.093 18.064,26.527C16.497,25.294 15.797,23.593 15.964,21.426C15.831,19.126 16.631,17.093 18.364,15.326C20.13,13.594 22.164,12.81 24.464,12.977ZM23.263,14.227C21.963,14.227 20.68,14.977 19.413,16.477C18.146,18.01 17.496,19.543 17.463,21.077C17.43,22.544 17.946,23.81 19.013,24.877C20.146,25.978 21.463,26.527 22.963,26.527C24.496,26.46 25.83,25.81 26.963,24.577C28.096,23.31 28.663,21.877 28.663,20.277C28.663,18.676 28.113,17.26 27.013,16.027C25.914,14.827 24.664,14.227 23.263,14.227ZM12.179,4.933C12.145,5.633 12.346,6.267 12.779,6.833C13.146,7.366 13.679,7.716 14.379,7.883C15.813,8.283 16.946,7.783 17.779,6.383C18.612,5.116 18.479,4.05 17.379,3.183C16.813,2.716 16.012,1.85 14.979,0.583C13.145,2.316 12.212,3.767 12.179,4.933ZM14.628,-0.367C15.895,-0.3 17.161,0.3 18.428,1.433C19.728,2.6 20.361,3.734 20.328,4.833C20.328,5.999 19.761,7.167 18.628,8.333C17.461,9.499 16.328,10.066 15.228,10.033C13.961,9.999 12.845,9.516 11.878,8.583C10.812,7.683 10.312,6.716 10.378,5.683C10.378,4.317 10.845,2.966 11.778,1.633C12.778,0.233 13.729,-0.434 14.628,-0.367ZM24.255,59.297C24.955,58.731 25.738,58.481 26.605,58.547L23.005,61.447C22.838,61.18 22.689,61.013 22.555,60.947C23.255,60.147 23.822,59.597 24.255,59.297ZM27.855,65.547C27.655,65.78 27.255,66.148 26.655,66.648C25.922,67.248 24.822,68.164 23.355,69.398C22.155,70.464 21.222,71.547 20.555,72.648L20.305,72.648L20.055,72.297C20.555,70.797 21.788,69.314 23.755,67.847C26.122,66.047 27.588,64.747 28.155,63.948C28.289,64.547 28.189,65.081 27.855,65.547ZM25.956,74.447C23.989,76.013 22.756,77.464 22.256,78.797C21.856,77.997 21.806,77.264 22.106,76.597C22.339,76.198 22.773,75.731 23.406,75.198L29.656,70.298C29.189,71.497 27.956,72.88 25.956,74.447ZM27.906,79.997C30.406,77.73 32.506,76.297 34.206,75.697L23.306,85.397C23.906,84.03 25.439,82.23 27.906,79.997Z"/>
            </g>
        </g>
    </g>
    <g id="noun-agreement-1324373.svg" transform="matrix(4.6345,3.51236,-3.51236,4.6345,983.407,2351.69)">
        <g transform="matrix(1,0,0,1,-50,-62.5)">
            <path d="M62.814,24.342C63.281,24.842 64.464,25.892 66.364,27.492C67.831,28.725 68.914,29.859 69.614,30.892C70.014,31.425 70.464,31.775 70.964,31.942C72.931,32.509 74.031,32.809 74.264,32.842C75.497,33.142 76.597,33.308 77.564,33.342C78.497,33.342 79.114,33.325 79.414,33.292C80.047,33.125 80.547,32.709 80.914,32.042C81.114,31.642 81.514,31.442 82.114,31.442C82.781,31.442 83.281,31.392 83.614,31.292C84.481,31.092 85.548,30.976 86.814,30.942C88.781,30.842 89.847,30.792 90.014,30.792C90.681,30.792 91.014,31.059 91.014,31.592C91.014,32.359 90.698,32.625 90.064,32.392C89.597,32.192 89.13,32.192 88.664,32.392C88.431,32.525 88.064,32.825 87.564,33.292L83.914,36.292C82.314,37.692 81.281,39.042 80.814,40.342C80.347,41.642 80.247,43.442 80.514,45.742C80.981,45.609 81.464,45.209 81.964,44.542C82.397,43.875 82.831,43.492 83.264,43.392C83.164,43.825 82.931,44.342 82.564,44.942L81.564,46.292C80.797,47.459 80.447,48.359 80.514,48.992C80.681,50.225 80.764,52.092 80.764,54.592C80.764,57.058 80.847,58.908 81.014,60.142C81.114,61.042 81.264,61.692 81.464,62.092C81.864,62.792 82.381,63.192 83.014,63.292C83.614,63.425 84.198,63.192 84.764,62.592C86.431,60.759 87.764,59.592 88.764,59.092C89.897,58.558 90.631,57.742 90.964,56.642C91.231,55.142 91.464,53.942 91.664,53.042L82.814,61.642L82.814,60.992C84.38,58.892 85.597,57.359 86.464,56.392C87.864,54.759 89.281,53.425 90.714,52.392C91.314,51.892 91.714,51.409 91.914,50.942C92.147,50.476 92.13,49.809 91.864,48.942C90.731,50.009 89.031,51.525 86.764,53.492C84.831,55.225 83.247,56.759 82.014,58.092C81.714,57.692 81.631,57.325 81.764,56.992C81.798,56.825 81.964,56.609 82.264,56.342C83.997,54.609 85.064,53.575 85.464,53.242C86.431,52.509 87.564,51.425 88.864,49.992C90.464,48.225 91.531,47.092 92.064,46.592C92.464,46.192 92.681,45.759 92.714,45.292L93.214,40.492C91.914,41.692 89.931,43.375 87.264,45.542C84.964,47.609 83.198,49.592 81.964,51.492C81.664,50.692 81.681,50.009 82.014,49.442C82.147,49.142 82.531,48.659 83.164,47.992C87.764,43.392 90.564,40.642 91.564,39.742C92.931,38.475 93.231,36.909 92.464,35.042C91.931,35.275 91.197,35.809 90.264,36.642C89.431,37.475 88.714,37.959 88.114,38.092C86.781,40.459 85.181,42.175 83.314,43.242C84.38,41.075 85.931,39.308 87.964,37.942C88.097,37.509 88.397,37.059 88.864,36.592C89.431,36.158 89.831,35.808 90.064,35.542C90.964,34.509 91.414,33.976 91.414,33.942C91.847,33.242 91.897,32.376 91.564,31.342C94.231,33.642 95.347,36.675 94.914,40.442C94.214,46.609 93.73,50.509 93.464,52.142C93.097,54.242 92.614,57.425 92.014,61.692C91.781,62.992 91.397,63.892 90.864,64.392C90.298,64.892 89.314,65.209 87.914,65.342C86.281,65.475 84.531,65.325 82.664,64.892C80.597,64.392 79.447,63.342 79.214,61.742C79.147,61.175 78.931,60.825 78.564,60.692C78.297,60.626 77.864,60.675 77.264,60.842C73.731,61.908 71.164,63.609 69.564,65.942C68.297,67.909 66.731,68.609 64.864,68.042C64.031,67.842 63.464,68.209 63.164,69.142C62.63,70.675 62.281,71.575 62.114,71.842C61.647,72.875 61.131,73.725 60.564,74.392C58.531,76.525 56.347,77.275 54.014,76.642C51.714,76.075 50.014,75.592 48.914,75.192C47.547,74.726 46.047,74.325 44.414,73.992C39.447,72.892 35.431,71.092 32.364,68.592C30.831,67.325 30.081,65.925 30.114,64.392C30.181,63.192 29.781,62.475 28.914,62.242C28.714,62.209 28.097,61.675 27.064,60.642C26.431,59.942 25.664,59.875 24.764,60.442C24.497,60.575 24.114,60.592 23.614,60.492C22.314,60.325 21.514,60.325 21.214,60.492C20.981,60.659 20.714,61.392 20.414,62.692C20.181,63.859 19.897,64.592 19.564,64.892C19.231,65.192 18.497,65.359 17.364,65.392C14.397,65.392 12.048,65.175 10.314,64.742C8.247,64.308 6.864,62.975 6.164,60.742C5.697,59.342 5.414,57.558 5.314,55.392C5.281,52.959 5.214,51.159 5.114,49.992C4.914,47.759 4.964,44.925 5.264,41.492C5.597,36.759 5.781,33.942 5.814,33.042C5.814,31.542 6.397,31.242 7.564,32.142C8.164,32.742 8.781,32.875 9.414,32.542C10.314,32.009 11.331,31.742 12.464,31.742C13.031,31.742 14.097,31.875 15.664,32.142C16.564,32.375 17.247,32.525 17.714,32.592C18.481,32.759 19.164,32.825 19.764,32.792C20.397,32.792 21.031,33.009 21.664,33.442C21.997,33.675 22.48,34.126 23.114,34.792C24.314,34.392 25.581,34.325 26.914,34.592C27.847,34.792 28.697,34.892 29.464,34.892C31.397,34.892 32.847,34.225 33.814,32.892C36.347,29.692 38.214,27.292 39.414,25.692C40.147,24.759 40.914,24.126 41.714,23.792C42.547,23.459 43.564,23.392 44.764,23.592C47.531,24.058 49.747,25.192 51.414,26.992C51.681,27.359 51.897,27.625 52.064,27.792C52.331,28.025 52.647,28.209 53.014,28.342C53.347,28.042 54.048,27.259 55.114,25.992C55.981,25.025 56.814,24.325 57.614,23.892C59.781,22.758 61.514,22.908 62.814,24.342ZM62.214,25.992C60.747,24.492 59.164,24.442 57.464,25.842C56.231,26.808 55.181,28.092 54.314,29.692C53.581,31.059 52.647,32.609 51.514,34.342C50.814,35.342 49.781,36.842 48.414,38.842C48.214,39.142 47.697,39.792 46.864,40.792C46.164,41.559 45.681,42.242 45.414,42.842C44.781,43.775 44.964,44.492 45.964,44.992C46.764,45.392 47.397,45.609 47.864,45.642C52.631,45.775 56.447,44.142 59.314,40.742C60.347,39.509 61.914,37.225 64.014,33.892C64.448,33.192 64.914,32.942 65.414,33.142C65.747,33.342 65.764,33.775 65.464,34.442C65.097,35.242 64.914,35.659 64.914,35.692C64.847,36.126 65.064,36.476 65.564,36.742C66.731,37.375 68.13,38.525 69.764,40.192C71.631,42.059 72.964,43.292 73.764,43.892C74.864,44.659 75.681,45.275 76.214,45.742C77.147,46.509 77.914,47.342 78.514,48.242C78.681,43.242 78.914,39.492 79.214,36.992C79.381,36.025 79.364,35.409 79.164,35.142C78.931,34.809 78.364,34.642 77.464,34.642C76.097,34.609 74.147,34.392 71.614,33.992C70.281,33.892 69.364,33.425 68.864,32.592C68.231,31.558 67.181,30.408 65.714,29.142C63.748,27.475 62.581,26.425 62.214,25.992ZM23.114,34.792C23.114,34.859 23.147,34.892 23.214,34.892C23.147,35.459 23.097,37.009 23.064,39.542C23.031,41.442 22.931,43.009 22.764,44.242C22.731,44.575 22.614,45.042 22.414,45.642C22.314,46.242 22.431,46.742 22.764,47.142C23.298,46.909 24.064,46.275 25.064,45.242C25.931,44.275 26.747,43.709 27.514,43.542C24.914,46.242 23.581,47.675 23.514,47.842C22.247,49.609 21.731,51.525 21.964,53.592C22.997,53.192 23.931,52.525 24.764,51.592L28.364,47.342C28.697,46.975 28.964,46.742 29.164,46.642C29.531,46.475 29.947,46.559 30.414,46.892C29.714,47.925 28.781,49.042 27.614,50.242C26.981,50.942 25.964,51.925 24.564,53.192L22.164,55.342C21.431,56.175 21.331,57.092 21.864,58.092C22.097,58.525 22.464,58.709 22.964,58.642C23.531,58.509 23.964,58.392 24.264,58.292C24.631,58.226 24.997,57.992 25.364,57.592C25.764,57.192 26.064,56.892 26.264,56.692C27.464,55.459 28.381,54.559 29.014,53.992C30.081,52.925 31.081,52.092 32.014,51.492C32.548,51.225 32.831,51.092 32.864,51.092C33.197,50.959 33.531,51.042 33.864,51.342L28.314,56.142C28.114,56.309 27.781,56.559 27.314,56.892C26.981,57.225 26.88,57.575 27.014,57.942C27.147,58.342 27.514,58.609 28.114,58.742C28.914,58.909 29.397,59.042 29.564,59.142C29.731,59.275 29.914,59.242 30.114,59.042C30.381,58.742 30.581,58.542 30.714,58.442L32.714,56.242C33.014,55.842 33.331,55.725 33.664,55.892C33.831,56.025 33.864,56.292 33.764,56.692C33.597,57.025 33.664,57.275 33.964,57.442C34.431,57.109 34.931,56.525 35.464,55.692C36.131,54.759 36.597,54.142 36.864,53.842C37.298,53.242 37.631,52.792 37.864,52.492C38.264,51.959 38.781,51.692 39.414,51.692L41.314,51.492C42.047,51.459 42.681,51.525 43.214,51.692L47.114,52.992C52.381,54.692 56.097,56.192 58.264,57.492C59.164,57.992 59.847,58.342 60.314,58.542C61.147,58.842 61.981,58.959 62.814,58.892C64.547,58.792 66.547,59.742 68.814,61.742C69.147,61.975 69.13,62.325 68.764,62.792C68.564,63.159 68.231,63.242 67.764,63.042C67.631,63.009 67.198,62.759 66.464,62.292C65.964,61.959 65.481,61.825 65.014,61.892L65.014,63.592C64.948,64.259 64.798,64.842 64.564,65.342C64.231,65.975 64.514,66.342 65.414,66.442C66.38,66.542 67.164,66.226 67.764,65.492L71.814,60.492C72.147,60.092 72.347,59.742 72.414,59.442C72.447,59.075 72.247,58.675 71.814,58.242C71.247,57.709 70.431,56.859 69.364,55.692C68.397,54.792 67.481,54.075 66.614,53.542L64.614,52.192C64.081,51.726 63.964,51.292 64.264,50.892C64.531,50.392 64.931,50.309 65.464,50.642L66.714,51.492C69.047,53.025 70.947,54.575 72.414,56.142C73.047,57.009 73.697,57.175 74.364,56.642C75.197,55.842 75.814,54.675 76.214,53.142C76.614,51.609 76.647,50.309 76.314,49.242C76.047,48.409 75.764,47.959 75.464,47.892C75.197,47.759 74.714,47.892 74.014,48.292L71.364,50.292C71.531,49.459 71.997,48.476 72.764,47.342C73.131,46.875 73.281,46.475 73.214,46.142C73.114,45.875 72.864,45.525 72.464,45.092C72.031,44.759 71.664,44.642 71.364,44.742C71.097,44.775 70.781,44.975 70.414,45.342C68.98,46.575 68.114,47.292 67.814,47.492C66.781,48.292 65.797,48.875 64.864,49.242L69.964,43.692C69.164,42.292 68.497,41.609 67.964,41.642C67.764,41.709 67.081,42.192 65.914,43.092C65.181,43.692 64.197,44.775 62.964,46.342C62.831,46.475 62.664,46.709 62.464,47.042C62.231,47.242 61.897,47.192 61.464,46.892C61.764,46.025 62.631,44.875 64.064,43.442L66.514,40.892C66.914,40.459 66.897,40.009 66.464,39.542C66.131,39.142 65.697,39.125 65.164,39.492L62.614,41.892C61.114,43.392 59.497,44.892 57.764,46.392C57.431,46.225 57.331,45.959 57.464,45.592C57.631,45.225 57.531,44.959 57.164,44.792L55.364,45.742C51.931,47.175 48.897,47.542 46.264,46.842C44.497,46.375 43.431,45.625 43.064,44.592C42.697,43.492 43.13,42.325 44.364,41.092C45.464,40.025 46.697,38.509 48.064,36.542C49.831,33.909 50.947,32.309 51.414,31.742C52.114,30.942 52.164,30.242 51.564,29.642C50.164,28.342 49.114,27.442 48.414,26.942C47.214,26.075 45.98,25.542 44.714,25.342C42.814,25.009 41.414,25.459 40.514,26.692C40.147,27.192 39.281,28.259 37.914,29.892C36.814,31.192 35.997,32.292 35.464,33.192C34.164,35.459 32.464,36.575 30.364,36.542C29.298,36.509 27.731,36.359 25.664,36.092C24.764,36.058 23.947,35.658 23.214,34.892L23.214,34.792L23.114,34.792ZM64.064,38.042C63.731,37.742 63.431,37.792 63.164,38.192L59.814,42.592C60.547,42.259 61.314,41.725 62.114,40.992C62.914,40.092 63.548,39.425 64.014,38.992C64.348,38.658 64.364,38.342 64.064,38.042ZM81.764,36.892L86.214,32.742C84.114,32.808 82.814,33.092 82.314,33.592C81.781,34.092 81.598,35.191 81.764,36.892ZM87.864,61.292C87.097,61.959 86.464,62.659 85.964,63.392C87.931,63.492 89.114,63.325 89.514,62.892C89.981,62.492 90.214,61.392 90.214,59.592C88.981,60.458 88.198,61.025 87.864,61.292ZM77.915,53.242C77.481,54.375 77.148,55.175 76.915,55.642C76.615,56.142 76.115,56.875 75.415,57.842C74.848,58.775 74.481,59.625 74.315,60.392C76.248,59.725 77.248,59.375 77.315,59.342C78.582,58.942 79.165,58.075 79.065,56.742L79.065,50.892C78.731,51.425 78.348,52.208 77.915,53.242ZM54.415,57.191C53.082,56.691 52.248,56.358 51.915,56.191C50.782,55.591 49.981,55.941 49.515,57.241C49.182,58.141 48.449,59.741 47.315,62.041C46.282,64.074 45.615,65.725 45.315,66.991C45.282,67.258 45.048,67.658 44.615,68.191C43.982,68.824 43.465,68.941 43.065,68.541C42.732,68.241 42.732,67.808 43.065,67.241L45.215,63.041C46.515,60.341 47.432,58.291 47.965,56.891C48.298,56.024 48.365,55.408 48.165,55.041C47.965,54.674 47.415,54.358 46.515,54.091C46.182,54.024 45.415,53.891 44.215,53.691C43.282,53.524 42.515,53.341 41.915,53.141C40.782,52.741 39.748,53.024 38.815,53.991C37.881,54.858 36.965,55.958 36.065,57.291C35.898,57.558 35.131,58.758 33.765,60.891C33.132,61.858 32.699,62.741 32.465,63.541C32.032,65.108 32.332,66.124 33.365,66.591C33.898,66.858 34.348,66.807 34.715,66.441C35.082,65.841 35.382,65.441 35.615,65.241C36.182,64.541 36.632,64.008 36.965,63.641C37.498,63.074 38.115,62.774 38.815,62.741C38.482,63.274 37.515,64.491 35.915,66.391C35.082,67.191 34.998,67.874 35.665,68.441C36.165,68.875 36.548,69.125 36.815,69.191C37.315,69.324 37.798,69.158 38.265,68.691L40.015,67.191C40.848,66.558 41.282,66.225 41.315,66.191C41.881,65.891 42.565,65.808 43.365,65.941L38.565,69.591C40.032,71.024 41.815,71.791 43.915,71.891C44.515,71.958 45.115,71.641 45.715,70.941C46.282,70.074 46.748,69.475 47.115,69.141L47.465,68.691C47.865,68.258 48.198,68.158 48.465,68.391C48.832,68.691 48.815,69.124 48.415,69.691C48.282,69.891 47.865,70.241 47.165,70.741C46.631,71.208 46.282,71.658 46.115,72.091L49.665,73.391L50.515,73.591C51.115,73.657 51.665,73.491 52.165,73.091C52.698,72.691 52.848,72.258 52.615,71.791C52.282,71.158 52.215,70.524 52.415,69.891C52.715,69.158 52.948,68.591 53.115,68.191C53.482,67.358 54.498,65.258 56.165,61.891C56.832,60.491 57.048,59.491 56.815,58.891C56.581,58.325 55.781,57.758 54.415,57.191ZM54.415,70.542C54.415,72.075 53.748,73.359 52.415,74.392L54.865,74.742C56.965,74.942 58.615,74.159 59.815,72.392C60.515,71.325 61.315,69.642 62.215,67.342C63.082,65.009 63.332,63.459 62.965,62.692C62.632,61.892 61.248,60.925 58.815,59.792C58.115,60.859 57.398,62.242 56.665,63.942C56.265,64.909 55.665,66.359 54.865,68.292C54.498,69.092 54.348,69.842 54.415,70.542ZM7.665,35.142L7.115,40.192C7.515,40.226 7.932,40.059 8.365,39.692C8.765,39.359 9.082,39.175 9.315,39.142C9.615,38.509 10.098,37.892 10.765,37.292C11.632,36.592 12.265,36.042 12.665,35.642C13.098,35.242 13.348,34.992 13.415,34.892C13.682,34.592 13.765,34.275 13.665,33.942C13.432,33.376 12.748,33.126 11.615,33.192C11.382,33.259 10.415,33.492 8.715,33.892C8.081,34.025 7.731,34.441 7.665,35.142ZM8.814,40.441C7.514,41.608 6.864,43.475 6.864,46.041L7.064,55.441C7.13,56.074 7.414,56.475 7.914,56.641C12.714,50.608 16.88,45.958 20.414,42.691C20.714,42.424 20.897,42.208 20.964,42.041C21.831,40.341 21.797,38.958 20.864,37.891L16.464,41.891C16.364,42.024 15.714,42.708 14.514,43.941C13.714,44.708 13.031,45.324 12.464,45.791C12.231,45.991 11.631,46.725 10.664,47.991C9.964,49.024 9.147,49.658 8.214,49.891C9.381,47.691 10.697,45.874 12.164,44.441C15.23,41.541 17.847,39.008 20.014,36.841C20.414,36.441 20.647,36.157 20.714,35.991C20.947,35.624 20.947,35.224 20.714,34.791C20.347,34.258 19.647,33.991 18.614,33.991C17.014,33.958 15.447,34.574 13.914,35.841C13.414,36.274 12.73,36.958 11.864,37.891C11.031,38.691 10.214,39.141 9.414,39.241C9.348,39.742 9.147,40.142 8.814,40.441ZM21.165,44.441L20.415,44.541C17.515,47.141 13.548,51.358 8.515,57.191C7.748,58.058 7.532,59.074 7.865,60.241C8.198,61.408 8.915,62.258 10.015,62.791C11.148,63.091 11.982,63.358 12.515,63.591C13.482,63.924 14.082,63.591 14.315,62.591C14.715,60.824 16.098,59.091 18.465,57.391C19.365,56.691 19.898,55.874 20.065,54.941C20.232,54.141 20.098,53.108 19.665,51.841C15.965,55.074 13.432,58.008 12.065,60.641C11.832,59.708 11.748,59.091 11.815,58.791C11.848,58.491 12.065,58.074 12.465,57.541C14.732,54.674 16.815,52.591 18.715,51.291C19.348,50.791 19.782,50.408 20.015,50.141C20.449,49.674 20.648,49.124 20.615,48.491C20.614,47.125 20.798,45.775 21.165,44.441ZM31.714,60.941C31.847,60.774 32.281,59.941 33.014,58.441C32.048,58.574 31.281,59.225 30.714,60.391C30.547,60.691 30.631,60.941 30.964,61.141C31.331,61.308 31.581,61.242 31.714,60.941ZM18.614,63.042C19.581,61.109 19.781,59.459 19.214,58.092C17.481,59.525 16.114,61.275 15.114,63.342C16.347,63.542 17.048,63.642 17.214,63.642C17.915,63.708 18.381,63.508 18.614,63.042Z"/>
        </g>
    </g>
</svg>
