<?xml version="1.0" encoding="UTF-8" standalone="no"?>
<!DOCTYPE svg PUBLIC "-//W3C//DTD SVG 1.1//EN" "http://www.w3.org/Graphics/SVG/1.1/DTD/svg11.dtd">
<svg width="100%" height="100%" viewBox="0 0 100 100" version="1.1" xmlns="http://www.w3.org/2000/svg" xmlns:xlink="http://www.w3.org/1999/xlink" xml:space="preserve" xmlns:serif="http://www.serif.com/" style="fill-rule:evenodd;clip-rule:evenodd;stroke-linejoin:round;stroke-miterlimit:2;">
    <g transform="matrix(1,0,0,1,0,-12.5)">
        <g transform="matrix(1,0,0,1,0,10)">
            <path d="M49.372,84.538L18.013,84.538C16.903,84.538 16,83.635 16,82.525C16,82.281 16.041,82.046 16.117,81.847C16.128,81.818 16.124,81.787 16.132,81.758C16.145,81.714 16.169,81.675 16.175,81.628C16.68,78.103 34.051,66.781 45.093,66.111C45.151,66.107 45.2,66.081 45.255,66.068C45.321,66.052 45.388,66.045 45.448,66.016C45.508,65.989 45.554,65.947 45.606,65.91C45.658,65.872 45.713,65.841 45.757,65.795C45.801,65.748 45.829,65.691 45.863,65.636C45.897,65.582 45.936,65.533 45.959,65.473C45.983,65.411 45.987,65.344 45.998,65.278C46.008,65.222 46.031,65.171 46.031,65.112L46.022,60.006C46.022,59.928 45.994,59.859 45.977,59.786C45.964,59.73 45.965,59.67 45.943,59.618C45.92,59.562 45.877,59.52 45.844,59.471C45.806,59.413 45.777,59.349 45.728,59.3C45.699,59.272 45.659,59.257 45.626,59.232C45.557,59.178 45.491,59.121 45.41,59.086C45.29,59.036 45.159,59.008 45.021,59.008C41.435,59.008 35.885,50.82 35.885,45.529C35.885,44.977 35.437,44.529 34.885,44.529C34.883,44.529 34.88,44.53 34.878,44.53C33.67,44.525 32.689,43.279 32.689,41.747L32.689,39.751C32.689,39.191 33.128,38.752 33.689,38.752L34.578,38.752C35.13,38.752 35.578,38.304 35.578,37.752C35.578,37.743 35.573,37.736 35.573,37.728L35.573,31.214C35.573,31.202 35.58,31.193 35.58,31.18C35.58,22.513 42.822,15.462 51.725,15.462C60.626,15.462 67.868,22.513 67.868,31.18L67.868,37.727C67.868,37.736 67.863,37.743 67.863,37.751C67.863,38.303 68.31,38.751 68.863,38.751L69.754,38.751C70.315,38.751 70.754,39.19 70.754,39.75L70.754,41.75C70.754,41.753 70.756,41.756 70.756,41.76C70.754,42.592 70.455,43.371 69.934,43.902C69.546,44.296 69.552,44.929 69.946,45.316C70.141,45.507 70.394,45.603 70.647,45.603C70.906,45.603 71.165,45.503 71.36,45.304C72.261,44.387 72.757,43.125 72.757,41.75C72.757,41.745 72.754,41.741 72.754,41.735L72.754,39.749C72.754,38.134 71.469,36.823 69.868,36.762L69.868,31.173C69.864,21.405 61.727,13.461 51.725,13.461C41.738,13.461 33.612,21.381 33.583,31.127C33.582,31.144 33.573,31.158 33.573,31.174L33.573,36.762C31.973,36.825 30.689,38.135 30.689,39.749L30.689,41.752C30.692,44.014 32.082,45.902 33.937,46.395C34.429,51.967 39.441,59.834 44.022,60.884L44.028,64.197C33.122,65.404 15.344,76.151 14.238,81.158C14.083,81.585 14,82.043 14,82.525C14,84.736 15.798,86.535 18.008,86.537C18.009,86.537 18.009,86.538 18.01,86.538L49.372,86.538C49.924,86.538 50.372,86.091 50.372,85.538C50.372,84.985 49.924,84.538 49.372,84.538Z" style="fill:none;stroke:#d2d1d1;stroke-width:2px;"/>
        </g>
        <g transform="matrix(1,0,0,1,0,10)">
            <path d="M68.236,49.742C58.44,49.742 50.47,57.712 50.47,67.508C50.47,77.304 58.44,85.274 68.236,85.274C78.031,85.274 86,77.304 86,67.508C86,57.712 78.031,49.742 68.236,49.742ZM68.236,83.273C59.543,83.273 52.47,76.201 52.47,67.507C52.47,58.813 59.542,51.741 68.236,51.741C76.929,51.742 84,58.814 84,67.508C84,76.202 76.929,83.273 68.236,83.273Z" style="fill:none;stroke:#d2d1d1;stroke-width:2px;"/>
        </g>
        <g transform="matrix(1,0,0,1,0,10)">
            <path d="M75.552,68.844C74.999,68.844 74.552,69.291 74.552,69.844L74.552,71.832C74.552,72.221 74.236,72.537 73.847,72.537L62.625,72.537C62.236,72.537 61.92,72.221 61.92,71.832L61.92,62.917C61.92,62.528 62.236,62.213 62.625,62.213L63.692,62.213C64.245,62.213 64.692,61.766 64.692,61.213C64.692,60.66 64.245,60.213 63.692,60.213L62.625,60.213C61.134,60.213 59.92,61.426 59.92,62.917L59.92,71.832C59.92,73.323 61.134,74.537 62.625,74.537L73.847,74.537C75.338,74.537 76.552,73.323 76.552,71.832L76.552,69.844C76.552,69.291 76.104,68.844 75.552,68.844Z" style="fill:none;stroke:#d2d1d1;stroke-width:2px;"/>
        </g>
        <g transform="matrix(1,0,0,1,0,10)">
            <path d="M64.002,67.142L66.324,69.465C66.519,69.66 66.775,69.758 67.031,69.758C67.287,69.758 67.543,69.66 67.738,69.465L75.265,61.937C75.656,61.546 75.656,60.914 75.265,60.523C74.874,60.132 74.242,60.132 73.851,60.523L67.031,67.344L65.416,65.728C65.025,65.337 64.393,65.337 64.002,65.728C63.611,66.119 63.611,66.751 64.002,67.142Z" style="fill:none;stroke:#d2d1d1;stroke-width:2px;"/>
        </g>
    </g>
</svg>
