<?xml version="1.0" encoding="UTF-8" standalone="no"?>
<!DOCTYPE svg PUBLIC "-//W3C//DTD SVG 1.1//EN" "http://www.w3.org/Graphics/SVG/1.1/DTD/svg11.dtd">
<svg width="100%" height="100%" viewBox="0 0 100 100" version="1.1" xmlns="http://www.w3.org/2000/svg" xmlns:xlink="http://www.w3.org/1999/xlink" xml:space="preserve" xmlns:serif="http://www.serif.com/" style="fill-rule:evenodd;clip-rule:evenodd;stroke-linejoin:round;stroke-miterlimit:2;">
    <g transform="matrix(1.03563,0,0,1.03563,-0.333179,-1.67817)">
        <path d="M25.35,25.25L22,25.25C21.188,25.25 20.52,24.582 20.52,23.77C20.52,23.221 20.069,22.77 19.52,22.77C18.971,22.77 18.52,23.221 18.52,23.77C18.52,25.679 20.091,27.25 22,27.25L22.7,27.25L22.7,28.52C22.7,29.069 23.151,29.52 23.7,29.52C24.249,29.52 24.7,29.069 24.7,28.52L24.7,27.25L25.4,27.25C27.309,27.25 28.88,25.679 28.88,23.77L28.88,23.05C28.88,21.141 27.309,19.57 25.4,19.57L22,19.57C21.188,19.57 20.52,18.902 20.52,18.09L20.52,17.37C20.52,16.558 21.188,15.89 22,15.89L25.4,15.89C26.212,15.89 26.88,16.558 26.88,17.37C26.88,17.919 27.331,18.37 27.88,18.37C28.429,18.37 28.88,17.919 28.88,17.37C28.88,15.461 27.309,13.89 25.4,13.89L24.7,13.89L24.7,12.62C24.7,12.071 24.249,11.62 23.7,11.62C23.151,11.62 22.7,12.071 22.7,12.62L22.7,13.89L22,13.89C20.091,13.89 18.52,15.461 18.52,17.37L18.52,18.09C18.52,19.999 20.091,21.57 22,21.57L25.4,21.57C26.212,21.57 26.88,22.238 26.88,23.05C26.88,23.05 26.88,23.771 26.88,23.771C26.88,24.583 26.212,25.251 25.4,25.251C25.383,25.251 25.367,25.251 25.35,25.25Z" style="fill:none;stroke:#d2d1d1;stroke-width:1px;"/>
    </g>
    <g transform="matrix(1.03563,0,0,1.03563,-0.333179,-1.67817)">
        <path d="M19.47,42.12L67.08,42.12C67.629,42.12 68.08,41.669 68.08,41.12L68.08,35.81C68.08,34.773 67.227,33.92 66.19,33.92L20.35,33.92C19.317,33.925 18.47,34.777 18.47,35.81L18.47,41.12C18.47,41.669 18.921,42.12 19.47,42.12ZM20.47,35.92L66.08,35.92L66.08,40.11L20.47,40.11L20.47,35.92Z" style="fill:none;stroke:#d2d1d1;stroke-width:1px;"/>
    </g>
    <g transform="matrix(1.03563,0,0,1.03563,-0.333179,-1.67817)">
        <path d="M38.32,19.29L66.19,19.29C67.227,19.29 68.08,18.437 68.08,17.4C68.08,17.4 68.08,13.5 68.08,13.5C68.08,12.469 67.231,11.62 66.2,11.62C66.197,11.62 66.193,11.62 66.19,11.62L38.32,11.62C37.287,11.62 36.435,12.467 36.43,13.5L36.43,17.4C36.43,18.437 37.283,19.29 38.32,19.29ZM38.44,13.62L66.08,13.62L66.08,17.28L38.44,17.28L38.44,13.62Z" style="fill:none;stroke:#d2d1d1;stroke-width:1px;"/>
    </g>
    <g transform="matrix(1.03563,0,0,1.03563,-0.333179,-1.67817)">
        <path d="M67.08,27.52L45.2,27.52C44.651,27.52 44.2,27.971 44.2,28.52C44.2,29.069 44.651,29.52 45.2,29.52L67.08,29.52C67.629,29.52 68.08,29.069 68.08,28.52C68.08,27.971 67.629,27.52 67.08,27.52Z" style="fill:none;stroke:#d2d1d1;stroke-width:1px;"/>
    </g>
    <g transform="matrix(1.03563,0,0,1.03563,-0.333179,-1.67817)">
        <path d="M67.08,22.59L45.2,22.59C44.651,22.59 44.2,23.041 44.2,23.59C44.2,24.139 44.651,24.59 45.2,24.59L67.08,24.59C67.629,24.59 68.08,24.139 68.08,23.59C68.08,23.041 67.629,22.59 67.08,22.59Z" style="fill:none;stroke:#d2d1d1;stroke-width:1px;"/>
    </g>
    <g transform="matrix(1.03563,0,0,1.03563,-0.333179,-1.67817)">
        <path d="M32.83,78L19.47,78C18.921,78 18.47,78.451 18.47,79C18.47,79.549 18.921,80 19.47,80L32.83,80C33.379,80 33.83,79.549 33.83,79C33.83,78.451 33.379,78 32.83,78Z" style="fill:none;stroke:#d2d1d1;stroke-width:1px;"/>
    </g>
    <g transform="matrix(1.03563,0,0,1.03563,-0.333179,-1.67817)">
        <path d="M32.83,72.33L19.47,72.33C18.921,72.33 18.47,72.781 18.47,73.33C18.47,73.879 18.921,74.33 19.47,74.33L32.83,74.33C33.379,74.33 33.83,73.879 33.83,73.33C33.83,72.781 33.379,72.33 32.83,72.33Z" style="fill:none;stroke:#d2d1d1;stroke-width:1px;"/>
    </g>
    <g transform="matrix(1.03563,0,0,1.03563,-0.333179,-1.67817)">
        <path d="M20.51,83.83L19.51,83.83C18.961,83.83 18.51,84.281 18.51,84.83C18.51,85.379 18.961,85.83 19.51,85.83L20.51,85.83C21.059,85.83 21.51,85.379 21.51,84.83C21.51,84.281 21.059,83.83 20.51,83.83Z" style="fill:none;stroke:#d2d1d1;stroke-width:1px;"/>
    </g>
    <g transform="matrix(1.03563,0,0,1.03563,-0.333179,-1.67817)">
        <path d="M26.67,83.83L25.67,83.83C25.121,83.83 24.67,84.281 24.67,84.83C24.67,85.379 25.121,85.83 25.67,85.83L26.67,85.83C27.219,85.83 27.67,85.379 27.67,84.83C27.67,84.281 27.219,83.83 26.67,83.83Z" style="fill:none;stroke:#d2d1d1;stroke-width:1px;"/>
    </g>
    <g transform="matrix(1.03563,0,0,1.03563,-0.333179,-1.67817)">
        <path d="M86.38,50.86L77.2,50.86L77.2,8.67C77.2,8.667 77.2,8.663 77.2,8.66C77.2,6.652 75.548,5 73.54,5C73.54,5 13,5 13,5C10.996,5.005 9.35,6.656 9.35,8.66C9.35,8.663 9.35,8.667 9.35,8.67L9.35,91.33C9.35,91.333 9.35,91.337 9.35,91.34C9.35,93.344 10.996,94.995 13,95L73.54,95C75.548,95 77.2,93.348 77.2,91.34L77.2,87.46L86.38,87.46C88.722,87.46 90.65,85.532 90.65,83.19L90.65,55.13C90.65,52.788 88.722,50.86 86.38,50.86ZM88.64,55.13L88.64,56.87L38.51,56.87L38.51,55.13C38.51,53.888 39.528,52.865 40.77,52.86L86.38,52.86C87.622,52.865 88.64,53.888 88.64,55.13ZM38.51,58.87L88.64,58.87L88.64,63.26L38.51,63.26L38.51,58.87ZM75.19,91.33C75.19,91.337 75.19,91.343 75.19,91.35C75.19,92.255 74.445,93 73.54,93C73.54,93 13,93 13,93C12.095,93 11.35,92.255 11.35,91.35L11.35,8.67C11.35,8.663 11.35,8.657 11.35,8.65C11.35,7.745 12.095,7 13,7C13,7 73.54,7 73.54,7C74.445,7 75.19,7.745 75.19,8.65L75.19,50.86L40.77,50.86C38.428,50.86 36.5,52.788 36.5,55.13L36.5,83.19C36.5,85.532 38.428,87.46 40.77,87.46L75.19,87.46L75.19,91.33ZM86.38,85.46L40.77,85.46C39.528,85.455 38.51,84.432 38.51,83.19L38.51,65.26L88.64,65.26L88.64,83.19C88.64,84.432 87.622,85.455 86.38,85.46Z" style="fill:none;stroke:#d2d1d1;stroke-width:1px;"/>
    </g>
    <g transform="matrix(1.03563,0,0,1.03563,-0.333179,-1.67817)">
        <path d="M42.54,76.31L53.44,76.31C54.297,76.305 55,75.598 55,74.74L55,69.74C55,68.879 54.291,68.17 53.43,68.17L42.54,68.17C41.69,68.186 40.999,68.89 40.999,69.74C40.999,69.753 41,69.767 41,69.78L41,74.78C41.021,75.615 41.705,76.294 42.54,76.31ZM43,70.22L53,70.22L53,74.31L43,74.31L43,70.22Z" style="fill:none;stroke:#d2d1d1;stroke-width:1px;"/>
    </g>
    <g transform="matrix(1.03563,0,0,1.03563,-0.333179,-1.67817)">
        <path d="M84.61,75.29L77.36,75.29C76.811,75.29 76.36,75.741 76.36,76.29L76.36,80.83C76.36,81.379 76.811,81.83 77.36,81.83L84.61,81.83C85.471,81.83 86.18,81.121 86.18,80.26L86.18,76.86C86.18,75.999 85.471,75.29 84.61,75.29ZM84.18,79.84L78.36,79.84L78.36,77.3L84.18,77.3L84.18,79.84Z" style="fill:none;stroke:#d2d1d1;stroke-width:1px;"/>
    </g>
    <g transform="matrix(1.03563,0,0,1.03563,-0.333179,-1.67817)">
        <path d="M55.31,79.84L42,79.84C41.451,79.84 41,80.291 41,80.84C41,81.389 41.451,81.84 42,81.84L55.31,81.84C55.859,81.84 56.31,81.389 56.31,80.84C56.31,80.291 55.859,79.84 55.31,79.84Z" style="fill:none;stroke:#d2d1d1;stroke-width:1px;"/>
    </g>
    <g transform="matrix(1.03563,0,0,1.03563,-0.333179,-1.67817)">
        <path d="M85.18,69.63L84.68,69.63C84.131,69.63 83.68,70.081 83.68,70.63C83.68,71.179 84.131,71.63 84.68,71.63L85.18,71.63C85.729,71.63 86.18,71.179 86.18,70.63C86.18,70.081 85.729,69.63 85.18,69.63Z" style="fill:none;stroke:#d2d1d1;stroke-width:1px;"/>
    </g>
    <g transform="matrix(1.03563,0,0,1.03563,-0.333179,-1.67817)">
        <path d="M80.44,71.63L80.94,71.63C81.489,71.63 81.94,71.179 81.94,70.63C81.94,70.081 81.489,69.63 80.94,69.63L80.44,69.63C79.891,69.63 79.44,70.081 79.44,70.63C79.44,71.179 79.891,71.63 80.44,71.63Z" style="fill:none;stroke:#d2d1d1;stroke-width:1px;"/>
    </g>
</svg>
