<?xml version="1.0" encoding="UTF-8" standalone="no"?>
<!DOCTYPE svg PUBLIC "-//W3C//DTD SVG 1.1//EN" "http://www.w3.org/Graphics/SVG/1.1/DTD/svg11.dtd">
<svg width="100%" height="100%" viewBox="0 0 4000 4000" version="1.1" xmlns="http://www.w3.org/2000/svg" xmlns:xlink="http://www.w3.org/1999/xlink" xml:space="preserve" xmlns:serif="http://www.serif.com/" style="fill-rule:evenodd;clip-rule:evenodd;stroke-linecap:round;stroke-linejoin:round;stroke-miterlimit:1.5;">
    <g id="Layer1">
        <path class="path" d="M3551.13,3100.05C3548.74,2961.94 3567.91,2824.34 3566.93,2686.24C3565.88,2538.84 3552.93,2392.62 3543.42,2245.79C3539.25,2181.41 3540.04,2116.18 3537.4,2051.62" style="fill:none;stroke:#59200F;stroke-width:48.17px;"/>
        <path class="path" d="M2949.9,3401.22C2951.49,3262.32 2961.01,3123.61 2961.37,2984.61C2961.7,2852.59 2948.7,2721.97 2944.78,2590.24C2941.88,2492.58 2948.05,2395.06 2942.33,2297.3" style="fill:none;stroke:#59200F;stroke-width:48.17px;"/>
        <path class="path" d="M2994.15,2153.73C3132.71,2091.25 3282.35,2058 3421.48,1997.79C3470.62,1976.53 3520.76,1958.62 3570.02,1937.57C3585.7,1930.87 3601.09,1925.15 3617.87,1921.63C3625.86,1919.95 3634.06,1918.92 3642.16,1918.03C3644.71,1917.75 3650.96,1915.11 3649.82,1917.4C3637.59,1942.05 3561.8,1957.38 3535.67,1965.06C3429.2,1996.39 3327.9,2040.21 3223.02,2075.71C3178.64,2090.73 3136.9,2109.21 3098.18,2135.6C3082.92,2146 3068.98,2158 3054.38,2169.26C3050.57,2172.2 3038.26,2178.25 3043.07,2178.26C3096.79,2178.33 3152.09,2145.78 3202.26,2129.12C3281.76,2102.74 3357.54,2068.84 3435.33,2037.98C3495.03,2014.29 3556.5,1995.08 3615.9,1970.82" style="fill:none;stroke:#59200F;stroke-width:48.17px;"/>
        <path class="path" d="M2740.91,1623.34C2712.59,1622.25 2684.2,1617.23 2655.91,1617.03C2625.56,1616.82 2595.11,1620.46 2564.76,1621.49C2539.58,1622.34 2515.44,1608.71 2500.91,1635.91" style="fill:none;stroke:#59200F;stroke-width:48.17px;"/>
        <path class="path" d="M794.507,2656.84C788.996,2693.66 791.288,2731.25 792.031,2768.31C793.171,2825.13 794.313,2881.43 798.593,2938.14C800.511,2963.55 802.287,2988.73 806.156,3013.92C808.124,3026.72 813.266,3045.32 809.855,3057.85" style="fill:none;stroke:#59200F;stroke-width:48.17px;"/>
        <path class="path" d="M2979.37,1902.32C2962.17,1940.51 2879.57,1975.16 2843.92,1988.34" style="fill:none;stroke:#59200F;stroke-width:48.17px;"/>
        <path class="path" d="M2292.74,1870.92C2322.36,1857.52 2355.28,1860.15 2386.28,1867.06C2402.77,1870.74 2423.45,1877.09 2423.44,1877.12C2414.28,1899.19 2355.61,1901.03 2335.09,1902.41C2333.26,1902.54 2300.43,1908.02 2302.37,1897.26C2306.22,1875.97 2380.03,1876.59 2397.4,1879.15C2406.94,1880.55 2416.33,1882.65 2425.73,1884.77C2429.7,1885.67 2440.1,1884.04 2437.69,1887.34C2429.93,1897.93 2402.88,1895.96 2391.51,1896.07C2386.56,1896.12 2381.61,1896.25 2376.66,1896.36C2375.01,1896.4 2370.12,1896.88 2371.71,1896.44C2372.62,1896.19 2373.55,1896 2374.48,1895.82C2392.07,1892.42 2410.21,1890.04 2428.11,1889.15C2428.56,1889.13 2448.97,1888.65 2448.88,1889.71C2448.75,1891.17 2430.33,1894.06 2430.1,1894.1C2402.33,1898.94 2374.28,1900.09 2346.17,1901.3" style="fill:none;stroke:#59200F;stroke-width:48.17px;"/>
        <path class="path" d="M2360.03,1267.51C2418.95,1283.14 2487.96,1275.89 2548.57,1276.15C2584.66,1276.3 2621.46,1280.63 2657.5,1283.17C2668.11,1283.92 2743.84,1278.22 2744.24,1299.55C2745.73,1378.8 2494.53,1386.46 2438.31,1374.94C2424.43,1372.1 2355.76,1355.48 2352.97,1338.82C2349.45,1317.8 2388.09,1302.17 2403.63,1298.5C2440.76,1289.73 2476.63,1299.33 2513.8,1300.94C2541.96,1302.16 2570.3,1299.9 2598.49,1300C2625,1300.08 2651.57,1299.52 2678.05,1300.76C2686.74,1301.17 2695.59,1301.83 2704.22,1302.92C2705.03,1303.03 2724.76,1306.62 2724.26,1307.88C2715.09,1331.12 2679.8,1338.44 2658.43,1341.57C2596.67,1350.62 2533.91,1343.85 2472.07,1340.31C2452.76,1339.2 2433.28,1338.31 2413.93,1338.36C2404.72,1338.38 2395.5,1339.36 2386.37,1340.47C2384.55,1340.69 2379.29,1340.26 2380.91,1341.12C2407.94,1355.45 2456.76,1340.4 2485.1,1338.76C2513.19,1337.13 2542.07,1332.85 2570.19,1333.42" style="fill:none;stroke:#59200F;stroke-width:48.17px;"/>
        <path class="path" d="M1542.69,2704.72C1550.38,2746.06 1564.42,2816.83 1510.34,2827.8C1505.83,2828.72 1490.04,2836.99 1486.43,2836.13C1469.92,2832.21 1470.48,2722.56 1478.75,2713.34C1481.17,2710.64 1485.12,2717.09 1487.41,2719.9C1505.12,2741.63 1495.25,2772.98 1504.97,2797.07C1506.4,2800.62 1505.91,2789.47 1506.21,2785.65C1507.26,2772.26 1507.89,2758.77 1508.32,2745.35C1508.43,2741.66 1508.54,2736.35 1508.61,2732.46C1508.64,2731.03 1508.45,2726.74 1508.68,2728.16C1511.15,2743.55 1511.96,2792.58 1514.44,2794.36C1519.79,2798.2 1527.72,2754.61 1522.71,2728.7" style="fill:none;stroke:#59200F;stroke-width:48.17px;"/>
        <path class="path" d="M1871.15,2683.05C1848.25,2687.09 1826.98,2697.62 1803.93,2701.49C1759.87,2708.88 1687.78,2697.15 1651.8,2730.3C1635.8,2745.04 1631.18,2770.1 1625.93,2790.33C1602.93,2878.88 1606.39,2881.58 1622.1,2968.32C1627.09,2995.82 1629.21,3018.55 1647.04,3041.51C1663.22,3062.33 1700.98,3077.96 1725.7,3086.28C1758.29,3097.25 1791.54,3103.15 1825.92,3101.82C1836.69,3101.4 1849.64,3101.58 1859.61,3096.93C1875.95,3089.3 1854.83,2997.57 1852.51,2984.7C1846.37,2950.73 1849.25,2914.25 1847.02,2879.74C1844.98,2848.12 1844.51,2813.43 1847.38,2781.76C1848.08,2774.09 1854.95,2752.2 1851.96,2745.33C1849.02,2738.57 1838.01,2735.65 1831.8,2734.17C1802.34,2727.13 1767.24,2730.17 1738.17,2737.37C1727.5,2740.01 1717.54,2744.02 1707.98,2749.36C1706.45,2750.21 1701.71,2751.96 1703.45,2752.01C1727.05,2752.61 1750.74,2746.21 1773.87,2742.37C1780.78,2741.22 1787.69,2740.06 1794.6,2738.91C1799.06,2738.16 1812.32,2735.63 1808.03,2737.05C1773.1,2748.64 1735.46,2752.6 1699.44,2759.57C1684.98,2762.37 1685.75,2762.13 1672.03,2765.76C1666.33,2767.26 1664.27,2767.77 1659.16,2769.52C1657.9,2769.95 1654.1,2770.88 1655.43,2770.95C1687.06,2772.55 1718.77,2765.44 1749.77,2760.14C1759.98,2758.4 1770.22,2756.82 1780.43,2755.09C1782.07,2754.81 1786.92,2753.86 1785.38,2754.46C1742.94,2771.05 1696.99,2776.72 1654.63,2793.33C1652.5,2794.17 1648.94,2794 1648.41,2796.23C1646.65,2803.62 1663.56,2797.84 1671.15,2797.79C1682.14,2797.72 1790.37,2778.35 1790.61,2778.51C1798.21,2783.66 1773.97,2786.29 1765.45,2789.72C1738.77,2800.46 1711.12,2809.02 1683.84,2818.09C1677.95,2820.05 1672.03,2821.87 1666.13,2823.8C1662.49,2824.98 1651.45,2827.96 1655.23,2827.41C1688.54,2822.55 1722.08,2812.43 1754.44,2803.24C1762.11,2801.07 1774.13,2797.2 1781.86,2794.87C1784.9,2793.95 1787.95,2793.09 1791,2792.21C1792.98,2791.64 1798.79,2789.61 1796.96,2790.56C1765.74,2806.78 1732.65,2819.02 1699.82,2831.51C1688.11,2835.96 1682.19,2838.12 1671.54,2842.48C1669.56,2843.29 1663.51,2845.14 1665.65,2845.03C1694.69,2843.43 1723.37,2836.19 1751.45,2829.05C1761,2826.62 1770.52,2824.08 1780.06,2821.65C1783.14,2820.87 1791.92,2817.5 1789.31,2819.31C1764.76,2836.32 1731.16,2845.79 1703.32,2855.55C1680.91,2863.41 1681.63,2862.86 1658.84,2869.83C1653.97,2871.32 1639.75,2876.74 1644.27,2874.39C1666.62,2862.77 1696.36,2858.03 1720.56,2850.99C1730.77,2848.01 1741.05,2845.2 1751.31,2842.39C1752.53,2842.05 1756.14,2840.89 1754.99,2841.42C1725.91,2854.86 1695.31,2865.51 1665.28,2876.56C1653.88,2880.75 1642.45,2884.84 1631.06,2889.05C1627.59,2890.33 1617.01,2893.36 1620.7,2893.04C1655.6,2889.99 1691.1,2878.03 1725.68,2871.79C1736.64,2869.82 1765.57,2863.13 1764.43,2865.14C1754.76,2882.22 1678,2909.74 1660.84,2916.93C1651.49,2920.84 1648.95,2921.97 1639.49,2926.16C1637.83,2926.89 1632.77,2928.67 1634.55,2928.39C1667.04,2923.39 1698.51,2914.74 1730.55,2907.66C1743.42,2904.81 1756.24,2901.71 1769.13,2898.93C1774.9,2897.68 1780.69,2896.56 1786.51,2895.61C1787.86,2895.39 1791.25,2893.96 1790.59,2895.15C1780,2914.22 1695.82,2940.19 1679.05,2946.78C1659.54,2954.43 1660.15,2954.11 1640.57,2962.18C1638.49,2963.03 1632.1,2965.11 1634.31,2964.69C1665.48,2958.87 1696.31,2951.01 1727.42,2944.78C1744.67,2941.32 1791.87,2932.02 1791.89,2933.76C1791.99,2942.72 1713.09,2973.93 1707.84,2975.83C1705.77,2976.58 1684.3,2983.89 1679.38,2985.56C1677.26,2986.28 1670.78,2987.93 1673.02,2987.74C1703.24,2985.26 1733.63,2976.72 1763.61,2971.98C1791.02,2967.64 1798.35,2967.11 1798.05,2967.71C1786.39,2990.9 1748.26,3003.2 1726.92,3012.42C1725.94,3012.85 1699.17,3023.78 1694.49,3025.67C1692.1,3026.63 1684.72,3028.72 1687.3,3028.55C1722.61,3026.27 1757.69,3017.21 1792.73,3012.37C1804.98,3010.68 1808.39,3010.19 1820.03,3009.13C1825.26,3008.66 1839.01,3004.06 1835.76,3008.19C1824.46,3022.58 1794.15,3028.97 1777.9,3035.18C1766.65,3039.47 1767.53,3039.21 1755.47,3043.57C1751.67,3044.94 1740.13,3047.32 1744.13,3047.85C1763.45,3050.4 1783.44,3048.68 1802.87,3049.24C1805.49,3049.32 1811.78,3047.69 1810.69,3050.07C1803.44,3065.93 1781.21,3072.15 1766.05,3076.28C1760.27,3077.86 1744.18,3084 1748.45,3079.81C1767.03,3061.56 1794.59,3054.84 1819.71,3052.06C1824.07,3051.58 1832.04,3047.14 1832.87,3051.45C1833.17,3053 1809.83,3057.11 1790.56,3058.75C1779.96,3059.65 1683.16,3061.85 1679.5,3044.29C1676,3027.44 1737.09,3023.24 1743.67,3023.66C1761.82,3024.79 1767.77,3027.5 1767.22,3027.91C1750.28,3040.62 1689.72,3025.6 1670.44,3019.59C1658.91,3015.99 1658.7,3015.9 1648.59,3011.66C1643.87,3009.68 1629.75,3006.73 1634.64,3005.22C1665.6,2995.68 1708.26,3007.22 1738.55,3015.34C1752.38,3019.05 1766.39,3023.86 1777.56,3033.17C1779.42,3034.72 1781.98,3036.61 1778.1,3037.67C1722.39,3052.79 1770.03,2903.42 1775.32,2881.59C1778.98,2866.48 1784.63,2851.97 1786.88,2836.53C1787.76,2830.54 1787.81,2824.57 1788.06,2818.54C1788.12,2817.29 1787.69,2813.68 1788.26,2814.79C1805.22,2848.1 1804.38,2886.05 1808.73,2922.24C1808.87,2923.36 1810.56,2914.01 1811.65,2893.04C1812.94,2868.35 1809.72,2844.09 1809.56,2819.44C1809.48,2807.51 1809.72,2795.84 1812,2784.09C1812.35,2782.29 1812.8,2776.94 1813.27,2778.72C1826.6,2829.5 1793.86,2880.87 1803.75,2930.02" style="fill:none;stroke:#59200F;stroke-width:48.17px;"/>
        <path class="path" d="M2115.49,1836.8C1965.85,1872.69 1802.17,1814.05 1729.27,1677.57C1702.99,1628.37 1693.99,1576.27 1673.39,1525.58C1648.15,1463.48 1529.07,1282.65 1445.53,1302.62C1430.51,1306.21 1391.38,1336.66 1408.49,1354.12C1428.76,1374.81 1465.38,1375.76 1492.62,1379.18C1493.74,1379.32 1497.02,1380.04 1496,1379.55C1477.04,1370.34 1456.67,1368.3 1435.81,1369.34C1429.61,1369.65 1422.68,1370.34 1416.44,1371.64C1412.43,1372.48 1400.53,1374.59 1404.61,1374.95C1420.51,1376.34 1440.67,1369.8 1456.13,1366.14C1462.53,1364.62 1468.86,1362.83 1475.27,1361.32C1477.56,1360.78 1484.33,1358.85 1482.18,1359.82C1453.68,1372.72 1423.68,1381.85 1394.48,1392.97C1393.05,1393.51 1388.93,1394.05 1390.27,1394.77C1406.03,1403.23 1500.74,1384.44 1523.58,1381.51C1542.97,1379.02 1542.07,1378.81 1561.71,1376.81C1566.08,1376.37 1578.31,1373.02 1574.84,1375.71C1538.81,1403.65 1488.86,1417.05 1446.62,1431.63C1419.13,1441.12 1391.51,1450.24 1363.99,1459.67C1361.13,1460.65 1352.45,1462.18 1355.43,1462.68C1394.77,1469.33 1451.28,1451.03 1490.49,1444.37C1513.5,1440.46 1559.3,1432.7 1558.14,1433.56C1522.55,1460.01 1473.24,1471.52 1432.17,1487.14C1424.84,1489.93 1403.28,1492.59 1410.36,1495.96C1430.87,1505.72 1521.8,1488.78 1548.51,1486.21C1562.06,1484.91 1575.57,1483.29 1589.14,1482.23C1593.56,1481.89 1606.17,1479.45 1602.45,1481.86C1567.28,1504.63 1528.15,1517.7 1488.4,1530.26C1477.04,1533.85 1465.59,1537.13 1454.21,1540.68C1451.81,1541.44 1444.49,1542.87 1447.01,1543C1484.14,1544.92 1523.87,1533.36 1560.15,1526.86C1582.03,1522.94 1580.96,1522.92 1603.11,1518.67C1607.78,1517.78 1621.58,1514.58 1617.18,1516.37C1571.76,1534.84 1523.66,1547.34 1476.74,1561.38C1464.12,1565.16 1451.48,1568.89 1438.85,1572.64C1435.22,1573.72 1424.18,1576.02 1427.96,1575.86C1464.52,1574.3 1501.54,1566.87 1537.58,1560.84C1550.73,1558.65 1563.81,1556.06 1576.95,1553.83C1581.65,1553.04 1595.2,1549.36 1591.09,1551.76C1557.96,1571.12 1517.52,1580.07 1481.39,1592.42C1469.41,1596.52 1458.77,1600.08 1447.01,1604.36C1443.21,1605.74 1431.66,1608.98 1435.71,1608.77C1468.8,1607.05 1501.6,1599.76 1534.28,1594.65C1544.52,1593.05 1572.5,1583.16 1565.06,1590.37C1539.56,1615.13 1490.86,1623.24 1457.95,1635.03C1451.53,1637.33 1433.21,1638.23 1438.78,1642.17C1456.24,1654.51 1559.98,1635.25 1587.36,1632.44C1601.84,1630.96 1615.9,1632.12 1630.47,1631.77C1635.65,1631.64 1640.83,1631.36 1646.01,1631.12C1648.81,1630.98 1657.18,1630.21 1654.39,1630.41C1636.13,1631.76 1589.26,1641.66 1572.41,1630.24C1566.05,1625.93 1599.08,1573.2 1607.93,1572.26C1619.94,1570.98 1625.92,1628.22 1667.02,1670.73C1722.22,1727.8 1796.28,1770.41 1863.82,1810.61C1911.66,1839.09 1964.92,1864.42 2021.31,1867.77C2023.13,1867.88 2119.95,1862.12 2107.27,1884.5C2086.3,1921.52 2002.6,1907.82 1969.76,1902.97C1860.74,1886.87 1766.33,1837.32 1690.5,1755.33C1662.93,1725.53 1644.2,1598.06 1575.32,1634.15C1573.46,1635.12 1574.55,1642.77 1574.61,1643.11C1585.44,1697.26 1669.54,1758.71 1708.28,1796.3C1747.3,1834.17 1799.6,1857.5 1851.43,1871.65C1890.21,1882.24 1925.79,1897.5 1966.35,1900.16C1980.1,1901.06 1993.74,1903.18 2007.19,1906.14C2010.69,1906.91 2019.38,1905.1 2017.74,1908.3C2006.94,1929.37 1910.63,1909.95 1895.91,1906.05C1848.19,1893.43 1793.38,1878.36 1751.71,1850.89C1715.5,1827.03 1591.56,1672.87 1550.72,1708.05C1489.47,1760.82 1545.47,2214.55 1614.38,2251.22C1738.38,2317.21 1944.22,2225.64 2034.63,2362.34C2096.65,2456.1 2067.56,2567.85 2066.83,2670.02C2066.47,2720.73 2077.8,2775.19 2084.91,2825.24C2091.39,2870.88 2138.79,2938.78 2124.65,2985.63C2110.92,3031.13 2051.92,3066.95 2009.55,3081.75C1992.03,3087.88 1969.18,3095.94 1953.2,3082.21C1912.43,3047.16 1905.02,2759.32 1932.08,2704.77C1954.64,2659.31 1996.22,2626.79 2016.55,2579.88C2033.57,2540.6 2044.8,2483.1 2033.4,2440.93C2023.17,2403.12 1988.53,2388.09 1955.42,2373.89C1890.59,2346.09 1828.57,2339.24 1758.32,2353.29C1657.51,2373.45 1530.43,2465.75 1482.79,2314.45C1430.29,2147.71 1390.79,1911.36 1421.44,1740.51C1424.73,1722.18 1423.37,1696.29 1434.31,1680.15C1473.91,1621.76 1612.94,1669.36 1632.21,1598.17C1640.12,1568.96 1631.99,1522.03 1618.43,1496.92C1612.17,1485.35 1475.13,1338.44 1459.73,1340.13C1381.97,1348.65 1396.89,1564.48 1434.53,1614.83C1449.97,1635.49 1476.94,1639.62 1500.77,1643.13C1510.25,1644.53 1534.45,1641.32 1528.88,1649.11C1513.8,1670.16 1473.36,1680.61 1454.47,1702.05C1451.59,1705.33 1442.08,1712.18 1446.43,1712.37C1463.88,1713.13 1482.24,1704.74 1497.24,1696.66C1504.41,1692.79 1519.82,1675.35 1517.67,1683.21C1504.32,1732.03 1481.4,1772.95 1481.7,1824.77C1481.71,1826.36 1481.72,1827.96 1481.74,1829.56C1481.9,1846.79 1483.5,1863.98 1485.64,1881.08C1486.47,1887.71 1486.72,1907.05 1489.12,1900.82C1500.35,1871.66 1520.87,1692.74 1533.89,1689C1536.21,1688.34 1652.15,1700.85 1663.21,1707.13C1714.19,1736.08 1745.18,1783.7 1800.49,1808.52C1821.98,1818.17 1980.95,1860.47 1965.7,1887.08C1925.29,1957.61 1671.48,1795.64 1656.23,1724.32C1649.32,1691.98 1649.75,1651.08 1654.99,1618.38C1655.89,1612.7 1664.11,1625.55 1667.72,1630.03C1685.05,1651.56 1696.96,1684.53 1706.9,1710.07C1710.11,1718.31 1722.83,1735.63 1713.98,1735.64C1689.54,1735.67 1625.21,1699.16 1616.78,1745.99C1598.17,1849.28 1882.22,1915.65 1951.28,1925.86C1982.47,1930.48 2016.79,1931.79 2047.35,1923.05C2061.7,1918.94 2076.05,1914.83 2090.27,1910.3C2091.75,1909.83 2096.02,1908.11 2094.7,1908.92C2024.43,1952.12 1858.02,1924.95 1790.32,1885.94C1754.26,1865.15 1725.75,1830.73 1693.21,1805.05C1664.66,1782.52 1581.5,1711.41 1558.1,1772.1C1548.29,1797.54 1560.05,2142.43 1569.09,2177.89C1578.39,2214.34 1594.29,2250.76 1628.06,2271.04C1704.99,2317.24 1806.06,2295.51 1890.32,2299.92C1903.19,2300.59 1916.21,2302.7 1928.79,2305.5C1949.84,2310.19 1971.27,2312.99 1990.6,2323.07C1992.89,2324.27 2016.25,2342.03 2016,2342.17C1992.53,2355.91 1870.97,2328.02 1837.59,2326.37C1729.56,2321 1550.57,2450.04 1499.6,2299.1C1485.55,2257.48 1491.78,2211.09 1485.06,2168.05C1472.04,2084.58 1453.11,2001.36 1448.62,1916.64C1446.39,1874.65 1451.79,1834.75 1457.89,1793.26C1459.99,1779 1463.03,1764.66 1463.8,1750.25C1464.09,1744.71 1466.79,1729.38 1463.22,1733.62C1426.34,1777.43 1476.1,1942.91 1484.94,2001.2C1498.99,2093.77 1501.42,2361.61 1657.79,2331.95C1659.28,2331.67 1662.2,2330.46 1663.28,2329.93C1699.19,2312.33 1586.91,2329.65 1580.95,2327.81C1541.05,2315.45 1527.51,2268.91 1517.51,2232.88C1501.64,2175.68 1497.3,2102.35 1503.76,2043.39C1507.01,2013.73 1510.94,1984.51 1510.84,1954.66C1510.84,1953.47 1510.76,1949.91 1510.78,1951.1C1511.13,1972.24 1512.04,1994.87 1516.64,2015.58C1529.59,2073.89 1560.82,2126.99 1571.91,2185.93C1577.68,2216.63 1571.11,2259.94 1594.6,2284.62C1623.83,2315.33 1676.04,2321.13 1716.27,2323.85C1721.77,2324.22 1705.3,2325.08 1699.79,2325.36C1681.7,2326.26 1663.47,2325.32 1645.8,2321.27C1620.81,2315.54 1595.71,2303.42 1582.81,2280.29C1570.34,2257.95 1537.6,2075.98 1530.31,2040.94C1524.56,2013.35 1520.7,1985.5 1515.78,1957.79C1513.9,1947.16 1511.54,1936.6 1508.54,1926.23C1507.7,1923.34 1507.55,1915.17 1505.82,1917.63C1499.05,1927.25 1512.35,2043.68 1515.61,2065.8C1525.25,2131.14 1531.16,2238.21 1600.76,2273.74C1671.89,2310.05 1995.24,2316.49 2032.13,2413.46C2044.83,2446.85 2021.6,2452.08 1994.3,2429.94C1989.05,2425.68 1983.77,2421.41 1978.7,2416.93C1975.1,2413.76 1966.75,2402.08 1968.94,2406.35C1984.1,2435.88 1985.7,2463.22 1992.65,2494.85C2026.17,2647.53 1962,2622.85 1922.89,2739.12C1903.72,2796.12 1922.17,3080.6 2014.13,3048.68C2134.42,3006.94 2090.71,2832.01 2081.14,2738.13C2076.88,2696.29 2070.57,2654.65 2065.78,2612.78C2065.57,2610.99 2063.76,2581.78 2061.78,2582.06C2040.19,2585.13 2025.25,2616.43 2017.19,2633.12C1967.17,2736.72 1953,2841.12 1990.15,2950.63C1991.95,2955.94 2004.1,2990.06 2007.52,2989.99C2061.9,2988.97 2069.67,2755.6 2071.48,2715.64C2071.51,2714.91 2073.81,2680.74 2069.56,2679.81C2012.03,2667.26 1964.21,2943.76 1996.78,2948.72C2032.46,2954.16 2042.86,2817.65 2045.45,2792.14C2047.17,2775.28 2048.88,2758.42 2050.59,2741.55C2050.95,2737.96 2053.41,2727.54 2051.77,2730.77C2032.05,2769.72 2018.4,2811.49 2006.12,2853.29C2000.8,2871.43 1995.31,2889.78 1991.73,2908.38C1990.66,2913.93 1987.94,2930.48 1990.09,2925.25C2010.3,2876.05 2023.43,2812.47 2004.19,2767.85C1998.81,2755.38 1996.93,2742.06 1995.67,2728.69C1995.56,2727.47 1996.49,2724.8 1995.3,2725.04C1954.68,2733.12 1946.59,2867.91 1958.31,2899.49C1967.19,2923.42 1986.8,2949.6 2014.99,2942.19C2015.23,2942.12 2025.56,2938.4 2025.77,2938.78C2031.79,2949.87 2027.9,2968.13 2022.93,2979.01C2020.76,2983.75 2009.6,2983.52 2005.82,2983.87C1971.42,2987.05 1964.86,2947.42 1964.29,2920.85C1964.21,2917.24 1963.92,2906.43 1964.16,2910.03C1964.99,2922.03 1977.35,2998.75 1980.3,2999.82C2003.42,3008.23 2020.35,2979.87 2033.38,2965.28C2034.52,2964.01 2037.39,2959.89 2036.79,2961.48C2031.74,2974.89 2022.83,2999.73 2005.44,3000.73C1998.44,3001.13 1996.41,3006.7 2001.46,3004.34C2009.88,3000.4 2016.78,2992.29 2022.62,2985.3C2026.28,2980.91 2033.44,2966.16 2033.23,2971.86C2032.18,3000.35 1988.65,2983.29 1977.93,2972.42C1952.48,2946.6 1939.78,2820.64 1949.67,2781.1C1964.44,2722.06 1982.91,2664.42 2008.6,2609.2C2017.22,2590.68 2031.67,2575.7 2039.4,2556.62C2041.78,2550.75 2043.62,2544.78 2044.66,2538.52C2045.33,2534.5 2047.94,2522.59 2046.7,2526.47C2032.25,2571.97 2030.53,2621.59 2020.58,2668.33C2017.53,2682.66 2013.28,2696.73 2010.22,2711.03C2008.62,2718.51 2004.7,2741.12 2005.81,2733.55C2008.5,2715.26 2014.32,2697.36 2020.14,2679.86C2021.9,2674.58 2028.41,2659.28 2025.56,2664.06C1985,2732.07 1938.25,2806.77 1985.53,2886.91C2002.6,2915.85 2025.75,2942.16 2030.95,2976.43" style="fill:none;stroke:#59200F;stroke-width:48.17px;"/>
        <path class="path" d="M1599.58,617.412C1532.81,665.943 1452.31,701.059 1374.97,729.423C1329.47,746.111 1282.18,757.294 1241.58,785.347C1206.73,809.426 1195.9,849.857 1188.33,889.888C1186.43,899.941 1184.27,911.482 1184.33,911.474C1202.63,909.157 1316.37,801.932 1345.24,783.341C1364.56,770.902 1384.94,760.936 1405.4,750.59C1405.73,750.423 1447,728.163 1446.48,727.439C1435.01,711.314 1344.76,788.94 1293.39,838.778C1279.9,851.867 1266.4,864.978 1253.46,878.608C1249.05,883.244 1245.1,887.554 1240.9,892.291C1240.13,893.162 1237.86,895.816 1238.66,894.965C1260.62,871.461 1280.11,845.018 1297.91,818.232C1300.48,814.366 1308.73,800.865 1311.61,795.573C1314.08,791.05 1323.14,780.04 1318.23,781.604C1285.98,791.869 1257.79,825.829 1234.86,848.104C1223.36,859.282 1211.82,870.259 1200.88,882.002C1198.96,884.075 1192.77,889.741 1195.24,888.346C1224.14,871.988 1250.42,833.64 1273.52,809.84C1285.25,797.76 1297.11,785.814 1308.97,773.864C1311.17,771.647 1316.77,764.364 1315.64,767.278C1304.28,796.661 1279.25,824.455 1261.24,849.991C1249.21,867.062 1236.84,884.008 1225.79,901.749C1224.59,903.671 1220.33,908.612 1222.37,907.619C1282.45,878.323 1332.02,815.492 1379.74,770.799C1399.77,752.042 1398.99,752.566 1418.15,734.218C1424.44,728.199 1430.77,722.231 1437.11,716.259C1438.13,715.29 1441.01,712.228 1440.24,713.409C1413.24,754.628 1376.08,790.387 1344.13,827.689C1322.04,853.473 1322.58,852.822 1301.63,879.389C1297.6,884.499 1293.54,889.586 1289.6,894.767C1287.48,897.553 1280.09,903.009 1283.57,903.362C1304.76,905.511 1421.9,778.99 1436.33,764.31C1450.7,749.702 1465,735.031 1479.28,720.345C1490.71,708.59 1492.14,706.836 1502.42,695.841C1504.53,693.589 1510.63,686.672 1508.83,689.177C1480.62,728.538 1447.94,764.373 1415.71,800.431C1404.48,812.99 1392.83,825.164 1381.59,837.703C1381.39,837.918 1368.73,852.016 1370.55,850.709C1415.71,818.322 1454.64,775.291 1494.44,736.692C1507.13,724.383 1519.93,712.183 1532.54,699.79C1538.95,693.497 1545.32,687.172 1551.7,680.849C1553.69,678.872 1559.65,672.927 1557.67,674.916C1533.6,699.111 1508.39,722.156 1483.98,746.014C1476.96,752.878 1470.1,759.906 1463.25,766.943C1461.28,768.965 1455.08,774.641 1457.46,773.119C1489.92,752.317 1518.71,723.579 1547.27,697.8C1558.75,687.443 1570.1,676.949 1581.71,666.751C1583.85,664.876 1590.12,659.132 1588.22,661.239C1563.43,688.638 1536.5,714.161 1510.04,739.918C1498.25,751.389 1498.91,750.476 1488.8,761.564C1487.09,763.438 1481.42,768.273 1483.74,767.248C1512.14,754.7 1540.06,721.045 1561.56,699.039C1570.52,689.862 1572.83,687.398 1581.24,679.426C1583.89,676.911 1591.65,669.187 1589.23,671.92C1580.4,681.867 1579.01,682.984 1567.6,695.099C1554.58,708.926 1555.19,708.24 1541.99,723.12C1535.95,729.93 1530.5,735.88 1524.83,742.932C1496.82,777.803 1569.1,722.799 1574.09,719.418C1576.38,717.866 1579.11,713.293 1581.19,715.12C1582.95,716.674 1547.54,756.143 1542.94,760.911C1539.43,764.547 1528.19,774.534 1532.52,771.918C1565.73,751.819 1557.28,744.01 1583.41,716.107C1609.26,688.501 1637.94,664.642 1637.63,668.37C1636.42,683.021 1617.77,703.475 1609.96,715.782C1603.51,725.947 1588.63,737.712 1589.96,737.849C1602.21,739.118 1613.57,736.213 1604.17,743.71C1586.31,757.942 1564.07,768.729 1543.92,778.932C1521.19,790.447 1496.95,796.847 1476.46,812.695C1468.19,819.098 1461.6,827.104 1455.29,835.396C1453.51,837.737 1447.42,843.641 1450.16,842.584C1458.32,839.446 1465.39,833.321 1472.58,828.503C1476.65,825.777 1491.69,824.21 1486.89,825.184C1473.45,827.912 1461.43,828.742 1451.05,839.317C1407.61,883.596 1455.59,952.665 1415.62,995.606C1399.68,1012.73 1305.63,1060.69 1285.15,1053.43C1266.14,1046.68 1255.54,1024.84 1245.24,1009.06C1235.18,993.64 1223,976.259 1222.43,957.139C1221.07,911.815 1283.62,885.54 1319.26,876.277C1335.48,872.063 1352.12,870.199 1368.56,867.213C1373.18,866.375 1386.13,861.483 1382.32,864.218C1360.52,879.847 1342.74,900.894 1326.71,922.31C1323.62,926.437 1303.88,954.977 1300.23,960.503C1289.11,977.329 1279.88,994.852 1271.61,1013.21C1265.28,1027.26 1310.12,979.478 1314.51,974.612C1329.34,958.156 1392.47,901.307 1398.16,882.026C1400.12,875.376 1388.55,892.03 1384,897.258C1369.97,913.373 1358.2,930.329 1347.73,948.947C1341.19,960.569 1339.27,964.875 1334.37,976.149C1332.93,979.459 1326.93,987.382 1330.34,986.199C1345.18,981.049 1358.33,964.612 1368.03,953.137C1373.9,946.192 1379.17,938.761 1384.82,931.636C1386.75,929.208 1391.72,921.44 1390.54,924.307C1382.43,944.016 1372.65,962.154 1361.14,980.093C1355.91,988.241 1350.5,996.271 1345.06,1004.28C1343.51,1006.56 1338.38,1013.07 1340.2,1010.99C1343.59,1007.13 1361.11,986.581 1362.73,984.671C1374.58,970.725 1409.19,923.548 1381.75,963.279C1379.43,966.632 1379.38,970.983 1381.98,966.721C1382.98,965.085 1371.9,974.121 1357.01,985.999C1346.97,994.013 1319.53,1024.51 1305.01,1023.74C1283.53,1022.6 1285.38,956.147 1287.17,941.717C1288.11,934.108 1289.32,926.486 1290.57,918.921C1290.91,916.854 1292.75,910.922 1291.71,912.741C1277.68,937.278 1263.86,961.844 1249.09,985.963C1242.01,997.525 1242.37,996.704 1235.37,1007.75C1234.72,1008.78 1232.71,1011.83 1233.49,1010.89C1256.52,983.158 1277.96,953.98 1300.26,925.658C1314.53,907.536 1340.57,874.575 1338.94,876.104C1321.28,892.627 1305.22,910.65 1289.49,929.002C1282.82,936.79 1276.06,945.222 1269.6,953.298C1267.62,955.777 1261.07,962.476 1263.77,960.818C1296.22,940.924 1321.99,909.308 1349.26,883.204C1360.22,872.718 1371.48,862.474 1382.82,852.399C1385.36,850.138 1391.31,842.339 1390.47,845.637C1386.01,863.105 1374.62,880.557 1365.9,896.063C1360.72,905.279 1355.46,913.759 1350.13,922.767C1348.78,925.052 1343.76,930.839 1346.14,929.668C1370.2,917.85 1392.41,882.224 1408.76,861.49C1417.11,850.9 1431.53,831.705 1431.69,831.97C1433.25,834.559 1384.27,912.82 1377.26,923.354C1373.03,929.712 1367.78,937.409 1363.34,943.844C1362.03,945.746 1358.17,951.506 1359.39,949.545C1369.81,932.842 1381.07,916.776 1392.18,900.532C1402.37,885.623 1415.35,866.725 1415.37,866.754C1415.88,867.41 1394.04,904.066 1378.14,929.11C1362.12,954.343 1316.87,1057.52 1268.97,1037.7C1221.48,1018.04 1184.38,965.795 1178.53,916.641C1176.2,897.097 1176.21,879.052 1183.33,860.506C1185.48,854.898 1187.88,849.414 1190.49,844.005C1191.34,842.232 1194.92,838.629 1192.95,838.639C1172.95,838.738 1168.64,890.397 1170.17,902.713C1177.27,959.646 1223.92,997.866 1238.11,1052.19" style="fill:none;stroke:#59200F;stroke-width:48.17px;"/>
        <path class="path" d="M954.147,1317.65C1002.89,1337.14 1079.6,1353.93 1112.73,1396.12C1159.92,1456.21 1172.44,1596.14 1178.35,1670.85C1182.92,1728.7 1180.32,1786.7 1185,1844.41C1197.05,1992.91 1213.93,2128.97 1211.39,2278.95C1209.73,2376.95 1167.85,2590.03 1259.84,2659.53C1335.08,2716.36 1520.59,2648.1 1602.31,2620.57C1663.23,2600.04 1749.21,2596.95 1803.64,2568.52C1863.8,2537.11 1745.66,2510.66 1715.19,2515.94C1697.24,2519.05 1679.01,2519.7 1661.1,2522.93C1627.6,2528.96 1595.78,2543.2 1562.33,2549.14C1452.01,2568.71 1413.71,2499.06 1389.69,2406.45C1380.01,2369.12 1379.11,2329.48 1372.65,2291.46C1360.44,2219.58 1346.56,2148.17 1334.53,2076.39C1326.78,2030.19 1307.5,1986.66 1299.64,1940.58C1282.57,1840.63 1275.7,1737.1 1266.58,1636.17C1262.11,1586.64 1269.38,1378.18 1165.62,1425.37C1154.46,1430.45 1143.62,1437.38 1139.67,1449.56C1138.18,1454.16 1137.31,1458.39 1137.47,1463.21C1137.6,1466.73 1138.17,1469.97 1140.05,1472.96C1161.8,1507.68 1195.15,1432.69 1198.5,1459.92C1199.64,1469.22 1200.28,1478.57 1201.53,1487.86C1202.44,1494.59 1203.72,1501.24 1204.86,1507.93C1217.41,1581.26 1207.04,1652.46 1210.93,1726.08C1214.07,1785.51 1224.55,1844.43 1228.4,1903.89C1235.04,2006.34 1231.16,2108.35 1234.93,2210.65C1237.14,2270.5 1246.69,2331.85 1243.2,2391.68C1239.22,2460 1214.32,2567.79 1274.36,2621.22C1355.75,2693.65 1508.56,2601.77 1597.62,2585.3C1631.88,2578.96 1665.31,2572.15 1698.93,2563.02C1710.69,2559.83 1722.61,2557.3 1734.44,2554.4C1739.17,2553.25 1753.29,2549.52 1748.62,2550.89C1698.73,2565.54 1653.56,2553.61 1602.95,2557.1C1556.3,2560.31 1521.95,2576.45 1473.45,2570.06C1400.56,2560.45 1359.34,2461.62 1345.87,2399.78C1323.55,2297.31 1322.48,2194.09 1307.34,2090.97C1293.33,1995.56 1267.32,1903.91 1260.01,1807.06C1254.86,1738.87 1237.2,1669.43 1226.53,1601.66C1221.44,1569.4 1218.87,1535.71 1204.84,1505.79C1204.55,1505.18 1199.99,1496.56 1199.98,1496.58C1166.32,1540.65 1222.15,1705.79 1234.56,1749.29C1253.31,1814.97 1271.13,1884.31 1278.84,1952.39C1282.43,1984.06 1277.69,2016.05 1279.39,2047.87C1285.28,2157.69 1291,2272.73 1323.11,2378.59C1332.2,2408.56 1343.17,2439.06 1357.74,2466.82C1374.37,2498.53 1441.06,2568.55 1429.16,2602.27C1407.71,2663.03 1313.17,2596.13 1293.24,2563.09C1253.13,2496.62 1249.86,2361.39 1246.63,2283.19C1245.31,2251.23 1244.44,2219.04 1246.4,2187.11C1247.3,2172.48 1247.74,2157.86 1248.15,2143.21C1248.17,2142.44 1247.72,2140.42 1248.3,2140.91C1332.81,2211.55 1235.64,2365.71 1271.05,2460.22C1284.94,2497.3 1311.65,2554.26 1342.61,2579.86C1360.79,2594.89 1375.42,2597.07 1398.16,2597.84C1402.63,2597.99 1413.41,2602.75 1411.57,2598.67C1389.36,2549.47 1339.24,2513.59 1315.05,2463.12C1306.83,2445.95 1299.11,2428.39 1292.49,2410.55C1289.61,2402.8 1287.2,2394.91 1284.53,2387.1C1283.17,2383.13 1277.71,2371.79 1279.23,2375.7C1289.99,2403.5 1344.68,2484.09 1343.61,2510.01C1342.27,2542.6 1224.47,2500.39 1264.09,2572.68C1318.61,2672.18 1466.68,2604.64 1545.18,2592.57C1617.57,2581.45 1726.12,2583.45 1785.28,2536.35" style="fill:none;stroke:#59200F;stroke-width:48.17px;"/>
        <path class="path" d="M1249.71,2737.93C1250.29,2781.61 1260.72,2824.89 1262.76,2868.55C1264.7,2910.51 1260.9,2951.79 1260.05,2993.61C1259.74,3008.99 1264.14,3066.74 1289.87,3064.33C1313.33,3062.13 1317.62,3026.63 1318.12,3009.28C1319.8,2950.87 1317.77,2889.48 1304.72,2832.54C1299.99,2811.89 1297.43,2791.19 1293.89,2770.35C1292.56,2762.52 1291.26,2754.79 1288.63,2747.27C1287.92,2745.22 1287.61,2739.47 1286.27,2741.18C1269.63,2762.4 1289.04,2842.9 1290.79,2872.83C1294.29,2932.68 1283.74,2993.78 1283.94,3053.8C1284.06,3088.48 1294.11,3123.24 1299.32,3157.33C1302.75,3179.76 1303.62,3202.43 1306.86,3224.88C1312.51,3264.01 1323.33,3302.83 1324.79,3342.39C1325.03,3349.02 1324.15,3376.51 1315.46,3380.32C1294.21,3389.63 1279.39,3351.43 1274.86,3338.43C1255.44,3282.76 1259.24,3219.93 1254.7,3161.76C1253.1,3141.32 1249.77,3120.81 1250.61,3100.25C1250.94,3092.26 1251.96,3084.31 1252.56,3076.34C1252.71,3074.34 1251.91,3068.72 1253.09,3070.35C1275.44,3101.42 1271.21,3217.21 1276.27,3261.55C1278.67,3282.62 1279.55,3304.26 1284.41,3324.96C1286.26,3332.81 1288.96,3340.37 1292.23,3347.73C1293.59,3350.78 1296.44,3360.02 1296.67,3356.7C1299.76,3312.07 1271.11,3269.17 1277.25,3223.25C1286.12,3156.92 1361.12,3185.18 1405.22,3185.78C1435.84,3186.19 1465.62,3181.8 1496.29,3182.87C1552.03,3184.81 1606.36,3190.32 1661.6,3196.83C1668.04,3197.59 1711.76,3199.7 1709.57,3206.3C1697.19,3243.54 1649.07,3227.67 1623.78,3217.57C1593.16,3205.33 1563.33,3202.21 1530.91,3196.43C1508.17,3192.37 1485.97,3183.33 1463.48,3177.94C1432.06,3170.4 1392.22,3172.57 1360.17,3176.95C1345.36,3178.97 1293.34,3183.55 1287.49,3193.97C1267.38,3229.83 1299.33,3334.08 1247.72,3349.97C1157.07,3377.89 1187.77,3201.91 1129.69,3193.99C1111.51,3191.51 1093.94,3196.85 1076.43,3200.84C1010.4,3215.91 949.733,3250.22 885.091,3258.89C868.43,3261.13 814.852,3273.26 802.782,3258.95C786.496,3239.64 824.16,3215.25 838.849,3211.6C863.782,3205.41 887.932,3209.66 913.194,3209.12C950.51,3208.33 997.007,3201.76 1032.25,3189.21C1051.94,3182.2 1070.6,3174.64 1091.34,3171.51C1098.73,3170.4 1105.95,3169.25 1113.42,3168.84C1113.62,3168.83 1124.92,3168.68 1124.78,3168.74C1111.77,3174.06 1096.85,3174.46 1083.25,3177.53C1056.96,3183.44 1032.02,3194.08 1005.63,3200.03C981.682,3205.42 961.266,3216.48 938.372,3224.82C924.347,3229.93 864.612,3255.62 849.432,3249.87C833.795,3243.94 875.52,3209.46 900.09,3203.71C927.528,3197.29 957.995,3189.65 985.864,3186.69C1008.12,3184.33 1029.81,3187.05 1051.95,3186.26C1079.43,3185.28 1106.17,3179.1 1133.14,3174.75" style="fill:none;stroke:#59200F;stroke-width:48.17px;"/>
        <path class="path" d="M672.089,3334.65C636.718,3265.96 710.413,3165.5 769.721,3233.73C803.12,3272.15 793.295,3385.69 724.238,3367.82C658.783,3350.88 637.482,3219.65 703.459,3212.68C776.969,3204.9 803.608,3343.92 736.916,3369.53C698.248,3384.38 633.444,3280.66 690.03,3253.62C760.098,3220.13 785.136,3355.09 723.942,3337.05C708.83,3332.6 696.44,3320.36 689.087,3306.73C678.626,3287.34 675.141,3265.32 684.266,3244.83C735.307,3130.21 865.028,3114.41 973.626,3094.53C1017.3,3086.53 1063.42,3070.46 1108.25,3070.79C1139.48,3071.02 1168.65,3082.56 1199.52,3084.64C1260.05,3088.72 1321.62,3083.9 1381.89,3091.16C1437.28,3097.84 1492.36,3109.17 1547.68,3117.19C1586.33,3122.8 1622.44,3121.3 1659.53,3136.5C1694.74,3150.92 1830.34,3266.01 1826.33,3305.05C1817.94,3386.68 1657.64,3340.63 1694.9,3266.44C1739.75,3177.17 1889.39,3315.99 1784.67,3335.3C1765.74,3338.8 1744.94,3338.42 1727.61,3329.17C1696.2,3312.4 1685.14,3272.3 1654.81,3253.16C1628.04,3236.27 1365.12,3169.69 1345.35,3178.36C1296.68,3199.69 1358.58,3399.59 1310.08,3462.26C1253.54,3535.33 1152.22,3414.61 1209.29,3363.29C1271.71,3307.14 1346.77,3412.24 1285.87,3466.24C1251.48,3496.72 1151.17,3374.1 1246.67,3351.14C1314.56,3334.81 1313.36,3481.76 1254.29,3454.94C1179.23,3420.87 1200.46,3233.36 1138.08,3204.72C1101.95,3188.14 1047.4,3205.96 1008.61,3206.06C930.917,3206.25 864.51,3192.65 788.888,3219.17C785.865,3220.23 764.632,3230.53 761.572,3227.93C760.556,3227.07 767.121,3217.28 767.803,3216.31C785.175,3191.74 821.941,3181.77 849.567,3174.51C939.407,3150.9 1056.35,3115.76 1149.8,3141.18C1179.28,3149.21 1205.67,3253.52 1214.07,3281.3C1215.28,3285.28 1234.22,3336.6 1239.64,3329.2C1254.56,3308.88 1253.57,3276.53 1251.25,3252.52C1248.47,3223.79 1244.21,3186.19 1224.1,3163.13C1212.88,3150.27 1113.55,3130 1171.45,3102.03C1195.44,3090.44 1254.36,3075.88 1280.84,3080.43C1307.49,3085 1313.03,3123.38 1340.13,3132.14C1402.16,3152.18 1473.07,3145.53 1536.57,3161.03C1554.2,3165.33 1666.96,3184.97 1672.49,3169.34C1688.29,3124.74 1562.57,3111.12 1540.49,3111.62C1361.46,3115.67 1330.98,3106.84 1291.69,2930.94C1281.12,2883.62 1270.59,2823.61 1299.44,2779.91C1358.45,2690.52 1622.31,2649.64 1728.19,2637.23C1767.77,2632.59 1896.67,2612.82 1912.07,2575.55C1920.64,2554.78 1909.39,2534.73 1906.03,2514.27C1903.94,2501.53 1908.26,2487.28 1898.45,2477.04C1850.85,2427.37 1554.5,2550.61 1474.29,2519.91C1455.35,2512.66 1442.41,2490.67 1434.94,2472.91C1408.41,2409.79 1408.7,2346.86 1395.2,2281.12C1382.17,2217.68 1358.97,2155.58 1347.72,2092.05C1323.81,1956.97 1320.1,1813.96 1312.86,1677.21C1310.46,1631.9 1320.81,1587.27 1318.58,1542.17C1315.71,1484.36 1272.47,1358.57 1223.53,1325.96C1124.27,1259.8 940.291,1309.72 822.88,1303.36C754.031,1299.63 686.31,1280.44 616.889,1281.17C594.925,1281.4 467.908,1313.51 462.355,1310.31C459.731,1308.79 483.235,1278.99 486.241,1275.92C583.3,1176.68 777.79,1205.71 899.507,1228.21C1007.17,1248.12 1183.41,1220.69 1276.26,1286.19C1400.1,1373.56 1393.04,1614.04 1384.3,1744.9C1377.61,1845.23 1371.57,1954.86 1388.15,2054.22C1398.57,2116.64 1421.21,2176.88 1434.64,2238.75C1447.38,2297.39 1454.33,2358.37 1480.17,2413.29C1491.63,2437.64 1504.24,2469.14 1533.41,2476.36C1628.83,2499.99 1898.97,2344.45 1956,2467.47C1970.37,2498.47 1960.58,2531.24 1944.4,2559.75C1904.76,2629.61 1828.91,2636.48 1763.34,2668.42C1732.73,2683.34 1704.73,2707.99 1670.03,2713.2C1623.19,2720.24 1566.6,2692.62 1518.49,2690.85C1450.75,2688.36 1401.99,2712.14 1338.76,2725.03C1312.8,2730.32 1278.85,2728.26 1253.8,2720.31C1229,2712.45 1199.42,2673.2 1178.45,2706.37C1156.25,2741.47 1158.77,2804.06 1157.09,2844.05C1155.78,2875.53 1155.77,2907.07 1155.66,2938.58C1155.51,2981.24 1138.21,3035.13 1187.21,3056.05C1280.53,3095.91 1239.39,2912.32 1241.83,2871C1242.86,2853.62 1245.72,2758.63 1228.4,2744.53C1227.21,2743.56 1218.14,2753.07 1217.94,2753.29C1200.85,2771.74 1189.33,2796.94 1184.1,2821.37C1179.47,2842.93 1196.47,3105.43 1229.17,3023.43C1238.13,3000.98 1238.3,2974.12 1236.73,2950.35C1235.05,2924.98 1232,2899.83 1231.11,2874.39C1229.94,2840.64 1237.1,2795.25 1225.65,2762.9C1220.01,2746.95 1200.65,2745.63 1192.08,2731.69C1181.62,2714.7 1181.2,2695.39 1166.81,2680.12C1147.13,2659.23 1110.62,2649.38 1084.53,2640.62C1043.86,2626.97 1000.43,2609.1 957.595,2604.35C908.694,2598.91 858.291,2611.92 801.106,2606.42C792.661,2605.61 810.511,2911.17 800.944,3052.58C800.42,3060.33 785.519,3064.29 768.438,3066.07C762.783,3066.66 757.925,2649.39 752.235,2649.56C745.326,2649.76 776.993,3032.57 761.594,3067.65C759.875,3071.57 733.794,3067.01 730.669,3066.26C717.934,3063.21 740.657,2649.77 735.16,2649.16C728.759,2648.46 727.885,3065.51 721.667,3064.51C697.432,3060.62 676.592,3055.3 674.756,3054.98C657.089,3051.97 666.329,2759.73 669.949,2631.15C670.029,2628.34 795.619,2657.4 795.691,2654.74C795.761,2652.17 671.841,2627.73 671.903,2625.3C672.094,2617.86 672.249,2611.15 672.357,2605.28C672.426,2601.49 799.262,2618.32 799.286,2615.23C799.308,2612.32 674.118,2603.17 674.095,2600.94C674.078,2599.31 674.048,2597.86 674.005,2596.61C673.89,2593.27 673.678,2591.31 673.352,2590.91C651.216,2563.83 644.549,2574.05 617.116,2553.69C508.247,2472.89 547.071,2335.09 531.565,2217.34C524.826,2166.17 501.441,1951.68 498.235,1893.37C493.923,1814.97 463.202,1748.43 447.118,1673.09C438.227,1631.44 442.251,1589.69 431.958,1547.72C427.391,1529.1 421.67,1507.54 423.358,1488.14C425.884,1459.12 439.113,1430.87 443.132,1401.7C446.696,1375.83 438.456,1345.65 446.228,1321.17C452.812,1300.43 468.937,1281.88 485.32,1268.13C619.886,1155.18 804.258,1240.42 954.665,1246.17C1068.12,1250.52 1044.86,1148.72 1189.36,1144.17C1236.52,1142.69 1277.38,1160.54 1323.08,1167.12C1409.44,1179.57 1546.38,1207.05 1596.92,1289.74C1638.44,1357.67 1658.41,1446 1693.08,1518.31C1725.27,1585.48 1780.73,1648.81 1828.57,1705.68C1855.48,1737.69 1894.71,1758.07 1935.96,1763.47C2004.22,1772.41 2075.13,1733.74 2125.49,1800.8C2136.01,1814.81 2147.65,1839.29 2147.03,1857.94C2142.91,1982.67 1959.32,1978.74 1875.74,1959.88C1816.86,1946.59 1751.29,1918.58 1696.3,1893.99C1642.16,1869.78 1616.48,1828.54 1588.44,1779C1584.56,1772.14 1564.61,1730.86 1557.33,1738.66C1512.46,1786.76 1548.16,1892.65 1557.62,1948.03C1564.09,1985.91 1567.24,2024.54 1572.37,2062.64C1594.56,2227.47 1625.84,2245.92 1790.7,2225.55C1824.49,2221.38 1861.22,2209.28 1895.48,2215.73C1970.09,2229.77 1998.67,2283.93 2051.77,2326.74C2054.37,2328.83 2069.87,2342.63 2074.12,2338.93C2118.11,2300.66 2078.63,2202.62 2038.85,2175.6C1997.49,2147.5 1937.93,2168.08 1891.14,2158.09C1845.77,2148.39 1582.54,2026.72 1572.08,2123.33C1557.01,2262.57 1671.93,2220.55 1771.86,2226.27C1830.37,2229.61 2025.33,2279.32 2066.21,2317.21C2163.06,2406.99 2107.82,2678.99 2117.49,2805.25C2121.31,2855.16 2140.97,2904.22 2148.55,2954.11C2152.62,2980.94 2151.25,3039.75 2168.13,3061.79C2188.63,3088.57 2234.91,3088.08 2263.53,3103.43C2335.07,3141.81 2340.18,3215.76 2272.26,3259.74C2196.43,3308.86 2079.71,3269.46 1996.34,3266.55C1969.22,3265.61 1937.91,3273.68 1911.78,3264.03C1880.64,3252.52 1853.65,3229.21 1837.29,3200.34C1832.83,3192.48 1823.77,3174.49 1828.59,3165.26C1846.09,3131.76 2045.8,3082.27 2084.82,3075.2C2105.5,3071.45 2125.96,3078.32 2146.5,3072.1C2151.85,3070.48 2135.32,3071.68 2129.76,3072.12C2105.22,3074.05 2083.83,3084.79 2060.53,3091.45C2037.03,3098.18 2012.92,3095.48 1989.18,3100.02C1938.53,3109.7 1897.31,3129.68 1880.78,3062.28C1856.31,2962.53 1857.98,2768.24 1879.65,2664.34C1897.41,2579.17 1986.55,2541.93 1950.16,2446.5C1917.75,2361.47 1794.12,2393.31 1726.2,2396.53C1678.48,2398.79 1622.59,2398.82 1577.43,2415.48C1568.93,2418.61 1559.99,2422.38 1552.34,2427.29C1512.13,2453.12 1578.87,2461.59 1599.75,2458.91C1647.27,2452.79 1688.99,2425.18 1734.62,2412.24C1799.3,2393.91 1933.59,2389.27 1959.22,2467.84C1988.21,2556.68 1995.58,2585.83 1910.9,2634.33C1875.12,2654.83 1841.15,2673.11 1799.92,2680.41C1757.08,2687.98 1670.7,2675.07 1633.83,2702.27C1609.79,2720 1599.36,2761.26 1593.76,2789.14C1576.49,2875.18 1564.94,3033.8 1645.94,3095.75C1658.41,3105.28 1846.04,3147.24 1866.84,3143.46C1884.78,3140.19 1899.13,3125.48 1903.09,3107.98C1921.66,3025.97 1858.08,2942.32 1858.56,2859.21C1858.87,2805.5 1866.96,2736.03 1886.8,2685.01C1899.52,2652.3 1935.26,2635.8 1950.81,2605.04C1987.5,2532.5 1950.68,2424.08 1876.67,2392.76C1750.01,2339.15 1562.3,2534.67 1465.62,2378.79C1433.77,2327.44 1382.22,2108.22 1382.55,2045.35C1382.7,2015.38 1397.76,1987.29 1397.16,1957.56C1396.45,1922.69 1384.7,1888.18 1383.28,1852.84C1377.19,1701.56 1381.09,1550.78 1336.08,1403.98C1311.84,1324.89 1216.63,1266.71 1143.69,1244.05C1126.39,1238.68 1007.72,1225.38 1019.96,1191.53C1047.02,1116.71 1201.16,1181.65 1228.38,1096.17C1241.73,1054.25 1169.31,1002.47 1152.46,966.219C1123.09,903.082 1062.35,743.474 1089.12,677.135C1100.65,648.553 1138.98,640.763 1149.34,613.734C1161,583.336 1127.29,566.759 1162.73,540.379C1173.99,531.995 1189.44,539.408 1198.3,547.686C1246.35,592.583 1238.46,504.855 1270.9,516.167C1273.36,517.026 1276.44,534.521 1287.43,537.935C1342.63,555.091 1430.05,544.714 1486.82,535.75C1509.51,532.168 1523.31,523.864 1541.5,511.775C1542.43,511.161 1546.95,507.725 1547.96,508.108C1577.22,519.256 1545.3,566.934 1556.6,573.563C1581.52,588.179 1615.94,575.598 1641.34,568.674C1641.81,568.547 1654.38,564.389 1654.75,564.942C1666.51,582.272 1601.27,620.162 1598.31,629.63C1595.79,637.684 1650.65,652.832 1658.25,654.867C1663.96,656.394 1678.49,655.164 1675.19,660.065C1659.95,682.729 1625.85,693.896 1606.17,713.464C1606.12,713.521 1596.03,723.688 1596.11,723.75C1611.15,735.813 1674.89,707.426 1635.84,745.017C1618.14,762.047 1595.39,769.213 1573.83,779.853C1548.89,792.156 1531.54,806.746 1521.4,833.792C1518.23,842.253 1515.98,850.706 1513.8,859.444C1513,862.642 1513.54,871.865 1511.72,869.112C1501.32,853.316 1493.64,836.593 1471.75,866.334C1440.13,909.265 1469.33,977.55 1446.81,1010C1413.45,1058.08 1189.6,1054.17 1241.32,1112.73C1270.66,1145.96 1407.22,1170.58 1448.37,1141.19C1467.61,1127.45 1461.17,1104.28 1483.72,1090.36C1511.61,1073.15 1543.21,1074.42 1561.97,1043.59C1591.44,995.172 1585.91,929.454 1585.02,875.226C1584.79,861.546 1590.17,815.045 1580.53,803.84C1580.34,803.615 1580.17,803.362 1579.93,803.19C1544.18,777.762 1516.24,831.372 1504.67,853.859C1501.8,859.442 1492.65,848.671 1486.4,849.282C1475.81,850.319 1468.32,859.281 1463.64,868.141C1441.9,909.288 1475.78,969.746 1441.75,1003.25C1383.22,1060.88 1312.25,1060.3 1239.86,1083.65C1234.25,1085.46 1219.31,1089.29 1220.67,1098.19C1229.49,1155.96 1357.79,1139.32 1397.59,1147.3C1432.49,1154.31 1464.1,1170.32 1489.51,1195.22C1525.05,1230.06 1545,1276.97 1574.94,1316.27C1619.18,1374.33 1670.5,1425.15 1710.05,1487.29C1743.05,1539.15 1758.49,1623.46 1811.74,1659.01C1858.06,1689.93 1923.76,1631.24 1976.34,1638.02C2038.68,1646.06 2017.8,1733.42 2073.37,1754.92C2137.85,1779.86 2202.45,1705.32 2261.53,1767.23C2321.69,1830.28 2233.98,1906.61 2174.69,1918.5" style="fill:none;stroke:#F7F065;stroke-width:7.93px;"/>
        <path class="path" d="M2066.7,1994.44C2025.39,1990.58 1752.84,1939.6 1609.76,1944.73C1596.9,1945.19 1611.06,1981.85 1613.4,1982.08C1695.91,1990.18 1665.81,2073.19 1728.08,2078.42C1781.37,2082.89 1762.78,2030.68 1816.18,2032.05C1934.83,2035.1 2043.3,2069.66 2158.09,2092.97C2225.42,2106.65 2292.22,2123.89 2359.63,2136.96C2406.71,2146.09 2454.3,2147.32 2501.04,2159.15C2541.55,2169.41 2795.26,2211.66 2807.32,2238.37C2835.52,2300.78 2816.5,3088.27 2816.41,3151.53C2816.36,3186.89 2795.8,3335.96 2813.15,3364.11C2822.53,3379.34 2842.77,3388.05 2859.24,3393.56C2863.76,3395.07 2883.55,3404.38 2886.94,3402.44C2915.66,3386.06 2915.4,3218.32 2917.84,3185.37C2924.97,3089.03 2938.19,2987.24 2935.37,2890.89C2931.64,2762.88 2914.92,2632.9 2920.02,2504.93C2921.53,2466.94 2925.64,2428.14 2925.14,2390.19C2924.71,2357.08 2895.13,2241.54 2958.42,2242.02C2989.08,2242.25 2987.92,2447.29 2989.88,2492.62C3000.37,2734.88 2989.07,2977.26 2993.24,3219.61C2994.01,3264.49 3002.12,3355.44 2989.93,3390.77C2984.5,3406.52 2914.75,3415.17 2910.92,3413.5C2881.9,3400.88 2889.41,3294.64 2889.12,3271.25C2888.34,3207.94 2904.86,3145.85 2910.42,3083.01C2918.08,2996.57 2917.41,2909.82 2916.09,2823.18C2914.32,2706.59 2915.85,2588.62 2920.09,2472.08C2922.07,2417.7 2919.44,2363.81 2920.33,2309.58C2920.54,2296.85 2926.95,2280.39 2925.37,2268.37C2921.7,2240.28 2874.68,2241.43 2853.7,2235.4C2853.12,2235.24 2820.56,2234.66 2820.56,2234.25C2820.62,2231.61 2872.22,2233.27 2875.81,2233.55C2908.82,2236.13 2940.14,2232.53 2972.4,2225.77C3005.25,2218.89 3039.56,2216.63 3071.69,2207C3124.98,2191.04 3175.45,2165.87 3229.66,2153.04C3284.6,2140.03 3367.19,2057.75 3415.39,2061.92C3448.19,2064.75 3451.8,2249.11 3450.34,2279.44C3446.32,2363.44 3439.04,2447.49 3437.3,2531.5C3434.59,2663.04 3440.25,2793.18 3427.01,2924.29C3421.29,2980.87 3403.48,3057.21 3468.36,3082.57C3471.82,3083.92 3494.8,3095.3 3497.47,3094.24C3530.14,3081.18 3519.74,2929.72 3520.3,2895.86C3522.89,2739.69 3528.57,2581.55 3518.48,2425.57C3514.49,2363.92 3501.43,2302.9 3497.81,2240.85C3496.78,2223.08 3508.55,2019.3 3567.66,2038.55C3598.16,2048.48 3579.12,2224.9 3583.69,2263.23C3592.76,2339.22 3586.84,2414.85 3589.28,2491.02C3591.44,2558.47 3599.35,2627.97 3594.9,2695.39C3590.36,2763.99 3579.32,2831.76 3579.23,2900.79C3579.19,2932.13 3575.3,2963.43 3576.75,2994.78C3578.82,3039.53 3599.86,3103.24 3538.31,3110.99C3516.7,3113.7 3489.85,3113.27 3468.94,3106.55C3423.03,3091.79 3410.78,2927.48 3409.3,2883.58C3403.2,2702.74 3434.98,2521.38 3439.37,2340.91C3440.79,2282.65 3443.09,2218.05 3437.64,2160.17C3436.4,2147.08 3417.74,2118.72 3420.92,2107.26C3442.22,2030.42 3655.8,2066.05 3663.33,1955.49C3664.06,1944.85 3666.16,1922.2 3659.83,1912.29C3640.77,1882.46 3507.18,1929.2 3481.26,1943.21C3453.09,1958.44 3432.83,1982.07 3403.02,1994.89C3357.66,2014.41 3310.43,2026.47 3264.97,2045.22C3203.96,2070.39 3000.98,2125.89 2981.77,2136.62C2957.15,2150.36 2788.73,2116.36 2604.81,2075.46C2568.74,2067.44 2531.25,2069.38 2494.82,2064.27C2454.19,2058.57 2414.8,2045.62 2374.19,2040.57C2326.75,2034.67 2083.32,2023.64 2066.7,1994.44C2064.1,1989.87 2614.58,2082.04 2616.74,2078.11C2619.08,2073.87 2132.61,1984.86 2135,1981.24C2152.9,1954.09 2119.6,1923.5 2157.08,1928.21C2192.44,1932.65 2218.95,1955.73 2252.92,1966.29C2290.1,1977.85 2335.51,2003.79 2369.56,2002.06C2382.63,2001.39 2461.73,1979.52 2526.14,1961.61C2537.39,1958.48 2586.59,1941.8 2589.2,1936.87C2591.41,1932.69 2596.51,1887.73 2594.03,1884.43C2547.28,1822.37 2473.21,1832.45 2415.19,1813.47C2395.33,1806.97 2376.24,1796.74 2356.09,1791.41C2348.74,1789.46 2330.06,1781.81 2333.45,1788.62C2345.59,1813.04 2456.63,1823.47 2485.69,1827.58C2537.59,1834.91 2692.32,1889.03 2728.24,1878.82C2743.35,1874.53 2760.98,1850.87 2774.72,1841.66C2808.27,1819.2 2874.93,1802.68 2916.3,1803.25C3069.6,1805.33 3226.2,1852.22 3380.08,1833.91C3437.66,1827.06 3637.93,1879.28 3652.23,1886.2C3658.36,1889.16 3530.16,1875.25 3514.36,1871.92C3489.06,1866.59 3463.14,1856.09 3437.47,1855.73C3427.94,1855.59 3392.32,1858.06 3382.98,1858.48C3282.32,1863.1 3344.96,1930.8 3298.98,1916.47C3191.48,1882.98 3054.14,1901.9 3003.47,1891.92C3002.3,1891.69 2932.24,1893.05 2931.37,1900.64C2931.1,1903.05 2993.64,1910.1 2888.02,1940.01C2878.32,1942.75 2824.21,1983.69 2818.7,1986.26C2813.03,1988.89 2721.73,1984.04 2730.41,1985.24C2843.14,2000.77 2957.22,1953.2 2986.66,1945.43C2991.76,1944.09 3004.38,1892.32 3003.96,1893.89C3003.22,1896.71 2992.34,1951.14 2991.42,1953.91C2989.32,1960.26 2986.74,1966.41 2983.52,1971.97C2978.77,1980.15 2831.61,2034.49 2727.97,2009.44C2692.02,2000.75 2756.05,1910.74 2765.17,1906.52C2802.61,1889.2 2791.93,1893.39 2851.49,1890.71C2867.35,1889.99 3025.8,1887.12 3154.67,1895.92C3228.93,1901 3300.96,1922.3 3310.72,1918.4C3319.37,1914.94 3313.95,1892.6 3325.42,1880.64C3344.22,1861.04 3377.79,1849.8 3366.4,1850.6C3315.69,1854.18 3266.93,1834.38 3215.37,1828.26C3120.4,1816.99 3030.1,1813.85 2936.84,1791.17C2900.72,1782.39 2797.18,1773.01 2776.05,1754.09C2757.42,1737.41 2756.82,1680.26 2756.39,1655.7C2756.13,1640.95 2865.11,1608.82 2881.8,1605.55C2977.45,1586.84 3126.38,1629.81 3225.58,1641C3248.42,1643.58 3323.39,1671.57 3339.65,1645.16C3365.11,1603.78 3355.31,1535.81 3356.21,1489.44C3358.08,1393.58 3360.71,1298.93 3358.77,1202.97C3357.34,1132.33 3348.83,1063.29 3352.37,992.45C3357.46,890.682 3384.47,728.887 3354.14,628.529C3352.18,622.028 3340.68,605.829 3329.19,603.474C3317.45,601.067 3305.67,612.616 3298.81,616.645C3288.59,622.639 3286.01,645.093 3285.41,656.06C3283.88,684.161 3295.57,711.735 3296.26,739.876C3297.51,791.203 3282.8,840.878 3292.48,891.999C3302.83,946.717 3293.92,1004.08 3294.35,1059.4C3294.68,1101.94 3304.93,1143.62 3304.34,1186.23C3303.09,1277.57 3281.8,1370.95 3269.73,1461.2C3266.65,1484.26 3278.08,1610.36 3267.57,1623.35C3245.24,1650.97 3115.46,1635.31 3079.95,1627.61C3007.75,1611.96 2933.46,1621.78 2860.47,1615.22C2783.13,1608.28 2712.09,1585.5 2633.86,1589.86C2609.4,1591.23 2499.36,1576.49 2486.7,1591.06C2468.3,1612.21 2448.84,1709.5 2470.43,1733.36C2486.25,1750.86 2654.7,1793.27 2675.31,1784.57C2709.54,1770.11 2662.53,1647.12 2688.52,1616.99C2698.93,1604.92 2743.91,1597.09 2757.63,1607.58C2771.72,1618.36 2767.89,1664.72 2767.94,1680.95C2768.46,1859.83 2560.86,1772.31 2452.98,1770.65C2449.18,1770.59 2458.8,1765.74 2461.74,1763.33C2467.26,1758.8 2466.39,1748.31 2462.68,1742.74C2455.03,1731.29 2436.28,1730.46 2423.96,1731.4C2396.17,1733.52 2368.45,1738.9 2341.39,1745.45C2333.38,1747.39 2325.31,1749.04 2317.21,1750.57C2316.87,1750.63 2307.63,1752.48 2307.67,1752.57C2329.44,1809.47 2557.75,1820.16 2562.54,1881.2C2565.15,1914.45 2509.51,1912.93 2487.21,1926.79C2387.46,1988.78 2366.7,1982.61 2259.08,1943.5C2250.64,1940.43 2212.43,1936.93 2207.19,1930.3C2195.73,1915.79 2215.53,1900.04 2227.11,1897.74C2233.54,1896.46 2239.76,1896.1 2245.78,1896.96C2256.63,1898.51 2273.88,1857.89 2275.47,1858.17C2279.09,1858.8 2257.78,1899.16 2261.32,1900.23C2282.86,1906.75 2303.04,1919.98 2325.38,1922.47C2375.35,1928.03 2448.97,1906.7 2497.09,1892.36C2502.14,1890.85 2489.46,1885.02 2485.12,1882.03C2469.77,1871.45 2449.11,1867.57 2431.08,1863.7C2392.52,1855.42 2312.89,1809.27 2282.76,1849.75C2250.1,1893.63 2313.18,1856.81 2327.89,1857.69C2332.91,1857.99 2317.03,1900.22 2318.87,1904.91C2323.66,1917.17 2429.31,1906.58 2406.47,1891.6C2362.14,1862.51 2463.93,1876.89 2461.62,1877.92C2386.07,1911.54 2418.05,1866.06 2390.86,1850.51C2382.53,1845.74 2400.41,1897.14 2343.7,1875.48C2333.78,1871.69 2361.96,1845.19 2357.04,1845.57C2331.68,1847.54 2307.28,1934.86 2281.25,1883.59C2271.38,1864.16 2277.38,1841.37 2275.46,1820.54C2263.39,1689.56 2398.59,1765.66 2450.32,1727.53C2468.66,1714.01 2483.55,1622.61 2483.64,1600.06C2483.78,1568.48 2389.88,1563.92 2370.47,1564.26C2310.32,1565.31 2257.52,1550.51 2198.2,1545.12C2137.98,1539.64 2050.29,1555.35 1996.36,1522.24C1943.48,1489.76 1966.37,1376.57 1967.13,1325.57C1968.92,1206.93 1962.17,1087.93 1964.73,969.449C1965.68,925.286 1949.12,652.68 1965.56,629.999C2002.83,578.576 2448.21,602.432 2524.01,602.759C2606.62,603.115 3214.93,601.634 3314.3,601.149C3317.32,601.134 3286.26,636.64 3286.83,638.35C3305.9,696.294 3299.87,764.755 3300.75,825.293C3302.35,934.889 3305.14,1046.87 3297.22,1156.27C3294.21,1197.67 3287.31,1367.28 3285.32,1410.75C3283.72,1445.58 3242.59,1539.79 3216.08,1536.91C3164.18,1531.28 3191.88,1370.55 3192.77,1335.6C3194.32,1274.96 3185.88,1213.38 3183.89,1152.69C3182.6,1113.4 3191.06,1074.86 3190.67,1035.78C3190.09,977.258 3183.01,916.25 3178.9,857.838C3175.08,803.625 3201.07,716.135 3134.68,691.415C3066.46,666.016 2063.28,670.582 2039.74,690.358C2027.97,700.245 2023.69,1414.75 2045.44,1438.35C2061.13,1455.39 2261.51,1447.98 2312.37,1458.78C2366.34,1470.25 2419.12,1482.83 2474.49,1485.53C2527.44,1488.11 2580.03,1479.32 2632.99,1486.6C2726.88,1499.5 2971.14,1538.62 3001.45,1533.61C3041.54,1526.98 3159.07,1518.3 3197.66,1535.06C3201.95,1536.92 3189.3,1539.31 3184.85,1540.76C3174.18,1544.24 3162.9,1545.92 3151.69,1546.35C3137,1546.9 3122.37,1545.63 3107.86,1543.38C3047.38,1534 2986.71,1527.11 2926.12,1518.86C2831.35,1505.95 2736.24,1499.77 2640.61,1496.65C2595.59,1495.19 2550.29,1500.58 2505.77,1492.39C2477.11,1487.11 2401.54,1492.73 2384.76,1469.14C2377.36,1458.75 2356.31,1254.63 2358.71,1248.88C2360.16,1245.4 2366.22,1247.82 2370,1247.85C2394.06,1247.99 2417.02,1256.71 2440.98,1258.27C2499.66,1262.07 2558.2,1258.21 2617.18,1263.54C2638.71,1265.48 2755.68,1262.56 2751.83,1306.63C2743.59,1401.01 2551.51,1393.26 2487.28,1381.62C2460.91,1376.84 2435.42,1357.74 2409.22,1355.96C2352.85,1352.14 2310.18,1369.08 2253.05,1351.48C2208.01,1337.6 2113.38,1346.38 2120.9,1272.34C2126.98,1212.42 2217.35,1228.96 2252.76,1252.56C2273.78,1266.56 2282.45,1289.29 2289.37,1312.27C2289.62,1313.1 2295.09,1330.75 2295.82,1330.52C2298.08,1329.81 2301.13,1319.14 2301.74,1317.24C2306.89,1301.24 2302.13,1286.13 2305.2,1270.53C2309.06,1250.84 2321.55,1232.54 2327.74,1213.46C2331.26,1202.59 2332.47,1182.8 2340.23,1173.9C2344.94,1168.51 2508.52,1149.68 2529.47,1148.09C2607.04,1142.21 2672.88,1134.36 2747.93,1156.85C2766.53,1162.42 2788.24,1170.86 2808.12,1170.31C2820.8,1169.97 2833.81,1167.26 2846.22,1164.79C2846.72,1164.69 2848.14,1164.18 2847.73,1164.5C2763.28,1229.27 2562.95,1192.18 2474.75,1146.66C2446,1131.83 2413.63,1130.42 2385.49,1117.21C2385.23,1117.09 2375.07,1112.92 2375.08,1111.92C2375.65,1042.63 2598.47,1101.52 2639.95,1104.54C2682.26,1107.61 2724.2,1097.6 2766.42,1096.89C2806.68,1096.22 2847.12,1095.39 2887.34,1097.84C2899.98,1098.61 2912.63,1098.89 2925.27,1099.61C2932.15,1100 2952.05,1097.86 2945.89,1100.93C2920.24,1113.73 2640.58,1099.43 2598.55,1092.78C2570.26,1088.31 2544.09,1075.55 2516.16,1069.6C2496.15,1065.34 2381.71,1062.88 2384.2,1046.17C2392.74,988.942 2741.13,1028.91 2803.56,1027.67C2841.59,1026.92 2878.8,1019.71 2916.8,1019.83C2929.62,1019.86 2942.26,1019.84 2955.03,1021.16C2965.12,1022.2 2979.55,1023.8 2975.94,1023.51C2888.47,1016.71 2801.25,1022.51 2713.7,1024.96C2674.72,1026.05 2636.04,1019.24 2597.02,1019.86C2566.79,1020.35 2536.8,1025.55 2506.51,1023.26C2461.06,1019.81 2409.12,1012.39 2365.79,997.802C2363.6,997.065 2359.02,996.631 2359.13,993.759C2363.54,878.358 2586.14,974.15 2647.15,978.733C2701.66,982.827 2757.46,967.338 2810.87,958.926C2858.06,951.494 2905.55,949.185 2953.16,952.814C2967.91,953.938 2982.62,955.299 2997.38,956.299C3005.38,956.841 3029.2,955.833 3021.39,957.662C2981.66,966.971 2937.33,960.074 2896.96,961.369C2821.45,963.791 2745.84,977.17 2670.01,973.057C2616.46,970.152 2566.12,951.115 2512.97,947.727C2482.5,945.784 2354.83,961.86 2367.86,899.094C2377.08,854.654 2475.29,867.083 2504.68,868.542C2564.48,871.508 2627.4,878.953 2687.07,877.673C2769.09,875.915 2849.93,862.678 2931.88,875.424" style="fill:none;stroke:#fbf9c1;stroke-width:7.93px;"/>
    </g>
</svg>
