<?xml version="1.0" encoding="UTF-8" standalone="no"?>
<!DOCTYPE svg PUBLIC "-//W3C//DTD SVG 1.1//EN" "http://www.w3.org/Graphics/SVG/1.1/DTD/svg11.dtd">
<svg width="100%" height="100%" viewBox="0 0 4000 4000" version="1.1" xmlns="http://www.w3.org/2000/svg" xmlns:xlink="http://www.w3.org/1999/xlink" xml:space="preserve" xmlns:serif="http://www.serif.com/" style="fill-rule:evenodd;clip-rule:evenodd;stroke-linecap:round;stroke-linejoin:round;stroke-miterlimit:1.5;">
    <path class="path" d="M562.865,2402.33C554.124,2342.28 539.149,2282.66 526.946,2223.3C509.676,2139.3 494.935,2054.75 478.603,1970.56C461.072,1880.18 446.391,1789.29 432.043,1698.36C421.829,1633.62 410.247,1568.22 404.251,1502.97C403.692,1496.89 397.537,1436.78 397.782,1436.45C415.021,1413.52 446.569,1419.64 470.587,1423.62C503.319,1429.05 535.953,1434.94 569.059,1437.78C606.907,1441.04 700.674,1429.88 723.662,1466C750.874,1508.76 750.771,1591.49 760.079,1640.68C774.984,1719.46 779.014,1799.12 789.065,1878.47C798.929,1956.33 815.669,2033.15 825.954,2111C836.002,2187.05 851.355,2266.03 853.307,2342.68C853.897,2365.83 862.072,2408.98 832.916,2418.93C779.119,2437.28 721.981,2407.36 667.95,2411.34C658.732,2412.02 608.973,2415.66 603.475,2409.97C579.184,2384.8 574.165,2287.65 569.923,2254.34C561.754,2190.2 548.456,2126.36 542.12,2062.03C534.572,1985.38 532.099,1908.43 525.061,1831.82C517.695,1751.63 508.622,1672.58 492.716,1593.61C486.251,1561.51 452.261,1511.88 502.903,1503.51C522.259,1500.32 636.988,1499.09 652.188,1510.57C690.399,1539.42 701.879,1728.03 707.701,1778.76C720.032,1886.22 747.318,1991.6 757.741,2099.06C759.056,2112.61 785.437,2329.37 783.381,2334.62C780.183,2342.79 762.513,2348.59 754.855,2350.88C628.951,2388.62 618.291,2283.15 612.174,2177.61C609.23,2126.81 597.654,2076.74 590.063,2026.55C579.933,1959.56 572.314,1891.79 566.899,1824.26C560.842,1748.74 547.131,1673.53 542.954,1597.91C542.207,1584.4 532.253,1535.36 552.884,1534.19C602.946,1531.35 621.304,1671.13 628.421,1708.24C638.255,1759.51 641.86,1811.53 650.273,1862.98C665.155,1953.97 682.039,2044.72 696.483,2135.75C704.302,2185.02 695.931,2234.74 709.491,2283.49" style="fill:none;stroke:#fbf9c1;stroke-width:104.88px;"/>
    <g id="Layer2" transform="matrix(1.25727,0,0,1.25727,-638.621,-347.788)">
        <path class="path" d="M903.271,2193.28C879.011,2097.4 859.986,1997.13 845.608,1899.25C834.956,1826.73 827.049,1753.72 812.924,1681.7C801.549,1623.7 791.802,1565.34 781.813,1507.08C776.426,1475.66 765.909,1437.41 773.177,1405.33C782.903,1362.41 834.282,1366.51 870.481,1370.31C873.851,1370.66 1024.12,1382.77 1021.05,1382.73C889.27,1380.69 915.866,1422.34 928.644,1423.48C936.947,1424.23 967.744,1424.77 973.197,1423.45C976.403,1422.68 989.214,1399.83 991.18,1396.85C992.974,1394.12 940.189,1412.42 941.898,1408.83C943.76,1404.92 989.627,1399.75 992.512,1395.98C997.916,1388.92 1006.14,1383.17 1021.05,1382.73C1042.05,1382.1 1078.47,1383.38 1096.51,1396.35C1111.14,1406.86 1118.78,1428.94 1124.19,1445.58C1142.07,1500.56 1245.86,2149.08 1234.13,2197.25C1228.59,2220.05 1210.86,2238.36 1186.97,2241.29C1145.91,2246.31 935.294,2263.45 902.905,2194.72" style="fill:none;stroke:#000000;stroke-width:26.19px;"/>
        <path class="path" d="M2089.09,1797.55C2089.45,1805.21 2362.95,1898.97 2363.21,1512.42C2363.22,1502.02 2396.14,1503.83 2307.46,1456.73C2298.65,1452.05 2315.47,1510.4 2316.68,1514.16C2323.61,1535.58 2331.47,1554.35 2330.55,1585.76C2328.97,1639.34 2294.51,1691.52 2260.57,1730.6C2226.24,1770.14 2174.05,1785.8 2124.32,1794.69C2118.36,1795.76 2077.73,1799.95 2076.15,1795.69C2073.37,1788.21 2115.3,1764.11 2120.28,1761.24C2140.35,1749.67 2158.48,1734.84 2179.03,1724.16C2210.94,1707.58 2242.21,1696.79 2271.22,1674.61C2287.13,1662.45 2299.12,1648.68 2312.5,1633.89C2312.7,1633.67 2315.82,1630.64 2315.61,1630.21C2312.74,1624.27 2273.29,1634.35 2267.12,1636.62C2220.79,1653.68 2176.49,1691.67 2125.27,1691.37C2086.69,1691.13 2051.62,1673.25 2016.37,1659.95C1991.06,1650.41 1964.78,1643.5 1940.32,1631.78C1919.32,1621.72 1901.4,1607.89 1881.47,1596.2C1861.68,1584.59 1842.77,1574.14 1826.2,1557.9C1805.78,1537.89 1793.44,1511.97 1776.76,1489.12C1751.49,1454.54 1735.55,1423.38 1724,1381.92C1721.96,1374.59 1717.05,1364.42 1717.46,1356.69C1717.62,1353.82 1720.48,1361.61 1721.88,1364.13C1724.24,1368.38 1726.52,1372.68 1728.83,1376.96C1735.75,1389.75 1742.55,1402.59 1749.44,1415.4C1769.75,1453.18 1800.42,1489.81 1836.84,1512.8C1889.36,1545.97 1938.23,1584.04 1996.99,1606.07C2044.39,1623.85 2096.55,1629.15 2146.11,1637.68C2194.92,1646.07 2263.12,1655.63 2306.21,1623.54C2327.16,1607.93 2306.33,1600.53 2288.01,1600.31C2256.17,1599.93 2224.81,1606.29 2192.76,1605.13C2182.23,1604.75 2172.09,1603.47 2161.74,1601.52C2158.12,1600.84 2154.53,1600.07 2150.93,1599.3C2149.63,1599.02 2146.08,1599.39 2147.03,1598.45C2150.45,1595.07 2178.64,1597.29 2185.18,1598.01C2214.32,1601.21 2240.68,1600.65 2269.81,1596.75C2275.76,1595.96 2281.67,1595.32 2287.68,1595.22C2290.8,1595.16 2297.69,1598.43 2297.04,1595.38C2294.28,1582.53 2269.46,1571.43 2259.85,1563.98C2250.67,1556.86 2241.28,1549.8 2231.45,1543.61C2216.77,1534.38 2201.39,1526.59 2186.57,1517.66C2111.05,1472.16 2026.67,1445.24 1939.68,1431.61C1913.45,1427.5 1889.34,1421.84 1865.29,1409.98C1856.93,1405.86 1848.82,1401.28 1840.56,1396.97C1837.71,1395.49 1834.86,1394.01 1831.97,1392.61C1830.97,1392.12 1828.8,1390.1 1828.95,1391.2C1830.28,1401.27 1846.09,1413.4 1853.77,1419.1C1880.47,1438.93 1910.93,1451.4 1940.06,1466.9C1967.88,1481.71 1998.34,1492.25 2025.18,1508.75C2077.95,1541.19 2132.68,1582.84 2195.62,1592.66C2227.95,1597.71 2261.62,1600.71 2294.33,1600.56C2298.95,1600.54 2322.75,1602.82 2325.63,1598.89C2341.65,1577.04 2278.93,1524.2 2265.89,1511.86C2249.27,1496.12 2232.64,1479.77 2214.95,1465.19" style="fill:none;stroke:#fbf9c1;stroke-width:9.54px;"/>
        <path class="path" d="M2304.01,1432.91C2316.26,1478.63 2382.12,1525.38 2420.8,1548.5C2448.72,1565.18 2474.74,1586.95 2503.57,1601.77C2525.6,1613.09 2552.07,1615.59 2571.67,1631.65C2618.28,1669.84 2643.73,1764.34 2634.28,1822.86C2629.3,1853.65 2616.76,1885.12 2601.02,1912C2579,1949.61 2554,1976.79 2514.4,1996.24C2492.81,2006.85 2468.14,2011.65 2445.07,2018.22C2440.04,2019.65 2423.18,2023.79 2423.13,2023.04C2421.29,1995.08 2472.54,1959 2490.89,1938.5C2526.26,1899 2551.53,1837.74 2554.11,1784.83C2556.45,1736.97 2545.03,1692.1 2522.97,1649.78C2515.95,1636.31 2506.38,1624.48 2496.66,1612.89C2493.33,1608.9 2489.56,1605.35 2486.02,1601.56C2484.47,1599.9 2479.9,1594.86 2481.52,1596.45C2501.93,1616.54 2521.11,1637.63 2541,1658.18C2583.12,1701.71 2605.15,1726.07 2608.91,1789.77C2610.25,1812.5 2608.83,1835.62 2600.03,1856.83C2581.8,1900.74 2541.94,1942.04 2500.16,1963.72C2486.61,1970.75 2473.13,1975.66 2460.7,1984.76C2456.35,1987.95 2452.14,1991.27 2447.47,1994C2445.33,1995.25 2440.12,1999.28 2440.61,1996.85C2444.77,1976.06 2488.17,1943.9 2505.72,1929.69C2542.47,1899.92 2574.8,1855.66 2574.63,1806.51C2574.46,1757.79 2542.62,1683.93 2515.73,1643.43C2507.62,1631.21 2497.51,1618.57 2486.03,1609.31C2485.8,1609.12 2475.98,1600.35 2474.31,1601.79C2468.13,1607.16 2476.46,1626.5 2478.89,1632.24C2490.8,1660.44 2509.93,1685.15 2519.38,1714.48C2536.19,1766.65 2507.28,1875.8 2465.99,1915C2433.14,1946.18 2370.95,1965.62 2327.27,1974.22C2318.53,1975.95 2278.24,1972.44 2275.54,1961.81C2275.2,1960.46 2285.4,1955.74 2286.45,1955.27C2299.37,1949.57 2313.12,1946.91 2326.73,1943.43C2354.83,1936.24 2377.75,1917.45 2398.01,1897.47C2416.53,1879.2 2435.1,1860.29 2451.75,1840.31C2457.19,1833.77 2462.07,1826.74 2465.33,1818.84C2466.38,1816.3 2467.31,1813.71 2468.22,1811.11C2468.76,1809.56 2469.65,1804.81 2469.78,1806.45C2471.08,1822.53 2464.02,1843.71 2459.44,1859.1C2441.52,1919.27 2417.08,1957.89 2351.61,1967.99C2321.45,1972.64 2291.09,1968.57 2261.19,1962.34C2251.49,1960.32 2242.87,1956.59 2234.67,1951.06C2231.88,1949.18 2229.08,1947.32 2226.23,1945.53C2224.76,1944.61 2220.64,1941.52 2221.77,1942.84C2251.53,1977.76 2329.44,2007.11 2375.27,1999.42C2393.59,1996.34 2410.47,1985.36 2427.55,1978.39C2451.54,1968.6 2467.76,1953.82 2487.48,1937.88C2493.78,1932.79 2499.86,1927.44 2506.16,1922.36C2509.19,1919.91 2512.53,1917.78 2515.3,1915.01C2515.48,1914.83 2516.06,1914.37 2515.82,1914.46C2497.87,1920.6 2482.22,1936.37 2468.66,1949.06C2433.69,1981.79 2400.61,2023.15 2355.56,2042C2330.48,2052.49 2305.19,2051.6 2278.64,2051.93C2270.07,2052.04 2261.5,2052.69 2252.93,2052.95C2249.67,2053.05 2246.41,2053.26 2243.15,2053.27C2241.98,2053.28 2238.51,2052.98 2239.66,2053.17C2278.05,2059.36 2315.8,2040.21 2350.56,2026.77C2361.65,2022.47 2371.19,2016.15 2380.26,2008.52C2383.31,2005.95 2386.29,2003.31 2389.43,2000.86C2391.16,1999.5 2396.63,1995.81 2394.78,1997C2382.3,2005.08 2350.72,2023.63 2341.07,2033.49C2340.44,2034.13 2342.72,2032.76 2343.54,2032.36C2347.61,2030.38 2351.47,2027.99 2355.44,2025.8C2358.54,2024.08 2383.84,2009.55 2384.56,2006.65C2384.63,2006.36 2376.43,2010.23 2373.23,2011.77C2364.09,2016.16 2355.26,2021.1 2346.48,2026.15C2342.8,2028.27 2339.18,2030.48 2335.45,2032.5C2335.07,2032.71 2333.86,2033.02 2334.29,2033.13C2353.96,2038.38 2374.48,2022.46 2389.9,2012.65C2395.06,2009.36 2399.86,2005.5 2404.78,2001.86C2407.55,1999.82 2412.98,1995.93 2412.86,1995.99C2394.04,2005.7 2378.02,2021.78 2361.41,2034.73C2355.28,2039.52 2349.24,2043.57 2341.91,2046.25C2339.21,2047.24 2336.42,2048.19 2333.62,2048.88C2332.7,2049.11 2330.51,2050.19 2330.79,2049.28C2333.48,2040.41 2347.52,2029.53 2354.18,2023.72C2356.96,2021.3 2359.72,2018.87 2362.66,2016.65C2363.83,2015.77 2367.61,2013.54 2366.26,2014.11C2357.67,2017.72 2349.66,2023.03 2341.54,2027.56C2336.8,2030.21 2332.02,2032.8 2327.33,2035.54C2327.14,2035.65 2326.55,2035.95 2326.76,2035.88C2330.62,2034.75 2334.41,2032.6 2338.13,2031.04C2342.36,2029.27 2346.63,2027.6 2350.86,2025.82C2352.82,2025 2357.86,2025.2 2356.75,2023.39C2353.92,2018.73 2339.47,2019.47 2334.93,2019.42C2313.77,2019.18 2292.45,2024.37 2271.9,2017.8C2222.5,2002.02 2196.32,1964.79 2159.76,1930.56C2149.12,1920.6 2140.14,1909.52 2130.74,1898.42C2127.48,1894.58 2124.17,1890.8 2120.74,1887.1C2119.05,1885.26 2115.45,1879.85 2114.98,1882.3C2112.73,1893.88 2135.24,1924.72 2142.23,1933.51C2176.21,1976.21 2218.76,2015.97 2277.05,2014.96C2300.2,2014.56 2322.22,2010.61 2344.54,2004.81C2351.77,2002.92 2359.15,2001.39 2366.55,2000.34C2367.66,2000.18 2368.77,2000.01 2369.88,1999.83C2374.36,1999.08 2379.43,1998.03 2377.57,1998.21C2364.69,1999.45 2351.89,2001.45 2338.96,1999.24C2301.24,1992.79 2225.64,1958.59 2193.53,1935.6C2170.27,1918.95 2150.58,1898.95 2126.53,1883.14C2102.14,1867.1 2078.24,1848.28 2059.22,1826.04C2052.78,1818.5 2047.45,1810.3 2042.62,1801.66C2041.14,1799 2039.76,1796.28 2038.34,1793.58C2037.5,1791.96 2034.34,1787.63 2035.81,1788.72C2049.75,1799.04 2061.74,1811.8 2076.09,1821.67C2114.08,1847.81 2166.97,1863.79 2212.8,1855C2234.44,1850.85 2338.42,1819.66 2374.36,1770.71C2417.45,1712.02 2417.04,1678.26 2410.75,1606.77C2409.13,1588.4 2406.24,1569.75 2398.81,1552.78C2396.27,1546.98 2394.03,1541.04 2391.27,1535.35C2390.02,1532.77 2388.73,1530.25 2387.9,1527.5C2387.88,1527.45 2387.82,1527.32 2387.86,1527.35C2409.92,1546.63 2421.22,1577.13 2430.52,1603.99C2462.76,1697.08 2440.55,1789.1 2373.94,1860.98C2345.46,1891.7 2303.68,1922.94 2261.39,1930.33C2245.42,1933.12 2229.26,1932.81 2213.13,1932.17C2208.03,1931.96 2202.93,1931.66 2197.86,1931.09C2195.31,1930.8 2188.68,1928.14 2190.22,1930.18C2199.09,1941.94 2248.51,1929.14 2258.64,1926.84C2332.6,1910.08 2400.69,1821.22 2431.04,1757.53C2453.36,1710.69 2445.23,1669.65 2426.31,1622.7C2419.04,1604.65 2412.3,1587.23 2408.09,1568.18C2407.9,1567.3 2403.64,1552.03 2406.32,1552.03C2453.89,1551.97 2470.18,1631.7 2476.1,1667.11C2479.56,1687.76 2480.5,1708.2 2480.92,1729.1C2482.62,1813.43 2478.83,1900.3 2402.96,1952.6C2381.2,1967.59 2361.14,1976.26 2334.23,1973.7C2281.57,1968.69 2238.47,1937.74 2189.19,1922.29C2171.13,1916.62 2152.05,1910.9 2137.64,1898.02C2133.51,1894.33 2129.95,1890.17 2126.64,1885.75C2125.33,1884.01 2120.65,1880.86 2122.79,1880.47C2137.63,1877.72 2154.84,1886.63 2169.47,1888.46C2197.14,1891.91 2226.33,1889.97 2253.56,1883.98C2349.76,1862.8 2418.21,1732.56 2412.69,1640.64C2410.87,1610.33 2405.85,1580.89 2401.1,1550.99C2399.96,1543.79 2401.43,1525.33 2396.67,1519.24C2376.91,1493.94 2356.89,1471.24 2344.88,1440.69C2337.54,1422.01 2335.41,1402.77 2330.97,1383.39C2324.68,1355.97 2317.68,1328.73 2312.3,1301.1C2309.35,1285.91 2306.7,1270.51 2300.29,1256.31C2288.05,1229.21 2279.66,1226.58 2272.18,1190.73C2269.42,1177.56 2267.89,1164.07 2267.51,1150.63C2267.39,1146.24 2267.33,1141.84 2266.71,1137.49C2266.38,1135.18 2264.02,1128.64 2265.23,1130.64C2278.13,1151.84 2282.8,1178.57 2290.56,1201.85C2308.99,1257.15 2323.63,1312.03 2332.7,1369.85C2337.05,1397.64 2341.18,1425.07 2347.7,1452.47C2349.84,1461.46 2351.69,1470.5 2352.84,1479.68C2353.36,1483.76 2353.57,1488 2354.6,1492.01C2354.64,1492.17 2354.72,1492.68 2354.74,1492.51C2357.42,1464.63 2350.95,1435.14 2349.08,1407.26C2344.62,1340.47 2341.26,1273.92 2337.72,1207.08C2336,1174.74 2349.12,1104.97 2347.39,1137.58C2344.63,1190.03 2327.32,1275.19 2332.7,1327.49C2336.23,1361.8 2340.63,1396.86 2345.83,1430.95C2347.5,1441.91 2349.67,1452.71 2352.66,1463.4C2353.79,1467.44 2355.03,1471.44 2356.25,1475.46C2356.78,1477.18 2359.39,1480.78 2357.59,1480.7C2326.2,1479.17 2279.15,1418.01 2263.2,1392.29" style="fill:none;stroke:#fbf9c1;stroke-width:9.54px;"/>
        <path class="path" d="M2332.53,1412.82C2286.01,1363.77 2243.89,1306.16 2214.71,1245.18C2194.87,1203.72 2180.43,1159.86 2160.11,1118.68C2127.87,1053.3 2088.69,991.831 2059.05,925.015C2031.52,862.947 2014.48,797.767 1998.7,731.938C1984.43,672.424 1976.88,612.864 1957.07,554.672C1953.23,543.389 1939.23,508.762 1955.22,500.255C2001.94,475.409 2049.8,560.125 2068.71,589.311C2083.57,612.242 2092.76,637.386 2104.57,661.893C2158,772.829 2195.36,893.415 2229.86,1011.49C2242.47,1054.64 2253.88,1097.64 2268.14,1140.33C2272.98,1154.83 2277.39,1169.47 2282.24,1183.97C2283.76,1188.53 2285.32,1193.09 2286.79,1197.66C2287.57,1200.09 2288,1207.33 2289.01,1204.99C2297.66,1184.74 2285.37,1094.67 2281.74,1068.81C2271.72,997.433 2234.95,935.492 2211.47,868.55C2186.1,796.216 2175.37,720.344 2141.34,650.927C2119.73,606.827 2090.73,557.121 2055.05,522.855C2043.1,511.375 2029.76,501.936 2014.57,495.265C2009.58,493.072 1989.01,486.962 1994.06,486.596C2019.04,484.782 2044.59,490.835 2068.64,496.851C2236.06,538.735 2304.47,719.696 2321.44,875.155C2327.62,931.796 2337.95,988.276 2341.03,1045.21C2342.09,1064.74 2342.86,1084.33 2344.62,1103.82C2345.17,1109.8 2345.89,1115.77 2346.18,1121.77C2346.34,1124.91 2346.64,1134.33 2346.44,1131.19C2341.9,1058.97 2352.65,987.322 2352.72,915.147C2352.83,803.065 2324.33,660.749 2263.7,564.242C2224.97,502.575 2154.91,460.786 2082.34,454.133C2059.91,452.077 2037.53,449.215 2015.1,447.369C2006.28,446.643 1997.24,446.479 1988.44,447.529C1985.55,447.874 1978.52,446.191 1979.8,448.805C1990.51,470.713 2064.03,490.883 2086.71,499.508C2098.16,503.861 2109.71,508.241 2120.71,513.645C2124.57,515.54 2128.39,517.498 2132.21,519.469C2134.22,520.507 2139.76,524.228 2138.26,522.54C2118.47,500.322 2037.75,457.86 2000.2,467.495C1991.91,469.623 1991.23,483.878 1985.03,485.863C1978.2,488.049 1961.17,468.785 1932.77,486.261C1868.25,525.963 1894.71,633.261 1904.53,692.942C1931.6,857.551 2029.57,1006.16 2112.02,1146.46C2129.93,1176.92 2143.87,1209.71 2160.99,1240.63C2192.07,1296.74 2225.76,1354.88 2267.33,1403.96C2283.47,1423.01 2298.6,1441.53 2303.41,1466.93C2304.64,1473.47 2305.45,1480.05 2307.09,1486.52C2307.8,1489.3 2311.49,1495.71 2308.72,1494.98C2280.29,1487.4 2204.16,1362.59 2181.71,1332.42C2126.99,1258.89 2082.08,1179.4 2038.02,1099.26C1970.31,976.103 1907.27,851.586 1864.8,717.166C1854.58,684.824 1845.23,650.368 1846.13,616.125C1847.07,580.804 1881.47,458.598 1925.6,442.969C1985.09,421.901 1971.46,481.836 1933.23,500.74C1908.79,512.822 1918.64,452.638 1877.27,463.151C1766.71,491.242 1744.61,660.289 1754.18,752.819C1765.39,861.196 1842.48,1019.82 1907.51,1104.2C1935.48,1140.49 1970.64,1170.71 1999.27,1206.5C2050.98,1271.13 2105.43,1332.51 2158.43,1395.88C2177.57,1418.76 2193.36,1444.14 2212.36,1467.01C2214.12,1469.14 2208.09,1463.5 2205.94,1461.76C2200.05,1457 2194.09,1452.3 2188.14,1447.61C2172.07,1434.94 2156.7,1421.24 2141.89,1407.13C2099.21,1366.47 2055.63,1324.01 2010.38,1286.26C1981.48,1262.15 1946.47,1252.61 1914.68,1233.71C1877.99,1211.9 1845.99,1183.32 1809.38,1161.5C1786.36,1147.78 1760.29,1138.19 1740.87,1119.2C1690.59,1070.05 1663.92,992.215 1636.34,928.916C1586.34,814.161 1598.65,727.414 1654.65,620.681C1670.09,591.252 1686.17,560.226 1709.69,536.258C1748.51,496.689 1804.14,465.598 1856.77,447.328C1870.59,442.531 1884.75,439.535 1899.2,437.385C1899.44,437.349 1892.03,457.055 1889.34,456.742C1883.37,456.049 1877.32,450.47 1870.82,449.497C1845.45,445.691 1820.09,458.529 1799.6,472.059C1702.46,536.2 1580.37,655.934 1561.52,773.679C1553.98,820.763 1562.66,867.779 1570.61,914.097C1580.95,974.334 1590.99,1031 1642.63,1070.69C1686.03,1104.06 1739.23,1121.36 1783.87,1153.22C1833.65,1188.74 1873.58,1235.05 1921.53,1272.69C1977.4,1316.55 2043.86,1351.74 2104.62,1388.53C2161.06,1422.7 2202.65,1473.34 2252.59,1515.47C2268.83,1529.17 2284.16,1543.52 2299.61,1558.1C2306.4,1564.51 2313.29,1570.82 2319.94,1577.39C2320.9,1578.34 2324.11,1580.06 2322.77,1580.3C2287.29,1586.71 2246.07,1557.81 2218.64,1539.38C2144.3,1489.45 2083.31,1420.74 2013.32,1364.98C1946.17,1311.49 1870.95,1263.97 1798.71,1217.75C1749.87,1186.5 1696.38,1163.94 1657.66,1118.94C1611.33,1065.12 1591.29,1000.79 1573.73,933.424C1562.2,889.212 1554.39,848.634 1561.1,802.96C1572.79,723.4 1619.07,657.654 1647.43,584.702C1648.04,583.148 1644.99,586.968 1643.78,588.115C1639.32,592.348 1634.91,596.647 1630.71,601.143C1621.13,611.391 1613.63,623.441 1606.25,635.311C1582.99,672.735 1555.23,706.101 1531.53,743.211C1503.64,786.895 1483.11,836.416 1471.84,887.142C1454.54,965.066 1453.45,1114.63 1517.3,1171.64C1532.28,1185.01 1550.02,1194.58 1567.68,1203.87C1573.76,1207.07 1579.82,1210.31 1586.01,1213.31C1588.34,1214.44 1593.31,1219.32 1592.98,1216.75C1590,1192.92 1576.45,1167.17 1568.98,1144.45C1548.43,1082.03 1530.42,1020.22 1530.78,954.042C1530.98,918.072 1528.45,882.222 1536.35,846.728C1538.83,835.622 1543.04,824.854 1546.79,814.135C1548.3,809.818 1550.03,805.647 1551.98,801.509C1552.59,800.19 1554.11,796.127 1553.86,797.562C1536.05,898.37 1523.84,1006.43 1561.75,1104.14C1620.32,1255.14 1789.08,1336.8 1926.67,1399.89C1967.8,1418.75 2002.82,1448.08 2046.96,1460.03C2117.78,1479.18 2192.14,1490.95 2247.04,1543.75C2265.41,1561.42 2285.8,1577.01 2303.39,1595.47C2303.44,1595.52 2295.29,1599.77 2294.61,1600.02C2221.32,1627.66 2129.55,1586.25 2059.83,1562.74C1994.61,1540.74 1923.67,1515.58 1868.15,1474.09C1840.75,1453.6 1813,1431.43 1788.83,1407.14C1762.69,1380.88 1738.34,1351.63 1707.77,1330.19C1677.52,1308.97 1638.83,1307.11 1607.06,1289.34C1540.94,1252.37 1457.59,1143.17 1443.89,1070.19C1421.7,951.972 1486.59,834.864 1544.43,736.777C1560.13,710.155 1573.57,682.975 1594.35,659.856C1626.05,624.589 1656.15,588.257 1687.46,552.65C1698.24,540.397 1711.22,530.26 1724.79,521.267C1729.42,518.201 1734.08,515.177 1738.69,512.084C1740.35,510.969 1745.35,507.708 1743.52,508.519C1699.78,527.893 1673.75,578.538 1638.55,609.648C1557.91,680.916 1523.96,724.476 1469,817.133C1383.85,960.69 1365.92,1062.62 1465.72,1205.21C1489.52,1239.22 1527.32,1277.75 1567.22,1292.01C1607.19,1306.3 1652.01,1299.44 1682.02,1335.17C1697.76,1353.93 1704.51,1377.41 1713.78,1399.65C1740.98,1464.86 1763.45,1537.71 1823.62,1580.62C1863.7,1609.2 1939.5,1665.32 1983.16,1681.21C2006.79,1689.81 2032.66,1691.68 2057.34,1695.46C2089.54,1700.4 2122.3,1700.2 2154.73,1702.93C2162.39,1703.58 2203.11,1706.69 2202.44,1708.12C2154.48,1810.72 1972.29,1715.86 1909.3,1677.41C1884.71,1662.4 1861.02,1642.63 1842.08,1620.87C1835.45,1613.25 1828.76,1605.66 1823.65,1596.91C1822.32,1594.64 1821.03,1592.35 1819.76,1590.04C1818.88,1588.47 1816.46,1583.63 1817.29,1585.23C1851.9,1651.76 1887.19,1737.68 1966.91,1755.81C1999.25,1763.16 2038.54,1763.27 2071.72,1761.51C2097.01,1760.17 2125.86,1759.43 2125.07,1761.33C2111.63,1793.91 2060.49,1798.33 2032.35,1788.43C2025.87,1786.15 2013.59,1775.99 2006.81,1776.03C2002.4,1776.05 1996.86,1784.58 1995.06,1787.97C1978.86,1818.46 2024.56,1878.39 2045.71,1897.83C2050.02,1901.79 2071.26,1924 2077.21,1922.39C2080.57,1921.49 2072.51,1917.26 2070.18,1914.68C2063.62,1907.42 2056.99,1900.21 2050.55,1892.85C2032.23,1871.93 2012.4,1851.04 1998.11,1827.04C1991.52,1815.98 1985.27,1804.96 1980.69,1792.94C1980.56,1792.62 1980,1791.86 1980.32,1791.98C1985.55,1793.98 1994.91,1806.03 2001.55,1802.01C2007.03,1798.68 2007.62,1794.59 2004.98,1788.88C2004.07,1786.92 2002.91,1782.02 2001.33,1783.51C1993.66,1790.76 2020.11,1802.04 2020.23,1800.87C2020.48,1798.64 2013.63,1791.13 2011.51,1791.06C2008.6,1790.97 1991.5,1808.73 1976.54,1808.56C1948.71,1808.24 1923.01,1789.98 1904.12,1770.97C1877.05,1743.75 1856.61,1707.14 1843.16,1671.34C1838.5,1658.94 1835.05,1646.42 1831.58,1633.65C1830.13,1628.32 1828.98,1622.94 1827.91,1617.51C1827.59,1615.87 1825.5,1611.87 1827.02,1612.58C1830.38,1614.15 1882.73,1690.51 1894.6,1703.02C1936.4,1747.04 1995.64,1772.08 2042.28,1810.69" style="fill:none;stroke:#fbf9c1;stroke-width:9.54px;"/>
        <path class="path" d="M1373.57,2096.56C1476.29,2085.96 1547.79,2009.33 1534.47,1902.61C1531,1874.83 1517.64,1849.57 1508.06,1823.63C1495.72,1790.21 1486.08,1756.04 1480.69,1720.79C1475.28,1685.35 1471.68,1644.84 1475.62,1609.12C1480.54,1564.54 1492.29,1514.19 1480.88,1469.79C1472.91,1438.74 1434.16,1405.7 1418.06,1375.2C1381.51,1306 1389.27,1243.19 1396.58,1168.85C1398.79,1146.31 1402.06,1123.52 1402.2,1100.85C1402.24,1092.98 1402.01,1085.1 1401.44,1077.26C1401.2,1073.95 1401.05,1070.63 1400.69,1067.33C1400.67,1067.15 1400.54,1066.63 1400.63,1066.79C1418.55,1100.88 1410.84,1149.41 1408.55,1186.33C1406.82,1214.28 1410.79,1244.7 1416.84,1271.97C1424.71,1307.42 1444.45,1338.15 1459.23,1370.89C1467.78,1389.85 1472.47,1410.5 1478.25,1430.41C1489.02,1467.56 1486.58,1507.65 1495.87,1545.39C1503.9,1577.99 1522.86,1607.7 1534.36,1639.19C1551.03,1684.84 1562.2,1732.56 1582.55,1776.79C1591.01,1795.15 1600.41,1813.08 1611.07,1830.26C1644.42,1883.97 1662.6,1940.54 1728.86,1959.86C1746.35,1964.96 1761.24,1966.33 1778.27,1959.4C1802.81,1949.41 1793.29,1880.68 1783.44,1861.96C1779,1853.52 1773.67,1845.43 1767.86,1837.87C1765.66,1835.02 1763.44,1832.16 1761.15,1829.38C1760.42,1828.49 1758.51,1825.71 1758.92,1826.78C1769.72,1855.27 1777.17,1883.76 1784.95,1913.21C1786.56,1919.29 1795.55,1936.09 1792.89,1942.73C1789.01,1952.42 1739.37,1954.33 1729.03,1952.62C1674.41,1943.6 1625.21,1881.62 1612.76,1830.41C1605.97,1802.49 1614.01,1778.96 1618.74,1751.59C1623.5,1724.07 1625.39,1696.63 1622.15,1668.85C1616.44,1619.77 1610.75,1569.18 1592.66,1522.81C1569.01,1462.16 1528.53,1407.79 1497.04,1351.23C1481.39,1323.12 1468.63,1289.08 1464.81,1257.09C1463.44,1245.66 1462.48,1234.2 1461.17,1222.77C1460.7,1218.59 1460.24,1214.41 1459.49,1210.27C1459.23,1208.88 1459.52,1205.12 1458.54,1206.13C1446.66,1218.39 1449.17,1245.71 1450.09,1261.33C1451.36,1282.87 1450.31,1304.84 1454.02,1326.15C1457.17,1344.29 1464.05,1361.56 1467.42,1379.68C1481.61,1455.93 1488.95,1519.84 1516.75,1593.35C1535.65,1643.32 1555.02,1692.82 1572.93,1743.12C1578.95,1760.03 1591.58,1778.82 1592.94,1797.01C1594.68,1820.25 1586.2,1844.12 1578.77,1865.72C1561.85,1914.9 1556.45,1963.15 1564.44,2015.06C1567.04,2031.93 1568.7,2049.5 1575.68,2065.28C1578.02,2070.55 1580.87,2075.67 1584.25,2080.36C1586.18,2083.03 1589.94,2087.25 1589.49,2086.94C1564.8,2069.58 1554.78,2030.7 1550.68,2002.85C1546.23,1972.63 1554.46,1943.72 1552.42,1914.01C1551.18,1895.92 1541.23,1878.26 1538.12,1860.27C1531.55,1822.31 1531.77,1783.71 1524.52,1745.69C1517.07,1706.66 1514.33,1666.94 1514.18,1627.24C1514.13,1614.27 1513.38,1601.38 1511.78,1588.5C1511.28,1584.47 1510.75,1580.44 1510.11,1576.43C1509.73,1574.04 1507.69,1567.1 1508.74,1569.29C1523.18,1599.32 1530.04,1633.12 1537.4,1665.4C1543.39,1691.65 1553.43,1717.05 1563.26,1742.06C1566.59,1750.55 1570.32,1759.03 1574.42,1767.18C1575.89,1770.1 1577.45,1772.98 1578.98,1775.87C1579.76,1777.33 1580.3,1781.35 1581.45,1780.17C1598.62,1762.5 1600.17,1731.76 1600.68,1708.49C1601.86,1654.76 1601.9,1603.51 1589.88,1550.67C1584.52,1527.08 1574.84,1504.62 1568.5,1481.26C1567.09,1476.07 1565.6,1470.9 1564.27,1465.68C1563.69,1463.43 1560.27,1459.27 1562.56,1458.94C1571.54,1457.67 1592.62,1504.14 1595.1,1512.53C1610.59,1565.07 1615.39,1644.77 1611.48,1699.79C1610.13,1718.8 1606.65,1737.49 1604.27,1756.36C1603.52,1762.36 1602.56,1768.34 1601.89,1774.34C1601.55,1777.32 1601.27,1780.31 1600.82,1783.27C1600.74,1783.79 1600.39,1785.31 1600.56,1784.82C1607.81,1763.3 1612.55,1741.41 1615.1,1718.88C1615.9,1711.79 1616.84,1704.68 1617.23,1697.55C1617.93,1684.72 1617.92,1682.31 1617.26,1684.36C1610.44,1705.41 1606.82,1727.3 1599.7,1748.28C1597.16,1755.73 1595.04,1763.33 1593.42,1771.03C1592.95,1773.25 1592.43,1775.48 1592.08,1777.73C1591.83,1779.31 1590.73,1783.85 1591.62,1782.52C1594.48,1778.26 1596.59,1773.31 1598.57,1768.59C1599.56,1766.23 1600.6,1758.97 1601.35,1761.42C1603.91,1769.76 1602.61,1781.17 1602.77,1789.89C1602.86,1794.21 1602.87,1798.53 1602.7,1802.85C1602.69,1803.02 1602.68,1803.55 1602.68,1803.37C1602.74,1787.56 1608.17,1772.48 1610.27,1756.9C1616.49,1710.71 1624.19,1659.93 1622.62,1613.09C1621.06,1566.75 1602,1519.8 1591.89,1474.74C1581.29,1427.44 1565.14,1382.83 1545.75,1338.52C1543.29,1332.9 1533.18,1299.86 1541.4,1296.96C1552.72,1292.96 1563.94,1306.24 1569.51,1314.12C1584.82,1335.77 1596.64,1363.73 1599.7,1390.1C1600.8,1399.62 1602.13,1409.04 1603.64,1418.5C1604.18,1421.92 1604.83,1425.33 1605.42,1428.75C1605.66,1430.15 1606.74,1434.25 1606.1,1432.97C1597.31,1415.4 1593.03,1395.98 1585.64,1377.85C1576.63,1355.72 1563.69,1335.18 1550.95,1315.06C1543.19,1302.8 1534.15,1291.88 1524.1,1281.46C1520.83,1278.08 1517.34,1274.91 1514.14,1271.47C1512.34,1269.52 1509.42,1262.98 1508.81,1265.56C1506.88,1273.71 1514.1,1289.71 1516.39,1297.39C1524.3,1323.99 1534.6,1349.62 1541.87,1376.43C1544.58,1386.41 1547.09,1396.45 1550.01,1406.37C1551.08,1410.01 1552.23,1413.63 1553.43,1417.22C1553.99,1418.87 1556.75,1422.32 1555.01,1422.19C1545.13,1421.45 1533.34,1400.81 1529.24,1393.6C1510.62,1360.86 1498.64,1324.18 1483.73,1289.68C1478.57,1277.76 1476.79,1265.15 1474.12,1252.53C1473.28,1248.58 1472.49,1244.62 1471.63,1240.68C1471.1,1238.26 1470.21,1230.98 1469.96,1233.44C1464.83,1283.55 1466.24,1337.64 1472.75,1387.58C1474.19,1398.62 1470.43,1375.56 1469.72,1371.19C1467.91,1360.02 1467.2,1348.79 1466.84,1337.5C1465.76,1303.85 1467.4,1270.1 1464.6,1236.51C1464.5,1235.27 1463.87,1238.91 1463.56,1240.12C1462.52,1244.2 1461.86,1248.4 1461.36,1252.59C1460.25,1261.95 1459.74,1271.41 1459.27,1280.82C1457.64,1313.93 1463.12,1348.7 1468.45,1381.32C1470.3,1392.62 1472.08,1403.96 1474.19,1415.21C1475.22,1420.68 1476.34,1426.14 1477.53,1431.57C1477.61,1431.94 1477.66,1433.03 1477.77,1432.67C1490.27,1393.3 1488.36,1344.56 1487.69,1303.61C1487.46,1288.95 1486.8,1274.42 1485.91,1259.8C1485.57,1254.35 1484.99,1248.96 1483.89,1243.62C1483.36,1241.04 1484.3,1234.47 1482.11,1235.93C1481.43,1236.38 1481.71,1256.12 1481.31,1261.06C1479.42,1284.01 1477.51,1306.59 1478.25,1329.61C1478.54,1338.63 1478.36,1347.68 1479.04,1356.68C1479.4,1361.41 1479.66,1365.9 1479.65,1370.63C1479.65,1370.81 1479.66,1371.33 1479.65,1371.16C1479.31,1363.56 1479.56,1355.97 1479.74,1348.38C1479.82,1345.2 1480.08,1339.21 1480.08,1339.73C1479.95,1353.52 1478.1,1367.17 1477.82,1380.94C1477.72,1385.43 1477.9,1389.91 1478,1394.39C1478.05,1396.33 1478.85,1402 1478.08,1400.22C1467.77,1376.46 1480.51,1293.79 1489.61,1265.87C1490.09,1264.4 1492.21,1267.52 1493.45,1268.42C1494.76,1269.38 1504.4,1278.75 1504.88,1278.56C1505.26,1278.4 1499.27,1263.27 1498.58,1261.52C1497.81,1259.56 1494.68,1254.33 1496.35,1255.62C1500.88,1259.14 1504.81,1264.36 1508.66,1268.63C1510.79,1271.01 1517.39,1277.87 1514.78,1276.02C1486.3,1255.9 1463.78,1220.8 1440.79,1194.74C1433.12,1186.05 1424.77,1176.83 1419.42,1166.49C1417.6,1162.97 1416.13,1159.31 1414.66,1155.63C1413.89,1153.68 1411.34,1147.94 1412.32,1149.79C1420.49,1165.1 1429.09,1180.09 1438.03,1194.96C1441.19,1200.23 1444.27,1205.53 1447.34,1210.84C1448.61,1213.03 1451.87,1219.82 1451.22,1217.37C1445.61,1196.1 1434.03,1175.36 1426.67,1154.44C1424.44,1148.13 1422.46,1141.76 1420.37,1135.41C1418.16,1128.72 1416.34,1125.1 1416.45,1125.33C1427.73,1147.1 1437.35,1169.46 1449.36,1190.91C1453.67,1198.6 1458.28,1206.05 1463.2,1213.37C1466.67,1218.54 1470.38,1223.82 1470.14,1223.2C1456.87,1189.2 1435.62,1158.42 1423.63,1123.65C1419.55,1111.81 1417.08,1099.35 1414.15,1087.18C1413.05,1082.6 1411.81,1078.01 1410.34,1073.53C1409.88,1072.11 1409.45,1067.91 1408.86,1069.29C1403.93,1080.85 1404.99,1099.23 1403.24,1111.66C1398.82,1142.9 1393.93,1174.27 1390.56,1205.65C1388.99,1220.31 1389.22,1234.87 1388.48,1249.55C1388.25,1254.14 1387.92,1258.72 1387.55,1263.3C1387.19,1267.68 1386.91,1271.23 1386.9,1271.2C1379.1,1226.94 1380.96,1177.2 1381.3,1132.2C1381.42,1116.87 1381.64,1101.56 1382.52,1086.25C1382.8,1081.39 1383.53,1076.65 1384.51,1071.89C1384.87,1070.18 1385.22,1068.48 1385.63,1066.78C1385.9,1065.69 1386.17,1062.49 1386.56,1063.54C1400.35,1099.93 1376.41,1148.92 1388.28,1186.99C1388.36,1187.27 1388.99,1181.95 1390.07,1171.9C1391,1163.27 1391.91,1154.64 1392.54,1145.98C1394.56,1118.11 1399.97,1090.55 1401.32,1062.65C1401.67,1055.23 1402.04,1047.83 1402.16,1040.4C1402.22,1037.05 1402.28,1033.69 1402.2,1030.34C1402.2,1030.16 1402.22,1029.63 1402.18,1029.8C1397.65,1050.04 1395.96,1071.37 1392.89,1091.88C1391.83,1098.96 1390.92,1106.05 1389.98,1113.14C1389.14,1119.43 1388.76,1123.05 1388.67,1122.76C1382.31,1102.21 1389.15,1075.98 1394.64,1055.83C1396.43,1049.25 1398.14,1042.67 1399.85,1036.07C1400.64,1033 1401.48,1029.95 1402.18,1026.87C1402.25,1026.56 1402.61,1025.74 1402.37,1025.94C1397.5,1030.13 1395.08,1040.56 1393.04,1046.44C1382.31,1077.47 1383.39,1100.1 1399.8,1128.45C1412.87,1151.06 1430.74,1169.78 1447.36,1189.67C1471.17,1218.18 1492.77,1248.07 1520.29,1273.37C1534.49,1286.43 1551.07,1296.33 1565.67,1308.8C1584.28,1324.7 1599.01,1344.23 1618.16,1359.71C1620.74,1361.8 1632.28,1374.24 1636.02,1373.73C1643.38,1372.73 1634.3,1344.94 1632.18,1341.05C1626.43,1330.54 1618.03,1321.34 1608.75,1313.78C1605.41,1311.06 1601.91,1308.53 1598.41,1306.04C1597.08,1305.09 1593.23,1304.32 1594.42,1303.19C1594.61,1303.01 1627.28,1312.36 1638.23,1317.53C1678.66,1336.63 1682.49,1384.83 1686.92,1424.47C1688.28,1436.63 1689.16,1449.1 1688.65,1461.34C1688.49,1465.38 1688.27,1469.39 1687.54,1473.37C1687.17,1475.36 1685.56,1481.14 1686.52,1479.36C1695.43,1462.75 1692.24,1399.21 1688.48,1378.23C1686.74,1368.53 1683.13,1359.51 1679.46,1350.42C1678.32,1347.6 1677.18,1344.78 1676.04,1341.95C1675.33,1340.19 1672.29,1335.65 1673.9,1336.66C1685.14,1343.69 1682.32,1367.79 1687.63,1378.43C1688.05,1379.28 1686.29,1375.39 1687.21,1375.61C1688.04,1375.82 1690.04,1376.98 1690.97,1377.52C1697.66,1381.4 1703.23,1387.32 1707.55,1393.7C1721.66,1414.55 1723.51,1444.95 1724.88,1469.29C1725.83,1486.06 1723.91,1495.96 1711.2,1507.4C1707.55,1510.68 1703.28,1513.14 1699.38,1516.09C1697.4,1517.59 1692.24,1522.81 1693.57,1520.73C1699.82,1510.96 1706.42,1501.39 1712.62,1491.62C1714.86,1488.08 1716.69,1484.3 1718.92,1480.76C1719.21,1480.31 1722.03,1476.73 1722.13,1476.83C1727.49,1482.24 1722.19,1500.91 1720.89,1507.12C1716.95,1525.91 1701.08,1593.59 1672.15,1583.96C1654.14,1577.97 1643.46,1554.84 1641.18,1537.55C1636.18,1499.68 1648.6,1452.1 1650.47,1413.29C1651.43,1393.4 1648.84,1371.95 1642.21,1353.11C1640.52,1348.32 1627.68,1322.8 1632.14,1322.44C1655.73,1320.5 1672.74,1347.77 1679.3,1366.98C1681.4,1373.14 1683.04,1379.57 1683.99,1386.01C1684.12,1386.9 1685.19,1397.88 1685.31,1397.59C1690.59,1384.04 1681.29,1357.85 1676.38,1344.88C1674.42,1339.71 1671.71,1334.78 1668.57,1330.24C1667.14,1328.16 1662.73,1323.49 1662.73,1323.49C1670.51,1333.81 1677.93,1343.85 1683.91,1355.36C1685.78,1358.94 1687.58,1362.55 1689.56,1366.07C1690.62,1367.96 1693.53,1373.73 1692.93,1371.64C1690.08,1361.79 1685.89,1352.51 1681.11,1343.46C1679.42,1340.26 1677.73,1337.06 1676.11,1333.83C1675.5,1332.63 1673.15,1329.5 1674.28,1330.23C1680.32,1334.16 1685.58,1342.04 1690.52,1347.35C1694.59,1351.73 1700.57,1358.77 1700.38,1357.61C1699.42,1351.67 1696.47,1345.63 1693.91,1340.24C1693.16,1338.67 1692.4,1337.11 1691.6,1335.57C1691.15,1334.7 1689.38,1332.43 1690.21,1332.97C1695.51,1336.39 1700.1,1343.18 1704.36,1347.89C1705.69,1349.37 1707,1350.86 1708.31,1352.34C1709.15,1353.29 1711.47,1356.29 1710.86,1355.17C1708.27,1350.35 1705.09,1345.73 1701.86,1341.31C1700.11,1338.9 1696.18,1334.43 1696.61,1334.75C1700.28,1337.51 1703.47,1341.23 1706.52,1344.64C1707.88,1346.16 1709.19,1347.73 1710.49,1349.31C1710.98,1349.91 1712.51,1351.7 1711.98,1351.12C1709.32,1348.24 1706.87,1345.16 1704.29,1342.2C1703.65,1341.46 1702.13,1339.08 1702.31,1340.04C1705.03,1354.2 1711.38,1367.47 1716.43,1380.9C1718.24,1385.72 1719.83,1390.61 1721.65,1395.42C1722.38,1397.38 1724.98,1403.08 1723.96,1401.26C1717.74,1390.16 1711.53,1379.1 1705.05,1368.15C1703.09,1364.84 1701.14,1361.52 1699.16,1358.21C1697.74,1355.85 1693.7,1348.67 1694.81,1351.19C1702.91,1369.62 1713.49,1386.81 1720.86,1405.59C1723.38,1412.01 1725.58,1418.52 1727.62,1425.11C1728.47,1427.87 1729.32,1430.65 1730.06,1433.45C1730.44,1434.9 1731.68,1439.22 1731.33,1437.76C1727.96,1423.63 1722.49,1410.16 1716.02,1397.18C1713.68,1392.48 1712.95,1391.14 1710.63,1386.93C1709.41,1384.72 1705.63,1378.14 1706.91,1380.32C1712.51,1389.91 1718.25,1399.42 1723.92,1408.96C1727.52,1415.03 1730.54,1419.99 1730.5,1419.9C1721.24,1400.09 1709.04,1381.49 1697.26,1363.11C1693.43,1357.15 1689.83,1351.09 1686.28,1344.96C1684.75,1342.32 1683.27,1339.67 1681.79,1337C1681.32,1336.16 1679.5,1334.06 1680.37,1334.47C1684.82,1336.57 1688.95,1339.59 1693.04,1342.3C1695.07,1343.64 1700.27,1348.42 1699.18,1346.24C1697.09,1342.05 1692.37,1338.24 1689.13,1334.91C1688.24,1333.99 1685.6,1333.12 1686.46,1332.18C1687.71,1330.81 1718.12,1353.02 1725.13,1358.57C1736.2,1367.34 1746.74,1376.77 1757.67,1385.71C1761.34,1388.7 1765.24,1391.37 1769.06,1394.16C1772.61,1396.77 1775.85,1399.08 1775.68,1398.77C1770.27,1388.71 1762.85,1379.55 1756.05,1370.39C1753.93,1367.54 1751.83,1364.68 1749.65,1361.86C1748.3,1360.1 1743.41,1355.9 1745.51,1356.64C1765.06,1363.58 1782.24,1380.51 1801.66,1389.22C1808.07,1392.09 1814.51,1395.31 1820.57,1398.85C1822.34,1399.88 1824.1,1400.94 1825.87,1401.99C1827.09,1402.73 1830.8,1404.86 1829.65,1404.01C1820.53,1397.23 1767.37,1365.53 1757.67,1364.2C1756.4,1364.02 1759.71,1365.74 1760.72,1366.51C1764.05,1369.04 1767.35,1371.61 1770.67,1374.14C1780.01,1381.27 1789.74,1387.96 1799.49,1394.5C1803.21,1397 1807.14,1399.09 1811.14,1401.1C1812.48,1401.78 1815.9,1404.31 1815.24,1402.96C1810.92,1394.13 1801.14,1387.4 1793.38,1381.93C1790.47,1379.88 1787.51,1377.92 1784.42,1376.14C1783.16,1375.41 1779.36,1373.26 1780.61,1373.99C1788.25,1378.48 1796.39,1382.13 1804.39,1385.9C1806.95,1387.11 1809.46,1388.42 1812.03,1389.61C1813.62,1390.35 1818.52,1392.2 1816.82,1391.78C1797.47,1387.01 1777.59,1376.57 1760.41,1366.63C1758.72,1365.65 1745.31,1354.47 1743.3,1355.4C1727.29,1362.86 1737.62,1421.06 1736.96,1436.49C1736.62,1444.54 1736.24,1452.25 1734.86,1460.22C1734.36,1463.1 1734.05,1466.13 1733.04,1468.9C1732.73,1469.77 1732.16,1472.35 1731.96,1471.45C1728.61,1456.84 1730.77,1440.46 1729.74,1425.54C1729.43,1421.1 1729.14,1416.65 1728.92,1412.2C1728.8,1409.73 1728.59,1402.33 1728.56,1404.8C1728.4,1417.08 1723.91,1482.83 1720.12,1494.16C1716.75,1504.24 1711.57,1513.31 1705.14,1521.75C1702.75,1524.89 1699.94,1527.57 1697.87,1530.97C1697.27,1531.96 1696.38,1535.12 1696.17,1533.99C1695.76,1531.81 1698.21,1525.7 1696.74,1527.36C1696.59,1527.54 1696.52,1527.77 1696.41,1527.98C1692.61,1535.25 1692.94,1544.85 1689.02,1552.82C1688.94,1552.98 1687.65,1555.32 1687.57,1555.23C1679.95,1547.75 1687.1,1531.16 1692.75,1524.49C1694.9,1521.95 1697.19,1519.52 1699.5,1517.13C1700.27,1516.34 1701.21,1513.83 1701.8,1514.76C1704.67,1519.21 1701.32,1554.11 1699.97,1561.01C1699.78,1561.98 1700.45,1559.09 1700.71,1558.13C1701.73,1554.26 1702.86,1550.4 1704.13,1546.61C1708.41,1533.81 1713.68,1521.5 1718.51,1508.94C1720.25,1504.42 1722.11,1499.93 1723.78,1495.38C1724.52,1493.36 1727.04,1487.42 1726.05,1489.33C1724.28,1492.74 1723.01,1496.44 1721.73,1500.06C1721.08,1501.91 1719.15,1507.45 1719.93,1505.65C1724.38,1495.41 1728.38,1484.86 1732.17,1474.36C1733.19,1471.55 1734.26,1468.74 1735.12,1465.87C1735.67,1464.03 1737.04,1458.43 1736.49,1460.27C1735.59,1463.3 1734.88,1466.41 1734.04,1469.46C1733.68,1470.77 1733.18,1474.77 1733.06,1473.42C1729.1,1428.82 1719.04,1389.14 1695.53,1350.97" style="fill:none;stroke:#fbf9c1;stroke-width:9.54px;"/>
        <path class="path" d="M2442.28,1538.23C2377.3,1428.35 2441.94,1260.72 2470.5,1146.29C2493.52,1054.03 2483.16,970.819 2470.02,878.535C2461.57,819.204 2456.94,758.179 2436.1,701.274C2425.12,671.293 2408.02,645.583 2391.92,618.191C2378.26,594.95 2367.37,569.384 2350.48,548.202C2282.39,462.786 2164.35,407.317 2055.81,421.25C2014.65,426.533 1927.99,483.055 1900.03,512.657C1888.02,525.38 1881.44,541.32 1876.71,557.943C1874.98,564.019 1873.59,570.156 1872.31,576.34C1871.82,578.681 1873.15,584.055 1870.86,583.364C1869.68,583.009 1869.68,554.199 1874.01,537.086C1875.36,531.774 1876.75,526.489 1878.28,521.227C1878.69,519.803 1879.09,515.557 1879.55,516.966C1884.22,531.288 1872.96,588.401 1875.88,610.8C1876.44,615.147 1874.37,626.095 1878.08,623.764C1878.92,623.234 1879.46,618.342 1879.67,617.405C1887.51,583.142 1881.83,547.195 1904.38,518.301C1988.16,410.936 2074.41,388.823 2204.13,422.333C2234.47,430.169 2263.34,435.623 2291.99,449.275C2357.93,480.692 2415.47,532.366 2465.74,584.265C2512.61,632.646 2566.89,687.587 2597.13,748.68C2640.71,836.722 2640.64,939.61 2656.03,1034.76C2668.26,1110.39 2694.36,1192.05 2712.04,1266.94C2736.37,1369.99 2745.45,1439.66 2725.84,1543.11C2721.13,1567.95 2721.77,1612.79 2699.04,1629.19C2665.99,1653.04 2611.86,1631.73 2612.11,1588.82C2612.3,1555.64 2644.13,1527.12 2658.74,1499.52C2674.05,1470.6 2681.62,1439.48 2685.21,1407.04C2690.86,1355.9 2678.63,1302.6 2673.48,1251.81C2667.95,1197.15 2667.61,1141.76 2660.89,1087.29C2653.65,1028.57 2639.21,971.898 2627.59,914.045C2615.08,851.738 2605.08,750.93 2570.78,697.61C2556.97,676.139 2540.92,655.104 2521.3,638.61C2514.7,633.057 2508.09,627.527 2501.55,621.898C2498.26,619.061 2490.26,609.403 2491.53,613.562C2503.68,653.586 2542,694.355 2555.74,738.957C2563.53,764.26 2563.08,792.113 2568.82,818.006C2576.93,854.587 2591.71,890.338 2597.91,927.218C2611.46,1007.76 2597.71,1095.15 2590.76,1175.86C2582.07,1276.8 2569.99,1273.76 2517.78,1359.97C2506.34,1378.85 2497.87,1399.73 2488.54,1419.68C2486.09,1424.92 2483.27,1429.99 2481.11,1435.37C2479.4,1439.6 2476.87,1452.96 2476.89,1448.39C2477.07,1414.02 2479.76,1379.63 2477.94,1345.24C2475.41,1297.61 2468.54,1250.35 2469.4,1202.54C2469.9,1174.74 2475.53,1147.29 2476.14,1119.44C2476.32,1110.76 2476.53,1102.09 2476.72,1093.41C2476.8,1089.66 2476.8,1085.91 2476.88,1082.16C2476.91,1080.76 2476.55,1076.6 2476.95,1077.94C2489.12,1118.91 2488.22,1228.12 2491.98,1277.34C2493.56,1298.14 2494.01,1319.09 2492.93,1339.92C2492.53,1347.52 2492.95,1354.98 2493.76,1362.54C2494.05,1365.24 2493.6,1372.83 2495.1,1370.57C2524.08,1326.84 2498.62,1207.04 2499.73,1151.6C2500.87,1094.24 2508.47,1037.12 2510.74,979.793C2514.89,874.43 2495.47,777.82 2457.6,680.206C2442.21,640.535 2426.55,599.743 2399.6,566.413C2320.13,468.134 2266.72,428.177 2143.21,420.436C2130.98,419.67 2057.54,418.455 2053.59,425.02C2053.54,425.095 2065.97,429.205 2067.14,429.515C2080.67,433.084 2094.34,436.012 2107.85,439.671C2144.05,449.476 2178.8,466.36 2209.03,488.558C2309.73,562.505 2389.02,652.587 2401.85,780.22C2413.77,898.816 2428.86,1023.07 2413,1141.87C2407.44,1183.52 2392.03,1218.83 2380.84,1258.86C2359.84,1334.02 2360.31,1417.73 2391.08,1490.02C2394.47,1497.99 2410.99,1539.51 2425.91,1528.43C2439.75,1518.15 2443.98,1499.97 2449.44,1484.58C2451.25,1479.5 2453.05,1474.38 2455.19,1469.43C2456.27,1466.94 2458.32,1459.4 2458.77,1462.09C2461.84,1480.72 2447.59,1503.78 2448.62,1523.92C2448.94,1530.1 2447.26,1536.21 2445.75,1542.15C2445.23,1544.18 2442.48,1549.08 2444.43,1548.3C2476.13,1535.7 2545.77,1425.92 2558.82,1397.19C2615.8,1271.75 2631.53,1135.92 2632.46,999.824C2632.76,956.135 2635.22,912.372 2625.95,869.251C2625.7,868.047 2625.86,871.714 2625.82,872.945C2625.68,876.69 2625.54,880.438 2625.48,884.185C2625.36,891.491 2625.15,898.762 2624.76,906.059C2623.09,936.99 2633.39,968.878 2632.46,999.824C2632.11,1011.49 2631.43,1023.22 2631.87,1034.89C2632.05,1039.35 2636.7,1052.36 2638,1048.09C2652.95,998.788 2619.08,879.266 2609.31,825.096C2605.29,802.782 2598.18,782.169 2589.16,761.44C2586.28,754.818 2582.89,748.446 2579.76,741.939C2576.66,735.467 2563.43,705.112 2564.72,706.681C2587.27,733.982 2598.95,793.845 2610.5,825.982C2614.11,836.051 2618.13,845.972 2622.07,855.92C2623.59,859.775 2625.1,863.634 2626.55,867.515C2627.29,869.467 2628.53,875.42 2628.8,873.352C2632.86,841.799 2610.03,809.921 2595.47,784.053C2590.61,775.428 2584.84,767.379 2579.88,758.807C2577.57,754.816 2572.47,744.79 2572.54,744.921C2579.43,756.907 2584.45,769.784 2590.06,782.385C2592.07,786.889 2594.08,791.383 2596.15,795.858C2597.03,797.76 2599.77,803.417 2598.77,801.576C2576.26,760.286 2552.01,704.763 2564.94,722.569C2565.33,723.099 2566.25,724.789 2566.11,724.152C2562.57,708.989 2544.75,694.932 2536.9,681.372C2534.37,676.994 2536.55,669.629 2533.96,665.28C2532.64,663.059 2505.35,633.066 2506.65,635.3C2515.08,649.778 2549.98,685.776 2556.84,701.139C2559.06,706.11 2549.95,705.625 2551.86,710.717C2553.12,714.04 2588.58,784.301 2601.23,819.76C2627.75,894.081 2636.59,977.098 2651.35,1054.14C2661.93,1109.35 2670.87,1165.54 2686.04,1219.74C2691.03,1237.59 2696.71,1255.21 2702.27,1272.88C2703.91,1278.12 2705.49,1283.36 2707.29,1288.56C2708.46,1291.93 2710.96,1302.22 2710.8,1298.66C2709.12,1261.33 2694.95,1227.69 2686.78,1191.22C2683.8,1177.93 2684.93,1160.95 2681.14,1147.88C2679.77,1143.13 2678,1135.78 2676.79,1130.99C2676.32,1129.11 2679.1,1205.08 2686.58,1240.98C2689.27,1253.86 2692.16,1266.69 2694.88,1279.56C2695.89,1284.33 2697.04,1289.07 2698.1,1293.83C2698.5,1295.62 2699.88,1300.95 2699.27,1299.22C2694.9,1286.78 2691.81,1273.76 2689.16,1260.86C2688.09,1255.62 2687.08,1250.35 2686.23,1245.08C2685.89,1242.98 2685.8,1236.73 2685.27,1238.79C2682.89,1247.93 2685.45,1259.66 2685.43,1269.1C2685.43,1270.97 2685.67,1276.58 2685.4,1274.73C2682.56,1255.17 2681.31,1235.39 2677.19,1216.01C2675.66,1208.81 2673.5,1201.82 2671.41,1194.78C2670.73,1192.49 2671.27,1186.44 2669.39,1187.92C2647.54,1205.14 2602.95,1379.33 2571.96,1425.42C2550.68,1457.07 2525.58,1488.54 2499.71,1516.6C2482.69,1535.06 2461.17,1563.47 2461.62,1563.7C2475.33,1570.74 2494.18,1566.95 2508.29,1562.87C2601.1,1536.03 2625.12,1432.35 2660.14,1354.6C2668.56,1335.92 2667.02,1312.76 2674.79,1295.12C2674.79,1295.12 2677.97,1303.77 2680.17,1311.55C2681.96,1317.89 2683.17,1324.37 2684.3,1330.85C2688.24,1353.52 2688.14,1380.87 2680.51,1402.84C2665.86,1445.09 2572,1562.03 2530.28,1577.06C2522.84,1579.74 2487.52,1583.55 2499.54,1579.93C2505.14,1578.25 2511.46,1575.95 2517.32,1575.53C2519.7,1575.35 2504.09,1577.27 2503.76,1577.26C2495.4,1577.12 2487.34,1574.98 2479.4,1572.54C2463.15,1567.53 2447.28,1562.74 2432.53,1554.05C2428.12,1551.45 2423.9,1548.48 2419.76,1545.46C2417.63,1543.92 2411.79,1538.7 2413.44,1540.75C2418.06,1546.51 2424.74,1551.47 2430.23,1556.41C2434.91,1560.64 2439.67,1564.78 2444.33,1569.04C2446.78,1571.27 2453.5,1578.52 2451.64,1575.77C2438.97,1556.96 2423.04,1539.6 2407.2,1523.39C2401.41,1517.46 2395.59,1511.57 2389.74,1505.69C2387.62,1503.56 2381.93,1496.71 2383.26,1499.4C2390.07,1513.14 2399.57,1526.18 2409.75,1537.6C2410.67,1538.63 2413.66,1541.43 2412.48,1540.72C2398.22,1532.1 2384.91,1519.97 2372.39,1509.03C2368.41,1505.56 2364.53,1501.98 2360.84,1498.21C2358.74,1496.06 2352.36,1489.73 2354.67,1491.64C2363.9,1499.31 2372.77,1507.3 2382.24,1514.7C2390.92,1521.49 2367.16,1490.46 2373.95,1499.14C2389.88,1519.5 2406.92,1539.04 2424.64,1557.86C2430.79,1564.38 2436.89,1570.93 2443.05,1577.45C2445.56,1580.11 2451.42,1588.78 2450.87,1585.16C2449.09,1573.53 2443.98,1561.75 2438.94,1551.15C2434.71,1542.25 2430.28,1534.97 2430.32,1535C2441.19,1544.32 2449.2,1560.88 2458.45,1571.99C2461.84,1576.07 2465.28,1580.12 2468.68,1584.2C2469.78,1585.53 2473.6,1588.54 2471.91,1588.23C2468.4,1587.59 2463.12,1581.03 2460.53,1578.44C2459.33,1577.24 2455.37,1574.39 2457.01,1574.78C2479.57,1580.15 2501.44,1587.86 2523.86,1593.71C2546.53,1599.62 2568.58,1606.84 2590.09,1616.17C2626.97,1632.17 2752.61,1705.22 2758.9,1614.67C2759.11,1611.63 2754.67,1619.08 2752.37,1621.07C2747.57,1625.24 2742.03,1628.69 2736.65,1632.05C2719.48,1642.79 2701.81,1646.82 2681.83,1641.69C2644.02,1631.98 2614.83,1600.32 2579.56,1584.38C2567.45,1578.91 2555.18,1574.96 2542.34,1571.5C2537.2,1570.11 2532.08,1568.65 2526.99,1567.06C2525.28,1566.53 2520.02,1565.54 2521.82,1565.6C2615.14,1568.5 2700.2,1704.86 2716.59,1786.68C2722.51,1816.3 2710.27,1852.43 2692.02,1875.7C2686.12,1883.23 2679.75,1890.38 2672.78,1896.94C2670.07,1899.48 2667.42,1902.08 2664.57,1904.45C2663.45,1905.38 2661.05,1908.65 2661.22,1907.22C2668.1,1847.67 2685.13,1791.77 2663.48,1732.42C2656.33,1712.81 2647.22,1693.6 2635.11,1676.54C2634.38,1675.52 2616.43,1654.61 2615.91,1655.82C2614.64,1658.81 2651.55,1708.39 2655.54,1713.64C2660.36,1719.97 2665.37,1726.12 2670.45,1732.23C2672.16,1734.29 2676.76,1740.8 2675.57,1738.41C2663.18,1713.4 2635.12,1694.43 2612.24,1679.68C2611.51,1679.21 2604.08,1675.12 2604.14,1674.19C2604.3,1671.8 2608.37,1676.45 2610.47,1677.58C2620.93,1683.19 2631.41,1688.89 2641.02,1695.88C2673.03,1719.17 2687.84,1750.18 2702.58,1786.12C2718.75,1825.54 2681.4,1872.33 2658.21,1900.99C2650.6,1910.4 2642.32,1918.52 2632.21,1925.25C2629.2,1927.26 2626.1,1929.12 2622.96,1930.93C2620.67,1932.25 2613.6,1935.83 2615.93,1934.58C2620.26,1932.25 2625.34,1930.87 2629.96,1929.2C2633.76,1927.82 2637.58,1926.51 2641.29,1924.9C2669.83,1912.49 2616.3,1928.46 2605.05,1930.24C2602.68,1930.62 2598.45,1933.7 2597.96,1931.36C2597.31,1928.18 2640.83,1874.75 2645.26,1866C2671.95,1813.47 2659.66,1763.25 2640.33,1712.03C2639.35,1709.43 2642.96,1716.91 2644.15,1719.41C2646.96,1725.31 2649.29,1731.4 2652.04,1737.31C2660.68,1755.91 2663.14,1775.08 2666.42,1795.26C2667.5,1801.89 2668.74,1808.47 2669.98,1815.07C2670.58,1818.24 2670.59,1827.45 2671.95,1824.53C2676.56,1814.64 2665.91,1792.61 2671.33,1785.17C2673.93,1781.6 2673.1,1793.83 2673.93,1798.17C2675.2,1804.84 2675.09,1813 2677.62,1819.38C2678.51,1821.62 2678.34,1814.62 2678.64,1812.23C2679.56,1804.9 2679.24,1797.39 2678.72,1790.05C2677.25,1769.38 2673.11,1748.6 2667.07,1728.81C2666.36,1726.51 2668.17,1733.49 2668.7,1735.84C2670.25,1742.87 2671.39,1749.98 2672.42,1757.11C2675.34,1777.25 2678.61,1797.52 2679.42,1817.88" style="fill:none;stroke:#fbf9c1;stroke-width:9.54px;"/>
        <path class="path" d="M726.842,3332.25C727.348,3328.62 629.255,3344.8 629.733,3341.18C650.66,3182.39 645.053,3018.89 649.349,2859.08C654.383,2671.85 672.363,2480.36 665.718,2293.05C663.866,2240.82 652.419,2187.03 633.832,2139.28C609.096,2075.73 577.741,2019.11 598.031,1954.5C617.506,1892.48 624.896,1784.54 624.258,1750.51C623.793,1725.67 648.024,1680.58 653.07,1658.58C657.924,1637.41 658.016,1613.9 662.589,1592.7C670.358,1556.69 688.65,1545.99 695.312,1554.55C736.151,1607.02 762.209,1702.51 718.65,1792.57C708.264,1814.05 711.602,1848.42 709.369,1891.65C707.459,1928.63 724.442,2008.3 766.513,1996.25C773.687,1994.2 746.751,1995.14 733.842,1985.02C717.665,1972.34 723.41,1948.91 713.01,1931.3C711.621,1928.94 716.766,1950.67 719.495,1950.52C756.589,1948.55 784.732,1957.94 808.822,1997.6C816.57,2010.35 831.507,2059.49 831.41,2059.18C817.184,2013.64 782.257,1981.38 774.42,1944.21C768.089,1914.19 806.312,1854.28 828.487,1815.24" style="fill:none;stroke:#fbf9c1;stroke-width:9.54px;"/>
        <path class="path" d="M1178.86,1714.94C1189.81,1714.7 1200.81,1713.14 1211.51,1716.23C1241.24,1724.82 1264.14,1768.64 1232.73,1790.86C1219.91,1799.93 1192.07,1793.78 1187.52,1804.53C1186.57,1806.77 1193.18,1858.61 1198.89,1868.27C1203.57,1876.19 1219.7,1871.3 1228.32,1874.74C1250.49,1883.57 1279.88,1916.23 1280.47,1940.49C1280.99,1961.44 1263.23,1975.2 1243.45,1976.56C1237.99,1976.94 1230.82,1974.68 1225.66,1975.77C1223.22,1976.28 1221.4,1986.5 1221.07,1988.47C1218.1,2006.07 1227.09,2063.44 1240.65,2075.55C1254.63,2088.04 1277.34,2087.18 1286.03,2106.18C1302.73,2142.69 1266.56,2165.66 1235.43,2163.29" style="fill:none;stroke:#fbf9c1;stroke-width:9.54px;"/>
        <path class="path" d="M727.758,3332.03C749.975,3151.54 769.82,2940.5 872.591,2767.61C883.783,2748.78 862.704,2380.19 875.45,2362.76C879.082,2357.79 896.319,2353.71 904.042,2377.67C906.31,2384.71 904.84,2521.9 904.88,2534.47C904.925,2548.32 945.33,2435.82 977.701,2347.15C978.622,2344.63 950.034,2284.48 934.81,2252.1C932.275,2246.71 927.986,2333.84 926.022,2329.31C924.667,2326.18 930.546,2246.86 929.451,2244.16C923.829,2230.3 921.592,2222.18 922.118,2220.74C923.984,2215.64 983.121,2344.08 984.901,2339.24C1002.33,2291.88 1018.55,2237.37 1017.31,2247.21C1000.14,2383.1 905.88,2535.45 905.56,2562.32C904.482,2652.77 904.24,2733.37 910.954,2726.22C959.715,2674.27 1081.21,2548.76 1151.57,2521.79C1253.89,2482.57 1365.93,2480.48 1467.82,2441.09C1570.05,2401.57 1633.03,2309.58 1730.42,2263.75C1753.6,2252.84 1779.2,2245.01 1806.45,2239.45C1815.99,2237.51 1783.77,1939.99 1793.67,1938.57C1807.72,1936.55 1791.84,2237.97 1806.45,2239.45C1925.61,2251.5 2128.48,2236.23 2229.57,2225.97C2285.48,2220.29 2392.13,2220.05 2482.2,2193.4C2498.32,2188.63 2541.99,2177.25 2555.31,2168.13C2579.3,2151.72 2406.86,2025.44 2423.4,2028.95C2433.4,2031.07 2557.85,2165.96 2565.97,2162.23C2580.85,2155.39 2631.44,2126.34 2640.7,2128.35C2726.03,2146.88 2783.02,2223.57 2866.22,2250.08C2917.17,2266.31 2973.97,2253.89 3026.3,2253.5C3204.99,2252.17 3269.32,2450.59 3327.52,2591.86C3359.74,2670.06 3380.64,2749.41 3391.91,2833.25C3402.48,2911.81 3367.82,3070.38 3438.11,3118.94C3442.61,3122.06 3473.54,3145.35 3479.57,3141.99C3588.45,3081.35 3577.22,2615.53 3534.97,2522.2C3484.16,2409.96 3392.99,2333.33 3287.1,2276.73C3219.4,2240.55 3148.12,2202.32 3069.72,2199.29C2999.08,2196.57 2923.82,2233.23 2854.06,2244.64C2819.09,2250.36 2787.41,2238.45 2752.87,2244.57C2563.54,2278.14 2375.55,2325.11 2185.83,2356.02C2097.03,2370.49 2004.43,2341.39 1914.54,2345.43C1801.98,2350.48 1707.71,2390.87 1600.63,2414.08C1526.33,2430.18 1112.63,2534.68 1095.78,2566.61C1049.74,2653.81 1179.57,2843.37 1200.21,2941.69C1207.13,2974.65 1192.38,3051.24 1221.74,3071.47C1222.67,3072.11 1223.61,3072.73 1224.56,3073.35C1225.53,3073.97 1226.51,3074.59 1227.5,3075.18C1318.68,3130.29 1591.35,3066.57 1699.55,3062.86C1872.3,3056.93 2045.94,3061.68 2218.52,3057.68C2291.97,3055.97 2362.43,3052.11 2435.66,3060.32C2444.7,3061.33 2498.62,3074.85 2503.5,3069.55C2506.79,3065.98 2509.11,3060.79 2511.37,3056.5C2555.35,2973.12 2353.9,2462.28 2300.23,2350.19" style="fill:none;stroke:#fbf9c1;stroke-width:9.54px;"/>
        <path class="path" d="M734.328,2300.55C732.699,2288.18 729.679,2270.59 734.101,2258.56C743.291,2233.55 783.83,2238.76 803.091,2241.6C809.513,2242.54 815.866,2243.27 822.365,2243.45C832.929,2243.75 843.418,2243.14 853.939,2242.26" style="fill:none;stroke:#fbf9c1;stroke-width:9.54px;"/>
    </g>
</svg>
