<svg width="100%" height="100%" viewBox="0 0 500 334"  version="1.1" xmlns="http://www.w3.org/2000/svg" xmlns:xlink="http://www.w3.org/1999/xlink" xml:space="preserve" xmlns:serif="http://www.serif.com/" style="fill-rule:evenodd;clip-rule:evenodd;stroke-linecap:round;stroke-linejoin:round;stroke-miterlimit:10;">
    <defs>
<!--         <filter id="soften-edges" x="+5%" y="+5%" width="120%" height="120%">-->
<!--            <feGaussianBlur in="SourceGraphic" stdDeviation="5"/>-->
<!--        </filter>-->
        <mask id="usa-mask">
            <rect width="100%" height="100%" fill="black" />
            <g transform="matrix(5.55556,0,0,5.55556,0,0)">
                <g transform="matrix(1,0,0,1,-5.14201,-21.8648)">
                    <path style="fill:white;fill-rule:nonzero;stroke:white;stroke-width:0.5px;" d="M7.833,45C6.45,45.659 7.062,37.751 7.65,37.291C6.913,35.633 7.63,35.294 8.463,34.204C9.186,33.257 9.871,32.241 10.292,30.837C10.758,29.284 10.335,23.477 11.513,23.007C11.545,23.166 12.672,22.184 14.521,22.895C16.867,22.905 19.893,24.357 22.166,25.032C25.238,25.944 28.347,26.477 31.491,27.125C33.102,27.457 40.186,28.769 42.159,28.99C44.326,29.234 46.116,29.672 48.346,29.666C49.567,29.663 51.869,30.397 52.7,29.358C53.158,29.67 58.047,31.999 60.496,32.196C59.256,33.406 62.251,33.872 63.475,33.684C63.469,34.231 63.364,34.819 63.189,35.308C64.462,35.548 65.18,34.888 66.167,34.838C67.271,34.782 68.469,35.505 69.491,35.866C68.758,36.824 72.973,31.543 76.543,31.907C78.208,30.722 83.691,29.848 83.873,28.266C83.896,28.064 90.107,25.93 90.249,28.36C90.311,29.41 90.964,30.043 91.808,29.516C91.961,30.32 92.358,30.956 92.374,31.81C92.852,31.707 93.319,31.845 93.798,31.552C93.421,31.871 93.36,32.408 93.195,32.803C94.613,33.067 94.34,34.415 93.702,35.165C92.907,36.101 91.576,35.777 91.474,37.303C91.333,39.413 89.91,44.311 89.003,45.001C87.753,45.953 87.928,46.445 87.678,47.654C87.465,48.685 85.595,55.755 85.729,55.833C85.62,56.435 81.78,60.726 81,61.664C80.435,62.344 76.521,66.059 76.355,66.655C76.196,67.227 76.348,68.363 76.33,69.067C76.299,70.225 76.696,70.796 76.987,71.664C77.158,72.174 81.296,78.867 78.829,80.709C77.696,81.555 72.524,80.646 72.612,79.586C70.881,78.949 65.925,72.332 66.182,71.318C65.574,71.575 59.388,73.298 58.698,73.637C58.469,73.213 58.139,73.146 57.969,72.692C56.342,72.276 51.066,75.972 50.684,77.405C50.528,77.992 49.566,78.906 47.485,80.137C46.597,80.199 43.728,79.203 43.291,78.532C42.91,77.948 43.227,76.976 42.836,76.333C42.264,75.394 34.257,70.441 33.819,69.663C33.412,68.94 33.46,68.309 32.868,67.626C31.382,65.91 29.962,66.21 28.165,65.479C27.634,65.973 24.698,65.384 23.827,65.167C22.267,64.779 21.176,63.605 19.824,62.825C18.763,62.213 17.895,61.354 16.831,60.867C15.438,60.229 13.941,60.779 12.51,60.292C13.685,58.022 12.216,57.048 10.523,55.954C10.775,55.492 9.596,53.885 9.648,53.687C8.011,52.984 7.483,48.922 7.806,47.524C7.267,47.321 7.966,45.224 7.964,45.006" />
                </g>
            </g>
        </mask>
    </defs>
    <rect width="100%" height="100%" fill="white" mask="url(#usa-mask)"/>
</svg>
