<?xml version="1.0" encoding="UTF-8" standalone="no"?>
<!DOCTYPE svg PUBLIC "-//W3C//DTD SVG 1.1//EN" "http://www.w3.org/Graphics/SVG/1.1/DTD/svg11.dtd">
<svg width="100%" height="100%" viewBox="0 0 1024 1024" version="1.1" xmlns="http://www.w3.org/2000/svg" xmlns:xlink="http://www.w3.org/1999/xlink" xml:space="preserve" xmlns:serif="http://www.serif.com/" style="fill-rule:evenodd;clip-rule:evenodd;stroke-linecap:round;stroke-linejoin:round;stroke-miterlimit:1.5;">
    <g id="Layer1">
    </g>
    <path style="fill:none;stroke:white;stroke-width:4px;" class="path" d="M1023.25,800.782C1011.29,801.25 999.426,803.034 987.466,803.532C983.462,803.699 979.378,803.79 975.376,803.547C973.969,803.462 972.562,803.391 971.158,803.258C970.533,803.198 968.863,803.357 969.307,802.913C972.981,799.234 978.263,799.323 981.638,794.589C988.894,784.411 983.046,763.836 969.09,762.727C966.635,762.532 965.407,768.965 965.106,770.529C963.835,777.13 965.684,792.443 962.705,797.638C960.885,800.812 956.125,801.555 952.846,801.942C943.992,802.987 930.691,804.56 921.873,802.792C917.651,801.946 916.996,794.648 916.903,791.439C916.743,785.932 916.348,780.335 916.742,774.834C916.927,772.255 917.929,767.869 916.855,765.418C915.535,762.405 907.255,761.196 904.19,762.046C899.807,763.26 900.231,771.738 899.813,775.28C899.188,780.589 895.363,794.65 900.508,798.729C903.459,801.068 908.204,801.341 911.835,801.439C913.152,801.475 914.475,801.482 915.791,801.41C916.425,801.376 918.298,801.237 917.674,801.124C913.63,800.393 907.65,802.783 903.885,800.986C900.622,799.429 900.447,795.769 899.87,792.607C898.439,784.763 898.575,776.687 898.35,768.736C898.115,760.462 895.338,748.056 899.559,740.429C901.543,736.844 906.869,735.571 910.577,734.868C919.895,733.101 931.683,732.845 940.961,735.589C948.491,737.815 946.427,751.265 946.571,756.747C946.631,759.052 947.835,762.619 946.603,764.697C944.696,767.909 935.895,768.473 938.005,768.605C939.224,768.682 940.451,768.617 941.67,768.558C943.598,768.466 944.829,763.89 945.216,762.448C946.789,756.578 948.209,746.943 945.868,741.121C944.568,737.888 939.404,737.005 936.498,736.506C928.398,735.114 919.993,735.423 911.813,735.604C909.591,735.653 904.748,734.556 902.799,735.763C899.534,737.786 899.631,746.279 898.768,749.508C895.914,760.187 899.541,771.179 899.457,782.003C899.416,787.301 897.392,791.999 895.51,796.845C894.376,799.765 891.128,801.204 888.261,801.874C881.892,803.363 864.626,805.806 860.068,799.044C857.363,795.03 858.777,789.485 861.066,785.642C862.639,783.002 864.454,780.719 867.13,779.132C870.777,776.97 876.504,774.917 880.704,776.827C893.442,782.617 895.467,800.724 878.768,803.229C849.146,807.672 860.907,770.134 862.941,753.462C863.431,749.452 863.962,745.447 863.693,741.395C862.826,728.376 862.456,716.428 863.403,703.407C863.502,702.056 863.896,692.02 865.699,691.766C868.374,691.388 872.778,699.161 874.582,700.934C881.688,707.919 884.65,711.621 895.834,711.409C911.873,711.104 927.937,712.479 943.983,711.38C948.093,711.099 957.08,707.773 959.191,713.162C961.374,718.735 958.918,726.183 959.326,732.039C960.267,745.532 962.449,758.087 961.522,771.763C961.103,777.943 960.557,783.969 959.442,790.066C959.073,792.083 958.866,794.134 958.709,796.177C958.622,797.302 958.052,800.467 958.728,799.563C961.915,795.295 960.668,786.043 960.956,781.029C961.804,766.286 964.068,754.043 961.601,739.55C960.364,732.281 958.503,724.212 959.75,716.798C960.2,714.124 966.311,712.637 965.482,711.771C960.929,707.018 933.109,671.912 923.629,660.219C916.96,651.994 908.417,645.229 907.461,644.826C898.038,640.854 879.294,644.631 869.264,644.654C868.395,644.656 858.064,643.367 857.846,644.374C857.296,646.917 874.63,667.864 879.795,675.956C881.896,679.246 883.579,684.452 878.546,683.602C872.115,682.516 843.4,638.229 834.067,625.428C831.389,621.755 825.207,616.156 821.239,614.008C811.432,608.699 794.28,616.076 784.301,616.553C768.849,617.291 755.198,619.251 739.493,617.58C721.912,615.709 704.296,614.214 686.717,612.353C681.862,611.839 676.993,611.556 672.122,611.239C671.525,611.2 668.449,610.249 668.372,610.39C667.906,611.244 670.687,614.584 671.176,615.178C674.562,619.291 677.784,622.597 678.992,627.995C682.429,643.357 695.121,661.927 706.803,672.431C709.812,675.137 712.41,679.587 716.145,681.323C724.467,685.19 735.753,684.323 744.829,684.837C748.379,685.037 754.359,687.77 757.506,687.301C762.888,686.499 767.5,675.606 771.126,671.958C784.464,658.543 801.388,646.298 811.936,630.361C814.529,626.443 816.687,623.609 818.147,619.038C818.285,618.603 819.626,615.8 819.377,615.414C819.19,615.126 816.539,616.849 816.233,617.091C813.557,619.214 810.718,622.325 808.81,625.196C808.39,625.828 810.319,625.369 811.075,625.438C812.59,625.575 813.869,625.934 815.165,626.76C819.314,629.401 822.346,633.036 824.866,637.209C829.954,645.637 837.428,651.044 843.612,658.478C848.404,664.24 851.539,671.358 857.245,676.274C862.368,680.688 870.21,685.771 877.329,682.368C877.915,682.088 876.034,682.486 875.39,682.579C874.309,682.735 873.143,682.875 872.126,683.305" />
    <path style="fill:none;stroke:white;stroke-width:4px;" class="path" d="M600.696,688.446C603.661,682.247 608.48,677.359 612.539,671.904C617.847,664.769 623.148,657.669 628.735,650.746C637.288,640.149 645.396,629.183 653.901,618.541C655.927,616.006 658.079,613.604 660.273,611.217C660.585,610.878 661.998,608.837 662.422,608.829C664.207,608.793 667.023,614.291 667.954,615.56C669.857,618.151 672.578,620.082 674.444,622.738C677.437,626.997 679.454,631.878 682.452,636.1C685.117,639.853 688.3,643.148 690.817,647.037C693.947,651.876 696.249,657.131 700.159,661.457C704.12,665.84 712.541,673.104 713.459,679.443C713.559,680.135 712.281,682.353 712.131,683.119C711.613,685.762 711.33,688.499 711.298,691.192C711.114,707.051 710.649,723.305 708.613,739.059C706.999,751.551 705.961,764.371 708.596,776.847C709.291,780.138 712.436,788.543 709.185,790.926C704.22,794.564 696.069,793.755 690.273,793.818C680.699,793.922 671.48,792.039 661.984,791.645C656.082,791.4 650.103,792.462 644.215,792.762C638.697,793.044 633.39,792.274 627.931,791.936C627.06,791.882 623.322,792.243 622.56,791.471C621.716,790.616 621.619,788.386 621.481,787.3C620.93,782.962 620.563,778.617 619.942,774.283C617.276,755.672 618.292,737.302 619.865,718.697C620.572,710.325 620.528,702.386 619.561,694.061C619.312,691.917 619.816,687.332 618.389,685.584C614.524,680.853 607.598,684.36 603.73,686.697C602.824,687.244 605.193,685.168 605.957,684.435C607.342,683.106 608.8,681.833 610.263,680.589C615.01,676.555 619.912,673.003 624.164,668.408C632.96,658.901 640.436,648.138 648.823,638.263C651.174,635.494 654.529,629.204 658.4,628.449C662.151,627.717 665.483,631.41 668.198,633.428C677.175,640.099 683.118,650.876 688.771,660.327C692.834,667.123 696.189,674.224 701.004,680.552C703.895,684.35 708.639,687.201 710.192,691.906C713.706,702.555 710.027,715.684 709.948,726.619C709.89,734.561 709.336,743.014 710.115,750.91C710.581,755.628 711.782,760.191 711.884,764.944C712.07,773.564 710.515,782.166 710.419,790.777C710.413,791.328 710.424,789.674 710.43,789.123C710.443,787.909 710.487,786.694 710.513,785.48C710.593,781.841 711.186,778.258 711.593,774.648C712.855,763.451 710.908,752.734 711.027,741.533C711.188,726.494 708.946,712.141 711.721,697.194C712.378,693.657 712.416,685.634 716.362,683.794C723.041,680.68 733.395,685.136 740.355,685.692C745.163,686.076 753.984,685.094 758.261,687.644C760.092,688.736 759.696,692.728 759.699,694.437C759.713,700.77 759.696,707.085 759.549,713.416C759.268,725.455 760.709,737.333 760.628,749.342C760.576,757.015 758.686,764.544 759.221,772.231C759.724,779.455 762.577,792.894 756.327,798.778C753.096,801.82 748.472,801.862 744.38,802.424C733.092,803.974 721.405,802.479 710.01,801.892C690.426,800.882 670.821,800.215 651.158,800.115C635.914,800.037 621.435,801.831 606.23,800.041C597.764,799.045 590.69,796.714 582.468,794.596C578.692,793.623 574.129,793.293 571.195,790.412C561.79,781.176 562.702,758.084 574.719,751.927C577.007,750.755 579.281,749.548 581.936,749.904C587.541,750.656 589.533,755.951 591.036,760.653C591.348,761.629 594.2,765.745 591.396,766.195C589.267,766.537 590,757.935 590.136,756.839C591.232,748.017 593.193,739.975 596.111,731.573C596.902,729.298 599.122,724.772 602.238,725.382C606.744,726.264 609.801,734.198 611.017,737.708C615.494,750.624 614.902,761.734 613.437,775.013C613.088,778.178 613.515,787.383 610.467,789.854C607.949,791.894 604.453,785.512 603.554,784.028C600.792,779.469 599.525,773.942 597.984,768.878C597.166,766.188 596.508,762.979 594.003,761.302" />
    <path style="fill:none;stroke:white;stroke-width:4px;" class="path" d="M639.114,731.286C648.212,733.46 658.499,730.913 667.699,730.102C671.235,729.79 676.593,728.641 680.009,730.108C682.67,731.25 682.976,735.084 682.806,737.54C682.329,744.409 680.529,751.055 679.85,757.9C679.621,760.205 680.045,764.804 678.042,766.576C676.704,767.758 674.574,767.672 672.915,767.735C669.291,767.872 665.614,768.044 661.989,768.023C656.78,767.991 651.725,767.183 646.597,766.398C645.282,766.197 641.68,766.187 640.661,765.29C638.718,763.581 639.22,759.258 638.884,756.935C637.642,748.352 636.757,738.273 639.568,729.858" />
    <path style="fill:none;stroke:white;stroke-width:4px;" class="path" d="M654.744,689.668C657.469,688.995 660.343,688.648 663.146,688.498C664.274,688.437 666.697,688.923 667.623,687.92C669.203,686.208 668.817,682.938 668.748,680.84C668.563,675.194 668.887,669.619 669.136,663.978C669.223,662.013 669.623,658.616 668.124,656.95C667.193,655.915 665.646,655.502 664.339,655.216C658.074,653.845 654.111,657.699 653.379,663.93C652.994,667.204 652.916,670.545 653.018,673.837C653.2,679.722 654.126,685.608 654.42,691.499" />
    <path style="fill:none;stroke:white;stroke-width:4px;" class="path" d="M770.802,742.103C772.847,741.062 775.009,740.641 777.274,740.355C782.111,739.746 787.21,737.962 787.061,744.429C787.026,745.932 786.975,747.413 787.034,748.917C787.111,750.886 787.073,752.82 786.959,754.789C786.761,758.192 788.123,764.518 785.677,767.367C781.801,771.881 774.958,768.339 772.745,764.139C771.16,761.132 771.343,757 771.674,753.767C772.119,749.42 772.533,744.977 773.403,740.692" />
    <path style="fill:none;stroke:white;stroke-width:4px;" class="path" d="M790.008,669.516C793.145,669.344 796.207,668.893 799.329,668.59C800.57,668.469 802.713,668.176 803.838,669.028C806.288,670.883 805.26,675.888 805.196,678.417C805.105,681.981 804.822,685.377 804.378,688.918C804.076,691.33 804.204,693.671 802.622,695.704C800.427,698.524 793.125,698.718 790.514,696.252C789.183,694.994 788.96,692.547 788.794,690.844C788.496,687.787 788.69,684.672 788.755,681.609C788.838,677.698 788.012,673.439 789.9,669.83" />
    <path style="fill:none;stroke:whte;stroke-width:4px;" class="path" d="M825.02,668.582C827.661,668.65 830.288,668.772 832.926,668.91C834.319,668.983 836.248,668.831 837.52,669.558C840.894,671.484 839.418,677.388 839.162,680.287C838.764,684.788 840.312,691.087 837.177,694.918C834.573,698.1 826.106,698.358 824.113,694.161C822.597,690.969 823.384,685.693 823.801,682.419C824.321,678.342 824.211,674.243 824.717,670.194" />
    <path style="fill:none;stroke:white;stroke-width:4px;" class="path" d="M760.699,788.248C760.673,788.794 760.661,789.34 760.62,789.885C760.523,791.16 759.101,796.978 760.181,798.734C761.446,800.791 765.932,801.128 768.059,801.533C776.509,803.143 785.562,801.058 794.021,800.078C797.842,799.636 801.911,799.661 805.736,799.925C806.218,799.958 809.612,800.569 810.074,800.055C811.09,798.925 810.93,797.025 810.969,795.602C811.063,792.221 810.91,788.847 811.053,785.46C811.328,778.958 813.35,772.557 814.063,766.086C814.543,761.738 813.715,757.266 814.391,752.927C814.547,751.923 814.811,750.935 815.123,749.969C817.066,743.952 821.63,744.492 827.068,744.732C828.56,744.798 830.059,744.832 831.552,744.811C831.602,744.811 832.967,744.709 832.985,744.759C833.621,746.578 833.097,748.772 832.785,750.595C832.069,754.772 830.748,758.836 830.127,763.028C829.023,770.481 830.237,778.554 830.845,786.041C831.112,789.321 832.833,792.736 831.9,796.078C830.589,800.773 822.952,799.999 819.331,800.229C818.03,800.311 816.734,800.477 815.431,800.525C815.026,800.539 814.622,800.573 814.217,800.584C814.006,800.589 813.407,800.713 813.584,800.597C815.434,799.384 818.618,799.427 820.726,799.112C826.599,798.234 832.525,798.215 838.418,798.901C840.713,799.169 842.993,799.398 845.294,799.587C846.182,799.659 847.608,799.889 848.314,799.149C850.709,796.64 848.995,790.434 849.101,787.331C849.422,777.869 850.124,768.457 850.726,759.03C850.893,756.425 851.276,753.831 851.556,751.236C851.65,750.367 852.11,748.782 851.734,747.909C851.347,747.014 849.146,746.814 848.39,746.728C844.96,746.341 841.401,746.345 837.951,746.43C836.72,746.46 835.487,746.49 834.256,746.502C833.762,746.507 833.27,746.498 832.776,746.521C832.566,746.531 831.944,746.6 832.144,746.533C833.636,746.033 835.271,746.027 836.817,745.829C840.783,745.319 845.988,746.049 849.717,744.361C851.962,743.345 851.248,738.209 849.657,736.826C847.253,734.735 843.146,734.89 840.166,734.881C833.648,734.86 827.125,734.552 820.625,735.089C818.482,735.266 813.614,734.76 812.435,737.123C808.719,744.571 812.689,754.163 812.323,762.07C812.182,765.129 811.343,767.994 810.977,771.002C810.87,771.881 810.879,772.785 810.864,773.669C810.855,774.179 810.734,775.698 810.849,775.201C812.384,768.553 811.036,761.341 812.207,754.541C812.665,751.879 812.675,748.806 814.823,746.829C818.062,743.849 824.714,745.424 828.61,745.455C830.079,745.467 831.537,745.684 833.005,745.72C833.584,745.734 834.165,745.718 834.744,745.722C834.977,745.724 835.607,745.584 835.442,745.748C834.862,746.325 832.347,746.168 831.606,746.203C830.41,746.26 829.213,746.27 828.017,746.332C827.174,746.375 826.33,746.422 825.486,746.459C823.312,746.554 818.427,745.476 816.767,747.525C815.114,749.566 814.815,752.408 814.498,754.915C813.86,759.965 813.55,765.104 813.243,770.186C812.695,779.28 809.128,789.684 811.007,798.806C811.067,799.093 813.06,799.414 813.28,799.463C815.523,799.957 817.868,800.26 820.164,800.337C829.939,800.664 839.527,801.889 849.293,801.828" />
    <path style="fill:none;stroke:white;stroke-width:4px;" class="path" d="M230.548,811.033C229.803,808.087 229.322,804.925 229.618,801.881C231.868,778.762 266.053,801.031 247.528,809.748C234.043,816.093 216.664,812.068 202.256,814.133C157.987,820.48 114.229,818.963 69.694,820.756C56.091,821.304 38.905,823.759 25.652,819.841C22.798,818.998 14.616,817.329 14.216,813.575C13.168,803.73 30.339,798.411 37.175,795.542C65.619,783.603 95.601,775.631 125.506,768.256C216.07,745.921 312.321,743.279 404.874,752.519C424.977,754.526 444.963,758.063 464.316,763.927C478.481,768.22 491.112,772.59 498.522,786.206C500.656,790.127 501.43,794.139 503.126,798.153C503.322,798.616 505.179,801.635 505.339,801.467C510.73,795.794 503.664,782.35 504.893,775.529C505.952,769.652 511.579,767.528 515.35,763.495C518.612,760.008 520.268,755.382 523.358,751.78C527.479,746.978 532.867,750.993 537.659,751.002C543.444,751.012 561.056,742.565 562.569,736.156C564.119,729.591 560.369,720.747 552.724,720.189C550.312,720.013 544.049,721.919 542.085,720.14C539.882,718.145 540.189,712.792 539.686,710.155C538.693,704.95 533.576,698.718 528.188,697.653C521.039,696.24 518.01,706.651 511.392,704.826C504.315,702.875 502.889,693.934 493.916,698.15C488.061,700.9 484.736,707.963 480.302,712.402C471.917,720.798 461.12,719.237 460.298,734.182C460.152,736.845 460.096,739.26 461.766,741.486C469.544,751.855 485.363,749.585 496.649,751.456C501.186,752.209 503.235,755.538 505.284,759.303C505.606,759.895 508.033,764.537 508.036,764.536C509.552,763.68 510.973,757.148 511.6,755.524C513.776,749.889 523.759,737.906 516.649,732.45C513.806,730.268 511.652,735.247 511.117,737.199C509.679,742.448 512.394,753.181 509.474,757.736C509.319,757.978 508.095,756.634 505.814,753.721C503.528,750.802 501.258,748.254 498.339,745.94C496.725,744.661 494.991,743.62 493.206,742.604C492.394,742.142 489.84,741.188 490.773,741.214C496.691,741.374 499.603,748.502 501.695,752.847C505.597,760.957 506.442,773.306 507.141,782.181C507.627,788.357 506.199,795.13 511.97,799.376C519.245,804.728 533.391,802.909 541.814,803.29C552.147,803.757 562.432,802.295 572.747,802.711C580.458,803.022 593.242,799.784 600.887,801.003C607.739,802.095 312.382,799.479 319.149,800.794" />
    <path style="fill:none;stroke:#fbf9c1;stroke-width:4px;" class="path" d="M319.57,800.938C303.165,779.44 290.609,747.167 280.215,722.045C277.737,716.056 274.839,710.279 272.157,704.383C272.09,704.236 269.465,698.367 269.695,698.235C271.444,697.23 278.177,702.817 279.504,704.012C287.392,711.119 294.045,719.603 302.539,726.061C303.235,726.59 312.454,733.14 313.323,732.486C318.069,728.914 317.999,715.162 317.974,710.204C317.892,694.052 315.64,677.931 317.712,661.814C318.255,657.587 322.739,639.879 321.438,636.621C320.414,634.054 311.35,641.776 310.526,642.785C301.423,653.94 291.919,666.06 284.886,678.649C284.599,679.162 284.332,679.686 284.042,680.197C282.424,683.057 280.833,686.177 278.896,688.836C277.791,690.355 277.021,694.599 275.581,693.392C272.301,690.643 272.781,683.276 272.799,679.554C272.851,668.241 273.78,655.997 279.078,645.709C279.731,644.439 284.694,634.106 286.127,634.123C288.654,634.153 291.188,638.472 292.182,640.275C296.745,648.555 299.821,657.087 305.013,665.115C306.819,667.906 318,682.996 317.52,685.458C316.474,690.813 310.89,695.812 308.033,700.367C293.701,723.219 268.872,736.06 261.159,761.095C260.447,763.406 260.048,765.773 259.619,768.148C258.965,771.776 254.296,791.057 260.328,791.965C266.762,792.934 274.569,781.928 278.547,778.17C288.444,768.818 298.597,758.671 306.582,747.587C310.769,741.776 312.28,734.432 316.833,728.876C320.961,723.837 334.14,720.828 334.466,713.849C335.037,701.614 322.537,696.978 318.354,687.213C316.323,682.473 318.291,672.635 319.176,667.713C322.244,650.653 320.101,633.409 321.654,616.212C321.855,613.996 322.998,598.916 322.066,598.062C317.902,594.242 307.214,605.947 308.151,609.801C309.75,616.376 324.474,628.739 328.987,635.834C331.347,639.545 332.901,643.696 335.226,647.45C335.94,648.602 336.708,649.714 337.454,650.846C337.797,651.366 338.163,652.961 338.466,652.417C339.686,650.225 339.085,645.539 339.196,643.028C339.544,635.149 341.184,624.094 339.176,616.503C338.575,614.23 329.092,619.512 327.598,621.278C326.629,622.423 324.712,626.531 325.319,625.159C327.284,620.722 330.778,614.603 331.016,609.695C331.209,605.718 327.156,603.812 325.702,600.764C322.72,594.519 316.806,575.005 306.692,576.365C303.476,576.798 300.109,579.461 297.331,581.056C293.091,583.492 286.534,587.74 284.091,592.26C281.928,596.262 293.326,604.004 295.762,605.726C296.738,606.416 306.082,612.021 305.907,613.065C304.842,619.439 299.381,624.322 296.802,630.056C296.641,630.413 294.636,635.911 294.481,635.934C294.352,635.953 293.682,634.759 293.612,634.651C290.315,629.548 288.501,623.399 286.762,617.622C281.662,600.671 285.573,585.028 287.925,567.907C288.631,562.767 289.307,557.791 289.655,552.594C289.676,552.276 289.435,551.811 289.703,551.638C289.961,551.47 296.622,558.2 296.874,558.428C299.231,560.563 308.211,566.289 308.72,569.455C309.111,571.889 307.775,573.863 306.528,575.803C305.874,576.82 303.89,579.765 304.222,578.603C306.073,572.133 312.642,564.909 317.406,560.396C318.972,558.912 320.546,554.54 322.146,555.988C334.151,566.851 317.573,593.023 325.75,606.635C328.17,610.664 340.437,615.69 345.276,618.899C361.164,629.436 381.51,641.22 393.503,656.227C398.921,663.007 398.379,688.368 400.779,698.07C406.741,722.165 411.79,746.714 415.405,771.266C415.685,773.164 418.437,794.025 417.027,794.741C406.949,799.862 387.17,779.28 380.614,773.819C378.561,772.108 374.237,766.08 371.549,766.268C364.871,766.736 362.516,781.725 360.261,786.716C359.819,787.694 355.926,794.544 355.872,794.485C346.623,784.257 350.686,755.757 344.915,746.254C342.109,741.632 334.624,739.29 330.023,737.027C328.108,736.085 320.053,730.992 317.683,731.603C314.968,732.303 314.414,741.615 314.1,743.707C312.24,756.124 312.878,768.433 313.096,780.927C313.121,782.376 312.142,794.044 314.327,794.772C314.622,794.87 315.959,790.104 315.961,790.097C317.081,785.662 317.158,780.813 317.133,776.256C317.048,761.145 314.151,742.13 321.154,728.048C322.23,725.885 325.195,717.736 327.494,716.677C335.52,712.981 341.447,726.344 342.29,732.041C342.625,734.308 342.807,736.659 343.42,738.873C343.729,739.989 343.946,743.311 344.338,742.222C347.718,732.835 344.457,718.986 343.683,709.302C343.59,708.14 343.726,699.974 343.384,699.879C340.568,699.091 337.779,704.178 337.057,706.051C336.558,707.344 335.343,711.309 335.624,709.952C337.784,699.518 338.482,688.708 338.249,678.05C338.203,675.927 338.343,673.824 338.474,671.708C338.541,670.619 339.752,668.316 338.668,668.439C331.948,669.205 326.324,677.808 323.08,682.969C322.404,684.044 319.294,687.496 319.536,688.541C319.822,689.773 321.629,687.104 322.551,686.239C324.405,684.499 326.132,682.604 327.877,680.755C333.688,674.597 336.678,669.32 337.468,660.877C337.696,658.451 337.811,656.005 338.004,653.575C338.088,652.521 338.547,649.421 338.174,650.41C337.479,652.249 335.655,660.564 337.171,661.998C337.822,662.613 338.281,660.132 339.173,660.209C341.954,660.45 344.376,661.912 346.643,663.424C357.634,670.757 366.719,679.336 378.637,685.646C381.903,687.375 394.295,693.065 394.879,695.099C395.794,698.284 388.614,702.187 386.764,703.289C376.429,709.443 364.792,714.05 355.529,721.897C351.756,725.094 349.518,730.306 347.289,734.598C347.126,734.913 345.289,738.589 345.355,738.602C347.271,738.987 351.471,734.911 352.895,733.861C360.722,728.088 365.651,715.877 376.25,722.285C380.737,724.998 376.161,737.701 374.851,741.429C374.207,743.259 373.713,745.007 373.404,746.921C373.306,747.535 372.399,748.788 373.019,748.746C375.238,748.594 377.963,742.42 378.837,740.852C383.251,732.934 388.582,725.535 392.779,717.508C394.194,714.802 395.768,712.213 397.082,709.452C397.72,708.112 397.813,704.334 398.871,705.375C404.777,711.18 403.785,722.615 405.291,730.149C405.452,730.953 406.782,737.18 406.296,737.464C405.052,738.189 400.721,736.115 399.61,735.643C394.015,733.265 388.376,730.842 382.882,728.227C377.416,725.625 372.182,722.73 367.142,719.377C363.554,716.991 359.814,714.923 356.181,712.61C353.755,711.066 344.654,706.501 343.636,703.766C340.195,694.52 359.323,683.296 358.864,674.144C358.514,667.183 342.567,663.258 345.499,657.405C349.492,649.431 362.955,636.034 369.757,629.965C372.769,627.278 376.058,624.878 378.969,622.077C380.102,620.986 381.248,619.921 382.45,618.908C382.814,618.6 383.663,617.503 383.522,617.959C380.029,629.268 374.212,641.556 368.602,652.041C367.098,654.851 360.817,661.633 361.353,664.746C363.28,675.925 377.673,681.374 386.187,686.361C388.18,687.528 390.124,688.775 392.049,690.051C392.964,690.657 393.597,692.87 394.503,692.249C398.354,689.607 395.568,675.646 395.138,672.248C392.572,651.979 388.991,630.796 385.562,610.653C382.69,593.786 382.543,576.533 379.889,559.849C377.52,544.956 372.068,530.975 370.322,515.899C369.375,507.72 368.856,482.704 362.051,476.333C355.845,470.522 346.779,472.183 339.031,472.243C327.615,472.33 315.611,468.435 304.162,470.039C296.242,471.149 295.383,484.156 294.323,490.101C291.491,505.978 283.835,535.199 287.787,551.763C287.896,552.221 292.829,551.173 293.221,551.092C296.725,550.37 299.661,548.306 302.324,546.018C305.577,543.223 307.511,538.834 310.702,536.243C315.622,532.25 322.901,529.282 326.942,524.415C328.348,522.721 325.471,518.498 324.596,517.255C321.696,513.138 314.661,505.629 308.696,506.769C306.582,507.174 294.963,512.625 295.561,515.362C298.392,528.303 316.101,532.247 321.333,543.52C324.585,550.526 323.346,557.687 324.523,565.076C326.052,574.676 329.47,584.334 331.93,593.741C332.894,597.428 333.086,604.622 335.151,607.608C335.155,607.615 335.094,605.798 334.916,600.766C334.74,595.81 334.833,590.863 334.611,585.909C334.364,580.419 336.368,569.696 335.46,565.158C333.639,556.057 328.352,554.038 326.228,540.809C325.713,537.601 324.037,524.785 326.805,524.975C329.069,525.13 344.114,532.353 344.568,534.764C345.128,537.743 329.155,544.375 329.198,547.417C329.404,561.787 352.192,572.78 359.083,583.841C364.94,593.243 370.727,602.207 377.35,611.119C378.77,613.029 380.272,614.885 381.746,616.753C382.288,617.441 382.674,619.408 383.342,618.841C386.04,616.551 385.623,608.153 385.69,605.044C385.947,592.995 386.12,570.041 376.137,560.98C374.086,559.119 367.406,565.417 366.033,566.622C357.164,574.401 351.074,583.22 345.135,593.267C343.364,596.263 341.536,599.203 339.582,602.083C338.607,603.519 337.631,607.75 336.601,606.353C335.769,605.226 343.605,596.547 344.337,595.648C348.993,589.927 371.137,573.833 370.338,565.584C369.838,560.421 351.692,540.442 346.038,542.981C339.185,546.057 337.537,556.128 335.579,562.49C335.433,562.962 335.885,561.55 336.033,561.078C336.407,559.889 336.765,558.701 337.102,557.5C337.938,554.522 338.904,551.617 340.059,548.747C343.095,541.204 348.172,534.951 351.512,527.565C352.127,526.204 353.873,520.08 355.282,519.657C360.546,518.073 363.352,524.395 367.65,524.622C370.517,524.773 373.932,512.903 368.887,509.775C365.099,507.426 362.275,514.673 359.785,515.779C359.275,516.006 344.282,505.62 342.923,504.267C341.487,502.837 347.705,492.92 351.976,493.147C357.146,493.421 359.511,502.123 364.019,502.299C364.6,502.322 365.61,497.874 365.763,497.322C366.563,494.443 369.035,482.453 364.521,480.606C356.132,477.172 350.221,490.152 347.11,495.239C347.085,495.281 348.138,492.32 348.415,490.504C348.436,490.364 348.455,490.222 348.448,490.08C348.301,487.142 345.605,483.855 343.485,482.004C339.549,478.567 330.258,483.262 326.231,485.737C325.451,486.217 327.692,490.295 328.053,490.871C330.578,494.901 334.376,499.054 338.325,501.782C338.568,501.95 339.768,502.6 339.753,502.774C339.387,507.207 334.211,511.53 331.254,514.59C330.287,515.591 329.507,518.611 328.461,517.693C324.217,513.965 324.219,505.658 324.725,500.529C326.236,485.2 326.48,470.027 327.142,454.675C328.621,420.415 325.865,386.599 324.706,352.467C323.823,326.446 324.926,300.377 324.579,274.354C324.329,255.59 326.256,236.916 326.936,218.186C327.128,212.897 326.648,207.656 326.684,202.374C326.685,202.197 326.591,200.895 326.705,200.839C327.352,200.521 329.842,205.093 330.078,205.596C332.515,210.78 333.035,216.931 333.84,222.538C337.467,247.795 344.322,272.578 347.764,297.856C353.671,341.254 356.569,385.024 357.699,428.852C357.967,439.24 358.578,449.246 358.202,459.679C358.167,460.642 358.364,468.643 357.599,468.793C348.916,470.493 337.597,454.73 332.489,448.901C331.762,448.071 325.925,442.297 326.348,441.599C329.84,435.831 342.482,440.29 347.545,440.971C348.117,441.048 353.016,442.193 353.216,442.006C355.454,439.915 355.321,435.13 356.161,432.281C356.755,430.266 358.794,426.393 357.75,424.23C354.811,418.142 345.621,414.305 340.353,410.842C332.133,405.438 325.463,398.388 317.781,392.293C314.157,389.417 310.577,386.466 306.782,383.811C306.687,383.745 305.948,383.163 305.863,383.203C299.644,386.133 299.671,396.088 298.872,401.694C298.572,403.8 298.305,405.899 298.073,408.015C297.965,409 296.925,411.23 297.884,410.982C304.045,409.393 311.27,404.816 316.516,401.282C318.852,399.71 321.296,396.351 323.543,398.783C325.159,400.532 325.627,403.166 325.836,405.441C327.111,419.331 313.554,415.178 303.728,417.465C276.735,423.748 248.42,418.102 221.135,423.377C211.999,425.143 202.49,426.773 193.216,427.586C190.476,427.826 184.48,426.504 182.287,428.419C172.866,436.64 187.475,446.603 181.224,455.366C175.088,463.966 169.524,455.334 168.106,450.084C166.921,445.7 163.621,434.844 167.307,430.949C171.799,426.204 179.103,431.105 183.514,428.767C188.653,426.044 191.29,422.431 197.27,419.771C203.111,417.173 209.801,419.256 215.846,417.651C230.024,413.887 244.019,408.09 258.124,403.796C267.817,400.845 276.647,396.148 286.51,393.583C288.729,393.006 293.793,390.366 295.863,391.885C301.263,395.849 301.514,410.569 301.027,416.573C301.026,416.589 295.575,411.27 295.147,410.659C292.258,406.541 286.575,397.424 280.438,398.315C272.382,399.486 265.607,406.218 258.739,410.142C254.479,412.575 249.391,413.603 245.3,416.28C241.555,418.73 238.807,422.528 234.707,424.454C228.972,427.148 202.057,425.546 197.13,427.197C192.046,428.902 208.818,426.976 210.142,427.602C212.624,428.777 225.966,428.944 228.461,430.09C236.492,433.78 241.146,432.099 249.969,433.25C259.903,434.546 274.253,435.933 284.24,435.543C286.638,435.45 292.813,434.6 294.722,436.365C297.841,439.248 297.852,444.619 298.171,448.53C298.448,451.914 298.295,455.468 298.164,458.856C297.992,463.298 298.686,468.717 297.545,473.024C296.763,475.976 291.617,475.808 289.395,475.546C280.699,474.522 272.694,470.7 263.736,471.06C252.707,471.502 241.907,469.945 230.939,470.028C221.784,470.097 212.604,471.75 203.447,471.171C186.719,470.113 170.36,466.804 153.528,467.715C141.428,468.37 128.579,466.76 116.641,468.639C115.755,468.779 105.253,471.461 105.56,472.046C106.099,473.07 111.808,472.439 112.676,472.382C119.861,471.907 126.911,470.263 134.09,469.625C140.226,469.079 160.361,469.854 165.472,466.754C167.537,465.502 168.177,460.025 168.371,458.032C169.111,450.444 167.618,442.578 169.286,435.071C169.882,432.386 188.585,422.836 191.99,421.641C196.076,420.206 201.384,422.363 205.59,422.54C209.3,422.696 212.957,421.422 216.602,421.637C224.292,422.091 234.595,426.878 241.545,430.241C247.498,433.121 252.252,434.09 259.268,434.193C265.776,434.289 269.99,425.38 273.41,425.841C280.254,426.765 285.118,432.737 289.912,437.174C290.859,438.051 294.258,442.04 295.297,441.365C299.98,438.324 301.436,429.942 301.854,424.702C301.904,424.079 301.724,417.804 302.304,417.559C303.696,416.97 308.326,423.021 309.052,423.861C312.867,428.276 325.698,438.435 323.907,445.34C322.3,451.537 315.255,457.881 309.918,461.022C308.409,461.91 300.673,464.812 300.773,465.507C302.083,474.632 324.105,483.921 322.369,493.179C321.341,498.658 310.576,503.064 306.059,501.117C302.905,499.757 300.096,497.871 297.91,495.221C296.703,493.757 296.203,489.358 294.703,490.519C292.413,492.293 292.085,498.188 291.886,500.74C291.166,509.977 292.774,519.183 291.895,528.396C289.004,558.698 284.992,588.777 281.213,618.964C280.202,627.039 277.598,634.848 276.944,642.98C274.969,667.518 273.265,691.14 268.336,715.314C266.694,723.373 263.461,730.948 261.557,738.931C260.941,741.517 260.565,744.079 260.129,746.693C259.895,748.098 259.326,752.324 259.672,750.942C261.952,741.838 283.772,563.576 290.547,534.194C293.587,521.008 288.97,502.671 296.319,490.659C299.658,485.201 305.012,482.231 309.985,478.549C311.303,477.573 302.168,470.839 301.962,469.901C300.786,464.529 310.339,462.363 309.951,459.141C309.331,453.995 300.382,444.356 301.063,443.203C305.447,435.777 319.717,440.772 323.235,446.925C326.817,453.192 325.607,464.523 325.546,471.899C325.539,472.753 324.569,470.499 324.069,469.807C323.132,468.511 322.022,467.369 320.965,466.174C317.72,462.504 314.866,458.676 311.39,455.184C299.287,443.028 302.119,428.123 300.984,412.112C298.71,380.015 305.678,350.287 308.624,318.579C310.651,296.765 307.924,274.822 313.817,253.194C317.17,240.886 319.474,227.383 321.091,214.777C321.217,213.789 323.075,202.886 324.047,203.143C324.163,203.174 324.079,203.38 324.087,203.499C324.481,209.047 323.737,214.167 323.131,219.602C322.103,228.828 325.969,237.576 323.607,246.889C321.632,254.676 314.687,260.262 312.411,268.107C311.05,272.795 325.01,282.158 325.438,290.597C325.5,291.814 326.034,297.217 324.556,297.88C319.723,300.05 314.463,296.436 310.502,294.084C310.151,293.876 308.28,300.096 308.054,301.144C307.537,303.538 304.641,312.547 306.432,314.751C309.094,318.027 318.311,309.173 318.694,306.802C318.931,305.336 310.471,305.386 308.994,305.655C298.834,307.506 290.31,314.44 280.51,317.415C263.842,322.474 246.946,328.135 230.044,332.586C222.448,334.586 213.76,334.86 206.428,337.566C203.982,338.469 204.622,342.797 204.953,344.696C205.894,350.111 213.23,367.528 200.609,365.476C183.092,362.628 192.905,328.621 206.118,348.617C207.407,350.567 206.765,354.188 206.65,356.288C205.857,370.707 185.778,375.465 173.645,374.617C169.606,374.334 166.304,375.341 162.367,376.043C157.695,376.875 156.426,376.809 156.826,376.367C162.524,370.081 176.618,373.928 183.667,373.979C192.834,374.045 201.725,375.861 210.857,376.026C227.971,376.337 245.549,375.021 262.406,378.768C271.249,380.734 279.809,381.837 288.764,382.994C291.403,383.334 295.926,385.46 298.239,383.523C303.324,379.267 304.298,371.321 305.428,365.236C308.04,351.171 310.054,343.614 297.784,333.196C295.985,331.669 292.634,327.865 290.193,327.153C284.813,325.585 278.852,335.363 275.458,338.354C272.594,340.877 267.269,339.703 263.935,339.181C258.746,338.369 253.238,337.54 248.313,335.698C246.565,335.044 244.791,334.496 243.014,333.929C242.244,333.684 240.097,333.633 240.726,333.127C246.014,328.879 268.156,324.742 275.454,324.489C276.927,324.438 285.376,323.786 286.084,325.686C287.126,328.481 280.547,334.572 278.824,335.829C277.403,336.865 273.162,337.927 274.581,338.966C278.63,341.933 286.635,340.982 291.353,340.961C293.394,340.952 295.457,341.026 297.465,341.42C298.493,341.622 300.294,343.199 300.516,342.175C301.596,337.179 292.988,330.599 289.576,328.012C288.379,327.104 287.114,326.283 285.881,325.424C285.217,324.961 283.237,324.51 283.891,324.032C286.616,322.038 295.013,325.913 297.728,323.568C298.521,322.883 294.565,316.398 294.636,314.678C294.637,314.657 296.055,315.269 296.191,315.345C299.45,317.16 300.511,323.317 304.063,324.052C309.712,325.221 321.52,318.329 322.723,320.173C326.37,325.762 312.746,333.591 310.185,335.724C309.189,336.554 312.727,336.245 313.986,336.556C316.686,337.222 319.007,338.646 321.545,339.697C322.92,340.267 326.354,339.855 325.746,341.214C324.294,344.459 314.317,343.79 311.243,343.166C310.881,343.093 306.552,341.823 306.507,341.905C304.076,346.274 317.206,359.944 319.781,363.11C320.277,363.72 324.303,367.673 324.17,368.219C322.719,374.181 309.307,376.95 305.371,381.581C305.083,381.92 310.224,383.6 310.816,383.68C316.307,384.428 322.123,383.124 327.652,383.118C342.48,383.104 356.448,384.057 371.216,385.534C392.604,387.673 413.057,384.21 434.301,385.423C439.171,385.701 452.083,387.881 456.277,383.93C462.61,377.962 459.524,363.456 460.544,355.505C460.715,354.171 459.984,346.728 462.019,346.178C463.895,345.671 466.575,349.758 467.257,350.794C470.494,355.713 472.433,364.312 471.208,370.195C468.576,382.835 459.615,381.238 456.865,368.843C455.537,362.858 456.343,354.716 457.799,348.759C458.264,346.857 459.137,345.342 460.526,343.987C461.164,343.364 463.318,342.865 462.616,342.314C456.82,337.77 435.919,333.757 427.682,331.386C425.494,330.756 419.217,328.996 417.048,331.038C414.189,333.731 421.129,337.706 422.676,338.518C426.908,340.74 450.103,339.862 448.812,338.041C444.924,332.556 436.782,332.413 430.957,330.461C415.069,325.136 399.237,320.215 383.024,315.99C375.145,313.937 367.129,311.742 359.919,307.881C359.079,307.431 348.845,301.175 348.14,302.312C341.607,312.845 355.509,317.429 363.588,319.611C365.546,320.14 369.031,316.254 370.206,315.049C371.003,314.232 373.338,311.753 372.424,312.438C362.201,320.098 378.862,326.327 386.438,326.849C394.558,327.408 402.157,328.348 410.176,329.7C411.41,329.908 416.979,329.807 417.564,330.688C418.142,331.558 414.272,335.344 413.724,335.854C409.153,340.109 403.821,342.054 397.543,342.219C390.448,342.405 383.957,340.95 378.683,335.934C375.312,332.726 370.721,324.925 365.655,324.122C361.1,323.4 350.474,331.399 352.454,334.875C356.786,342.488 373.215,340.814 380.398,339.908C400.532,337.369 419.741,339.224 439.705,340.777C446.86,341.333 455.174,339.281 462.109,341.385C465.128,342.3 466.351,346.906 467.222,349.448C469.461,355.979 472.266,373.634 465.977,378.98C459.82,384.214 449.22,383.65 441.93,382.073C420.248,377.382 396.112,371.523 375.645,363.107C371.447,361.38 358.168,351.335 354.615,351.813C347.617,352.753 341.479,363.127 338.404,368.852C336.563,372.278 336.922,378.431 331.92,376.677C330.036,376.017 328.508,374.71 327.022,373.416C310.201,358.756 352.831,351.784 340.537,338.217C338.356,335.81 332.616,330.489 329.052,330.024C327.615,329.836 321.838,335.081 322.372,337.165C324.412,345.129 340.18,343.223 346.275,343.139C347.274,343.125 348.504,339.553 348.782,338.837C350.457,334.539 353.776,326.246 353.444,321.667C353.078,316.616 336.957,320.37 334.137,321.114C332.54,321.535 330.965,321.787 329.326,321.97C328.503,322.062 326.225,321.662 326.852,322.203C327.537,322.793 344.778,323.534 344.402,319.14C343.953,313.897 337.867,310.472 334.075,307.687C333.784,307.473 328.656,303.77 328.69,303.742C331.341,301.594 342.436,303.44 345.713,303.602C345.816,303.607 346.477,303.651 346.482,303.641C346.893,302.823 337.262,299.409 336.195,299.144C334.895,298.822 331.237,299.074 332.281,298.235C335.393,295.733 339.267,294.568 342.664,292.644C343.237,292.32 340.274,288.616 340.062,288.39C337.62,285.791 328.611,280.449 328.296,277.109C327.699,270.775 336.729,266.411 336.764,259.85C336.783,256.398 336.226,253.338 334.397,250.393C333.467,248.895 329.803,246.373 331.517,245.957C333.817,245.397 337.358,247.404 339.228,248.321C340.312,248.852 343.249,250.867 342.461,249.953C334.027,240.171 331.419,240.069 334.496,227.428C334.751,226.38 335.438,220.138 336.509,219.668C340.589,217.881 347.467,223.186 350.594,225.172C361.307,231.978 372.28,239.265 383.846,244.509C400.674,252.139 419.174,255.227 436.031,262.936C444.109,266.63 451.221,271.874 459.108,275.868C476.889,284.871 494.12,293.299 511.041,304.033C516.321,307.382 520.738,311.989 526.14,315.127C543.192,325.031 684.98,377.949 703.754,383.691C710.79,385.844 874.488,408.589 881.619,410.364C883.832,410.915 886.027,411.521 888.263,411.977C889.336,412.196 892.582,412.663 891.526,412.373C878.799,408.883 706.461,385.554 693.576,381.654C671.673,375.024 537.887,321.516 517.381,311.666C511.382,308.785 504.965,307.119 498.869,304.503C474.834,294.188 449.017,279.392 427.663,264.198C420.744,259.275 415.278,252.456 408.123,247.963C395.49,240.031 381.322,235.541 368.556,228.03C360.384,223.222 352.319,216.351 343.574,212.636C342.76,212.29 340.215,211.171 339.263,211.917C338.345,212.637 338.473,215.376 337.414,214.888C332.561,212.649 331.946,196.876 329.68,198.336C321.162,203.822 318.008,216.264 316.626,225.472C313.789,244.377 312.25,263.425 309.466,282.336C308.08,291.751 307.812,303.126 299.566,309.643" />
    <path style="fill:none;stroke:#fbf9c1;stroke-width:4px;" class="path" d="M777.083,583.798C737.587,578.169 699.689,555.723 663.417,540.258C619.068,521.349 571.91,508.109 528.817,486.303C499.887,471.664 474.441,448.112 442.947,439.111C435.473,436.975 428.342,433.817 421.067,431.104C415.3,428.952 409.651,426.554 403.985,424.149C399.474,422.235 394.889,420.338 390.547,418.061C379.278,412.152 366.171,405.675 356.056,397.834C352.952,395.427 349.235,390.521 351.857,386.672C357.533,378.342 373.5,378.165 382.206,377.444C409.242,375.203 435.581,376.725 462.008,382.404C511.497,393.04 554.4,421.79 600.807,440.798C628.076,451.966 657.919,455.833 686.348,463.091C722.476,472.314 757.716,483.837 794.517,490.163C825.285,495.453 855.197,493.692 886.185,494.198C897.012,494.375 907.624,493.715 918.363,492.309C918.765,492.256 934.656,488.82 934.588,488.739C923.756,475.858 878.105,480.922 862.575,480.4C838.717,479.597 814.742,482.335 790.957,481.467C748.017,479.899 704.645,470.693 662.73,461.602C639.791,456.628 616.973,450.497 594.946,442.367C566.606,431.907 539.45,417.812 512.843,403.549C500.591,396.98 487.142,385.518 473.501,382.002C454.592,377.129 433.478,379.411 414.253,380.359C402.717,380.927 371.764,376.79 363.783,386.691C353.414,399.555 376.546,402.753 375.626,407.512C374.592,412.86 369.303,418.1 364.569,420.363C363.153,421.04 361.677,421.619 360.199,422.146C359.19,422.505 356.061,423.262 357.097,422.991C376.453,417.923 395.331,429.094 413.913,431.907C420.636,432.925 427.358,433.773 434.015,435.197C436.901,435.814 439.789,436.414 442.683,436.992C443.055,437.066 444.073,436.926 443.802,437.19C441.473,439.457 430.756,438.73 427.706,438.927C412.986,439.88 398.36,441.791 383.669,442.782C376.208,443.286 368.843,444 361.38,444.292C358.747,444.396 356.145,444.712 353.505,444.423C352.609,444.325 350.302,444.662 350.843,443.941C355.126,438.235 371.038,446.977 375.221,439.684C377.397,435.89 373.312,429.577 371.005,426.75C369.591,425.018 366.553,421.313 366.69,421.471C369.918,425.219 376.998,428.52 379.28,433.009C380.87,436.136 366.082,442.488 364.602,442.74C362.176,443.152 360.038,443.376 357.757,442.36C357.611,442.295 356.924,442.095 356.923,442.101C355.475,447.364 353.87,456.109 354.815,461.666C356.076,469.082 368.001,474.502 373.344,478.018C393.929,491.564 416.377,500.203 439.962,507.135C457.966,512.427 475.549,519.343 493.733,524.029C547.094,537.782 601.453,547.431 654.627,562.268C687.006,571.303 718.325,580.042 751.853,583.301C761.36,584.225 770.031,588.443 779.565,586.224" />
</svg>
