<?xml version="1.0" encoding="UTF-8" standalone="no"?><!DOCTYPE svg PUBLIC "-//W3C//DTD SVG 1.1//EN" "http://www.w3.org/Graphics/SVG/1.1/DTD/svg11.dtd"><svg width="100%" height="100%" viewBox="0 0 768 768" version="1.1" xmlns="http://www.w3.org/2000/svg" xmlns:xlink="http://www.w3.org/1999/xlink" xml:space="preserve" xmlns:serif="http://www.serif.com/" style="fill-rule:evenodd;clip-rule:evenodd;stroke-linecap:round;stroke-linejoin:round;stroke-miterlimit:1.5;">
    <path style="fill:none;stroke:#F7F065;stroke-width:4px;" class="path" d="M72.805,544.627c25.765,3.847 61.713,-1.975 88.969,-2.36c17.775,-0.251 35.462,0.884 53.253,0.049c65.309,-3.067 130.509,-10.781 195.649,-15.886c13.068,-1.024 24.436,-5.744 37.204,-8.274c15.273,-3.027 31.244,-2.821 46.715,-1.709c27.566,1.982 53.52,9.05 80.525,14.083c23.126,4.311 46.189,6.183 69.521,8.883c16.534,1.912 34.089,2.578 50.723,3.044c5.534,0.155 11.092,0.292 16.629,0.348c0.37,0.004 0.74,-0 1.11,0.002c1.595,0.007 3.186,0.064 4.78,-0.022c0.754,-0.04 2.875,0.213 2.254,-0.217c-15.158,-10.498 -64.579,-11.261 -84.337,-14.061c-49.773,-7.052 -100.266,-14.568 -150.638,-15.397c-17.313,-0.285 -34.494,2.709 -51.795,2.867c-23.039,0.21 -45.542,-4.546 -68.446,-0.278c-6.778,1.263 -23.549,8.997 -30.062,3.724c-4.754,-3.849 -5.532,-12.517 -6.198,-18.124c-1.334,-11.245 -0.776,-22.857 1.52,-33.965c1.635,-7.911 5.092,-15.162 4.576,-23.458c-0.683,-11 -6.561,-19.866 -10.033,-30.035c-5.444,-15.941 -8.16,-32.389 -5.935,-49.214c2.024,-15.293 4.959,-31.034 3.482,-46.503c-0.833,-8.733 2.058,-35.624 3.266,-45.983c0.383,-3.29 4.217,3.182 6.224,3.685c9.664,2.425 18.42,11.941 25.919,18.06c20.008,16.326 42.512,23.197 64.685,35.078c19.531,10.466 35.737,24.297 54.065,36.487c10.713,7.124 21.902,12.27 32.964,18.679c0.959,0.555 9.528,5.695 8.816,6.957c-1.148,2.034 -10.181,-1.337 -11.627,-1.835c-11.849,-4.08 -22.294,-10.735 -32.537,-17.794c-17.194,-11.849 -35.9,-21.857 -53.733,-32.731c-18.23,-11.116 -35.283,-23.505 -54.744,-32.55c-8.913,-4.142 -17.97,-8.222 -26.554,-13.027c-1.5,-0.839 -7.052,-5.38 -8.932,-4.862c-0.784,0.216 1.408,0.814 2.099,1.242c1.423,0.881 2.769,1.867 4.101,2.877c4.2,3.182 8.513,6.172 12.678,9.408c12.681,9.852 25.974,18.887 38.627,28.771c11.808,9.224 25.011,16.524 36.712,25.804c17.666,14.01 33.664,29.395 52.526,41.799c4.092,2.69 26.59,18.988 29.627,14.789c3.926,-5.427 -0.53,-11.99 -3.203,-16.823c-1.043,-1.888 -2.231,-3.722 -3.547,-5.432c-0.42,-0.545 -1.212,-2.313 -1.27,-1.627c-0.978,11.676 6.174,24.002 -9.613,17.686c-12.198,-4.88 1.141,-18.918 -1.291,-25.543c-0.142,-0.388 -1.836,-0.734 -2.24,-0.845c-4.938,-1.354 -11.11,0.306 -15.962,1.544c-0.381,0.097 -5.111,1.182 -5.108,1.342c0.083,5.109 10.825,12.15 14.772,14.077c0.207,0.102 -1.618,-3.573 -1.978,-3.986c-0.948,-1.087 -1.974,-2.172 -3.119,-3.055c-3.068,-2.366 -6.333,-3.721 -9.952,-4.967c-0.576,-0.198 -5.435,-2.306 -5.413,-2.336c2.429,-3.373 10.054,-4.528 13.934,-5.218c0.168,-0.03 1.996,-0.275 2.012,-0.38c0.544,-3.761 -12.497,-3.888 -14.438,-3.82c-1.457,0.052 -2.911,0.143 -4.369,0.205c-0.482,0.021 -1.787,-0.092 -1.429,0.231c1.079,0.975 7.205,-0.173 8.654,-0.278c1.536,-0.112 5.158,1.073 4.606,-0.365c-2.026,-5.27 -25.584,-17.48 -31.879,-20.626c-8.255,-4.124 -17.15,-7.202 -25.209,-11.619c-16.136,-8.846 -31.267,-20.698 -46.649,-30.823c-8.559,-5.634 -20.1,-17.866 -30.666,-19.024c-1.359,-0.149 4.027,10.043 4.185,10.242c6.082,7.635 15.583,14.971 23.718,20.243c23.474,15.212 47.521,29.193 69.204,47.033c6.317,5.197 13.281,9.66 19.847,14.547c2.214,1.648 4.621,3.11 6.94,4.61c1.17,0.756 4.36,3.41 3.457,2.349c-11.108,-13.048 -49.287,0.636 -65.688,0.118c-14.275,-0.45 -29.684,-1.105 -43.685,-3.903c-2.069,-0.413 -13.024,-4.336 -14.655,-2.225c-0.068,0.088 1.436,1.298 1.604,1.43c3.672,2.877 8.377,4.337 12.946,5.006c11.14,1.633 22.481,1.192 33.699,0.819c0.481,-0.016 9.943,-0.324 10.042,0.331c0.649,4.296 -5.654,15.909 -10.312,16.258c-11.093,0.83 -31.11,-17.38 -41.926,-12.294c-5.84,2.745 -6.095,12.09 -6.783,17.487c-2.042,15.996 -0.321,33.08 0.73,49.154c0.468,7.147 0.099,14.312 0.621,21.452c0.168,2.281 0.253,4.56 0.363,6.843c0.058,1.209 -0.428,4.582 0.302,3.617c5.058,-6.683 2.435,-18.431 2.304,-25.992c-0.283,-16.204 2.675,-31.892 3.586,-47.991c0.785,-13.858 -6.688,-27.371 13.352,-25.215c5.327,0.573 21.399,3.658 25.426,7.846c8.645,8.989 5.132,46.061 4.784,58.099c-0.258,8.897 0.376,17.739 0.783,26.623c0.134,2.914 0.104,5.834 0.262,8.747c0.085,1.571 -0.764,5.692 0.457,4.699c6.035,-4.903 7.075,-17.301 6.972,-24.349c-0.095,-6.476 -1.575,-12.896 -2.277,-19.32c-1.196,-10.95 -3.898,-50.154 2.127,-60.06c2.292,-3.769 7.971,-6.057 12.032,-7.106c5.383,-1.391 11.299,-0.776 16.276,1.698c18.565,9.228 8.676,26.261 9.813,42.494c1.477,21.093 4.791,41.537 4.958,62.79c0.046,5.903 -3.781,20.643 0.048,25.63c7.975,10.384 32.259,12.382 44.546,13.492c0.639,0.058 0.623,-10.626 0.616,-11.128c-0.17,-12.636 -1.345,-25.225 -1.607,-37.852c-0.443,-21.295 1.461,-42.463 0.61,-63.693c-0.242,-6.045 1.98,-14.347 -0.072,-20.144c-1.932,-5.458 -7.3,-9.344 -11.78,-12.565c-3.852,-2.769 -7.719,-6.169 -12.416,-7.355c-3.954,-0.998 -11.191,-3.163 -15.159,-1.759c-2.135,0.756 -3.606,3.584 -4.481,5.469c-4.68,10.077 9.368,22.685 17.802,21.339c0.36,-0.058 -0.649,-0.333 -0.971,-0.504c-2.523,-1.337 -4.842,-3.003 -7.394,-4.301c-5.624,-2.86 -11.485,-5.196 -16.965,-8.345c-15.695,-9.02 -29.825,-19.795 -45.231,-29.217c-16.451,-10.06 -33.483,-19.117 -49.764,-29.379c-8.332,-5.252 -29.28,-23.126 -35.721,-8.427c-4.473,10.21 -1.229,25.393 -1.379,36.267c-0.455,32.969 3.334,65.708 1.715,98.647c-0.388,7.886 -6.153,37.852 0.952,43.46c17.111,13.506 43.768,10.106 63.562,9.39c15.678,-0.567 31.727,1.421 47.296,2.995c27.731,2.804 55.27,8.195 83.003,11.403c40.972,4.739 82.253,4.416 123.208,8.326c23.796,2.271 46.713,7.624 70.71,8.384c13.014,0.411 25.604,-7.347 38.528,-6.89c1.381,0.048 -2.379,1.414 -3.636,1.987c-2.929,1.336 -5.853,2.468 -8.929,3.424c-8.411,2.613 -17.141,4.802 -25.871,6.02c-28.11,3.922 -56.38,2.946 -84.267,9.589c-62.759,14.949 -127.869,13.039 -191.388,22.192c-16.148,2.327 -32.023,3.208 -48.203,4.602c-3.464,0.299 -12.997,-0.701 -15.748,1.571c-0.817,0.675 6.55,4.767 6.976,4.94c6.833,2.78 14.832,4.18 22.115,5.161c20.792,2.799 41.083,5.046 61.533,10.059c6.892,1.69 13.832,3.31 20.75,4.89c2.265,0.516 4.703,1.322 7.042,1.384c1.096,0.028 4.201,0.643 3.289,0.035c-7.321,-4.882 -19.66,-6.281 -28.11,-8.337c-23.412,-5.698 -47.709,-7.401 -70.774,-14.622c-2.589,-0.811 -28.486,-8.788 -30.896,-5.801c-3.732,4.624 -0.046,11.579 2.877,15.475c7.952,10.601 21.504,15.671 32.604,22.136c4.088,2.381 8.447,4.215 12.672,6.323c1.531,0.763 3.03,1.591 4.543,2.389c0.51,0.269 2.067,0.747 1.501,0.859c-19.578,3.874 -34.679,-9.999 -49.976,-19.37c-11.377,-6.969 -23.931,-12.242 -35.614,-18.741c-41.377,-23.016 -61.178,-25.726 -107.569,-19.388c-46.93,6.412 -93.116,17.291 -140.042,23.389c-10.222,1.328 -20.682,1.358 -30.978,1.173c-0.78,-0.014 -10.59,-0.641 -10.563,-1.493c0.081,-2.587 10.144,-5.382 12.026,-5.893c13.837,-3.758 29.851,-3.457 44.109,-3.336c42.921,0.366 86.211,-6.944 128.588,-13.08c6.439,-0.933 43.615,-5.29 47.758,-8.609c0.043,-0.034 -1.206,-0.818 -1.425,-0.926c-3.992,-1.985 -8.899,-1.862 -13.245,-1.728c-9.4,0.291 -18.751,1.355 -28.139,1.767c-28.972,1.272 -58.881,5.579 -87.894,3.527c-7.144,-0.506 -14.714,-0.365 -21.877,0.075c-2.516,0.155 -5.015,0.497 -7.514,0.817c-1.185,0.151 -4.436,1.221 -3.561,0.407c3.973,-3.696 27.994,-6.199 34.219,-7.402c29.721,-5.743 59.183,-10.655 89.178,-14.65c9.506,-1.267 18.946,-3.09 28.443,-4.452c1.706,-0.245 8.198,0.199 9.204,-0.925c1.662,-1.857 2.572,-4.145 3.345,-6.481c2.926,-8.842 -7.115,-7.298 -14.098,-7.43c-15.482,-0.292 -31.253,3.373 -46.562,5.377c-5.505,0.72 -10.985,1.638 -16.501,2.273c-2.365,0.272 -4.696,0.7 -7.018,1.215c-0.591,0.131 -2.259,0.017 -1.776,0.381c2.891,2.177 12.765,0.837 16.199,0.609c15.155,-1.006 30.189,-3.201 45.377,-3.94c21.19,-1.032 42.394,-0.8 63.578,-1.924c36.496,-1.935 72.733,-6.048 109.212,-7.976c29.021,-1.534 29.456,-5.891 56.915,3.368c2.117,0.714 15.261,5.836 15.286,5.912c0.802,2.456 -6.074,6.624 -7.43,7.407c-9.602,5.542 -19.853,7.139 -30.547,9.359c-45.421,9.428 -91.68,8.453 -137.586,14.122c-12.212,1.507 -24.617,2.128 -36.771,3.967c-0.781,0.118 -11.027,2.112 -11.347,1.16c-0.718,-2.134 8.788,-5.986 9.983,-6.402c11.98,-4.171 24.882,-4.472 37.381,-5.79c44.365,-4.678 89.565,-0.991 133.7,-8.342c10.2,-1.699 20.333,-3.143 30.207,-6.305c0.158,-0.05 9.268,-2.632 9.29,-3.12c0.092,-1.97 -8.142,-4.825 -9.534,-5.315c-10.564,-3.725 -21.132,-5.483 -32.234,-6.506c-16.418,-1.513 -32.012,0.958 -48.294,2.309c-29.75,2.469 -59.624,4.958 -89.195,9.118c-4.395,0.619 -29.292,2.54 -31.786,4.944c-3.285,3.165 -4.697,8.596 -5.493,12.943c-0.302,1.648 -0.461,3.313 -0.596,4.982c-0.05,0.611 -0.285,2.408 -0.059,1.838c4.665,-11.772 0.901,-27.915 1.091,-40.163c0.273,-17.677 -1.445,-35.097 -1.492,-52.701c-0.041,-15.667 1.377,-31.279 1.071,-46.966c-0.21,-10.756 -1.679,-21.263 -2.652,-31.958c-0.129,-1.413 -0.149,-9.438 -1.191,-9.555c-16.774,-1.891 -12.474,17.982 -11.946,29.771c0.518,11.594 0.682,22.96 0.492,34.331c-0.009,0.561 4.8,14.18 7.361,-1.651c2.513,-15.54 2.778,-60.536 2.796,-59.986c2.484,78.424 -9.318,66.657 -9.394,68.857c-0.279,8.018 -1.75,18.776 -2.38,26.947c-0.505,6.549 0.474,20.47 -3.686,25.899c-8.611,11.237 -35.422,-0.22 -47.041,-0.982c-4.346,-0.285 -4.738,-26.178 -4.919,-29.169c-1.533,-25.428 -1.212,-51.537 1.215,-76.817c0.321,-3.341 -2.271,-18.892 -1.778,-19.871c3.609,-7.168 36.997,-2.111 43.698,-1.41c3.476,0.364 6.899,0.909 10.337,1.517c0.048,0.008 3.434,6.397 4.929,6.266c1.772,-0.155 -3.585,-4.672 -1.617,-6.031c3.281,-2.265 13.601,-1.773 13.586,-1.808c-3.102,-7.007 -42.816,-11.403 -66.401,-10.539c-0.981,0.036 -3.034,8.329 -3.955,8.383c-0.742,0.044 -0.364,-8.154 -1.064,-8.098c-2.373,0.189 -9.753,1.909 -11.529,2.244c-4.959,0.936 1.089,163.623 -8.425,164.997c-2.081,0.3 12.124,-24.172 13.527,-59.942c1.692,-43.125 -2.148,-101.917 -1.138,-102.801c4.446,-3.892 16.63,-12.905 21.826,-15.639c8.918,-4.694 17.487,-10.299 26.705,-14.383c14,-6.202 28.346,-9.899 41.961,-17.12c6.239,-3.31 12.697,-6.095 18.977,-9.308c2.071,-1.059 4.538,-5.428 5.98,-3.601c2.442,3.096 -0.729,12.082 -1.669,15.289c-4.136,14.109 -2.28,26.571 -5.376,40.989c-1.306,6.081 -2.004,11.993 -2.093,18.209c-0.028,1.974 -0.064,3.976 0.118,5.945c0.091,0.987 0.412,3.931 0.445,2.94c0.606,-18.325 9.58,-94.895 -4.168,-86.41c-111.393,68.747 7.522,-3.756 17.819,-9.255c5.03,-2.686 14.028,-8.678 19.961,-8.098c0.382,0.037 -1.223,0.632 -5.503,1.973c-4.151,1.3 -5.892,3.349 -7.533,7.705c-3.358,8.914 -3.569,17.959 -4.514,27.322c-0.313,3.099 -0.647,6.197 -0.989,9.294c-0.163,1.472 -0.883,5.766 -0.232,4.436c7.899,-16.15 4.754,-45.678 3.291,-64.005c-0.353,-4.418 0.515,-8.149 -3.828,-10.486c-1.577,-0.848 -3.344,-1.371 -5.107,-1.662c-0.868,-0.143 -3.37,0.266 -2.632,-0.214c6.095,-3.962 16.786,-4.69 23.796,-5.901c0.69,-0.119 7.367,-1.548 7.565,-1.182c0.676,1.249 -7.907,9.725 -8.732,10.622c-7.232,7.866 -15.066,15.203 -22.257,23.088c-1.324,1.452 -6.905,6.358 -6.936,8.566c-0.01,0.702 12,0.168 18.201,-1.826c4.232,-1.361 8.378,-2.985 12.588,-4.414c6.049,-2.054 13.914,-2.859 19.671,-5.477c0.377,-0.172 -7.787,-6.658 -10.125,-8.18c-7.952,-5.176 -17.809,-8.55 -26.726,-11.712c-1.569,-0.557 -8.673,-2.492 -9.115,-4.023c-0.163,-0.566 1.225,-1.972 1.502,-2.278c5.337,-5.901 23.103,-10.98 30.999,-8.168c2.589,0.922 7.014,9.572 9.909,11.474c10.489,6.89 22.844,10.96 34.052,16.557c11.432,5.709 19.887,14.828 30.299,21.965c23.626,16.196 47.539,32.235 71.895,47.233c7.112,4.38 13.95,12.493 21.812,15.495c14.751,5.634 48.695,-4.289 63.521,-1.349c11.871,2.353 20.197,17.458 31.196,22.472c4.645,2.117 8.412,-1.159 12.808,-1.292c6.295,-0.19 13.237,8.421 15.237,13.736c0.481,1.28 -2.488,-1.134 -3.716,-1.736c-2.327,-1.142 -4.771,-2.222 -6.844,-3.802c-0.711,-0.542 -1.023,-2.287 -1.848,-1.943c-3.868,1.612 -6.539,8.491 -7.845,12.12c-0.661,1.838 -1.05,3.749 -1.444,5.658c-0.024,0.117 0.026,0.42 -0.071,0.351c-3.263,-2.323 -1.783,-10.992 -3.375,-14.273c-2.539,-5.234 -10.704,-5.781 -15.743,-6.199c-3.518,-0.291 -6.314,-2 -8.456,1.407c-2.632,4.186 -2.373,9.612 -3.497,14.302c-6.234,26.016 -3.42,37.831 0.657,63.083c0.591,3.662 2.627,27.663 -0.843,29.425c-0.433,0.22 -0.731,-0.643 -1.068,-0.993c-6.062,-6.285 -8.39,-15.645 -9.949,-23.937c-2.593,-13.792 -0.077,-45.901 1.234,-60.501c0.561,-6.256 -0.341,-16.047 2.514,-21.962c5.723,-11.854 32.262,-14.483 43.447,-8.802c3.201,1.625 4.767,4.913 6.277,7.954c0.177,0.357 2.299,4.647 2.704,4.381c1.913,-1.258 2.86,-6.949 4.967,-9.01c3.318,-3.244 8.408,-3.71 12.752,-4.387c0.261,-0.04 2.217,-0.217 2.247,-0.341c2.826,-11.689 -21.072,-17.443 -25.484,-22.403c-0.875,-0.985 2.537,-0.716 3.826,-0.985c2.774,-0.579 5.617,-0.803 8.433,-1.081c8.508,-0.837 17.066,-2.377 25.598,-2.791c11.535,-0.561 55.699,-7.22 65.275,-4.531c12.615,3.541 21.781,17.624 34.361,20.506c3.742,0.857 3.086,-10.784 2.57,-12.181c-1.72,-4.656 -5.364,-7.835 -8.81,-11.188c-17.434,-16.961 -30.839,-6.112 -50.639,-3.41c-40.054,5.468 -83.782,3.319 -121.137,20.922c-15.32,7.219 -37.238,5.747 -53.918,6.574c-2.847,0.141 -21.623,3.021 -15.9,-4.301c4.637,-5.933 14.167,-7.371 21.109,-8.877c17.984,-3.901 36.524,-5.187 54.598,-8.82c16.469,-3.31 36.608,-7.845 52.837,-10.115c14.462,-2.024 28.555,-5.882 42.929,-8.013c1.594,-0.236 3.898,-0.735 6.31,-1.078c1.264,-0.179 -21.751,-21.642 -50.257,-51.544c-1.602,-1.681 -177.477,-143.134 -179.115,-144.85c-1.217,-1.275 176.625,140.088 175.391,138.797c-29.857,-31.239 -68.412,-72.176 -89.494,-94.095c-0.696,-0.724 -24.455,-18.999 -39.308,-30.491c-0.307,-0.238 5.203,6.543 12.248,15.176c0.522,0.639 63.158,57.973 63.694,58.63c0.52,0.637 -61.06,-55.404 -60.529,-54.754c11.619,14.226 25.485,31.159 25.038,30.813c-0.773,-0.599 -44.376,-52.906 -45.076,-53.449c-4.124,-3.2 -6.876,-5.356 -7.092,-5.581c-2.038,-2.12 41.679,21.072 39.963,19.282c-7.272,-7.583 -8.98,-0.563 -8.63,-0.346c1.309,0.812 172.561,171.171 175.705,175.96c10.015,15.254 1.501,33.756 0.088,44.397c-2.581,19.442 3.569,37.678 2.997,56.902c-0.344,11.579 -4.93,22.782 -6.18,34.319c-1.328,12.26 1.141,25.085 1.9,37.345c0.615,9.946 -0.542,19.894 -2.623,29.604c-0.281,1.31 -2.91,9.054 -2.041,10.287c7.787,11.051 38.255,8.979 50.352,9.956c4.693,0.379 9.292,1.005 13.917,1.886c2.741,0.522 7.441,1.255 7.43,1.271c-0.89,1.247 -11.618,-1.706 -13.188,-1.974c-8.214,-1.397 -16.5,-0.867 -24.736,-1.917c-6.41,-0.817 -12.725,-3.339 -19.22,-3.396c-6.793,-0.06 -13.799,0.971 -20.545,-0.278c-1.479,-0.274 -7.397,-2.921 -8.677,-2.376c-3.609,1.538 -9.081,18.441 -11.234,22.608c-0.994,1.923 -1.882,3.892 -2.719,5.888c-0.365,0.871 -0.408,3.252 -1.1,2.61c-5.639,-5.231 -1.508,-21.925 -1.811,-28.461c-0.639,-13.758 -4.522,-27.711 -5.457,-41.641c-0.811,-12.061 1.408,-24.133 1.887,-36.168c0.508,-12.749 0.427,-25.484 1.204,-38.231c0.264,-4.323 0.335,-8.65 0.557,-12.974c0.019,-0.359 0.476,-6.082 0.849,-5.923c7.197,3.063 9.125,31.762 10.115,38.767c4.285,30.312 5.821,59.214 4.525,89.615c-0.436,10.217 0.038,26.147 -8.003,34.214c-4.005,4.018 -7.312,-6.341 -7.651,-8.053c-0.852,-4.296 1.531,-15.824 0.664,-17.114c-2.199,-3.267 -13.386,-3.158 -16.845,-3.624c-17.743,-2.392 -35.581,-3.522 -53.452,-4.333c-19.671,-0.893 -39.494,-1.508 -59.173,-2.007c-6.534,-0.165 -18.662,1.396 -22.827,-5.204c-0.663,-1.05 9.073,-2.432 9.478,-2.452c9.991,-0.507 20.026,1.978 29.841,3.454c25.195,3.79 50.582,7.401 75.962,9.717c6.685,0.611 13.348,1.431 20.034,2.035c1.042,0.094 10.248,0.593 9.896,0.031c-3.799,-6.073 -14.538,-7.846 -20.829,-9.334c-17.768,-4.204 -35.511,-9.26 -53.943,-9.077c-7.449,0.073 -15.028,1.183 -22.453,1.871c-2.4,0.223 -4.775,0.463 -7.191,0.508c-1.339,0.026 -5.344,-0.184 -4.019,0.019c20.871,3.212 42.085,4.315 63.02,7.116c15.494,2.073 31.597,5.959 47.316,5.129c12.925,-0.683 26.095,-1.145 38.827,-3.515c4.001,-0.745 8.184,-0.902 12.038,-2.278c1.813,-0.648 3.56,-1.419 5.474,-1.745c0.509,-0.087 1.716,-0.684 1.535,-0.201c-2.44,6.504 -16.134,10.047 -22.122,11.421c-11.759,2.699 -24.66,3.907 -36.801,3.587c-2.902,-0.076 -10.815,-3.27 -13.36,-1.519c-4.728,3.252 -6.186,12.637 -7.627,17.611c-1.088,3.755 -2.58,9.172 -2.341,12.978c0.005,0.079 0.051,-0.15 0.074,-0.226c0.633,-2.038 1.176,-4.097 1.648,-6.178c0.811,-3.582 1.581,-7.261 2.014,-10.917c1.29,-10.893 1.365,-23.793 0.052,-34.637c-1.642,-13.56 -4.709,-27.313 -4.951,-41.001c-0.198,-11.171 1.982,-22.223 1.982,-33.374c-0.001,-11.112 -1.633,-22.175 -0.114,-33.28c1.701,-12.438 6.269,-29.346 2.217,-41.889c-2.37,-7.335 -9.556,-12.265 -14.7,-17.62c-18.937,-19.713 -46.148,-28.256 -68.278,-44.115c-30.133,-21.594 -56.36,-48.951 -87.169,-69.635c-7.579,-5.088 -14.302,-11.234 -21.757,-16.386c-9.114,-6.3 -19.178,-11.031 -27.819,-18.047c-4.91,-3.987 -12.865,-13.568 -19.637,-9.477c-5.388,3.255 -14.265,10.522 -17.664,16.052c-0.482,0.783 1.019,4.031 1.362,4.786c0.865,1.899 2.213,3.784 3.928,5.643c0.104,0.112 1.145,0.79 2.948,1.926c0.706,0.445 1.528,0.959 2.456,1.538c0.058,0.036 7.066,-0.322 6.915,1.84c-0.117,1.682 -15.558,-14.133 -14.732,-13.972c1.156,0.226 16.297,13.75 17.459,14.008c2.626,0.581 5.002,1.213 5.925,1.767c0.636,0.381 -10.11,-0.366 -9.348,0.09c21.587,12.934 91.909,54.996 93.539,56.004c2.218,1.371 -89.983,-53.688 -87.245,-52.004c30.755,18.918 90.398,55.215 91.421,56.088c1.711,1.458 -102.003,-60.839 -99.978,-59.425c12.107,8.456 28.769,16.035 37.253,21.716c16.564,11.092 32.987,22.287 49.135,33.946c5.334,3.852 10.639,7.754 15.909,11.72c17.994,13.541 34.861,29.213 53.793,41.378c17.524,11.261 32.95,24.615 51.34,34.66c9.548,5.215 12.509,6.674 23.514,2.863c0.578,-0.2 8.121,-2.405 8.066,-3.055c-0.437,-5.235 -7.902,-9.947 -11.506,-12.892c-2.995,-2.448 -15.837,-12.923 -19.908,-14.451c-5.762,-2.163 -21.201,6.222 -28.029,5.409c-0.252,-0.03 3.238,-4.19 3.736,-4.56c3.483,-2.585 7.84,-3.867 12.045,-4.718c1.454,-0.294 2.884,-0.688 4.322,-1.048c0.548,-0.137 2.175,-0.146 1.654,-0.365c-9.029,-3.802 -19.254,2.461 -28.2,1.451c-5.276,-0.596 -11.265,-9.28 -14.827,-12.785c-19.85,-19.527 -39.119,-40.412 -55.096,-63.293c-6.729,-9.638 -11.773,-17.851 -22.331,-24.054c-2.269,-1.333 -4.596,-2.551 -6.832,-3.941c-1.232,-0.765 -3.063,-3.811 -3.59,-2.459c-2.97,7.62 2.701,18.396 6.974,24.301c12.473,17.236 28.597,31.298 42.938,46.824c6.114,6.619 11.907,11.652 18.888,17.433c2.332,1.93 4.594,3.976 6.734,6.118c1.06,1.061 3.636,4.689 3.045,3.311c-5.365,-12.503 -15.286,-19.439 -24.463,-28.468c-13.689,-13.466 -27.512,-26.726 -43.747,-37.288c-14.787,-9.621 -31.472,-16.591 -46.672,-25.616c-12.043,-7.15 -22.828,-15.328 -31.173,-26.66c-1.675,-2.275 -7.123,-8.816 -5.287,-12.333c4.803,-9.2 32.248,9.625 37.337,13.065c10.072,6.807 17.408,19.619 27.819,25.324c1.761,0.965 6.361,-2.139 8.548,-2.158c5.069,-0.044 10.186,2.406 14.697,4.485c23.723,10.935 45.953,30.018 66.229,46.323c11.755,9.454 23.706,18.683 35.861,27.621c4.142,3.046 8.267,6.454 12.08,9.899c1.489,1.346 2.901,2.796 4.308,4.228c0.408,0.416 1.765,1.443 1.21,1.263c-15.422,-5.002 -41.491,-28.34 -55.046,-39.271c-10.989,-8.863 -23.801,-15.402 -34.501,-24.544c-18.012,-15.39 -32.613,-34.504 -50.716,-49.637c-9.798,-8.19 -21.455,-11.963 -32.192,-18.487c-8.046,-4.888 -13.062,-15.731 -22.014,-19.184c-2.416,-0.932 -12.893,11.863 -14.627,14.197c-9.463,12.747 -18.963,25.077 -29.597,36.846c-2.814,3.115 -6.737,10.522 -10.346,12.545c-0.667,0.373 1.237,-1.306 1.04,-2.045c-0.47,-1.761 -3.882,-3.71 -5.281,-4.622c-3.196,-2.084 -14.122,-4.522 -12.013,-9.534c3.764,-8.942 13.913,-12.098 22.279,-14.997c0.407,-0.141 10.689,-3.047 10.705,-3.502c0.127,-3.582 -8.99,-10.505 -12.287,-11.481c-4.606,-1.363 -10.196,4.942 -12.519,8.112c-7.251,9.898 -12.224,21.198 -19.604,30.986c-2.718,3.605 -9.882,7.951 -11.148,12.28c-0.113,0.387 3.816,-2.338 5.776,-3.754c3.706,-2.678 7.568,-5.171 11.116,-8.059c1.057,-0.86 2.696,-0.938 4.002,-1.212c0.593,-0.124 2.241,-0.764 1.782,-0.368c-2.196,1.896 -6.054,2.807 -8.518,4.745c-13.587,10.689 -27.214,22.694 -42.269,31.139c-20.421,11.455 -42.371,19.449 -63.289,29.931c-12.438,6.233 -24.133,13.648 -36.349,20.277c-4.825,2.618 -13.39,5.483 -16.483,10.421c-6.229,9.943 -5.768,37.964 -5.962,49.831c-0.533,32.665 -5.503,65.121 -6.142,97.746c-0.319,16.26 0.934,32.023 2.229,48.214c0.419,5.246 0.95,10.487 1.391,15.733c0.153,1.827 0.248,3.659 0.413,5.485c0.059,0.661 0.172,2.643 0.215,1.981c1.406,-21.523 -6.394,-43.546 -8.647,-64.705c-2.722,-25.565 0.304,-54.215 4.086,-79.569c2.69,-18.029 7.171,-36.312 11.236,-54.089c0.34,-1.485 1.593,-4.363 2.805,-7.458c0.862,-2.202 10.634,178.288 8.591,178.071c-11.064,-1.173 -6.137,-187.842 -6.262,-188.902c-1.204,-10.196 -25.365,7.184 -34.982,11.704c-1.366,0.643 -16.64,6.956 -15.352,8.823c0.466,0.675 5.476,-0.05 8.372,-0.824c0.571,-0.152 -2.28,84.646 -1.685,84.47c0.856,-0.253 0.839,-84.195 1.685,-84.47c3.291,-1.069 7.995,-3.149 8.536,-3.343c8.328,-2.979 16.521,-9.644 23.272,-15.163c2.089,-1.708 -1.88,-3.29 1.133,-6.21c2.931,-2.841 12.856,-7.015 14.121,-9.085c0.795,-1.301 -30.396,13.287 -41.397,17.327c-0.917,0.337 -6.662,10.996 -7.379,11.243c-2.002,0.692 1.778,-9.365 1.983,-9.658c0.704,-1.009 44.148,-21.161 44.956,-22.116c1.04,-1.228 2.186,-2.401 3.49,-3.493c24.778,-20.743 54.277,-37.21 82.38,-52.96c16.533,-9.265 32.06,-20.064 48.275,-29.85c5.171,-3.121 10.74,-5.462 16.304,-7.772c2.014,-0.835 3.992,-1.784 5.921,-2.798c0.739,-0.389 3.034,-1.232 2.199,-1.203c-10.293,0.35 -31.069,12.87 -42.027,17.064c-18.158,6.949 -37.466,11.117 -54.554,20.642c-11.014,6.139 -20.35,15.247 -30.668,22.454c-16.71,11.672 -34.888,22.263 -52.464,32.564c-17.506,10.26 -34.422,20.819 -51.292,32.136c-5.75,3.858 -11.05,8.359 -17.163,11.654c-2.187,1.178 -4.446,2.222 -6.78,3.073c-1.218,0.444 -3.884,2.432 -3.718,1.146c0.992,-7.649 12.169,-15.353 17.742,-19.556c16.643,-12.55 34.184,-24.707 52.628,-34.535c36.195,-19.288 69.989,-42.785 104.857,-64.295c13.068,-8.061 27.277,-13.677 40.045,-22.266c13.229,-8.898 24.543,-20.385 37.696,-29.353c7.497,-5.112 16.049,-8.17 23.928,-12.572c5.135,-2.869 9.868,-9.162 15.439,-10.991c1.626,-0.534 -1.143,3.235 -1.891,4.775c-1.631,3.353 -3.548,6.571 -5.593,9.686c-5.29,8.053 -11.625,18.956 -19.9,24.46c-16.955,11.278 -39.334,15.881 -58.256,23.279c-5.557,2.173 -18.886,5.496 -22.543,10.953c-1.019,1.519 3.67,0.009 5.48,-0.257c3.727,-0.546 7.375,-1.777 10.916,-3.018c9.732,-3.412 18.872,-8.324 28.449,-12.129c25.981,-10.323 66.185,-24.894 83.91,-46.801c6.571,-8.121 118.258,-121.551 125.343,-129.211c0.939,-1.016 -20.997,23.672 -44.668,48.445c-1.272,1.33 310.086,215.99 308.791,217.347c-0.976,1.022 -312.024,-216.071 -312.772,-215.14c-30.354,37.751 -72.667,76.699 -77.756,84.249c-3.208,4.761 -6.463,9.675 -8.861,14.905c-0.866,1.888 -1.471,3.874 -2.026,5.872c-0.194,0.699 -1.077,2.454 -0.426,2.134c8.682,-4.264 6.149,-14.63 2.849,-21.725c-0.697,-1.5 -3.642,-9.593 -4.582,-8.036c-5.916,9.802 -0.5,26.756 -2.822,37.796c-2.136,10.153 -23.834,31.51 -31.762,38.92c-2.842,2.656 -7.369,8.674 -10.867,10.184c-3.853,1.663 -10.454,-5.671 -13.11,-7.493c-0.41,-0.281 -2.189,8.281 -2.253,9.026c-0.744,8.623 -0.045,17.298 -1.112,25.937c-0.324,2.622 -0.775,5.248 -1.284,7.841c-0.018,0.09 -0.002,0.09 -0.119,0.031c-6.247,-3.143 -6.765,-12.19 -6.327,-18.218c1.077,-14.824 7.309,-31.407 16.403,-43.036c3.76,-4.808 7.636,-9.755 10.926,-14.906c0.079,-0.124 1.017,-1.398 0.94,-1.514c-1.498,-2.244 -19.311,2.569 -21.594,3.318c-19.185,6.298 -38.667,11.538 -57.902,17.632c-1.237,0.392 -17.586,7.656 -17.704,8.899c-0.052,0.557 1.026,-0.449 1.535,-0.683c2.665,-1.226 5.262,-2.602 7.76,-4.141c5.538,-3.411 10.698,-7.426 15.863,-11.369c16.449,-12.558 33.178,-23.893 51.04,-34.374c5.802,-3.405 11.997,-6.061 17.779,-9.476c1.945,-1.149 3.863,-2.409 5.686,-3.743c0.884,-0.647 3.631,-2.356 2.585,-2.029c-37.49,11.753 -76.329,28.669 -110.333,48.352c-27.229,15.762 -49.445,33.245 -78.969,45.605c-20.989,8.786 -41.637,18.992 -62.113,28.92c-6.501,3.152 -13.165,5.978 -19.345,9.746c-2.541,1.549 -5.031,3.179 -7.555,4.753c-0.956,0.595 -3.155,2.848 -2.885,1.755c1.221,-4.95 11.094,-10.158 14.873,-12.661c12.452,-8.25 25.359,-15.241 38.368,-22.535c51.665,-28.966 103.166,-58.646 156.922,-83.659c22.714,-10.569 47.11,-19.675 68.141,-33.501c4.784,-3.145 9.021,-7.106 12.857,-11.337c1.431,-1.578 2.877,-3.14 4.183,-4.825c0.455,-0.587 43.959,-28.424 43.348,-28.002c-7.982,5.526 -36.101,25.508 -47.798,22.994c-7.389,-1.588 -34.746,10.87 -41.845,13.679c-16.67,6.594 -30.561,17.376 -46.199,25.874c-25.252,13.723 -51.363,26.596 -75.774,41.763c-16.5,10.251 -32.259,21.449 -48.578,31.931c-5.416,3.478 -10.557,7.345 -16.278,10.331c-2.042,1.065 -4.075,2.13 -6.057,3.304c-0.935,0.554 -3.752,2.188 -2.782,1.698c29,-14.651 55.757,-32.447 83.774,-48.803c21.739,-12.69 44.463,-23.766 66.869,-35.21c17.186,-8.778 34.128,-17.913 51.502,-26.316c5.54,-2.68 11.174,-5.145 16.649,-7.956c3.936,-2.02 7.483,-5.237 7.291,-5.239c-21.8,-0.285 -48.48,10.57 -68.037,19.04c-45.289,19.615 -87.876,45.754 -132.436,67.085c-20.779,9.947 -43.411,20.385 -60.975,35.591c-5.269,4.561 -9.803,9.868 -14.631,14.872c-1.78,1.846 -3.545,3.707 -5.335,5.544c-1.071,1.099 -4.67,3.759 -3.205,3.304c12.304,-3.822 22.435,-14.652 32.642,-22.04c25.042,-18.127 49.524,-37.022 75.715,-53.507c33.69,-21.205 70.918,-36.899 107.848,-51.431c12.149,-4.781 25.048,-8.393 36.916,-13.803c9.36,-4.266 17.897,-13.52 25.856,-19.394c0.842,-0.621 9.378,-6.579 22.116,-15.427c3.484,-2.42 -116.821,59.652 -112.78,56.849c1.803,-1.25 127.758,-67.241 129.651,-68.553c19.389,-13.437 43.183,-29.877 64.564,-44.549c1.127,-0.773 -96.907,48.096 -95.794,47.333c0.734,-0.503 120.46,-62.01 121.187,-62.508c0.161,-0.111 -3.066,1.754 -7.205,4.171c-0.145,0.085 -4.39,3.898 -10.256,9.185c-0.199,0.179 -3.104,4.061 -4.011,5.397c-0.882,1.299 16.559,-14.793 15.239,-12.779c-1.184,1.805 -18.807,18.64 -20.167,20.734c-5.972,9.187 -12.86,19.856 -13.7,20.614c-0.716,0.646 16.991,-28.872 16.252,-28.205c-13.143,11.858 -29.326,26.481 -29.624,26.655c-1.422,0.833 41.883,-39.033 40.414,-38.167c-4.852,2.859 -9.478,5.624 -10.69,6.464c-14.744,10.227 -65.835,46.003 -72.673,55.445c-2.057,2.841 61.844,-35.502 59.422,-32.22c-22.963,31.115 -59.403,78.481 -54.694,75.249c1.249,-0.858 99.249,-119.963 100.412,-120.762c5.384,-3.698 15.068,-1.145 27.792,5.93c3.31,1.84 6.825,3.986 10.523,6.407c53.265,34.87 198.036,172.906 260.952,230.146c20.458,18.613 -188.781,-149.015 -248.243,-198.257c-3.251,-2.692 -31.707,-23.675 -24.787,-14.259c6.976,9.493 39.939,34.782 56.14,52.423c10.385,11.308 40.792,53.52 59.84,81.032c17.073,24.66 140.193,126.137 176.768,137.174c13.122,3.959 -185.603,-146.919 -231.939,-181.397c-2.912,-2.166 -0.52,-5.97 1.705,-8.824c1.841,-2.361 -51.755,-59.124 -68.23,-73.779c-3.034,-2.699 -2.135,26.852 -2.447,35.156c-0.025,0.681 7.606,5.627 9.061,7.103c0.771,0.783 -2.2,-34.903 -4.952,-46.412c-0.462,-1.931 -62.701,73.574 -87.682,103.248c-4.382,5.205 -13.272,-10.819 -19.762,-12.983c-14.467,-4.823 20.673,-35.034 33.956,-45.709c1.187,-0.954 -24.86,31.172 -33.906,41.799c-1.725,2.026 18.461,-10.697 29.782,-18.518c3.297,-2.277 46.242,-41.273 52.158,-50.776c1.467,-2.357 -53.63,20.567 -64.035,29.295c-6.596,5.533 12.562,2.973 17.626,-2.576c0.084,-0.092 37.965,-18.789 38.759,-20.299c0.169,-0.319 -37.028,17.107 -36.835,16.738c3.989,-7.629 14.563,-33.911 19.655,-33.868c5.341,0.045 12.04,7.413 16.519,10.191c0.584,0.362 2.943,-1.694 4.667,-2.987c0.548,-0.411 -9.106,-8.749 -14.302,-13.851c-1.133,-1.112 9.825,-13.321 15.163,-16.674c0.985,-0.618 2.363,24.367 2.783,32.416c0.035,0.673 3.12,0.603 4.189,0.342c1.385,-0.338 1.429,-18.402 0.317,-26.965c-0.12,-0.926 -4.275,-8.482 -2.97,-12.021c0.585,-1.587 1.472,-3.021 2.427,-4.234c1.406,-1.787 11.582,-18.019 15.301,-23.874c4.009,-6.313 -13.24,18.748 -20.645,28.648c-0.535,0.716 2.452,3.85 6.391,7.53c0.249,0.232 1.505,-3.118 1.761,-2.882c0.667,0.616 0.352,4.829 1.05,5.46c4.128,3.731 8.603,7.577 11.051,9.807c0.936,0.853 3.4,-6.561 7.407,-8.417c0.579,-0.268 -12.529,-13.607 -18.47,-16.984c-1.058,-0.601 -1.797,2.292 -2.053,5.09c-0.182,1.99 23.09,20.165 17.168,16.879"/><g id="Layer1"></g></svg>