<?xml version="1.0" encoding="UTF-8" standalone="no"?>
<!DOCTYPE svg PUBLIC "-//W3C//DTD SVG 1.1//EN" "http://www.w3.org/Graphics/SVG/1.1/DTD/svg11.dtd">
<svg width="100%" height="100%" viewBox="0 0 100 121" version="1.1" xmlns="http://www.w3.org/2000/svg" xmlns:xlink="http://www.w3.org/1999/xlink" xml:space="preserve" xmlns:serif="http://www.serif.com/" style="fill-rule:evenodd;clip-rule:evenodd;stroke-linejoin:round;stroke-miterlimit:2;">
    <g id="path4611" transform="matrix(1.63666,0,0,1.63666,-3.99345,19.4195)">
        <path d="M33,29.77C41.2,29.77 46.44,27.38 46.44,25.74C46.44,24.1 41.2,21.71 33,21.71C24.8,21.71 19.57,24.09 19.56,25.74L19.56,25.76C19.58,27.39 24.81,29.77 33,29.77Z" style="fill-rule:nonzero;"/>
    </g>
    <g id="path4613" transform="matrix(1.63666,0,0,1.63666,-3.99345,19.4195)">
        <path d="M19.56,34.79C19.56,35.31 20.15,35.96 21.17,36.55C21.6,36.8 22.11,37.04 22.69,37.26C25.31,38.26 29.06,38.84 33,38.84C36.94,38.84 40.69,38.27 43.31,37.26C43.88,37.04 44.4,36.8 44.84,36.55C45.86,35.97 46.45,35.32 46.45,34.79L46.45,28.7C43.66,30.65 38.22,31.67 33,31.67C27.79,31.67 22.36,30.65 19.56,28.71L19.56,34.79ZM21.67,33.31C21.9,32.83 22.47,32.63 22.95,32.86C24.63,33.67 26.71,34.13 28.98,34.19C29.51,34.2 29.92,34.64 29.92,35.16C29.9,35.68 29.48,36.1 28.97,36.1L28.94,36.1C26.4,36.03 24.04,35.51 22.12,34.58C21.64,34.36 21.44,33.79 21.67,33.31Z" style="fill-rule:nonzero;"/>
    </g>
    <g id="path4617" transform="matrix(1.63666,0,0,1.63666,-3.99345,19.4195)">
        <path d="M19.56,43.84C19.56,45.49 24.8,47.88 33,47.88C41.21,47.88 46.45,45.49 46.45,43.84L46.45,37.79C46.25,37.93 46.03,38.07 45.79,38.21C45.26,38.51 44.65,38.79 43.99,39.04C41.17,40.12 37.16,40.74 33,40.74C28.84,40.74 24.83,40.12 22.01,39.04C21.34,38.78 20.74,38.51 20.22,38.21C19.98,38.07 19.76,37.93 19.56,37.79L19.56,43.84ZM21.67,42.36C21.9,41.89 22.47,41.69 22.95,41.92C24.63,42.72 26.71,43.18 28.98,43.24C29.51,43.25 29.92,43.69 29.92,44.22C29.9,44.74 29.48,45.15 28.97,45.15L28.94,45.15C26.4,45.08 24.04,44.57 22.12,43.64C21.64,43.41 21.44,42.84 21.67,42.36Z" style="fill-rule:nonzero;"/>
    </g>
    <g id="path4619" transform="matrix(1.63666,0,0,1.63666,-3.99345,19.4195)">
        <path d="M60.58,22.19C58.65,20.28 56.1,19.22 53.4,19.22C52.96,19.22 52.59,18.93 52.47,18.51C50.91,12.62 45.56,8.51 39.46,8.51C39.03,8.51 38.62,8.53 38.2,8.57C37.87,8.6 37.53,8.45 37.34,8.17C34.81,4.59 30.7,2.45 26.32,2.45C18.88,2.45 12.84,8.49 12.84,15.92C12.84,16.65 12.9,17.39 13.02,18.12C13.07,18.39 12.99,18.66 12.82,18.87C12.65,19.08 12.4,19.21 12.12,19.22C6.69,19.47 2.44,23.92 2.44,29.37C2.44,34.95 6.99,39.51 12.59,39.51L17.64,39.51L17.64,25.74C17.64,21.88 25.55,19.8 32.99,19.8C40.4,19.8 48.25,21.86 48.33,25.67C48.34,25.7 48.35,25.72 48.35,25.74L48.35,39.52L53.39,39.52C58.98,39.52 63.54,34.97 63.54,29.38C63.55,26.67 62.49,24.12 60.58,22.19ZM26.33,6.39C21.92,6.39 18.11,9.39 17.07,13.67C16.97,14.11 16.57,14.4 16.14,14.4C16.06,14.4 15.99,14.39 15.91,14.37C15.39,14.25 15.09,13.73 15.21,13.22C16.46,8.07 21.03,4.48 26.32,4.48C26.84,4.48 27.27,4.91 27.27,5.43C27.28,5.97 26.85,6.39 26.33,6.39Z" style="fill-rule:nonzero;"/>
    </g>
</svg>
