<?xml version="1.0" encoding="UTF-8" standalone="no"?>
<!DOCTYPE svg PUBLIC "-//W3C//DTD SVG 1.1//EN" "http://www.w3.org/Graphics/SVG/1.1/DTD/svg11.dtd">
<svg width="100%" height="100%" viewBox="0 0 100 100" version="1.1" xmlns="http://www.w3.org/2000/svg" xmlns:xlink="http://www.w3.org/1999/xlink" xml:space="preserve" xmlns:serif="http://www.serif.com/" style="fill-rule:evenodd;clip-rule:evenodd;stroke-linejoin:round;stroke-miterlimit:2;">
    <g transform="matrix(6.12323e-17,-1,1,6.12323e-17,0,100)">
        <circle cx="40.839" cy="6.018" r="1.018"/>
        <circle cx="44.506" cy="6.018" r="1.018"/>
        <circle cx="37.172" cy="9.685" r="1.018"/>
        <circle cx="40.839" cy="9.685" r="1.018"/>
        <circle cx="44.506" cy="9.685" r="1.018"/>
        <circle cx="48.169" cy="9.685" r="1.018"/>
        <circle cx="51.836" cy="9.685" r="1.018"/>
        <circle cx="55.498" cy="9.685" r="1.018"/>
        <circle cx="59.165" cy="9.685" r="1.018"/>
        <circle cx="62.828" cy="9.685" r="1.018"/>
        <circle cx="66.495" cy="9.685" r="1.018"/>
        <circle cx="40.839" cy="13.348" r="1.018"/>
        <circle cx="44.506" cy="13.348" r="1.018"/>
        <circle cx="48.169" cy="13.348" r="1.018"/>
        <circle cx="51.836" cy="13.348" r="1.018"/>
        <circle cx="55.498" cy="13.348" r="1.018"/>
        <circle cx="59.165" cy="13.348" r="1.018"/>
        <circle cx="62.828" cy="13.348" r="1.018"/>
        <circle cx="66.495" cy="13.348" r="1.018"/>
        <circle cx="70.157" cy="13.348" r="1.018"/>
        <circle cx="40.839" cy="17.015" r="1.018"/>
        <circle cx="44.506" cy="17.015" r="1.018"/>
        <circle cx="48.169" cy="17.015" r="1.018"/>
        <circle cx="51.836" cy="17.015" r="1.018"/>
        <circle cx="55.498" cy="17.015" r="1.018"/>
        <circle cx="59.165" cy="17.015" r="1.018"/>
        <circle cx="62.828" cy="17.015" r="1.018"/>
        <circle cx="66.495" cy="17.015" r="1.018"/>
        <circle cx="70.157" cy="17.015" r="1.018"/>
        <circle cx="40.839" cy="20.677" r="1.018"/>
        <circle cx="44.506" cy="20.677" r="1.018"/>
        <circle cx="48.169" cy="20.677" r="1.018"/>
        <circle cx="51.836" cy="20.677" r="1.018"/>
        <circle cx="55.498" cy="20.677" r="1.018"/>
        <circle cx="59.165" cy="20.677" r="1.018"/>
        <circle cx="62.828" cy="20.677" r="1.018"/>
        <circle cx="66.495" cy="20.677" r="1.018"/>
        <circle cx="40.839" cy="24.344" r="1.018"/>
        <circle cx="44.506" cy="24.344" r="1.018"/>
        <circle cx="48.169" cy="24.344" r="1.018"/>
        <circle cx="51.836" cy="24.344" r="1.018"/>
        <circle cx="55.498" cy="24.344" r="1.018"/>
        <circle cx="59.165" cy="24.344" r="1.018"/>
        <circle cx="62.828" cy="24.344" r="1.018"/>
        <circle cx="40.839" cy="28.011" r="1.018"/>
        <circle cx="44.506" cy="28.011" r="1.018"/>
        <circle cx="48.169" cy="28.011" r="1.018"/>
        <circle cx="51.836" cy="28.011" r="1.018"/>
        <circle cx="55.498" cy="28.011" r="1.018"/>
        <circle cx="59.165" cy="28.011" r="1.018"/>
        <circle cx="62.828" cy="28.011" r="1.018"/>
        <circle cx="40.839" cy="31.674" r="1.018"/>
        <circle cx="44.506" cy="31.674" r="1.018"/>
        <circle cx="48.169" cy="31.674" r="1.018"/>
        <circle cx="51.836" cy="31.674" r="1.018"/>
        <circle cx="55.498" cy="31.674" r="1.018"/>
        <circle cx="59.165" cy="31.674" r="1.018"/>
        <circle cx="62.828" cy="31.674" r="1.018"/>
        <circle cx="40.839" cy="35.341" r="1.018"/>
        <circle cx="44.506" cy="35.341" r="1.018"/>
        <circle cx="48.169" cy="35.341" r="1.018"/>
        <circle cx="51.836" cy="35.341" r="1.018"/>
        <circle cx="55.498" cy="35.341" r="1.018"/>
        <circle cx="59.165" cy="35.341" r="1.018"/>
        <circle cx="62.828" cy="35.341" r="1.018"/>
        <circle cx="37.172" cy="39.003" r="1.018"/>
        <circle cx="40.839" cy="39.003" r="1.018"/>
        <circle cx="44.506" cy="39.003" r="1.018"/>
        <circle cx="48.169" cy="39.003" r="1.018"/>
        <circle cx="51.836" cy="39.003" r="1.018"/>
        <circle cx="55.498" cy="39.003" r="1.018"/>
        <circle cx="59.165" cy="39.003" r="1.018"/>
        <circle cx="37.172" cy="42.67" r="1.018"/>
        <circle cx="40.839" cy="42.67" r="1.018"/>
        <circle cx="44.506" cy="42.67" r="1.018"/>
        <circle cx="48.169" cy="42.67" r="1.018"/>
        <circle cx="51.836" cy="42.67" r="1.018"/>
        <circle cx="55.498" cy="42.67" r="1.018"/>
        <circle cx="59.165" cy="42.67" r="1.018"/>
        <circle cx="62.828" cy="42.67" r="1.018"/>
        <circle cx="37.172" cy="46.337" r="1.018"/>
        <circle cx="40.839" cy="46.337" r="1.018"/>
        <circle cx="44.506" cy="46.337" r="1.018"/>
        <circle cx="48.169" cy="46.337" r="1.018"/>
        <circle cx="51.836" cy="46.337" r="1.018"/>
        <circle cx="55.498" cy="46.337" r="1.018"/>
        <circle cx="59.165" cy="46.337" r="1.018"/>
        <circle cx="62.828" cy="46.337" r="1.018"/>
        <circle cx="37.172" cy="50" r="1.018"/>
        <circle cx="40.839" cy="50" r="1.018"/>
        <circle cx="44.506" cy="50" r="1.018"/>
        <circle cx="48.169" cy="50" r="1.018"/>
        <circle cx="51.836" cy="50" r="1.018"/>
        <circle cx="55.498" cy="50" r="1.018"/>
        <circle cx="33.509" cy="53.663" r="1.018"/>
        <circle cx="37.172" cy="53.663" r="1.018"/>
        <circle cx="40.839" cy="53.663" r="1.018"/>
        <circle cx="44.506" cy="53.663" r="1.018"/>
        <circle cx="48.169" cy="53.663" r="1.018"/>
        <circle cx="51.836" cy="53.663" r="1.018"/>
        <circle cx="55.498" cy="53.663" r="1.018"/>
        <circle cx="33.509" cy="57.33" r="1.018"/>
        <circle cx="37.172" cy="57.33" r="1.018"/>
        <circle cx="40.839" cy="57.33" r="1.018"/>
        <circle cx="44.506" cy="57.33" r="1.018"/>
        <circle cx="48.169" cy="57.33" r="1.018"/>
        <circle cx="51.836" cy="57.33" r="1.018"/>
        <circle cx="55.498" cy="57.33" r="1.018"/>
        <circle cx="59.165" cy="57.33" r="1.018"/>
        <circle cx="29.843" cy="60.997" r="1.018"/>
        <circle cx="33.509" cy="60.997" r="1.018"/>
        <circle cx="37.172" cy="60.997" r="1.018"/>
        <circle cx="40.839" cy="60.997" r="1.018"/>
        <circle cx="44.506" cy="60.997" r="1.018"/>
        <circle cx="48.169" cy="60.997" r="1.018"/>
        <circle cx="51.836" cy="60.997" r="1.018"/>
        <circle cx="55.498" cy="60.997" r="1.018"/>
        <circle cx="59.165" cy="60.997" r="1.018"/>
        <circle cx="29.843" cy="64.659" r="1.018"/>
        <circle cx="33.509" cy="64.659" r="1.018"/>
        <circle cx="37.172" cy="64.659" r="1.018"/>
        <circle cx="40.839" cy="64.659" r="1.018"/>
        <circle cx="44.506" cy="64.659" r="1.018"/>
        <circle cx="48.169" cy="64.659" r="1.018"/>
        <circle cx="51.836" cy="64.659" r="1.018"/>
        <circle cx="55.498" cy="64.659" r="1.018"/>
        <circle cx="59.165" cy="64.659" r="1.018"/>
        <circle cx="33.509" cy="68.326" r="1.018"/>
        <circle cx="40.839" cy="68.326" r="1.018"/>
        <circle cx="44.506" cy="68.326" r="1.018"/>
        <circle cx="48.169" cy="68.326" r="1.018"/>
        <circle cx="51.836" cy="68.326" r="1.018"/>
        <circle cx="55.498" cy="68.326" r="1.018"/>
        <circle cx="40.839" cy="71.993" r="1.018"/>
        <circle cx="44.506" cy="71.993" r="1.018"/>
        <circle cx="48.169" cy="71.993" r="1.018"/>
        <circle cx="51.836" cy="71.993" r="1.018"/>
        <circle cx="55.498" cy="71.993" r="1.018"/>
        <circle cx="59.165" cy="71.993" r="1.018"/>
        <circle cx="40.839" cy="75.656" r="1.018"/>
        <circle cx="44.506" cy="75.656" r="1.018"/>
        <circle cx="48.169" cy="75.656" r="1.018"/>
        <circle cx="51.836" cy="75.656" r="1.018"/>
        <circle cx="55.498" cy="75.656" r="1.018"/>
        <circle cx="59.165" cy="75.656" r="1.018"/>
        <circle cx="62.828" cy="75.656" r="1.018"/>
        <circle cx="40.839" cy="79.318" r="1.018"/>
        <circle cx="44.506" cy="79.318" r="1.018"/>
        <circle cx="48.169" cy="79.318" r="1.018"/>
        <circle cx="51.836" cy="79.318" r="1.018"/>
        <circle cx="55.498" cy="79.318" r="1.018"/>
        <circle cx="40.839" cy="82.985" r="1.018"/>
        <circle cx="44.506" cy="82.985" r="1.018"/>
        <circle cx="48.169" cy="82.985" r="1.018"/>
        <circle cx="51.836" cy="82.985" r="1.018"/>
        <circle cx="55.498" cy="82.985" r="1.018"/>
        <circle cx="40.839" cy="86.652" r="1.018"/>
        <circle cx="44.506" cy="86.652" r="1.018"/>
        <circle cx="48.169" cy="86.652" r="1.018"/>
        <circle cx="51.836" cy="86.652" r="1.018"/>
        <circle cx="55.498" cy="86.652" r="1.018"/>
        <circle cx="37.172" cy="90.315" r="1.018"/>
        <circle cx="40.839" cy="90.315" r="1.018"/>
        <circle cx="44.506" cy="90.315" r="1.018"/>
        <circle cx="48.169" cy="90.315" r="1.018"/>
        <circle cx="51.836" cy="90.315" r="1.018"/>
        <circle cx="55.498" cy="90.315" r="1.018"/>
        <circle cx="51.836" cy="93.982" r="1.018"/>
    </g>
</svg>
