<?xml version="1.0" encoding="UTF-8" standalone="no"?><!DOCTYPE svg PUBLIC "-//W3C//DTD SVG 1.1//EN" "http://www.w3.org/Graphics/SVG/1.1/DTD/svg11.dtd"><svg width="100%" height="100%" viewBox="0 0 100 100" version="1.1" xmlns="http://www.w3.org/2000/svg" xmlns:xlink="http://www.w3.org/1999/xlink" xml:space="preserve" xmlns:serif="http://www.serif.com/" style="fill-rule:evenodd;clip-rule:evenodd;stroke-linejoin:round;stroke-miterlimit:2;"><path id="sunnovaInstall" d="M93.451,80.651c-0.989,-7.585 -2.628,-18.352 -5.419,-24.26c-1.377,-2.845 -3.993,-4.89 -7.073,-5.529c4.211,-2.625 6.321,-7.677 5.234,-12.54c0.55,-0.125 1.036,-0.451 1.362,-0.914c0.363,-0.534 0.497,-1.192 0.371,-1.826c-1.478,-7.389 -5.91,-11.371 -12.616,-11.538c-1.295,-2.759 -4.118,-4.481 -7.148,-4.364l-47.855,0c-3.712,0 -6.966,2.315 -7.409,5.27l-6.285,41.971c-0.319,1.941 0.235,3.928 1.51,5.421c1.464,1.639 3.569,2.556 5.759,2.509l35.275,0c0.329,2.59 2.552,4.546 5.147,4.531l14.767,-0.222l0.056,1.935c0.035,1.538 1.305,2.783 2.834,2.778l18.682,0c1.554,0 2.832,-1.286 2.832,-2.849c0,-0.125 -0.008,-0.249 -0.024,-0.373Zm-19.342,-29.651c-4.952,-0.23 -9.047,-4.082 -9.608,-9.038l20.012,-3.325c0.167,0.736 0.25,1.488 0.25,2.243c0,5.561 -4.548,10.137 -10.076,10.137c-0.192,-0 -0.384,-0.006 -0.576,-0.017l-0.002,0Zm-16.397,-8.784c0.067,0.415 0.427,0.722 0.845,0.722c0.047,-0 0.094,-0.004 0.14,-0.012l4.088,-0.679c0.615,4.962 4.274,9.029 9.121,10.138l-15.287,-0l-0.792,-15.869l4.992,-0c-0.018,0.197 -0.036,0.395 -0.05,0.59c-0.049,0.688 -0.738,1.348 -1.404,1.987c-0.877,0.841 -1.871,1.794 -1.653,3.123Zm-0.263,26.805l-0.744,-14.912l14.454,-0c-0.847,0.933 -1.513,2.016 -1.963,3.197l-0.002,0.002l-0.002,0.005l-0.007,0.015l-0.001,0.009c-0.14,0.369 -0.783,2.59 -2.101,7.169l-1.271,4.395l-8.363,0.12Zm28.796,-33.099c0.037,0.175 0,0.358 -0.101,0.505c-0.093,0.138 -0.237,0.231 -0.4,0.258l-25.837,4.293c0.189,-0.206 0.412,-0.419 0.64,-0.638c1.012,-0.753 1.703,-1.867 1.932,-3.113c0.473,-6.867 3.24,-10.218 9.249,-11.207c1.075,-0.184 2.163,-0.28 3.255,-0.285c6.124,0.001 9.907,3.416 11.262,10.187Zm-18.083,-14.518c2.098,-0.059 4.09,0.952 5.291,2.684c-0.652,0.047 -1.315,0.117 -2.003,0.23c-7.504,1.237 -9.715,5.904 -10.425,10.474l-5.285,-0l-0.669,-13.388l13.091,0Zm-33.049,0l18.242,0l0.669,13.388l-19.579,-0l0.668,-13.388Zm-0.754,15.112l19.751,-0l0.792,15.869l-21.336,-0l0.793,-15.869Zm-19.767,-11.309c0.315,-2.097 2.878,-3.803 5.715,-3.803l13.09,0l-0.669,13.388l-19.571,-0l1.435,-9.585Zm16.223,47.92l-16.933,-0c-1.693,0.056 -3.326,-0.643 -4.46,-1.91c-0.946,-1.114 -1.355,-2.594 -1.114,-4.039l1.957,-13.069l21.499,-0l-0.949,19.018Zm-20.292,-20.742l2.377,-15.869l19.742,-0l-0.792,15.869l-21.327,-0Zm22.958,1.724l21.507,-0l0.745,14.937l-1.601,0.024c-2.364,0.047 -4.405,1.733 -4.908,4.057l-16.692,-0l0.949,-19.018Zm58.004,27.656c-0.215,0.247 -0.525,0.387 -0.85,0.385l-18.674,-0c-0.606,-0 -1.108,-0.495 -1.12,-1.105l-0.06,-2.062c1.696,-0.429 3.062,-1.699 3.622,-3.365l2.006,-6.749c0.027,-0.085 0.041,-0.174 0.041,-0.263c-0,-0.473 -0.387,-0.862 -0.857,-0.862c-0.383,0 -0.723,0.259 -0.826,0.631l-1.997,6.721c-0.462,1.368 -1.735,2.305 -3.171,2.333l-15.383,0.229c-1.867,-0.004 -3.402,-1.553 -3.402,-3.432c0,-1.857 1.498,-3.395 3.345,-3.432l12.312,-0.178c0.375,-0.005 0.704,-0.257 0.81,-0.619l1.448,-5.011c0.904,-3.141 1.929,-6.699 2.056,-7.04l0.001,-0.007l0.005,-0.009c1.255,-3.352 4.457,-5.588 8.019,-5.596c3.256,-0.015 6.246,1.854 7.675,4.798c2.687,5.686 4.293,16.274 5.268,23.743c0.043,0.322 -0.054,0.647 -0.268,0.89Z" style="fill-rule:nonzero;"/></svg>