<?xml version="1.0" encoding="UTF-8" standalone="no"?><!DOCTYPE svg PUBLIC "-//W3C//DTD SVG 1.1//EN" "http://www.w3.org/Graphics/SVG/1.1/DTD/svg11.dtd"><svg width="100%" height="100%" viewBox="0 0 100 100" version="1.1" xmlns="http://www.w3.org/2000/svg" xmlns:xlink="http://www.w3.org/1999/xlink" xml:space="preserve" xmlns:serif="http://www.serif.com/" style="fill-rule:evenodd;clip-rule:evenodd;stroke-linejoin:round;stroke-miterlimit:2;"><path id="path4467" d="M43.978,43.505c0.072,-0.075 0.147,-0.174 0.221,-0.249c-0.124,0.398 -0.174,0.822 -0.174,1.245c0,1.519 0.666,2.84 1.972,3.91c1.305,1.096 2.857,1.646 4.705,1.646c1.846,-0 3.424,-0.551 4.728,-1.646c1.308,-1.07 1.972,-2.391 1.972,-3.91c0,-1.096 -0.344,-2.092 -1.009,-2.962c0.294,0.173 0.59,0.372 0.861,0.548c1.726,1.27 2.61,2.788 2.686,4.583c0.073,1.468 -0.444,2.764 -1.502,3.884l1.403,0.847l4.458,0l0,3.513l0.889,0l-0,-2.168l4.704,0l11.529,11.681c0.516,-0.921 1.182,-1.742 2.019,-2.516c1.799,-1.618 3.893,-2.59 6.283,-2.889l-0,3.016c-1.331,1.319 -3.005,1.767 -5.051,1.344c-0.048,0.051 -0.098,0.098 -0.147,0.124c-0.788,0.673 -1.403,1.396 -1.847,2.191l2.489,2.491l7.316,-0l0,-61.696l-54.148,-0l-31.062,51.509l18.007,0l-0,20.424l21.579,0l-0,11.433l11.208,0l-0,-4.608c-1.305,-0.474 -2.463,-1.245 -3.497,-2.267l-0,-11.879c-1.552,-0.624 -2.563,-1.794 -3.03,-3.513c-2.069,-0.648 -4.138,-0.499 -6.207,0.447l-1.773,-1.793l-0,-2.539l4.777,-9.615l1.996,-0.872c-1.774,-0.174 -3.35,-0.772 -4.704,-1.767c-0.666,-0.5 -1.232,-1.047 -1.65,-1.621c-0.667,-0.872 -1.011,-1.867 -1.061,-2.987c-0.05,-1.223 0.295,-2.343 1.06,-3.339Zm-7.417,-12.877c1.159,-0 2.145,0.423 2.957,1.245c0.812,0.823 1.231,1.819 1.231,2.989c0,1.17 -0.418,2.141 -1.231,2.963c-0.813,0.823 -1.799,1.246 -2.957,1.246c-1.157,0 -2.117,-0.423 -2.93,-1.246c-0.813,-0.822 -1.232,-1.793 -1.232,-2.963c-0,-1.171 0.419,-2.167 1.232,-2.989c0.813,-0.821 1.774,-1.245 2.93,-1.245Z" style="fill-rule:nonzero;"/><path id="path4469" d="M82.676,65.696l-1.256,-1.27c-0.765,1.322 -1.159,2.766 -1.159,4.36c-0,0.249 0.025,0.499 0.051,0.748c0.172,2.316 1.231,4.309 3.127,5.953c1.455,1.27 3.13,2.066 5.001,2.416c0.838,0.15 1.724,0.223 2.637,0.198c0.466,-0.025 0.935,-0.048 1.404,-0.098c0.073,-0.026 0.172,-0.026 0.246,-0.051l0,-1.345c-0.074,0.026 -0.172,0.026 -0.246,0.026c-0.469,0.049 -0.938,0.073 -1.429,0.073c-0.911,-0 -1.799,-0.099 -2.611,-0.299c-1.453,-0.348 -2.758,-0.995 -3.917,-1.966c-1.626,-1.371 -2.512,-3.015 -2.66,-4.907c-0.024,-0.2 -0.024,-0.398 -0.024,-0.573c-0,-1.197 0.27,-2.293 0.836,-3.265Z" style="fill-rule:nonzero;"/><path id="path4471" d="M50.898,56.78c-0.296,0 -0.542,0.101 -0.738,0.299c-0.198,0.2 -0.296,0.448 -0.296,0.722c0,0.275 0.098,0.523 0.296,0.748c0.196,0.174 0.441,0.275 0.738,0.275c0.271,-0 0.493,-0.101 0.714,-0.275c0.173,-0.225 0.272,-0.473 0.272,-0.748c-0,-0.274 -0.098,-0.522 -0.272,-0.722c-0.221,-0.197 -0.443,-0.299 -0.714,-0.299Z" style="fill-rule:nonzero;"/><path id="path4473" d="M62.354,85.897l-0,3.961l3.917,0l0,-4.533c-1.404,0.349 -2.712,0.548 -3.917,0.572Z" style="fill-rule:nonzero;"/><path id="path4475" d="M70.557,83.606l0,6.251l15.15,0c-1.478,-1.047 -2.415,-2.639 -2.834,-4.757l-5.616,0l0,-1.121c-1.971,-1.045 -4.212,-1.169 -6.7,-0.373Z" style="fill-rule:nonzero;"/></svg>