<?xml version="1.0" encoding="UTF-8" standalone="no"?>
<!DOCTYPE svg PUBLIC "-//W3C//DTD SVG 1.1//EN" "http://www.w3.org/Graphics/SVG/1.1/DTD/svg11.dtd">
<svg width="100%" height="100%" viewBox="0 0 100 100" version="1.1" xmlns="http://www.w3.org/2000/svg" xmlns:xlink="http://www.w3.org/1999/xlink" xml:space="preserve" xmlns:serif="http://www.serif.com/" style="fill-rule:evenodd;clip-rule:evenodd;stroke-linejoin:round;stroke-miterlimit:2;">
    <g transform="matrix(1,0,0,1,-0.005,0.01)">
        <path d="M98,50.43L97.15,48.52L96.47,45.84L94.56,43.66L94.56,30.66L92.68,30.66L91.49,29.8L88.68,28.47L88,27.91L86.1,27.91L85.32,28.91L83.62,28.91L82.14,27.91L81.27,27.91L80.82,28.08L80.55,27.93L80.3,27.93L79.52,28.93L78.52,28.93L78.06,29.57L77.54,28.79L76.3,27.98L75.79,28.14L75.46,27.95L74.98,28.14L73.74,27.47L72.26,29.57L71.07,27.8L70,28.08L68.2,27L67.47,27.68L65.89,27.68L65.22,26.43L64.42,25.43L63.42,25.43L62.21,25.9L61.5,25.28L59.24,25.28L58.17,24.72L55.93,24.72L55.93,23L55.51,22.73L52.76,22.73L50.87,21.1L49.78,21.1L49.78,3.48L28.45,3.48L28.45,44.48L7.17,44.48L7.17,44.56L1.55,44.56L1.55,45.56L1.79,45.56L2.79,46.73L3.62,47.56L4.09,48.43L5.23,49.11L5.94,49.3L6.87,50.47L7.58,51.24L8.75,52.11L9.87,53.43L11.27,53.96L12.45,55.13L13.36,55.81L14.13,57.54L14.68,58.47L15.45,59.53L15.45,61.43L16,62.52L16,63.52L17.44,65L18.56,65.47L19.68,66.8L20.98,67.41L21.98,67.76L23.34,68.64L24.5,69.21L25.28,69.95L26.69,70.09L27.4,69.51L28.18,68.51L28.37,68.42L28.6,68.58L29.35,68.25L28.96,67.25L29.5,66.25L29.62,65.34L30.78,64.05L31.32,63.68L32.79,63.34L33.55,62.72L34.12,63L36.6,63L37.37,63.39L38.37,63.39L38.62,63.33L38.84,63.15L40,63.15L40.43,63.53L40.43,64L40.87,64.6L41.07,65.37L42.52,65.8L43.91,67.17L45.19,68.57L45.61,69.3L46,70.43L46.62,71.36L47.11,72.72L48,74.07L48.56,75.68L48.96,76.68L49.78,77.21L50.35,77.83L51.35,79.06L52,80.28L53,81.34L54.07,81.67L54.31,84.35L54.9,84.85L54.9,87L55.46,87.42L55.58,87.97L55.85,88.89L56.45,89.89L57.07,90.89L57.55,91.5L58.55,91.99L59.75,92.67L60.52,93.3L61.84,93.6L62.65,93.85L63.65,94.72L66.65,94.72L68.32,95.43L69.42,96.11L69.96,96.5L70.73,96.17L71.55,95.17L71.55,94.92L71.73,94.92L71.73,93.34L70.9,89.78L70.47,88.21L70.47,85.77L71,83.58L71.81,81.8L73,80.24L74,78.24L75.42,77.07L76.9,76L79.49,74.52L81.49,73.58L83.49,72.39L85.62,71.17L87,69.5L89,68.11L90.83,66.43L92.5,65.56L94.57,64.56L96.18,64.4L96.18,63L95.79,62.22L96.79,61.1L97.25,60.24L97.25,57L97.52,55.56L98.38,53.8L98.38,51.41L98,50.43ZM98.13,53.7L97.28,55.45L97,57L97,60.18L96.62,60.9L95.43,62.19L95.91,63.08L95.91,64.08L94.59,64.21L92.42,65.29L90.73,66.17L88.87,67.87L86.87,69.26L85.4,70.87L83.3,72.07L81.3,73.27L79.3,74.2L76.7,75.7L75.18,76.78L73.72,78L72.72,80.07L71.59,81.64L70.75,83.49L70.31,85.75L70.31,88.26L70.75,89.89L71.57,93.4L71.57,94.58L69.67,94.58L68.67,93.75L67.78,93.47L66.51,93.17L65.74,92.56L64.53,91.87L63.53,91.4L63.09,90.84L61.88,88.84L61.59,88L61.46,87.38L60.92,86.98L60.92,84.78L60.33,84.28L60.09,81.68L60.09,81.56L58.94,81.2L57.94,80.2L57.24,79L56.24,77.76L55.68,77.14L54.86,76.62L54.5,75.62L53.91,74L53.1,72.7L52.59,71.3L52,70.4L51.59,69.23L51.14,68.47L49.86,67.06L48.45,65.7L47,65.25L46.82,64.58L46.39,63.98L46.39,63.52L45.87,63L43.27,63L42.54,62.63L40.07,62.63L39.31,62.27L38.49,62.98L37.47,62.98L36.74,62.61L34.27,62.61L33.51,62.25L32.69,62.96L31.22,63.3L30.56,63.74L29.29,65.15L29.19,66.07L28.58,67.18L28.9,67.97L28.66,68.08L27.86,67.56L26.86,67.22L25.59,66.63L24.5,65.33L23.35,64.83L22,63.5L22,62.59L21.42,61.49L21.42,59.58L20.63,58.49L20.09,57.58L19.3,55.81L18.37,55.12L17.16,54L15.74,53.45L14.62,52.14L13.47,51.3L12.77,50.54L11.77,49.32L11.03,49.12L10,48.43L9.55,47.61L8.7,46.75L7.7,45.51L7.53,45.51L7.53,44.86L34.43,44.86L34.43,3.86L49.43,3.86L49.43,21.5L50.74,21.5L52.63,23.14L55.4,23.14L55.57,23.24L55.57,25L58,25L59.08,25.56L61.31,25.56L62.08,26.24L63.4,25.72L64.21,25.72L64.87,26.58L65.68,28L67.61,28L68.25,27.41L69.98,28.41L70.98,28.09L72.31,30.09L73.91,27.82L75.02,28.42L75.49,28.23L75.8,28.42L76.31,28.26L77.31,28.9L78.1,30.09L78.75,29.17L79.75,29.17L80.52,28.24L80.86,28.42L81.37,28.21L82,28.21L83.48,29.21L85.48,29.21L86.27,28.21L87.9,28.21L88.48,28.67L91.25,30L92.56,30.94L94.16,30.94L94.16,43.8L96.09,46L96.77,48.66L97.63,50.66L98.09,51.53L98.13,53.7Z" style="fill-rule:nonzero;"/>
    </g>
</svg>
