<?xml version="1.0" encoding="UTF-8"?>
<svg width="64px" height="16px" viewBox="0 0 64 16" version="1.1" xmlns="http://www.w3.org/2000/svg" xmlns:xlink="http://www.w3.org/1999/xlink">
    <title>Untitled</title>
    <g id="Page-1" stroke="none" stroke-width="1" fill="none" fill-rule="evenodd">
        <g id="cd-sprite-2" fill="#FFFFFF">
            <g id="Group" fill-rule="nonzero">
                <path d="M8,10 C10.2,10 12,8.2 12,6 L12,4 C12,1.8 10.2,0 8,0 C5.8,0 4,1.8 4,4 L4,6 C4,8.2 5.8,10 8,10 Z M6,4 C6,2.9 6.9,2 8,2 C9.1,2 10,2.9 10,4 L10,6 C10,7.1 9.1,8 8,8 C6.9,8 6,7.1 6,6 L6,4 Z" id="Shape"></path>
                <path d="M15.9,7.1 C16,6.6 15.6,6.1 15.1,6 C14.6,5.9 14,6.3 14,6.8 C13.5,9.8 11,12 8,12 C5,12 2.5,9.8 2.1,6.9 C2,6.3 1.5,5.9 0.9,6 C0.4,6.1 0,6.6 0.1,7.1 C0.6,10.7 3.5,13.4 7,13.9 L7,16 L9,16 L9,13.9 C12.5,13.5 15.4,10.7 15.9,7.1 Z" id="Path"></path>
            </g>
            <g id="Group" transform="translate(16.000000, 0.000000)">
                <path d="M6.1614766,0.03376 C6.04718708,0.09952 6.01123628,0.23252 6.01123628,0.58968 L6.01123628,0.93248 L5.84520677,0.986 C5.75387232,1.0154 5.59723536,1.07912 5.49711563,1.1276 L5.31509449,1.21572 L5.12254722,1.02312 C4.6380212,0.53844 4.61441837,0.54296 3.90001778,1.25908 L3.41767795,1.74256 L3.41767795,1.89072 C3.41767795,2.03392 3.4262608,2.0476 3.67439416,2.29876 L3.93111036,2.5586 L3.82014062,2.81836 C3.75912953,2.96124 3.69581079,3.12032 3.6794548,3.17188 L3.64973871,3.26564 L3.30440056,3.27332 C2.68837884,3.28708 2.69048407,3.28432 2.69032213,4.07032 L2.69020067,4.625 L3.91949113,4.625 L5.14878158,4.625 L5.12274965,4.4922 C5.0213344,3.97424 5.24193786,3.32472 5.65933954,2.91236 C6.85000719,1.73596 8.84203747,2.56832 8.84203747,4.2422 L8.84203747,4.625 L10.0518546,4.625 L11.2616717,4.625 L11.2616717,4.04448 L11.2616717,3.46396 L11.1692037,3.3726 C11.0773024,3.2818 11.0745494,3.28124 10.697228,3.28124 L10.3176799,3.28124 L10.2795025,3.16408 C10.2585312,3.0996 10.191002,2.93704 10.1294646,2.80276 L10.0175637,2.55868 L10.2726605,2.30276 C10.683787,1.89036 10.6807506,1.8782 10.0006814,1.20724 C9.52101357,0.73404 9.49214767,0.71128 9.35235252,0.69568 L9.20599878,0.6794 L8.92912098,0.94496 L8.65228367,1.21048 L8.49410827,1.13692 C8.40714622,1.09648 8.24702753,1.03168 8.13828447,0.99292 L7.94063607,0.92244 L7.94063607,0.55256 C7.94063607,0.18544 7.93994783,0.182 7.84816804,0.09136 L7.75570001,0 L6.98628013,0.00096 C6.5227254,0.00152 6.19483634,0.01456 6.1614766,0.03376 M6.62244028,3.33244 C6.18196207,3.48664 5.88961896,4.12264 6.06779401,4.53908 L6.10455451,4.625 L6.98721129,4.625 L7.86986807,4.625 L7.90525207,4.48616 C8.10233368,3.71276 7.38331779,3.06604 6.62244028,3.33244 M1.3270259,5.64844 C0.279797067,8.3612 1.8448307,11.72112 4.63636131,12.75304 L4.80935426,12.817 L4.80939475,14.2288 C4.80943523,15.80272 4.80696564,15.78352 5.02752862,15.92908 L5.13497615,16 L8.00387385,16 L10.8727715,16 L10.9802191,15.92908 C11.1983529,15.78512 11.1983125,15.78536 11.1983529,14.3828 L11.1983934,13.125 L11.968623,13.125 C13.124352,13.125 13.0643935,13.20236 13.0644745,11.71092 L13.064515,10.65624 L13.8663634,10.65624 C14.7684126,10.65624 14.8143227,10.64552 14.940272,10.40564 C15.0732656,10.15236 15.0678811,10.14168 14.0169681,8.5834 C13.3450769,7.5872 13.0584017,7.13636 13.0486853,7.06064 C13.0410741,7.00152 13.019374,6.8336 13.0004675,6.68752 C12.9676745,6.4344 12.8233855,5.83152 12.7517673,5.64844 L12.7181647,5.56252 L7.03919419,5.56252 L1.3602237,5.56252 L1.3270259,5.64844" id="path0"></path>
            </g>
            <g id="Group" transform="translate(32.000000, 2.000000)" fill-rule="nonzero">
                <path d="M10,12 L1,12 C0.4,12 0,11.6 0,11 L0,1 C0,0.4 0.4,0 1,0 L10,0 C10.6,0 11,0.4 11,1 L11,2.5 L14.6,1 C15.3,0.8 16,1.3 16,2 L16,10 C16,10.7 15.3,11.2 14.6,10.9 L11,9.5 L11,11 C11,11.6 10.6,12 10,12 Z M2,10 L9,10 L9,8 C9,7.3 9.7,6.8 10.4,7.1 L14,8.6 L14,3.6 L10.4,5.1 C9.7,5.2 9,4.7 9,4 L9,2 L2,2 L2,10 Z" id="Shape"></path>
            </g>
            <g id="Group" transform="translate(48.000000, 3.000000)" fill-rule="nonzero">
                <path d="M11,0 L10,0 C9.4,0 9,0.4 9,1 C9,1.6 9.4,2 10,2 L11,2 C12.7,2 14,3.3 14,5 C14,6.7 12.7,8 11,8 L10,8 C9.4,8 9,8.4 9,9 C9,9.6 9.4,10 10,10 L11,10 C13.8,10 16,7.8 16,5 C16,2.2 13.8,0 11,0 Z" id="Path"></path>
                <path d="M6,8 L5,8 C3.3,8 2,6.7 2,5 C2,3.3 3.3,2 5,2 L6,2 C6.6,2 7,1.6 7,1 C7,0.4 6.6,0 6,0 L5,0 C2.2,0 0,2.2 0,5 C0,7.8 2.2,10 5,10 L6,10 C6.6,10 7,9.6 7,9 C7,8.4 6.6,8 6,8 Z" id="Path"></path>
                <path d="M4,5 C4,5.6 4.4,6 5,6 L11,6 C11.6,6 12,5.6 12,5 C12,4.4 11.6,4 11,4 L5,4 C4.4,4 4,4.4 4,5 Z" id="Path"></path>
            </g>
        </g>
    </g>
</svg>