<?xml version="1.0" encoding="UTF-8"?>
<svg width="76px" height="76px" viewBox="0 0 76 76" version="1.1" xmlns="http://www.w3.org/2000/svg" xmlns:xlink="http://www.w3.org/1999/xlink">
    <title>Untitled</title>
    <g id="Page-1" stroke="none" stroke-width="1" fill="none" fill-rule="evenodd">
        <g id="noun_covid-19_3837524" fill="#000000" fill-rule="nonzero">
            <path d="M64.65,62.94 C64.18,62.47 63.41,62.47 62.94,62.94 C62.47,63.41 62.47,64.18 62.94,64.65 L63.01,64.72 C63.25,64.96 63.56,65.07 63.86,65.07 C64.17,65.07 64.48,64.95 64.72,64.71 C65.19,64.24 65.19,63.47 64.72,63 L64.65,62.94 Z" id="Path"></path>
            <path d="M11.35,13.06 C11.59,13.3 11.9,13.41 12.21,13.41 C12.52,13.41 12.83,13.29 13.07,13.06 C13.54,12.59 13.54,11.82 13.07,11.35 L13,11.28 C12.53,10.81 11.76,10.81 11.29,11.28 C10.82,11.75 10.82,12.52 11.29,12.99 L11.35,13.06 Z" id="Path"></path>
            <path d="M63.8,13.41 C64.11,13.41 64.42,13.29 64.66,13.06 L64.73,12.99 C65.2,12.52 65.2,11.75 64.73,11.28 C64.26,10.81 63.49,10.81 63.02,11.28 L62.95,11.35 C62.48,11.82 62.48,12.59 62.95,13.06 C63.18,13.29 63.49,13.41 63.8,13.41 Z" id="Path"></path>
            <path d="M11.35,62.94 L11.28,63.01 C10.81,63.48 10.8,64.25 11.28,64.72 C11.52,64.96 11.83,65.08 12.14,65.08 C12.45,65.08 12.76,64.96 12.99,64.73 L13.06,64.66 C13.53,64.19 13.54,63.42 13.06,62.95 C12.59,62.47 11.82,62.47 11.35,62.94 Z" id="Path"></path>
            <path d="M68.42,38 C68.42,37.33 67.88,36.79 67.21,36.79 L61.11,36.79 C60.99,34.48 60.53,32.26 59.78,30.17 L62.3,29.11 C62.92,28.85 63.21,28.14 62.95,27.53 C62.69,26.91 61.98,26.62 61.37,26.88 L58.84,27.94 C57.88,25.96 56.65,24.14 55.19,22.53 L59.51,18.21 C59.98,17.74 59.98,16.97 59.51,16.5 C59.04,16.03 58.27,16.03 57.8,16.5 L53.48,20.82 C51.81,19.32 49.92,18.05 47.87,17.08 L48.91,14.54 C49.16,13.92 48.87,13.21 48.25,12.96 C47.63,12.71 46.92,13 46.67,13.62 L45.63,16.16 C43.61,15.45 41.46,15.01 39.22,14.9 L39.22,8.8 C39.22,8.13 38.68,7.59 38.01,7.59 C37.34,7.59 36.8,8.13 36.8,8.8 L36.8,14.9 C34.49,15.02 32.27,15.48 30.18,16.23 L29.12,13.71 C28.86,13.09 28.15,12.8 27.54,13.06 C26.92,13.32 26.63,14.03 26.89,14.64 L27.95,17.17 C25.97,18.13 24.15,19.36 22.54,20.82 L18.22,16.5 C17.75,16.03 16.98,16.03 16.51,16.5 C16.04,16.97 16.04,17.74 16.51,18.21 L20.83,22.53 C19.33,24.2 18.06,26.09 17.09,28.14 L14.55,27.1 C13.93,26.85 13.22,27.14 12.97,27.76 C12.72,28.38 13.01,29.09 13.63,29.34 L16.17,30.38 C15.46,32.4 15.02,34.55 14.91,36.79 L8.81,36.79 C8.14,36.79 7.6,37.33 7.6,38 C7.6,38.67 8.14,39.21 8.81,39.21 L14.91,39.21 C15.03,41.52 15.49,43.74 16.24,45.83 L13.72,46.89 C13.1,47.15 12.81,47.86 13.07,48.47 C13.26,48.93 13.71,49.21 14.19,49.21 C14.35,49.21 14.51,49.18 14.66,49.12 L17.19,48.06 C18.15,50.04 19.38,51.86 20.84,53.47 L16.52,57.79 C16.05,58.26 16.05,59.03 16.52,59.5 C16.76,59.74 17.07,59.85 17.38,59.85 C17.69,59.85 18,59.73 18.24,59.5 L22.56,55.18 C24.23,56.68 26.12,57.95 28.17,58.92 L27.13,61.46 C26.88,62.08 27.17,62.79 27.79,63.04 C27.94,63.1 28.09,63.13 28.25,63.13 C28.73,63.13 29.18,62.85 29.37,62.38 L30.41,59.84 C32.43,60.55 34.58,60.99 36.82,61.1 L36.82,67.2 C36.82,67.87 37.36,68.41 38.03,68.41 C38.7,68.41 39.24,67.87 39.24,67.2 L39.24,61.1 C41.55,60.98 43.77,60.52 45.86,59.77 L46.92,62.29 C47.11,62.75 47.56,63.03 48.04,63.03 C48.2,63.03 48.36,63 48.51,62.94 C49.13,62.68 49.42,61.97 49.16,61.36 L48.1,58.83 C50.08,57.87 51.9,56.64 53.51,55.18 L57.83,59.5 C58.07,59.74 58.38,59.85 58.69,59.85 C59,59.85 59.31,59.73 59.55,59.5 C60.02,59.03 60.02,58.26 59.55,57.79 L55.23,53.47 C56.73,51.8 58,49.91 58.97,47.86 L61.51,48.9 C61.66,48.96 61.81,48.99 61.97,48.99 C62.45,48.99 62.9,48.71 63.09,48.24 C63.34,47.62 63.05,46.91 62.43,46.66 L59.89,45.62 C60.6,43.6 61.04,41.45 61.15,39.21 L67.25,39.21 C67.88,39.21 68.42,38.67 68.42,38 Z M38,58.72 C26.58,58.72 17.28,49.43 17.28,38 C17.28,26.58 26.57,17.28 38,17.28 C49.43,17.28 58.72,26.58 58.72,38 C58.72,49.42 49.42,58.72 38,58.72 Z" id="Shape"></path>
            <path d="M74.59,36.79 L74.49,36.79 C73.82,36.79 73.28,37.33 73.28,38 C73.28,38.67 73.82,39.21 74.49,39.21 L74.59,39.21 C75.26,39.21 75.8,38.67 75.8,38 C75.8,37.33 75.25,36.79 74.59,36.79 Z" id="Path"></path>
            <path d="M1.52,36.79 L1.42,36.79 C0.75,36.79 0.21,37.33 0.21,38 C0.21,38.67 0.75,39.21 1.42,39.21 L1.52,39.21 C2.19,39.21 2.73,38.67 2.73,38 C2.73,37.33 2.18,36.79 1.52,36.79 Z" id="Path"></path>
            <path d="M38,2.73 C38.67,2.73 39.21,2.19 39.21,1.52 L39.21,1.42 C39.21,0.75 38.67,0.21 38,0.21 C37.33,0.21 36.79,0.75 36.79,1.42 L36.79,1.52 C36.79,2.18 37.33,2.73 38,2.73 Z" id="Path"></path>
            <path d="M38,73.27 C37.33,73.27 36.79,73.81 36.79,74.48 L36.79,74.58 C36.79,75.25 37.33,75.79 38,75.79 C38.67,75.79 39.21,75.25 39.21,74.58 L39.21,74.48 C39.21,73.82 38.67,73.27 38,73.27 Z" id="Path"></path>
            <path d="M69.21,49.45 L69.12,49.41 C68.5,49.16 67.79,49.46 67.54,50.07 C67.29,50.69 67.58,51.4 68.2,51.65 L68.29,51.69 C68.44,51.75 68.59,51.78 68.75,51.78 C69.23,51.78 69.68,51.5 69.87,51.03 C70.12,50.4 69.83,49.7 69.21,49.45 Z" id="Path"></path>
            <path d="M6.79,26.55 L6.88,26.59 C7.03,26.65 7.18,26.68 7.34,26.68 C7.82,26.68 8.27,26.39 8.46,25.92 C8.71,25.3 8.41,24.59 7.79,24.34 L7.7,24.3 C7.08,24.05 6.37,24.35 6.12,24.97 C5.88,25.6 6.17,26.3 6.79,26.55 Z" id="Path"></path>
            <path d="M50.07,8.46 C50.22,8.52 50.37,8.55 50.53,8.55 C51.01,8.55 51.46,8.27 51.65,7.8 L51.69,7.71 C51.94,7.09 51.65,6.38 51.03,6.13 C50.41,5.88 49.7,6.18 49.45,6.79 L49.41,6.88 C49.16,7.51 49.45,8.21 50.07,8.46 Z" id="Path"></path>
            <path d="M25.93,67.54 C25.31,67.29 24.6,67.58 24.35,68.2 L24.31,68.29 C24.06,68.91 24.35,69.62 24.97,69.87 C25.12,69.93 25.27,69.96 25.43,69.96 C25.91,69.96 26.36,69.68 26.55,69.21 L26.59,69.12 C26.84,68.49 26.55,67.79 25.93,67.54 Z" id="Path"></path>
            <path d="M68.54,26.39 C68.7,26.39 68.85,26.36 69.01,26.3 L69.1,26.26 C69.72,26 70.01,25.29 69.75,24.68 C69.49,24.06 68.78,23.77 68.17,24.03 L68.08,24.07 C67.46,24.33 67.17,25.04 67.43,25.65 C67.61,26.11 68.06,26.39 68.54,26.39 Z" id="Path"></path>
            <path d="M7,49.7 L6.91,49.74 C6.29,50 6,50.71 6.26,51.32 C6.45,51.78 6.9,52.06 7.38,52.06 C7.54,52.06 7.69,52.03 7.85,51.97 L7.94,51.93 C8.56,51.67 8.85,50.96 8.59,50.35 C8.32,49.74 7.61,49.44 7,49.7 Z" id="Path"></path>
            <path d="M24.06,7.93 C24.25,8.39 24.7,8.67 25.18,8.67 C25.34,8.67 25.49,8.64 25.65,8.58 C26.27,8.32 26.56,7.61 26.3,7 L26.26,6.91 C26,6.29 25.29,6 24.67,6.25 C24.05,6.51 23.76,7.22 24.02,7.83 L24.06,7.93 Z" id="Path"></path>
            <path d="M51.94,68.07 C51.68,67.45 50.97,67.16 50.36,67.42 C49.74,67.68 49.45,68.39 49.71,69 L49.75,69.09 C49.94,69.55 50.39,69.83 50.87,69.83 C51.03,69.83 51.18,69.8 51.34,69.74 C51.96,69.48 52.25,68.77 51.99,68.16 L51.94,68.07 Z" id="Path"></path>
            <path d="M28.78,28.05 C28.31,27.58 27.54,27.58 27.07,28.05 C26.6,28.52 26.6,29.29 27.07,29.76 L27.14,29.83 C27.38,30.07 27.69,30.18 28,30.18 C28.31,30.18 28.62,30.06 28.86,29.83 C29.33,29.36 29.33,28.59 28.86,28.12 L28.78,28.05 Z" id="Path"></path>
            <path d="M48.42,47.69 C47.95,47.22 47.18,47.22 46.71,47.69 C46.24,48.16 46.24,48.93 46.71,49.4 L46.78,49.47 C47.02,49.71 47.33,49.82 47.64,49.82 C47.95,49.82 48.26,49.7 48.5,49.47 C48.97,49 48.97,48.23 48.5,47.76 L48.42,47.69 Z" id="Path"></path>
            <path d="M27.14,47.69 L27.07,47.76 C26.6,48.23 26.6,49 27.07,49.47 C27.31,49.71 27.62,49.82 27.93,49.82 C28.24,49.82 28.55,49.7 28.79,49.47 L28.86,49.4 C29.33,48.93 29.33,48.16 28.86,47.69 C28.38,47.21 27.61,47.21 27.14,47.69 Z" id="Path"></path>
            <path d="M46.78,28.05 L46.71,28.12 C46.24,28.59 46.24,29.36 46.71,29.83 C46.95,30.07 47.26,30.18 47.57,30.18 C47.88,30.18 48.19,30.06 48.43,29.83 L48.5,29.76 C48.97,29.29 48.97,28.52 48.5,28.05 C48.02,27.58 47.25,27.58 46.78,28.05 Z" id="Path"></path>
            <path d="M32.36,37.55 L32.26,37.55 C31.59,37.55 31.05,38.09 31.05,38.76 C31.05,39.43 31.59,39.97 32.26,39.97 L32.36,39.97 C33.03,39.97 33.57,39.43 33.57,38.76 C33.57,38.09 33.03,37.55 32.36,37.55 Z" id="Path"></path>
            <path d="M23.94,37.55 L23.84,37.55 C23.17,37.55 22.63,38.09 22.63,38.76 C22.63,39.43 23.17,39.97 23.84,39.97 L23.94,39.97 C24.61,39.97 25.15,39.43 25.15,38.76 C25.15,38.09 24.61,37.55 23.94,37.55 Z" id="Path"></path>
            <path d="M51.72,37.55 L51.62,37.55 C50.95,37.55 50.41,38.09 50.41,38.76 C50.41,39.43 50.95,39.97 51.62,39.97 L51.72,39.97 C52.39,39.97 52.93,39.43 52.93,38.76 C52.93,38.09 52.38,37.55 51.72,37.55 Z" id="Path"></path>
            <path d="M43.3,37.55 L43.2,37.55 C42.53,37.55 41.99,38.09 41.99,38.76 C41.99,39.43 42.53,39.97 43.2,39.97 L43.3,39.97 C43.97,39.97 44.51,39.43 44.51,38.76 C44.51,38.09 43.97,37.55 43.3,37.55 Z" id="Path"></path>
            <path d="M37.78,42.97 C37.11,42.97 36.57,43.51 36.57,44.18 L36.57,44.28 C36.57,44.95 37.11,45.49 37.78,45.49 C38.45,45.49 38.99,44.95 38.99,44.28 L38.99,44.18 C38.99,43.51 38.45,42.97 37.78,42.97 Z" id="Path"></path>
            <path d="M37.78,51.38 C37.11,51.38 36.57,51.92 36.57,52.59 L36.57,52.69 C36.57,53.36 37.11,53.9 37.78,53.9 C38.45,53.9 38.99,53.36 38.99,52.69 L38.99,52.59 C38.99,51.93 38.45,51.38 37.78,51.38 Z" id="Path"></path>
            <path d="M37.78,23.61 C37.11,23.61 36.57,24.15 36.57,24.82 L36.57,24.92 C36.57,25.59 37.11,26.13 37.78,26.13 C38.45,26.13 38.99,25.59 38.99,24.92 L38.99,24.82 C38.99,24.15 38.45,23.61 37.78,23.61 Z" id="Path"></path>
            <path d="M37.78,32.03 C37.11,32.03 36.57,32.57 36.57,33.24 L36.57,33.34 C36.57,34.01 37.11,34.55 37.78,34.55 C38.45,34.55 38.99,34.01 38.99,33.34 L38.99,33.24 C38.99,32.57 38.45,32.03 37.78,32.03 Z" id="Path"></path>
        </g>
    </g>
</svg>