<?xml version="1.0" encoding="UTF-8" standalone="no"?>
<svg
   xmlns:dc="http://purl.org/dc/elements/1.1/"
   xmlns:cc="http://creativecommons.org/ns#"
   xmlns:rdf="http://www.w3.org/1999/02/22-rdf-syntax-ns#"
   xmlns:svg="http://www.w3.org/2000/svg"
   xmlns="http://www.w3.org/2000/svg"
   xmlns:sodipodi="http://sodipodi.sourceforge.net/DTD/sodipodi-0.dtd"
   xmlns:inkscape="http://www.inkscape.org/namespaces/inkscape"
   width="1268"
   height="557"
   version="1.1"
   id="svg1770"
   sodipodi:docname="detroitSkyline.svg"
   inkscape:version="0.92.5 (2060ec1f9f, 2020-04-08)">
  <metadata
     id="metadata1776">
    <rdf:RDF>
      <cc:Work
         rdf:about="">
        <dc:format>image/svg+xml</dc:format>
        <dc:type
           rdf:resource="http://purl.org/dc/dcmitype/StillImage" />
        <dc:title></dc:title>
      </cc:Work>
    </rdf:RDF>
  </metadata>
  <defs
     id="defs1774" />
  <sodipodi:namedview
     pagecolor="#ffffff"
     bordercolor="#666666"
     borderopacity="1"
     objecttolerance="10"
     gridtolerance="10"
     guidetolerance="10"
     inkscape:pageopacity="0"
     inkscape:pageshadow="2"
     inkscape:window-width="3360"
     inkscape:window-height="2026"
     id="namedview1772"
     showgrid="false"
     inkscape:zoom="1.2480315"
     inkscape:cx="282.9911"
     inkscape:cy="483.71887"
     inkscape:window-x="0"
     inkscape:window-y="0"
     inkscape:window-maximized="1"
     inkscape:current-layer="svg1770" />
  <path
     style="fill:#000000;stroke:none"
     d="m 668,188 c -10.507,0 -25.703,-2.9 -33.258,6.529 C 631.828,198.167 633,204.649 633,209 v 34 89 c 0,14.34 2.327,31.024 -1,45 l -7.972,0.603 L 623,390 v 33 L 615.858,420.481 615,404 V 363 168 l -15,-5.61 -23,-0.39 1,-3 c -9.177,-2.713 -25.823,-2.713 -35,0 l 1,3 c -2.545,0.808 -7.454,3.205 -9.937,1.277 -3.179,-2.468 -0.122,-10.591 -1.666,-14.129 -2.027,-4.642 -21.089,-5.054 -24.794,-2.12 -3.081,2.44 -1.603,10.496 -1.603,13.972 0,13.987 0.328,28.018 -0.015,42 -0.287,11.722 1.965,27.886 -0.909,39 -3.298,12.758 -11.995,25.018 -13.866,38 -3.41,23.654 -0.21,50.083 -0.21,74 h -12 l -2,-30 c -3.172,0 -7.909,0.819 -10.682,-1.028 C 459.98,318.752 461,298.743 461,292 c -4.729,-2.607 -3.999,-7.116 -4,-12 -10.33101,-0.79 -2.65601,-8.877 -7.02801,-14.397 -2.342,-2.958 -9.622,-1.603 -12.972,-1.603 l -1,-13 c -10.658,0.632 -12.727,1.704 -11,13 -14.196,0.002 -7.228,5.398 -11.988,14.83 -1.986,3.934 -6.394,6.162 -8.155,10.259 -2.065,4.809 -0.857,11.765 -0.857,16.911 h -7 c 0,3.873 1.211,10.32 -1.028,13.682 -3.603,5.411 -21.736,5.111 -27.972,6.318 -0.242,-3.565 1.168,-9.433 -1.179,-12.397 -3.528,-4.454 -21.405,-1.603 -26.821,-1.603 0,6.525 -4.285,22.209 -14.603,14.976 -6.867,-4.813 2.79,-23.57 -3.335,-30.373 -4.584,-5.09 -26.399,-1.606 -33.062,-1.603 -2.617,10e-4 -7.109,-0.75 -8.972,1.603 -4.386,5.538 -1.028,24.388 -1.028,31.397 L 253,329 v 29 L 251.972,369.527 237,370.714 194,367 l 1,-34 c -10.097,-0.329 -7.879,-9.645 -11,-17 l -12,-8.167 -15.5,-11 L 156,279 h -17 c -0.949,5.111 0.908,13.624 -1.692,17.907 -5.101,8.403 -17.968,12.405 -25.161,18.842 -4.349,3.893 -2.998,9.393 -5.58,14.104 -1.407,2.567 -4.743,2.903 -5.964,5.46 -1.844101,3.864 -0.603001,10.487 -0.603001,14.687 0,12.177 1.028001,24.859 -0.059,36.985 -0.606,6.768 -5.940502,10.085 -5.941002,18.015 -6e-4,9.409 4.977702,37.65 -6.999997,39 v 24 h -8 v -49 c -2.5748,0.092 -10.0752,-0.586 -11.5,-3 -1.4896,-2.524 0.9255,-6.263 -2.5,-7.667 -3.7284,-1.528 -9.0492,0.051 -13,-0.333 -9.7391,-0.947 -23.7001,-4.916 -33,-1 l -1,10 H 0 V 557 H 1268 V 321 l -41,-4 1,-19 h -44 l -1.03,17.682 -10.97,2.408 -27,5.91 v 146 c -3.82,0 -10.4,1.189 -13.4,-1.742 -5.13,-5.027 -1.6,-26.276 -1.6,-33.258 V 327 l -36,-3 -1,-21 h -43 v 21 c -10.37,0 -39.76,-1.157 -35,15 l -38,1 c 0,7.027 2.18,16.3 -7,17 v 4 l -9,1 1,3 -15,5 v 38 l -13,-1 c 1.2,-5.699 0.923,-9.036 -5,-11 4.593,-15.538 1,-36.782 1,-53 V 231 193 c 0,-4.015 1.364,-11.241 -1.603,-14.437 C 922.155,171.841 907.118,174 899,174 h -42 c -6.006,0 -13.967,-1.366 -19.714,0.51 -5.627,1.837 -9.907,7.066 -15.286,9.49 0,63.015 -1,125.898 -1,189 0,14.666 -0.07,29.334 10e-4,44 0.013,2.827 2.419,13.767 -2.986,13.093 C 813.017,429.471 815,418.326 815,415 V 365 223 c 0,-21.605 3.553,-46.637 -0.148,-67.892 C 812.035,138.932 780.237,156.605 776,142 c -14.45,-0.051 -10,-18.241 -10,-29 0,-24.27 3.537,-50 0.424,-74 -0.638,-4.922 2.03,-18.541 -2.027,-21.825 -3.216,-2.603 -11.364,-2.521 -15.398,-3.019 C 737.359,12.718 725.472,11.334 714,8.884 706.635,7.312 699.316,9.69 699,0 l -15.397,1.028 -1.801,9.864 -8.199,7.333 L 673,45 v 89 l -0.148,43.981 z"
     id="path4"
     inkscape:connector-curvature="0" />
</svg>
