<?xml version="1.0" encoding="UTF-8"?>
<svg width="2305px" height="3094px" viewBox="0 0 2305 3094" version="1.1" xmlns="http://www.w3.org/2000/svg" xmlns:xlink="http://www.w3.org/1999/xlink">
    <title>Untitled</title>
    <g id="Page-1" stroke="none" stroke-width="1" fill="none" fill-rule="evenodd">
        <g id="Figma">
            <g id="Group" transform="translate(370.000000, 0.000000)" fill="#555555" fill-rule="nonzero">
                <g id="Path">
                    <path d="M390.023798,760.477565 C180.970062,760.477565 9.93232279,589.439825 9.93232279,380.386089 C9.93232279,171.40085 180.970062,0.363110839 390.023798,0.363110839 L1147.12437,0.363110839 C1356.10961,0.363110839 1527.14735,171.40085 1527.14735,380.386089 C1527.14735,589.439825 1356.10961,760.477565 1147.12437,760.477565 L390.023798,760.477565 Z"></path>
                    <path d="M379.961546,1630.55757 L766.902751,1630.55757 L766.902751,870.237626 L379.961546,870.237626 C275.64017,870.237626 180.565928,912.979936 111.657652,981.888212 C42.7493756,1050.79649 0.00706512684,1145.93923 0.00706512684,1250.60309 C0.00706512684,1459.51983 170.976307,1630.55757 379.961546,1630.55757"></path>
                    <path d="M1183.94852,878.018918 C974.072812,878.018918 803.85704,1048.16619 803.85704,1258.11039 C803.85704,1467.9861 974.072812,1638.13337 1183.94852,1638.13337 C1393.82422,1638.13337 1564.03999,1467.9861 1564.03999,1258.11039 C1564.03999,1048.16619 1393.82422,878.018918 1183.94852,878.018918"></path>
                    <path d="M766.265726,1738.97509 L372.543289,1738.97509 L372.543289,1739.72856 C169.38032,1747.33176 6.90474247,1913.98567 6.90474247,2119.06656 C6.90474247,2328.94227 177.052017,2499.08954 386.927721,2499.08954 C590.296182,2499.08954 755.922635,2339.21686 766.060234,2138.3828 L766.265726,2138.3828 L766.265726,2134.06747 C766.471218,2129.06717 767.019196,2124.13536 767.019196,2119.06656 C767.019196,2113.99776 766.471218,2109.06596 766.265726,2103.99716 L766.265726,1738.97509 Z"></path>
                </g>
            </g>
            <text font-family="HelveticaNeue-Thin, Helvetica Neue" font-size="500" font-weight="300" letter-spacing="-4.19612059" fill="#675E50">
                <tspan x="534.240301" y="2988">Figma</tspan>
            </text>
        </g>
    </g>
</svg>