<?xml version="1.0" encoding="UTF-8"?>
<svg width="2500px" height="3094px" viewBox="0 0 2500 3094" version="1.1" xmlns="http://www.w3.org/2000/svg" xmlns:xlink="http://www.w3.org/1999/xlink">
    <title>Untitled</title>
    <g id="Page-1" stroke="none" stroke-width="1" fill="none" fill-rule="evenodd">
        <g id="invision">
            <path d="M2273.36914,0 L226.630859,0 C101.464844,0 0,101.464844 0,226.630859 L0,2273.36914 C0,2398.53516 101.464844,2500 226.630859,2500 L2273.36914,2500 C2398.53516,2500 2500,2398.53516 2500,2273.36914 L2500,226.630859 C2500,101.464844 2398.53516,0 2273.36914,0" id="Path" fill="#555555" fill-rule="nonzero"></path>
            <path d="M835.498047,786.572266 C918.603516,786.572266 988.222656,721.435547 988.222656,636.064453 C988.222656,550.751953 918.603516,485.625 835.498047,485.625 C752.392578,485.625 682.792969,550.751953 682.792969,636.064453 C682.792969,721.425781 752.392578,786.572266 835.498047,786.572266 M518.837891,1592.43164 C509.863281,1630.61523 505.361328,1671.8457 505.361328,1705.47852 C505.361328,1838.00781 577.226562,1925.98633 729.951172,1925.98633 C856.611328,1925.98633 959.296875,1850.77148 1033.23242,1729.31641 L988.085937,1910.49805 L1239.59961,1910.49805 L1383.34961,1333.94531 C1419.28711,1187.96875 1488.90625,1112.19727 1594.47266,1112.19727 C1677.56836,1112.19727 1729.21875,1163.87695 1729.21875,1249.18945 C1729.21875,1273.90625 1726.97266,1300.83008 1717.98828,1330.03906 L1643.86719,1595.04883 C1632.63672,1633.23242 1628.16406,1671.43555 1628.16406,1707.34375 C1628.16406,1833.1543 1702.25586,1925.17578 1857.22656,1925.17578 C1989.73633,1925.17578 2095.2832,1839.87305 2153.68164,1635.48828 L2054.87305,1597.34375 C2005.45898,1734.26758 1962.7832,1759.02344 1929.0918,1759.02344 C1895.40039,1759.02344 1877.43164,1736.58203 1877.43164,1691.68945 C1877.43164,1671.47461 1881.94336,1649.04297 1888.66211,1622.03125 L1960.54688,1363.84766 C1978.50586,1303.22266 1985.25391,1249.46289 1985.25391,1200.06836 C1985.25391,1006.92383 1868.45703,906.123047 1726.97266,906.123047 C1594.47266,906.123047 1459.70703,1025.64453 1392.34375,1151.43555 L1441.73828,925.654297 L1057.71484,925.654297 L1003.80859,1124.52148 L1183.48633,1124.52148 L1072.8418,1567.49023 C985.957031,1760.63477 826.357422,1763.76953 806.328125,1759.28711 C773.4375,1751.86523 752.402344,1739.375 752.402344,1696.64063 C752.402344,1671.98242 756.894531,1636.5625 768.125,1593.85742 L936.582031,925.654297 L509.863281,925.654297 L455.957031,1124.52148 L633.369141,1124.52148 L518.847656,1592.43164" id="Shape" fill="#FFFFFF" fill-rule="nonzero"></path>
            <text id="InVision" font-family="HelveticaNeue-Thin, Helvetica Neue" font-size="500" font-weight="300" letter-spacing="-4.19612059" fill="#675E50">
                <tspan x="491.784482" y="2988">InVision</tspan>
            </text>
        </g>
    </g>
</svg>