<?xml version="1.0" encoding="UTF-8" standalone="no"?>
<svg
   data-name="Layer 1"
   viewBox="0 0 64 80"
   x="0px"
   y="0px"
   version="1.1"
   id="svg4493"
   sodipodi:docname="sunnovaInstall.svg"
   inkscape:version="1.1.1 (c3084ef, 2021-09-22)"
   xmlns:inkscape="http://www.inkscape.org/namespaces/inkscape"
   xmlns:sodipodi="http://sodipodi.sourceforge.net/DTD/sodipodi-0.dtd"
   xmlns="http://www.w3.org/2000/svg"
   xmlns:svg="http://www.w3.org/2000/svg">
  <defs
     id="defs4497" />
  <sodipodi:namedview
     id="namedview4495"
     pagecolor="#ffffff"
     bordercolor="#666666"
     borderopacity="1.0"
     inkscape:pageshadow="2"
     inkscape:pageopacity="0.0"
     inkscape:pagecheckerboard="0"
     showgrid="false"
     inkscape:zoom="7.8375"
     inkscape:cx="-6.1881978"
     inkscape:cy="41.467305"
     inkscape:window-width="1902"
     inkscape:window-height="1460"
     inkscape:window-x="0"
     inkscape:window-y="25"
     inkscape:window-maximized="0"
     inkscape:current-layer="svg4493" />
  <path
     d="M57.2549,51.3643c-.5772-4.4-1.5332-10.6451-3.1621-14.0713a5.92,5.92,0,0,0-4.1274-3.2071A6.802,6.802,0,0,0,53.02,26.8121a1.3331,1.3331,0,0,0,.7948-.53,1.3916,1.3916,0,0,0,.2167-1.0591c-.8626-4.2858-3.4488-6.5952-7.3618-6.6921A4.4236,4.4236,0,0,0,42.4985,16H14.5742c-2.166,0-4.0644,1.3423-4.3232,3.0562L6.5835,43.4a3.8618,3.8618,0,0,0,.8813,3.1445A4.3935,4.3935,0,0,0,10.8252,48H31.4089a3.01,3.01,0,0,0,3.0032,2.6279l8.617-.1284.0324,1.1216a1.65,1.65,0,0,0,1.6543,1.6118h10.896a1.6527,1.6527,0,0,0,1.6431-1.8686ZM45.9692,34.166a5.9189,5.9189,0,0,1-5.6072-5.2424L52.04,26.9952a5.8795,5.8795,0,0,1-6.07,7.1708Zm-9.5683-5.0952a.4993.4993,0,0,0,.4931.4189.51.51,0,0,0,.0816-.0068l2.3852-.3939a6.907,6.907,0,0,0,5.3223,5.88h-8.92l-.4622-9.2042h2.9129c-.01.1144-.021.2294-.0288.3423-.0293.399-.4312.7818-.82,1.1524C36.8535,27.7471,36.2739,28.3,36.4009,29.0708Zm-.1536,15.548-.4344-8.65h8.4346a5.8674,5.8674,0,0,0-1.1458,1.8541l-.0011.0018-.001.0028-.0039.0084-.0009.0053c-.0813.2143-.4569,1.5021-1.2261,4.1583l-.7413,2.5493ZM53.0508,25.42a.3794.3794,0,0,1-.0591.2935.3523.3523,0,0,1-.2339.1494l-15.0762,2.49c.11-.1191.24-.2431.3731-.37a2.9,2.9,0,0,0,1.1274-1.8057c.2764-3.9824,1.8907-5.9262,5.397-6.5005a11.727,11.727,0,0,1,1.8994-.165C50.0522,19.5122,52.26,21.4932,53.0508,25.42ZM42.4985,17a3.6384,3.6384,0,0,1,3.0873,1.5564c-.38.0278-.7672.0679-1.1688.1335-4.3787.7174-5.6686,3.4239-6.083,6.0747H35.25L34.86,17ZM23.2139,17H33.8588l.39,7.7646H22.824Zm-.44,8.7646H34.299l.4622,9.2042h-12.45ZM11.24,19.2056C11.4233,17.9893,12.9189,17,14.5742,17h7.6382l-.39,7.7646h-11.42ZM20.706,47H10.8252a3.354,3.354,0,0,1-2.6025-1.1079,2.874,2.874,0,0,1-.65-2.3428l1.142-7.5805H21.26ZM8.8655,34.9688l1.3866-9.2042h11.52L21.31,34.9688Zm13.3959,1h12.55l.4351,8.6643-.935.0134A2.9914,2.9914,0,0,0,31.4478,47h-9.74ZM56.1074,52.01a.6492.6492,0,0,1-.4956.2231H44.7158a.6542.6542,0,0,1-.6543-.6411l-.0346-1.1959A3.0032,3.0032,0,0,0,46.14,48.4448L47.311,44.53a.5.5,0,1,0-.958-.2861l-1.1655,3.8979a1.9954,1.9954,0,0,1-1.8506,1.353l-8.9756.1333a1.9909,1.9909,0,0,1-.0342-3.9814l7.1846-.103a.501.501,0,0,0,.4727-.3594l.8447-2.9063c.5278-1.8217,1.126-3.8857,1.2-4.0835l.0006-.0035.0033-.0053a5.0122,5.0122,0,0,1,4.6787-3.2465A4.9582,4.9582,0,0,1,53.19,37.7227c1.5683,3.2978,2.5053,9.4389,3.0742,13.7714A.6445.6445,0,0,1,56.1074,52.01Z"
     id="path4487" />
</svg>
