<?xml version="1.0" encoding="UTF-8" standalone="no"?>
<svg
   version="1.1"
   x="0px"
   y="0px"
   viewBox="-0.3 75.947 100 125"
   enable-background="new -0.3 75.947 100 100"
   xml:space="preserve"
   id="svg4481"
   sodipodi:docname="sunnovaIPO.svg"
   inkscape:version="1.1.1 (c3084ef, 2021-09-22)"
   xmlns:inkscape="http://www.inkscape.org/namespaces/inkscape"
   xmlns:sodipodi="http://sodipodi.sourceforge.net/DTD/sodipodi-0.dtd"
   xmlns="http://www.w3.org/2000/svg"
   xmlns:svg="http://www.w3.org/2000/svg"><defs
     id="defs4485" /><sodipodi:namedview
     id="namedview4483"
     pagecolor="#ffffff"
     bordercolor="#666666"
     borderopacity="1.0"
     inkscape:pageshadow="2"
     inkscape:pageopacity="0.0"
     inkscape:pagecheckerboard="0"
     showgrid="false"
     inkscape:zoom="5.016"
     inkscape:cx="-9.569378"
     inkscape:cy="64.892344"
     inkscape:window-width="2129"
     inkscape:window-height="1499"
     inkscape:window-x="0"
     inkscape:window-y="25"
     inkscape:window-maximized="0"
     inkscape:current-layer="svg4481" /><path
     display="none"
     d="M0.27,56.095h19.733v22.136H43.65v12.391h49.995V62.601L81.444,72.643c-0.135,0.081-0.271,0.135-0.406,0.135  s-0.27-0.054-0.377-0.135L68.809,63.06l-0.107,0.054l3.078,6.803c0.025,0.081,0.053,0.189,0.025,0.27  c0,0.081-0.025,0.162-0.053,0.243L64.68,84.818c-0.082,0.135-0.189,0.243-0.324,0.297c-0.135,0.054-0.27,0.054-0.406,0.027  l-14.711-3.86c-0.081-0.027-0.162-0.054-0.243-0.108s-0.135-0.135-0.162-0.216L38.44,57.904c-0.081-0.135-0.081-0.297-0.027-0.459  c0.054-0.135,0.162-0.243,0.297-0.324c0.135-0.081,0.297-0.108,0.432-0.081l3.644,0.999h0.054l0.054,0.027l10.366,2.672  c0.055-0.027,0.108-0.054,0.162-0.081c0.027-0.027,0.027-0.027,0.055-0.027l6.855-13.659c0.082-0.135,0.189-0.243,0.324-0.297  c0.135-0.054,0.297-0.054,0.459,0.027c0.162,0.054,0.27,0.162,0.324,0.297l7.045,15.63l0.109-0.054V37.28  c0-0.162,0.053-0.297,0.162-0.405c0.107-0.135,0.242-0.189,0.432-0.216c0.135,0,0.297,0.054,0.432,0.162l2.889,2.375h0.027  l0.053,0.054L80.958,46c0.053-0.027,0.107-0.027,0.162-0.027h0.027l11.904-9.88c0.135-0.108,0.27-0.162,0.432-0.135h0.162V0.27  H34.311L0.27,56.095L0.27,56.095z M32.367,26.428c1.269,0,2.349,0.459,3.239,1.35c0.891,0.891,1.35,1.971,1.35,3.239  c0,1.269-0.459,2.322-1.35,3.212c-0.891,0.891-1.97,1.35-3.239,1.35c-1.269,0-2.321-0.458-3.212-1.35  c-0.891-0.891-1.35-1.943-1.35-3.212c0-1.269,0.459-2.349,1.35-3.239C30.045,26.887,31.098,26.428,32.367,26.428L32.367,26.428z"
     id="path4461" /><path
     display="none"
     fill="none"
     stroke="#000000"
     stroke-width="0.5399"
     stroke-linecap="round"
     stroke-linejoin="round"
     stroke-miterlimit="10"
     d="  M32.367,26.428c-1.269,0-2.321,0.459-3.212,1.35c-0.891,0.891-1.35,1.971-1.35,3.239c0,1.269,0.459,2.322,1.35,3.212  c0.891,0.891,1.944,1.35,3.212,1.35c1.269,0,2.349-0.458,3.239-1.35c0.891-0.891,1.35-1.943,1.35-3.212  c0-1.269-0.459-2.349-1.35-3.239C34.715,26.887,33.636,26.428,32.367,26.428L32.367,26.428z M93.645,62.601v28.021H43.65V78.231  H20.003V56.095H0.27L34.311,0.27h59.334v35.687"
     id="path4463" /><path
     display="none"
     d="M0.27,200.787h19.733v22.136H43.65v12.391h28.534c-5.67-0.162-10.527-1.403-14.604-3.726  c-4.158-2.375-6.317-5.21-6.506-8.53h42.57v-28.695c-0.217,1.323-0.621,2.538-1.188,3.645c-0.027,0-0.027,0-0.027,0.027  c-0.432,0.81-0.973,1.538-1.646,2.159c-1.918,1.782-4.238,2.673-6.965,2.673s-5.021-0.891-6.938-2.673  c-1.971-1.809-2.971-4.022-2.971-6.587c0-1.457,0.324-2.808,0.945-4.021h3.969c-0.459,0.458-0.811,0.972-1.08,1.484  c-0.404,0.783-0.594,1.62-0.594,2.537c0,1.647,0.648,3.051,1.916,4.212c1.324,1.214,2.889,1.809,4.752,1.809  s3.455-0.595,4.777-1.809h-0.027c0.406-0.378,0.73-0.811,1-1.296v-0.027c0.512-0.944,0.809-1.971,0.945-3.077  c0.025-0.459,0.053-0.891,0.053-1.35c0-3.158-1.188-5.885-3.59-8.126c-2.402-2.268-5.291-3.401-8.719-3.401  c-3.43,0-6.344,1.134-8.746,3.401h0.025c-2.402,2.241-3.59,4.968-3.59,8.126c0,2.052,0.486,3.887,1.484,5.533  c0.783,1.134,1.701,2.133,2.727,2.97c1.242,0.999,2.457,2.052,3.672,3.213l0.027,0.026c0.566,0.567,1.107,1.161,1.619,1.755  c0.027,0.027,0.055,0.054,0.082,0.081c2.672,3.429,3.994,7.505,3.994,12.175c0,1.484-0.135,2.915-0.377,4.265h-3.32  c0.297-1.35,0.459-2.78,0.459-4.265c0-3.888-1.08-7.262-3.268-10.123c-0.027-0.027-0.027-0.055-0.053-0.081  c-0.459-0.513-0.918-0.999-1.404-1.484l-0.027-0.027c-1.133-1.08-2.268-2.079-3.428-3.023h-0.027  c-1.297-1.053-2.43-2.295-3.402-3.726c-0.025-0.026-0.053-0.054-0.053-0.081c-1.297-2.133-1.943-4.535-1.943-7.207  c0-4.104,1.537-7.586,4.588-10.475c3.023-2.861,6.668-4.292,10.961-4.292c4.291,0,7.936,1.431,10.959,4.292H89.19  c2.512,2.349,3.996,5.075,4.455,8.233v-44.865H34.311L0.27,200.787L0.27,200.787z M32.367,171.12c1.269,0,2.349,0.459,3.239,1.35  c0.891,0.891,1.35,1.971,1.35,3.239c0,1.27-0.459,2.322-1.35,3.213c-0.891,0.891-1.97,1.35-3.239,1.35  c-1.269,0-2.321-0.459-3.212-1.35c-0.891-0.891-1.35-1.943-1.35-3.213c0-1.269,0.459-2.349,1.35-3.239  C30.045,171.579,31.098,171.12,32.367,171.12L32.367,171.12z"
     id="path4465" /><path
     d="M42.3,120.71c0.08-0.082,0.162-0.189,0.242-0.271c-0.135,0.432-0.189,0.891-0.189,1.35c0,1.646,0.729,3.078,2.16,4.238  c1.43,1.188,3.131,1.783,5.156,1.783c2.023,0,3.752-0.596,5.182-1.783c1.432-1.16,2.16-2.592,2.16-4.238  c0-1.188-0.377-2.268-1.105-3.211c0.322,0.188,0.646,0.404,0.943,0.594c1.891,1.377,2.861,3.023,2.943,4.967  c0.08,1.592-0.486,2.996-1.646,4.211l1.537,0.918h4.887v3.807h0.973v-2.35h5.156l12.633,12.66c0.566-0.998,1.295-1.889,2.213-2.727  c1.971-1.754,4.266-2.807,6.885-3.131v3.268c-1.459,1.43-3.293,1.916-5.535,1.457c-0.053,0.055-0.107,0.107-0.162,0.135  c-0.863,0.729-1.537,1.512-2.023,2.375l2.727,2.699h8.018V80.595H36.117L2.078,136.421H21.81v22.135h23.648v12.391H57.74v-4.994  c-1.43-0.514-2.699-1.35-3.832-2.457v-12.875c-1.701-0.676-2.809-1.945-3.32-3.807c-2.268-0.703-4.535-0.541-6.803,0.484  l-1.943-1.943v-2.752l5.236-10.42l2.186-0.945c-1.943-0.189-3.67-0.838-5.154-1.916c-0.73-0.541-1.35-1.135-1.809-1.756  c-0.73-0.945-1.107-2.023-1.162-3.238C41.085,123.003,41.462,121.789,42.3,120.71L42.3,120.71z M34.173,106.753  c1.27,0,2.35,0.459,3.24,1.35s1.35,1.971,1.35,3.24c0,1.268-0.459,2.32-1.35,3.211s-1.971,1.35-3.24,1.35  c-1.268,0-2.32-0.459-3.211-1.35s-1.35-1.943-1.35-3.211c0-1.27,0.459-2.35,1.35-3.24S32.906,106.753,34.173,106.753L34.173,106.753  z"
     id="path4467" /><path
     d="M84.708,144.761l-1.377-1.377c-0.838,1.432-1.27,2.998-1.27,4.725c0,0.27,0.027,0.541,0.055,0.811  c0.189,2.51,1.35,4.67,3.428,6.451c1.594,1.377,3.43,2.24,5.48,2.619c0.918,0.162,1.889,0.242,2.889,0.215  c0.512-0.027,1.025-0.053,1.539-0.107c0.08-0.027,0.188-0.027,0.27-0.055v-1.457c-0.082,0.027-0.189,0.027-0.27,0.027  c-0.514,0.053-1.027,0.08-1.566,0.08c-0.998,0-1.971-0.107-2.861-0.324c-1.592-0.377-3.023-1.078-4.293-2.131  c-1.781-1.486-2.752-3.268-2.914-5.318c-0.027-0.217-0.027-0.432-0.027-0.621C83.791,147.001,84.087,145.814,84.708,144.761  L84.708,144.761z"
     id="path4469" /><path
     d="M49.884,135.097c-0.324,0-0.594,0.109-0.809,0.324c-0.217,0.217-0.324,0.486-0.324,0.783s0.107,0.566,0.324,0.811  c0.215,0.188,0.484,0.297,0.809,0.297c0.297,0,0.541-0.109,0.783-0.297c0.189-0.244,0.297-0.514,0.297-0.811  s-0.107-0.566-0.297-0.783C50.425,135.207,50.181,135.097,49.884,135.097L49.884,135.097z"
     id="path4471" /><path
     d="M62.437,166.654v4.293h4.293v-4.914C65.191,166.412,63.759,166.628,62.437,166.654L62.437,166.654z"
     id="path4473" /><path
     d="M71.427,164.171v6.775h16.602c-1.619-1.135-2.646-2.861-3.105-5.156h-6.154v-1.215  C76.609,163.443,74.154,163.308,71.427,164.171L71.427,164.171z"
     id="path4475" /></svg>
