<?xml version="1.0" encoding="UTF-8" standalone="no"?>
<svg
   version="1.1"
   x="0px"
   y="0px"
   viewBox="0 0 100 125"
   style="enable-background:new 0 0 100 100;"
   xml:space="preserve"
   id="svg4505"
   sodipodi:docname="sunnovaImprovement.svg"
   inkscape:version="1.1.1 (c3084ef, 2021-09-22)"
   xmlns:inkscape="http://www.inkscape.org/namespaces/inkscape"
   xmlns:sodipodi="http://sodipodi.sourceforge.net/DTD/sodipodi-0.dtd"
   xmlns="http://www.w3.org/2000/svg"
   xmlns:svg="http://www.w3.org/2000/svg"><defs
     id="defs4509" /><sodipodi:namedview
     id="namedview4507"
     pagecolor="#ffffff"
     bordercolor="#666666"
     borderopacity="1.0"
     inkscape:pageshadow="2"
     inkscape:pageopacity="0.0"
     inkscape:pagecheckerboard="0"
     showgrid="false"
     inkscape:zoom="5.016"
     inkscape:cx="-9.669059"
     inkscape:cy="64.892344"
     inkscape:window-width="2208"
     inkscape:window-height="1429"
     inkscape:window-x="0"
     inkscape:window-y="25"
     inkscape:window-maximized="0"
     inkscape:current-layer="svg4505" /><path
     d="M18.1,44.9c0,0.4,0.3,0.7,0.7,0.7h5.8c0.4,0,0.7-0.3,0.7-0.7v-5c1.7-0.4,3.4-1.1,4.8-2l3.5,3.5c0.3,0.3,0.7,0.3,1,0l4.1-4.1  c0.3-0.3,0.3-0.7,0-1l-3.5-3.5c0.9-1.5,1.6-3.1,2-4.8h5c0.4,0,0.7-0.3,0.7-0.7v-5.8c0-0.4-0.3-0.7-0.7-0.7h-5  c-0.4-1.7-1.1-3.4-2-4.8l3.5-3.5c0.3-0.3,0.3-0.7,0-1l-4.1-4.1c-0.3-0.3-0.7-0.3-1,0l-3.5,3.5c-1.5-0.9-3.1-1.6-4.8-2v-5  c0-0.4-0.3-0.7-0.7-0.7h-5.8c-0.4,0-0.7,0.3-0.7,0.7v5c-1.7,0.4-3.4,1.1-4.8,2L9.7,7.2C9.5,7,9,7,8.7,7.2l-4.1,4.1  c-0.3,0.3-0.3,0.7,0,1l3.5,3.5c-0.9,1.5-1.6,3.1-2,4.8h-5c-0.4,0-0.7,0.3-0.7,0.7v5.8c0,0.4,0.3,0.7,0.7,0.7h5  c0.4,1.7,1.1,3.4,2,4.8l-3.5,3.5c-0.3,0.3-0.3,0.7,0,1l4.1,4.1c0.3,0.3,0.7,0.3,1,0l3.5-3.5c1.5,0.9,3.1,1.6,4.8,2V44.9z M13.7,24.3  c0.4-10.6,15.7-10.6,16,0C29.4,34.9,14.1,34.9,13.7,24.3z M91.1,43.2c-2.4,1.3-7.8,4.1-10.1,5.4V0.8h10.1V43.2z M62.3,52.7V25.3  h10.1v27.9l-7.5,4C64.8,55.4,63.8,53.7,62.3,52.7z M54.2,52.1l-10.1,1.2V35.5h10.1V52.1z M98.3,49.6l-30,24.3  c-2.4,1.9-5.3,3.2-8.3,3.7l-12.3,1.8c-2.4,0.4-4.7,1.3-6.7,2.8L38,84.5c-3-4-9.5-12.6-12.6-16.7L40,56.8c0.7-0.6,1.6-0.9,2.5-1  c3.4-0.4,12.6-1.5,15.9-1.9c5-0.4,6,6.8,0.9,7.6c0,0-12.6,1.5-12.6,1.5c-1.4,0.2-1.2,2.4,0.3,2.2c0,0,12.6-1.5,12.6-1.5  c2.1-0.3,4-1.7,4.8-3.6c0,0,16-8.5,16-8.5c3.1-1.6,10.9-5.8,14.1-7.5C98.1,42,101.5,47,98.3,49.6z M37.6,87.6  c0.4,0.6,0.3,1.4-0.3,1.9l-10.4,9.3c-0.6,0.4-1.3,0.3-1.8-0.2L14.2,73c-0.2-0.4-0.5-0.8-0.4-1.2c0.1-0.4,0.2-0.7,0.5-0.9l5.8-4.3  c0.6-0.4,1.5-0.3,1.9,0.3c0,0,1,1.3,1,1.3C26.6,72.9,34,82.8,37.6,87.6z"
     id="path4499" /></svg>
