<?xml version="1.0" encoding="UTF-8" standalone="no"?>
<svg
   version="1.1"
   x="0px"
   y="0px"
   viewBox="0 0 100 125"
   enable-background="new 0 0 100 100"
   xml:space="preserve"
   id="svg3653"
   sodipodi:docname="US.svg"
   inkscape:version="1.1.1 (c3084ef, 2021-09-22)"
   xmlns:inkscape="http://www.inkscape.org/namespaces/inkscape"
   xmlns:sodipodi="http://sodipodi.sourceforge.net/DTD/sodipodi-0.dtd"
   xmlns="http://www.w3.org/2000/svg"
   xmlns:svg="http://www.w3.org/2000/svg"><defs
     id="defs3657" /><sodipodi:namedview
     id="namedview3655"
     pagecolor="#ffffff"
     bordercolor="#666666"
     borderopacity="1.0"
     inkscape:pageshadow="2"
     inkscape:pageopacity="0.0"
     inkscape:pagecheckerboard="0"
     showgrid="false"
     inkscape:zoom="2.9004774"
     inkscape:cx="19.134781"
     inkscape:cy="76.883894"
     inkscape:window-width="1312"
     inkscape:window-height="848"
     inkscape:window-x="943"
     inkscape:window-y="1658"
     inkscape:window-maximized="0"
     inkscape:current-layer="svg3653" /><g
     id="g3647"><g
       id="g3645"><g
         id="g3035"><circle
           cx="1.388"
           cy="24.878"
           r="1.388"
           id="circle2999" /><circle
           cx="4.74"
           cy="24.878"
           r="1.388"
           id="circle3001" /><circle
           cx="8.093"
           cy="24.878"
           r="1.388"
           id="circle3003" /><circle
           cx="11.445"
           cy="24.878"
           r="1.388"
           id="circle3005" /><circle
           cx="14.798"
           cy="24.878"
           r="1.388"
           id="circle3007" /><circle
           cx="18.15"
           cy="24.878"
           r="1.388"
           id="circle3009" /><circle
           cx="21.503"
           cy="24.878"
           r="1.387"
           id="circle3011" /><circle
           cx="24.855"
           cy="24.878"
           r="1.388"
           id="circle3013" /><circle
           cx="28.208"
           cy="24.878"
           r="1.387"
           id="circle3015" /><circle
           cx="31.56"
           cy="24.878"
           r="1.388"
           id="circle3017" /><circle
           cx="34.913"
           cy="24.878"
           r="1.388"
           id="circle3019" /><circle
           cx="38.265"
           cy="24.878"
           r="1.388"
           id="circle3021" /><circle
           cx="41.618"
           cy="24.878"
           r="1.388"
           id="circle3023" /><circle
           cx="44.97"
           cy="24.878"
           r="1.388"
           id="circle3025" /><circle
           cx="48.323"
           cy="24.878"
           r="1.388"
           id="circle3027" /><circle
           cx="51.675"
           cy="24.878"
           r="1.388"
           id="circle3029" /><circle
           cx="55.027"
           cy="24.878"
           r="1.388"
           id="circle3031" /><circle
           cx="58.38"
           cy="24.878"
           r="1.388"
           id="circle3033" /></g><g
         id="g3073"><circle
           cx="4.74"
           cy="28.226"
           r="1.388"
           id="circle3037" /><circle
           cx="8.093"
           cy="28.226"
           r="1.388"
           id="circle3039" /><circle
           cx="11.445"
           cy="28.226"
           r="1.388"
           id="circle3041" /><circle
           cx="14.798"
           cy="28.226"
           r="1.388"
           id="circle3043" /><circle
           cx="18.15"
           cy="28.226"
           r="1.388"
           id="circle3045" /><circle
           cx="21.503"
           cy="28.226"
           r="1.387"
           id="circle3047" /><circle
           cx="24.855"
           cy="28.226"
           r="1.388"
           id="circle3049" /><circle
           cx="28.208"
           cy="28.226"
           r="1.387"
           id="circle3051" /><circle
           cx="31.56"
           cy="28.226"
           r="1.388"
           id="circle3053" /><circle
           cx="34.913"
           cy="28.226"
           r="1.388"
           id="circle3055" /><circle
           cx="38.265"
           cy="28.226"
           r="1.388"
           id="circle3057" /><circle
           cx="41.618"
           cy="28.226"
           r="1.388"
           id="circle3059" /><circle
           cx="44.97"
           cy="28.226"
           r="1.388"
           id="circle3061" /><circle
           cx="48.323"
           cy="28.226"
           r="1.388"
           id="circle3063" /><circle
           cx="51.675"
           cy="28.226"
           r="1.388"
           id="circle3065" /><circle
           cx="55.027"
           cy="28.226"
           r="1.388"
           id="circle3067" /><circle
           cx="58.38"
           cy="28.226"
           r="1.388"
           id="circle3069" /><circle
           cx="61.732"
           cy="28.226"
           r="1.388"
           id="circle3071" /></g><g
         id="g3111"><circle
           cx="4.74"
           cy="31.576"
           r="1.388"
           id="circle3075" /><circle
           cx="8.093"
           cy="31.576"
           r="1.388"
           id="circle3077" /><circle
           cx="11.445"
           cy="31.576"
           r="1.388"
           id="circle3079" /><circle
           cx="14.798"
           cy="31.576"
           r="1.388"
           id="circle3081" /><circle
           cx="18.15"
           cy="31.576"
           r="1.388"
           id="circle3083" /><circle
           cx="21.503"
           cy="31.576"
           r="1.387"
           id="circle3085" /><circle
           cx="24.855"
           cy="31.576"
           r="1.388"
           id="circle3087" /><circle
           cx="28.208"
           cy="31.576"
           r="1.387"
           id="circle3089" /><circle
           cx="31.56"
           cy="31.576"
           r="1.388"
           id="circle3091" /><circle
           cx="34.913"
           cy="31.576"
           r="1.388"
           id="circle3093" /><circle
           cx="38.265"
           cy="31.576"
           r="1.388"
           id="circle3095" /><circle
           cx="41.618"
           cy="31.576"
           r="1.388"
           id="circle3097" /><circle
           cx="44.97"
           cy="31.576"
           r="1.388"
           id="circle3099" /><circle
           cx="48.323"
           cy="31.576"
           r="1.388"
           id="circle3101" /><circle
           cx="51.675"
           cy="31.576"
           r="1.388"
           id="circle3103" /><circle
           cx="55.027"
           cy="31.576"
           r="1.388"
           id="circle3105" /><circle
           cx="58.38"
           cy="31.576"
           r="1.388"
           id="circle3107" /><circle
           cx="61.732"
           cy="31.576"
           r="1.388"
           id="circle3109" /></g><g
         id="g3149"><circle
           cx="4.74"
           cy="34.927"
           r="1.388"
           id="circle3113" /><circle
           cx="8.093"
           cy="34.927"
           r="1.388"
           id="circle3115" /><circle
           cx="11.445"
           cy="34.927"
           r="1.388"
           id="circle3117" /><circle
           cx="14.798"
           cy="34.927"
           r="1.388"
           id="circle3119" /><circle
           cx="18.15"
           cy="34.927"
           r="1.388"
           id="circle3121" /><circle
           cx="21.503"
           cy="34.927"
           r="1.387"
           id="circle3123" /><circle
           cx="24.855"
           cy="34.927"
           r="1.388"
           id="circle3125" /><circle
           cx="28.208"
           cy="34.927"
           r="1.387"
           id="circle3127" /><circle
           cx="31.56"
           cy="34.927"
           r="1.388"
           id="circle3129" /><circle
           cx="34.913"
           cy="34.927"
           r="1.388"
           id="circle3131" /><circle
           cx="38.265"
           cy="34.927"
           r="1.388"
           id="circle3133" /><circle
           cx="41.618"
           cy="34.927"
           r="1.388"
           id="circle3135" /><circle
           cx="44.97"
           cy="34.927"
           r="1.388"
           id="circle3137" /><circle
           cx="48.323"
           cy="34.927"
           r="1.388"
           id="circle3139" /><circle
           cx="51.675"
           cy="34.927"
           r="1.388"
           id="circle3141" /><circle
           cx="55.027"
           cy="34.927"
           r="1.388"
           id="circle3143" /><circle
           cx="58.38"
           cy="34.927"
           r="1.388"
           id="circle3145" /><circle
           cx="61.732"
           cy="34.927"
           r="1.388"
           id="circle3147" /></g><g
         id="g3187"><circle
           cx="4.74"
           cy="38.276"
           r="1.388"
           id="circle3151" /><circle
           cx="8.093"
           cy="38.276"
           r="1.388"
           id="circle3153" /><circle
           cx="11.445"
           cy="38.276"
           r="1.388"
           id="circle3155" /><circle
           cx="14.798"
           cy="38.276"
           r="1.388"
           id="circle3157" /><circle
           cx="18.15"
           cy="38.276"
           r="1.388"
           id="circle3159" /><circle
           cx="21.503"
           cy="38.276"
           r="1.387"
           id="circle3161" /><circle
           cx="24.855"
           cy="38.276"
           r="1.388"
           id="circle3163" /><circle
           cx="28.208"
           cy="38.276"
           r="1.387"
           id="circle3165" /><circle
           cx="31.56"
           cy="38.276"
           r="1.388"
           id="circle3167" /><circle
           cx="34.913"
           cy="38.276"
           r="1.388"
           id="circle3169" /><circle
           cx="38.265"
           cy="38.276"
           r="1.388"
           id="circle3171" /><circle
           cx="41.618"
           cy="38.276"
           r="1.388"
           id="circle3173" /><circle
           cx="44.97"
           cy="38.276"
           r="1.388"
           id="circle3175" /><circle
           cx="48.323"
           cy="38.276"
           r="1.388"
           id="circle3177" /><circle
           cx="51.675"
           cy="38.276"
           r="1.388"
           id="circle3179" /><circle
           cx="55.027"
           cy="38.276"
           r="1.388"
           id="circle3181" /><circle
           cx="58.38"
           cy="38.276"
           r="1.388"
           id="circle3183" /><circle
           cx="61.732"
           cy="38.276"
           r="1.388"
           id="circle3185" /></g><g
         id="g3225"><circle
           cx="4.74"
           cy="41.625"
           r="1.388"
           id="circle3189" /><circle
           cx="8.093"
           cy="41.625"
           r="1.388"
           id="circle3191" /><circle
           cx="11.445"
           cy="41.625"
           r="1.388"
           id="circle3193" /><circle
           cx="14.798"
           cy="41.625"
           r="1.388"
           id="circle3195" /><circle
           cx="18.15"
           cy="41.625"
           r="1.388"
           id="circle3197" /><circle
           cx="21.503"
           cy="41.625"
           r="1.387"
           id="circle3199" /><circle
           cx="24.855"
           cy="41.625"
           r="1.388"
           id="circle3201" /><circle
           cx="28.208"
           cy="41.625"
           r="1.387"
           id="circle3203" /><circle
           cx="31.56"
           cy="41.625"
           r="1.388"
           id="circle3205" /><circle
           cx="34.913"
           cy="41.625"
           r="1.388"
           id="circle3207" /><circle
           cx="38.265"
           cy="41.625"
           r="1.388"
           id="circle3209" /><circle
           cx="41.618"
           cy="41.625"
           r="1.388"
           id="circle3211" /><circle
           cx="44.97"
           cy="41.625"
           r="1.388"
           id="circle3213" /><circle
           cx="48.323"
           cy="41.625"
           r="1.388"
           id="circle3215" /><circle
           cx="51.675"
           cy="41.625"
           r="1.388"
           id="circle3217" /><circle
           cx="55.027"
           cy="41.625"
           r="1.388"
           id="circle3219" /><circle
           cx="58.38"
           cy="41.625"
           r="1.388"
           id="circle3221" /><circle
           cx="61.732"
           cy="41.625"
           r="1.388"
           id="circle3223" /></g><g
         id="g3263"><circle
           cx="4.74"
           cy="44.975"
           r="1.388"
           id="circle3227" /><circle
           cx="8.093"
           cy="44.975"
           r="1.388"
           id="circle3229" /><circle
           cx="11.445"
           cy="44.975"
           r="1.388"
           id="circle3231" /><circle
           cx="14.798"
           cy="44.975"
           r="1.388"
           id="circle3233" /><circle
           cx="18.15"
           cy="44.975"
           r="1.388"
           id="circle3235" /><circle
           cx="21.503"
           cy="44.975"
           r="1.387"
           id="circle3237" /><circle
           cx="24.855"
           cy="44.975"
           r="1.388"
           id="circle3239" /><circle
           cx="28.208"
           cy="44.975"
           r="1.387"
           id="circle3241" /><circle
           cx="31.56"
           cy="44.975"
           r="1.388"
           id="circle3243" /><circle
           cx="34.913"
           cy="44.975"
           r="1.388"
           id="circle3245" /><circle
           cx="38.265"
           cy="44.975"
           r="1.388"
           id="circle3247" /><circle
           cx="41.618"
           cy="44.975"
           r="1.388"
           id="circle3249" /><circle
           cx="44.97"
           cy="44.975"
           r="1.388"
           id="circle3251" /><circle
           cx="48.323"
           cy="44.975"
           r="1.388"
           id="circle3253" /><circle
           cx="51.675"
           cy="44.975"
           r="1.388"
           id="circle3255" /><circle
           cx="55.027"
           cy="44.975"
           r="1.388"
           id="circle3257" /><circle
           cx="58.38"
           cy="44.975"
           r="1.388"
           id="circle3259" /><circle
           cx="61.732"
           cy="44.975"
           r="1.388"
           id="circle3261" /></g><g
         id="g3301"><circle
           cx="4.74"
           cy="48.325"
           r="1.388"
           id="circle3265" /><circle
           cx="8.093"
           cy="48.325"
           r="1.388"
           id="circle3267" /><circle
           cx="11.445"
           cy="48.325"
           r="1.388"
           id="circle3269" /><circle
           cx="14.798"
           cy="48.325"
           r="1.388"
           id="circle3271" /><circle
           cx="18.15"
           cy="48.325"
           r="1.388"
           id="circle3273" /><circle
           cx="21.503"
           cy="48.325"
           r="1.387"
           id="circle3275" /><circle
           cx="24.855"
           cy="48.325"
           r="1.388"
           id="circle3277" /><circle
           cx="28.208"
           cy="48.325"
           r="1.387"
           id="circle3279" /><circle
           cx="31.56"
           cy="48.325"
           r="1.388"
           id="circle3281" /><circle
           cx="34.913"
           cy="48.325"
           r="1.388"
           id="circle3283" /><circle
           cx="38.265"
           cy="48.325"
           r="1.388"
           id="circle3285" /><circle
           cx="41.618"
           cy="48.325"
           r="1.388"
           id="circle3287" /><circle
           cx="44.97"
           cy="48.325"
           r="1.388"
           id="circle3289" /><circle
           cx="48.323"
           cy="48.325"
           r="1.388"
           id="circle3291" /><circle
           cx="51.675"
           cy="48.325"
           r="1.388"
           id="circle3293" /><circle
           cx="55.027"
           cy="48.325"
           r="1.388"
           id="circle3295" /><circle
           cx="58.38"
           cy="48.325"
           r="1.388"
           id="circle3297" /><circle
           cx="61.732"
           cy="48.325"
           r="1.388"
           id="circle3299" /></g><g
         id="g3311"><circle
           cx="65.087"
           cy="28.226"
           r="1.388"
           id="circle3303" /><circle
           cx="68.438"
           cy="28.226"
           r="1.388"
           id="circle3305" /><circle
           cx="95.258"
           cy="28.226"
           r="1.388"
           id="circle3307" /><circle
           cx="98.611"
           cy="28.226"
           r="1.388"
           id="circle3309" /></g><g
         id="g3321"><circle
           cx="65.087"
           cy="31.576"
           r="1.388"
           id="circle3313" /><circle
           cx="71.792"
           cy="31.576"
           r="1.388"
           id="circle3315" /><circle
           cx="95.258"
           cy="31.576"
           r="1.388"
           id="circle3317" /><circle
           cx="98.611"
           cy="31.576"
           r="1.388"
           id="circle3319" /></g><g
         id="g3337"><circle
           cx="68.438"
           cy="34.927"
           r="1.388"
           id="circle3323" /><circle
           cx="71.792"
           cy="34.927"
           r="1.388"
           id="circle3325" /><circle
           cx="85.201"
           cy="34.927"
           r="1.388"
           id="circle3327" /><circle
           cx="88.555"
           cy="34.927"
           r="1.388"
           id="circle3329" /><circle
           cx="91.907"
           cy="34.927"
           r="1.388"
           id="circle3331" /><circle
           cx="95.258"
           cy="34.927"
           r="1.388"
           id="circle3333" /><circle
           cx="98.611"
           cy="34.927"
           r="1.388"
           id="circle3335" /></g><g
         id="g3353"><circle
           cx="68.438"
           cy="38.276"
           r="1.388"
           id="circle3339" /><circle
           cx="71.792"
           cy="38.276"
           r="1.388"
           id="circle3341" /><circle
           cx="78.497"
           cy="38.276"
           r="1.388"
           id="circle3343" /><circle
           cx="81.85"
           cy="38.276"
           r="1.388"
           id="circle3345" /><circle
           cx="85.201"
           cy="38.276"
           r="1.388"
           id="circle3347" /><circle
           cx="88.555"
           cy="38.276"
           r="1.388"
           id="circle3349" /><circle
           cx="91.907"
           cy="38.276"
           r="1.388"
           id="circle3351" /></g><g
         id="g3373"><circle
           cx="65.087"
           cy="41.625"
           r="1.388"
           id="circle3355" /><circle
           cx="68.438"
           cy="41.625"
           r="1.388"
           id="circle3357" /><circle
           cx="71.792"
           cy="41.625"
           r="1.388"
           id="circle3359" /><circle
           cx="75.145"
           cy="41.625"
           r="1.388"
           id="circle3361" /><circle
           cx="78.497"
           cy="41.625"
           r="1.388"
           id="circle3363" /><circle
           cx="81.85"
           cy="41.625"
           r="1.388"
           id="circle3365" /><circle
           cx="85.201"
           cy="41.625"
           r="1.388"
           id="circle3367" /><circle
           cx="88.555"
           cy="41.625"
           r="1.388"
           id="circle3369" /><circle
           cx="91.907"
           cy="41.625"
           r="1.388"
           id="circle3371" /></g><g
         id="g3389"><circle
           cx="65.087"
           cy="44.975"
           r="1.388"
           id="circle3375" /><circle
           cx="68.438"
           cy="44.975"
           r="1.388"
           id="circle3377" /><circle
           cx="71.792"
           cy="44.975"
           r="1.388"
           id="circle3379" /><circle
           cx="75.145"
           cy="44.975"
           r="1.388"
           id="circle3381" /><circle
           cx="78.497"
           cy="44.975"
           r="1.388"
           id="circle3383" /><circle
           cx="81.85"
           cy="44.975"
           r="1.388"
           id="circle3385" /><circle
           cx="85.201"
           cy="44.975"
           r="1.388"
           id="circle3387" /></g><g
         id="g3405"><circle
           cx="65.087"
           cy="48.325"
           r="1.388"
           id="circle3391" /><circle
           cx="68.438"
           cy="48.325"
           r="1.388"
           id="circle3393" /><circle
           cx="71.792"
           cy="48.325"
           r="1.388"
           id="circle3395" /><circle
           cx="75.145"
           cy="48.325"
           r="1.388"
           id="circle3397" /><circle
           cx="78.497"
           cy="48.325"
           r="1.388"
           id="circle3399" /><circle
           cx="81.85"
           cy="48.325"
           r="1.388"
           id="circle3401" /><circle
           cx="85.201"
           cy="48.325"
           r="1.388"
           id="circle3403" /></g><g
         id="g3441"><circle
           cx="8.093"
           cy="51.675"
           r="1.388"
           id="circle3407" /><circle
           cx="11.445"
           cy="51.675"
           r="1.388"
           id="circle3409" /><circle
           cx="14.798"
           cy="51.675"
           r="1.388"
           id="circle3411" /><circle
           cx="18.15"
           cy="51.675"
           r="1.388"
           id="circle3413" /><circle
           cx="21.503"
           cy="51.675"
           r="1.387"
           id="circle3415" /><circle
           cx="24.855"
           cy="51.675"
           r="1.388"
           id="circle3417" /><circle
           cx="28.208"
           cy="51.675"
           r="1.387"
           id="circle3419" /><circle
           cx="31.56"
           cy="51.675"
           r="1.388"
           id="circle3421" /><circle
           cx="34.913"
           cy="51.675"
           r="1.388"
           id="circle3423" /><circle
           cx="38.265"
           cy="51.675"
           r="1.388"
           id="circle3425" /><circle
           cx="41.618"
           cy="51.675"
           r="1.388"
           id="circle3427" /><circle
           cx="44.97"
           cy="51.675"
           r="1.388"
           id="circle3429" /><circle
           cx="48.323"
           cy="51.675"
           r="1.388"
           id="circle3431" /><circle
           cx="51.675"
           cy="51.675"
           r="1.388"
           id="circle3433" /><circle
           cx="55.027"
           cy="51.675"
           r="1.388"
           id="circle3435" /><circle
           cx="58.38"
           cy="51.675"
           r="1.388"
           id="circle3437" /><circle
           cx="61.732"
           cy="51.675"
           r="1.388"
           id="circle3439" /></g><g
         id="g3477"><path
           d="M9.481,55.025c0,0.764-0.622,1.386-1.388,1.386c-0.766,0-1.388-0.622-1.388-1.386c0-0.77,0.622-1.389,1.388-1.389     C8.859,53.639,9.481,54.257,9.481,55.025z"
           id="path3443" /><path
           d="M12.833,55.025c0,0.764-0.622,1.386-1.388,1.386c-0.767,0-1.388-0.622-1.388-1.386c0-0.77,0.622-1.389,1.388-1.389     C12.211,53.639,12.833,54.257,12.833,55.025z"
           id="path3445" /><path
           d="M16.186,55.025c0,0.764-0.622,1.386-1.388,1.386c-0.767,0-1.388-0.622-1.388-1.386c0-0.77,0.622-1.389,1.388-1.389     C15.564,53.639,16.186,54.257,16.186,55.025z"
           id="path3447" /><path
           d="M19.538,55.025c0,0.764-0.622,1.386-1.388,1.386s-1.388-0.622-1.388-1.386c0-0.77,0.622-1.389,1.388-1.389     C18.917,53.639,19.538,54.257,19.538,55.025z"
           id="path3449" /><path
           d="M22.891,55.025c0,0.764-0.621,1.386-1.387,1.386s-1.388-0.622-1.388-1.386c0-0.77,0.622-1.389,1.388-1.389     C22.27,53.639,22.891,54.257,22.891,55.025z"
           id="path3451" /><path
           d="M26.243,55.025c0,0.764-0.621,1.386-1.388,1.386s-1.388-0.622-1.388-1.386c0-0.77,0.622-1.389,1.388-1.389     C25.622,53.639,26.243,54.257,26.243,55.025z"
           id="path3453" /><path
           d="M29.595,55.025c0,0.764-0.621,1.386-1.387,1.386c-0.767,0-1.388-0.622-1.388-1.386c0-0.77,0.622-1.389,1.388-1.389     C28.975,53.639,29.595,54.257,29.595,55.025z"
           id="path3455" /><path
           d="M32.948,55.025c0,0.764-0.621,1.386-1.388,1.386c-0.765,0-1.388-0.622-1.388-1.386c0-0.77,0.623-1.389,1.388-1.389     C32.327,53.639,32.948,54.257,32.948,55.025z"
           id="path3457" /><path
           d="M36.301,55.025c0,0.764-0.622,1.386-1.388,1.386c-0.768,0-1.388-0.622-1.388-1.386c0-0.77,0.621-1.389,1.388-1.389     C35.679,53.639,36.301,54.257,36.301,55.025z"
           id="path3459" /><path
           d="M39.653,55.025c0,0.764-0.623,1.386-1.388,1.386c-0.767,0-1.389-0.622-1.389-1.386c0-0.77,0.623-1.389,1.389-1.389     C39.031,53.639,39.653,54.257,39.653,55.025z"
           id="path3461" /><path
           d="M43.006,55.025c0,0.764-0.622,1.386-1.388,1.386c-0.766,0-1.388-0.622-1.388-1.386c0-0.77,0.622-1.389,1.388-1.389     C42.384,53.639,43.006,54.257,43.006,55.025z"
           id="path3463" /><path
           d="M46.358,55.025c0,0.764-0.622,1.386-1.388,1.386c-0.766,0-1.388-0.622-1.388-1.386c0-0.77,0.622-1.389,1.388-1.389     C45.737,53.639,46.358,54.257,46.358,55.025z"
           id="path3465" /><path
           d="M49.711,55.025c0,0.764-0.622,1.386-1.388,1.386c-0.767,0-1.388-0.622-1.388-1.386c0-0.77,0.622-1.389,1.388-1.389     C49.089,53.639,49.711,54.257,49.711,55.025z"
           id="path3467" /><path
           d="M53.063,55.025c0,0.764-0.621,1.386-1.389,1.386c-0.766,0-1.388-0.622-1.388-1.386c0-0.77,0.622-1.389,1.388-1.389     C52.441,53.639,53.063,54.257,53.063,55.025z"
           id="path3469" /><path
           d="M56.416,55.025c0,0.764-0.621,1.386-1.389,1.386s-1.389-0.622-1.389-1.386c0-0.77,0.621-1.389,1.389-1.389     C55.795,53.639,56.416,54.257,56.416,55.025z"
           id="path3471" /><path
           d="M59.768,55.025c0,0.764-0.621,1.386-1.387,1.386c-0.768,0-1.389-0.622-1.389-1.386c0-0.77,0.621-1.389,1.389-1.389     C59.146,53.639,59.768,54.257,59.768,55.025z"
           id="path3473" /><path
           d="M63.121,55.025c0,0.764-0.621,1.386-1.389,1.386s-1.387-0.622-1.387-1.386c0-0.77,0.619-1.389,1.387-1.389     C62.5,53.639,63.121,54.257,63.121,55.025z"
           id="path3475" /></g><g
         id="g3509"><circle
           cx="14.798"
           cy="58.373"
           r="1.388"
           id="circle3479" /><circle
           cx="18.15"
           cy="58.373"
           r="1.388"
           id="circle3481" /><circle
           cx="21.503"
           cy="58.373"
           r="1.387"
           id="circle3483" /><circle
           cx="24.855"
           cy="58.373"
           r="1.388"
           id="circle3485" /><circle
           cx="28.208"
           cy="58.373"
           r="1.387"
           id="circle3487" /><circle
           cx="31.56"
           cy="58.373"
           r="1.388"
           id="circle3489" /><circle
           cx="34.913"
           cy="58.373"
           r="1.388"
           id="circle3491" /><circle
           cx="38.265"
           cy="58.373"
           r="1.388"
           id="circle3493" /><circle
           cx="41.618"
           cy="58.373"
           r="1.388"
           id="circle3495" /><circle
           cx="44.97"
           cy="58.373"
           r="1.388"
           id="circle3497" /><circle
           cx="48.323"
           cy="58.373"
           r="1.388"
           id="circle3499" /><circle
           cx="51.675"
           cy="58.373"
           r="1.388"
           id="circle3501" /><circle
           cx="55.027"
           cy="58.373"
           r="1.388"
           id="circle3503" /><circle
           cx="58.38"
           cy="58.373"
           r="1.388"
           id="circle3505" /><circle
           cx="61.732"
           cy="58.373"
           r="1.388"
           id="circle3507" /></g><g
         id="g3537"><circle
           cx="21.503"
           cy="61.724"
           r="1.387"
           id="circle3511" /><circle
           cx="24.855"
           cy="61.724"
           r="1.388"
           id="circle3513" /><circle
           cx="28.208"
           cy="61.724"
           r="1.387"
           id="circle3515" /><circle
           cx="31.56"
           cy="61.724"
           r="1.388"
           id="circle3517" /><circle
           cx="34.913"
           cy="61.724"
           r="1.388"
           id="circle3519" /><circle
           cx="38.265"
           cy="61.724"
           r="1.388"
           id="circle3521" /><circle
           cx="41.618"
           cy="61.724"
           r="1.388"
           id="circle3523" /><circle
           cx="44.97"
           cy="61.724"
           r="1.388"
           id="circle3525" /><circle
           cx="48.323"
           cy="61.724"
           r="1.388"
           id="circle3527" /><circle
           cx="51.675"
           cy="61.724"
           r="1.388"
           id="circle3529" /><circle
           cx="55.027"
           cy="61.724"
           r="1.388"
           id="circle3531" /><circle
           cx="58.38"
           cy="61.724"
           r="1.388"
           id="circle3533" /><circle
           cx="61.732"
           cy="61.724"
           r="1.388"
           id="circle3535" /></g><g
         id="g3555"><circle
           cx="38.265"
           cy="65.074"
           r="1.388"
           id="circle3539" /><circle
           cx="41.618"
           cy="65.074"
           r="1.388"
           id="circle3541" /><circle
           cx="44.97"
           cy="65.074"
           r="1.388"
           id="circle3543" /><circle
           cx="48.323"
           cy="65.074"
           r="1.388"
           id="circle3545" /><circle
           cx="51.675"
           cy="65.074"
           r="1.388"
           id="circle3547" /><circle
           cx="55.027"
           cy="65.074"
           r="1.388"
           id="circle3549" /><circle
           cx="58.38"
           cy="65.074"
           r="1.388"
           id="circle3551" /><circle
           cx="61.732"
           cy="65.074"
           r="1.388"
           id="circle3553" /></g><g
         id="g3563"><path
           d="M46.358,68.424c0,0.766-0.622,1.387-1.388,1.387c-0.766,0-1.388-0.621-1.388-1.387c0-0.769,0.622-1.39,1.388-1.39     C45.737,67.034,46.358,67.655,46.358,68.424z"
           id="path3557" /><path
           d="M49.711,68.424c0,0.766-0.622,1.387-1.388,1.387c-0.767,0-1.388-0.621-1.388-1.387c0-0.769,0.622-1.39,1.388-1.39     C49.089,67.034,49.711,67.655,49.711,68.424z"
           id="path3559" /><path
           d="M53.063,68.424c0,0.766-0.621,1.387-1.389,1.387c-0.766,0-1.388-0.621-1.388-1.387c0-0.769,0.622-1.39,1.388-1.39     C52.441,67.034,53.063,67.655,53.063,68.424z"
           id="path3561" /></g><g
         id="g3569"><circle
           cx="44.97"
           cy="71.772"
           r="1.388"
           id="circle3565" /><circle
           cx="48.323"
           cy="71.772"
           r="1.388"
           id="circle3567" /></g><g
         id="g3585"><circle
           cx="65.087"
           cy="51.675"
           r="1.388"
           id="circle3571" /><circle
           cx="68.438"
           cy="51.675"
           r="1.388"
           id="circle3573" /><circle
           cx="71.792"
           cy="51.675"
           r="1.388"
           id="circle3575" /><circle
           cx="75.145"
           cy="51.675"
           r="1.388"
           id="circle3577" /><circle
           cx="78.497"
           cy="51.675"
           r="1.388"
           id="circle3579" /><circle
           cx="81.85"
           cy="51.675"
           r="1.388"
           id="circle3581" /><circle
           cx="85.201"
           cy="51.675"
           r="1.388"
           id="circle3583" /></g><g
         id="g3599"><path
           d="M66.475,55.025c0,0.764-0.621,1.386-1.388,1.386s-1.388-0.622-1.388-1.386c0-0.77,0.621-1.389,1.388-1.389     S66.475,54.257,66.475,55.025z"
           id="path3587" /><path
           d="M69.826,55.025c0,0.764-0.622,1.386-1.389,1.386s-1.389-0.622-1.389-1.386c0-0.77,0.622-1.389,1.389-1.389     C69.204,53.639,69.826,54.257,69.826,55.025z"
           id="path3589" /><path
           d="M73.18,55.025c0,0.764-0.621,1.386-1.388,1.386s-1.39-0.622-1.39-1.386c0-0.77,0.623-1.389,1.39-1.389     C72.559,53.639,73.18,54.257,73.18,55.025z"
           id="path3591" /><path
           d="M76.532,55.025c0,0.764-0.622,1.386-1.388,1.386c-0.769,0-1.39-0.622-1.39-1.386c0-0.77,0.621-1.389,1.39-1.389     C75.91,53.639,76.532,54.257,76.532,55.025z"
           id="path3593" /><path
           d="M79.885,55.025c0,0.764-0.621,1.386-1.389,1.386c-0.766,0-1.389-0.622-1.389-1.386c0-0.77,0.623-1.389,1.389-1.389     C79.264,53.639,79.885,54.257,79.885,55.025z"
           id="path3595" /><path
           d="M83.236,55.025c0,0.764-0.621,1.386-1.389,1.386c-0.766,0-1.388-0.622-1.388-1.386c0-0.77,0.622-1.389,1.388-1.389     C82.615,53.639,83.236,54.257,83.236,55.025z"
           id="path3597" /></g><g
         id="g3611"><circle
           cx="65.087"
           cy="58.373"
           r="1.388"
           id="circle3601" /><circle
           cx="68.438"
           cy="58.373"
           r="1.388"
           id="circle3603" /><circle
           cx="71.792"
           cy="58.373"
           r="1.388"
           id="circle3605" /><circle
           cx="75.145"
           cy="58.373"
           r="1.388"
           id="circle3607" /><circle
           cx="78.497"
           cy="58.373"
           r="1.388"
           id="circle3609" /></g><g
         id="g3621"><circle
           cx="65.087"
           cy="61.724"
           r="1.388"
           id="circle3613" /><circle
           cx="68.438"
           cy="61.724"
           r="1.388"
           id="circle3615" /><circle
           cx="71.792"
           cy="61.724"
           r="1.388"
           id="circle3617" /><circle
           cx="75.145"
           cy="61.724"
           r="1.388"
           id="circle3619" /></g><g
         id="g3629"><circle
           cx="68.438"
           cy="65.074"
           r="1.388"
           id="circle3623" /><circle
           cx="71.792"
           cy="65.074"
           r="1.388"
           id="circle3625" /><circle
           cx="75.145"
           cy="65.074"
           r="1.388"
           id="circle3627" /></g><g
         id="g3635"><path
           d="M73.18,68.424c0,0.766-0.621,1.387-1.388,1.387s-1.39-0.621-1.39-1.387c0-0.769,0.623-1.39,1.39-1.39     S73.18,67.655,73.18,68.424z"
           id="path3631" /><path
           d="M76.532,68.424c0,0.766-0.622,1.387-1.388,1.387c-0.769,0-1.39-0.621-1.39-1.387c0-0.769,0.621-1.39,1.39-1.39     C75.91,67.034,76.532,67.655,76.532,68.424z"
           id="path3633" /></g><g
         id="g3639"><circle
           cx="75.145"
           cy="71.772"
           r="1.388"
           id="circle3637" /></g><g
         id="g3643"><circle
           cx="75.145"
           cy="75.122"
           r="1.388"
           id="circle3641" /></g></g></g></svg>
