<?xml version="1.0" encoding="UTF-8" standalone="no"?>
<!DOCTYPE svg PUBLIC "-//W3C//DTD SVG 1.1//EN" "http://www.w3.org/Graphics/SVG/1.1/DTD/svg11.dtd">
<svg id="phoneSVG" width="100%" height="100%" viewBox="0 0 1024 1024" version="1.1" xmlns="http://www.w3.org/2000/svg" xmlns:xlink="http://www.w3.org/1999/xlink" xml:space="preserve" xmlns:serif="http://www.serif.com/" style="fill-rule:evenodd;clip-rule:evenodd;stroke-linecap:round;stroke-linejoin:round;stroke-miterlimit:1.5;">
   <!--    HAND OUTLINE-->
    <g id="">
        <path id="handOutline" class="path" fill="none" stroke="black" stroke-width="12px" d="M651.149,668.325C649.688,644.698 652.475,621.631 661.913,599.03C677.879,560.798 705.224,532.737 693.274,488.566C684.722,456.954 677.596,425.093 657.593,399.084C631.586,365.268 599.506,339.17 588.864,295.545C585.316,281 582.733,252.733 594.026,236.904C605.792,220.412 620.994,227.414 629.629,233.799C660.555,256.667 681.638,276.682 711.499,297.862C725.07,307.488 743.12,309.398 753.627,323.178C763.898,336.648 765.001,355.778 770.753,371.323C778.484,392.216 791.713,412.219 805.705,429.46C825.981,454.442 856.518,474.306 862.418,508.962C867.398,538.216 861.534,562.82 859.694,591.862C858.532,610.194 860.16,628.517 858.229,646.854C856.506,663.211 850.959,678.927 850.013,695.408C848.032,729.91 849.525,767.078 850.825,801.683C852.163,837.301 874.504,892.964 891.967,923.977C900.655,939.405 904.244,962.711 913.024,978.084C917.85,986.535 947.273,1015.17 934.307,1016.7C917.973,1018.62 902.818,1018.69 886.945,1019.19C842.252,1020.61 795.463,1017.71 745.869,1017.23C690.331,1016.7 657.838,1020.2 565.867,1017.8C556.135,1017.55 546.625,991.257 528.537,977.326C500.763,955.933 469.353,937.814 443.876,913.585C419.411,890.32 401.086,860.472 375.776,838.378C323.71,792.928 245.029,808.294 234.521,722.347C233.188,711.442 230.948,699.897 234.718,689.239C244.526,661.514 273.579,666.821 297.911,674.604C330.784,685.119 342.702,703.336 372.34,719.32C384.248,725.742 399.786,726.098 410.766,733.926C423.981,743.348 427.684,763.363 418.521,780.033C406.273,802.317 381.834,795.001 363.199,789.716C341.968,783.695 321.334,775.916 300.616,768.38C267.16,756.211 225.739,745.946 238.706,697.383C252.629,645.239 351.696,660.506 390.276,667.723C410.416,671.491 449.86,662.327 455.877,640.769C464.311,610.548 426.449,591.14 397.901,580.2C379.138,573.009 359.938,567.477 340.959,560.948C295.703,545.38 224.329,511.325 208.883,575.013C206.683,584.086 201.964,602.632 204.113,611.671C219.428,676.084 269.008,655.786 315.293,655.152C324.172,655.031 333.859,658.661 342.491,660.474C371.83,666.634 432.811,679.08 453.126,646.431C466.395,625.104 445.453,604.152 428.593,593.704C398.53,575.073 360.687,567.213 327.028,557.597C313.624,553.767 287.92,544.803 288.429,532.738C289.088,517.114 288.274,515.74 298.806,517.691C308.488,519.484 315.499,527.858 325.143,529.985C350.526,535.583 386.545,520.274 393.075,493.087C397.357,475.259 381.435,460.513 372.182,447.28C353.141,420.048 302.181,342.238 265.381,343.501C255.204,343.85 244.902,346.011 235.986,351.081C173.834,386.425 210.345,445.441 248.592,482.789C259.501,493.441 271.116,503.333 284.27,511.121C285.616,511.918 293.723,517.384 295.296,515.282C298.371,511.172 265.333,491.384 260.219,487.661C238.284,471.691 218.826,451.704 209.558,425.346C204.575,411.173 200.729,384.304 212.914,371.421C261.793,319.736 295.118,358.369 292.393,317.199C291.425,302.58 272.967,297.75 262.455,292.01C224.791,271.445 197.717,255.62 200.096,207.794C200.736,194.924 208.284,180.88 221.758,175.064C245.273,164.914 280.36,176.916 288.597,201.028C300.093,234.685 292.842,281.741 292.393,317.199"/>
    </g>

<!--    LINES INSIDE HAND-->
<g id="">
    <g id="innerHandLines1">
        <path id="innerHandLines" class="path" fill="none" stroke="black" stroke-width="4px" d="M371.987,479.519C370.999,479.282 369.248,476.128 368.643,475.39C365.577,471.654 362.384,467.986 359.059,464.48C349.183,454.069 337.593,445.266 325.372,437.783C317.106,432.721 307.706,427.093 297.644,427.366C281.085,427.816 275.113,446.708 278.942,460.406C280.88,467.336 284.677,473.782 288.618,479.741C298.166,494.176 311.32,507.646 328.646,511.926C345.497,516.088 367.565,511.326 373.108,492.853C374.377,488.623 374.949,484.118 375.049,479.711C375.617,454.549 359.571,438.302 339.904,425.394C333.343,421.087 326.493,415.996 318.934,413.61C310.546,410.962 301.662,412.043 293.372,414.418C285.377,416.708 272.187,418.295 267.137,425.774C263.537,431.104 261.428,437.724 260.4,444.011C258.632,454.823 258.871,466.341 263.56,476.473C269.16,488.571 280.288,496.707 291.187,503.654C300.336,509.486 309.518,514.718 319.716,518.529C338.25,525.456 365.067,525.981 377.206,507.621C385.205,495.52 387.585,478.052 380.932,464.819C377.112,457.222 370.624,451.121 364.542,445.336C351.904,433.317 337.657,422.084 321.722,414.773C312.14,410.376 300.367,404.98 289.549,405.654C283.007,406.062 277.189,409.87 272.283,413.935C261.524,422.851 253.846,434.693 251.834,448.699C250.685,456.698 252.006,463.736 253.696,471.519C253.998,472.91 256.239,478.393 255.02,479.68C254.225,480.52 252.199,478.221 251.779,477.768C242.847,468.133 244.06,455.609 247.281,443.893C252.087,426.415 259.845,407.544 278.967,402.142C297.081,397.025 314.289,408.841 330.219,415.794C333.738,417.331 337.719,418.436 341.568,418.685C343.223,418.792 345.411,418.396 345.266,416.301C344.982,412.221 340.036,408.53 337.404,405.957C330.062,398.779 322.669,391.641 315.161,384.637C303.536,373.791 291.511,364.127 277.951,355.798C273.197,352.877 267.763,348.302 261.915,348.248C247.939,348.119 234.433,360.756 225.318,369.91C220.525,374.723 213.472,379.885 210.595,386.219C210.293,386.884 210.113,387.602 210.005,388.322C208.821,396.173 218.168,388.075 220.169,386.184C229.394,377.463 239.55,362.332 253.14,360.535C262.658,359.277 271.595,362.947 280.129,366.687C297.229,374.181 313.805,382.342 326.07,396.721C328.889,400.025 332.888,403.664 334.596,407.737C335.295,409.402 330.955,406.819 330.579,406.598C326.254,404.052 322.177,401.098 317.942,398.408C306.855,391.363 295.231,385.12 283.449,379.328C273.271,374.325 260.578,365.35 248.81,365.484C238.008,365.606 231.35,375.674 224.71,382.687C220.706,386.915 216.516,390.827 213.191,395.653C210.568,399.46 208.324,403.545 208.036,408.255C207.635,414.8 212.671,412.859 215.546,409.239C223.22,399.578 226.097,383.585 240.738,382.114C243.249,381.862 245.813,382.103 248.288,382.554C258.282,384.375 267.337,389.222 276.595,393.15C286.783,397.472 297.221,401.126 307.543,405.105C312.393,406.975 317.203,408.965 322.104,410.697C322.5,410.837 326.315,412.218 326.497,411.1C326.775,409.39 320.289,406.515 319.226,405.94C310.824,401.4 301.686,397.985 292.911,394.233C280.659,388.993 268.629,383.103 256.158,378.394C250.102,376.107 243.036,373.353 236.474,375.001C229.195,376.828 222.696,383.515 217.955,388.982C214.488,392.979 211.752,397.416 210.49,402.604C209.242,407.733 209.105,414.07 210.659,419.151C211.224,420.998 212.723,424.076 215.154,422.866C219.995,420.457 222.223,410.629 224.896,406.265C232.662,393.589 244.73,390.158 258.648,388.003C263.437,387.261 271.881,386.807 274.83,391.943C276.307,394.517 270.003,394.514 268.989,394.506C260.195,394.436 252.498,393.09 244.844,398.38C234.468,405.551 228.559,418.833 225.662,430.659C224.828,434.063 224.307,437.609 224.823,441.109C224.968,442.095 225.289,444.251 226.579,444.456C227.909,444.667 228.931,442.41 229.405,441.516C231.257,438.023 232.44,434.186 233.824,430.495C238.743,417.381 247.526,405.186 259.161,397.095C261.489,395.476 269.537,390.598 272.456,393.036C274.47,394.718 270.065,399.634 269,400.599C262.444,406.538 253.726,409.752 247.421,415.879C235.459,427.503 230.271,453.207 237.61,468.618"/>
    </g>
    <g id="innerHandLines2">
        <path id="innerHandLines" class="path" fill="none" stroke="black" stroke-width="4px" d="M385.067,641.131C385.765,640.191 397.957,635.519 400.32,633.734C410.361,626.146 417.409,602.768 433.388,605.539C439.439,606.588 440.018,614.136 439.358,618.996C437.836,630.216 432.219,639.97 422.145,645.481C408.453,652.972 399.923,646.616 387.687,640.733C369.878,632.17 349.161,622.571 360.769,598.288C362.56,594.541 364.988,591.051 367.923,588.11C384.42,571.584 410.809,593.12 425.506,602.625C430.213,605.669 434.87,608.918 438.886,612.85C447.417,621.201 450.46,632.531 441.346,641.883C434.478,648.931 423.425,653.004 413.985,655.038C386.57,660.947 342.577,653.836 326.123,628.004C314.643,609.981 316.48,570.371 340.697,562.252C347.593,559.94 351.389,564.688 349.448,571.315C345.881,583.497 335.678,591.922 338.238,605.598C341.611,623.619 355.388,633.802 370.475,641.921C374.327,643.994 383.243,649.221 387.605,645.962C391.012,643.418 382.099,637.733 380.72,636.721C371.303,629.805 356.858,626.11 352.984,613.896C350.022,604.556 352.718,590.084 361.647,584.65C363.889,583.286 375.088,581.655 375.628,579.194C376.409,575.635 367.123,571.672 364.851,570.645C354.006,565.743 336.502,557.494 324.219,559.545C316.167,560.889 312.03,568.489 310.002,575.767C305.931,590.373 306.146,608.876 311.729,623.11C314.325,629.728 319.188,635.407 324.622,639.922C326.807,641.737 331.842,643.567 333.052,646.249C333.522,647.291 331.362,647.672 330.768,647.706C307.144,649.069 284.971,615.603 291.683,593.646C294.936,583.002 300.928,574.01 306.597,564.581C308.329,561.699 312.139,558.671 313.109,555.515C314.191,551.996 307.438,550.847 305.371,551.232C296.335,552.913 289.747,563.046 285.614,570.345C272.335,593.789 279.098,632.145 305.08,644.616C310.958,647.437 323.888,652.627 330.667,649.92C330.828,649.855 330.898,649.69 330.708,649.595C328.844,648.665 325.05,649.201 323.007,649.033C317.738,648.598 312.479,648.03 307.218,647.504C291.033,645.886 272.798,638.741 266.34,622.601C259.389,605.226 266.899,581.6 275.883,566.349C279.059,560.958 286.749,554.706 288.033,548.587C288.972,544.111 281.379,543.043 278.687,543.569C265.006,546.24 257.063,560.98 252.629,572.972C239.688,607.981 256.808,650.722 297.941,652.774C303.629,653.057 311.535,654.484 316.907,652.005C319,651.04 309.974,649.154 309.219,648.996C303.437,647.786 297.64,646.685 291.765,646.024C275.892,644.239 244.227,648.017 235.319,631.203C224.144,610.111 231.028,586.208 243.791,567.727C247.081,562.963 263.656,546.204 262.29,541.012C260.622,534.675 247.125,543.539 244.602,545.263C238.511,549.426 234.19,555.951 229.942,561.859C205.75,595.503 216.672,640.121 257.357,653.566C273.393,658.865 290.434,648.856 306.318,647.091C322.995,645.237 337.301,650.977 353.352,653.997"/>
    </g>
    <g id="innerHandLines3">
        <path id="innerHandLines" class="path" fill="none" stroke="black" stroke-width="4px" d="M271.012,691.588C271.159,691.181 271.646,692.177 271.966,692.468C272.933,693.35 273.882,694.253 274.854,695.13C277.497,697.514 280.025,700.021 282.516,702.563C290.219,710.423 297.231,718.974 305.12,726.637C322.827,743.835 354.8,759.552 379.271,762.902C387.548,764.035 404.905,764.673 408.949,754.701C410.342,751.269 405.489,749.111 403.13,747.996C394.584,743.954 385.63,740.856 377.149,736.674C359.166,727.807 340.893,719.049 323.856,708.442C312.438,701.332 302.154,691.725 289.565,686.645C280.099,682.826 259.242,680.525 259.381,695.579C259.49,707.303 270.92,719.793 278.643,727.746C302.254,752.056 333.39,771.008 367.82,770.956C382.356,770.935 410.562,771.161 415.304,753.085C419.033,738.873 396.42,732.287 387.131,728.167C384.128,726.835 381.124,725.505 378.127,724.16C361.23,716.576 345.196,707.646 329.1,698.512C314.325,690.128 298.884,681.302 281.779,678.991C259.495,675.981 239.614,689.922 240.982,713.36C243.232,751.909 286.998,758.733 315.607,769.397C329.46,774.56 343.027,781.362 357.673,784.037C368.611,786.035 380.029,785.708 390.912,783.49C400.475,781.542 409.574,777.374 414.297,768.356C416.623,763.916 414.966,760.423 415.956,756.092C416.193,755.053 416.864,752.76 418.293,752.849C421.802,753.067 418.465,766.63 417.994,768.052C409.537,793.594 389.766,791.465 367.182,786.374C340.947,780.46 314.475,772.151 292.255,756.545C284.63,751.19 276.887,745.849 271.38,738.179C265.161,729.519 263.769,720.371 260.664,710.466C260.159,708.853 258.588,702.198 255.867,702.824C251.845,703.748 255.355,713.911 255.926,715.977C259.006,727.124 265.762,736.448 271.596,746.236C272.313,747.439 277.154,754.188 275.38,755.479C273.59,756.783 268.954,752.153 267.866,751.213C261.595,745.796 254.809,739.195 252.41,731.02C250.033,722.922 251.419,715.027 252.863,706.922C253.272,704.623 255.396,698.431 253.612,696.384C251.691,694.182 247.397,702.028 246.887,702.975C243.001,710.202 240.382,719.031 242.838,727.182"/>
    </g>
    <g id="innerHandLines4">
        <path id="innerHandLines" class="path" fill="none" stroke="black" stroke-width="4px" d="M275.682,181.682C275.155,180.11 271.501,179.94 270.32,179.87C264.53,179.528 258.536,180.645 252.955,182.068C236.296,186.317 216.899,196.232 207.454,211.248C204.891,215.322 200.273,225.764 203.636,230.528C205.251,232.815 208.531,227.353 209.032,226.438C213.223,218.784 216.796,211.542 222.967,205.177C233.828,193.974 248.194,187.508 263.852,187.363C269.469,187.311 277.378,188.002 280.974,193.004C286.819,201.134 272.61,205.9 267.29,206.811C260.041,208.052 252.607,207.433 245.399,208.96C231.327,211.94 219.904,221.335 214.303,234.555C211.943,240.125 209.236,249.28 213.176,254.833C215.352,257.9 218.333,254.592 219.524,252.425C223.63,244.958 226.031,237.117 232.103,230.834C241.498,221.114 254.523,217.388 267.781,217.588C273.24,217.671 280.081,218.493 283.843,222.914C288.468,228.348 283.841,233.924 277.958,234.857C272.348,235.746 266.62,235.013 260.981,235.58C250.132,236.67 240.058,241.741 233.307,250.472C230.027,254.714 225.039,262.98 228.713,268.362C232.557,273.991 239.211,266.206 241.383,263.062C244.481,258.576 247.185,253.269 251.682,249.981C258.438,245.041 273.214,245.767 278.879,252.519C282.347,256.653 282.117,261.371 276.634,263.333C271.155,265.293 264.83,264.259 259.134,264.803C257.057,265.001 254.967,265.346 252.957,265.91C250.311,266.653 245.14,268.303 245.636,271.935C246.057,275.023 249.426,276.805 252.068,277.7C258.499,279.878 266.815,280.647 273.406,278.854C277.04,277.866 281.84,275.718 280.922,271.065C280.184,267.321 276.016,265.399 272.65,264.721C265.584,263.298 255.218,263.855 250.918,270.632C247.961,275.292 252.393,279.357 255.976,281.902C263.316,287.115 273.151,289.862 281.573,285.38C288.931,281.463 288.559,273.569 287.437,266.317C285.501,253.793 283.229,241.288 282.234,228.641C281.785,222.94 281.503,217.208 281.487,211.488C281.486,211.217 281.471,206.401 281.93,206.5C282.816,206.692 283.033,210.845 283.114,211.426C283.877,216.864 284.547,222.317 285.018,227.789C285.376,231.951 285.725,236.113 285.97,240.283C286.163,243.566 286.334,246.847 286.401,250.136C286.646,262.144 289.916,285.761 273.62,288.112C267.059,289.058 259.811,286.879 255.042,282.239C252.294,279.565 250.333,275.631 252.954,272.162C260.16,262.627 280.755,269.47 284.435,256.291C285.292,253.223 284.672,250.005 284.512,246.891"/>
    </g>
    <g id="innerHandLines5">
        <path id="innerHandLines" class="path" fill="none" stroke="black" stroke-width="4px" d="M616.172,230.754C616.272,231.073 615.233,231.632 615.076,231.783C612.036,234.708 611.027,239.371 610.332,243.36C608.115,256.095 612.425,268.474 621.326,277.768C630.836,287.699 645.522,296.987 659.679,296.938C669.276,296.905 678.515,291.961 677.129,281.165C674.592,261.415 653.859,246.419 636.744,239.509C628.441,236.157 614.691,234.595 610.994,245.327C606.501,258.372 612.75,275.121 618.596,286.678C634.477,318.069 662.174,342.372 696.261,351.855C713,356.512 734.727,362.547 748.179,347.809C769.415,324.544 729.37,305.494 713.932,297.168C708.024,293.983 701.958,291.149 695.897,288.273C695.283,287.981 686.862,283.305 687.098,283.181C688.68,282.348 712.499,294.784 714.752,295.988C738.962,308.934 774.613,343.188 744.111,368.997C731.954,379.283 715.211,378.837 700.421,376.328C666.466,370.568 635.267,350.409 616.826,321.33C606.437,304.948 600.429,285.982 593.881,267.85C593.452,266.661 587.215,248.954 584.899,256.175C580.537,269.774 585.409,286.139 589.531,299.117C603.443,342.92 645.21,378.783 690.447,388.488C711.735,393.055 748.188,395.654 761.785,373.919C764.481,369.611 766.114,364.587 766.894,359.582C767.207,357.58 767.385,355.566 767.396,353.541C767.4,352.906 767.765,351.203 767.306,351.64C765.898,352.982 764.638,372.642 763.582,376.048C758.526,392.361 738.467,401 722.975,403.276C706.826,405.648 688.923,403.413 673.305,398.909C668.118,397.414 663.14,395.471 658.138,393.461C657.732,393.298 649.565,390.54 649.912,391.614C650.987,394.944 671.886,401.243 675.126,401.982C701.018,407.885 728.855,412.2 753.462,400.59C758.159,398.374 775.899,384.428 779.808,390.914C782.205,394.89 784.947,401.732 782.531,404.458C774.331,413.707 759.495,415.429 747.843,415.193C743.869,415.113 723.095,411.689 723.962,415.437C724.839,419.232 735.339,421.128 738.279,421.694C754.478,424.81 769.937,419.764 785.888,418.412C791.307,417.953 806.686,419.642 797.935,428.347C785.862,440.357 751.079,427.976 737.606,422.859C734.652,421.738 712.64,410.633 713.588,416.326C714.863,423.99 728.093,430.824 733.978,433.882C762.82,448.866 786.54,436.079 814.637,443.092C825.054,445.693 843.756,463.211 835.383,475.17C827.159,486.915 801.87,478.368 791.546,475.329C753.662,464.178 711.102,446.543 686.16,414.153C676.211,401.233 702.533,411.063 706.887,412.211C707.646,412.411 714.524,414.331 714.62,412.397C714.753,409.729 707.205,407.699 705.556,407.084C699.512,404.828 677.179,395.655 672.61,403.809C669.406,409.529 679.028,419.548 682.185,423.213C696.089,439.356 713.184,452.171 731.433,463.009C752.821,475.711 775.48,486.17 798.157,496.313C809.712,501.48 821.789,508.462 834.608,509.722C846.328,510.873 844.853,500.235 840.823,492.315C840.414,491.512 834.495,482.457 834.433,482.587C832.926,485.699 836.741,493.569 837.697,496.348C840.517,504.55 852.105,535.268 845.829,542.748C838.95,550.948 818.438,535.947 812.391,532.647C779.486,514.692 745.653,496.442 714.886,474.993C705.988,468.789 697.936,461.629 689.378,454.997C688.671,454.449 682.001,448.698 680.903,449.766C679.575,451.056 690.238,465.896 692.01,467.978C707.157,485.781 725.54,501.245 743.176,516.487C762.263,532.982 781.22,549.725 801.673,564.536C810.806,571.151 821.553,579.76 832.882,582.049C847.27,584.956 846.129,569.757 845.91,559.731C845.881,558.395 844.697,546.198 844.096,547.114C841.579,550.95 842.596,558.85 842.498,563.151C842.197,576.425 842.017,589.639 842.275,602.919C842.367,607.675 844.222,619.413 839.162,622.518C831.853,627.005 805.787,605.845 800.131,601.731C770.372,580.086 742.723,554.075 718.417,526.436C711.717,518.817 705.957,510.607 700.362,502.164C699.397,500.708 696.307,494.441 694.087,494.348C692.766,494.292 694.889,503.767 695.021,504.387C697.385,515.472 700.668,526.18 705.877,536.289C718.985,561.728 739.195,586.197 764.709,599.883C771.304,603.421 786.769,611.588 794.237,605.737C800.16,601.096 780.028,585.324 777.347,583.008C755.39,564.033 735.892,544.167 718.227,521.116C715.82,517.974 704.197,501.452 698.182,506.041C689.394,512.747 696.401,543.228 699.469,551.543C715.347,594.578 759.835,618.197 793.83,645.306C800.317,650.479 830.301,678.173 839.213,671.36C849.084,663.816 843.027,643.448 839.055,634.515C826.016,605.194 808.833,607.772 782.674,601.334C770.47,598.33 758.891,592.27 748.804,584.855C731.013,571.779 721.413,555.129 710.68,536.494C709.258,534.025 702.128,520.561 697.537,523.946C688.635,530.51 701.449,566.642 704.237,575.083C712.708,600.732 723.989,624.946 743.327,644.328C764.611,665.661 792.017,679.117 811.831,702.304C821.237,713.31 845.192,756.268 821.939,765.159C807.055,770.85 794.508,742.08 790.243,732.417C769.38,685.155 731.857,648.123 712.7,599.799C707.197,585.917 704.265,571.322 699.38,557.264C698.459,554.614 695.312,544.91 691.099,545.424C687.959,545.806 687.888,552.731 687.822,554.806C687.513,564.488 688.767,574.165 691.161,583.542C698.661,612.927 712.168,640.304 729.481,665.093C732.794,669.836 751.527,690.559 750.129,696.105C748.341,703.199 728.044,687.206 726.565,685.922C707.995,669.793 695.522,647.755 687.074,624.919C683.701,615.803 681.234,606.394 677.997,597.234C677.735,596.492 674.97,588.088 673.181,589.775C667.833,594.815 674.614,627.956 675.958,634.142C686.208,681.302 717.943,718.374 743.123,758.27C750.515,769.982 757.13,782.39 765.755,793.272C768.17,796.319 772.861,802.778 777.598,801.509C789.232,798.393 781.709,769.514 779.229,762.734C766.321,727.438 737.718,700.592 714.958,671.694C700.151,652.893 689.544,631.619 680.132,609.735C678.687,606.375 674.084,589.894 668.184,591.558C663.187,592.968 662.562,601.806 662.149,605.82C660.624,620.609 662.658,635.748 666.385,650.077C677.935,694.486 704.044,735.342 722.116,777.315C726.148,786.68 750.992,837.899 719.105,816.953C716.309,815.116 713.677,813.063 711.092,810.944C706.537,807.21 702.139,803.297 697.893,799.216C690.859,792.455 684.065,785.408 677.782,777.941C668.672,767.115 661.357,754.929 655.928,741.863C639.939,703.383 646.42,656.218 660.638,617.844C676.7,574.491 696.358,546.958 690.386,497.932C687.067,470.683 678.325,443.398 665.103,419.377C663.933,417.253 652.835,398.617 651.115,398.885C649.688,399.107 651.733,405.383 651.9,406.07C653.812,413.951 656.124,421.624 657.381,429.661C660.734,451.083 660.971,472.869 657.474,494.3C656.584,499.755 655.411,512.272 648.834,514.502C642.053,516.8 643.445,499.088 643.549,496.313C644.389,474.038 648.254,452.232 646.302,429.873C646.09,427.453 643.792,406.846 640.631,407.108C637.579,407.361 637.333,429.513 637.317,432.032C637.163,455.15 639.018,479.138 642.923,501.937C643.507,505.342 645.02,522.553 651.304,521.641C662.565,520.006 673.587,482.519 674.953,473.058C675.417,469.851 675.828,454.509 681.25,454.44C688.544,454.347 688.968,475.288 688.612,479.392C686.801,500.283 673.271,511.797 662.332,527.936C659.641,531.907 652.467,542.877 656.267,547.986C659.114,551.814 665.701,544.952 667.414,543.013C674.068,535.482 677.651,525.83 684.072,518.126C685.319,516.629 689.569,511.161 692.14,512.454C696.876,514.835 693.092,529.721 692.278,533.138C688.299,549.827 678.183,578.357 662.622,587.964C651.02,595.127 656.865,564.141 657.183,560.277C657.267,559.249 658.429,551.063 655.682,551.649C651.005,552.646 648.944,563.752 647.852,567.225C642.509,584.23 638.461,601.613 635.472,619.183C627.677,665.013 626.378,713.97 648.392,756.206C657.951,774.546 670.737,789.679 685.397,804.087C686.688,805.357 698.394,815.683 696.457,818.097C694.476,820.566 681.846,814.766 679.922,813.967C663.58,807.177 648.738,795.69 638.493,781.189C636.822,778.823 627.411,766.098 630.955,762.81C633.872,760.102 643.884,772.836 645.18,774.374C657.038,788.458 667.197,805.59 683.636,814.926C700.928,824.746 718.123,819.532 736.678,819.775C741.049,819.832 751.004,821.776 746.495,828.266C739.644,838.127 721.222,838.257 710.823,837.778C680.235,836.368 640.821,813.144 625.38,786.274C621.813,780.067 618.721,770.201 623.47,763.668C628.069,757.341 639.765,763.725 641.262,769.984C641.608,771.428 636.741,768.362 636.339,768.182C633.087,766.734 628.961,765.635 625.391,765.717C618.574,765.872 615.488,775.344 613.566,780.608"/>
    </g>
    <g id="innerHandLines6">
        <path id="innerHandLines"  class="path" fill="none" stroke="black" stroke-width="4px" d="M698.464,1016.66C697.775,1016.96 699.549,1015.62 700.169,1015.19C701.459,1014.31 702.796,1013.5 704.133,1012.7C708.273,1010.2 712.46,1007.79 716.587,1005.27C729.18,997.588 741.918,990.25 754.782,983.034C786.255,965.378 817.727,942.217 851.543,929.403C867.528,923.346 886.878,923.358 897.412,939.001C902.495,946.55 900.244,954.286 891.055,956.434C874.962,960.196 857.3,954.499 840.797,957.027C816.297,960.78 797.096,974.928 776.939,988.293C772.333,991.347 745.861,1007.67 747.594,1013.77C749.196,1019.41 761.035,1014.88 763.847,1013.45C778.389,1006.05 788.567,991.572 799.619,980.043C823.723,954.898 869.641,939.985 900.748,962.678C919.431,976.308 903.972,982.973 888.129,980.611C862.517,976.793 835.541,973.699 811.705,986.563C804.489,990.457 791.045,1000.05 793.372,1010.07C795.652,1019.88 812.744,1012.81 817.692,1010.41C843.302,997.969 865.21,979.947 895.483,987.986C928.302,996.701 870.339,1007.06 863.884,1009.04C862.608,1009.43 850.548,1013 852.072,1015.74C853.801,1018.86 865.892,1018.68 868.704,1018.92C883.315,1020.17 898.768,1020.42 913.315,1018.31C918.169,1017.61 926.885,1016.32 925.79,1009.64C924.346,1000.84 914.229,994.781 910.675,986.688C906.324,976.779 904.458,965.771 900.595,955.649C895.79,943.057 888.961,931.289 883.527,918.962C880.772,912.714 875.521,893.34 867.528,892.03C861.667,891.069 856.382,899.379 853.544,903.301C845.354,914.617 840.561,931.971 827.69,939.093C812.813,947.325 792.344,946.822 776.211,951.918C750.583,960.014 727.978,973.918 705.908,988.916C677.227,1008.4 647.795,1021.28 612.89,1024.34C604.623,1025.06 582.178,1027.81 579.02,1016.27C576.714,1007.83 592.357,1001.96 597.774,999.681C621.323,989.793 647.328,987.756 671.941,981.647C713.403,971.356 715.739,957.78 746.846,936.934C759.915,928.175 775.55,923.914 788.965,915.62C803.1,906.88 813.838,895.097 825.63,883.6C836.116,873.376 847.756,863.453 857.12,852.174C859.75,849.007 864.239,842.368 861.365,838.078C855.356,829.112 844.588,834.946 839.198,840.513C823.258,856.979 813.804,878.268 795.636,892.876C776.317,908.409 754.092,918.537 733.256,931.639C711.545,945.291 691.322,965.58 667.498,975.348C649.645,982.668 629.277,982.474 610.412,985.154C595.376,987.29 581.047,991.132 566.854,996.456C564.805,997.224 555.165,1001.53 553.503,998.233C551.133,993.526 561.815,986.306 564.51,984.377C578.725,974.205 595.988,968.114 612.851,963.996C635.601,958.439 659.579,956.078 680.632,945.035C700.458,934.635 715.944,917.323 735.37,905.959C757.32,893.119 781.497,883.608 802.678,869.544C817.908,859.431 829.841,844.788 838.805,828.975C840.09,826.709 847.216,816.098 844.996,813.276C842.93,810.648 831.024,822.466 829.843,823.557C814.82,837.444 801.606,853.103 785.412,865.729C759.776,885.714 729.557,898.796 701.229,914.383C671.527,930.726 643.27,949.904 611.495,962.159C596.533,967.929 581.086,972.809 565.671,977.225C564.357,977.601 552.63,981.76 551.868,979.495C550.932,976.712 564.507,969.639 566.08,968.666C582.105,958.758 598.875,950.106 615.515,941.294C677.74,908.338 742.473,878.823 799.465,836.801C812.726,827.022 826.143,817.084 837.803,805.385C839.495,803.687 848.131,795.941 846.754,792.854C845.393,789.8 830.022,797.639 828.302,798.406C808.699,807.146 789.322,816.554 770.224,826.341C730.099,846.903 692.536,871.488 655.767,897.511C633.004,913.621 611.108,931.031 586.996,945.15C572.469,953.656 555.469,962.328 538.567,964.473C533.712,965.089 524.17,966.554 520.494,962.062C517.483,958.381 525.002,954.064 527.368,952.746C538.187,946.717 550.396,943.754 561.5,938.341C598.694,920.21 639.023,890.947 673.586,867.713C679.211,863.932 707.711,846.193 702.99,836.678C698.569,827.768 681.985,829.719 675.016,833.731C662.818,840.753 647.093,883.983 629.42,874.119C623.036,870.555 622.067,861.58 621.097,855.175C618.567,838.458 618.522,821.586 614.882,805.003C614.328,802.481 609.917,781.514 604.059,785.535C597.484,790.049 598.322,807.435 598.286,814.033C598.163,836.82 608.835,877.826 583.978,891.725C555.004,907.928 520.581,896.868 496.624,877.746C487.571,870.519 476.955,862.32 465.606,859.148C460.491,857.719 452.197,857.884 453.761,865.403C456.031,876.316 467.163,884.714 474.809,891.872C505.915,920.991 557.048,929.698 593.9,905.625C630.503,881.714 623.382,821.228 604.45,787.998C597.577,775.935 589.272,803.958 588.229,807.377C582.475,826.224 582.93,878.758 561.671,886.671C549.88,891.06 536.668,885.006 526.241,879.722C497.575,865.195 482.078,834.688 453.84,819.952C446.339,816.037 411.57,806.074 409.055,799.212C407.622,795.302 420.573,797.902 421.679,798.114C434.038,800.487 447.164,805.998 459.117,810.132C480.543,817.543 497.609,835.055 513.468,850.622C519.44,856.484 525.543,865.7 532.978,869.589C544.736,875.741 561.41,862.536 565.497,852.14C572.357,834.687 567.02,810.387 561.135,793.366C559.483,788.586 554.271,776.205 547.373,776.95C540.205,777.724 545.758,797.153 546.385,800.55C549.43,817.049 552.523,859.235 526.911,861.139C518.71,861.749 506.457,855.812 511.078,846.066C521.425,824.243 539.962,821.433 532.91,791.377C531.594,785.769 529.516,776.892 523.086,774.9C516.892,772.982 516.941,786.715 516.739,789.852C515.845,803.746 511.331,839.615 487.765,825.646C471.065,815.747 518.366,786.952 498.006,773.759C496.031,772.478 492.911,784.935 492.225,786.376C488.299,794.624 482.516,801.045 474.249,805.112C461.057,811.603 442.961,809.126 430.107,802.925C425.666,800.782 417.693,796.011 418.239,790.057C418.729,784.718 426.869,785.325 430.485,785.624C442.817,786.644 454.993,793.664 467.409,792.448C471.418,792.055 483.437,789.041 481.831,782.759C479.675,774.326 448.015,774.499 441.361,774.534C438.18,774.55 434.997,774.585 431.817,774.536C431.533,774.531 426.557,774.325 426.587,774.213C426.849,773.233 434.576,773.496 435.307,773.477C445.043,773.222 454.794,773.229 464.533,773.207C499.379,773.128 534.29,770.867 569.12,771.767C572.717,771.86 599.972,772.245 600.425,776.867C600.677,779.443 592.919,781.228 591.311,781.731C583.645,784.125 571.873,784.964 568.467,793.622C561.568,811.158 574.902,863.468 551.093,869.856C532.992,874.713 516.07,852.469 505.392,841.657C486.126,822.152 464.611,810.676 437.91,804.78C431.932,803.46 400.437,796.96 396.604,804.547C394.485,808.743 402.939,816.86 405.475,819.142C417.739,830.177 433.524,837.757 449.872,840.183C451.718,840.457 468.313,842.723 468.837,839.974C469.213,838.004 460.547,837.22 459.685,837.086C454.456,836.274 430.011,832.49 428.053,839.85C425.814,848.268 446.189,854.25 451.628,855.32C452.384,855.469 460.751,857.02 460.565,855.12C460.26,852.003 446.165,850.481 444.769,853.94C443.398,857.335 448.174,862.271 450.067,864.595C451.291,866.098 453.916,871.044 453.727,869.114C453.262,864.366 442.269,855.761 439.241,852.677C426.393,839.589 416.562,824.064 403.972,810.853C400.916,807.647 388.397,797.39 387.11,807.746C385.473,820.923 397.358,834.953 405.225,844.005C428.321,870.583 449.946,888.555 478.588,909.384C489.884,917.599 501.476,925.426 513.741,932.13C514.801,932.71 525.056,937.429 523.302,939.665C521.336,942.172 512.93,940.119 510.474,939.731C497.073,937.616 483.454,932.533 471.97,925.306C437.296,903.489 411.398,872.216 386.271,840.495C379.456,831.891 373.06,822.972 368.556,812.942C366.983,809.439 364.612,802.6 360.169,801.759C356.611,801.086 359.354,807.948 359.888,809.155C362.185,814.344 376.163,832.973 381.717,821.011C385.462,812.943 378.14,801.047 370.694,797.923C356.739,792.068 337.16,798.401 322.513,798.89C318.697,799.017 306.895,799.856 304.708,795.261C302.696,791.033 321.461,792.784 330.146,790.902C330.841,790.751 333.424,790.442 332.846,789.147C330.187,783.184 293.494,782.947 286.521,781.625C282.781,780.916 272.921,778.254 273.657,772.588C274.224,768.217 284.119,770.38 286.567,770.73C300.595,772.737 313.868,777.572 327.017,782.649C328.764,783.324 341.569,787.025 340.632,790.086C339.302,794.429 321.792,792.217 318.942,792.02C300.181,790.725 277.751,787.961 260.997,778.794C256.404,776.281 244.858,767.907 248.835,761.129C252.273,755.268 261.729,760.641 265.375,763.221C279.547,773.248 291.736,786.992 308.933,791.913C323.522,796.088 347.636,788.03 359.51,798.456C369.867,807.552 372.86,824.554 380.348,835.882C389.833,850.232 402.456,861.418 413.938,874.091C429.439,891.2 444.017,909.306 461.384,924.575C473.975,935.645 488.164,947.516 506.067,946.696C518.133,946.143 529.616,942.31 541.161,939.112C551.035,936.376 561.637,935.04 571.162,931.222C610.183,915.578 647.899,883.279 681.186,858.383C706.744,839.267 734.33,822.317 761.528,805.644C783.165,792.381 805.309,780.79 827.94,769.348C833.158,766.71 846.566,757.919 851.032,765.729C854.535,771.855 850.308,782.731 848.196,788.722C841.402,807.991 830.805,830.295 813.335,841.423C773.578,866.747 726.018,875.103 684.115,895.862C644.531,915.474 598.792,952.633 558.178,964.908"/>
    </g>
</g>

<!--    Phone-->
    <g id="">
        <path id="phone" class="path" fill="none" stroke="black" stroke-width="12px" d="M283.289,337.414C282.286,339.682 282.349,342.383 283.695,344.686C285.922,348.498 290.826,349.785 294.638,347.557C295.814,346.87 297.659,345.416 298.582,342.389C299.552,339.209 299.646,326.126 299.766,323.737C300.678,305.469 299.051,287.422 298.75,269.167C298.256,239.196 299.132,209.18 298.779,179.197C298.559,160.613 296.391,141.949 297.313,123.375C297.771,114.153 297.302,103.149 298.391,92.659C299.308,83.813 301.208,75.285 306.786,69.241C321.857,52.912 337.975,57.028 343.437,56.937C351.739,56.798 363.553,57.793 371.881,57.807C386.246,57.831 523.222,57.802 544.832,58.602C562.763,59.266 580.874,56.867 598.729,59.225C603.214,59.817 609.285,61.789 614.075,65.085C616.562,66.796 618.768,68.824 619.709,71.431C625.076,86.299 625.836,108.041 625.094,131.019C623.921,167.378 618.755,206.717 619.246,229.093C619.343,233.507 623.006,237.013 627.42,236.916C631.834,236.819 635.339,233.156 635.242,228.742C634.756,206.563 639.923,167.574 641.086,131.535C641.902,106.248 640.665,82.361 634.759,65.999C632.734,60.388 628.498,55.587 623.145,51.904C616.176,47.109 607.348,44.224 600.823,43.362C582.47,40.939 563.856,43.295 545.424,42.613C523.744,41.81 386.32,41.831 371.908,41.807C363.494,41.793 351.558,40.799 343.17,40.939C335.935,41.06 314.99,36.762 295.028,58.39C288.647,65.304 285.163,74.307 283.424,84.141C281.174,96.873 281.905,111.061 281.333,122.581C280.395,141.482 282.557,160.475 282.78,179.386C283.134,209.394 282.258,239.435 282.752,269.431C283.047,287.331 284.681,305.026 283.786,322.939C283.7,324.656 283.351,335.453 283.289,337.414Z" />
        <path id="phone" class="path" fill="none" stroke="black" stroke-width="12px" d="M296.097,537.1C296.461,533.615 297.328,530.178 297.549,526.58C297.809,522.332 294.572,518.673 290.324,518.412C286.077,518.152 282.417,521.389 282.157,525.637C281.95,529.011 281.101,532.23 280.76,535.498C280.318,539.73 283.395,543.526 287.627,543.968C291.86,544.41 295.655,541.333 296.097,537.1Z"/>
        <path id="phone" class="path" fill="none" stroke="black" stroke-width="12px" d="M632.68,375.123C632.15,409.565 635.425,502.345 633.014,536.519C628.862,595.37 619.935,654.46 618.885,707.772C618.363,734.254 614.168,765.253 588.881,767.205C535.383,771.335 467.825,767.079 427.076,766.437"/>
    </g>
</svg>
