<?xml version="1.0" encoding="UTF-8"?>
<svg width="64px" height="18px" viewBox="0 0 64 18" version="1.1" xmlns="http://www.w3.org/2000/svg" xmlns:xlink="http://www.w3.org/1999/xlink">
    <title>Untitled</title>
    <g id="Page-1" stroke="none" stroke-width="1" fill="none" fill-rule="evenodd">
        <g id="cd-sprite-2" transform="translate(0.000000, 1.000000)">
            <g id="projects" fill="#FFFFFF" fill-rule="nonzero" stroke="#FFFFFF">
                <path d="M10.0443737,3.51139386 C9.12219264,3.70363876 8.71663554,4.6273349 9.13923598,5.56985097 C9.56183643,6.51236704 10.655576,7.12350839 11.5777571,6.93126349 C12.4999382,6.7390186 12.9054953,5.81532245 12.4828948,4.87280638 C12.0602944,3.93029031 10.9665549,3.31914896 10.0443737,3.51139386 Z M11.2710793,6.24728591 C10.718038,6.36257684 10.0615874,5.99608195 9.80796484,5.43043251 C9.55434232,4.86478308 9.79800472,4.3106442 10.351046,4.19535327 C10.9040872,4.08006235 11.5605379,4.44655724 11.8141604,5.01220667 C12.0677829,5.5778561 11.8241205,6.13199499 11.2710793,6.24728591 Z" id="Shape" stroke-width="0.7"></path>
                <path d="M14.3051159,0.782526222 C14.2336886,0.623223272 14.0838194,0.490711432 13.8829267,0.40928565 C13.6820341,0.327859867 13.4553607,0.307263284 13.2413965,0.351867792 C10.0139206,1.0292573 7.74903724,1.69256687 5.71798447,4.62513953 C5.23443903,5.32354947 4.84902875,6.083705 4.57044591,6.88813623 C4.12638365,6.84631237 3.67698944,6.87018853 3.25383343,6.95840265 C2.15299148,7.18789202 1.3340583,7.81334172 1.06242378,8.63132986 L0.483754609,10.3823334 C0.410792755,10.6017475 0.45865399,10.7744446 0.624128099,10.8932648 C0.831634168,11.0418148 1.13095701,11.0479188 1.45353446,10.8828106 C1.79385692,10.708784 2.35151412,10.4685731 3.07771982,10.317183 C3.39429142,10.2511883 3.71917038,10.2076008 4.04519088,10.1859573 C4.05179518,10.4683784 4.06928499,10.6800273 4.08298254,10.7978675 C4.10390719,11.0055383 4.3055963,11.2322852 4.56282392,11.3365447 L7.30012082,12.4465138 C7.55309674,12.54905 7.92138813,12.54991 8.15265829,12.4488526 C8.28750258,12.3907312 8.52724039,12.2833418 8.83711994,12.1287096 C9.43497964,12.9422396 9.53631603,13.7346683 9.53999299,14.1599248 C9.54054642,14.238751 9.5424814,14.4777817 9.79215114,14.6194992 C9.92615819,14.6952962 10.0952662,14.7194119 10.2567337,14.6857513 C10.3855894,14.6588891 10.5068832,14.5957636 10.6253803,14.4934242 L12.1941597,13.1427555 C13.246887,12.2356574 13.1875497,10.8831877 12.1084356,9.94294514 C12.8228173,9.31515185 13.4287808,8.64341449 13.9112704,7.94652945 C15.939937,5.01445425 15.3843479,3.20697466 14.3051159,0.782526222 Z M11.223021,9.72955552 L10.9608699,9.94796006 L11.2646599,10.1599464 C12.2747146,10.8627558 12.3977077,11.9905748 11.5449438,12.7248529 L10.3477813,13.7520934 C10.2702837,13.1660757 10.0218146,12.3364688 9.30029933,11.5206633 L9.04824946,11.235912 L8.6939201,11.4252544 C8.22995337,11.6726827 7.8720748,11.8347114 7.67386555,11.9066947 L4.91873786,10.7821754 C4.90279294,10.630226 4.87535798,10.3110456 4.88360496,9.88134612 L4.89035816,9.55112417 L4.44140606,9.55076904 C3.3312387,9.55190208 2.18043628,9.83290833 1.435438,10.1421845 L1.8773822,8.80590975 C2.08024937,8.19341317 2.69385449,7.72493919 3.51948595,7.55282217 C3.93309709,7.46659784 4.37858575,7.46310812 4.80712892,7.54209247 L5.20726211,7.61590842 L5.29774738,7.3269479 C5.56631769,6.46914919 5.96031303,5.66218774 6.4678738,4.92810816 C8.35929661,2.19622733 10.3904021,1.60122503 13.507049,0.946287308 C14.5504264,3.28883022 15.0480172,4.9087634 13.1557918,7.63885432 C12.6519477,8.37346391 12.0001969,9.07692835 11.223021,9.72955552 Z" id="Shape" stroke-width="0.7"></path>
                <polygon id="Rectangle" stroke-width="0.5" points="2.13289016 15.6364914 4.39423838 12.6742674 5.14009732 12.9503984 2.8787491 15.9126224"></polygon>
                <polygon id="Rectangle" stroke-width="0.5" points="0.994535654 13.9704592 2.69056839 11.7487631 3.43642731 12.0248942 1.74039458 14.2465902"></polygon>
                <polygon id="Rectangle" stroke-width="0.5" points="5.59924694 15.6069317 4.85338802 15.3308007 6.54942075 13.1091046 7.29527968 13.3852357"></polygon>
            </g>
            <g id="skills" transform="translate(16.000000, 0.000000)" stroke="#FFFFFF" stroke-linecap="square" stroke-width="2">
                <line x1="1.0675825" y1="4.05640266" x2="4.08161216" y2="4.05640266" id="Line-2"></line>
                <line x1="2.60429001" y1="1.1787379" x2="2.60429001" y2="3.69921915" id="Line-2"></line>
                <line x1="6.02354695" y1="8.87220031" x2="9.0375766" y2="8.87220031" id="Line-2"></line>
                <line x1="7.56025446" y1="1.1787379" x2="7.56025446" y2="8.5150168" id="Line-2"></line>
                <line x1="2.47460504" y1="7.31865678" x2="2.47460504" y2="15.1294189" id="Line-2"></line>
                <line x1="12.3865339" y1="7.31865678" x2="12.3865339" y2="15.1294189" id="Line-2"></line>
                <line x1="10.9795114" y1="4.05640266" x2="13.9935411" y2="4.05640266" id="Line-2"></line>
                <line x1="12.5162189" y1="1.1787379" x2="12.5162189" y2="3.69921915" id="Line-2"></line>
                <line x1="7.43056948" y1="12.4055849" x2="7.43056948" y2="15.1285956" id="Line-2"></line>
            </g>
            <g id="Group" transform="translate(32.000000, 2.000000)" fill="#FFFFFF" fill-rule="nonzero">
                <path d="M10,12 L1,12 C0.4,12 0,11.6 0,11 L0,1 C0,0.4 0.4,0 1,0 L10,0 C10.6,0 11,0.4 11,1 L11,2.5 L14.6,1 C15.3,0.8 16,1.3 16,2 L16,10 C16,10.7 15.3,11.2 14.6,10.9 L11,9.5 L11,11 C11,11.6 10.6,12 10,12 Z M2,10 L9,10 L9,8 C9,7.3 9.7,6.8 10.4,7.1 L14,8.6 L14,3.6 L10.4,5.1 C9.7,5.2 9,4.7 9,4 L9,2 L2,2 L2,10 Z" id="Shape"></path>
            </g>
            <g id="Group" transform="translate(48.000000, 3.000000)" fill="#FFFFFF" fill-rule="nonzero">
                <path d="M11,0 L10,0 C9.4,0 9,0.4 9,1 C9,1.6 9.4,2 10,2 L11,2 C12.7,2 14,3.3 14,5 C14,6.7 12.7,8 11,8 L10,8 C9.4,8 9,8.4 9,9 C9,9.6 9.4,10 10,10 L11,10 C13.8,10 16,7.8 16,5 C16,2.2 13.8,0 11,0 Z" id="Path"></path>
                <path d="M6,8 L5,8 C3.3,8 2,6.7 2,5 C2,3.3 3.3,2 5,2 L6,2 C6.6,2 7,1.6 7,1 C7,0.4 6.6,0 6,0 L5,0 C2.2,0 0,2.2 0,5 C0,7.8 2.2,10 5,10 L6,10 C6.6,10 7,9.6 7,9 C7,8.4 6.6,8 6,8 Z" id="Path"></path>
                <path d="M4,5 C4,5.6 4.4,6 5,6 L11,6 C11.6,6 12,5.6 12,5 C12,4.4 11.6,4 11,4 L5,4 C4.4,4 4,4.4 4,5 Z" id="Path"></path>
            </g>
        </g>
    </g>
</svg>