<?xml version="1.0" encoding="UTF-8" standalone="no"?>
<svg
   version="1.0"
   x="0px"
   y="0px"
   viewBox="0 0 74 92.5"
   style="enable-background:new 0 0 74 74;"
   xml:space="preserve"
   id="svg4559"
   sodipodi:docname="sunnovaDOE.svg"
   inkscape:version="1.1.1 (c3084ef, 2021-09-22)"
   xmlns:inkscape="http://www.inkscape.org/namespaces/inkscape"
   xmlns:sodipodi="http://sodipodi.sourceforge.net/DTD/sodipodi-0.dtd"
   xmlns="http://www.w3.org/2000/svg"
   xmlns:svg="http://www.w3.org/2000/svg"><defs
     id="defs4563" /><sodipodi:namedview
     id="namedview4561"
     pagecolor="#ffffff"
     bordercolor="#666666"
     borderopacity="1.0"
     inkscape:pageshadow="2"
     inkscape:pageopacity="0.0"
     inkscape:pagecheckerboard="0"
     showgrid="false"
     inkscape:zoom="6.7783784"
     inkscape:cx="15.121611"
     inkscape:cy="58.199761"
     inkscape:window-width="1296"
     inkscape:window-height="969"
     inkscape:window-x="0"
     inkscape:window-y="25"
     inkscape:window-maximized="0"
     inkscape:current-layer="svg4559" /><g
     id="g4553"><path
       d="M59.65,64.09c-1.29-1.17-2.02-2.85-2.02-4.59V35.25c-0.01-6.5-6.41-11.47-12.33-14.69c0.55-0.49,0.91-1.2,0.91-2   c0-1.4-1.08-2.53-2.44-2.66c2.6-3.21,2.97-7.21,2.99-7.4c0.02-0.21-0.05-0.42-0.2-0.57C46.41,7.79,46.21,7.7,46,7.7c0,0,0,0,0,0   c-0.12,0-2.74,0.02-5.73,0.95c-1.24-2.05-2.7-3.39-2.76-3.45c-0.29-0.26-0.73-0.26-1.01,0c-0.07,0.06-1.52,1.4-2.76,3.45   C30.74,7.72,28.12,7.7,28,7.7c0,0,0,0,0,0c-0.21,0-0.41,0.09-0.55,0.24c-0.14,0.15-0.21,0.36-0.2,0.57   c0.02,0.19,0.38,4.19,2.99,7.4c-1.37,0.12-2.44,1.26-2.44,2.66c0,0.8,0.36,1.5,0.91,2c-5.92,3.22-12.32,8.2-12.33,14.69V59.5   c0,1.74-0.74,3.41-2.02,4.59c-0.87,0.79-1.15,2.01-0.73,3.11s1.46,1.8,2.63,1.8h41.49c1.17,0,2.21-0.71,2.63-1.8   C60.8,66.1,60.52,64.89,59.65,64.09z M33.83,10.26c0.34,0.12,0.73-0.03,0.9-0.35c0.77-1.38,1.7-2.49,2.27-3.1   c0.57,0.61,1.51,1.71,2.27,3.1c0.18,0.32,0.56,0.47,0.9,0.35c1.97-0.69,3.88-0.93,4.95-1.01c-0.28,1.46-1.1,4.49-3.38,6.64h-9.49   c-2.27-2.15-3.1-5.18-3.38-6.64C29.95,9.33,31.85,9.57,33.83,10.26z M30.48,17.39h13.05c0.65,0,1.18,0.53,1.18,1.18   c0,0.65-0.53,1.18-1.18,1.18H30.48c-0.65,0-1.18-0.53-1.18-1.18C29.3,17.92,29.83,17.39,30.48,17.39z M58.98,66.66   c-0.16,0.41-0.57,0.84-1.23,0.84H16.26c-0.67,0-1.07-0.44-1.23-0.84c-0.16-0.41-0.15-1,0.34-1.46c1.6-1.46,2.51-3.53,2.51-5.7   V35.26c0.01-6.19,6.89-11.02,12.74-14.01h12.76c5.85,2.99,12.74,7.82,12.74,14.01V59.5c0,2.16,0.92,4.24,2.51,5.7   C59.13,65.65,59.14,66.25,58.98,66.66z"
       id="path4541" /><path
       d="M28.03,26.8c0.34-0.23,0.44-0.7,0.21-1.04c-0.23-0.34-0.7-0.44-1.04-0.21c-4.56,3.04-7.08,6.26-7.3,9.29   c-0.03,0.41,0.28,0.77,0.69,0.8c0.02,0,0.04,0,0.06,0c0.39,0,0.72-0.3,0.75-0.7C21.57,32.43,23.93,29.53,28.03,26.8z"
       id="path4543" /><path
       d="M31.6,53.88H28.6c-1.33,0-2.51-0.69-3.17-1.84s-0.66-2.52,0.01-3.66l3.84-6.59l0.53,1.97c0.09,0.34,0.39,0.56,0.72,0.56   c0.06,0,0.13-0.01,0.19-0.03c0.4-0.11,0.64-0.52,0.53-0.92l-0.99-3.69c-0.05-0.19-0.18-0.36-0.35-0.46s-0.38-0.13-0.57-0.08   l-3.68,0.99c-0.4,0.11-0.64,0.52-0.53,0.92c0.11,0.4,0.52,0.64,0.92,0.53l1.89-0.51l-3.82,6.54c-0.94,1.61-0.95,3.55-0.02,5.17   c0.93,1.62,2.6,2.59,4.47,2.59h2.99c0.41,0,0.75-0.34,0.75-0.75S32.01,53.88,31.6,53.88z"
       id="path4545" /><path
       d="M48.35,45.05c-0.21-0.36-0.67-0.48-1.03-0.27c-0.36,0.21-0.48,0.67-0.27,1.03l1.5,2.58c0.67,1.14,0.67,2.51,0.01,3.66   c-0.66,1.15-1.85,1.84-3.17,1.84h-7.65l1.42-1.42c0.29-0.29,0.29-0.77,0-1.06s-0.77-0.29-1.06,0l-2.7,2.7   c-0.14,0.14-0.22,0.33-0.22,0.53c0,0.2,0.08,0.39,0.22,0.53l2.69,2.69c0.15,0.15,0.34,0.22,0.53,0.22s0.38-0.07,0.53-0.22   c0.29-0.29,0.29-0.77,0-1.06l-1.42-1.42h7.66c1.87,0,3.54-0.97,4.47-2.59c0.93-1.62,0.92-3.55-0.02-5.17L48.35,45.05z"
       id="path4547" /><path
       d="M37,32.17L37,32.17c1.32,0,2.5,0.68,3.16,1.81l3.83,6.56l-1.97-0.53c-0.4-0.1-0.81,0.13-0.92,0.53   c-0.11,0.4,0.13,0.81,0.53,0.92l3.69,0.99c0.06,0.02,0.13,0.03,0.19,0.03c0.13,0,0.26-0.03,0.38-0.1c0.17-0.1,0.3-0.26,0.35-0.46   l0.99-3.68c0.11-0.4-0.13-0.81-0.53-0.92c-0.4-0.1-0.81,0.13-0.92,0.53l-0.51,1.9l-3.81-6.53c-0.93-1.6-2.6-2.56-4.45-2.56   c0,0,0,0,0,0c-1.85,0-3.52,0.96-4.45,2.56l-1.47,2.52c-0.21,0.36-0.09,0.82,0.27,1.03c0.36,0.21,0.82,0.09,1.03-0.27l1.47-2.52   C34.51,32.85,35.69,32.17,37,32.17z"
       id="path4549" /><path
       d="M35.51,49.66c-0.02,0.35,0.2,0.67,0.53,0.77c0.07,0.02,0.14,0.03,0.22,0.03c0.26,0,0.52-0.14,0.65-0.38l3.74-6.57   c0.12-0.21,0.13-0.46,0.03-0.68s-0.29-0.38-0.53-0.43l-1.96-0.41l0.29-4.4c0.02-0.35-0.2-0.67-0.53-0.77   c-0.33-0.1-0.69,0.04-0.87,0.35l-3.74,6.57c-0.12,0.21-0.13,0.46-0.03,0.68s0.29,0.38,0.53,0.43l1.96,0.41L35.51,49.66z    M35.16,43.59l1.62-2.84l-0.12,1.79c-0.02,0.37,0.23,0.71,0.59,0.78l1.59,0.33l-1.62,2.84l0.12-1.79c0.02-0.37-0.23-0.71-0.59-0.78   L35.16,43.59z"
       id="path4551" /></g></svg>
