<?xml version="1.0" encoding="UTF-8" standalone="no"?>
<svg
   version="1.1"
   x="0px"
   y="0px"
   viewBox="0 0 100 125"
   style="enable-background:new 0 0 100 100;"
   xml:space="preserve"
   id="svg4605"
   sodipodi:docname="sunnnovaSolarHome.svg"
   inkscape:version="1.1.1 (c3084ef, 2021-09-22)"
   xmlns:inkscape="http://www.inkscape.org/namespaces/inkscape"
   xmlns:sodipodi="http://sodipodi.sourceforge.net/DTD/sodipodi-0.dtd"
   xmlns="http://www.w3.org/2000/svg"
   xmlns:svg="http://www.w3.org/2000/svg"><defs
     id="defs4609" /><sodipodi:namedview
     id="namedview4607"
     pagecolor="#ffffff"
     bordercolor="#666666"
     borderopacity="1.0"
     inkscape:pageshadow="2"
     inkscape:pageopacity="0.0"
     inkscape:pagecheckerboard="0"
     showgrid="false"
     inkscape:zoom="5.016"
     inkscape:cx="1.8939394"
     inkscape:cy="64.094896"
     inkscape:window-width="1296"
     inkscape:window-height="969"
     inkscape:window-x="844"
     inkscape:window-y="439"
     inkscape:window-maximized="0"
     inkscape:current-layer="svg4605" /><g
     id="g4599"><path
       d="M50.43,27.35c0.09,0,0.18-0.01,0.27-0.04c1.3-0.41,2.64-0.41,3.94,0c0.29,0.09,0.6,0.03,0.84-0.17   c0.23-0.2,0.35-0.5,0.32-0.81l-0.07-0.62c0-0.02-0.01-0.04-0.01-0.06l-2.18-12.7c-0.08-0.44-0.45-0.76-0.89-0.76c0,0,0,0,0,0   c-0.44,0-0.81,0.32-0.89,0.76l-2.16,12.7c0,0.02-0.01,0.04-0.01,0.06l-0.07,0.62c-0.03,0.31,0.09,0.61,0.32,0.81   C50.02,27.28,50.22,27.35,50.43,27.35z"
       id="path4565" /><path
       d="M28.74,37.06c0.01,0.02,0.03,0.04,0.05,0.06l0.38,0.48c0.17,0.22,0.43,0.34,0.7,0.34c0.03,0,0.06,0,0.09,0   c0.3-0.03,0.57-0.21,0.71-0.49c0.32-0.62,0.72-1.17,1.18-1.65c0.46-0.47,1-0.88,1.61-1.21c0.27-0.14,0.45-0.42,0.48-0.73   c0.03-0.31-0.1-0.61-0.33-0.81l-0.48-0.39c-0.02-0.02-0.04-0.03-0.06-0.05l-9.28-6.34c-0.36-0.24-0.83-0.2-1.14,0.12   c-0.3,0.31-0.35,0.8-0.11,1.16L28.74,37.06z"
       id="path4567" /><path
       d="M71.88,34.61c0.6,0.33,1.15,0.73,1.61,1.21h0c0.46,0.47,0.86,1.03,1.18,1.64c0.14,0.27,0.41,0.46,0.71,0.49   c0.03,0,0.06,0,0.08,0c0.27,0,0.53-0.13,0.7-0.34l0.38-0.49c0.01-0.02,0.02-0.03,0.04-0.05l7.23-10.56   c0.25-0.37,0.21-0.87-0.1-1.18c-0.31-0.32-0.8-0.36-1.16-0.1l-10.3,7.42c-0.02,0.01-0.03,0.02-0.05,0.04l-0.47,0.39   c-0.24,0.19-0.36,0.5-0.33,0.81C71.43,34.2,71.61,34.47,71.88,34.61z"
       id="path4569" /><path
       d="M80.52,46.78l5.71-3.89c0.31-0.21,0.42-0.61,0.28-0.96c-0.15-0.35-0.52-0.53-0.87-0.44l-6.62,1.67   C79.59,44.32,80.09,45.53,80.52,46.78z"
       id="path4571" /><path
       d="M17.47,42.02l5.83,3.61c0.4-1.24,0.88-2.46,1.44-3.65l-6.73-1.38c-0.36-0.07-0.72,0.13-0.86,0.48   C17.02,41.43,17.15,41.82,17.47,42.02z"
       id="path4573" /><path
       d="M39.49,27.97c1.14-0.59,2.33-1.1,3.55-1.54l-3.8-5.84c-0.2-0.31-0.6-0.43-0.94-0.28c-0.34,0.15-0.52,0.53-0.43,0.89   L39.49,27.97z"
       id="path4575" /><path
       d="M67.64,22.09c0.07-0.37-0.12-0.74-0.47-0.88c-0.34-0.14-0.73,0-0.92,0.32l-3.53,5.96c1.21,0.41,2.41,0.9,3.57,1.48   L67.64,22.09z"
       id="path4577" /><path
       d="M52.8,27.97c-12.54,0-23.17,8.46-26.74,20.1l2.07-0.3c3.58-10.4,13.28-17.88,24.67-17.88c13.5,0,24.64,10.51,26.01,23.96   l1.97,1.31C80.03,40.03,67.77,27.97,52.8,27.97z"
       id="path4579" /><path
       d="M59.51,46.67l-41.7,5.6l-0.42,0.43l20.59,21.74l1.41,0.37l49.92-9.32l0.03-0.57L60.57,46.87L59.51,46.67z M39.26,73.58   L19.18,52.84l40.6-5.51L87.2,64.75L39.26,73.58z"
       id="path4581" /><polygon
       points="41.9,59.35 42.27,58.73 33.78,51.48 32.47,51.2 21.09,52.75 20.6,53.29 28.09,60.93 29.55,61.28  "
       id="polygon4583" /><polygon
       points="42.39,60.12 30.03,62.06 29.55,62.72 38.89,72.25 40.58,72.69 54.08,70.21 54.4,69.44 43.88,60.45  "
       id="polygon4585" /><polygon
       points="44.47,58.75 55.86,56.97 56.12,56.4 46.88,49.65 45.59,49.39 35.04,50.83 34.65,51.32 43.02,58.43  "
       id="polygon4587" /><polygon
       points="56.7,57.96 45.2,59.77 44.85,60.38 55.3,69.25 56.98,69.66 69.46,67.37 69.64,66.65 58.17,58.28  "
       id="polygon4589" /><polygon
       points="48.36,49.01 48.07,49.49 57.47,56.31 58.94,56.62 69.81,54.92 69.97,54.37 59.8,47.88 58.49,47.63  "
       id="polygon4591" /><polygon
       points="59.33,57.88 71.05,66.38 72.76,66.77 84.64,64.59 84.71,63.9 72.1,55.86 70.6,55.55 59.57,57.28  "
       id="polygon4593" /><path
       d="M95.34,66.34C95.34,66.34,95.33,66.33,95.34,66.34c0.01-0.03,0.02-0.05,0.02-0.07c0.04-0.22-0.05-0.45-0.24-0.57   l-32.65-21.3c-0.11-0.07-0.24-0.1-0.36-0.08l-46.37,6.19c-2.38,0.31-3.02,0.42-3.02,0.42S12.4,51,12.3,51.12L5.85,62.91   c-0.07,0.1-0.11,0.22-0.11,0.34v3.3c0,0.23,0.14,0.44,0.36,0.52c0.21,0.08,0.46,0.01,0.6-0.17l6.06-10.13l23.16,25.19   c0.1,0.11,0.25,0.18,0.4,0.18c0.05,0,0.09-0.01,0.14-0.03c0.05,0.02,0.1,0.03,0.16,0.03c0.03,0,0.07,0,0.1-0.01l58.21-11.09   c0.26-0.05,0.45-0.28,0.44-0.55L95.34,66.34z M36.51,76.67L13.99,52.02l48.06-6.59l31.33,20.44L36.51,76.67z"
       id="path4595" /><path
       d="M11.05,64.61l0.05,12.75l12.49,7.66l-0.62-14.52L11.05,64.61z M12.5,66.96l3.54,1.75l0.08,4.09l-3.6-1.99L12.5,66.96z    M12.53,76.52l-0.02-4.04l3.62,2l0.08,4.3L12.53,76.52z M17.48,69.42l4.09,2.02l0.19,4.48l-4.2-2.32L17.48,69.42z M17.68,79.68   l-0.08-4.39l4.24,2.34l0.2,4.72L17.68,79.68z"
       id="path4597" /></g></svg>
