<?xml version="1.0" encoding="UTF-8" standalone="no"?>
<!DOCTYPE svg PUBLIC "-//W3C//DTD SVG 1.1//EN" "http://www.w3.org/Graphics/SVG/1.1/DTD/svg11.dtd">
<svg width="100%" height="100%" viewBox="0 0 200 200" version="1.1" xmlns="http://www.w3.org/2000/svg" xmlns:xlink="http://www.w3.org/1999/xlink" xml:space="preserve" xmlns:serif="http://www.serif.com/" style="fill-rule:evenodd;clip-rule:evenodd;stroke-linejoin:round;stroke-miterlimit:2;">
    <defs>
        <linearGradient id="sunnovaGradient" x1="0%" y1="0%" x2="100%" y2="0%">
            <stop offset="0%" style="stop-color:#ffffff;stop-opacity:1">
                <animate attributeName="stop-color" values=";#EE805E;#59200F;#F2B763;#F7F065;#ffffff" dur="15s" repeatCount="indefinite" />
            </stop>
            <stop offset="50%" style="stop-color:#EE805E;stop-opacity:1">
                <animate attributeName="offset" values="0%;50%;100%" dur="10s" repeatCount="indefinite" />
                <animate attributeName="stop-color" values="#EE805E;#59200F;#F2B763;#F7F065;#EE805E" dur="15s" repeatCount="indefinite" />
            </stop>
            <stop offset="100%" style="stop-color:#000000;stop-opacity:1">
                <animate attributeName="stop-color" values=";#F7F065;#F2B763;#59200F;#EE805E;" dur="15s" repeatCount="indefinite" />
            </stop>
        </linearGradient>
        <linearGradient id="sunnovaGradient2" x1="0%" y1="0%" x2="100%" y2="0%">
            <stop offset="0%" style="stop-color:#ffffff;stop-opacity:1">
                <animate attributeName="stop-color" values="#ffffff;#EE805E;;#F2B763;#F7F065;#ffffff" dur="15s" repeatCount="indefinite" />
            </stop>
            <stop offset="50%" style="stop-color:#EE805E;stop-opacity:1">
                <animate attributeName="offset" values="0%;50%;100%" dur="10s" repeatCount="indefinite" />
                <animate attributeName="stop-color" values="#EE805E;#F2B763;#F7F065;#ffffff;#EE805E" dur="15s" repeatCount="indefinite" />
            </stop>
            <stop offset="100%" style="stop-color:#ffffff;stop-opacity:1">
                <animate attributeName="stop-color" values="#ffffff;#F7F065;#F2B763;#EE805E;#ffffff" dur="15s" repeatCount="indefinite" />
            </stop>
        </linearGradient>
    </defs>
    <g transform="matrix(3.39528,0,0,3.39528,-8.64821,-9.57955)">
        <path d="M19.492,47.999L22.152,43.829L17.122,43.829L14.452,47.999L19.492,47.999Z" style="fill:url(#sunnovaGradient);"/>
    </g>
    <g transform="matrix(3.39528,0,0,3.39528,-8.64821,-9.57955)">
        <path d="M25.712,47.999C25.701,47.998 28.412,43.813 28.372,43.829L23.342,43.829L20.672,47.999L25.712,47.999Z" style="fill:url(#sunnovaGradient);"/>
    </g>
    <g transform="matrix(3.39528,0,0,3.39528,-8.64821,-9.57955)">
        <path d="M34.602,43.829L29.562,43.829L26.892,47.999L31.932,47.999L34.602,43.829Z" style="fill:url(#sunnovaGradient);"/>
    </g>
    <g transform="matrix(3.39528,0,0,3.39528,-8.64821,-9.57955)">
        <path d="M23.982,42.829L29.022,42.829C29.011,42.828 31.722,38.643 31.682,38.659L26.652,38.659L23.982,42.829Z" style="fill:url(#sunnovaGradient);"/>
    </g>
    <g transform="matrix(3.39528,0,0,3.39528,-8.64821,-9.57955)">
        <path d="M37.912,38.659L32.882,38.659C32.863,38.64 30.212,42.831 30.202,42.829L35.242,42.829L37.912,38.659Z" style="fill:url(#sunnovaGradient);"/>
    </g>
    <g transform="matrix(3.39528,0,0,3.39528,-8.64821,-9.57955)">
        <path d="M41.462,42.829L44.132,38.659L39.092,38.659C39.102,38.661 36.392,42.845 36.432,42.829L41.462,42.829Z" style="fill:url(#sunnovaGradient);"/>
    </g>
    <g transform="matrix(3.39528,0,0,3.39528,-8.64821,-9.57955)">
        <path d="M33.472,37.659L38.512,37.659C38.501,37.658 41.212,33.473 41.172,33.489L36.142,33.489L33.472,37.659Z" style="fill:url(#sunnovaGradient);"/>
    </g>
    <g transform="matrix(3.39528,0,0,3.39528,-8.64821,-9.57955)">
        <path d="M47.402,33.489L42.372,33.489C42.353,33.47 39.702,37.661 39.692,37.659L44.732,37.659L47.402,33.489Z" style="fill:url(#sunnovaGradient);"/>
    </g>
    <g transform="matrix(3.39528,0,0,3.39528,-8.64821,-9.57955)">
        <path d="M50.952,37.659L53.622,33.489L48.582,33.489C48.592,33.491 45.881,37.675 45.922,37.659L50.952,37.659Z" style="fill:url(#sunnovaGradient);"/>
    </g>
<!--    roof-->
    <g transform="matrix(3.39528,0,0,3.39528,-8.64821,-9.57955)">
        <path d="M48.497,20.272L48.497,21.368L42.078,17.784L28.215,25.523L29.676,28.142L42.078,21.22L54.479,28.142L55.941,25.523L53.497,24.159L53.497,20.272L48.497,20.272Z" style="fill:#oooooo;"/>
    </g>
<!--    windows on house-->
    <g transform="matrix(3.39528,0,0,3.39528,-8.64821,-9.57955)">
        <rect x="39.661" y="24.878" width="1.955" height="1.955"/>
    </g>
    <g transform="matrix(3.39528,0,0,3.39528,-8.64821,-9.57955)">
        <rect x="42.539" y="24.878" width="1.955" height="1.955"/>
    </g>
    <g transform="matrix(3.39528,0,0,3.39528,-8.64821,-9.57955)">
        <rect x="39.661" y="27.918" width="1.955" height="1.955"/>
    </g>
    <g transform="matrix(3.39528,0,0,3.39528,-8.64821,-9.57955)">
        <rect x="42.539" y="27.918" width="1.955" height="1.955"/>
    </g>
<!--    sun body-->
    <g transform="matrix(3.39528,0,0,3.39528,-8.64821,-9.57955)">
        <path d="M17.382,12.719C14.977,12.741 13.011,14.725 13.011,17.129C13.011,19.534 14.977,21.518 17.382,21.539C19.786,21.518 21.752,19.534 21.752,17.129C21.752,14.725 19.786,12.741 17.382,12.719ZM16.292,20.189C13.849,19.384 13.634,15.676 16.092,14.889C15.456,15.37 15.082,16.122 15.082,16.918C15.082,17.937 15.694,18.862 16.632,19.259C16.876,19.335 17.131,19.374 17.388,19.374C18.784,19.374 19.934,18.225 19.934,16.828C19.934,16.64 19.913,16.453 19.872,16.269C21.239,18.438 18.649,21.17 16.292,20.189L16.292,20.189Z" style="fill:url(#sunnovaGradient2);"/>
    </g>
<!--    sun rays-->
    <g transform="matrix(3.39528,0,0,3.39528,-8.64821,-9.57955)">
        <path d="M17.378,11.587C17.926,11.587 18.378,11.135 18.378,10.587L18.378,4.999C18.378,4.451 17.926,3.999 17.378,3.999C16.829,3.999 16.378,4.451 16.378,4.999L16.378,10.587C16.378,11.135 16.829,11.587 17.378,11.587Z" style="fill:url(#sunnovaGradient2);"/>
    </g>
    <g transform="matrix(3.39528,0,0,3.39528,-8.64821,-9.57955)">
        <path d="M21.299,13.211C21.486,13.398 21.741,13.504 22.006,13.504C22.271,13.504 22.526,13.398 22.713,13.211L26.664,9.26C26.851,9.073 26.957,8.818 26.957,8.553C26.957,8.005 26.505,7.553 25.957,7.553C25.692,7.553 25.437,7.659 25.25,7.846L21.299,11.797C21.111,11.984 21.006,12.239 21.006,12.504C21.006,12.769 21.111,13.023 21.299,13.211Z" style="fill:url(#sunnovaGradient2);"/>
    </g>
    <g transform="matrix(3.39528,0,0,3.39528,-8.64821,-9.57955)">
        <path d="M29.51,16.132L23.923,16.132C23.382,16.143 22.942,16.591 22.942,17.132C22.942,17.673 23.382,18.122 23.923,18.132L29.51,18.132C30.052,18.122 30.491,17.673 30.491,17.132C30.491,16.591 30.052,16.143 29.51,16.132Z" style="fill:url(#sunnovaGradient2);"/>
    </g>
    <g transform="matrix(3.39528,0,0,3.39528,-8.64821,-9.57955)">
        <path d="M21.299,21.053C21.111,21.24 21.006,21.495 21.006,21.76C21.006,22.025 21.111,22.28 21.299,22.467L25.25,26.418C25.437,26.606 25.692,26.711 25.957,26.711C26.505,26.711 26.957,26.26 26.957,25.711C26.957,25.446 26.851,25.192 26.664,25.004L22.713,21.053C22.526,20.866 22.271,20.76 22.006,20.76C21.741,20.76 21.486,20.866 21.299,21.053Z" style="fill:url(#sunnovaGradient2);"/>
    </g>
    <g transform="matrix(3.39528,0,0,3.39528,-8.64821,-9.57955)">
        <path d="M8.798,26.711C9.064,26.712 9.318,26.606 9.505,26.418L13.456,22.467C13.635,22.281 13.735,22.032 13.735,21.774C13.735,21.225 13.284,20.774 12.735,20.774C12.477,20.774 12.228,20.874 12.042,21.053L8.091,25.004C7.91,25.192 7.808,25.443 7.808,25.705C7.808,26.251 8.252,26.703 8.798,26.711Z" style="fill:url(#sunnovaGradient2);"/>
    </g>
    <g transform="matrix(3.39528,0,0,3.39528,-8.64821,-9.57955)">
        <path d="M10.832,18.132C11.373,18.122 11.813,17.673 11.813,17.132C11.813,16.591 11.373,16.143 10.832,16.132L5.245,16.132C4.696,16.132 4.245,16.584 4.245,17.132C4.245,17.681 4.696,18.132 5.245,18.132L10.832,18.132Z" style="fill:url(#sunnovaGradient2);"/>
    </g>
    <g transform="matrix(3.39528,0,0,3.39528,-8.64821,-9.57955)">
        <path d="M12.042,13.211C12.228,13.39 12.477,13.49 12.735,13.49C13.284,13.49 13.735,13.038 13.735,12.49C13.735,12.231 13.635,11.983 13.456,11.797L9.506,7.846C9.319,7.667 9.071,7.567 8.812,7.567C8.264,7.567 7.812,8.018 7.812,8.567C7.812,8.825 7.912,9.074 8.092,9.26L12.042,13.211Z" style="fill:url(#sunnovaGradient2);"/>
    </g>
    <g transform="matrix(3.39528,0,0,3.39528,-8.64821,-9.57955)">
        <path d="M14.023,11.507C14.184,11.867 14.542,12.099 14.936,12.099C15.485,12.099 15.936,11.647 15.936,11.099C15.936,10.971 15.912,10.844 15.864,10.725L14.452,7.402C14.291,7.043 13.933,6.811 13.54,6.811C12.991,6.811 12.539,7.262 12.539,7.811C12.539,7.939 12.564,8.065 12.612,8.184L14.023,11.507Z" style="fill:url(#sunnovaGradient2);"/>
    </g>
    <g transform="matrix(3.39528,0,0,3.39528,-8.64821,-9.57955)">
        <path d="M19.536,12.084C20.044,12.289 20.632,12.04 20.838,11.532L22.189,8.183C22.237,8.064 22.262,7.937 22.262,7.809C22.262,7.26 21.81,6.809 21.262,6.809C20.855,6.809 20.487,7.057 20.335,7.434L18.983,10.783C18.778,11.291 19.027,11.879 19.536,12.084Z" style="fill:url(#sunnovaGradient2);"/>
    </g>
    <g transform="matrix(3.39528,0,0,3.39528,-8.64821,-9.57955)">
        <path d="M26.325,12.366L23.003,13.778C22.644,13.939 22.412,14.297 22.412,14.69C22.412,15.239 22.863,15.69 23.412,15.69C23.54,15.69 23.666,15.666 23.785,15.618L27.108,14.207C27.466,14.046 27.698,13.688 27.698,13.294C27.698,12.745 27.247,12.294 26.698,12.294C26.57,12.294 26.444,12.318 26.325,12.366Z" style="fill:url(#sunnovaGradient2);"/>
    </g>
    <g transform="matrix(3.39528,0,0,3.39528,-8.64821,-9.57955)">
        <path d="M27.075,20.089L23.727,18.738C23.613,18.694 23.492,18.672 23.37,18.672C22.822,18.672 22.37,19.123 22.37,19.672C22.37,20.072 22.61,20.435 22.978,20.592C23.138,20.629 26.652,22.149 26.7,22.017C27.245,22.008 27.687,21.558 27.687,21.013C27.687,20.611 27.446,20.246 27.075,20.089Z" style="fill:url(#sunnovaGradient2);"/>
    </g>
    <g transform="matrix(3.39528,0,0,3.39528,-8.64821,-9.57955)">
        <path d="M19.421,22.228C18.916,22.442 18.677,23.034 18.891,23.539L20.303,26.862C20.459,27.231 20.823,27.471 21.223,27.471C21.772,27.471 22.223,27.02 22.223,26.471C22.223,26.337 22.196,26.204 22.144,26.08L20.732,22.757C20.517,22.252 19.925,22.014 19.421,22.228Z" style="fill:url(#sunnovaGradient2);"/>
    </g>
    <g transform="matrix(3.39528,0,0,3.39528,-8.64821,-9.57955)">
        <path d="M13.119,27.382C13.627,27.587 14.215,27.338 14.421,26.829L15.772,23.482C15.82,23.363 15.845,23.236 15.845,23.107C15.845,22.559 15.393,22.107 14.845,22.107C14.438,22.107 14.07,22.356 13.918,22.733L12.566,26.08C12.518,26.199 12.493,26.327 12.493,26.455C12.493,26.862 12.742,27.23 13.119,27.382Z" style="fill:url(#sunnovaGradient2);"/>
    </g>
    <g transform="matrix(3.39528,0,0,3.39528,-8.64821,-9.57955)">
        <path d="M11.753,20.487C12.112,20.326 12.344,19.967 12.344,19.574C12.344,19.025 11.892,18.574 11.343,18.574C11.216,18.574 11.089,18.598 10.97,18.646L7.648,20.057C7.286,20.218 7.052,20.579 7.052,20.975C7.052,21.519 7.495,21.969 8.039,21.978C8.119,22.108 11.577,20.534 11.753,20.487Z" style="fill:url(#sunnovaGradient2);"/>
    </g>
    <g transform="matrix(3.39528,0,0,3.39528,-8.64821,-9.57955)">
        <path d="M7.68,14.175L11.028,15.527C11.147,15.575 11.274,15.599 11.402,15.599C11.951,15.599 12.403,15.148 12.403,14.599C12.403,14.193 12.154,13.825 11.777,13.672L8.429,12.321C8.315,12.277 8.194,12.255 8.072,12.255C7.524,12.255 7.072,12.706 7.072,13.255C7.072,13.655 7.312,14.018 7.68,14.175Z" style="fill:url(#sunnovaGradient2);"/>
    </g>
    <g transform="matrix(3.39528,0,0,3.39528,-8.64821,-9.57955)">
        <path d="M16.378,23.678L16.378,29.436C16.388,29.977 16.836,30.417 17.378,30.417C17.919,30.417 18.367,29.977 18.378,29.436L18.378,23.678C18.367,23.136 17.919,22.697 17.378,22.697C16.836,22.697 16.388,23.136 16.378,23.678Z" style="fill:url(#sunnovaGradient2);"/>
    </g>
<!--    border-->
    <g transform="matrix(3.39528,0,0,3.39528,-8.64821,-9.57955)">
        <path d="M31.952,5.219C30.764,5.237 29.578,5.33 28.402,5.499L28.692,7.479C29.782,7.322 30.881,7.235 31.982,7.219C65.697,8.123 66.39,56.087 32.751,57.999C17.008,58.393 4.577,43.671 7.332,28.329L5.362,27.999C2.399,44.477 15.637,60.177 32.362,59.999C32.362,59.999 32.363,59.999 32.363,59.999C47.39,59.999 59.755,47.634 59.755,32.608C59.755,17.581 47.39,5.216 32.363,5.216C32.226,5.216 32.089,5.217 31.952,5.219Z" style="#000000"/>
    </g>
</svg>
