<?xml version="1.0" encoding="UTF-8" standalone="no"?>
<svg
   version="1.1"
   x="0px"
   y="0px"
   viewBox="0 0 66 82.5"
   style="enable-background:new 0 0 66 66;"
   xml:space="preserve"
   id="svg4631"
   sodipodi:docname="sunnovaSalesforce.svg"
   inkscape:version="1.1.1 (c3084ef, 2021-09-22)"
   xmlns:inkscape="http://www.inkscape.org/namespaces/inkscape"
   xmlns:sodipodi="http://sodipodi.sourceforge.net/DTD/sodipodi-0.dtd"
   xmlns="http://www.w3.org/2000/svg"
   xmlns:svg="http://www.w3.org/2000/svg"><defs
     id="defs4635" /><sodipodi:namedview
     id="namedview4633"
     pagecolor="#ffffff"
     bordercolor="#666666"
     borderopacity="1.0"
     inkscape:pageshadow="2"
     inkscape:pageopacity="0.0"
     inkscape:pagecheckerboard="0"
     showgrid="false"
     inkscape:zoom="7.6"
     inkscape:cx="32.960526"
     inkscape:cy="55.592105"
     inkscape:window-width="1296"
     inkscape:window-height="969"
     inkscape:window-x="797"
     inkscape:window-y="420"
     inkscape:window-maximized="0"
     inkscape:current-layer="svg4631" /><path
     d="M33,29.77c8.2,0,13.44-2.39,13.44-4.03c0-1.64-5.24-4.03-13.44-4.03c-8.2,0-13.43,2.38-13.44,4.03c0,0,0,0,0,0.01v0.01  C19.58,27.39,24.81,29.77,33,29.77z"
     id="path4611" /><path
     d="M19.56,34.79c0,0.52,0.59,1.17,1.61,1.76c0.43,0.25,0.94,0.49,1.52,0.71c2.62,1,6.37,1.58,10.31,1.58s7.69-0.57,10.31-1.58  c0.57-0.22,1.09-0.46,1.53-0.71c1.02-0.58,1.61-1.23,1.61-1.76V28.7c-2.79,1.95-8.23,2.97-13.45,2.97c-5.21,0-10.64-1.02-13.44-2.96  V34.79z M21.67,33.31c0.23-0.48,0.8-0.68,1.28-0.45c1.68,0.81,3.76,1.27,6.03,1.33c0.53,0.01,0.94,0.45,0.94,0.97  c-0.02,0.52-0.44,0.94-0.95,0.94h-0.03c-2.54-0.07-4.9-0.59-6.82-1.52C21.64,34.36,21.44,33.79,21.67,33.31z"
     id="path4613" /><path
     d="M37.93,57.21h-9.86c-0.53,0-0.95,0.43-0.95,0.95v4.43c0,0.53,0.43,0.95,0.95,0.95h9.86c0.53,0,0.95-0.43,0.95-0.95v-4.43  C38.88,57.64,38.46,57.21,37.93,57.21z"
     id="path4615" /><path
     d="M19.56,43.84c0,1.65,5.24,4.04,13.44,4.04c8.21,0,13.45-2.39,13.45-4.04v-6.05c-0.2,0.14-0.42,0.28-0.66,0.42  c-0.53,0.3-1.14,0.58-1.8,0.83c-2.82,1.08-6.83,1.7-10.99,1.7s-8.17-0.62-10.99-1.7c-0.67-0.26-1.27-0.53-1.79-0.83  c-0.24-0.14-0.46-0.28-0.66-0.42V43.84z M21.67,42.36c0.23-0.47,0.8-0.67,1.28-0.44c1.68,0.8,3.76,1.26,6.03,1.32  c0.53,0.01,0.94,0.45,0.94,0.98c-0.02,0.52-0.44,0.93-0.95,0.93h-0.03c-2.54-0.07-4.9-0.58-6.82-1.51  C21.64,43.41,21.44,42.84,21.67,42.36z"
     id="path4617" /><path
     d="M60.58,22.19c-1.93-1.91-4.48-2.97-7.18-2.97c-0.44,0-0.81-0.29-0.93-0.71c-1.56-5.89-6.91-10-13.01-10  c-0.43,0-0.84,0.02-1.26,0.06c-0.33,0.03-0.67-0.12-0.86-0.4c-2.53-3.58-6.64-5.72-11.02-5.72c-7.44,0-13.48,6.04-13.48,13.47  c0,0.73,0.06,1.47,0.18,2.2c0.05,0.27-0.03,0.54-0.2,0.75c-0.17,0.21-0.42,0.34-0.7,0.35c-5.43,0.25-9.68,4.7-9.68,10.15  c0,5.58,4.55,10.14,10.15,10.14h5.05V25.74c0-3.86,7.91-5.94,15.35-5.94c7.41,0,15.26,2.06,15.34,5.87  c0.01,0.03,0.02,0.05,0.02,0.07v13.78h5.04c5.59,0,10.15-4.55,10.15-10.14C63.55,26.67,62.49,24.12,60.58,22.19z M26.33,6.39  c-4.41,0-8.22,3-9.26,7.28c-0.1,0.44-0.5,0.73-0.93,0.73c-0.08,0-0.15-0.01-0.23-0.03c-0.52-0.12-0.82-0.64-0.7-1.15  c1.25-5.15,5.82-8.74,11.11-8.74c0.52,0,0.95,0.43,0.95,0.95C27.28,5.97,26.85,6.39,26.33,6.39z"
     id="path4619" /><path
     d="M50.73,59.42h-9.94v1.91h9.94c0.52,0,0.95-0.43,0.95-0.95C51.68,59.85,51.25,59.42,50.73,59.42z"
     id="path4621" /><path
     d="M14.32,60.38c0,0.52,0.43,0.95,0.95,0.95h9.94v-1.91h-9.94C14.75,59.42,14.32,59.85,14.32,60.38z"
     id="path4623" /><path
     d="M32.05,55.3h1.91v-5.52c-0.32,0.01-0.64,0.02-0.95,0.02c-0.32,0-0.64-0.01-0.95-0.02V55.3z"
     id="path4625" /></svg>
